# MiraLowerFace: open authoring surface, head-local metres, NOT a complete or runtime face
o MiraLowerFace
v -0.0390000000 0.0300000000 0.1160000000
v -0.0461777344 0.0305000000 0.1168339844
v -0.0540468750 0.0311875000 0.1162968750
v -0.0623613281 0.0319687500 0.1143300781
v -0.0708750000 0.0327500000 0.1108750000
v -0.0793417969 0.0334375000 0.1058730469
v -0.0875156250 0.0339375000 0.0992656250
v -0.0951503906 0.0341562500 0.0909941406
v -0.1020000000 0.0340000000 0.0810000000
v -0.0390205078 0.0252568359 0.1159863281
v -0.0461813450 0.0257097092 0.1164356098
v -0.0540149689 0.0263515015 0.1155123444
v -0.0622826672 0.0270990372 0.1131617947
v -0.0707457275 0.0278691406 0.1093292236
v -0.0791654377 0.0285786362 0.1039598942
v -0.0873030853 0.0291443481 0.0969990692
v -0.0949199581 0.0294831009 0.0883920116
v -0.1017773437 0.0295117188 0.0780839844
v -0.0390703125 0.0205234375 0.1159531250
v -0.0462054596 0.0209347534 0.1160108185
v -0.0539932861 0.0215405273 0.1147008057
v -0.0622046356 0.0222686157 0.1119693451
v -0.0706103516 0.0230468750 0.1077626953
v -0.0789812775 0.0238031616 0.1020271149
v -0.0870882568 0.0244653320 0.0947088623
v -0.0947021332 0.0249612427 0.0857541962
v -0.1015937500 0.0252187500 0.0751093750
v -0.0391318359 0.0157939453 0.1159121094
v -0.0462377758 0.0161659317 0.1155754604
v -0.0539756927 0.0167395630 0.1138784637
v -0.0621268559 0.0174539108 0.1107672291
v -0.0704725342 0.0182480469 0.1061878662
v -0.0787939968 0.0190610428 0.1000864849
v -0.0868725128 0.0198319702 0.0924091949
v -0.0944893513 0.0204999008 0.0831021061
v -0.1014257812 0.0210039063 0.0721113281
v -0.0391875000 0.0110625000 0.1158750000
v -0.0462659912 0.0113940430 0.1151453857
v -0.0539560547 0.0119335937 0.1130615234
v -0.0620489502 0.0126313477 0.1095699463
v -0.0703359375 0.0134375000 0.1046171875
v -0.0786082764 0.0143022461 0.0981497803
v -0.0866572266 0.0151757813 0.0901142578
v -0.0942740479 0.0160083008 0.0804571533
v -0.1012500000 0.0167500000 0.0691250000
v -0.0392197266 0.0063232422 0.1158535156
v -0.0462778034 0.0066098862 0.1147364445
v -0.0539282379 0.0071076050 0.1122661896
v -0.0619705410 0.0077773514 0.1083919964
v -0.0702042236 0.0085800781 0.1030631104
v -0.0784287968 0.0094767380 0.0962287769
v -0.0864437714 0.0104282837 0.0878382416
v -0.0940486584 0.0113956680 0.0778407497
v -0.1010429688 0.0123398438 0.0661855469
v -0.0392109375 0.0015703125 0.1158593750
v -0.0462609100 0.0018042603 0.1143644867
v -0.0538861084 0.0022465820 0.1115086670
v -0.0618912506 0.0028683472 0.1072478790
v -0.0700810547 0.0036406250 0.1015380859
v -0.0782602386 0.0045344849 0.0943352509
v -0.0862335205 0.0055209961 0.0855953369
v -0.0938056183 0.0065712280 0.0752743073
v -0.1007812500 0.0076562500 0.0633281250
v -0.0391435547 -0.0032021484 0.1159042969
v -0.0462030087 -0.0030320358 0.1140453625
v -0.0538235321 -0.0026644897 0.1108051605
v -0.0618107014 -0.0021192398 0.1061520939
v -0.0699700928 -0.0014160156 0.1000545654
v -0.0781072826 -0.0005745468 0.0924809780
v -0.0860278473 0.0003854370 0.0833997345
v -0.0935373631 0.0014442062 0.0727792377
v -0.1004414063 0.0025820313 0.0605878906
v -0.0390000000 -0.0080000000 0.1160000000
v -0.0460917969 -0.0079082031 0.1137949219
v -0.0537343750 -0.0076406250 0.1101718750
v -0.0617285156 -0.0072089844 0.1051191406
v -0.0698750000 -0.0066250000 0.0986250000
v -0.0779746094 -0.0059003906 0.0906777344
v -0.0858281250 -0.0050468750 0.0812656250
v -0.0932363281 -0.0040761719 0.0703769531
v -0.1000000000 -0.0030000000 0.0580000000
v -0.0388164063 -0.0130253906 0.1161064453
v -0.0460166187 -0.0130091915 0.1135247440
v -0.0537664337 -0.0128538666 0.1094626007
v -0.0618516293 -0.0125652180 0.1039414043
v -0.0700579834 -0.0121490479 0.0969825439
v -0.0781712742 -0.0116111584 0.0886074085
v -0.0859772797 -0.0109573517 0.0788373871
v -0.0932617779 -0.0101934299 0.0676938686
v -0.0998105469 -0.0093251953 0.0551982422
v -0.0386250000 -0.0183593750 0.1161953125
v -0.0460274811 -0.0184055023 0.1131818390
v -0.0539888916 -0.0183636475 0.1085992432
v -0.0622690887 -0.0182359161 0.1025160980
v -0.0706279297 -0.0180244141 0.0950009766
v -0.0788252716 -0.0177312469 0.0861224518
v -0.0866209717 -0.0173585205 0.0759490967
v -0.0937748871 -0.0169083405 0.0645494843
v -0.1000468750 -0.0163828125 0.0519921875
v -0.0384023437 -0.0238261719 0.1162958984
v -0.0460530758 -0.0239346638 0.1128352032
v -0.0542776947 -0.0240160675 0.1077001801
v -0.0628036823 -0.0240701199 0.1010149632
v -0.0713585205 -0.0240965576 0.0929036865
v -0.0796696911 -0.0240951176 0.0834904842
v -0.0874646759 -0.0240655365 0.0728994904
v -0.0944709568 -0.0240075512 0.0612548389
v -0.1004160156 -0.0239208984 0.0486806641
v -0.0381250000 -0.0292500000 0.1164375000
v -0.0460220947 -0.0294342041 0.1125538330
v -0.0545087891 -0.0296572266 0.1068837891
v -0.0632781982 -0.0299168701 0.0996097412
v -0.0720234375 -0.0302109375 0.0909140625
v -0.0804376221 -0.0305372314 0.0809791260
v -0.0882138672 -0.0308935547 0.0699873047
v -0.0950452881 -0.0312777100 0.0581209717
v -0.1006250000 -0.0316875000 0.0455625000
v -0.0377695312 -0.0344550781 0.1166494141
v -0.0458632298 -0.0347416515 0.1124067249
v -0.0545581207 -0.0351332245 0.1062684479
v -0.0635154247 -0.0356252079 0.0984721737
v -0.0723963623 -0.0362130127 0.0892554932
v -0.0808621540 -0.0368920498 0.0788559971
v -0.0885740204 -0.0376577301 0.0675112762
v -0.0951931820 -0.0385054646 0.0554589214
v -0.1003808594 -0.0394306641 0.0429365234
v -0.0373125000 -0.0392656250 0.1169609375
v -0.0455051727 -0.0396945343 0.1124628754
v -0.0543016357 -0.0402901611 0.1059725342
v -0.0633381500 -0.0410441742 0.0977740021
v -0.0722509766 -0.0419482422 0.0881513672
v -0.0806763763 -0.0429940338 0.0773887177
v -0.0882506104 -0.0441732178 0.0657701416
v -0.0946099396 -0.0454774628 0.0535797272
v -0.0993906250 -0.0468984375 0.0411015625
v -0.0367304687 -0.0435058594 0.1174013672
v -0.0448766155 -0.0441303806 0.1127912807
v -0.0536152802 -0.0449741364 0.1061144257
v -0.0625691624 -0.0460228100 0.0976869678
v -0.0713609619 -0.0472620850 0.0878250732
v -0.0796133785 -0.0486776447 0.0768449078
v -0.0869491119 -0.0502551727 0.0650626373
v -0.0929908619 -0.0519803524 0.0527944279
v -0.0973613281 -0.0538388672 0.0403564453
v -0.0360000000 -0.0470000000 0.1180000000
v -0.0439062500 -0.0478867187 0.1134609375
v -0.0523750000 -0.0490312500 0.1068125000
v -0.0610312500 -0.0504101562 0.0983828125
v -0.0695000000 -0.0520000000 0.0885000000
v -0.0774062500 -0.0537773437 0.0774921875
v -0.0843750000 -0.0557187500 0.0656875000
v -0.0900312500 -0.0578007812 0.0534140625
v -0.0940000000 -0.0600000000 0.0410000000
v -0.0353720703 -0.0497060547 0.1188515625
v -0.0427950077 -0.0509604435 0.1146330395
v -0.0507234650 -0.0524973297 0.1082986298
v -0.0588043804 -0.0542797832 0.1001641788
v -0.0666846924 -0.0562708740 0.0905455322
v -0.0740113392 -0.0584336720 0.0797585354
v -0.0804312592 -0.0607312469 0.0681190338
v -0.0855913906 -0.0631266689 0.0559428730
v -0.0891386719 -0.0655830078 0.0435458984
v -0.0349765625 -0.0517734375 0.1199687500
v -0.0416969147 -0.0535049591 0.1163109589
v -0.0488399658 -0.0555343018 0.1105594482
v -0.0560915985 -0.0578069916 0.1029972076
v -0.0631376953 -0.0602685547 0.0939072266
v -0.0696641388 -0.0628645172 0.0835724945
v -0.0753568115 -0.0655404053 0.0722760010
v -0.0799015961 -0.0682417450 0.0603007355
v -0.0829843750 -0.0709140625 0.0479296875
v -0.0346083984 -0.0533134766 0.1212578125
v -0.0404703045 -0.0555925579 0.1183269596
v -0.0466553802 -0.0581774139 0.1133454742
v -0.0529003086 -0.0609934177 0.1065488873
v -0.0589417725 -0.0639659424 0.0981727295
v -0.0645164547 -0.0670203609 0.0884525318
v -0.0693610382 -0.0700820465 0.0776238251
v -0.0732122059 -0.0730763721 0.0659221401
v -0.0758066406 -0.0759287109 0.0535830078
v -0.0340625000 -0.0544375000 0.1226250000
v -0.0389735107 -0.0572955322 0.1205133057
v -0.0441005859 -0.0604619141 0.1164072266
v -0.0492379150 -0.0638406982 0.1104862061
v -0.0541796875 -0.0673359375 0.1029296875
v -0.0587200928 -0.0708516846 0.0939171143
v -0.0626533203 -0.0742919922 0.0836279297
v -0.0657735596 -0.0775609131 0.0722415771
v -0.0678750000 -0.0805625000 0.0599375000
v -0.0331337891 -0.0552568359 0.1239765625
v -0.0370648670 -0.0586861744 0.1227022610
v -0.0411064606 -0.0624230499 0.1194952240
v -0.0451118221 -0.0663504696 0.1144761524
v -0.0489342041 -0.0703514404 0.1077657471
v -0.0524268589 -0.0743089695 0.0994847088
v -0.0554430389 -0.0781060638 0.0897537384
v -0.0578359966 -0.0816257305 0.0786935368
v -0.0594589844 -0.0847509766 0.0664248047
v -0.0316171875 -0.0558828125 0.1252187500
v -0.0346027069 -0.0598367767 0.1247260895
v -0.0376038818 -0.0640960693 0.1223599854
v -0.0405294342 -0.0685243683 0.1181857147
v -0.0432880859 -0.0729853516 0.1122685547
v -0.0457885590 -0.0773426971 0.1046737823
v -0.0479395752 -0.0814600830 0.0954666748
v -0.0496498566 -0.0852011871 0.0847125092
v -0.0508281250 -0.0884296875 0.0724765625
v -0.0293076172 -0.0564267578 0.1262578125
v -0.0314453640 -0.0608196316 0.1264170551
v -0.0335237274 -0.0655162201 0.1247520294
v -0.0354981556 -0.0703640308 0.1212818813
v -0.0373240967 -0.0752105713 0.1160257568
v -0.0389569988 -0.0799033489 0.1090028019
v -0.0403523102 -0.0842898712 0.1002321625
v -0.0414654789 -0.0882176456 0.0897329845
v -0.0422519531 -0.0915341797 0.0775244141
v -0.0260000000 -0.0570000000 0.1270000000
v -0.0274511719 -0.0617070313 0.1276074219
v -0.0287968750 -0.0667187500 0.1264218750
v -0.0300253906 -0.0718710938 0.1234316406
v -0.0311250000 -0.0770000000 0.1186250000
v -0.0320839844 -0.0819414063 0.1119902344
v -0.0328906250 -0.0865312500 0.1035156250
v -0.0335332031 -0.0906054688 0.0931894531
v -0.0340000000 -0.0940000000 0.0810000000
v -0.0212226562 -0.0575468750 0.1274921875
v -0.0221653175 -0.0624628296 0.1283810577
v -0.0229928284 -0.0676860352 0.1274942627
v -0.0237103386 -0.0730447388 0.1248014984
v -0.0243229980 -0.0783671875 0.1202724609
v -0.0248359566 -0.0834816284 0.1138768463
v -0.0252543640 -0.0882163086 0.1055843506
v -0.0255833702 -0.0923994751 0.0953646698
v -0.0258281250 -0.0958593750 0.0831875000
v -0.0149687500 -0.0579375000 0.1278437500
v -0.0155278015 -0.0630026855 0.1289336548
v -0.0159929199 -0.0683769531 0.1282602539
v -0.0163741760 -0.0738830566 0.1257799683
v -0.0166816406 -0.0793437500 0.1214492188
v -0.0169253845 -0.0845817871 0.1152244263
v -0.0171154785 -0.0894199219 0.1070620117
v -0.0172619934 -0.0936809082 0.0969183960
v -0.0173750000 -0.0971875000 0.0847500000
v -0.0077304688 -0.0581718750 0.1280546875
v -0.0079891777 -0.0633265991 0.1292652130
v -0.0081957703 -0.0687915039 0.1287198486
v -0.0083572731 -0.0743860474 0.1263670502
v -0.0084807129 -0.0799296875 0.1221552734
v -0.0085731163 -0.0852418823 0.1160329742
v -0.0086415100 -0.0901420898 0.1079486084
v -0.0086929207 -0.0944497681 0.0978506317
v -0.0087343750 -0.0979843750 0.0856875000
v 0.0000000000 -0.0582500000 0.1281250000
v -0.0000000000 -0.0634345703 0.1293757324
v -0.0000000000 -0.0689296875 0.1288730469
v -0.0000000000 -0.0745537109 0.1265627441
v 0.0000000000 -0.0801250000 0.1223906250
v 0.0000000000 -0.0854619141 0.1163024902
v -0.0000000000 -0.0903828125 0.1082441406
v -0.0000000000 -0.0947060547 0.0981613770
v 0.0000000000 -0.0982500000 0.0860000000
v 0.0077304688 -0.0581718750 0.1280546875
v 0.0079891777 -0.0633265991 0.1292652130
v 0.0081957703 -0.0687915039 0.1287198486
v 0.0083572731 -0.0743860474 0.1263670502
v 0.0084807129 -0.0799296875 0.1221552734
v 0.0085731163 -0.0852418823 0.1160329742
v 0.0086415100 -0.0901420898 0.1079486084
v 0.0086929207 -0.0944497681 0.0978506317
v 0.0087343750 -0.0979843750 0.0856875000
v 0.0149687500 -0.0579375000 0.1278437500
v 0.0155278015 -0.0630026855 0.1289336548
v 0.0159929199 -0.0683769531 0.1282602539
v 0.0163741760 -0.0738830566 0.1257799683
v 0.0166816406 -0.0793437500 0.1214492188
v 0.0169253845 -0.0845817871 0.1152244263
v 0.0171154785 -0.0894199219 0.1070620117
v 0.0172619934 -0.0936809082 0.0969183960
v 0.0173750000 -0.0971875000 0.0847500000
v 0.0212226562 -0.0575468750 0.1274921875
v 0.0221653175 -0.0624628296 0.1283810577
v 0.0229928284 -0.0676860352 0.1274942627
v 0.0237103386 -0.0730447388 0.1248014984
v 0.0243229980 -0.0783671875 0.1202724609
v 0.0248359566 -0.0834816284 0.1138768463
v 0.0252543640 -0.0882163086 0.1055843506
v 0.0255833702 -0.0923994751 0.0953646698
v 0.0258281250 -0.0958593750 0.0831875000
v 0.0260000000 -0.0570000000 0.1270000000
v 0.0274511719 -0.0617070313 0.1276074219
v 0.0287968750 -0.0667187500 0.1264218750
v 0.0300253906 -0.0718710938 0.1234316406
v 0.0311250000 -0.0770000000 0.1186250000
v 0.0320839844 -0.0819414063 0.1119902344
v 0.0328906250 -0.0865312500 0.1035156250
v 0.0335332031 -0.0906054688 0.0931894531
v 0.0340000000 -0.0940000000 0.0810000000
v 0.0293076172 -0.0564267578 0.1262578125
v 0.0314453640 -0.0608196316 0.1264170551
v 0.0335237274 -0.0655162201 0.1247520294
v 0.0354981556 -0.0703640308 0.1212818813
v 0.0373240967 -0.0752105713 0.1160257568
v 0.0389569988 -0.0799033489 0.1090028019
v 0.0403523102 -0.0842898712 0.1002321625
v 0.0414654789 -0.0882176456 0.0897329845
v 0.0422519531 -0.0915341797 0.0775244141
v 0.0316171875 -0.0558828125 0.1252187500
v 0.0346027069 -0.0598367767 0.1247260895
v 0.0376038818 -0.0640960693 0.1223599854
v 0.0405294342 -0.0685243683 0.1181857147
v 0.0432880859 -0.0729853516 0.1122685547
v 0.0457885590 -0.0773426971 0.1046737823
v 0.0479395752 -0.0814600830 0.0954666748
v 0.0496498566 -0.0852011871 0.0847125092
v 0.0508281250 -0.0884296875 0.0724765625
v 0.0331337891 -0.0552568359 0.1239765625
v 0.0370648670 -0.0586861744 0.1227022610
v 0.0411064606 -0.0624230499 0.1194952240
v 0.0451118221 -0.0663504696 0.1144761524
v 0.0489342041 -0.0703514404 0.1077657471
v 0.0524268589 -0.0743089695 0.0994847088
v 0.0554430389 -0.0781060638 0.0897537384
v 0.0578359966 -0.0816257305 0.0786935368
v 0.0594589844 -0.0847509766 0.0664248047
v 0.0340625000 -0.0544375000 0.1226250000
v 0.0389735107 -0.0572955322 0.1205133057
v 0.0441005859 -0.0604619141 0.1164072266
v 0.0492379150 -0.0638406982 0.1104862061
v 0.0541796875 -0.0673359375 0.1029296875
v 0.0587200928 -0.0708516846 0.0939171143
v 0.0626533203 -0.0742919922 0.0836279297
v 0.0657735596 -0.0775609131 0.0722415771
v 0.0678750000 -0.0805625000 0.0599375000
v 0.0346083984 -0.0533134766 0.1212578125
v 0.0404703045 -0.0555925579 0.1183269596
v 0.0466553802 -0.0581774139 0.1133454742
v 0.0529003086 -0.0609934177 0.1065488873
v 0.0589417725 -0.0639659424 0.0981727295
v 0.0645164547 -0.0670203609 0.0884525318
v 0.0693610382 -0.0700820465 0.0776238251
v 0.0732122059 -0.0730763721 0.0659221401
v 0.0758066406 -0.0759287109 0.0535830078
v 0.0349765625 -0.0517734375 0.1199687500
v 0.0416969147 -0.0535049591 0.1163109589
v 0.0488399658 -0.0555343018 0.1105594482
v 0.0560915985 -0.0578069916 0.1029972076
v 0.0631376953 -0.0602685547 0.0939072266
v 0.0696641388 -0.0628645172 0.0835724945
v 0.0753568115 -0.0655404053 0.0722760010
v 0.0799015961 -0.0682417450 0.0603007355
v 0.0829843750 -0.0709140625 0.0479296875
v 0.0353720703 -0.0497060547 0.1188515625
v 0.0427950077 -0.0509604435 0.1146330395
v 0.0507234650 -0.0524973297 0.1082986298
v 0.0588043804 -0.0542797832 0.1001641788
v 0.0666846924 -0.0562708740 0.0905455322
v 0.0740113392 -0.0584336720 0.0797585354
v 0.0804312592 -0.0607312469 0.0681190338
v 0.0855913906 -0.0631266689 0.0559428730
v 0.0891386719 -0.0655830078 0.0435458984
v 0.0360000000 -0.0470000000 0.1180000000
v 0.0439062500 -0.0478867187 0.1134609375
v 0.0523750000 -0.0490312500 0.1068125000
v 0.0610312500 -0.0504101562 0.0983828125
v 0.0695000000 -0.0520000000 0.0885000000
v 0.0774062500 -0.0537773437 0.0774921875
v 0.0843750000 -0.0557187500 0.0656875000
v 0.0900312500 -0.0578007812 0.0534140625
v 0.0940000000 -0.0600000000 0.0410000000
v 0.0367304687 -0.0435058594 0.1174013672
v 0.0448766155 -0.0441303806 0.1127912807
v 0.0536152802 -0.0449741364 0.1061144257
v 0.0625691624 -0.0460228100 0.0976869678
v 0.0713609619 -0.0472620850 0.0878250732
v 0.0796133785 -0.0486776447 0.0768449078
v 0.0869491119 -0.0502551727 0.0650626373
v 0.0929908619 -0.0519803524 0.0527944279
v 0.0973613281 -0.0538388672 0.0403564453
v 0.0373125000 -0.0392656250 0.1169609375
v 0.0455051727 -0.0396945343 0.1124628754
v 0.0543016357 -0.0402901611 0.1059725342
v 0.0633381500 -0.0410441742 0.0977740021
v 0.0722509766 -0.0419482422 0.0881513672
v 0.0806763763 -0.0429940338 0.0773887177
v 0.0882506104 -0.0441732178 0.0657701416
v 0.0946099396 -0.0454774628 0.0535797272
v 0.0993906250 -0.0468984375 0.0411015625
v 0.0377695312 -0.0344550781 0.1166494141
v 0.0458632298 -0.0347416515 0.1124067249
v 0.0545581207 -0.0351332245 0.1062684479
v 0.0635154247 -0.0356252079 0.0984721737
v 0.0723963623 -0.0362130127 0.0892554932
v 0.0808621540 -0.0368920498 0.0788559971
v 0.0885740204 -0.0376577301 0.0675112762
v 0.0951931820 -0.0385054646 0.0554589214
v 0.1003808594 -0.0394306641 0.0429365234
v 0.0381250000 -0.0292500000 0.1164375000
v 0.0460220947 -0.0294342041 0.1125538330
v 0.0545087891 -0.0296572266 0.1068837891
v 0.0632781982 -0.0299168701 0.0996097412
v 0.0720234375 -0.0302109375 0.0909140625
v 0.0804376221 -0.0305372314 0.0809791260
v 0.0882138672 -0.0308935547 0.0699873047
v 0.0950452881 -0.0312777100 0.0581209717
v 0.1006250000 -0.0316875000 0.0455625000
v 0.0384023437 -0.0238261719 0.1162958984
v 0.0460530758 -0.0239346638 0.1128352032
v 0.0542776947 -0.0240160675 0.1077001801
v 0.0628036823 -0.0240701199 0.1010149632
v 0.0713585205 -0.0240965576 0.0929036865
v 0.0796696911 -0.0240951176 0.0834904842
v 0.0874646759 -0.0240655365 0.0728994904
v 0.0944709568 -0.0240075512 0.0612548389
v 0.1004160156 -0.0239208984 0.0486806641
v 0.0386250000 -0.0183593750 0.1161953125
v 0.0460274811 -0.0184055023 0.1131818390
v 0.0539888916 -0.0183636475 0.1085992432
v 0.0622690887 -0.0182359161 0.1025160980
v 0.0706279297 -0.0180244141 0.0950009766
v 0.0788252716 -0.0177312469 0.0861224518
v 0.0866209717 -0.0173585205 0.0759490967
v 0.0937748871 -0.0169083405 0.0645494843
v 0.1000468750 -0.0163828125 0.0519921875
v 0.0388164063 -0.0130253906 0.1161064453
v 0.0460166187 -0.0130091915 0.1135247440
v 0.0537664337 -0.0128538666 0.1094626007
v 0.0618516293 -0.0125652180 0.1039414043
v 0.0700579834 -0.0121490479 0.0969825439
v 0.0781712742 -0.0116111584 0.0886074085
v 0.0859772797 -0.0109573517 0.0788373871
v 0.0932617779 -0.0101934299 0.0676938686
v 0.0998105469 -0.0093251953 0.0551982422
v 0.0390000000 -0.0080000000 0.1160000000
v 0.0460917969 -0.0079082031 0.1137949219
v 0.0537343750 -0.0076406250 0.1101718750
v 0.0617285156 -0.0072089844 0.1051191406
v 0.0698750000 -0.0066250000 0.0986250000
v 0.0779746094 -0.0059003906 0.0906777344
v 0.0858281250 -0.0050468750 0.0812656250
v 0.0932363281 -0.0040761719 0.0703769531
v 0.1000000000 -0.0030000000 0.0580000000
v 0.0391435547 -0.0032021484 0.1159042969
v 0.0462030087 -0.0030320358 0.1140453625
v 0.0538235321 -0.0026644897 0.1108051605
v 0.0618107014 -0.0021192398 0.1061520939
v 0.0699700928 -0.0014160156 0.1000545654
v 0.0781072826 -0.0005745468 0.0924809780
v 0.0860278473 0.0003854370 0.0833997345
v 0.0935373631 0.0014442062 0.0727792377
v 0.1004414063 0.0025820313 0.0605878906
v 0.0392109375 0.0015703125 0.1158593750
v 0.0462609100 0.0018042603 0.1143644867
v 0.0538861084 0.0022465820 0.1115086670
v 0.0618912506 0.0028683472 0.1072478790
v 0.0700810547 0.0036406250 0.1015380859
v 0.0782602386 0.0045344849 0.0943352509
v 0.0862335205 0.0055209961 0.0855953369
v 0.0938056183 0.0065712280 0.0752743073
v 0.1007812500 0.0076562500 0.0633281250
v 0.0392197266 0.0063232422 0.1158535156
v 0.0462778034 0.0066098862 0.1147364445
v 0.0539282379 0.0071076050 0.1122661896
v 0.0619705410 0.0077773514 0.1083919964
v 0.0702042236 0.0085800781 0.1030631104
v 0.0784287968 0.0094767380 0.0962287769
v 0.0864437714 0.0104282837 0.0878382416
v 0.0940486584 0.0113956680 0.0778407497
v 0.1010429687 0.0123398438 0.0661855469
v 0.0391875000 0.0110625000 0.1158750000
v 0.0462659912 0.0113940430 0.1151453857
v 0.0539560547 0.0119335937 0.1130615234
v 0.0620489502 0.0126313477 0.1095699463
v 0.0703359375 0.0134375000 0.1046171875
v 0.0786082764 0.0143022461 0.0981497803
v 0.0866572266 0.0151757813 0.0901142578
v 0.0942740479 0.0160083008 0.0804571533
v 0.1012500000 0.0167500000 0.0691250000
v 0.0391318359 0.0157939453 0.1159121094
v 0.0462377758 0.0161659317 0.1155754604
v 0.0539756927 0.0167395630 0.1138784637
v 0.0621268559 0.0174539108 0.1107672291
v 0.0704725342 0.0182480469 0.1061878662
v 0.0787939968 0.0190610428 0.1000864849
v 0.0868725128 0.0198319702 0.0924091949
v 0.0944893513 0.0204999008 0.0831021061
v 0.1014257812 0.0210039062 0.0721113281
v 0.0390703125 0.0205234375 0.1159531250
v 0.0462054596 0.0209347534 0.1160108185
v 0.0539932861 0.0215405273 0.1147008057
v 0.0622046356 0.0222686157 0.1119693451
v 0.0706103516 0.0230468750 0.1077626953
v 0.0789812775 0.0238031616 0.1020271149
v 0.0870882568 0.0244653320 0.0947088623
v 0.0947021332 0.0249612427 0.0857541962
v 0.1015937500 0.0252187500 0.0751093750
v 0.0390205078 0.0252568359 0.1159863281
v 0.0461813450 0.0257097092 0.1164356098
v 0.0540149689 0.0263515015 0.1155123444
v 0.0622826672 0.0270990372 0.1131617947
v 0.0707457275 0.0278691406 0.1093292236
v 0.0791654377 0.0285786362 0.1039598942
v 0.0873030853 0.0291443481 0.0969990692
v 0.0949199581 0.0294831009 0.0883920116
v 0.1017773437 0.0295117188 0.0780839844
v 0.0390000000 0.0300000000 0.1160000000
v 0.0461777344 0.0305000000 0.1168339844
v 0.0540468750 0.0311875000 0.1162968750
v 0.0623613281 0.0319687500 0.1143300781
v 0.0708750000 0.0327500000 0.1108750000
v 0.0793417969 0.0334375000 0.1058730469
v 0.0875156250 0.0339375000 0.0992656250
v 0.0951503906 0.0341562500 0.0909941406
v 0.1020000000 0.0340000000 0.0810000000
vt 0.0000000000 0.0000000000
vt 0.1250000000 0.0000000000
vt 0.2500000000 0.0000000000
vt 0.3750000000 0.0000000000
vt 0.5000000000 0.0000000000
vt 0.6250000000 0.0000000000
vt 0.7500000000 0.0000000000
vt 0.8750000000 0.0000000000
vt 1.0000000000 0.0000000000
vt 0.0000000000 0.0178571429
vt 0.1250000000 0.0178571429
vt 0.2500000000 0.0178571429
vt 0.3750000000 0.0178571429
vt 0.5000000000 0.0178571429
vt 0.6250000000 0.0178571429
vt 0.7500000000 0.0178571429
vt 0.8750000000 0.0178571429
vt 1.0000000000 0.0178571429
vt 0.0000000000 0.0357142857
vt 0.1250000000 0.0357142857
vt 0.2500000000 0.0357142857
vt 0.3750000000 0.0357142857
vt 0.5000000000 0.0357142857
vt 0.6250000000 0.0357142857
vt 0.7500000000 0.0357142857
vt 0.8750000000 0.0357142857
vt 1.0000000000 0.0357142857
vt 0.0000000000 0.0535714286
vt 0.1250000000 0.0535714286
vt 0.2500000000 0.0535714286
vt 0.3750000000 0.0535714286
vt 0.5000000000 0.0535714286
vt 0.6250000000 0.0535714286
vt 0.7500000000 0.0535714286
vt 0.8750000000 0.0535714286
vt 1.0000000000 0.0535714286
vt 0.0000000000 0.0714285714
vt 0.1250000000 0.0714285714
vt 0.2500000000 0.0714285714
vt 0.3750000000 0.0714285714
vt 0.5000000000 0.0714285714
vt 0.6250000000 0.0714285714
vt 0.7500000000 0.0714285714
vt 0.8750000000 0.0714285714
vt 1.0000000000 0.0714285714
vt 0.0000000000 0.0892857143
vt 0.1250000000 0.0892857143
vt 0.2500000000 0.0892857143
vt 0.3750000000 0.0892857143
vt 0.5000000000 0.0892857143
vt 0.6250000000 0.0892857143
vt 0.7500000000 0.0892857143
vt 0.8750000000 0.0892857143
vt 1.0000000000 0.0892857143
vt 0.0000000000 0.1071428571
vt 0.1250000000 0.1071428571
vt 0.2500000000 0.1071428571
vt 0.3750000000 0.1071428571
vt 0.5000000000 0.1071428571
vt 0.6250000000 0.1071428571
vt 0.7500000000 0.1071428571
vt 0.8750000000 0.1071428571
vt 1.0000000000 0.1071428571
vt 0.0000000000 0.1250000000
vt 0.1250000000 0.1250000000
vt 0.2500000000 0.1250000000
vt 0.3750000000 0.1250000000
vt 0.5000000000 0.1250000000
vt 0.6250000000 0.1250000000
vt 0.7500000000 0.1250000000
vt 0.8750000000 0.1250000000
vt 1.0000000000 0.1250000000
vt 0.0000000000 0.1428571429
vt 0.1250000000 0.1428571429
vt 0.2500000000 0.1428571429
vt 0.3750000000 0.1428571429
vt 0.5000000000 0.1428571429
vt 0.6250000000 0.1428571429
vt 0.7500000000 0.1428571429
vt 0.8750000000 0.1428571429
vt 1.0000000000 0.1428571429
vt 0.0000000000 0.1607142857
vt 0.1250000000 0.1607142857
vt 0.2500000000 0.1607142857
vt 0.3750000000 0.1607142857
vt 0.5000000000 0.1607142857
vt 0.6250000000 0.1607142857
vt 0.7500000000 0.1607142857
vt 0.8750000000 0.1607142857
vt 1.0000000000 0.1607142857
vt 0.0000000000 0.1785714286
vt 0.1250000000 0.1785714286
vt 0.2500000000 0.1785714286
vt 0.3750000000 0.1785714286
vt 0.5000000000 0.1785714286
vt 0.6250000000 0.1785714286
vt 0.7500000000 0.1785714286
vt 0.8750000000 0.1785714286
vt 1.0000000000 0.1785714286
vt 0.0000000000 0.1964285714
vt 0.1250000000 0.1964285714
vt 0.2500000000 0.1964285714
vt 0.3750000000 0.1964285714
vt 0.5000000000 0.1964285714
vt 0.6250000000 0.1964285714
vt 0.7500000000 0.1964285714
vt 0.8750000000 0.1964285714
vt 1.0000000000 0.1964285714
vt 0.0000000000 0.2142857143
vt 0.1250000000 0.2142857143
vt 0.2500000000 0.2142857143
vt 0.3750000000 0.2142857143
vt 0.5000000000 0.2142857143
vt 0.6250000000 0.2142857143
vt 0.7500000000 0.2142857143
vt 0.8750000000 0.2142857143
vt 1.0000000000 0.2142857143
vt 0.0000000000 0.2321428571
vt 0.1250000000 0.2321428571
vt 0.2500000000 0.2321428571
vt 0.3750000000 0.2321428571
vt 0.5000000000 0.2321428571
vt 0.6250000000 0.2321428571
vt 0.7500000000 0.2321428571
vt 0.8750000000 0.2321428571
vt 1.0000000000 0.2321428571
vt 0.0000000000 0.2500000000
vt 0.1250000000 0.2500000000
vt 0.2500000000 0.2500000000
vt 0.3750000000 0.2500000000
vt 0.5000000000 0.2500000000
vt 0.6250000000 0.2500000000
vt 0.7500000000 0.2500000000
vt 0.8750000000 0.2500000000
vt 1.0000000000 0.2500000000
vt 0.0000000000 0.2678571429
vt 0.1250000000 0.2678571429
vt 0.2500000000 0.2678571429
vt 0.3750000000 0.2678571429
vt 0.5000000000 0.2678571429
vt 0.6250000000 0.2678571429
vt 0.7500000000 0.2678571429
vt 0.8750000000 0.2678571429
vt 1.0000000000 0.2678571429
vt 0.0000000000 0.2857142857
vt 0.1250000000 0.2857142857
vt 0.2500000000 0.2857142857
vt 0.3750000000 0.2857142857
vt 0.5000000000 0.2857142857
vt 0.6250000000 0.2857142857
vt 0.7500000000 0.2857142857
vt 0.8750000000 0.2857142857
vt 1.0000000000 0.2857142857
vt 0.0000000000 0.3035714286
vt 0.1250000000 0.3035714286
vt 0.2500000000 0.3035714286
vt 0.3750000000 0.3035714286
vt 0.5000000000 0.3035714286
vt 0.6250000000 0.3035714286
vt 0.7500000000 0.3035714286
vt 0.8750000000 0.3035714286
vt 1.0000000000 0.3035714286
vt 0.0000000000 0.3214285714
vt 0.1250000000 0.3214285714
vt 0.2500000000 0.3214285714
vt 0.3750000000 0.3214285714
vt 0.5000000000 0.3214285714
vt 0.6250000000 0.3214285714
vt 0.7500000000 0.3214285714
vt 0.8750000000 0.3214285714
vt 1.0000000000 0.3214285714
vt 0.0000000000 0.3392857143
vt 0.1250000000 0.3392857143
vt 0.2500000000 0.3392857143
vt 0.3750000000 0.3392857143
vt 0.5000000000 0.3392857143
vt 0.6250000000 0.3392857143
vt 0.7500000000 0.3392857143
vt 0.8750000000 0.3392857143
vt 1.0000000000 0.3392857143
vt 0.0000000000 0.3571428571
vt 0.1250000000 0.3571428571
vt 0.2500000000 0.3571428571
vt 0.3750000000 0.3571428571
vt 0.5000000000 0.3571428571
vt 0.6250000000 0.3571428571
vt 0.7500000000 0.3571428571
vt 0.8750000000 0.3571428571
vt 1.0000000000 0.3571428571
vt 0.0000000000 0.3750000000
vt 0.1250000000 0.3750000000
vt 0.2500000000 0.3750000000
vt 0.3750000000 0.3750000000
vt 0.5000000000 0.3750000000
vt 0.6250000000 0.3750000000
vt 0.7500000000 0.3750000000
vt 0.8750000000 0.3750000000
vt 1.0000000000 0.3750000000
vt 0.0000000000 0.3928571429
vt 0.1250000000 0.3928571429
vt 0.2500000000 0.3928571429
vt 0.3750000000 0.3928571429
vt 0.5000000000 0.3928571429
vt 0.6250000000 0.3928571429
vt 0.7500000000 0.3928571429
vt 0.8750000000 0.3928571429
vt 1.0000000000 0.3928571429
vt 0.0000000000 0.4107142857
vt 0.1250000000 0.4107142857
vt 0.2500000000 0.4107142857
vt 0.3750000000 0.4107142857
vt 0.5000000000 0.4107142857
vt 0.6250000000 0.4107142857
vt 0.7500000000 0.4107142857
vt 0.8750000000 0.4107142857
vt 1.0000000000 0.4107142857
vt 0.0000000000 0.4285714286
vt 0.1250000000 0.4285714286
vt 0.2500000000 0.4285714286
vt 0.3750000000 0.4285714286
vt 0.5000000000 0.4285714286
vt 0.6250000000 0.4285714286
vt 0.7500000000 0.4285714286
vt 0.8750000000 0.4285714286
vt 1.0000000000 0.4285714286
vt 0.0000000000 0.4464285714
vt 0.1250000000 0.4464285714
vt 0.2500000000 0.4464285714
vt 0.3750000000 0.4464285714
vt 0.5000000000 0.4464285714
vt 0.6250000000 0.4464285714
vt 0.7500000000 0.4464285714
vt 0.8750000000 0.4464285714
vt 1.0000000000 0.4464285714
vt 0.0000000000 0.4642857143
vt 0.1250000000 0.4642857143
vt 0.2500000000 0.4642857143
vt 0.3750000000 0.4642857143
vt 0.5000000000 0.4642857143
vt 0.6250000000 0.4642857143
vt 0.7500000000 0.4642857143
vt 0.8750000000 0.4642857143
vt 1.0000000000 0.4642857143
vt 0.0000000000 0.4821428571
vt 0.1250000000 0.4821428571
vt 0.2500000000 0.4821428571
vt 0.3750000000 0.4821428571
vt 0.5000000000 0.4821428571
vt 0.6250000000 0.4821428571
vt 0.7500000000 0.4821428571
vt 0.8750000000 0.4821428571
vt 1.0000000000 0.4821428571
vt 0.0000000000 0.5000000000
vt 0.1250000000 0.5000000000
vt 0.2500000000 0.5000000000
vt 0.3750000000 0.5000000000
vt 0.5000000000 0.5000000000
vt 0.6250000000 0.5000000000
vt 0.7500000000 0.5000000000
vt 0.8750000000 0.5000000000
vt 1.0000000000 0.5000000000
vt 0.0000000000 0.5178571429
vt 0.1250000000 0.5178571429
vt 0.2500000000 0.5178571429
vt 0.3750000000 0.5178571429
vt 0.5000000000 0.5178571429
vt 0.6250000000 0.5178571429
vt 0.7500000000 0.5178571429
vt 0.8750000000 0.5178571429
vt 1.0000000000 0.5178571429
vt 0.0000000000 0.5357142857
vt 0.1250000000 0.5357142857
vt 0.2500000000 0.5357142857
vt 0.3750000000 0.5357142857
vt 0.5000000000 0.5357142857
vt 0.6250000000 0.5357142857
vt 0.7500000000 0.5357142857
vt 0.8750000000 0.5357142857
vt 1.0000000000 0.5357142857
vt 0.0000000000 0.5535714286
vt 0.1250000000 0.5535714286
vt 0.2500000000 0.5535714286
vt 0.3750000000 0.5535714286
vt 0.5000000000 0.5535714286
vt 0.6250000000 0.5535714286
vt 0.7500000000 0.5535714286
vt 0.8750000000 0.5535714286
vt 1.0000000000 0.5535714286
vt 0.0000000000 0.5714285714
vt 0.1250000000 0.5714285714
vt 0.2500000000 0.5714285714
vt 0.3750000000 0.5714285714
vt 0.5000000000 0.5714285714
vt 0.6250000000 0.5714285714
vt 0.7500000000 0.5714285714
vt 0.8750000000 0.5714285714
vt 1.0000000000 0.5714285714
vt 0.0000000000 0.5892857143
vt 0.1250000000 0.5892857143
vt 0.2500000000 0.5892857143
vt 0.3750000000 0.5892857143
vt 0.5000000000 0.5892857143
vt 0.6250000000 0.5892857143
vt 0.7500000000 0.5892857143
vt 0.8750000000 0.5892857143
vt 1.0000000000 0.5892857143
vt 0.0000000000 0.6071428571
vt 0.1250000000 0.6071428571
vt 0.2500000000 0.6071428571
vt 0.3750000000 0.6071428571
vt 0.5000000000 0.6071428571
vt 0.6250000000 0.6071428571
vt 0.7500000000 0.6071428571
vt 0.8750000000 0.6071428571
vt 1.0000000000 0.6071428571
vt 0.0000000000 0.6250000000
vt 0.1250000000 0.6250000000
vt 0.2500000000 0.6250000000
vt 0.3750000000 0.6250000000
vt 0.5000000000 0.6250000000
vt 0.6250000000 0.6250000000
vt 0.7500000000 0.6250000000
vt 0.8750000000 0.6250000000
vt 1.0000000000 0.6250000000
vt 0.0000000000 0.6428571429
vt 0.1250000000 0.6428571429
vt 0.2500000000 0.6428571429
vt 0.3750000000 0.6428571429
vt 0.5000000000 0.6428571429
vt 0.6250000000 0.6428571429
vt 0.7500000000 0.6428571429
vt 0.8750000000 0.6428571429
vt 1.0000000000 0.6428571429
vt 0.0000000000 0.6607142857
vt 0.1250000000 0.6607142857
vt 0.2500000000 0.6607142857
vt 0.3750000000 0.6607142857
vt 0.5000000000 0.6607142857
vt 0.6250000000 0.6607142857
vt 0.7500000000 0.6607142857
vt 0.8750000000 0.6607142857
vt 1.0000000000 0.6607142857
vt 0.0000000000 0.6785714286
vt 0.1250000000 0.6785714286
vt 0.2500000000 0.6785714286
vt 0.3750000000 0.6785714286
vt 0.5000000000 0.6785714286
vt 0.6250000000 0.6785714286
vt 0.7500000000 0.6785714286
vt 0.8750000000 0.6785714286
vt 1.0000000000 0.6785714286
vt 0.0000000000 0.6964285714
vt 0.1250000000 0.6964285714
vt 0.2500000000 0.6964285714
vt 0.3750000000 0.6964285714
vt 0.5000000000 0.6964285714
vt 0.6250000000 0.6964285714
vt 0.7500000000 0.6964285714
vt 0.8750000000 0.6964285714
vt 1.0000000000 0.6964285714
vt 0.0000000000 0.7142857143
vt 0.1250000000 0.7142857143
vt 0.2500000000 0.7142857143
vt 0.3750000000 0.7142857143
vt 0.5000000000 0.7142857143
vt 0.6250000000 0.7142857143
vt 0.7500000000 0.7142857143
vt 0.8750000000 0.7142857143
vt 1.0000000000 0.7142857143
vt 0.0000000000 0.7321428571
vt 0.1250000000 0.7321428571
vt 0.2500000000 0.7321428571
vt 0.3750000000 0.7321428571
vt 0.5000000000 0.7321428571
vt 0.6250000000 0.7321428571
vt 0.7500000000 0.7321428571
vt 0.8750000000 0.7321428571
vt 1.0000000000 0.7321428571
vt 0.0000000000 0.7500000000
vt 0.1250000000 0.7500000000
vt 0.2500000000 0.7500000000
vt 0.3750000000 0.7500000000
vt 0.5000000000 0.7500000000
vt 0.6250000000 0.7500000000
vt 0.7500000000 0.7500000000
vt 0.8750000000 0.7500000000
vt 1.0000000000 0.7500000000
vt 0.0000000000 0.7678571429
vt 0.1250000000 0.7678571429
vt 0.2500000000 0.7678571429
vt 0.3750000000 0.7678571429
vt 0.5000000000 0.7678571429
vt 0.6250000000 0.7678571429
vt 0.7500000000 0.7678571429
vt 0.8750000000 0.7678571429
vt 1.0000000000 0.7678571429
vt 0.0000000000 0.7857142857
vt 0.1250000000 0.7857142857
vt 0.2500000000 0.7857142857
vt 0.3750000000 0.7857142857
vt 0.5000000000 0.7857142857
vt 0.6250000000 0.7857142857
vt 0.7500000000 0.7857142857
vt 0.8750000000 0.7857142857
vt 1.0000000000 0.7857142857
vt 0.0000000000 0.8035714286
vt 0.1250000000 0.8035714286
vt 0.2500000000 0.8035714286
vt 0.3750000000 0.8035714286
vt 0.5000000000 0.8035714286
vt 0.6250000000 0.8035714286
vt 0.7500000000 0.8035714286
vt 0.8750000000 0.8035714286
vt 1.0000000000 0.8035714286
vt 0.0000000000 0.8214285714
vt 0.1250000000 0.8214285714
vt 0.2500000000 0.8214285714
vt 0.3750000000 0.8214285714
vt 0.5000000000 0.8214285714
vt 0.6250000000 0.8214285714
vt 0.7500000000 0.8214285714
vt 0.8750000000 0.8214285714
vt 1.0000000000 0.8214285714
vt 0.0000000000 0.8392857143
vt 0.1250000000 0.8392857143
vt 0.2500000000 0.8392857143
vt 0.3750000000 0.8392857143
vt 0.5000000000 0.8392857143
vt 0.6250000000 0.8392857143
vt 0.7500000000 0.8392857143
vt 0.8750000000 0.8392857143
vt 1.0000000000 0.8392857143
vt 0.0000000000 0.8571428571
vt 0.1250000000 0.8571428571
vt 0.2500000000 0.8571428571
vt 0.3750000000 0.8571428571
vt 0.5000000000 0.8571428571
vt 0.6250000000 0.8571428571
vt 0.7500000000 0.8571428571
vt 0.8750000000 0.8571428571
vt 1.0000000000 0.8571428571
vt 0.0000000000 0.8750000000
vt 0.1250000000 0.8750000000
vt 0.2500000000 0.8750000000
vt 0.3750000000 0.8750000000
vt 0.5000000000 0.8750000000
vt 0.6250000000 0.8750000000
vt 0.7500000000 0.8750000000
vt 0.8750000000 0.8750000000
vt 1.0000000000 0.8750000000
vt 0.0000000000 0.8928571429
vt 0.1250000000 0.8928571429
vt 0.2500000000 0.8928571429
vt 0.3750000000 0.8928571429
vt 0.5000000000 0.8928571429
vt 0.6250000000 0.8928571429
vt 0.7500000000 0.8928571429
vt 0.8750000000 0.8928571429
vt 1.0000000000 0.8928571429
vt 0.0000000000 0.9107142857
vt 0.1250000000 0.9107142857
vt 0.2500000000 0.9107142857
vt 0.3750000000 0.9107142857
vt 0.5000000000 0.9107142857
vt 0.6250000000 0.9107142857
vt 0.7500000000 0.9107142857
vt 0.8750000000 0.9107142857
vt 1.0000000000 0.9107142857
vt 0.0000000000 0.9285714286
vt 0.1250000000 0.9285714286
vt 0.2500000000 0.9285714286
vt 0.3750000000 0.9285714286
vt 0.5000000000 0.9285714286
vt 0.6250000000 0.9285714286
vt 0.7500000000 0.9285714286
vt 0.8750000000 0.9285714286
vt 1.0000000000 0.9285714286
vt 0.0000000000 0.9464285714
vt 0.1250000000 0.9464285714
vt 0.2500000000 0.9464285714
vt 0.3750000000 0.9464285714
vt 0.5000000000 0.9464285714
vt 0.6250000000 0.9464285714
vt 0.7500000000 0.9464285714
vt 0.8750000000 0.9464285714
vt 1.0000000000 0.9464285714
vt 0.0000000000 0.9642857143
vt 0.1250000000 0.9642857143
vt 0.2500000000 0.9642857143
vt 0.3750000000 0.9642857143
vt 0.5000000000 0.9642857143
vt 0.6250000000 0.9642857143
vt 0.7500000000 0.9642857143
vt 0.8750000000 0.9642857143
vt 1.0000000000 0.9642857143
vt 0.0000000000 0.9821428571
vt 0.1250000000 0.9821428571
vt 0.2500000000 0.9821428571
vt 0.3750000000 0.9821428571
vt 0.5000000000 0.9821428571
vt 0.6250000000 0.9821428571
vt 0.7500000000 0.9821428571
vt 0.8750000000 0.9821428571
vt 1.0000000000 0.9821428571
vt 0.0000000000 1.0000000000
vt 0.1250000000 1.0000000000
vt 0.2500000000 1.0000000000
vt 0.3750000000 1.0000000000
vt 0.5000000000 1.0000000000
vt 0.6250000000 1.0000000000
vt 0.7500000000 1.0000000000
vt 0.8750000000 1.0000000000
vt 1.0000000000 1.0000000000
vn 0.2169304578 0.0000000000 0.9761870602
vn 0.0144956872 -0.0788382922 0.9967820217
vn -0.1631157100 -0.1550135806 0.9743531470
vn -0.3156500606 -0.2219940447 0.9225419683
vn -0.4454233785 -0.2762643295 0.8516313957
vn -0.5558519619 -0.3162745168 0.7687646106
vn -0.6505170460 -0.3414063715 0.6784314721
vn -0.7326293974 -0.3511074370 0.5830760960
vn -0.8047780022 -0.3441384028 0.4836332566
vn 0.1631075865 -0.0065991419 0.9865862185
vn -0.0365143253 -0.0861365906 0.9956139773
vn -0.2082221363 -0.1613409155 0.9646826685
vn -0.3536462309 -0.2271728098 0.9073736043
vn -0.4761173485 -0.2810159577 0.8332720456
vn -0.5794054906 -0.3215945904 0.7489100059
vn -0.6671990017 -0.3481037501 0.6585357023
vn -0.7429369430 -0.3594259597 0.5646748429
vn -0.8098231529 -0.3531862325 0.4684505802
vn 0.1064585237 -0.0095289783 0.9942714827
vn -0.0878558721 -0.0894363708 0.9921101155
vn -0.2525161051 -0.1637039512 0.9536438712
vn -0.3906184015 -0.2283384847 0.8917840550
vn -0.5061206005 -0.2813279005 0.8152892432
vn -0.6029408881 -0.3216194362 0.7300843949
vn -0.6847435247 -0.3483769728 0.6401248239
vn -0.7549817121 -0.3602729245 0.5479106079
vn -0.8170492857 -0.3544876349 0.4547185740
vn 0.0480630526 -0.0092871401 0.9988011274
vn -0.1390427539 -0.0890969189 0.9862701717
vn -0.2958093657 -0.1623255320 0.9413539402
vn -0.4264196316 -0.2255904248 0.8759424970
vn -0.5352057706 -0.2772282919 0.7979343690
vn -0.6261281667 -0.3163686240 0.7126530801
vn -0.7027522321 -0.3422760778 0.6236877319
vn -0.7683763394 -0.3537147085 0.5333701398
vn -0.8262098495 -0.3480348170 0.4430000573
vn -0.0106930548 -0.0064942717 0.9999217384
vn -0.1894149698 -0.0855756151 0.9781609189
vn -0.3377821820 -0.1575223070 0.9279493091
vn -0.4608138325 -0.2191468779 0.8600146846
vn -0.5630987087 -0.2689174995 0.7814110460
vn -0.6486037475 -0.3061226466 0.6968515652
vn -0.7207465642 -0.3302565876 0.6094710629
vn -0.7825290653 -0.3404543275 0.5212860182
vn -0.8366828889 -0.3347742110 0.4334604609
vn -0.0682056177 -0.0018426861 0.9976695837
vn -0.2381909436 -0.0794048862 0.9679669098
vn -0.3780312026 -0.1496911314 0.9136109539
vn -0.4935250675 -0.2093309472 0.8441644166
vn -0.5895275690 -0.2567472992 0.7658577347
vn -0.6700259763 -0.2913854345 0.6827589030
vn -0.7382530681 -0.3131038168 0.5974515942
vn -0.7967991507 -0.3216746164 0.5115042078
vn -0.8477273016 -0.3163074228 0.4258028140
vn -0.1227879076 0.0039782269 0.9924249611
vn -0.2845363258 -0.0711552210 0.9560209275
vn -0.4161206720 -0.1392863347 0.8985782678
vn -0.5242829246 -0.1965481835 0.8285506783
vn -0.6142649436 -0.2411885034 0.7513365990
vn -0.6901242912 -0.2728276538 0.6702936178
vn -0.7548853916 -0.2918239548 0.5873557909
vn -0.8106513959 -0.2988233794 0.5035363961
vn -0.8587361330 -0.2944934874 0.4193397664
vn -0.1728238226 0.0103687224 0.9848981754
vn -0.3276397183 -0.0613874524 0.9428063405
vn -0.4516319048 -0.1267897330 0.8831494699
vn -0.5528595993 -0.1812586648 0.8133213141
vn -0.6371583844 -0.2227922761 0.7378297872
vn -0.7087347876 -0.2512210123 0.6592290981
vn -0.7704052072 -0.2675247668 0.5787109087
vn -0.8237631433 -0.2733999552 0.4966555630
vn -0.8693853391 -0.2711091597 0.4131209941
vn -0.2168994722 0.0169012576 0.9760476251
vn -0.3667827249 -0.0506012232 0.9289294639
vn -0.4842055346 -0.1126772201 0.8676686259
vn -0.5790955450 -0.1639473700 0.7986047894
vn -0.6581469274 -0.2021506678 0.7252432209
vn -0.7258181298 -0.2273734160 0.6492221285
vn -0.7847520683 -0.2413062997 0.5709075766
vn -0.8360652815 -0.2467872693 0.4899907027
vn -0.8796617184 -0.2476467008 0.4060374032
vn -0.2585855718 0.0080899115 0.9659544789
vn -0.4047538667 -0.0565747930 0.9126738740
vn -0.5153559935 -0.1129531451 0.8494997275
vn -0.6035429489 -0.1551533676 0.7820890879
vn -0.6776396639 -0.1811793822 0.7127261167
vn -0.7426394887 -0.1919906639 0.6415809962
vn -0.8009512783 -0.1907460923 0.5675323586
vn -0.8530009946 -0.1824486860 0.4889803474
vn -0.8978427914 -0.1738339489 0.4045492307
vn -0.2989587116 0.0046057629 0.9542549322
vn -0.4417234970 -0.0556867405 0.8954213193
vn -0.5455020774 -0.1066958499 0.8312902497
vn -0.6268836694 -0.1429079643 0.7658943653
vn -0.6955527545 -0.1624865446 0.6998603350
vn -0.7568884113 -0.1665664858 0.6319616591
vn -0.8132071663 -0.1587703849 0.5598982672
vn -0.8646046126 -0.1450569272 0.4810585742
vn -0.9096769437 -0.1336785692 0.3932148246
vn -0.3346440817 0.0049602470 0.9423315417
vn -0.4747207568 -0.0508253420 0.8786677345
vn -0.5725513788 -0.0975968468 0.8140391724
vn -0.6478660763 -0.1305975197 0.7504757391
vn -0.7114304998 -0.1480868286 0.6869766628
vn -0.7690184066 -0.1509809401 0.6211404398
vn -0.8231014745 -0.1426742163 0.5496799347
vn -0.8737371135 -0.1291174669 0.4689479036
vn -0.9191378680 -0.1189756208 0.3755401193
vn -0.3640013837 0.0086693304 0.9313580597
vn -0.5024945294 -0.0435768691 0.8634815021
vn -0.5956920189 -0.0880054770 0.7983771381
vn -0.6660211028 -0.1206787171 0.7361063360
vn -0.7250925869 -0.1399482083 0.6742812762
vn -0.7790948532 -0.1463660583 0.6095803365
vn -0.8308553233 -0.1427071429 0.5378792644
vn -0.8806276710 -0.1342121243 0.4544029168
vn -0.9262609755 -0.1289939281 0.3541202785
vn -0.3865792433 0.0161391215 0.9221149697
vn -0.5249406112 -0.0344940955 0.8504395993
vn -0.6149419938 -0.0793561471 0.7845692743
vn -0.6813309617 -0.1151647848 0.7228590409
vn -0.7363903754 -0.1403557562 0.6618379535
vn -0.7866995089 -0.1551199792 0.5975296435
vn -0.8355327968 -0.1614778398 0.5251760207
vn -0.8835130408 -0.1635299055 0.4389335675
vn -0.9282442323 -0.1679500632 0.3318967031
vn -0.4025190590 0.0289777050 0.9149528402
vn -0.5425287777 -0.0231671985 0.8397176944
vn -0.6307082060 -0.0725888059 0.7726176442
vn -0.6938813701 -0.1162234477 0.7106481228
vn -0.7448722257 -0.1524736741 0.6495514960
vn -0.7905473646 -0.1811970800 0.5849807539
vn -0.8345558568 -0.2036912384 0.5118851446
vn -0.8779419472 -0.2227566129 0.4237893683
vn -0.9183832081 -0.2429174403 0.3123514050
vn -0.4121903218 0.0511399542 0.9096613896
vn -0.5559646638 -0.0079172023 0.8311682204
vn -0.6434753659 -0.0685633753 0.7623900032
vn -0.7034741398 -0.1269700917 0.6992873018
vn -0.7492043241 -0.1811147634 0.6370952231
vn -0.7876317324 -0.2304222387 0.5714384010
vn -0.8225385966 -0.2754979760 0.4975249967
vn -0.8552850563 -0.3178393325 0.4092256481
vn -0.8841778934 -0.3594801576 0.2983344920
vn -0.4162878002 0.0926083011 0.9045043781
vn -0.5661659195 0.0154249343 0.8241469669
vn -0.6535716653 -0.0685523731 0.7537537067
vn -0.7089706364 -0.1526072107 0.6885286312
vn -0.7459940007 -0.2335191121 0.6236680007
vn -0.7716503896 -0.3100327392 0.5553695858
vn -0.7897457841 -0.3820102774 0.4799684828
vn -0.8020003438 -0.4497167615 0.3931288378
vn -0.8081711807 -0.5130510457 0.2892022945
vn -0.4180936749 0.2805320554 0.8640019936
vn -0.5801226758 0.1875332700 0.7926468026
vn -0.6765391871 0.0666931321 0.7333803614
vn -0.7354330709 -0.0602122171 0.6749168001
vn -0.7691807068 -0.1838093654 0.6120254549
vn -0.7847570146 -0.2999116320 0.5424107678
vn -0.7865360611 -0.4067771988 0.4646432342
vn -0.7772603324 -0.5035705998 0.3772042241
vn -0.7585434929 -0.5893336874 0.2780244129
vn -0.4197510405 0.4545894813 0.7855937038
vn -0.5906894681 0.3131980851 0.7436349318
vn -0.6945643715 0.1425415253 0.7051682405
vn -0.7539042303 -0.0282012867 0.6563787771
vn -0.7809621377 -0.1871216648 0.5958889342
vn -0.7844462214 -0.3297519389 0.5252692496
vn -0.7706355760 -0.4550357711 0.4461650547
vn -0.7440219347 -0.5631234445 0.3596155544
vn -0.7079842588 -0.6542322817 0.2659669357
vn -0.4393555062 0.5693855103 0.6948142773
vn -0.6100440545 0.3628975627 0.7043803025
vn -0.7127330747 0.1443546835 0.6864206361
vn -0.7640686870 -0.0590252080 0.6424290360
vn -0.7788177980 -0.2374157967 0.5805829630
vn -0.7685316070 -0.3896544324 0.5074727504
vn -0.7412352226 -0.5177389708 0.4272197361
vn -0.7023732149 -0.6241564123 0.3421997078
vn -0.6559064815 -0.7109240673 0.2537196448
vn -0.4775262428 0.5886762034 0.6522491970
vn -0.6317933587 0.3248066865 0.7038023645
vn -0.7204958098 0.0745930540 0.6894357580
vn -0.7562318049 -0.1411684427 0.6388935185
vn -0.7566945467 -0.3199606700 0.5701215069
vn -0.7347502104 -0.4664419635 0.4925180434
vn -0.6984538310 -0.5861152078 0.4106473051
vn -0.6528649579 -0.6833678858 0.3267654809
vn -0.6015188422 -0.7612919823 0.2420941967
vn -0.4823340237 0.5114891024 0.7111489209
vn -0.6194339175 0.2159774730 0.7547551610
vn -0.6938648570 -0.0421861731 0.7188684768
vn -0.7174920572 -0.2507104818 0.6498841452
vn -0.7093638168 -0.4161136698 0.5689045519
vn -0.6819910108 -0.5480061482 0.4843320377
vn -0.6425882279 -0.6539529221 0.3992817865
vn -0.5954764530 -0.7390591907 0.3149592141
vn -0.5436239228 -0.8066367218 0.2319703206
vn -0.3869245037 0.4062893469 0.8277791946
vn -0.5329654265 0.0950546901 0.8407808633
vn -0.6127148432 -0.1631044407 0.7732900247
vn -0.6391138547 -0.3603287583 0.6794826463
vn -0.6332895901 -0.5103698750 0.5817790695
vn -0.6085209482 -0.6267226035 0.4867453481
vn -0.5721318340 -0.7184503044 0.3955936357
vn -0.5283594430 -0.7911114364 0.3081866223
vn -0.4800242796 -0.8481023902 0.2242744450
vn -0.2283424530 0.3508898580 0.9081497849
vn -0.3772265188 0.0214389246 0.9258728455
vn -0.4732064508 -0.2517626362 0.8442104180
vn -0.5152264319 -0.4512328014 0.7286499041
vn -0.5220267018 -0.5944589899 0.6116425688
vn -0.5078397749 -0.6998908200 0.5022465560
vn -0.4809310347 -0.7795527429 0.4012516180
vn -0.4460913993 -0.8404886363 0.3075407546
vn -0.4064057685 -0.8868162398 0.2199802448
vn -0.0812792611 0.3394604436 0.9371020696
vn -0.1947994136 -0.0018035622 0.9808414427
vn -0.2852383421 -0.2997098802 0.9103917156
vn -0.3381558768 -0.5167287372 0.7865379935
vn -0.3609570057 -0.6650232704 0.6537997322
vn -0.3638927907 -0.7665754832 0.5290974063
vn -0.3542421833 -0.8375842548 0.4158907209
vn -0.3366240988 -0.8879544675 0.3134024245
vn -0.3140857163 -0.9235368081 0.2200680052
vn -0.0402453720 0.3587219919 0.9325764540
vn -0.1070727819 0.0197576942 0.9940548541
vn -0.1710627504 -0.2909960722 0.9413069751
vn -0.2171561813 -0.5255605562 0.8225747958
vn -0.2437797923 -0.6864424412 0.6851045087
vn -0.2548280489 -0.7939572080 0.5519915012
vn -0.2544365768 -0.8660531507 0.4303649248
vn -0.2457988885 -0.9146633369 0.3208954448
vn -0.2313124431 -0.9471291991 0.2223529487
vn -0.0209324983 0.3762708204 0.9262732319
vn -0.0587288925 0.0466510245 0.9971833327
vn -0.0984883439 -0.2674652300 0.9585209423
vn -0.1304030891 -0.5143658421 0.8475982626
vn -0.1513206369 -0.6878715611 0.7098836385
vn -0.1621278498 -0.8041343293 0.5719113050
vn -0.1647306247 -0.8807630503 0.4439822862
vn -0.1609333646 -0.9306822670 0.3285284921
vn -0.1522757139 -0.9623685224 0.2250753965
vn -0.0091404852 0.3871473134 0.9219725642
vn -0.0263409905 0.0648759328 0.9975456208
vn -0.0453022224 -0.2491542334 0.9674036782
vn -0.0613850029 -0.5026276198 0.8623209131
vn -0.0725888948 -0.6843189384 0.7255607782
vn -0.0788967718 -0.8070678656 0.5851638742
vn -0.0809871596 -0.8876212301 0.4533978736
vn -0.0796362274 -0.9392063544 0.3339902619
vn -0.0755776451 -0.9709272566 0.2271305393
vn -0.0000000000 0.3907728445 0.9204871449
vn -0.0000000000 0.0711503695 0.9974656009
vn -0.0000000000 -0.2425356250 0.9701425001
vn 0.0000000000 -0.4980215524 0.8671646518
vn -0.0000000000 -0.6824851656 0.7308994451
vn -0.0000000000 -0.8075613716 0.5897835460
vn -0.0000000000 -0.8896017625 0.4567370187
vn -0.0000000000 -0.9418780643 0.3359549255
vn -0.0000000000 -0.9736881788 0.2278844674
vn 0.0091404852 0.3871473134 0.9219725642
vn 0.0263409905 0.0648759328 0.9975456208
vn 0.0453022224 -0.2491542334 0.9674036782
vn 0.0613850029 -0.5026276198 0.8623209131
vn 0.0725888948 -0.6843189384 0.7255607782
vn 0.0788967718 -0.8070678656 0.5851638742
vn 0.0809871596 -0.8876212301 0.4533978736
vn 0.0796362274 -0.9392063544 0.3339902619
vn 0.0755776451 -0.9709272566 0.2271305393
vn 0.0209324983 0.3762708204 0.9262732319
vn 0.0587288925 0.0466510245 0.9971833327
vn 0.0984883439 -0.2674652300 0.9585209423
vn 0.1304030891 -0.5143658421 0.8475982626
vn 0.1513206369 -0.6878715611 0.7098836385
vn 0.1621278498 -0.8041343293 0.5719113050
vn 0.1647306247 -0.8807630503 0.4439822862
vn 0.1609333646 -0.9306822670 0.3285284921
vn 0.1522757139 -0.9623685224 0.2250753965
vn 0.0402453720 0.3587219919 0.9325764540
vn 0.1070727819 0.0197576942 0.9940548541
vn 0.1710627504 -0.2909960722 0.9413069751
vn 0.2171561813 -0.5255605562 0.8225747958
vn 0.2437797923 -0.6864424412 0.6851045087
vn 0.2548280489 -0.7939572080 0.5519915012
vn 0.2544365768 -0.8660531507 0.4303649248
vn 0.2457988885 -0.9146633369 0.3208954448
vn 0.2313124431 -0.9471291991 0.2223529487
vn 0.0812792611 0.3394604436 0.9371020696
vn 0.1947994136 -0.0018035622 0.9808414427
vn 0.2852383421 -0.2997098802 0.9103917156
vn 0.3381558768 -0.5167287372 0.7865379935
vn 0.3609570057 -0.6650232704 0.6537997322
vn 0.3638927907 -0.7665754832 0.5290974063
vn 0.3542421833 -0.8375842548 0.4158907209
vn 0.3366240988 -0.8879544675 0.3134024245
vn 0.3140857163 -0.9235368081 0.2200680052
vn 0.2283424530 0.3508898580 0.9081497849
vn 0.3772265188 0.0214389246 0.9258728455
vn 0.4732064508 -0.2517626362 0.8442104180
vn 0.5152264319 -0.4512328014 0.7286499041
vn 0.5220267018 -0.5944589899 0.6116425688
vn 0.5078397749 -0.6998908200 0.5022465560
vn 0.4809310347 -0.7795527429 0.4012516180
vn 0.4460913993 -0.8404886363 0.3075407546
vn 0.4064057685 -0.8868162398 0.2199802448
vn 0.3869245037 0.4062893469 0.8277791946
vn 0.5329654265 0.0950546901 0.8407808633
vn 0.6127148432 -0.1631044407 0.7732900247
vn 0.6391138547 -0.3603287583 0.6794826463
vn 0.6332895901 -0.5103698750 0.5817790695
vn 0.6085209482 -0.6267226035 0.4867453481
vn 0.5721318340 -0.7184503044 0.3955936357
vn 0.5283594430 -0.7911114364 0.3081866223
vn 0.4800242796 -0.8481023902 0.2242744450
vn 0.4823340237 0.5114891024 0.7111489209
vn 0.6194339175 0.2159774730 0.7547551610
vn 0.6938648570 -0.0421861731 0.7188684768
vn 0.7174920572 -0.2507104818 0.6498841452
vn 0.7093638168 -0.4161136698 0.5689045519
vn 0.6819910108 -0.5480061482 0.4843320377
vn 0.6425882279 -0.6539529221 0.3992817865
vn 0.5954764530 -0.7390591907 0.3149592141
vn 0.5436239228 -0.8066367218 0.2319703206
vn 0.4775262428 0.5886762034 0.6522491970
vn 0.6317933587 0.3248066865 0.7038023645
vn 0.7204958098 0.0745930540 0.6894357580
vn 0.7562318049 -0.1411684427 0.6388935185
vn 0.7566945467 -0.3199606700 0.5701215069
vn 0.7347502104 -0.4664419635 0.4925180434
vn 0.6984538310 -0.5861152078 0.4106473051
vn 0.6528649579 -0.6833678858 0.3267654809
vn 0.6015188422 -0.7612919823 0.2420941967
vn 0.4393555062 0.5693855103 0.6948142773
vn 0.6100440545 0.3628975627 0.7043803025
vn 0.7127330747 0.1443546835 0.6864206361
vn 0.7640686870 -0.0590252080 0.6424290360
vn 0.7788177980 -0.2374157967 0.5805829630
vn 0.7685316070 -0.3896544324 0.5074727504
vn 0.7412352226 -0.5177389708 0.4272197361
vn 0.7023732149 -0.6241564123 0.3421997078
vn 0.6559064815 -0.7109240673 0.2537196448
vn 0.4197510405 0.4545894813 0.7855937038
vn 0.5906894681 0.3131980851 0.7436349318
vn 0.6945643715 0.1425415253 0.7051682405
vn 0.7539042303 -0.0282012867 0.6563787771
vn 0.7809621377 -0.1871216648 0.5958889342
vn 0.7844462214 -0.3297519389 0.5252692496
vn 0.7706355760 -0.4550357711 0.4461650547
vn 0.7440219347 -0.5631234445 0.3596155544
vn 0.7079842588 -0.6542322817 0.2659669357
vn 0.4180936749 0.2805320554 0.8640019936
vn 0.5801226758 0.1875332700 0.7926468026
vn 0.6765391871 0.0666931321 0.7333803614
vn 0.7354330709 -0.0602122171 0.6749168001
vn 0.7691807068 -0.1838093654 0.6120254549
vn 0.7847570146 -0.2999116320 0.5424107678
vn 0.7865360611 -0.4067771988 0.4646432342
vn 0.7772603324 -0.5035705998 0.3772042241
vn 0.7585434929 -0.5893336874 0.2780244129
vn 0.4162878002 0.0926083011 0.9045043781
vn 0.5661659195 0.0154249343 0.8241469669
vn 0.6535716653 -0.0685523731 0.7537537067
vn 0.7089706364 -0.1526072107 0.6885286312
vn 0.7459940007 -0.2335191121 0.6236680007
vn 0.7716503896 -0.3100327392 0.5553695858
vn 0.7897457841 -0.3820102774 0.4799684828
vn 0.8020003438 -0.4497167615 0.3931288378
vn 0.8081711807 -0.5130510457 0.2892022945
vn 0.4121903218 0.0511399542 0.9096613896
vn 0.5559646638 -0.0079172023 0.8311682204
vn 0.6434753659 -0.0685633753 0.7623900032
vn 0.7034741398 -0.1269700917 0.6992873018
vn 0.7492043241 -0.1811147634 0.6370952231
vn 0.7876317324 -0.2304222387 0.5714384010
vn 0.8225385966 -0.2754979760 0.4975249967
vn 0.8552850563 -0.3178393325 0.4092256481
vn 0.8841778934 -0.3594801576 0.2983344920
vn 0.4025190590 0.0289777050 0.9149528402
vn 0.5425287777 -0.0231671985 0.8397176944
vn 0.6307082060 -0.0725888059 0.7726176442
vn 0.6938813701 -0.1162234477 0.7106481228
vn 0.7448722257 -0.1524736741 0.6495514960
vn 0.7905473646 -0.1811970800 0.5849807539
vn 0.8345558568 -0.2036912384 0.5118851446
vn 0.8779419472 -0.2227566129 0.4237893683
vn 0.9183832081 -0.2429174403 0.3123514050
vn 0.3865792433 0.0161391215 0.9221149697
vn 0.5249406112 -0.0344940955 0.8504395993
vn 0.6149419938 -0.0793561471 0.7845692743
vn 0.6813309617 -0.1151647848 0.7228590409
vn 0.7363903754 -0.1403557562 0.6618379535
vn 0.7866995089 -0.1551199792 0.5975296435
vn 0.8355327968 -0.1614778398 0.5251760207
vn 0.8835130408 -0.1635299055 0.4389335675
vn 0.9282442323 -0.1679500632 0.3318967031
vn 0.3640013837 0.0086693304 0.9313580597
vn 0.5024945294 -0.0435768691 0.8634815021
vn 0.5956920189 -0.0880054770 0.7983771381
vn 0.6660211028 -0.1206787171 0.7361063360
vn 0.7250925869 -0.1399482083 0.6742812762
vn 0.7790948532 -0.1463660583 0.6095803365
vn 0.8308553233 -0.1427071429 0.5378792644
vn 0.8806276710 -0.1342121243 0.4544029168
vn 0.9262609755 -0.1289939281 0.3541202785
vn 0.3346440817 0.0049602470 0.9423315417
vn 0.4747207568 -0.0508253420 0.8786677345
vn 0.5725513788 -0.0975968468 0.8140391724
vn 0.6478660763 -0.1305975197 0.7504757391
vn 0.7114304998 -0.1480868286 0.6869766628
vn 0.7690184066 -0.1509809401 0.6211404398
vn 0.8231014745 -0.1426742163 0.5496799347
vn 0.8737371135 -0.1291174669 0.4689479036
vn 0.9191378680 -0.1189756208 0.3755401193
vn 0.2989587116 0.0046057629 0.9542549322
vn 0.4417234970 -0.0556867405 0.8954213193
vn 0.5455020774 -0.1066958499 0.8312902497
vn 0.6268836694 -0.1429079643 0.7658943653
vn 0.6955527545 -0.1624865446 0.6998603350
vn 0.7568884113 -0.1665664858 0.6319616591
vn 0.8132071663 -0.1587703849 0.5598982672
vn 0.8646046126 -0.1450569272 0.4810585742
vn 0.9096769437 -0.1336785692 0.3932148246
vn 0.2585855718 0.0080899115 0.9659544789
vn 0.4047538667 -0.0565747930 0.9126738740
vn 0.5153559935 -0.1129531451 0.8494997275
vn 0.6035429489 -0.1551533676 0.7820890879
vn 0.6776396639 -0.1811793822 0.7127261167
vn 0.7426394887 -0.1919906639 0.6415809962
vn 0.8009512783 -0.1907460923 0.5675323586
vn 0.8530009946 -0.1824486860 0.4889803474
vn 0.8978427914 -0.1738339489 0.4045492307
vn 0.2168994722 0.0169012576 0.9760476251
vn 0.3667827249 -0.0506012232 0.9289294639
vn 0.4842055346 -0.1126772201 0.8676686259
vn 0.5790955450 -0.1639473700 0.7986047894
vn 0.6581469274 -0.2021506678 0.7252432209
vn 0.7258181298 -0.2273734160 0.6492221285
vn 0.7847520683 -0.2413062997 0.5709075766
vn 0.8360652815 -0.2467872693 0.4899907027
vn 0.8796617184 -0.2476467008 0.4060374032
vn 0.1728238226 0.0103687224 0.9848981754
vn 0.3276397183 -0.0613874524 0.9428063405
vn 0.4516319048 -0.1267897330 0.8831494699
vn 0.5528595993 -0.1812586648 0.8133213141
vn 0.6371583844 -0.2227922761 0.7378297872
vn 0.7087347876 -0.2512210123 0.6592290981
vn 0.7704052072 -0.2675247668 0.5787109087
vn 0.8237631433 -0.2733999552 0.4966555630
vn 0.8693853391 -0.2711091597 0.4131209941
vn 0.1227879076 0.0039782269 0.9924249611
vn 0.2845363258 -0.0711552210 0.9560209275
vn 0.4161206720 -0.1392863347 0.8985782678
vn 0.5242829246 -0.1965481835 0.8285506783
vn 0.6142649436 -0.2411885034 0.7513365990
vn 0.6901242912 -0.2728276538 0.6702936178
vn 0.7548853916 -0.2918239548 0.5873557909
vn 0.8106513959 -0.2988233794 0.5035363961
vn 0.8587361330 -0.2944934874 0.4193397664
vn 0.0682056177 -0.0018426861 0.9976695837
vn 0.2381909436 -0.0794048862 0.9679669098
vn 0.3780312026 -0.1496911314 0.9136109539
vn 0.4935250675 -0.2093309472 0.8441644166
vn 0.5895275690 -0.2567472992 0.7658577347
vn 0.6700259763 -0.2913854345 0.6827589030
vn 0.7382530681 -0.3131038168 0.5974515942
vn 0.7967991507 -0.3216746164 0.5115042078
vn 0.8477273016 -0.3163074228 0.4258028140
vn 0.0106930548 -0.0064942717 0.9999217384
vn 0.1894149698 -0.0855756151 0.9781609189
vn 0.3377821820 -0.1575223070 0.9279493091
vn 0.4608138325 -0.2191468779 0.8600146846
vn 0.5630987087 -0.2689174995 0.7814110460
vn 0.6486037475 -0.3061226466 0.6968515652
vn 0.7207465642 -0.3302565876 0.6094710629
vn 0.7825290653 -0.3404543275 0.5212860182
vn 0.8366828889 -0.3347742110 0.4334604609
vn -0.0480630526 -0.0092871401 0.9988011274
vn 0.1390427539 -0.0890969189 0.9862701717
vn 0.2958093657 -0.1623255320 0.9413539402
vn 0.4264196316 -0.2255904248 0.8759424970
vn 0.5352057706 -0.2772282919 0.7979343690
vn 0.6261281667 -0.3163686240 0.7126530801
vn 0.7027522321 -0.3422760778 0.6236877319
vn 0.7683763394 -0.3537147085 0.5333701398
vn 0.8262098495 -0.3480348170 0.4430000573
vn -0.1064585237 -0.0095289783 0.9942714827
vn 0.0878558721 -0.0894363708 0.9921101155
vn 0.2525161051 -0.1637039512 0.9536438712
vn 0.3906184015 -0.2283384847 0.8917840550
vn 0.5061206005 -0.2813279005 0.8152892432
vn 0.6029408881 -0.3216194362 0.7300843949
vn 0.6847435247 -0.3483769728 0.6401248239
vn 0.7549817121 -0.3602729245 0.5479106079
vn 0.8170492857 -0.3544876349 0.4547185740
vn -0.1631075865 -0.0065991419 0.9865862185
vn 0.0365143253 -0.0861365906 0.9956139773
vn 0.2082221363 -0.1613409155 0.9646826685
vn 0.3536462309 -0.2271728098 0.9073736043
vn 0.4761173485 -0.2810159577 0.8332720456
vn 0.5794054906 -0.3215945904 0.7489100059
vn 0.6671990017 -0.3481037501 0.6585357023
vn 0.7429369430 -0.3594259597 0.5646748429
vn 0.8098231529 -0.3531862325 0.4684505802
vn -0.2169304578 0.0000000000 0.9761870602
vn -0.0144956872 -0.0788382922 0.9967820217
vn 0.1631157100 -0.1550135806 0.9743531470
vn 0.3156500606 -0.2219940447 0.9225419683
vn 0.4454233785 -0.2762643295 0.8516313957
vn 0.5558519619 -0.3162745168 0.7687646106
vn 0.6505170460 -0.3414063715 0.6784314721
vn 0.7326293974 -0.3511074370 0.5830760960
vn 0.8047780022 -0.3441384028 0.4836332566
g F05-R
f 1/1/1 2/2/2 11/11/11
f 1/1/1 11/11/11 10/10/10
f 2/2/2 3/3/3 12/12/12
f 2/2/2 12/12/12 11/11/11
f 3/3/3 4/4/4 13/13/13
f 3/3/3 13/13/13 12/12/12
f 4/4/4 5/5/5 14/14/14
f 4/4/4 14/14/14 13/13/13
f 5/5/5 6/6/6 15/15/15
f 5/5/5 15/15/15 14/14/14
f 6/6/6 7/7/7 16/16/16
f 6/6/6 16/16/16 15/15/15
f 7/7/7 8/8/8 17/17/17
f 7/7/7 17/17/17 16/16/16
f 8/8/8 9/9/9 18/18/18
f 8/8/8 18/18/18 17/17/17
f 10/10/10 11/11/11 20/20/20
f 10/10/10 20/20/20 19/19/19
f 11/11/11 12/12/12 21/21/21
f 11/11/11 21/21/21 20/20/20
f 12/12/12 13/13/13 22/22/22
f 12/12/12 22/22/22 21/21/21
f 13/13/13 14/14/14 23/23/23
f 13/13/13 23/23/23 22/22/22
f 14/14/14 15/15/15 24/24/24
f 14/14/14 24/24/24 23/23/23
f 15/15/15 16/16/16 25/25/25
f 15/15/15 25/25/25 24/24/24
f 16/16/16 17/17/17 26/26/26
f 16/16/16 26/26/26 25/25/25
f 17/17/17 18/18/18 27/27/27
f 17/17/17 27/27/27 26/26/26
f 19/19/19 20/20/20 29/29/29
f 19/19/19 29/29/29 28/28/28
f 20/20/20 21/21/21 30/30/30
f 20/20/20 30/30/30 29/29/29
f 21/21/21 22/22/22 31/31/31
f 21/21/21 31/31/31 30/30/30
f 22/22/22 23/23/23 32/32/32
f 22/22/22 32/32/32 31/31/31
f 23/23/23 24/24/24 33/33/33
f 23/23/23 33/33/33 32/32/32
f 24/24/24 25/25/25 34/34/34
f 24/24/24 34/34/34 33/33/33
f 25/25/25 26/26/26 35/35/35
f 25/25/25 35/35/35 34/34/34
f 26/26/26 27/27/27 36/36/36
f 26/26/26 36/36/36 35/35/35
f 28/28/28 29/29/29 38/38/38
f 28/28/28 38/38/38 37/37/37
f 29/29/29 30/30/30 39/39/39
f 29/29/29 39/39/39 38/38/38
f 30/30/30 31/31/31 40/40/40
f 30/30/30 40/40/40 39/39/39
f 31/31/31 32/32/32 41/41/41
f 31/31/31 41/41/41 40/40/40
f 32/32/32 33/33/33 42/42/42
f 32/32/32 42/42/42 41/41/41
f 33/33/33 34/34/34 43/43/43
f 33/33/33 43/43/43 42/42/42
f 34/34/34 35/35/35 44/44/44
f 34/34/34 44/44/44 43/43/43
f 35/35/35 36/36/36 45/45/45
f 35/35/35 45/45/45 44/44/44
f 37/37/37 38/38/38 47/47/47
f 37/37/37 47/47/47 46/46/46
f 38/38/38 39/39/39 48/48/48
f 38/38/38 48/48/48 47/47/47
f 39/39/39 40/40/40 49/49/49
f 39/39/39 49/49/49 48/48/48
f 40/40/40 41/41/41 50/50/50
f 40/40/40 50/50/50 49/49/49
f 41/41/41 42/42/42 51/51/51
f 41/41/41 51/51/51 50/50/50
f 42/42/42 43/43/43 52/52/52
f 42/42/42 52/52/52 51/51/51
f 43/43/43 44/44/44 53/53/53
f 43/43/43 53/53/53 52/52/52
f 44/44/44 45/45/45 54/54/54
f 44/44/44 54/54/54 53/53/53
f 46/46/46 47/47/47 56/56/56
f 46/46/46 56/56/56 55/55/55
f 47/47/47 48/48/48 57/57/57
f 47/47/47 57/57/57 56/56/56
f 48/48/48 49/49/49 58/58/58
f 48/48/48 58/58/58 57/57/57
f 49/49/49 50/50/50 59/59/59
f 49/49/49 59/59/59 58/58/58
f 50/50/50 51/51/51 60/60/60
f 50/50/50 60/60/60 59/59/59
f 51/51/51 52/52/52 61/61/61
f 51/51/51 61/61/61 60/60/60
f 52/52/52 53/53/53 62/62/62
f 52/52/52 62/62/62 61/61/61
f 53/53/53 54/54/54 63/63/63
f 53/53/53 63/63/63 62/62/62
f 55/55/55 56/56/56 65/65/65
f 55/55/55 65/65/65 64/64/64
f 56/56/56 57/57/57 66/66/66
f 56/56/56 66/66/66 65/65/65
f 57/57/57 58/58/58 67/67/67
f 57/57/57 67/67/67 66/66/66
f 58/58/58 59/59/59 68/68/68
f 58/58/58 68/68/68 67/67/67
f 59/59/59 60/60/60 69/69/69
f 59/59/59 69/69/69 68/68/68
f 60/60/60 61/61/61 70/70/70
f 60/60/60 70/70/70 69/69/69
f 61/61/61 62/62/62 71/71/71
f 61/61/61 71/71/71 70/70/70
f 62/62/62 63/63/63 72/72/72
f 62/62/62 72/72/72 71/71/71
f 64/64/64 65/65/65 74/74/74
f 64/64/64 74/74/74 73/73/73
f 65/65/65 66/66/66 75/75/75
f 65/65/65 75/75/75 74/74/74
f 66/66/66 67/67/67 76/76/76
f 66/66/66 76/76/76 75/75/75
f 67/67/67 68/68/68 77/77/77
f 67/67/67 77/77/77 76/76/76
f 68/68/68 69/69/69 78/78/78
f 68/68/68 78/78/78 77/77/77
f 69/69/69 70/70/70 79/79/79
f 69/69/69 79/79/79 78/78/78
f 70/70/70 71/71/71 80/80/80
f 70/70/70 80/80/80 79/79/79
f 71/71/71 72/72/72 81/81/81
f 71/71/71 81/81/81 80/80/80
g F07-R
f 73/73/73 74/74/74 83/83/83
f 73/73/73 83/83/83 82/82/82
f 74/74/74 75/75/75 84/84/84
f 74/74/74 84/84/84 83/83/83
f 75/75/75 76/76/76 85/85/85
f 75/75/75 85/85/85 84/84/84
f 76/76/76 77/77/77 86/86/86
f 76/76/76 86/86/86 85/85/85
f 77/77/77 78/78/78 87/87/87
f 77/77/77 87/87/87 86/86/86
f 78/78/78 79/79/79 88/88/88
f 78/78/78 88/88/88 87/87/87
f 79/79/79 80/80/80 89/89/89
f 79/79/79 89/89/89 88/88/88
f 80/80/80 81/81/81 90/90/90
f 80/80/80 90/90/90 89/89/89
f 82/82/82 83/83/83 92/92/92
f 82/82/82 92/92/92 91/91/91
f 83/83/83 84/84/84 93/93/93
f 83/83/83 93/93/93 92/92/92
f 84/84/84 85/85/85 94/94/94
f 84/84/84 94/94/94 93/93/93
f 85/85/85 86/86/86 95/95/95
f 85/85/85 95/95/95 94/94/94
f 86/86/86 87/87/87 96/96/96
f 86/86/86 96/96/96 95/95/95
f 87/87/87 88/88/88 97/97/97
f 87/87/87 97/97/97 96/96/96
f 88/88/88 89/89/89 98/98/98
f 88/88/88 98/98/98 97/97/97
f 89/89/89 90/90/90 99/99/99
f 89/89/89 99/99/99 98/98/98
f 91/91/91 92/92/92 101/101/101
f 91/91/91 101/101/101 100/100/100
f 92/92/92 93/93/93 102/102/102
f 92/92/92 102/102/102 101/101/101
f 93/93/93 94/94/94 103/103/103
f 93/93/93 103/103/103 102/102/102
f 94/94/94 95/95/95 104/104/104
f 94/94/94 104/104/104 103/103/103
f 95/95/95 96/96/96 105/105/105
f 95/95/95 105/105/105 104/104/104
f 96/96/96 97/97/97 106/106/106
f 96/96/96 106/106/106 105/105/105
f 97/97/97 98/98/98 107/107/107
f 97/97/97 107/107/107 106/106/106
f 98/98/98 99/99/99 108/108/108
f 98/98/98 108/108/108 107/107/107
f 100/100/100 101/101/101 110/110/110
f 100/100/100 110/110/110 109/109/109
f 101/101/101 102/102/102 111/111/111
f 101/101/101 111/111/111 110/110/110
f 102/102/102 103/103/103 112/112/112
f 102/102/102 112/112/112 111/111/111
f 103/103/103 104/104/104 113/113/113
f 103/103/103 113/113/113 112/112/112
f 104/104/104 105/105/105 114/114/114
f 104/104/104 114/114/114 113/113/113
f 105/105/105 106/106/106 115/115/115
f 105/105/105 115/115/115 114/114/114
f 106/106/106 107/107/107 116/116/116
f 106/106/106 116/116/116 115/115/115
f 107/107/107 108/108/108 117/117/117
f 107/107/107 117/117/117 116/116/116
f 109/109/109 110/110/110 119/119/119
f 109/109/109 119/119/119 118/118/118
f 110/110/110 111/111/111 120/120/120
f 110/110/110 120/120/120 119/119/119
f 111/111/111 112/112/112 121/121/121
f 111/111/111 121/121/121 120/120/120
f 112/112/112 113/113/113 122/122/122
f 112/112/112 122/122/122 121/121/121
f 113/113/113 114/114/114 123/123/123
f 113/113/113 123/123/123 122/122/122
f 114/114/114 115/115/115 124/124/124
f 114/114/114 124/124/124 123/123/123
f 115/115/115 116/116/116 125/125/125
f 115/115/115 125/125/125 124/124/124
f 116/116/116 117/117/117 126/126/126
f 116/116/116 126/126/126 125/125/125
f 118/118/118 119/119/119 128/128/128
f 118/118/118 128/128/128 127/127/127
f 119/119/119 120/120/120 129/129/129
f 119/119/119 129/129/129 128/128/128
f 120/120/120 121/121/121 130/130/130
f 120/120/120 130/130/130 129/129/129
f 121/121/121 122/122/122 131/131/131
f 121/121/121 131/131/131 130/130/130
f 122/122/122 123/123/123 132/132/132
f 122/122/122 132/132/132 131/131/131
f 123/123/123 124/124/124 133/133/133
f 123/123/123 133/133/133 132/132/132
f 124/124/124 125/125/125 134/134/134
f 124/124/124 134/134/134 133/133/133
f 125/125/125 126/126/126 135/135/135
f 125/125/125 135/135/135 134/134/134
f 127/127/127 128/128/128 137/137/137
f 127/127/127 137/137/137 136/136/136
f 128/128/128 129/129/129 138/138/138
f 128/128/128 138/138/138 137/137/137
f 129/129/129 130/130/130 139/139/139
f 129/129/129 139/139/139 138/138/138
f 130/130/130 131/131/131 140/140/140
f 130/130/130 140/140/140 139/139/139
f 131/131/131 132/132/132 141/141/141
f 131/131/131 141/141/141 140/140/140
f 132/132/132 133/133/133 142/142/142
f 132/132/132 142/142/142 141/141/141
f 133/133/133 134/134/134 143/143/143
f 133/133/133 143/143/143 142/142/142
f 134/134/134 135/135/135 144/144/144
f 134/134/134 144/144/144 143/143/143
f 136/136/136 137/137/137 146/146/146
f 136/136/136 146/146/146 145/145/145
f 137/137/137 138/138/138 147/147/147
f 137/137/137 147/147/147 146/146/146
f 138/138/138 139/139/139 148/148/148
f 138/138/138 148/148/148 147/147/147
f 139/139/139 140/140/140 149/149/149
f 139/139/139 149/149/149 148/148/148
f 140/140/140 141/141/141 150/150/150
f 140/140/140 150/150/150 149/149/149
f 141/141/141 142/142/142 151/151/151
f 141/141/141 151/151/151 150/150/150
f 142/142/142 143/143/143 152/152/152
f 142/142/142 152/152/152 151/151/151
f 143/143/143 144/144/144 153/153/153
f 143/143/143 153/153/153 152/152/152
g F09-R
f 145/145/145 146/146/146 155/155/155
f 145/145/145 155/155/155 154/154/154
f 146/146/146 147/147/147 156/156/156
f 146/146/146 156/156/156 155/155/155
f 147/147/147 148/148/148 157/157/157
f 147/147/147 157/157/157 156/156/156
f 148/148/148 149/149/149 158/158/158
f 148/148/148 158/158/158 157/157/157
f 149/149/149 150/150/150 159/159/159
f 149/149/149 159/159/159 158/158/158
f 150/150/150 151/151/151 160/160/160
f 150/150/150 160/160/160 159/159/159
f 151/151/151 152/152/152 161/161/161
f 151/151/151 161/161/161 160/160/160
f 152/152/152 153/153/153 162/162/162
f 152/152/152 162/162/162 161/161/161
f 154/154/154 155/155/155 164/164/164
f 154/154/154 164/164/164 163/163/163
f 155/155/155 156/156/156 165/165/165
f 155/155/155 165/165/165 164/164/164
f 156/156/156 157/157/157 166/166/166
f 156/156/156 166/166/166 165/165/165
f 157/157/157 158/158/158 167/167/167
f 157/157/157 167/167/167 166/166/166
f 158/158/158 159/159/159 168/168/168
f 158/158/158 168/168/168 167/167/167
f 159/159/159 160/160/160 169/169/169
f 159/159/159 169/169/169 168/168/168
f 160/160/160 161/161/161 170/170/170
f 160/160/160 170/170/170 169/169/169
f 161/161/161 162/162/162 171/171/171
f 161/161/161 171/171/171 170/170/170
f 163/163/163 164/164/164 173/173/173
f 163/163/163 173/173/173 172/172/172
f 164/164/164 165/165/165 174/174/174
f 164/164/164 174/174/174 173/173/173
f 165/165/165 166/166/166 175/175/175
f 165/165/165 175/175/175 174/174/174
f 166/166/166 167/167/167 176/176/176
f 166/166/166 176/176/176 175/175/175
f 167/167/167 168/168/168 177/177/177
f 167/167/167 177/177/177 176/176/176
f 168/168/168 169/169/169 178/178/178
f 168/168/168 178/178/178 177/177/177
f 169/169/169 170/170/170 179/179/179
f 169/169/169 179/179/179 178/178/178
f 170/170/170 171/171/171 180/180/180
f 170/170/170 180/180/180 179/179/179
f 172/172/172 173/173/173 182/182/182
f 172/172/172 182/182/182 181/181/181
f 173/173/173 174/174/174 183/183/183
f 173/173/173 183/183/183 182/182/182
f 174/174/174 175/175/175 184/184/184
f 174/174/174 184/184/184 183/183/183
f 175/175/175 176/176/176 185/185/185
f 175/175/175 185/185/185 184/184/184
f 176/176/176 177/177/177 186/186/186
f 176/176/176 186/186/186 185/185/185
f 177/177/177 178/178/178 187/187/187
f 177/177/177 187/187/187 186/186/186
f 178/178/178 179/179/179 188/188/188
f 178/178/178 188/188/188 187/187/187
f 179/179/179 180/180/180 189/189/189
f 179/179/179 189/189/189 188/188/188
f 181/181/181 182/182/182 191/191/191
f 181/181/181 191/191/191 190/190/190
f 182/182/182 183/183/183 192/192/192
f 182/182/182 192/192/192 191/191/191
f 183/183/183 184/184/184 193/193/193
f 183/183/183 193/193/193 192/192/192
f 184/184/184 185/185/185 194/194/194
f 184/184/184 194/194/194 193/193/193
f 185/185/185 186/186/186 195/195/195
f 185/185/185 195/195/195 194/194/194
f 186/186/186 187/187/187 196/196/196
f 186/186/186 196/196/196 195/195/195
f 187/187/187 188/188/188 197/197/197
f 187/187/187 197/197/197 196/196/196
f 188/188/188 189/189/189 198/198/198
f 188/188/188 198/198/198 197/197/197
f 190/190/190 191/191/191 200/200/200
f 190/190/190 200/200/200 199/199/199
f 191/191/191 192/192/192 201/201/201
f 191/191/191 201/201/201 200/200/200
f 192/192/192 193/193/193 202/202/202
f 192/192/192 202/202/202 201/201/201
f 193/193/193 194/194/194 203/203/203
f 193/193/193 203/203/203 202/202/202
f 194/194/194 195/195/195 204/204/204
f 194/194/194 204/204/204 203/203/203
f 195/195/195 196/196/196 205/205/205
f 195/195/195 205/205/205 204/204/204
f 196/196/196 197/197/197 206/206/206
f 196/196/196 206/206/206 205/205/205
f 197/197/197 198/198/198 207/207/207
f 197/197/197 207/207/207 206/206/206
f 199/199/199 200/200/200 209/209/209
f 199/199/199 209/209/209 208/208/208
f 200/200/200 201/201/201 210/210/210
f 200/200/200 210/210/210 209/209/209
f 201/201/201 202/202/202 211/211/211
f 201/201/201 211/211/211 210/210/210
f 202/202/202 203/203/203 212/212/212
f 202/202/202 212/212/212 211/211/211
f 203/203/203 204/204/204 213/213/213
f 203/203/203 213/213/213 212/212/212
f 204/204/204 205/205/205 214/214/214
f 204/204/204 214/214/214 213/213/213
f 205/205/205 206/206/206 215/215/215
f 205/205/205 215/215/215 214/214/214
f 206/206/206 207/207/207 216/216/216
f 206/206/206 216/216/216 215/215/215
f 208/208/208 209/209/209 218/218/218
f 208/208/208 218/218/218 217/217/217
f 209/209/209 210/210/210 219/219/219
f 209/209/209 219/219/219 218/218/218
f 210/210/210 211/211/211 220/220/220
f 210/210/210 220/220/220 219/219/219
f 211/211/211 212/212/212 221/221/221
f 211/211/211 221/221/221 220/220/220
f 212/212/212 213/213/213 222/222/222
f 212/212/212 222/222/222 221/221/221
f 213/213/213 214/214/214 223/223/223
f 213/213/213 223/223/223 222/222/222
f 214/214/214 215/215/215 224/224/224
f 214/214/214 224/224/224 223/223/223
f 215/215/215 216/216/216 225/225/225
f 215/215/215 225/225/225 224/224/224
g F11
f 217/217/217 218/218/218 227/227/227
f 217/217/217 227/227/227 226/226/226
f 218/218/218 219/219/219 228/228/228
f 218/218/218 228/228/228 227/227/227
f 219/219/219 220/220/220 229/229/229
f 219/219/219 229/229/229 228/228/228
f 220/220/220 221/221/221 230/230/230
f 220/220/220 230/230/230 229/229/229
f 221/221/221 222/222/222 231/231/231
f 221/221/221 231/231/231 230/230/230
f 222/222/222 223/223/223 232/232/232
f 222/222/222 232/232/232 231/231/231
f 223/223/223 224/224/224 233/233/233
f 223/223/223 233/233/233 232/232/232
f 224/224/224 225/225/225 234/234/234
f 224/224/224 234/234/234 233/233/233
f 226/226/226 227/227/227 236/236/236
f 226/226/226 236/236/236 235/235/235
f 227/227/227 228/228/228 237/237/237
f 227/227/227 237/237/237 236/236/236
f 228/228/228 229/229/229 238/238/238
f 228/228/228 238/238/238 237/237/237
f 229/229/229 230/230/230 239/239/239
f 229/229/229 239/239/239 238/238/238
f 230/230/230 231/231/231 240/240/240
f 230/230/230 240/240/240 239/239/239
f 231/231/231 232/232/232 241/241/241
f 231/231/231 241/241/241 240/240/240
f 232/232/232 233/233/233 242/242/242
f 232/232/232 242/242/242 241/241/241
f 233/233/233 234/234/234 243/243/243
f 233/233/233 243/243/243 242/242/242
f 235/235/235 236/236/236 245/245/245
f 235/235/235 245/245/245 244/244/244
f 236/236/236 237/237/237 246/246/246
f 236/236/236 246/246/246 245/245/245
f 237/237/237 238/238/238 247/247/247
f 237/237/237 247/247/247 246/246/246
f 238/238/238 239/239/239 248/248/248
f 238/238/238 248/248/248 247/247/247
f 239/239/239 240/240/240 249/249/249
f 239/239/239 249/249/249 248/248/248
f 240/240/240 241/241/241 250/250/250
f 240/240/240 250/250/250 249/249/249
f 241/241/241 242/242/242 251/251/251
f 241/241/241 251/251/251 250/250/250
f 242/242/242 243/243/243 252/252/252
f 242/242/242 252/252/252 251/251/251
f 244/244/244 245/245/245 254/254/254
f 244/244/244 254/254/254 253/253/253
f 245/245/245 246/246/246 255/255/255
f 245/245/245 255/255/255 254/254/254
f 246/246/246 247/247/247 256/256/256
f 246/246/246 256/256/256 255/255/255
f 247/247/247 248/248/248 257/257/257
f 247/247/247 257/257/257 256/256/256
f 248/248/248 249/249/249 258/258/258
f 248/248/248 258/258/258 257/257/257
f 249/249/249 250/250/250 259/259/259
f 249/249/249 259/259/259 258/258/258
f 250/250/250 251/251/251 260/260/260
f 250/250/250 260/260/260 259/259/259
f 251/251/251 252/252/252 261/261/261
f 251/251/251 261/261/261 260/260/260
f 253/253/253 254/254/254 263/263/263
f 253/253/253 263/263/263 262/262/262
f 254/254/254 255/255/255 264/264/264
f 254/254/254 264/264/264 263/263/263
f 255/255/255 256/256/256 265/265/265
f 255/255/255 265/265/265 264/264/264
f 256/256/256 257/257/257 266/266/266
f 256/256/256 266/266/266 265/265/265
f 257/257/257 258/258/258 267/267/267
f 257/257/257 267/267/267 266/266/266
f 258/258/258 259/259/259 268/268/268
f 258/258/258 268/268/268 267/267/267
f 259/259/259 260/260/260 269/269/269
f 259/259/259 269/269/269 268/268/268
f 260/260/260 261/261/261 270/270/270
f 260/260/260 270/270/270 269/269/269
f 262/262/262 263/263/263 272/272/272
f 262/262/262 272/272/272 271/271/271
f 263/263/263 264/264/264 273/273/273
f 263/263/263 273/273/273 272/272/272
f 264/264/264 265/265/265 274/274/274
f 264/264/264 274/274/274 273/273/273
f 265/265/265 266/266/266 275/275/275
f 265/265/265 275/275/275 274/274/274
f 266/266/266 267/267/267 276/276/276
f 266/266/266 276/276/276 275/275/275
f 267/267/267 268/268/268 277/277/277
f 267/267/267 277/277/277 276/276/276
f 268/268/268 269/269/269 278/278/278
f 268/268/268 278/278/278 277/277/277
f 269/269/269 270/270/270 279/279/279
f 269/269/269 279/279/279 278/278/278
f 271/271/271 272/272/272 281/281/281
f 271/271/271 281/281/281 280/280/280
f 272/272/272 273/273/273 282/282/282
f 272/272/272 282/282/282 281/281/281
f 273/273/273 274/274/274 283/283/283
f 273/273/273 283/283/283 282/282/282
f 274/274/274 275/275/275 284/284/284
f 274/274/274 284/284/284 283/283/283
f 275/275/275 276/276/276 285/285/285
f 275/275/275 285/285/285 284/284/284
f 276/276/276 277/277/277 286/286/286
f 276/276/276 286/286/286 285/285/285
f 277/277/277 278/278/278 287/287/287
f 277/277/277 287/287/287 286/286/286
f 278/278/278 279/279/279 288/288/288
f 278/278/278 288/288/288 287/287/287
f 280/280/280 281/281/281 290/290/290
f 280/280/280 290/290/290 289/289/289
f 281/281/281 282/282/282 291/291/291
f 281/281/281 291/291/291 290/290/290
f 282/282/282 283/283/283 292/292/292
f 282/282/282 292/292/292 291/291/291
f 283/283/283 284/284/284 293/293/293
f 283/283/283 293/293/293 292/292/292
f 284/284/284 285/285/285 294/294/294
f 284/284/284 294/294/294 293/293/293
f 285/285/285 286/286/286 295/295/295
f 285/285/285 295/295/295 294/294/294
f 286/286/286 287/287/287 296/296/296
f 286/286/286 296/296/296 295/295/295
f 287/287/287 288/288/288 297/297/297
f 287/287/287 297/297/297 296/296/296
g F09-L
f 289/289/289 290/290/290 299/299/299
f 289/289/289 299/299/299 298/298/298
f 290/290/290 291/291/291 300/300/300
f 290/290/290 300/300/300 299/299/299
f 291/291/291 292/292/292 301/301/301
f 291/291/291 301/301/301 300/300/300
f 292/292/292 293/293/293 302/302/302
f 292/292/292 302/302/302 301/301/301
f 293/293/293 294/294/294 303/303/303
f 293/293/293 303/303/303 302/302/302
f 294/294/294 295/295/295 304/304/304
f 294/294/294 304/304/304 303/303/303
f 295/295/295 296/296/296 305/305/305
f 295/295/295 305/305/305 304/304/304
f 296/296/296 297/297/297 306/306/306
f 296/296/296 306/306/306 305/305/305
f 298/298/298 299/299/299 308/308/308
f 298/298/298 308/308/308 307/307/307
f 299/299/299 300/300/300 309/309/309
f 299/299/299 309/309/309 308/308/308
f 300/300/300 301/301/301 310/310/310
f 300/300/300 310/310/310 309/309/309
f 301/301/301 302/302/302 311/311/311
f 301/301/301 311/311/311 310/310/310
f 302/302/302 303/303/303 312/312/312
f 302/302/302 312/312/312 311/311/311
f 303/303/303 304/304/304 313/313/313
f 303/303/303 313/313/313 312/312/312
f 304/304/304 305/305/305 314/314/314
f 304/304/304 314/314/314 313/313/313
f 305/305/305 306/306/306 315/315/315
f 305/305/305 315/315/315 314/314/314
f 307/307/307 308/308/308 317/317/317
f 307/307/307 317/317/317 316/316/316
f 308/308/308 309/309/309 318/318/318
f 308/308/308 318/318/318 317/317/317
f 309/309/309 310/310/310 319/319/319
f 309/309/309 319/319/319 318/318/318
f 310/310/310 311/311/311 320/320/320
f 310/310/310 320/320/320 319/319/319
f 311/311/311 312/312/312 321/321/321
f 311/311/311 321/321/321 320/320/320
f 312/312/312 313/313/313 322/322/322
f 312/312/312 322/322/322 321/321/321
f 313/313/313 314/314/314 323/323/323
f 313/313/313 323/323/323 322/322/322
f 314/314/314 315/315/315 324/324/324
f 314/314/314 324/324/324 323/323/323
f 316/316/316 317/317/317 326/326/326
f 316/316/316 326/326/326 325/325/325
f 317/317/317 318/318/318 327/327/327
f 317/317/317 327/327/327 326/326/326
f 318/318/318 319/319/319 328/328/328
f 318/318/318 328/328/328 327/327/327
f 319/319/319 320/320/320 329/329/329
f 319/319/319 329/329/329 328/328/328
f 320/320/320 321/321/321 330/330/330
f 320/320/320 330/330/330 329/329/329
f 321/321/321 322/322/322 331/331/331
f 321/321/321 331/331/331 330/330/330
f 322/322/322 323/323/323 332/332/332
f 322/322/322 332/332/332 331/331/331
f 323/323/323 324/324/324 333/333/333
f 323/323/323 333/333/333 332/332/332
f 325/325/325 326/326/326 335/335/335
f 325/325/325 335/335/335 334/334/334
f 326/326/326 327/327/327 336/336/336
f 326/326/326 336/336/336 335/335/335
f 327/327/327 328/328/328 337/337/337
f 327/327/327 337/337/337 336/336/336
f 328/328/328 329/329/329 338/338/338
f 328/328/328 338/338/338 337/337/337
f 329/329/329 330/330/330 339/339/339
f 329/329/329 339/339/339 338/338/338
f 330/330/330 331/331/331 340/340/340
f 330/330/330 340/340/340 339/339/339
f 331/331/331 332/332/332 341/341/341
f 331/331/331 341/341/341 340/340/340
f 332/332/332 333/333/333 342/342/342
f 332/332/332 342/342/342 341/341/341
f 334/334/334 335/335/335 344/344/344
f 334/334/334 344/344/344 343/343/343
f 335/335/335 336/336/336 345/345/345
f 335/335/335 345/345/345 344/344/344
f 336/336/336 337/337/337 346/346/346
f 336/336/336 346/346/346 345/345/345
f 337/337/337 338/338/338 347/347/347
f 337/337/337 347/347/347 346/346/346
f 338/338/338 339/339/339 348/348/348
f 338/338/338 348/348/348 347/347/347
f 339/339/339 340/340/340 349/349/349
f 339/339/339 349/349/349 348/348/348
f 340/340/340 341/341/341 350/350/350
f 340/340/340 350/350/350 349/349/349
f 341/341/341 342/342/342 351/351/351
f 341/341/341 351/351/351 350/350/350
f 343/343/343 344/344/344 353/353/353
f 343/343/343 353/353/353 352/352/352
f 344/344/344 345/345/345 354/354/354
f 344/344/344 354/354/354 353/353/353
f 345/345/345 346/346/346 355/355/355
f 345/345/345 355/355/355 354/354/354
f 346/346/346 347/347/347 356/356/356
f 346/346/346 356/356/356 355/355/355
f 347/347/347 348/348/348 357/357/357
f 347/347/347 357/357/357 356/356/356
f 348/348/348 349/349/349 358/358/358
f 348/348/348 358/358/358 357/357/357
f 349/349/349 350/350/350 359/359/359
f 349/349/349 359/359/359 358/358/358
f 350/350/350 351/351/351 360/360/360
f 350/350/350 360/360/360 359/359/359
f 352/352/352 353/353/353 362/362/362
f 352/352/352 362/362/362 361/361/361
f 353/353/353 354/354/354 363/363/363
f 353/353/353 363/363/363 362/362/362
f 354/354/354 355/355/355 364/364/364
f 354/354/354 364/364/364 363/363/363
f 355/355/355 356/356/356 365/365/365
f 355/355/355 365/365/365 364/364/364
f 356/356/356 357/357/357 366/366/366
f 356/356/356 366/366/366 365/365/365
f 357/357/357 358/358/358 367/367/367
f 357/357/357 367/367/367 366/366/366
f 358/358/358 359/359/359 368/368/368
f 358/358/358 368/368/368 367/367/367
f 359/359/359 360/360/360 369/369/369
f 359/359/359 369/369/369 368/368/368
g F07-L
f 361/361/361 362/362/362 371/371/371
f 361/361/361 371/371/371 370/370/370
f 362/362/362 363/363/363 372/372/372
f 362/362/362 372/372/372 371/371/371
f 363/363/363 364/364/364 373/373/373
f 363/363/363 373/373/373 372/372/372
f 364/364/364 365/365/365 374/374/374
f 364/364/364 374/374/374 373/373/373
f 365/365/365 366/366/366 375/375/375
f 365/365/365 375/375/375 374/374/374
f 366/366/366 367/367/367 376/376/376
f 366/366/366 376/376/376 375/375/375
f 367/367/367 368/368/368 377/377/377
f 367/367/367 377/377/377 376/376/376
f 368/368/368 369/369/369 378/378/378
f 368/368/368 378/378/378 377/377/377
f 370/370/370 371/371/371 380/380/380
f 370/370/370 380/380/380 379/379/379
f 371/371/371 372/372/372 381/381/381
f 371/371/371 381/381/381 380/380/380
f 372/372/372 373/373/373 382/382/382
f 372/372/372 382/382/382 381/381/381
f 373/373/373 374/374/374 383/383/383
f 373/373/373 383/383/383 382/382/382
f 374/374/374 375/375/375 384/384/384
f 374/374/374 384/384/384 383/383/383
f 375/375/375 376/376/376 385/385/385
f 375/375/375 385/385/385 384/384/384
f 376/376/376 377/377/377 386/386/386
f 376/376/376 386/386/386 385/385/385
f 377/377/377 378/378/378 387/387/387
f 377/377/377 387/387/387 386/386/386
f 379/379/379 380/380/380 389/389/389
f 379/379/379 389/389/389 388/388/388
f 380/380/380 381/381/381 390/390/390
f 380/380/380 390/390/390 389/389/389
f 381/381/381 382/382/382 391/391/391
f 381/381/381 391/391/391 390/390/390
f 382/382/382 383/383/383 392/392/392
f 382/382/382 392/392/392 391/391/391
f 383/383/383 384/384/384 393/393/393
f 383/383/383 393/393/393 392/392/392
f 384/384/384 385/385/385 394/394/394
f 384/384/384 394/394/394 393/393/393
f 385/385/385 386/386/386 395/395/395
f 385/385/385 395/395/395 394/394/394
f 386/386/386 387/387/387 396/396/396
f 386/386/386 396/396/396 395/395/395
f 388/388/388 389/389/389 398/398/398
f 388/388/388 398/398/398 397/397/397
f 389/389/389 390/390/390 399/399/399
f 389/389/389 399/399/399 398/398/398
f 390/390/390 391/391/391 400/400/400
f 390/390/390 400/400/400 399/399/399
f 391/391/391 392/392/392 401/401/401
f 391/391/391 401/401/401 400/400/400
f 392/392/392 393/393/393 402/402/402
f 392/392/392 402/402/402 401/401/401
f 393/393/393 394/394/394 403/403/403
f 393/393/393 403/403/403 402/402/402
f 394/394/394 395/395/395 404/404/404
f 394/394/394 404/404/404 403/403/403
f 395/395/395 396/396/396 405/405/405
f 395/395/395 405/405/405 404/404/404
f 397/397/397 398/398/398 407/407/407
f 397/397/397 407/407/407 406/406/406
f 398/398/398 399/399/399 408/408/408
f 398/398/398 408/408/408 407/407/407
f 399/399/399 400/400/400 409/409/409
f 399/399/399 409/409/409 408/408/408
f 400/400/400 401/401/401 410/410/410
f 400/400/400 410/410/410 409/409/409
f 401/401/401 402/402/402 411/411/411
f 401/401/401 411/411/411 410/410/410
f 402/402/402 403/403/403 412/412/412
f 402/402/402 412/412/412 411/411/411
f 403/403/403 404/404/404 413/413/413
f 403/403/403 413/413/413 412/412/412
f 404/404/404 405/405/405 414/414/414
f 404/404/404 414/414/414 413/413/413
f 406/406/406 407/407/407 416/416/416
f 406/406/406 416/416/416 415/415/415
f 407/407/407 408/408/408 417/417/417
f 407/407/407 417/417/417 416/416/416
f 408/408/408 409/409/409 418/418/418
f 408/408/408 418/418/418 417/417/417
f 409/409/409 410/410/410 419/419/419
f 409/409/409 419/419/419 418/418/418
f 410/410/410 411/411/411 420/420/420
f 410/410/410 420/420/420 419/419/419
f 411/411/411 412/412/412 421/421/421
f 411/411/411 421/421/421 420/420/420
f 412/412/412 413/413/413 422/422/422
f 412/412/412 422/422/422 421/421/421
f 413/413/413 414/414/414 423/423/423
f 413/413/413 423/423/423 422/422/422
f 415/415/415 416/416/416 425/425/425
f 415/415/415 425/425/425 424/424/424
f 416/416/416 417/417/417 426/426/426
f 416/416/416 426/426/426 425/425/425
f 417/417/417 418/418/418 427/427/427
f 417/417/417 427/427/427 426/426/426
f 418/418/418 419/419/419 428/428/428
f 418/418/418 428/428/428 427/427/427
f 419/419/419 420/420/420 429/429/429
f 419/419/419 429/429/429 428/428/428
f 420/420/420 421/421/421 430/430/430
f 420/420/420 430/430/430 429/429/429
f 421/421/421 422/422/422 431/431/431
f 421/421/421 431/431/431 430/430/430
f 422/422/422 423/423/423 432/432/432
f 422/422/422 432/432/432 431/431/431
f 424/424/424 425/425/425 434/434/434
f 424/424/424 434/434/434 433/433/433
f 425/425/425 426/426/426 435/435/435
f 425/425/425 435/435/435 434/434/434
f 426/426/426 427/427/427 436/436/436
f 426/426/426 436/436/436 435/435/435
f 427/427/427 428/428/428 437/437/437
f 427/427/427 437/437/437 436/436/436
f 428/428/428 429/429/429 438/438/438
f 428/428/428 438/438/438 437/437/437
f 429/429/429 430/430/430 439/439/439
f 429/429/429 439/439/439 438/438/438
f 430/430/430 431/431/431 440/440/440
f 430/430/430 440/440/440 439/439/439
f 431/431/431 432/432/432 441/441/441
f 431/431/431 441/441/441 440/440/440
g F05-L
f 433/433/433 434/434/434 443/443/443
f 433/433/433 443/443/443 442/442/442
f 434/434/434 435/435/435 444/444/444
f 434/434/434 444/444/444 443/443/443
f 435/435/435 436/436/436 445/445/445
f 435/435/435 445/445/445 444/444/444
f 436/436/436 437/437/437 446/446/446
f 436/436/436 446/446/446 445/445/445
f 437/437/437 438/438/438 447/447/447
f 437/437/437 447/447/447 446/446/446
f 438/438/438 439/439/439 448/448/448
f 438/438/438 448/448/448 447/447/447
f 439/439/439 440/440/440 449/449/449
f 439/439/439 449/449/449 448/448/448
f 440/440/440 441/441/441 450/450/450
f 440/440/440 450/450/450 449/449/449
f 442/442/442 443/443/443 452/452/452
f 442/442/442 452/452/452 451/451/451
f 443/443/443 444/444/444 453/453/453
f 443/443/443 453/453/453 452/452/452
f 444/444/444 445/445/445 454/454/454
f 444/444/444 454/454/454 453/453/453
f 445/445/445 446/446/446 455/455/455
f 445/445/445 455/455/455 454/454/454
f 446/446/446 447/447/447 456/456/456
f 446/446/446 456/456/456 455/455/455
f 447/447/447 448/448/448 457/457/457
f 447/447/447 457/457/457 456/456/456
f 448/448/448 449/449/449 458/458/458
f 448/448/448 458/458/458 457/457/457
f 449/449/449 450/450/450 459/459/459
f 449/449/449 459/459/459 458/458/458
f 451/451/451 452/452/452 461/461/461
f 451/451/451 461/461/461 460/460/460
f 452/452/452 453/453/453 462/462/462
f 452/452/452 462/462/462 461/461/461
f 453/453/453 454/454/454 463/463/463
f 453/453/453 463/463/463 462/462/462
f 454/454/454 455/455/455 464/464/464
f 454/454/454 464/464/464 463/463/463
f 455/455/455 456/456/456 465/465/465
f 455/455/455 465/465/465 464/464/464
f 456/456/456 457/457/457 466/466/466
f 456/456/456 466/466/466 465/465/465
f 457/457/457 458/458/458 467/467/467
f 457/457/457 467/467/467 466/466/466
f 458/458/458 459/459/459 468/468/468
f 458/458/458 468/468/468 467/467/467
f 460/460/460 461/461/461 470/470/470
f 460/460/460 470/470/470 469/469/469
f 461/461/461 462/462/462 471/471/471
f 461/461/461 471/471/471 470/470/470
f 462/462/462 463/463/463 472/472/472
f 462/462/462 472/472/472 471/471/471
f 463/463/463 464/464/464 473/473/473
f 463/463/463 473/473/473 472/472/472
f 464/464/464 465/465/465 474/474/474
f 464/464/464 474/474/474 473/473/473
f 465/465/465 466/466/466 475/475/475
f 465/465/465 475/475/475 474/474/474
f 466/466/466 467/467/467 476/476/476
f 466/466/466 476/476/476 475/475/475
f 467/467/467 468/468/468 477/477/477
f 467/467/467 477/477/477 476/476/476
f 469/469/469 470/470/470 479/479/479
f 469/469/469 479/479/479 478/478/478
f 470/470/470 471/471/471 480/480/480
f 470/470/470 480/480/480 479/479/479
f 471/471/471 472/472/472 481/481/481
f 471/471/471 481/481/481 480/480/480
f 472/472/472 473/473/473 482/482/482
f 472/472/472 482/482/482 481/481/481
f 473/473/473 474/474/474 483/483/483
f 473/473/473 483/483/483 482/482/482
f 474/474/474 475/475/475 484/484/484
f 474/474/474 484/484/484 483/483/483
f 475/475/475 476/476/476 485/485/485
f 475/475/475 485/485/485 484/484/484
f 476/476/476 477/477/477 486/486/486
f 476/476/476 486/486/486 485/485/485
f 478/478/478 479/479/479 488/488/488
f 478/478/478 488/488/488 487/487/487
f 479/479/479 480/480/480 489/489/489
f 479/479/479 489/489/489 488/488/488
f 480/480/480 481/481/481 490/490/490
f 480/480/480 490/490/490 489/489/489
f 481/481/481 482/482/482 491/491/491
f 481/481/481 491/491/491 490/490/490
f 482/482/482 483/483/483 492/492/492
f 482/482/482 492/492/492 491/491/491
f 483/483/483 484/484/484 493/493/493
f 483/483/483 493/493/493 492/492/492
f 484/484/484 485/485/485 494/494/494
f 484/484/484 494/494/494 493/493/493
f 485/485/485 486/486/486 495/495/495
f 485/485/485 495/495/495 494/494/494
f 487/487/487 488/488/488 497/497/497
f 487/487/487 497/497/497 496/496/496
f 488/488/488 489/489/489 498/498/498
f 488/488/488 498/498/498 497/497/497
f 489/489/489 490/490/490 499/499/499
f 489/489/489 499/499/499 498/498/498
f 490/490/490 491/491/491 500/500/500
f 490/490/490 500/500/500 499/499/499
f 491/491/491 492/492/492 501/501/501
f 491/491/491 501/501/501 500/500/500
f 492/492/492 493/493/493 502/502/502
f 492/492/492 502/502/502 501/501/501
f 493/493/493 494/494/494 503/503/503
f 493/493/493 503/503/503 502/502/502
f 494/494/494 495/495/495 504/504/504
f 494/494/494 504/504/504 503/503/503
f 496/496/496 497/497/497 506/506/506
f 496/496/496 506/506/506 505/505/505
f 497/497/497 498/498/498 507/507/507
f 497/497/497 507/507/507 506/506/506
f 498/498/498 499/499/499 508/508/508
f 498/498/498 508/508/508 507/507/507
f 499/499/499 500/500/500 509/509/509
f 499/499/499 509/509/509 508/508/508
f 500/500/500 501/501/501 510/510/510
f 500/500/500 510/510/510 509/509/509
f 501/501/501 502/502/502 511/511/511
f 501/501/501 511/511/511 510/510/510
f 502/502/502 503/503/503 512/512/512
f 502/502/502 512/512/512 511/511/511
f 503/503/503 504/504/504 513/513/513
f 503/503/503 513/513/513 512/512/512
