# F05-R: open authoring surface, head-local metres, NOT a complete or runtime face
o F05-R
v -0.0390000000 0.0300000000 0.1160000000
v -0.0461777344 0.0305000000 0.1168339844
v -0.0461813450 0.0257097092 0.1164356098
v -0.0390205078 0.0252568359 0.1159863281
v -0.0540468750 0.0311875000 0.1162968750
v -0.0540149689 0.0263515015 0.1155123444
v -0.0623613281 0.0319687500 0.1143300781
v -0.0622826672 0.0270990372 0.1131617947
v -0.0708750000 0.0327500000 0.1108750000
v -0.0707457275 0.0278691406 0.1093292236
v -0.0793417969 0.0334375000 0.1058730469
v -0.0791654377 0.0285786362 0.1039598942
v -0.0875156250 0.0339375000 0.0992656250
v -0.0873030853 0.0291443481 0.0969990692
v -0.0951503906 0.0341562500 0.0909941406
v -0.0949199581 0.0294831009 0.0883920116
v -0.1020000000 0.0340000000 0.0810000000
v -0.1017773437 0.0295117188 0.0780839844
v -0.0462054596 0.0209347534 0.1160108185
v -0.0390703125 0.0205234375 0.1159531250
v -0.0539932861 0.0215405273 0.1147008057
v -0.0622046356 0.0222686157 0.1119693451
v -0.0706103516 0.0230468750 0.1077626953
v -0.0789812775 0.0238031616 0.1020271149
v -0.0870882568 0.0244653320 0.0947088623
v -0.0947021332 0.0249612427 0.0857541962
v -0.1015937500 0.0252187500 0.0751093750
v -0.0462377758 0.0161659317 0.1155754604
v -0.0391318359 0.0157939453 0.1159121094
v -0.0539756927 0.0167395630 0.1138784637
v -0.0621268559 0.0174539108 0.1107672291
v -0.0704725342 0.0182480469 0.1061878662
v -0.0787939968 0.0190610428 0.1000864849
v -0.0868725128 0.0198319702 0.0924091949
v -0.0944893513 0.0204999008 0.0831021061
v -0.1014257812 0.0210039063 0.0721113281
v -0.0462659912 0.0113940430 0.1151453857
v -0.0391875000 0.0110625000 0.1158750000
v -0.0539560547 0.0119335937 0.1130615234
v -0.0620489502 0.0126313477 0.1095699463
v -0.0703359375 0.0134375000 0.1046171875
v -0.0786082764 0.0143022461 0.0981497803
v -0.0866572266 0.0151757813 0.0901142578
v -0.0942740479 0.0160083008 0.0804571533
v -0.1012500000 0.0167500000 0.0691250000
v -0.0462778034 0.0066098862 0.1147364445
v -0.0392197266 0.0063232422 0.1158535156
v -0.0539282379 0.0071076050 0.1122661896
v -0.0619705410 0.0077773514 0.1083919964
v -0.0702042236 0.0085800781 0.1030631104
v -0.0784287968 0.0094767380 0.0962287769
v -0.0864437714 0.0104282837 0.0878382416
v -0.0940486584 0.0113956680 0.0778407497
v -0.1010429688 0.0123398438 0.0661855469
v -0.0462609100 0.0018042603 0.1143644867
v -0.0392109375 0.0015703125 0.1158593750
v -0.0538861084 0.0022465820 0.1115086670
v -0.0618912506 0.0028683472 0.1072478790
v -0.0700810547 0.0036406250 0.1015380859
v -0.0782602386 0.0045344849 0.0943352509
v -0.0862335205 0.0055209961 0.0855953369
v -0.0938056183 0.0065712280 0.0752743073
v -0.1007812500 0.0076562500 0.0633281250
v -0.0462030087 -0.0030320358 0.1140453625
v -0.0391435547 -0.0032021484 0.1159042969
v -0.0538235321 -0.0026644897 0.1108051605
v -0.0618107014 -0.0021192398 0.1061520939
v -0.0699700928 -0.0014160156 0.1000545654
v -0.0781072826 -0.0005745468 0.0924809780
v -0.0860278473 0.0003854370 0.0833997345
v -0.0935373631 0.0014442062 0.0727792377
v -0.1004414063 0.0025820313 0.0605878906
v -0.0460917969 -0.0079082031 0.1137949219
v -0.0390000000 -0.0080000000 0.1160000000
v -0.0537343750 -0.0076406250 0.1101718750
v -0.0617285156 -0.0072089844 0.1051191406
v -0.0698750000 -0.0066250000 0.0986250000
v -0.0779746094 -0.0059003906 0.0906777344
v -0.0858281250 -0.0050468750 0.0812656250
v -0.0932363281 -0.0040761719 0.0703769531
v -0.1000000000 -0.0030000000 0.0580000000
vt 0.0000000000 0.0000000000
vt 0.1250000000 0.0000000000
vt 0.1250000000 0.0178571429
vt 0.0000000000 0.0178571429
vt 0.2500000000 0.0000000000
vt 0.2500000000 0.0178571429
vt 0.3750000000 0.0000000000
vt 0.3750000000 0.0178571429
vt 0.5000000000 0.0000000000
vt 0.5000000000 0.0178571429
vt 0.6250000000 0.0000000000
vt 0.6250000000 0.0178571429
vt 0.7500000000 0.0000000000
vt 0.7500000000 0.0178571429
vt 0.8750000000 0.0000000000
vt 0.8750000000 0.0178571429
vt 1.0000000000 0.0000000000
vt 1.0000000000 0.0178571429
vt 0.1250000000 0.0357142857
vt 0.0000000000 0.0357142857
vt 0.2500000000 0.0357142857
vt 0.3750000000 0.0357142857
vt 0.5000000000 0.0357142857
vt 0.6250000000 0.0357142857
vt 0.7500000000 0.0357142857
vt 0.8750000000 0.0357142857
vt 1.0000000000 0.0357142857
vt 0.1250000000 0.0535714286
vt 0.0000000000 0.0535714286
vt 0.2500000000 0.0535714286
vt 0.3750000000 0.0535714286
vt 0.5000000000 0.0535714286
vt 0.6250000000 0.0535714286
vt 0.7500000000 0.0535714286
vt 0.8750000000 0.0535714286
vt 1.0000000000 0.0535714286
vt 0.1250000000 0.0714285714
vt 0.0000000000 0.0714285714
vt 0.2500000000 0.0714285714
vt 0.3750000000 0.0714285714
vt 0.5000000000 0.0714285714
vt 0.6250000000 0.0714285714
vt 0.7500000000 0.0714285714
vt 0.8750000000 0.0714285714
vt 1.0000000000 0.0714285714
vt 0.1250000000 0.0892857143
vt 0.0000000000 0.0892857143
vt 0.2500000000 0.0892857143
vt 0.3750000000 0.0892857143
vt 0.5000000000 0.0892857143
vt 0.6250000000 0.0892857143
vt 0.7500000000 0.0892857143
vt 0.8750000000 0.0892857143
vt 1.0000000000 0.0892857143
vt 0.1250000000 0.1071428571
vt 0.0000000000 0.1071428571
vt 0.2500000000 0.1071428571
vt 0.3750000000 0.1071428571
vt 0.5000000000 0.1071428571
vt 0.6250000000 0.1071428571
vt 0.7500000000 0.1071428571
vt 0.8750000000 0.1071428571
vt 1.0000000000 0.1071428571
vt 0.1250000000 0.1250000000
vt 0.0000000000 0.1250000000
vt 0.2500000000 0.1250000000
vt 0.3750000000 0.1250000000
vt 0.5000000000 0.1250000000
vt 0.6250000000 0.1250000000
vt 0.7500000000 0.1250000000
vt 0.8750000000 0.1250000000
vt 1.0000000000 0.1250000000
vt 0.1250000000 0.1428571429
vt 0.0000000000 0.1428571429
vt 0.2500000000 0.1428571429
vt 0.3750000000 0.1428571429
vt 0.5000000000 0.1428571429
vt 0.6250000000 0.1428571429
vt 0.7500000000 0.1428571429
vt 0.8750000000 0.1428571429
vt 1.0000000000 0.1428571429
vn 0.2169304578 0.0000000000 0.9761870602
vn 0.0144956872 -0.0788382922 0.9967820217
vn -0.0365143253 -0.0861365906 0.9956139773
vn 0.1631075865 -0.0065991419 0.9865862185
vn -0.1631157100 -0.1550135806 0.9743531470
vn -0.2082221363 -0.1613409155 0.9646826685
vn -0.3156500606 -0.2219940447 0.9225419683
vn -0.3536462309 -0.2271728098 0.9073736043
vn -0.4454233785 -0.2762643295 0.8516313957
vn -0.4761173485 -0.2810159577 0.8332720456
vn -0.5558519619 -0.3162745168 0.7687646106
vn -0.5794054906 -0.3215945904 0.7489100059
vn -0.6505170460 -0.3414063715 0.6784314721
vn -0.6671990017 -0.3481037501 0.6585357023
vn -0.7326293974 -0.3511074370 0.5830760960
vn -0.7429369430 -0.3594259597 0.5646748429
vn -0.8047780022 -0.3441384028 0.4836332566
vn -0.8098231529 -0.3531862325 0.4684505802
vn -0.0878558721 -0.0894363708 0.9921101155
vn 0.1064585237 -0.0095289783 0.9942714827
vn -0.2525161051 -0.1637039512 0.9536438712
vn -0.3906184015 -0.2283384847 0.8917840550
vn -0.5061206005 -0.2813279005 0.8152892432
vn -0.6029408881 -0.3216194362 0.7300843949
vn -0.6847435247 -0.3483769728 0.6401248239
vn -0.7549817121 -0.3602729245 0.5479106079
vn -0.8170492857 -0.3544876349 0.4547185740
vn -0.1390427539 -0.0890969189 0.9862701717
vn 0.0480630526 -0.0092871401 0.9988011274
vn -0.2958093657 -0.1623255320 0.9413539402
vn -0.4264196316 -0.2255904248 0.8759424970
vn -0.5352057706 -0.2772282919 0.7979343690
vn -0.6261281667 -0.3163686240 0.7126530801
vn -0.7027522321 -0.3422760778 0.6236877319
vn -0.7683763394 -0.3537147085 0.5333701398
vn -0.8262098495 -0.3480348170 0.4430000573
vn -0.1894149698 -0.0855756151 0.9781609189
vn -0.0106930548 -0.0064942717 0.9999217384
vn -0.3377821820 -0.1575223070 0.9279493091
vn -0.4608138325 -0.2191468779 0.8600146846
vn -0.5630987087 -0.2689174995 0.7814110460
vn -0.6486037475 -0.3061226466 0.6968515652
vn -0.7207465642 -0.3302565876 0.6094710629
vn -0.7825290653 -0.3404543275 0.5212860182
vn -0.8366828889 -0.3347742110 0.4334604609
vn -0.2381909436 -0.0794048862 0.9679669098
vn -0.0682056177 -0.0018426861 0.9976695837
vn -0.3780312026 -0.1496911314 0.9136109539
vn -0.4935250675 -0.2093309472 0.8441644166
vn -0.5895275690 -0.2567472992 0.7658577347
vn -0.6700259763 -0.2913854345 0.6827589030
vn -0.7382530681 -0.3131038168 0.5974515942
vn -0.7967991507 -0.3216746164 0.5115042078
vn -0.8477273016 -0.3163074228 0.4258028140
vn -0.2845363258 -0.0711552210 0.9560209275
vn -0.1227879076 0.0039782269 0.9924249611
vn -0.4161206720 -0.1392863347 0.8985782678
vn -0.5242829246 -0.1965481835 0.8285506783
vn -0.6142649436 -0.2411885034 0.7513365990
vn -0.6901242912 -0.2728276538 0.6702936178
vn -0.7548853916 -0.2918239548 0.5873557909
vn -0.8106513959 -0.2988233794 0.5035363961
vn -0.8587361330 -0.2944934874 0.4193397664
vn -0.3276397183 -0.0613874524 0.9428063405
vn -0.1728238226 0.0103687224 0.9848981754
vn -0.4516319048 -0.1267897330 0.8831494699
vn -0.5528595993 -0.1812586648 0.8133213141
vn -0.6371583844 -0.2227922761 0.7378297872
vn -0.7087347876 -0.2512210123 0.6592290981
vn -0.7704052072 -0.2675247668 0.5787109087
vn -0.8237631433 -0.2733999552 0.4966555630
vn -0.8693853391 -0.2711091597 0.4131209941
vn -0.3667827249 -0.0506012232 0.9289294639
vn -0.2168994722 0.0169012576 0.9760476251
vn -0.4842055346 -0.1126772201 0.8676686259
vn -0.5790955450 -0.1639473700 0.7986047894
vn -0.6581469274 -0.2021506678 0.7252432209
vn -0.7258181298 -0.2273734160 0.6492221285
vn -0.7847520683 -0.2413062997 0.5709075766
vn -0.8360652815 -0.2467872693 0.4899907027
vn -0.8796617184 -0.2476467008 0.4060374032
f 1/1/1 2/2/2 3/3/3
f 1/1/1 3/3/3 4/4/4
f 2/2/2 5/5/5 6/6/6
f 2/2/2 6/6/6 3/3/3
f 5/5/5 7/7/7 8/8/8
f 5/5/5 8/8/8 6/6/6
f 7/7/7 9/9/9 10/10/10
f 7/7/7 10/10/10 8/8/8
f 9/9/9 11/11/11 12/12/12
f 9/9/9 12/12/12 10/10/10
f 11/11/11 13/13/13 14/14/14
f 11/11/11 14/14/14 12/12/12
f 13/13/13 15/15/15 16/16/16
f 13/13/13 16/16/16 14/14/14
f 15/15/15 17/17/17 18/18/18
f 15/15/15 18/18/18 16/16/16
f 4/4/4 3/3/3 19/19/19
f 4/4/4 19/19/19 20/20/20
f 3/3/3 6/6/6 21/21/21
f 3/3/3 21/21/21 19/19/19
f 6/6/6 8/8/8 22/22/22
f 6/6/6 22/22/22 21/21/21
f 8/8/8 10/10/10 23/23/23
f 8/8/8 23/23/23 22/22/22
f 10/10/10 12/12/12 24/24/24
f 10/10/10 24/24/24 23/23/23
f 12/12/12 14/14/14 25/25/25
f 12/12/12 25/25/25 24/24/24
f 14/14/14 16/16/16 26/26/26
f 14/14/14 26/26/26 25/25/25
f 16/16/16 18/18/18 27/27/27
f 16/16/16 27/27/27 26/26/26
f 20/20/20 19/19/19 28/28/28
f 20/20/20 28/28/28 29/29/29
f 19/19/19 21/21/21 30/30/30
f 19/19/19 30/30/30 28/28/28
f 21/21/21 22/22/22 31/31/31
f 21/21/21 31/31/31 30/30/30
f 22/22/22 23/23/23 32/32/32
f 22/22/22 32/32/32 31/31/31
f 23/23/23 24/24/24 33/33/33
f 23/23/23 33/33/33 32/32/32
f 24/24/24 25/25/25 34/34/34
f 24/24/24 34/34/34 33/33/33
f 25/25/25 26/26/26 35/35/35
f 25/25/25 35/35/35 34/34/34
f 26/26/26 27/27/27 36/36/36
f 26/26/26 36/36/36 35/35/35
f 29/29/29 28/28/28 37/37/37
f 29/29/29 37/37/37 38/38/38
f 28/28/28 30/30/30 39/39/39
f 28/28/28 39/39/39 37/37/37
f 30/30/30 31/31/31 40/40/40
f 30/30/30 40/40/40 39/39/39
f 31/31/31 32/32/32 41/41/41
f 31/31/31 41/41/41 40/40/40
f 32/32/32 33/33/33 42/42/42
f 32/32/32 42/42/42 41/41/41
f 33/33/33 34/34/34 43/43/43
f 33/33/33 43/43/43 42/42/42
f 34/34/34 35/35/35 44/44/44
f 34/34/34 44/44/44 43/43/43
f 35/35/35 36/36/36 45/45/45
f 35/35/35 45/45/45 44/44/44
f 38/38/38 37/37/37 46/46/46
f 38/38/38 46/46/46 47/47/47
f 37/37/37 39/39/39 48/48/48
f 37/37/37 48/48/48 46/46/46
f 39/39/39 40/40/40 49/49/49
f 39/39/39 49/49/49 48/48/48
f 40/40/40 41/41/41 50/50/50
f 40/40/40 50/50/50 49/49/49
f 41/41/41 42/42/42 51/51/51
f 41/41/41 51/51/51 50/50/50
f 42/42/42 43/43/43 52/52/52
f 42/42/42 52/52/52 51/51/51
f 43/43/43 44/44/44 53/53/53
f 43/43/43 53/53/53 52/52/52
f 44/44/44 45/45/45 54/54/54
f 44/44/44 54/54/54 53/53/53
f 47/47/47 46/46/46 55/55/55
f 47/47/47 55/55/55 56/56/56
f 46/46/46 48/48/48 57/57/57
f 46/46/46 57/57/57 55/55/55
f 48/48/48 49/49/49 58/58/58
f 48/48/48 58/58/58 57/57/57
f 49/49/49 50/50/50 59/59/59
f 49/49/49 59/59/59 58/58/58
f 50/50/50 51/51/51 60/60/60
f 50/50/50 60/60/60 59/59/59
f 51/51/51 52/52/52 61/61/61
f 51/51/51 61/61/61 60/60/60
f 52/52/52 53/53/53 62/62/62
f 52/52/52 62/62/62 61/61/61
f 53/53/53 54/54/54 63/63/63
f 53/53/53 63/63/63 62/62/62
f 56/56/56 55/55/55 64/64/64
f 56/56/56 64/64/64 65/65/65
f 55/55/55 57/57/57 66/66/66
f 55/55/55 66/66/66 64/64/64
f 57/57/57 58/58/58 67/67/67
f 57/57/57 67/67/67 66/66/66
f 58/58/58 59/59/59 68/68/68
f 58/58/58 68/68/68 67/67/67
f 59/59/59 60/60/60 69/69/69
f 59/59/59 69/69/69 68/68/68
f 60/60/60 61/61/61 70/70/70
f 60/60/60 70/70/70 69/69/69
f 61/61/61 62/62/62 71/71/71
f 61/61/61 71/71/71 70/70/70
f 62/62/62 63/63/63 72/72/72
f 62/62/62 72/72/72 71/71/71
f 65/65/65 64/64/64 73/73/73
f 65/65/65 73/73/73 74/74/74
f 64/64/64 66/66/66 75/75/75
f 64/64/64 75/75/75 73/73/73
f 66/66/66 67/67/67 76/76/76
f 66/66/66 76/76/76 75/75/75
f 67/67/67 68/68/68 77/77/77
f 67/67/67 77/77/77 76/76/76
f 68/68/68 69/69/69 78/78/78
f 68/68/68 78/78/78 77/77/77
f 69/69/69 70/70/70 79/79/79
f 69/69/69 79/79/79 78/78/78
f 70/70/70 71/71/71 80/80/80
f 70/70/70 80/80/80 79/79/79
f 71/71/71 72/72/72 81/81/81
f 71/71/71 81/81/81 80/80/80
