# F07-L: open authoring surface, head-local metres, NOT a complete or runtime face
o F07-L
v 0.0360000000 -0.0470000000 0.1180000000
v 0.0439062500 -0.0478867187 0.1134609375
v 0.0448766155 -0.0441303806 0.1127912807
v 0.0367304687 -0.0435058594 0.1174013672
v 0.0523750000 -0.0490312500 0.1068125000
v 0.0536152802 -0.0449741364 0.1061144257
v 0.0610312500 -0.0504101562 0.0983828125
v 0.0625691624 -0.0460228100 0.0976869678
v 0.0695000000 -0.0520000000 0.0885000000
v 0.0713609619 -0.0472620850 0.0878250732
v 0.0774062500 -0.0537773437 0.0774921875
v 0.0796133785 -0.0486776447 0.0768449078
v 0.0843750000 -0.0557187500 0.0656875000
v 0.0869491119 -0.0502551727 0.0650626373
v 0.0900312500 -0.0578007812 0.0534140625
v 0.0929908619 -0.0519803524 0.0527944279
v 0.0940000000 -0.0600000000 0.0410000000
v 0.0973613281 -0.0538388672 0.0403564453
v 0.0455051727 -0.0396945343 0.1124628754
v 0.0373125000 -0.0392656250 0.1169609375
v 0.0543016357 -0.0402901611 0.1059725342
v 0.0633381500 -0.0410441742 0.0977740021
v 0.0722509766 -0.0419482422 0.0881513672
v 0.0806763763 -0.0429940338 0.0773887177
v 0.0882506104 -0.0441732178 0.0657701416
v 0.0946099396 -0.0454774628 0.0535797272
v 0.0993906250 -0.0468984375 0.0411015625
v 0.0458632298 -0.0347416515 0.1124067249
v 0.0377695312 -0.0344550781 0.1166494141
v 0.0545581207 -0.0351332245 0.1062684479
v 0.0635154247 -0.0356252079 0.0984721737
v 0.0723963623 -0.0362130127 0.0892554932
v 0.0808621540 -0.0368920498 0.0788559971
v 0.0885740204 -0.0376577301 0.0675112762
v 0.0951931820 -0.0385054646 0.0554589214
v 0.1003808594 -0.0394306641 0.0429365234
v 0.0460220947 -0.0294342041 0.1125538330
v 0.0381250000 -0.0292500000 0.1164375000
v 0.0545087891 -0.0296572266 0.1068837891
v 0.0632781982 -0.0299168701 0.0996097412
v 0.0720234375 -0.0302109375 0.0909140625
v 0.0804376221 -0.0305372314 0.0809791260
v 0.0882138672 -0.0308935547 0.0699873047
v 0.0950452881 -0.0312777100 0.0581209717
v 0.1006250000 -0.0316875000 0.0455625000
v 0.0460530758 -0.0239346638 0.1128352032
v 0.0384023437 -0.0238261719 0.1162958984
v 0.0542776947 -0.0240160675 0.1077001801
v 0.0628036823 -0.0240701199 0.1010149632
v 0.0713585205 -0.0240965576 0.0929036865
v 0.0796696911 -0.0240951176 0.0834904842
v 0.0874646759 -0.0240655365 0.0728994904
v 0.0944709568 -0.0240075512 0.0612548389
v 0.1004160156 -0.0239208984 0.0486806641
v 0.0460274811 -0.0184055023 0.1131818390
v 0.0386250000 -0.0183593750 0.1161953125
v 0.0539888916 -0.0183636475 0.1085992432
v 0.0622690887 -0.0182359161 0.1025160980
v 0.0706279297 -0.0180244141 0.0950009766
v 0.0788252716 -0.0177312469 0.0861224518
v 0.0866209717 -0.0173585205 0.0759490967
v 0.0937748871 -0.0169083405 0.0645494843
v 0.1000468750 -0.0163828125 0.0519921875
v 0.0460166187 -0.0130091915 0.1135247440
v 0.0388164063 -0.0130253906 0.1161064453
v 0.0537664337 -0.0128538666 0.1094626007
v 0.0618516293 -0.0125652180 0.1039414043
v 0.0700579834 -0.0121490479 0.0969825439
v 0.0781712742 -0.0116111584 0.0886074085
v 0.0859772797 -0.0109573517 0.0788373871
v 0.0932617779 -0.0101934299 0.0676938686
v 0.0998105469 -0.0093251953 0.0551982422
v 0.0460917969 -0.0079082031 0.1137949219
v 0.0390000000 -0.0080000000 0.1160000000
v 0.0537343750 -0.0076406250 0.1101718750
v 0.0617285156 -0.0072089844 0.1051191406
v 0.0698750000 -0.0066250000 0.0986250000
v 0.0779746094 -0.0059003906 0.0906777344
v 0.0858281250 -0.0050468750 0.0812656250
v 0.0932363281 -0.0040761719 0.0703769531
v 0.1000000000 -0.0030000000 0.0580000000
vt 0.0000000000 0.7142857143
vt 0.1250000000 0.7142857143
vt 0.1250000000 0.7321428571
vt 0.0000000000 0.7321428571
vt 0.2500000000 0.7142857143
vt 0.2500000000 0.7321428571
vt 0.3750000000 0.7142857143
vt 0.3750000000 0.7321428571
vt 0.5000000000 0.7142857143
vt 0.5000000000 0.7321428571
vt 0.6250000000 0.7142857143
vt 0.6250000000 0.7321428571
vt 0.7500000000 0.7142857143
vt 0.7500000000 0.7321428571
vt 0.8750000000 0.7142857143
vt 0.8750000000 0.7321428571
vt 1.0000000000 0.7142857143
vt 1.0000000000 0.7321428571
vt 0.1250000000 0.7500000000
vt 0.0000000000 0.7500000000
vt 0.2500000000 0.7500000000
vt 0.3750000000 0.7500000000
vt 0.5000000000 0.7500000000
vt 0.6250000000 0.7500000000
vt 0.7500000000 0.7500000000
vt 0.8750000000 0.7500000000
vt 1.0000000000 0.7500000000
vt 0.1250000000 0.7678571429
vt 0.0000000000 0.7678571429
vt 0.2500000000 0.7678571429
vt 0.3750000000 0.7678571429
vt 0.5000000000 0.7678571429
vt 0.6250000000 0.7678571429
vt 0.7500000000 0.7678571429
vt 0.8750000000 0.7678571429
vt 1.0000000000 0.7678571429
vt 0.1250000000 0.7857142857
vt 0.0000000000 0.7857142857
vt 0.2500000000 0.7857142857
vt 0.3750000000 0.7857142857
vt 0.5000000000 0.7857142857
vt 0.6250000000 0.7857142857
vt 0.7500000000 0.7857142857
vt 0.8750000000 0.7857142857
vt 1.0000000000 0.7857142857
vt 0.1250000000 0.8035714286
vt 0.0000000000 0.8035714286
vt 0.2500000000 0.8035714286
vt 0.3750000000 0.8035714286
vt 0.5000000000 0.8035714286
vt 0.6250000000 0.8035714286
vt 0.7500000000 0.8035714286
vt 0.8750000000 0.8035714286
vt 1.0000000000 0.8035714286
vt 0.1250000000 0.8214285714
vt 0.0000000000 0.8214285714
vt 0.2500000000 0.8214285714
vt 0.3750000000 0.8214285714
vt 0.5000000000 0.8214285714
vt 0.6250000000 0.8214285714
vt 0.7500000000 0.8214285714
vt 0.8750000000 0.8214285714
vt 1.0000000000 0.8214285714
vt 0.1250000000 0.8392857143
vt 0.0000000000 0.8392857143
vt 0.2500000000 0.8392857143
vt 0.3750000000 0.8392857143
vt 0.5000000000 0.8392857143
vt 0.6250000000 0.8392857143
vt 0.7500000000 0.8392857143
vt 0.8750000000 0.8392857143
vt 1.0000000000 0.8392857143
vt 0.1250000000 0.8571428571
vt 0.0000000000 0.8571428571
vt 0.2500000000 0.8571428571
vt 0.3750000000 0.8571428571
vt 0.5000000000 0.8571428571
vt 0.6250000000 0.8571428571
vt 0.7500000000 0.8571428571
vt 0.8750000000 0.8571428571
vt 1.0000000000 0.8571428571
vn 0.4162878002 0.0926083011 0.9045043781
vn 0.5661659195 0.0154249343 0.8241469669
vn 0.5559646638 -0.0079172023 0.8311682204
vn 0.4121903218 0.0511399542 0.9096613896
vn 0.6535716653 -0.0685523731 0.7537537067
vn 0.6434753659 -0.0685633753 0.7623900032
vn 0.7089706364 -0.1526072107 0.6885286312
vn 0.7034741398 -0.1269700917 0.6992873018
vn 0.7459940007 -0.2335191121 0.6236680007
vn 0.7492043241 -0.1811147634 0.6370952231
vn 0.7716503896 -0.3100327392 0.5553695858
vn 0.7876317324 -0.2304222387 0.5714384010
vn 0.7897457841 -0.3820102774 0.4799684828
vn 0.8225385966 -0.2754979760 0.4975249967
vn 0.8020003438 -0.4497167615 0.3931288378
vn 0.8552850563 -0.3178393325 0.4092256481
vn 0.8081711807 -0.5130510457 0.2892022945
vn 0.8841778934 -0.3594801576 0.2983344920
vn 0.5425287777 -0.0231671985 0.8397176944
vn 0.4025190590 0.0289777050 0.9149528402
vn 0.6307082060 -0.0725888059 0.7726176442
vn 0.6938813701 -0.1162234477 0.7106481228
vn 0.7448722257 -0.1524736741 0.6495514960
vn 0.7905473646 -0.1811970800 0.5849807539
vn 0.8345558568 -0.2036912384 0.5118851446
vn 0.8779419472 -0.2227566129 0.4237893683
vn 0.9183832081 -0.2429174403 0.3123514050
vn 0.5249406112 -0.0344940955 0.8504395993
vn 0.3865792433 0.0161391215 0.9221149697
vn 0.6149419938 -0.0793561471 0.7845692743
vn 0.6813309617 -0.1151647848 0.7228590409
vn 0.7363903754 -0.1403557562 0.6618379535
vn 0.7866995089 -0.1551199792 0.5975296435
vn 0.8355327968 -0.1614778398 0.5251760207
vn 0.8835130408 -0.1635299055 0.4389335675
vn 0.9282442323 -0.1679500632 0.3318967031
vn 0.5024945294 -0.0435768691 0.8634815021
vn 0.3640013837 0.0086693304 0.9313580597
vn 0.5956920189 -0.0880054770 0.7983771381
vn 0.6660211028 -0.1206787171 0.7361063360
vn 0.7250925869 -0.1399482083 0.6742812762
vn 0.7790948532 -0.1463660583 0.6095803365
vn 0.8308553233 -0.1427071429 0.5378792644
vn 0.8806276710 -0.1342121243 0.4544029168
vn 0.9262609755 -0.1289939281 0.3541202785
vn 0.4747207568 -0.0508253420 0.8786677345
vn 0.3346440817 0.0049602470 0.9423315417
vn 0.5725513788 -0.0975968468 0.8140391724
vn 0.6478660763 -0.1305975197 0.7504757391
vn 0.7114304998 -0.1480868286 0.6869766628
vn 0.7690184066 -0.1509809401 0.6211404398
vn 0.8231014745 -0.1426742163 0.5496799347
vn 0.8737371135 -0.1291174669 0.4689479036
vn 0.9191378680 -0.1189756208 0.3755401193
vn 0.4417234970 -0.0556867405 0.8954213193
vn 0.2989587116 0.0046057629 0.9542549322
vn 0.5455020774 -0.1066958499 0.8312902497
vn 0.6268836694 -0.1429079643 0.7658943653
vn 0.6955527545 -0.1624865446 0.6998603350
vn 0.7568884113 -0.1665664858 0.6319616591
vn 0.8132071663 -0.1587703849 0.5598982672
vn 0.8646046126 -0.1450569272 0.4810585742
vn 0.9096769437 -0.1336785692 0.3932148246
vn 0.4047538667 -0.0565747930 0.9126738740
vn 0.2585855718 0.0080899115 0.9659544789
vn 0.5153559935 -0.1129531451 0.8494997275
vn 0.6035429489 -0.1551533676 0.7820890879
vn 0.6776396639 -0.1811793822 0.7127261167
vn 0.7426394887 -0.1919906639 0.6415809962
vn 0.8009512783 -0.1907460923 0.5675323586
vn 0.8530009946 -0.1824486860 0.4889803474
vn 0.8978427914 -0.1738339489 0.4045492307
vn 0.3667827249 -0.0506012232 0.9289294639
vn 0.2168994722 0.0169012576 0.9760476251
vn 0.4842055346 -0.1126772201 0.8676686259
vn 0.5790955450 -0.1639473700 0.7986047894
vn 0.6581469274 -0.2021506678 0.7252432209
vn 0.7258181298 -0.2273734160 0.6492221285
vn 0.7847520683 -0.2413062997 0.5709075766
vn 0.8360652815 -0.2467872693 0.4899907027
vn 0.8796617184 -0.2476467008 0.4060374032
f 1/1/1 2/2/2 3/3/3
f 1/1/1 3/3/3 4/4/4
f 2/2/2 5/5/5 6/6/6
f 2/2/2 6/6/6 3/3/3
f 5/5/5 7/7/7 8/8/8
f 5/5/5 8/8/8 6/6/6
f 7/7/7 9/9/9 10/10/10
f 7/7/7 10/10/10 8/8/8
f 9/9/9 11/11/11 12/12/12
f 9/9/9 12/12/12 10/10/10
f 11/11/11 13/13/13 14/14/14
f 11/11/11 14/14/14 12/12/12
f 13/13/13 15/15/15 16/16/16
f 13/13/13 16/16/16 14/14/14
f 15/15/15 17/17/17 18/18/18
f 15/15/15 18/18/18 16/16/16
f 4/4/4 3/3/3 19/19/19
f 4/4/4 19/19/19 20/20/20
f 3/3/3 6/6/6 21/21/21
f 3/3/3 21/21/21 19/19/19
f 6/6/6 8/8/8 22/22/22
f 6/6/6 22/22/22 21/21/21
f 8/8/8 10/10/10 23/23/23
f 8/8/8 23/23/23 22/22/22
f 10/10/10 12/12/12 24/24/24
f 10/10/10 24/24/24 23/23/23
f 12/12/12 14/14/14 25/25/25
f 12/12/12 25/25/25 24/24/24
f 14/14/14 16/16/16 26/26/26
f 14/14/14 26/26/26 25/25/25
f 16/16/16 18/18/18 27/27/27
f 16/16/16 27/27/27 26/26/26
f 20/20/20 19/19/19 28/28/28
f 20/20/20 28/28/28 29/29/29
f 19/19/19 21/21/21 30/30/30
f 19/19/19 30/30/30 28/28/28
f 21/21/21 22/22/22 31/31/31
f 21/21/21 31/31/31 30/30/30
f 22/22/22 23/23/23 32/32/32
f 22/22/22 32/32/32 31/31/31
f 23/23/23 24/24/24 33/33/33
f 23/23/23 33/33/33 32/32/32
f 24/24/24 25/25/25 34/34/34
f 24/24/24 34/34/34 33/33/33
f 25/25/25 26/26/26 35/35/35
f 25/25/25 35/35/35 34/34/34
f 26/26/26 27/27/27 36/36/36
f 26/26/26 36/36/36 35/35/35
f 29/29/29 28/28/28 37/37/37
f 29/29/29 37/37/37 38/38/38
f 28/28/28 30/30/30 39/39/39
f 28/28/28 39/39/39 37/37/37
f 30/30/30 31/31/31 40/40/40
f 30/30/30 40/40/40 39/39/39
f 31/31/31 32/32/32 41/41/41
f 31/31/31 41/41/41 40/40/40
f 32/32/32 33/33/33 42/42/42
f 32/32/32 42/42/42 41/41/41
f 33/33/33 34/34/34 43/43/43
f 33/33/33 43/43/43 42/42/42
f 34/34/34 35/35/35 44/44/44
f 34/34/34 44/44/44 43/43/43
f 35/35/35 36/36/36 45/45/45
f 35/35/35 45/45/45 44/44/44
f 38/38/38 37/37/37 46/46/46
f 38/38/38 46/46/46 47/47/47
f 37/37/37 39/39/39 48/48/48
f 37/37/37 48/48/48 46/46/46
f 39/39/39 40/40/40 49/49/49
f 39/39/39 49/49/49 48/48/48
f 40/40/40 41/41/41 50/50/50
f 40/40/40 50/50/50 49/49/49
f 41/41/41 42/42/42 51/51/51
f 41/41/41 51/51/51 50/50/50
f 42/42/42 43/43/43 52/52/52
f 42/42/42 52/52/52 51/51/51
f 43/43/43 44/44/44 53/53/53
f 43/43/43 53/53/53 52/52/52
f 44/44/44 45/45/45 54/54/54
f 44/44/44 54/54/54 53/53/53
f 47/47/47 46/46/46 55/55/55
f 47/47/47 55/55/55 56/56/56
f 46/46/46 48/48/48 57/57/57
f 46/46/46 57/57/57 55/55/55
f 48/48/48 49/49/49 58/58/58
f 48/48/48 58/58/58 57/57/57
f 49/49/49 50/50/50 59/59/59
f 49/49/49 59/59/59 58/58/58
f 50/50/50 51/51/51 60/60/60
f 50/50/50 60/60/60 59/59/59
f 51/51/51 52/52/52 61/61/61
f 51/51/51 61/61/61 60/60/60
f 52/52/52 53/53/53 62/62/62
f 52/52/52 62/62/62 61/61/61
f 53/53/53 54/54/54 63/63/63
f 53/53/53 63/63/63 62/62/62
f 56/56/56 55/55/55 64/64/64
f 56/56/56 64/64/64 65/65/65
f 55/55/55 57/57/57 66/66/66
f 55/55/55 66/66/66 64/64/64
f 57/57/57 58/58/58 67/67/67
f 57/57/57 67/67/67 66/66/66
f 58/58/58 59/59/59 68/68/68
f 58/58/58 68/68/68 67/67/67
f 59/59/59 60/60/60 69/69/69
f 59/59/59 69/69/69 68/68/68
f 60/60/60 61/61/61 70/70/70
f 60/60/60 70/70/70 69/69/69
f 61/61/61 62/62/62 71/71/71
f 61/61/61 71/71/71 70/70/70
f 62/62/62 63/63/63 72/72/72
f 62/62/62 72/72/72 71/71/71
f 65/65/65 64/64/64 73/73/73
f 65/65/65 73/73/73 74/74/74
f 64/64/64 66/66/66 75/75/75
f 64/64/64 75/75/75 73/73/73
f 66/66/66 67/67/67 76/76/76
f 66/66/66 76/76/76 75/75/75
f 67/67/67 68/68/68 77/77/77
f 67/67/67 77/77/77 76/76/76
f 68/68/68 69/69/69 78/78/78
f 68/68/68 78/78/78 77/77/77
f 69/69/69 70/70/70 79/79/79
f 69/69/69 79/79/79 78/78/78
f 70/70/70 71/71/71 80/80/80
f 70/70/70 80/80/80 79/79/79
f 71/71/71 72/72/72 81/81/81
f 71/71/71 81/81/81 80/80/80
