# F09-R: open authoring surface, head-local metres, NOT a complete or runtime face
o F09-R
v -0.0360000000 -0.0470000000 0.1180000000
v -0.0439062500 -0.0478867187 0.1134609375
v -0.0427950077 -0.0509604435 0.1146330395
v -0.0353720703 -0.0497060547 0.1188515625
v -0.0523750000 -0.0490312500 0.1068125000
v -0.0507234650 -0.0524973297 0.1082986298
v -0.0610312500 -0.0504101562 0.0983828125
v -0.0588043804 -0.0542797832 0.1001641788
v -0.0695000000 -0.0520000000 0.0885000000
v -0.0666846924 -0.0562708740 0.0905455322
v -0.0774062500 -0.0537773437 0.0774921875
v -0.0740113392 -0.0584336720 0.0797585354
v -0.0843750000 -0.0557187500 0.0656875000
v -0.0804312592 -0.0607312469 0.0681190338
v -0.0900312500 -0.0578007812 0.0534140625
v -0.0855913906 -0.0631266689 0.0559428730
v -0.0940000000 -0.0600000000 0.0410000000
v -0.0891386719 -0.0655830078 0.0435458984
v -0.0416969147 -0.0535049591 0.1163109589
v -0.0349765625 -0.0517734375 0.1199687500
v -0.0488399658 -0.0555343018 0.1105594482
v -0.0560915985 -0.0578069916 0.1029972076
v -0.0631376953 -0.0602685547 0.0939072266
v -0.0696641388 -0.0628645172 0.0835724945
v -0.0753568115 -0.0655404053 0.0722760010
v -0.0799015961 -0.0682417450 0.0603007355
v -0.0829843750 -0.0709140625 0.0479296875
v -0.0404703045 -0.0555925579 0.1183269596
v -0.0346083984 -0.0533134766 0.1212578125
v -0.0466553802 -0.0581774139 0.1133454742
v -0.0529003086 -0.0609934177 0.1065488873
v -0.0589417725 -0.0639659424 0.0981727295
v -0.0645164547 -0.0670203609 0.0884525318
v -0.0693610382 -0.0700820465 0.0776238251
v -0.0732122059 -0.0730763721 0.0659221401
v -0.0758066406 -0.0759287109 0.0535830078
v -0.0389735107 -0.0572955322 0.1205133057
v -0.0340625000 -0.0544375000 0.1226250000
v -0.0441005859 -0.0604619141 0.1164072266
v -0.0492379150 -0.0638406982 0.1104862061
v -0.0541796875 -0.0673359375 0.1029296875
v -0.0587200928 -0.0708516846 0.0939171143
v -0.0626533203 -0.0742919922 0.0836279297
v -0.0657735596 -0.0775609131 0.0722415771
v -0.0678750000 -0.0805625000 0.0599375000
v -0.0370648670 -0.0586861744 0.1227022610
v -0.0331337891 -0.0552568359 0.1239765625
v -0.0411064606 -0.0624230499 0.1194952240
v -0.0451118221 -0.0663504696 0.1144761524
v -0.0489342041 -0.0703514404 0.1077657471
v -0.0524268589 -0.0743089695 0.0994847088
v -0.0554430389 -0.0781060638 0.0897537384
v -0.0578359966 -0.0816257305 0.0786935368
v -0.0594589844 -0.0847509766 0.0664248047
v -0.0346027069 -0.0598367767 0.1247260895
v -0.0316171875 -0.0558828125 0.1252187500
v -0.0376038818 -0.0640960693 0.1223599854
v -0.0405294342 -0.0685243683 0.1181857147
v -0.0432880859 -0.0729853516 0.1122685547
v -0.0457885590 -0.0773426971 0.1046737823
v -0.0479395752 -0.0814600830 0.0954666748
v -0.0496498566 -0.0852011871 0.0847125092
v -0.0508281250 -0.0884296875 0.0724765625
v -0.0314453640 -0.0608196316 0.1264170551
v -0.0293076172 -0.0564267578 0.1262578125
v -0.0335237274 -0.0655162201 0.1247520294
v -0.0354981556 -0.0703640308 0.1212818813
v -0.0373240967 -0.0752105713 0.1160257568
v -0.0389569988 -0.0799033489 0.1090028019
v -0.0403523102 -0.0842898712 0.1002321625
v -0.0414654789 -0.0882176456 0.0897329845
v -0.0422519531 -0.0915341797 0.0775244141
v -0.0274511719 -0.0617070313 0.1276074219
v -0.0260000000 -0.0570000000 0.1270000000
v -0.0287968750 -0.0667187500 0.1264218750
v -0.0300253906 -0.0718710938 0.1234316406
v -0.0311250000 -0.0770000000 0.1186250000
v -0.0320839844 -0.0819414063 0.1119902344
v -0.0328906250 -0.0865312500 0.1035156250
v -0.0335332031 -0.0906054688 0.0931894531
v -0.0340000000 -0.0940000000 0.0810000000
vt 0.0000000000 0.2857142857
vt 0.1250000000 0.2857142857
vt 0.1250000000 0.3035714286
vt 0.0000000000 0.3035714286
vt 0.2500000000 0.2857142857
vt 0.2500000000 0.3035714286
vt 0.3750000000 0.2857142857
vt 0.3750000000 0.3035714286
vt 0.5000000000 0.2857142857
vt 0.5000000000 0.3035714286
vt 0.6250000000 0.2857142857
vt 0.6250000000 0.3035714286
vt 0.7500000000 0.2857142857
vt 0.7500000000 0.3035714286
vt 0.8750000000 0.2857142857
vt 0.8750000000 0.3035714286
vt 1.0000000000 0.2857142857
vt 1.0000000000 0.3035714286
vt 0.1250000000 0.3214285714
vt 0.0000000000 0.3214285714
vt 0.2500000000 0.3214285714
vt 0.3750000000 0.3214285714
vt 0.5000000000 0.3214285714
vt 0.6250000000 0.3214285714
vt 0.7500000000 0.3214285714
vt 0.8750000000 0.3214285714
vt 1.0000000000 0.3214285714
vt 0.1250000000 0.3392857143
vt 0.0000000000 0.3392857143
vt 0.2500000000 0.3392857143
vt 0.3750000000 0.3392857143
vt 0.5000000000 0.3392857143
vt 0.6250000000 0.3392857143
vt 0.7500000000 0.3392857143
vt 0.8750000000 0.3392857143
vt 1.0000000000 0.3392857143
vt 0.1250000000 0.3571428571
vt 0.0000000000 0.3571428571
vt 0.2500000000 0.3571428571
vt 0.3750000000 0.3571428571
vt 0.5000000000 0.3571428571
vt 0.6250000000 0.3571428571
vt 0.7500000000 0.3571428571
vt 0.8750000000 0.3571428571
vt 1.0000000000 0.3571428571
vt 0.1250000000 0.3750000000
vt 0.0000000000 0.3750000000
vt 0.2500000000 0.3750000000
vt 0.3750000000 0.3750000000
vt 0.5000000000 0.3750000000
vt 0.6250000000 0.3750000000
vt 0.7500000000 0.3750000000
vt 0.8750000000 0.3750000000
vt 1.0000000000 0.3750000000
vt 0.1250000000 0.3928571429
vt 0.0000000000 0.3928571429
vt 0.2500000000 0.3928571429
vt 0.3750000000 0.3928571429
vt 0.5000000000 0.3928571429
vt 0.6250000000 0.3928571429
vt 0.7500000000 0.3928571429
vt 0.8750000000 0.3928571429
vt 1.0000000000 0.3928571429
vt 0.1250000000 0.4107142857
vt 0.0000000000 0.4107142857
vt 0.2500000000 0.4107142857
vt 0.3750000000 0.4107142857
vt 0.5000000000 0.4107142857
vt 0.6250000000 0.4107142857
vt 0.7500000000 0.4107142857
vt 0.8750000000 0.4107142857
vt 1.0000000000 0.4107142857
vt 0.1250000000 0.4285714286
vt 0.0000000000 0.4285714286
vt 0.2500000000 0.4285714286
vt 0.3750000000 0.4285714286
vt 0.5000000000 0.4285714286
vt 0.6250000000 0.4285714286
vt 0.7500000000 0.4285714286
vt 0.8750000000 0.4285714286
vt 1.0000000000 0.4285714286
vn -0.4162878002 0.0926083011 0.9045043781
vn -0.5661659195 0.0154249343 0.8241469669
vn -0.5801226758 0.1875332700 0.7926468026
vn -0.4180936749 0.2805320554 0.8640019936
vn -0.6535716653 -0.0685523731 0.7537537067
vn -0.6765391871 0.0666931321 0.7333803614
vn -0.7089706364 -0.1526072107 0.6885286312
vn -0.7354330709 -0.0602122171 0.6749168001
vn -0.7459940007 -0.2335191121 0.6236680007
vn -0.7691807068 -0.1838093654 0.6120254549
vn -0.7716503896 -0.3100327392 0.5553695858
vn -0.7847570146 -0.2999116320 0.5424107678
vn -0.7897457841 -0.3820102774 0.4799684828
vn -0.7865360611 -0.4067771988 0.4646432342
vn -0.8020003438 -0.4497167615 0.3931288378
vn -0.7772603324 -0.5035705998 0.3772042241
vn -0.8081711807 -0.5130510457 0.2892022945
vn -0.7585434929 -0.5893336874 0.2780244129
vn -0.5906894681 0.3131980851 0.7436349318
vn -0.4197510405 0.4545894813 0.7855937038
vn -0.6945643715 0.1425415253 0.7051682405
vn -0.7539042303 -0.0282012867 0.6563787771
vn -0.7809621377 -0.1871216648 0.5958889342
vn -0.7844462214 -0.3297519389 0.5252692496
vn -0.7706355760 -0.4550357711 0.4461650547
vn -0.7440219347 -0.5631234445 0.3596155544
vn -0.7079842588 -0.6542322817 0.2659669357
vn -0.6100440545 0.3628975627 0.7043803025
vn -0.4393555062 0.5693855103 0.6948142773
vn -0.7127330747 0.1443546835 0.6864206361
vn -0.7640686870 -0.0590252080 0.6424290360
vn -0.7788177980 -0.2374157967 0.5805829630
vn -0.7685316070 -0.3896544324 0.5074727504
vn -0.7412352226 -0.5177389708 0.4272197361
vn -0.7023732149 -0.6241564123 0.3421997078
vn -0.6559064815 -0.7109240673 0.2537196448
vn -0.6317933587 0.3248066865 0.7038023645
vn -0.4775262428 0.5886762034 0.6522491970
vn -0.7204958098 0.0745930540 0.6894357580
vn -0.7562318049 -0.1411684427 0.6388935185
vn -0.7566945467 -0.3199606700 0.5701215069
vn -0.7347502104 -0.4664419635 0.4925180434
vn -0.6984538310 -0.5861152078 0.4106473051
vn -0.6528649579 -0.6833678858 0.3267654809
vn -0.6015188422 -0.7612919823 0.2420941967
vn -0.6194339175 0.2159774730 0.7547551610
vn -0.4823340237 0.5114891024 0.7111489209
vn -0.6938648570 -0.0421861731 0.7188684768
vn -0.7174920572 -0.2507104818 0.6498841452
vn -0.7093638168 -0.4161136698 0.5689045519
vn -0.6819910108 -0.5480061482 0.4843320377
vn -0.6425882279 -0.6539529221 0.3992817865
vn -0.5954764530 -0.7390591907 0.3149592141
vn -0.5436239228 -0.8066367218 0.2319703206
vn -0.5329654265 0.0950546901 0.8407808633
vn -0.3869245037 0.4062893469 0.8277791946
vn -0.6127148432 -0.1631044407 0.7732900247
vn -0.6391138547 -0.3603287583 0.6794826463
vn -0.6332895901 -0.5103698750 0.5817790695
vn -0.6085209482 -0.6267226035 0.4867453481
vn -0.5721318340 -0.7184503044 0.3955936357
vn -0.5283594430 -0.7911114364 0.3081866223
vn -0.4800242796 -0.8481023902 0.2242744450
vn -0.3772265188 0.0214389246 0.9258728455
vn -0.2283424530 0.3508898580 0.9081497849
vn -0.4732064508 -0.2517626362 0.8442104180
vn -0.5152264319 -0.4512328014 0.7286499041
vn -0.5220267018 -0.5944589899 0.6116425688
vn -0.5078397749 -0.6998908200 0.5022465560
vn -0.4809310347 -0.7795527429 0.4012516180
vn -0.4460913993 -0.8404886363 0.3075407546
vn -0.4064057685 -0.8868162398 0.2199802448
vn -0.1947994136 -0.0018035622 0.9808414427
vn -0.0812792611 0.3394604436 0.9371020696
vn -0.2852383421 -0.2997098802 0.9103917156
vn -0.3381558768 -0.5167287372 0.7865379935
vn -0.3609570057 -0.6650232704 0.6537997322
vn -0.3638927907 -0.7665754832 0.5290974063
vn -0.3542421833 -0.8375842548 0.4158907209
vn -0.3366240988 -0.8879544675 0.3134024245
vn -0.3140857163 -0.9235368081 0.2200680052
f 1/1/1 2/2/2 3/3/3
f 1/1/1 3/3/3 4/4/4
f 2/2/2 5/5/5 6/6/6
f 2/2/2 6/6/6 3/3/3
f 5/5/5 7/7/7 8/8/8
f 5/5/5 8/8/8 6/6/6
f 7/7/7 9/9/9 10/10/10
f 7/7/7 10/10/10 8/8/8
f 9/9/9 11/11/11 12/12/12
f 9/9/9 12/12/12 10/10/10
f 11/11/11 13/13/13 14/14/14
f 11/11/11 14/14/14 12/12/12
f 13/13/13 15/15/15 16/16/16
f 13/13/13 16/16/16 14/14/14
f 15/15/15 17/17/17 18/18/18
f 15/15/15 18/18/18 16/16/16
f 4/4/4 3/3/3 19/19/19
f 4/4/4 19/19/19 20/20/20
f 3/3/3 6/6/6 21/21/21
f 3/3/3 21/21/21 19/19/19
f 6/6/6 8/8/8 22/22/22
f 6/6/6 22/22/22 21/21/21
f 8/8/8 10/10/10 23/23/23
f 8/8/8 23/23/23 22/22/22
f 10/10/10 12/12/12 24/24/24
f 10/10/10 24/24/24 23/23/23
f 12/12/12 14/14/14 25/25/25
f 12/12/12 25/25/25 24/24/24
f 14/14/14 16/16/16 26/26/26
f 14/14/14 26/26/26 25/25/25
f 16/16/16 18/18/18 27/27/27
f 16/16/16 27/27/27 26/26/26
f 20/20/20 19/19/19 28/28/28
f 20/20/20 28/28/28 29/29/29
f 19/19/19 21/21/21 30/30/30
f 19/19/19 30/30/30 28/28/28
f 21/21/21 22/22/22 31/31/31
f 21/21/21 31/31/31 30/30/30
f 22/22/22 23/23/23 32/32/32
f 22/22/22 32/32/32 31/31/31
f 23/23/23 24/24/24 33/33/33
f 23/23/23 33/33/33 32/32/32
f 24/24/24 25/25/25 34/34/34
f 24/24/24 34/34/34 33/33/33
f 25/25/25 26/26/26 35/35/35
f 25/25/25 35/35/35 34/34/34
f 26/26/26 27/27/27 36/36/36
f 26/26/26 36/36/36 35/35/35
f 29/29/29 28/28/28 37/37/37
f 29/29/29 37/37/37 38/38/38
f 28/28/28 30/30/30 39/39/39
f 28/28/28 39/39/39 37/37/37
f 30/30/30 31/31/31 40/40/40
f 30/30/30 40/40/40 39/39/39
f 31/31/31 32/32/32 41/41/41
f 31/31/31 41/41/41 40/40/40
f 32/32/32 33/33/33 42/42/42
f 32/32/32 42/42/42 41/41/41
f 33/33/33 34/34/34 43/43/43
f 33/33/33 43/43/43 42/42/42
f 34/34/34 35/35/35 44/44/44
f 34/34/34 44/44/44 43/43/43
f 35/35/35 36/36/36 45/45/45
f 35/35/35 45/45/45 44/44/44
f 38/38/38 37/37/37 46/46/46
f 38/38/38 46/46/46 47/47/47
f 37/37/37 39/39/39 48/48/48
f 37/37/37 48/48/48 46/46/46
f 39/39/39 40/40/40 49/49/49
f 39/39/39 49/49/49 48/48/48
f 40/40/40 41/41/41 50/50/50
f 40/40/40 50/50/50 49/49/49
f 41/41/41 42/42/42 51/51/51
f 41/41/41 51/51/51 50/50/50
f 42/42/42 43/43/43 52/52/52
f 42/42/42 52/52/52 51/51/51
f 43/43/43 44/44/44 53/53/53
f 43/43/43 53/53/53 52/52/52
f 44/44/44 45/45/45 54/54/54
f 44/44/44 54/54/54 53/53/53
f 47/47/47 46/46/46 55/55/55
f 47/47/47 55/55/55 56/56/56
f 46/46/46 48/48/48 57/57/57
f 46/46/46 57/57/57 55/55/55
f 48/48/48 49/49/49 58/58/58
f 48/48/48 58/58/58 57/57/57
f 49/49/49 50/50/50 59/59/59
f 49/49/49 59/59/59 58/58/58
f 50/50/50 51/51/51 60/60/60
f 50/50/50 60/60/60 59/59/59
f 51/51/51 52/52/52 61/61/61
f 51/51/51 61/61/61 60/60/60
f 52/52/52 53/53/53 62/62/62
f 52/52/52 62/62/62 61/61/61
f 53/53/53 54/54/54 63/63/63
f 53/53/53 63/63/63 62/62/62
f 56/56/56 55/55/55 64/64/64
f 56/56/56 64/64/64 65/65/65
f 55/55/55 57/57/57 66/66/66
f 55/55/55 66/66/66 64/64/64
f 57/57/57 58/58/58 67/67/67
f 57/57/57 67/67/67 66/66/66
f 58/58/58 59/59/59 68/68/68
f 58/58/58 68/68/68 67/67/67
f 59/59/59 60/60/60 69/69/69
f 59/59/59 69/69/69 68/68/68
f 60/60/60 61/61/61 70/70/70
f 60/60/60 70/70/70 69/69/69
f 61/61/61 62/62/62 71/71/71
f 61/61/61 71/71/71 70/70/70
f 62/62/62 63/63/63 72/72/72
f 62/62/62 72/72/72 71/71/71
f 65/65/65 64/64/64 73/73/73
f 65/65/65 73/73/73 74/74/74
f 64/64/64 66/66/66 75/75/75
f 64/64/64 75/75/75 73/73/73
f 66/66/66 67/67/67 76/76/76
f 66/66/66 76/76/76 75/75/75
f 67/67/67 68/68/68 77/77/77
f 67/67/67 77/77/77 76/76/76
f 68/68/68 69/69/69 78/78/78
f 68/68/68 78/78/78 77/77/77
f 69/69/69 70/70/70 79/79/79
f 69/69/69 79/79/79 78/78/78
f 70/70/70 71/71/71 80/80/80
f 70/70/70 80/80/80 79/79/79
f 71/71/71 72/72/72 81/81/81
f 71/71/71 81/81/81 80/80/80
