# F11: open authoring surface, head-local metres, NOT a complete or runtime face
o F11
v -0.0260000000 -0.0570000000 0.1270000000
v -0.0274511719 -0.0617070313 0.1276074219
v -0.0221653175 -0.0624628296 0.1283810577
v -0.0212226562 -0.0575468750 0.1274921875
v -0.0287968750 -0.0667187500 0.1264218750
v -0.0229928284 -0.0676860352 0.1274942627
v -0.0300253906 -0.0718710938 0.1234316406
v -0.0237103386 -0.0730447388 0.1248014984
v -0.0311250000 -0.0770000000 0.1186250000
v -0.0243229980 -0.0783671875 0.1202724609
v -0.0320839844 -0.0819414063 0.1119902344
v -0.0248359566 -0.0834816284 0.1138768463
v -0.0328906250 -0.0865312500 0.1035156250
v -0.0252543640 -0.0882163086 0.1055843506
v -0.0335332031 -0.0906054688 0.0931894531
v -0.0255833702 -0.0923994751 0.0953646698
v -0.0340000000 -0.0940000000 0.0810000000
v -0.0258281250 -0.0958593750 0.0831875000
v -0.0155278015 -0.0630026855 0.1289336548
v -0.0149687500 -0.0579375000 0.1278437500
v -0.0159929199 -0.0683769531 0.1282602539
v -0.0163741760 -0.0738830566 0.1257799683
v -0.0166816406 -0.0793437500 0.1214492188
v -0.0169253845 -0.0845817871 0.1152244263
v -0.0171154785 -0.0894199219 0.1070620117
v -0.0172619934 -0.0936809082 0.0969183960
v -0.0173750000 -0.0971875000 0.0847500000
v -0.0079891777 -0.0633265991 0.1292652130
v -0.0077304688 -0.0581718750 0.1280546875
v -0.0081957703 -0.0687915039 0.1287198486
v -0.0083572731 -0.0743860474 0.1263670502
v -0.0084807129 -0.0799296875 0.1221552734
v -0.0085731163 -0.0852418823 0.1160329742
v -0.0086415100 -0.0901420898 0.1079486084
v -0.0086929207 -0.0944497681 0.0978506317
v -0.0087343750 -0.0979843750 0.0856875000
v -0.0000000000 -0.0634345703 0.1293757324
v 0.0000000000 -0.0582500000 0.1281250000
v -0.0000000000 -0.0689296875 0.1288730469
v -0.0000000000 -0.0745537109 0.1265627441
v 0.0000000000 -0.0801250000 0.1223906250
v 0.0000000000 -0.0854619141 0.1163024902
v -0.0000000000 -0.0903828125 0.1082441406
v -0.0000000000 -0.0947060547 0.0981613770
v 0.0000000000 -0.0982500000 0.0860000000
v 0.0079891777 -0.0633265991 0.1292652130
v 0.0077304688 -0.0581718750 0.1280546875
v 0.0081957703 -0.0687915039 0.1287198486
v 0.0083572731 -0.0743860474 0.1263670502
v 0.0084807129 -0.0799296875 0.1221552734
v 0.0085731163 -0.0852418823 0.1160329742
v 0.0086415100 -0.0901420898 0.1079486084
v 0.0086929207 -0.0944497681 0.0978506317
v 0.0087343750 -0.0979843750 0.0856875000
v 0.0155278015 -0.0630026855 0.1289336548
v 0.0149687500 -0.0579375000 0.1278437500
v 0.0159929199 -0.0683769531 0.1282602539
v 0.0163741760 -0.0738830566 0.1257799683
v 0.0166816406 -0.0793437500 0.1214492188
v 0.0169253845 -0.0845817871 0.1152244263
v 0.0171154785 -0.0894199219 0.1070620117
v 0.0172619934 -0.0936809082 0.0969183960
v 0.0173750000 -0.0971875000 0.0847500000
v 0.0221653175 -0.0624628296 0.1283810577
v 0.0212226562 -0.0575468750 0.1274921875
v 0.0229928284 -0.0676860352 0.1274942627
v 0.0237103386 -0.0730447388 0.1248014984
v 0.0243229980 -0.0783671875 0.1202724609
v 0.0248359566 -0.0834816284 0.1138768463
v 0.0252543640 -0.0882163086 0.1055843506
v 0.0255833702 -0.0923994751 0.0953646698
v 0.0258281250 -0.0958593750 0.0831875000
v 0.0274511719 -0.0617070313 0.1276074219
v 0.0260000000 -0.0570000000 0.1270000000
v 0.0287968750 -0.0667187500 0.1264218750
v 0.0300253906 -0.0718710938 0.1234316406
v 0.0311250000 -0.0770000000 0.1186250000
v 0.0320839844 -0.0819414063 0.1119902344
v 0.0328906250 -0.0865312500 0.1035156250
v 0.0335332031 -0.0906054688 0.0931894531
v 0.0340000000 -0.0940000000 0.0810000000
vt 0.0000000000 0.4285714286
vt 0.1250000000 0.4285714286
vt 0.1250000000 0.4464285714
vt 0.0000000000 0.4464285714
vt 0.2500000000 0.4285714286
vt 0.2500000000 0.4464285714
vt 0.3750000000 0.4285714286
vt 0.3750000000 0.4464285714
vt 0.5000000000 0.4285714286
vt 0.5000000000 0.4464285714
vt 0.6250000000 0.4285714286
vt 0.6250000000 0.4464285714
vt 0.7500000000 0.4285714286
vt 0.7500000000 0.4464285714
vt 0.8750000000 0.4285714286
vt 0.8750000000 0.4464285714
vt 1.0000000000 0.4285714286
vt 1.0000000000 0.4464285714
vt 0.1250000000 0.4642857143
vt 0.0000000000 0.4642857143
vt 0.2500000000 0.4642857143
vt 0.3750000000 0.4642857143
vt 0.5000000000 0.4642857143
vt 0.6250000000 0.4642857143
vt 0.7500000000 0.4642857143
vt 0.8750000000 0.4642857143
vt 1.0000000000 0.4642857143
vt 0.1250000000 0.4821428571
vt 0.0000000000 0.4821428571
vt 0.2500000000 0.4821428571
vt 0.3750000000 0.4821428571
vt 0.5000000000 0.4821428571
vt 0.6250000000 0.4821428571
vt 0.7500000000 0.4821428571
vt 0.8750000000 0.4821428571
vt 1.0000000000 0.4821428571
vt 0.1250000000 0.5000000000
vt 0.0000000000 0.5000000000
vt 0.2500000000 0.5000000000
vt 0.3750000000 0.5000000000
vt 0.5000000000 0.5000000000
vt 0.6250000000 0.5000000000
vt 0.7500000000 0.5000000000
vt 0.8750000000 0.5000000000
vt 1.0000000000 0.5000000000
vt 0.1250000000 0.5178571429
vt 0.0000000000 0.5178571429
vt 0.2500000000 0.5178571429
vt 0.3750000000 0.5178571429
vt 0.5000000000 0.5178571429
vt 0.6250000000 0.5178571429
vt 0.7500000000 0.5178571429
vt 0.8750000000 0.5178571429
vt 1.0000000000 0.5178571429
vt 0.1250000000 0.5357142857
vt 0.0000000000 0.5357142857
vt 0.2500000000 0.5357142857
vt 0.3750000000 0.5357142857
vt 0.5000000000 0.5357142857
vt 0.6250000000 0.5357142857
vt 0.7500000000 0.5357142857
vt 0.8750000000 0.5357142857
vt 1.0000000000 0.5357142857
vt 0.1250000000 0.5535714286
vt 0.0000000000 0.5535714286
vt 0.2500000000 0.5535714286
vt 0.3750000000 0.5535714286
vt 0.5000000000 0.5535714286
vt 0.6250000000 0.5535714286
vt 0.7500000000 0.5535714286
vt 0.8750000000 0.5535714286
vt 1.0000000000 0.5535714286
vt 0.1250000000 0.5714285714
vt 0.0000000000 0.5714285714
vt 0.2500000000 0.5714285714
vt 0.3750000000 0.5714285714
vt 0.5000000000 0.5714285714
vt 0.6250000000 0.5714285714
vt 0.7500000000 0.5714285714
vt 0.8750000000 0.5714285714
vt 1.0000000000 0.5714285714
vn -0.0812792611 0.3394604436 0.9371020696
vn -0.1947994136 -0.0018035622 0.9808414427
vn -0.1070727819 0.0197576942 0.9940548541
vn -0.0402453720 0.3587219919 0.9325764540
vn -0.2852383421 -0.2997098802 0.9103917156
vn -0.1710627504 -0.2909960722 0.9413069751
vn -0.3381558768 -0.5167287372 0.7865379935
vn -0.2171561813 -0.5255605562 0.8225747958
vn -0.3609570057 -0.6650232704 0.6537997322
vn -0.2437797923 -0.6864424412 0.6851045087
vn -0.3638927907 -0.7665754832 0.5290974063
vn -0.2548280489 -0.7939572080 0.5519915012
vn -0.3542421833 -0.8375842548 0.4158907209
vn -0.2544365768 -0.8660531507 0.4303649248
vn -0.3366240988 -0.8879544675 0.3134024245
vn -0.2457988885 -0.9146633369 0.3208954448
vn -0.3140857163 -0.9235368081 0.2200680052
vn -0.2313124431 -0.9471291991 0.2223529487
vn -0.0587288925 0.0466510245 0.9971833327
vn -0.0209324983 0.3762708204 0.9262732319
vn -0.0984883439 -0.2674652300 0.9585209423
vn -0.1304030891 -0.5143658421 0.8475982626
vn -0.1513206369 -0.6878715611 0.7098836385
vn -0.1621278498 -0.8041343293 0.5719113050
vn -0.1647306247 -0.8807630503 0.4439822862
vn -0.1609333646 -0.9306822670 0.3285284921
vn -0.1522757139 -0.9623685224 0.2250753965
vn -0.0263409905 0.0648759328 0.9975456208
vn -0.0091404852 0.3871473134 0.9219725642
vn -0.0453022224 -0.2491542334 0.9674036782
vn -0.0613850029 -0.5026276198 0.8623209131
vn -0.0725888948 -0.6843189384 0.7255607782
vn -0.0788967718 -0.8070678656 0.5851638742
vn -0.0809871596 -0.8876212301 0.4533978736
vn -0.0796362274 -0.9392063544 0.3339902619
vn -0.0755776451 -0.9709272566 0.2271305393
vn -0.0000000000 0.0711503695 0.9974656009
vn -0.0000000000 0.3907728445 0.9204871449
vn -0.0000000000 -0.2425356250 0.9701425001
vn 0.0000000000 -0.4980215524 0.8671646518
vn -0.0000000000 -0.6824851656 0.7308994451
vn -0.0000000000 -0.8075613716 0.5897835460
vn -0.0000000000 -0.8896017625 0.4567370187
vn -0.0000000000 -0.9418780643 0.3359549255
vn -0.0000000000 -0.9736881788 0.2278844674
vn 0.0263409905 0.0648759328 0.9975456208
vn 0.0091404852 0.3871473134 0.9219725642
vn 0.0453022224 -0.2491542334 0.9674036782
vn 0.0613850029 -0.5026276198 0.8623209131
vn 0.0725888948 -0.6843189384 0.7255607782
vn 0.0788967718 -0.8070678656 0.5851638742
vn 0.0809871596 -0.8876212301 0.4533978736
vn 0.0796362274 -0.9392063544 0.3339902619
vn 0.0755776451 -0.9709272566 0.2271305393
vn 0.0587288925 0.0466510245 0.9971833327
vn 0.0209324983 0.3762708204 0.9262732319
vn 0.0984883439 -0.2674652300 0.9585209423
vn 0.1304030891 -0.5143658421 0.8475982626
vn 0.1513206369 -0.6878715611 0.7098836385
vn 0.1621278498 -0.8041343293 0.5719113050
vn 0.1647306247 -0.8807630503 0.4439822862
vn 0.1609333646 -0.9306822670 0.3285284921
vn 0.1522757139 -0.9623685224 0.2250753965
vn 0.1070727819 0.0197576942 0.9940548541
vn 0.0402453720 0.3587219919 0.9325764540
vn 0.1710627504 -0.2909960722 0.9413069751
vn 0.2171561813 -0.5255605562 0.8225747958
vn 0.2437797923 -0.6864424412 0.6851045087
vn 0.2548280489 -0.7939572080 0.5519915012
vn 0.2544365768 -0.8660531507 0.4303649248
vn 0.2457988885 -0.9146633369 0.3208954448
vn 0.2313124431 -0.9471291991 0.2223529487
vn 0.1947994136 -0.0018035622 0.9808414427
vn 0.0812792611 0.3394604436 0.9371020696
vn 0.2852383421 -0.2997098802 0.9103917156
vn 0.3381558768 -0.5167287372 0.7865379935
vn 0.3609570057 -0.6650232704 0.6537997322
vn 0.3638927907 -0.7665754832 0.5290974063
vn 0.3542421833 -0.8375842548 0.4158907209
vn 0.3366240988 -0.8879544675 0.3134024245
vn 0.3140857163 -0.9235368081 0.2200680052
f 1/1/1 2/2/2 3/3/3
f 1/1/1 3/3/3 4/4/4
f 2/2/2 5/5/5 6/6/6
f 2/2/2 6/6/6 3/3/3
f 5/5/5 7/7/7 8/8/8
f 5/5/5 8/8/8 6/6/6
f 7/7/7 9/9/9 10/10/10
f 7/7/7 10/10/10 8/8/8
f 9/9/9 11/11/11 12/12/12
f 9/9/9 12/12/12 10/10/10
f 11/11/11 13/13/13 14/14/14
f 11/11/11 14/14/14 12/12/12
f 13/13/13 15/15/15 16/16/16
f 13/13/13 16/16/16 14/14/14
f 15/15/15 17/17/17 18/18/18
f 15/15/15 18/18/18 16/16/16
f 4/4/4 3/3/3 19/19/19
f 4/4/4 19/19/19 20/20/20
f 3/3/3 6/6/6 21/21/21
f 3/3/3 21/21/21 19/19/19
f 6/6/6 8/8/8 22/22/22
f 6/6/6 22/22/22 21/21/21
f 8/8/8 10/10/10 23/23/23
f 8/8/8 23/23/23 22/22/22
f 10/10/10 12/12/12 24/24/24
f 10/10/10 24/24/24 23/23/23
f 12/12/12 14/14/14 25/25/25
f 12/12/12 25/25/25 24/24/24
f 14/14/14 16/16/16 26/26/26
f 14/14/14 26/26/26 25/25/25
f 16/16/16 18/18/18 27/27/27
f 16/16/16 27/27/27 26/26/26
f 20/20/20 19/19/19 28/28/28
f 20/20/20 28/28/28 29/29/29
f 19/19/19 21/21/21 30/30/30
f 19/19/19 30/30/30 28/28/28
f 21/21/21 22/22/22 31/31/31
f 21/21/21 31/31/31 30/30/30
f 22/22/22 23/23/23 32/32/32
f 22/22/22 32/32/32 31/31/31
f 23/23/23 24/24/24 33/33/33
f 23/23/23 33/33/33 32/32/32
f 24/24/24 25/25/25 34/34/34
f 24/24/24 34/34/34 33/33/33
f 25/25/25 26/26/26 35/35/35
f 25/25/25 35/35/35 34/34/34
f 26/26/26 27/27/27 36/36/36
f 26/26/26 36/36/36 35/35/35
f 29/29/29 28/28/28 37/37/37
f 29/29/29 37/37/37 38/38/38
f 28/28/28 30/30/30 39/39/39
f 28/28/28 39/39/39 37/37/37
f 30/30/30 31/31/31 40/40/40
f 30/30/30 40/40/40 39/39/39
f 31/31/31 32/32/32 41/41/41
f 31/31/31 41/41/41 40/40/40
f 32/32/32 33/33/33 42/42/42
f 32/32/32 42/42/42 41/41/41
f 33/33/33 34/34/34 43/43/43
f 33/33/33 43/43/43 42/42/42
f 34/34/34 35/35/35 44/44/44
f 34/34/34 44/44/44 43/43/43
f 35/35/35 36/36/36 45/45/45
f 35/35/35 45/45/45 44/44/44
f 38/38/38 37/37/37 46/46/46
f 38/38/38 46/46/46 47/47/47
f 37/37/37 39/39/39 48/48/48
f 37/37/37 48/48/48 46/46/46
f 39/39/39 40/40/40 49/49/49
f 39/39/39 49/49/49 48/48/48
f 40/40/40 41/41/41 50/50/50
f 40/40/40 50/50/50 49/49/49
f 41/41/41 42/42/42 51/51/51
f 41/41/41 51/51/51 50/50/50
f 42/42/42 43/43/43 52/52/52
f 42/42/42 52/52/52 51/51/51
f 43/43/43 44/44/44 53/53/53
f 43/43/43 53/53/53 52/52/52
f 44/44/44 45/45/45 54/54/54
f 44/44/44 54/54/54 53/53/53
f 47/47/47 46/46/46 55/55/55
f 47/47/47 55/55/55 56/56/56
f 46/46/46 48/48/48 57/57/57
f 46/46/46 57/57/57 55/55/55
f 48/48/48 49/49/49 58/58/58
f 48/48/48 58/58/58 57/57/57
f 49/49/49 50/50/50 59/59/59
f 49/49/49 59/59/59 58/58/58
f 50/50/50 51/51/51 60/60/60
f 50/50/50 60/60/60 59/59/59
f 51/51/51 52/52/52 61/61/61
f 51/51/51 61/61/61 60/60/60
f 52/52/52 53/53/53 62/62/62
f 52/52/52 62/62/62 61/61/61
f 53/53/53 54/54/54 63/63/63
f 53/53/53 63/63/63 62/62/62
f 56/56/56 55/55/55 64/64/64
f 56/56/56 64/64/64 65/65/65
f 55/55/55 57/57/57 66/66/66
f 55/55/55 66/66/66 64/64/64
f 57/57/57 58/58/58 67/67/67
f 57/57/57 67/67/67 66/66/66
f 58/58/58 59/59/59 68/68/68
f 58/58/58 68/68/68 67/67/67
f 59/59/59 60/60/60 69/69/69
f 59/59/59 69/69/69 68/68/68
f 60/60/60 61/61/61 70/70/70
f 60/60/60 70/70/70 69/69/69
f 61/61/61 62/62/62 71/71/71
f 61/61/61 71/71/71 70/70/70
f 62/62/62 63/63/63 72/72/72
f 62/62/62 72/72/72 71/71/71
f 65/65/65 64/64/64 73/73/73
f 65/65/65 73/73/73 74/74/74
f 64/64/64 66/66/66 75/75/75
f 64/64/64 75/75/75 73/73/73
f 66/66/66 67/67/67 76/76/76
f 66/66/66 76/76/76 75/75/75
f 67/67/67 68/68/68 77/77/77
f 67/67/67 77/77/77 76/76/76
f 68/68/68 69/69/69 78/78/78
f 68/68/68 78/78/78 77/77/77
f 69/69/69 70/70/70 79/79/79
f 69/69/69 79/79/79 78/78/78
f 70/70/70 71/71/71 80/80/80
f 70/70/70 80/80/80 79/79/79
f 71/71/71 72/72/72 81/81/81
f 71/71/71 81/81/81 80/80/80
