# death-1s-explicit open surface prototype; metres; no material; not a finished garment
# Anatomical Right=-X; front=+Z; UV values are metres, not a texture atlas.
o death-1s-explicit
v -0.1554794268 0.0348470846 0.6399155847
v -0.1292877313 0.0140509911 0.6353605194
v -0.1006254952 0.0030312714 0.6317681097
v -0.0718749819 0.0030000000 0.6289259734
v -0.0444700576 0.0030596403 0.6262476493
v -0.0171326067 0.0030000000 0.6236174436
v 0.0114120251 0.0034004473 0.6207498030
v 0.0398929914 0.0155433505 0.6187816698
v 0.0661160102 0.0372263534 0.6180405849
v -0.1580926118 0.0429002920 0.5717090811
v -0.1311558754 0.0236359320 0.5673446008
v -0.1041580115 0.0099828477 0.5635268866
v -0.0766614822 0.0035637083 0.5603759420
v -0.0495252168 0.0032643361 0.5576894798
v -0.0224629294 0.0039619627 0.5550328897
v 0.0050962161 0.0103165932 0.5524993833
v 0.0320069282 0.0248098316 0.5509713160
v 0.0585566905 0.0452139558 0.5500641766
v -0.1604970705 0.0508499179 0.5034091775
v -0.1340245470 0.0316164144 0.4990634183
v -0.1074791321 0.0180412118 0.4952084824
v -0.0809469909 0.0101335450 0.4919263472
v -0.0544508193 0.0078685830 0.4890942819
v -0.0279889408 0.0106855785 0.4866160538
v -0.0014898663 0.0190518200 0.4846210307
v 0.0249704268 0.0332382080 0.4831558011
v 0.0513896154 0.0530803239 0.4822053303
v -0.1625966357 0.0590152571 0.4350491311
v -0.1367471987 0.0397033287 0.4307019614
v -0.1108359900 0.0260211866 0.4268451150
v -0.0849483369 0.0179484135 0.4235646729
v -0.0590763362 0.0154783676 0.4207802610
v -0.0332338143 0.0185430110 0.4184647094
v -0.0073914052 0.0271600543 0.4165995228
v 0.0184672353 0.0413606542 0.4152063798
v 0.0443266550 0.0611534931 0.4143329276
v -0.1643885244 0.0673380178 0.3666648716
v -0.1391710490 0.0480528079 0.3623436210
v -0.1139258621 0.0343594952 0.3585364193
v -0.0886922022 0.0262481528 0.3552921884
v -0.0634626023 0.0237447801 0.3525606479
v -0.0382518502 0.0268207794 0.3503144533
v -0.0130551558 0.0354570930 0.3485430034
v 0.0121482400 0.0496538217 0.3472518089
v 0.0373694945 0.0693938904 0.3464753661
v -0.1658675132 0.0757799933 0.2982384453
v -0.1413156404 0.0565824436 0.2939707997
v -0.1167542415 0.0429365168 0.2902221195
v -0.0922026224 0.0348400701 0.2870303671
v -0.0676500533 0.0323200321 0.2843569269
v -0.0431125233 0.0353726407 0.2821842272
v -0.0185881561 0.0439706845 0.2804950234
v 0.0059328287 0.0581108905 0.2792969165
v 0.0304779628 0.0777640400 0.2786067525
v -0.1670728644 0.0843177735 0.2297854456
v -0.1432246969 0.0652517429 0.2255908397
v -0.1193746380 0.0516953230 0.2219149323
v -0.0955321335 0.0436471617 0.2187841965
v -0.0716883441 0.0411317864 0.2161735987
v -0.0478549103 0.0441487927 0.2140684149
v -0.0240342999 0.0526789950 0.2124576323
v -0.0002205683 0.0667191763 0.2113430581
v 0.0236131720 0.0862403803 0.2107343978
v -0.1680655943 0.0929510271 0.1613124707
v -0.1449485668 0.0740672032 0.1572033039
v -0.1218324933 0.0606391993 0.1536078008
v -0.0987237366 0.0526653782 0.1505474875
v -0.0756141997 0.0501646233 0.1480052002
v -0.0525126735 0.0531410916 0.1459708460
v -0.0294219159 0.0615805495 0.1444340052
v -0.0063396538 0.0754805176 0.1433954416
v 0.0167576393 0.0948166702 0.1428596766
v -0.1689154512 0.1016831673 0.0928307614
v -0.1465486909 0.0830390103 0.0888171592
v -0.1241839176 0.0697817625 0.0853106109
v -0.1018257941 0.0619092184 0.0823277982
v -0.0794678876 0.0594355463 0.0798578445
v -0.0571162060 0.0623648747 0.0778933737
v -0.0347738431 0.0706883225 0.0764268107
v -0.0124399346 0.0844039926 0.0754570758
v 0.0099034472 0.1034933899 0.0749863173
v -0.1696949606 0.1105208340 0.0243491074
v -0.1480876839 0.0921836593 0.0204395670
v -0.1264827654 0.0791450962 0.0170284128
v -0.1048841349 0.0714027652 0.0141291973
v -0.0832866166 0.0689667524 0.0117348183
v -0.0616943720 0.0718411154 0.0098403956
v -0.0401100283 0.0800202865 0.0084398444
v -0.0185336027 0.0935027372 0.0075316374
v 0.0030478571 0.1122753543 0.0071164296
v -0.1704772023 0.1194705964 -0.0441233450
v -0.1496295972 0.1015166515 -0.0479208566
v -0.1287845188 0.0887509849 -0.0512304634
v -0.1079452532 0.0811713050 -0.0540413759
v -0.0871078501 0.0787847127 -0.0563581293
v -0.0662751081 0.0815943052 -0.0581839332
v -0.0454492030 0.0895969205 -0.0595231619
v -0.0246303927 0.1027912951 -0.0603776600
v -0.0038100064 0.1211687295 -0.0607474472
v -0.1713352444 0.1285392048 -0.1125781587
v -0.1512381756 0.1110540044 -0.1162561160
v -0.1311437216 0.0986219441 -0.1194589204
v -0.1110546807 0.0912410117 -0.1221778292
v -0.0909680511 0.0889161229 -0.1244158584
v -0.0708857422 0.0916495545 -0.1261749590
v -0.0508094010 0.0994395483 -0.1274583082
v -0.0307393193 0.1122849999 -0.1282676434
v -0.0106700579 0.1301805720 -0.1286033071
v -0.1723420106 0.1377332136 -0.1810069944
v -0.1529772016 0.1208111947 -0.1845580601
v -0.1336150777 0.1087799336 -0.1876491862
v -0.1142579688 0.1016377713 -0.1902733232
v -0.0949036422 0.0993881252 -0.1924325293
v -0.0755534101 0.1020324827 -0.1941279298
v -0.0562084791 0.1095699293 -0.1953616797
v -0.0368690275 0.1219994658 -0.1961353212
v -0.0175319543 0.1393181679 -0.1964492659
v -0.1735704056 0.1470591620 -0.2494016523
v -0.1549103733 0.1308037120 -0.2528187110
v -0.1362530611 0.1192469164 -0.2557937805
v -0.1176003972 0.1123875277 -0.2583211873
v -0.0989507563 0.1102278920 -0.2604024296
v -0.0803050497 0.1127689142 -0.2620380719
v -0.0616641175 0.1200101390 -0.2632295138
v -0.0430279871 0.1319506100 -0.2639779966
v -0.0243951685 0.1485890981 -0.2642838720
v -0.1750934757 0.1565237831 -0.3177541186
v -0.1571015451 0.1410471178 -0.3210301792
v -0.1391124323 0.1300447819 -0.3238850650
v -0.1211276206 0.1235160068 -0.3263144282
v -0.1031459540 0.1214623631 -0.3283194079
v -0.0851680487 0.1238844242 -0.3299002274
v -0.0671944872 0.1307819933 -0.3310577134
v -0.0492251415 0.1421540986 -0.3317928088
v -0.0312595310 0.1580005997 -0.3321057428
v -0.1769851533 0.1661345235 -0.3860561771
v -0.1596156027 0.1515575086 -0.3891846382
v -0.1422483263 0.1411968239 -0.3919153659
v -0.1248856450 0.1350503200 -0.3942461037
v -0.1075259942 0.1331198198 -0.3961775399
v -0.0901698159 0.1354054237 -0.3977097425
v -0.0728174998 0.1419076650 -0.3988429705
v -0.0554690827 0.1526258796 -0.3995777260
v -0.0381247405 0.1675602710 -0.3999141104
v -0.1793180310 0.1758970529 -0.4543008305
v -0.1625162004 0.1623491528 -0.4572742743
v -0.1457175511 0.1527212591 -0.4598769813
v -0.1289220831 0.1470133718 -0.4621089517
v -0.1121297963 0.1452254910 -0.4639701852
v -0.0953406909 0.1473576166 -0.4654606821
v -0.0785547668 0.1534097487 -0.4665804422
v -0.0617720239 0.1633818871 -0.4673294655
v -0.0449924624 0.1772740320 -0.4677077521
vt 0.0000000000 0.0000000000
vt 0.0338465961 0.0000000000
vt 0.0647672944 0.0000000000
vt 0.0935741371 0.0000000000
vt 0.1212640782 0.0000000000
vt 0.1489535643 0.0000000000
vt 0.1777591141 0.0000000000
vt 0.2086778469 0.0000000000
vt 0.2425219722 0.0000000000
vt 0.0000000000 0.0687937647
vt 0.0334906245 0.0687937647
vt 0.0640217931 0.0687937647
vt 0.0924105694 0.0687937647
vt 0.1196655932 0.0687937647
vt 0.1469201558 0.0687937647
vt 0.1753076237 0.0687937647
vt 0.2058368080 0.0687937647
vt 0.2393249436 0.0687937647
vt 0.0000000000 0.1375974427
vt 0.0330728720 0.1375974427
vt 0.0631485298 0.1375974427
vt 0.0910493093 0.1375974427
vt 0.1177969969 0.1375974427
vt 0.1445442162 0.1375974427
vt 0.1724436698 0.1375974427
vt 0.2025173225 0.1375974427
vt 0.2355876859 0.1375974427
vt 0.0000000000 0.2064118557
vt 0.0325964645 0.2064118557
vt 0.0621564505 0.2064118557
vt 0.0895071632 0.2064118557
vt 0.1156840616 0.2064118557
vt 0.1418604840 0.2064118557
vt 0.1692098525 0.2064118557
vt 0.1987678124 0.2064118557
vt 0.2313617490 0.2064118557
vt 0.0000000000 0.2752375378
vt 0.0320641958 0.2752375378
vt 0.0610539517 0.2752375378
vt 0.0878002923 0.2752375378
vt 0.1133518987 0.2752375378
vt 0.1389030217 0.2752375378
vt 0.1656480002 0.2752375378
vt 0.1946357103 0.2752375378
vt 0.2266973616 0.2752375378
vt 0.0000000000 0.3440748256
vt 0.0314784416 0.3440748256
vt 0.0598487318 0.3440748256
vt 0.0859440325 0.3440748256
vt 0.1108247749 0.3440748256
vt 0.1357050268 0.3440748256
vt 0.1617989495 0.3440748256
vt 0.1901671775 0.3440748256
vt 0.2216430624 0.3440748256
vt 0.0000000000 0.4129239491
vt 0.0308411023 0.4129239491
vt 0.0585476886 0.4129239491
vt 0.0839527701 0.4129239491
vt 0.1081259823 0.4129239491
vt 0.1322986979 0.4129239491
vt 0.1577023885 0.4129239491
vt 0.1854069015 0.4129239491
vt 0.2162454412 0.4129239491
vt 0.0000000000 0.4817851224
vt 0.0301535780 0.4817851224
vt 0.0571568702 0.4817851224
vt 0.0818398763 0.4817851224
vt 0.1052777710 0.4817851224
vt 0.1287151649 0.4817851224
vt 0.1533967718 0.4817851224
vt 0.1803979866 0.4817851224
vt 0.2105490047 0.4817851224
vt 0.0000000000 0.5506586332
vt 0.0294167802 0.5506586332
vt 0.0556814861 0.5506586332
vt 0.0796177156 0.5506586332
vt 0.1023013565 0.5506586332
vt 0.1249844946 0.5506586332
vt 0.1489193231 0.5506586332
vt 0.1751819564 0.5506586332
vt 0.2045961898 0.5506586332
vt 0.0000000000 0.6195449342
vt 0.0286311861 0.6195449342
vt 0.0541259937 0.6195449342
vt 0.0772977440 0.6195449342
vt 0.0992170192 0.6195449342
vt 0.1211357923 0.6195449342
vt 0.1443061477 0.6195449342
vt 0.1697988983 0.6195449342
vt 0.1984275633 0.6195449342
vt 0.0000000000 0.6884447324
vt 0.0277969472 0.6884447324
vt 0.0524942788 0.6884447324
vt 0.0748907216 0.6884447324
vt 0.0960443219 0.6884447324
vt 0.1171974248 0.6884447324
vt 0.1395924881 0.6884447324
vt 0.1642877912 0.6884447324
vt 0.1920822574 0.6884447324
vt 0.0000000000 0.7573590800
vt 0.0269140650 0.7573590800
vt 0.0507899573 0.7573590800
vt 0.0724070742 0.7573590800
vt 0.0928024822 0.7573590800
vt 0.1131974016 0.7573590800
vt 0.1348131659 0.7573590800
vt 0.1586870729 0.7573590800
vt 0.1855987132 0.7573590800
vt 0.0000000000 0.8262894637
vt 0.0259826569 0.8262894637
vt 0.0490168359 0.8262894637
vt 0.0698574514 0.8262894637
vt 0.0895109459 0.8262894637
vt 0.1091639660 0.8262894637
vt 0.1300032685 0.8262894637
vt 0.1530355222 0.8262894637
vt 0.1790158290 0.8262894637
vt 0.0000000000 0.8952378949
vt 0.0250033424 0.8952378949
vt 0.0471795870 0.8952378949
vt 0.0672535449 0.8952378949
vt 0.0861902312 0.8952378949
vt 0.1051264629 0.8952378949
vt 0.1251991620 0.8952378949
vt 0.1473735597 0.8952378949
vt 0.1723746467 0.8952378949
vt 0.0000000000 0.9642069992
vt 0.0239777994 0.9642069992
vt 0.0452847137 0.9642069992
vt 0.0646092578 0.9642069992
vt 0.0828631320 0.9642069992
vt 0.1011165776 0.9642069992
vt 0.1204399331 0.9642069992
vt 0.1417450993 0.9642069992
vt 0.1657207603 0.9642069992
vt 0.0000000000 1.0332001055
vt 0.0229095590 1.0332001055
vt 0.0433419162 1.0332001055
vt 0.0619423465 1.0332001055
vt 0.0795564060 1.0332001055
vt 0.0971700698 1.0332001055
vt 0.1157693987 1.0332001055
vt 0.1362001287 1.0332001055
vt 0.1591076905 1.0332001055
vt 0.0000000000 1.1022213348
vt 0.0218051477 1.1022213348
vt 0.0413660123 1.1022213348
vt 0.0592766988 1.1022213348
vt 0.0763031112 1.1022213348
vt 0.0933291676 1.1022213348
vt 0.1112388578 1.1022213348
vt 0.1307982399 1.1022213348
vt 0.1526015580 1.1022213348
vn -0.6087782823 -0.7890763843 -0.0821429413
vn -0.4938692170 -0.8644963767 -0.0934837486
vn -0.2074395041 -0.9765471839 -0.0576580411
vn -0.0038680784 -0.9999731017 -0.0062316870
vn 0.0078231920 -0.9999431268 -0.0072485044
vn 0.0751029715 -0.9959456925 -0.0495148586
vn 0.2941627701 -0.9458131731 -0.1374980232
vn 0.5418910309 -0.8232163283 -0.1693191880
vn 0.6264219666 -0.7630283336 -0.1593213165
vn -0.5898763858 -0.8043233291 -0.0714830871
vn -0.5368033353 -0.8394031371 -0.0851149376
vn -0.3471148217 -0.9335899033 -0.0890010844
vn -0.1009310537 -0.9933161754 -0.0559990895
vn 0.0185096319 -0.9989354978 -0.0422523935
vn 0.1295612927 -0.9891417172 -0.0693724344
vn 0.3138478150 -0.9414207040 -0.1233961393
vn 0.5201095811 -0.8391953630 -0.1588620986
vn 0.6072817573 -0.7775099181 -0.1633621576
vn -0.5976022654 -0.7984458248 -0.0731833121
vn -0.5341453500 -0.8418936780 -0.0768360589
vn -0.3854527700 -0.9184735640 -0.0885012674
vn -0.1899724125 -0.9772059072 -0.0947580998
vn 0.0148472250 -0.9953341425 -0.0953388940
vn 0.1849182436 -0.9760589840 -0.1145168242
vn 0.3687085796 -0.9184993821 -0.1428736102
vn 0.5307794913 -0.8331587450 -0.1553049815
vn 0.5925486449 -0.7901841463 -0.1565091637
vn -0.6079696891 -0.7902206143 -0.0769690714
vn -0.5446154202 -0.8348460926 -0.0801626207
vn -0.3959110616 -0.9137886289 -0.0908007319
vn -0.2093152689 -0.9723678498 -0.1033822178
vn 0.0013308646 -0.9932086365 -0.1163393021
vn 0.2071564335 -0.9696223408 -0.1300720121
vn 0.3908224244 -0.9093658568 -0.1425186693
vn 0.5381718049 -0.8291837624 -0.1510807617
vn 0.5946986259 -0.7889494134 -0.1545715607
vn -0.6169447292 -0.7829067867 -0.0802257090
vn -0.5545966410 -0.8278816961 -0.0838717065
vn -0.4058213388 -0.9089746531 -0.0952581807
vn -0.2168189168 -0.9701276139 -0.1088208166
vn -0.0007709205 -0.9924332885 -0.1227826271
vn 0.2137672302 -0.9674881077 -0.1351677947
vn 0.4006843874 -0.9046924987 -0.1448568415
vn 0.5472765775 -0.8230277049 -0.1520320514
vn 0.6029341662 -0.7825149292 -0.1553730251
vn -0.6255246277 -0.7757836572 -0.0829376717
vn -0.5636408592 -0.8214468135 -0.0867992762
vn -0.4144960335 -0.9047016359 -0.0985291237
vn -0.2228932607 -0.9683261882 -0.1125299411
vn -0.0018608399 -0.9919485339 -0.1266279720
vn 0.2182485435 -0.9660177616 -0.1384819753
vn 0.4086475022 -0.9007477338 -0.1471758777
vn 0.5562725896 -0.8167262615 -0.1533591203
vn 0.6116726019 -0.7755161326 -0.1563053299
vn -0.6339398680 -0.7686776312 -0.0851759534
vn -0.5723546306 -0.8151359500 -0.0892387799
vn -0.4225988084 -0.9006428187 -0.1012559142
vn -0.2283199062 -0.9666987620 -0.1156007092
vn -0.0027185172 -0.9915287531 -0.1298589288
vn 0.2223881718 -0.9646461891 -0.1414257082
vn 0.4160732977 -0.8969687369 -0.1494325801
vn 0.5649099776 -0.8105037073 -0.1547916587
vn 0.6203810876 -0.7683612623 -0.1573158502
vn -0.6419479765 -0.7618031777 -0.0869408645
vn -0.5807365915 -0.8089504151 -0.0913467962
vn -0.4303344105 -0.8966773304 -0.1038367005
vn -0.2334604872 -0.9651004757 -0.1186476829
vn -0.0034220577 -0.9910932077 -0.1331260421
vn 0.2263894810 -0.9632634479 -0.1444691416
vn 0.4231441637 -0.8932483359 -0.1518434298
vn 0.5730887634 -0.8044341005 -0.1563810965
vn 0.6288016072 -0.7612549253 -0.1584281459
vn -0.6492787429 -0.7554127200 -0.0882538184
vn -0.5885567725 -0.8030718693 -0.0931477227
vn -0.4375761708 -0.8928696881 -0.1063523147
vn -0.2382668586 -0.9635282271 -0.1218288130
vn -0.0040672136 -0.9906085130 -0.1366683275
vn 0.2301343027 -0.9618645520 -0.1478336439
vn 0.4296845555 -0.8896575594 -0.1545335233
vn 0.5805968423 -0.7986822767 -0.1581579200
vn 0.6366632445 -0.7544374894 -0.1596370497
vn -0.6555836234 -0.7498435584 -0.0891333310
vn -0.5954941931 -0.7977617714 -0.0946721825
vn -0.4440676496 -0.8893555028 -0.1088609769
vn -0.2426285729 -0.9620032007 -0.1252246681
vn -0.0046983950 -0.9900615072 -0.1405565263
vn 0.2334114671 -0.9604919883 -0.1515725152
vn 0.4354083430 -0.8863407614 -0.1575424688
vn 0.5871279843 -0.7934952632 -0.1601436771
vn 0.6436644077 -0.7481905817 -0.1609564654
vn -0.6604890012 -0.7454681175 -0.0896190000
vn -0.6011713330 -0.7933389466 -0.0959496962
vn -0.4494551484 -0.8863312880 -0.1113863432
vn -0.2463277906 -0.9605827143 -0.1288544469
vn -0.0053577507 -0.9894444316 -0.1448137123
vn 0.2359555354 -0.9592075180 -0.1557110231
vn 0.4399443562 -0.8834945026 -0.1608925957
vn 0.5923171756 -0.7891776978 -0.1623543186
vn 0.6494677187 -0.7428451948 -0.1623967332
vn -0.6635562144 -0.7427210430 -0.0897697196
vn -0.6051520663 -0.7901743470 -0.0970333865
vn -0.4533158367 -0.8840333827 -0.1139724985
vn -0.2490986899 -0.9593379806 -0.1327421622
vn -0.0060685802 -0.9887517992 -0.1494424701
vn 0.2374599436 -0.9580883007 -0.1602485048
vn 0.4428554038 -0.8813555353 -0.1645949930
vn 0.5957310239 -0.7860929910 -0.1648100621
vn 0.6536891048 -0.7387842078 -0.1639769755
vn -0.6642663064 -0.7420975091 -0.0896747522
vn -0.6069248570 -0.7886937408 -0.0980020464
vn -0.4551489398 -0.8827373225 -0.1166801697
vn -0.2506131556 -0.9583566109 -0.1369147641
vn -0.0068479529 -0.9879781954 -0.1544415452
vn 0.2375728897 -0.9572222399 -0.1651808269
vn 0.4436261815 -0.8801984468 -0.1686609184
vn 0.5968535526 -0.7846640029 -0.1675357854
vn 0.6558759896 -0.7364530506 -0.1657214247
vn -0.6619762101 -0.7441666420 -0.0894623169
vn -0.6058746243 -0.7893798777 -0.0989714517
vn -0.4543667699 -0.8827494908 -0.1196000619
vn -0.2504911409 -0.9577351037 -0.1414130807
vn -0.0077056808 -0.9871183239 -0.1598062486
vn 0.2358943526 -0.9567053958 -0.1704952784
vn 0.4416502064 -0.8803304553 -0.1730993492
vn 0.5950561540 -0.7853770296 -0.1705611179
vn 0.6554783183 -0.7363682536 -0.1676602797
vn -0.6558694198 -0.7495725204 -0.0893103621
vn -0.6012377257 -0.7927748904 -0.1001057953
vn -0.4502808278 -0.8843932467 -0.1228648087
vn -0.2483043023 -0.9575702140 -0.1463019439
vn -0.0086580422 -0.9861653111 -0.1655385680
vn 0.2319674747 -0.9566365101 -0.1761751350
vn 0.4362101857 -0.8820811404 -0.1779144053
vn 0.5895585458 -0.7887798827 -0.1739166978
vn 0.6518024583 -0.7391291208 -0.1698284373
vn -0.6448808865 -0.7590294090 -0.0894594794
vn -0.5920664893 -0.7994578920 -0.1016088142
vn -0.4420532976 -0.8880076643 -0.1266146527
vn -0.2435677755 -0.9579563171 -0.1516391547
vn -0.0097106796 -0.9851136733 -0.1716296982
vn 0.2252738646 -0.9571070894 -0.1822023745
vn 0.4264398332 -0.8857861048 -0.1831175720
vn 0.5793582739 -0.7954798535 -0.1776395033
vn 0.6439573588 -0.7454163005 -0.1722598588
vn -0.6346600588 -0.7677494510 -0.0881327990
vn -0.6030659248 -0.7917014464 -0.0975720763
vn -0.4613562381 -0.8785534257 -0.1236701247
vn -0.2733284795 -0.9501401307 -0.1500842240
vn -0.0484763209 -0.9839029196 -0.1720031718
vn 0.1834559522 -0.9655162096 -0.1847223934
vn 0.3881593615 -0.9023781359 -0.1872057957
vn 0.5479207412 -0.8164358509 -0.1822508236
vn 0.6331747185 -0.7538792477 -0.1753734749
f 1/1/1 11/11/11 2/2/2
f 1/1/1 10/10/10 11/11/11
f 2/2/2 12/12/12 3/3/3
f 2/2/2 11/11/11 12/12/12
f 3/3/3 13/13/13 4/4/4
f 3/3/3 12/12/12 13/13/13
f 4/4/4 14/14/14 5/5/5
f 4/4/4 13/13/13 14/14/14
f 5/5/5 15/15/15 6/6/6
f 5/5/5 14/14/14 15/15/15
f 6/6/6 16/16/16 7/7/7
f 6/6/6 15/15/15 16/16/16
f 7/7/7 17/17/17 8/8/8
f 7/7/7 16/16/16 17/17/17
f 8/8/8 18/18/18 9/9/9
f 8/8/8 17/17/17 18/18/18
f 10/10/10 20/20/20 11/11/11
f 10/10/10 19/19/19 20/20/20
f 11/11/11 21/21/21 12/12/12
f 11/11/11 20/20/20 21/21/21
f 12/12/12 22/22/22 13/13/13
f 12/12/12 21/21/21 22/22/22
f 13/13/13 23/23/23 14/14/14
f 13/13/13 22/22/22 23/23/23
f 14/14/14 24/24/24 15/15/15
f 14/14/14 23/23/23 24/24/24
f 15/15/15 25/25/25 16/16/16
f 15/15/15 24/24/24 25/25/25
f 16/16/16 26/26/26 17/17/17
f 16/16/16 25/25/25 26/26/26
f 17/17/17 27/27/27 18/18/18
f 17/17/17 26/26/26 27/27/27
f 19/19/19 29/29/29 20/20/20
f 19/19/19 28/28/28 29/29/29
f 20/20/20 30/30/30 21/21/21
f 20/20/20 29/29/29 30/30/30
f 21/21/21 31/31/31 22/22/22
f 21/21/21 30/30/30 31/31/31
f 22/22/22 32/32/32 23/23/23
f 22/22/22 31/31/31 32/32/32
f 23/23/23 33/33/33 24/24/24
f 23/23/23 32/32/32 33/33/33
f 24/24/24 34/34/34 25/25/25
f 24/24/24 33/33/33 34/34/34
f 25/25/25 35/35/35 26/26/26
f 25/25/25 34/34/34 35/35/35
f 26/26/26 36/36/36 27/27/27
f 26/26/26 35/35/35 36/36/36
f 28/28/28 38/38/38 29/29/29
f 28/28/28 37/37/37 38/38/38
f 29/29/29 39/39/39 30/30/30
f 29/29/29 38/38/38 39/39/39
f 30/30/30 40/40/40 31/31/31
f 30/30/30 39/39/39 40/40/40
f 31/31/31 41/41/41 32/32/32
f 31/31/31 40/40/40 41/41/41
f 32/32/32 42/42/42 33/33/33
f 32/32/32 41/41/41 42/42/42
f 33/33/33 43/43/43 34/34/34
f 33/33/33 42/42/42 43/43/43
f 34/34/34 44/44/44 35/35/35
f 34/34/34 43/43/43 44/44/44
f 35/35/35 45/45/45 36/36/36
f 35/35/35 44/44/44 45/45/45
f 37/37/37 47/47/47 38/38/38
f 37/37/37 46/46/46 47/47/47
f 38/38/38 48/48/48 39/39/39
f 38/38/38 47/47/47 48/48/48
f 39/39/39 49/49/49 40/40/40
f 39/39/39 48/48/48 49/49/49
f 40/40/40 50/50/50 41/41/41
f 40/40/40 49/49/49 50/50/50
f 41/41/41 51/51/51 42/42/42
f 41/41/41 50/50/50 51/51/51
f 42/42/42 52/52/52 43/43/43
f 42/42/42 51/51/51 52/52/52
f 43/43/43 53/53/53 44/44/44
f 43/43/43 52/52/52 53/53/53
f 44/44/44 54/54/54 45/45/45
f 44/44/44 53/53/53 54/54/54
f 46/46/46 56/56/56 47/47/47
f 46/46/46 55/55/55 56/56/56
f 47/47/47 57/57/57 48/48/48
f 47/47/47 56/56/56 57/57/57
f 48/48/48 58/58/58 49/49/49
f 48/48/48 57/57/57 58/58/58
f 49/49/49 59/59/59 50/50/50
f 49/49/49 58/58/58 59/59/59
f 50/50/50 60/60/60 51/51/51
f 50/50/50 59/59/59 60/60/60
f 51/51/51 61/61/61 52/52/52
f 51/51/51 60/60/60 61/61/61
f 52/52/52 62/62/62 53/53/53
f 52/52/52 61/61/61 62/62/62
f 53/53/53 63/63/63 54/54/54
f 53/53/53 62/62/62 63/63/63
f 55/55/55 65/65/65 56/56/56
f 55/55/55 64/64/64 65/65/65
f 56/56/56 66/66/66 57/57/57
f 56/56/56 65/65/65 66/66/66
f 57/57/57 67/67/67 58/58/58
f 57/57/57 66/66/66 67/67/67
f 58/58/58 68/68/68 59/59/59
f 58/58/58 67/67/67 68/68/68
f 59/59/59 69/69/69 60/60/60
f 59/59/59 68/68/68 69/69/69
f 60/60/60 70/70/70 61/61/61
f 60/60/60 69/69/69 70/70/70
f 61/61/61 71/71/71 62/62/62
f 61/61/61 70/70/70 71/71/71
f 62/62/62 72/72/72 63/63/63
f 62/62/62 71/71/71 72/72/72
f 64/64/64 74/74/74 65/65/65
f 64/64/64 73/73/73 74/74/74
f 65/65/65 75/75/75 66/66/66
f 65/65/65 74/74/74 75/75/75
f 66/66/66 76/76/76 67/67/67
f 66/66/66 75/75/75 76/76/76
f 67/67/67 77/77/77 68/68/68
f 67/67/67 76/76/76 77/77/77
f 68/68/68 78/78/78 69/69/69
f 68/68/68 77/77/77 78/78/78
f 69/69/69 79/79/79 70/70/70
f 69/69/69 78/78/78 79/79/79
f 70/70/70 80/80/80 71/71/71
f 70/70/70 79/79/79 80/80/80
f 71/71/71 81/81/81 72/72/72
f 71/71/71 80/80/80 81/81/81
f 73/73/73 83/83/83 74/74/74
f 73/73/73 82/82/82 83/83/83
f 74/74/74 84/84/84 75/75/75
f 74/74/74 83/83/83 84/84/84
f 75/75/75 85/85/85 76/76/76
f 75/75/75 84/84/84 85/85/85
f 76/76/76 86/86/86 77/77/77
f 76/76/76 85/85/85 86/86/86
f 77/77/77 87/87/87 78/78/78
f 77/77/77 86/86/86 87/87/87
f 78/78/78 88/88/88 79/79/79
f 78/78/78 87/87/87 88/88/88
f 79/79/79 89/89/89 80/80/80
f 79/79/79 88/88/88 89/89/89
f 80/80/80 90/90/90 81/81/81
f 80/80/80 89/89/89 90/90/90
f 82/82/82 92/92/92 83/83/83
f 82/82/82 91/91/91 92/92/92
f 83/83/83 93/93/93 84/84/84
f 83/83/83 92/92/92 93/93/93
f 84/84/84 94/94/94 85/85/85
f 84/84/84 93/93/93 94/94/94
f 85/85/85 95/95/95 86/86/86
f 85/85/85 94/94/94 95/95/95
f 86/86/86 96/96/96 87/87/87
f 86/86/86 95/95/95 96/96/96
f 87/87/87 97/97/97 88/88/88
f 87/87/87 96/96/96 97/97/97
f 88/88/88 98/98/98 89/89/89
f 88/88/88 97/97/97 98/98/98
f 89/89/89 99/99/99 90/90/90
f 89/89/89 98/98/98 99/99/99
f 91/91/91 101/101/101 92/92/92
f 91/91/91 100/100/100 101/101/101
f 92/92/92 102/102/102 93/93/93
f 92/92/92 101/101/101 102/102/102
f 93/93/93 103/103/103 94/94/94
f 93/93/93 102/102/102 103/103/103
f 94/94/94 104/104/104 95/95/95
f 94/94/94 103/103/103 104/104/104
f 95/95/95 105/105/105 96/96/96
f 95/95/95 104/104/104 105/105/105
f 96/96/96 106/106/106 97/97/97
f 96/96/96 105/105/105 106/106/106
f 97/97/97 107/107/107 98/98/98
f 97/97/97 106/106/106 107/107/107
f 98/98/98 108/108/108 99/99/99
f 98/98/98 107/107/107 108/108/108
f 100/100/100 110/110/110 101/101/101
f 100/100/100 109/109/109 110/110/110
f 101/101/101 111/111/111 102/102/102
f 101/101/101 110/110/110 111/111/111
f 102/102/102 112/112/112 103/103/103
f 102/102/102 111/111/111 112/112/112
f 103/103/103 113/113/113 104/104/104
f 103/103/103 112/112/112 113/113/113
f 104/104/104 114/114/114 105/105/105
f 104/104/104 113/113/113 114/114/114
f 105/105/105 115/115/115 106/106/106
f 105/105/105 114/114/114 115/115/115
f 106/106/106 116/116/116 107/107/107
f 106/106/106 115/115/115 116/116/116
f 107/107/107 117/117/117 108/108/108
f 107/107/107 116/116/116 117/117/117
f 109/109/109 119/119/119 110/110/110
f 109/109/109 118/118/118 119/119/119
f 110/110/110 120/120/120 111/111/111
f 110/110/110 119/119/119 120/120/120
f 111/111/111 121/121/121 112/112/112
f 111/111/111 120/120/120 121/121/121
f 112/112/112 122/122/122 113/113/113
f 112/112/112 121/121/121 122/122/122
f 113/113/113 123/123/123 114/114/114
f 113/113/113 122/122/122 123/123/123
f 114/114/114 124/124/124 115/115/115
f 114/114/114 123/123/123 124/124/124
f 115/115/115 125/125/125 116/116/116
f 115/115/115 124/124/124 125/125/125
f 116/116/116 126/126/126 117/117/117
f 116/116/116 125/125/125 126/126/126
f 118/118/118 128/128/128 119/119/119
f 118/118/118 127/127/127 128/128/128
f 119/119/119 129/129/129 120/120/120
f 119/119/119 128/128/128 129/129/129
f 120/120/120 130/130/130 121/121/121
f 120/120/120 129/129/129 130/130/130
f 121/121/121 131/131/131 122/122/122
f 121/121/121 130/130/130 131/131/131
f 122/122/122 132/132/132 123/123/123
f 122/122/122 131/131/131 132/132/132
f 123/123/123 133/133/133 124/124/124
f 123/123/123 132/132/132 133/133/133
f 124/124/124 134/134/134 125/125/125
f 124/124/124 133/133/133 134/134/134
f 125/125/125 135/135/135 126/126/126
f 125/125/125 134/134/134 135/135/135
f 127/127/127 137/137/137 128/128/128
f 127/127/127 136/136/136 137/137/137
f 128/128/128 138/138/138 129/129/129
f 128/128/128 137/137/137 138/138/138
f 129/129/129 139/139/139 130/130/130
f 129/129/129 138/138/138 139/139/139
f 130/130/130 140/140/140 131/131/131
f 130/130/130 139/139/139 140/140/140
f 131/131/131 141/141/141 132/132/132
f 131/131/131 140/140/140 141/141/141
f 132/132/132 142/142/142 133/133/133
f 132/132/132 141/141/141 142/142/142
f 133/133/133 143/143/143 134/134/134
f 133/133/133 142/142/142 143/143/143
f 134/134/134 144/144/144 135/135/135
f 134/134/134 143/143/143 144/144/144
f 136/136/136 146/146/146 137/137/137
f 136/136/136 145/145/145 146/146/146
f 137/137/137 147/147/147 138/138/138
f 137/137/137 146/146/146 147/147/147
f 138/138/138 148/148/148 139/139/139
f 138/138/138 147/147/147 148/148/148
f 139/139/139 149/149/149 140/140/140
f 139/139/139 148/148/148 149/149/149
f 140/140/140 150/150/150 141/141/141
f 140/140/140 149/149/149 150/150/150
f 141/141/141 151/151/151 142/142/142
f 141/141/141 150/150/150 151/151/151
f 142/142/142 152/152/152 143/143/143
f 142/142/142 151/151/151 152/152/152
f 143/143/143 153/153/153 144/144/144
f 143/143/143 152/152/152 153/153/153
