# death-.45s-explicit open surface prototype; metres; no material; not a finished garment
# Anatomical Right=-X; front=+Z; UV values are metres, not a texture atlas.
o death-.45s-explicit
v -0.1912152100 0.0030253846 0.3559432992
v -0.1583128985 0.0030287242 0.3520611710
v -0.1280731215 0.0030394745 0.3489586603
v -0.0998638029 0.0030350216 0.3465669453
v -0.0727783235 0.0030284096 0.3448854581
v -0.0456051134 0.0030175319 0.3438431505
v -0.0172030068 0.0030003387 0.3432719632
v 0.0134897439 0.0030000000 0.3429287943
v 0.0472441206 0.0030000000 0.3417814486
v -0.1933285518 0.0185042071 0.2901728102
v -0.1613495696 0.0129577573 0.2852802657
v -0.1308810554 0.0116213663 0.2817268641
v -0.1025461347 0.0107897212 0.2788918263
v -0.0753075889 0.0105311899 0.2768833654
v -0.0479960368 0.0110080402 0.2755995911
v -0.0195403533 0.0126275314 0.2750086824
v 0.0109044215 0.0163598978 0.2751433770
v 0.0430940926 0.0258531611 0.2767197908
v -0.1878742950 0.0650693612 0.2395908064
v -0.1616013401 0.0504104904 0.2265640500
v -0.1327344667 0.0435272052 0.2200844987
v -0.1048318029 0.0412373845 0.2166312234
v -0.0779419822 0.0413191286 0.2146523678
v -0.0510742775 0.0437895981 0.2142811228
v -0.0234874584 0.0489783741 0.2156763728
v 0.0045709901 0.0591691066 0.2204658169
v 0.0294212225 0.0776539988 0.2326404094
v -0.1816632814 0.1174232403 0.1944669824
v -0.1569434488 0.1018863820 0.1793913767
v -0.1315691550 0.0912516389 0.1690073416
v -0.1058321805 0.0852130300 0.1625848534
v -0.0798433346 0.0843456466 0.1601553962
v -0.0539773848 0.0879303788 0.1609451873
v -0.0281364554 0.0956828874 0.1648219514
v -0.0025510163 0.1079830102 0.1724590109
v 0.0228144781 0.1248592180 0.1837202695
v -0.1821192608 0.1614645514 0.1421546253
v -0.1571399681 0.1469756985 0.1281746510
v -0.1318753138 0.1370143140 0.1178952931
v -0.1066345569 0.1312616897 0.1114146291
v -0.0813693257 0.1299982873 0.1086580456
v -0.0561404742 0.1332000332 0.1093800010
v -0.0309596310 0.1408258671 0.1135409589
v -0.0059431102 0.1529981311 0.1213214364
v 0.0195725697 0.1689887404 0.1320814816
v -0.1809508125 0.2069541340 0.0903559907
v -0.1564019671 0.1927063664 0.0767219679
v -0.1317903768 0.1828386420 0.0665909343
v -0.1072610390 0.1770937575 0.0601233815
v -0.0826534730 0.1758109938 0.0572926328
v -0.0580800471 0.1789808677 0.0580278054
v -0.0335482891 0.1865207341 0.0622127992
v -0.0090565861 0.1984356512 0.0698709241
v 0.0155714607 0.2145824029 0.0809245242
v -0.1792779426 0.2524766090 0.0389287711
v -0.1554810112 0.2383711288 0.0253533733
v -0.1315510582 0.2286344101 0.0152981368
v -0.1076774525 0.2230214694 0.0088761591
v -0.0837722123 0.2217455709 0.0060638501
v -0.0598890812 0.2248352040 0.0067998860
v -0.0360387505 0.2322496188 0.0110041048
v -0.0122360310 0.2439956018 0.0187074254
v 0.0116518263 0.2599433978 0.0298353914
v -0.1774270446 0.2982086298 -0.0125837113
v -0.1543113679 0.2842781803 -0.0259740809
v -0.1311192597 0.2746393205 -0.0359110758
v -0.1079848879 0.2690841891 -0.0422734009
v -0.0848083620 0.2678149684 -0.0450659577
v -0.0616486938 0.2708554986 -0.0443211819
v -0.0385253039 0.2781765812 -0.0401068701
v -0.0154338846 0.2897575065 -0.0324343547
v 0.0077152318 0.3055245784 -0.0213351698
v -0.1754582429 0.3439881713 -0.0640213216
v -0.1530878014 0.3302515988 -0.0772253450
v -0.1306371448 0.3207526017 -0.0870146237
v -0.1082372621 0.3153009034 -0.0932816667
v -0.0858099088 0.3140469959 -0.0960327978
v -0.0633942253 0.3170181879 -0.0952907833
v -0.0410100420 0.3242058698 -0.0911010347
v -0.0186548210 0.3355896016 -0.0834840652
v 0.0037210881 0.3511278261 -0.0724550261
v -0.1734326093 0.3898944342 -0.1154185209
v -0.1518058545 0.3763919513 -0.1283777826
v -0.1301165556 0.3670479453 -0.1379843771
v -0.1084744617 0.3616938760 -0.1441366644
v -0.0868069146 0.3604574074 -0.1468388160
v -0.0651474918 0.3633618437 -0.1461024033
v -0.0435173150 0.3704077300 -0.1419598198
v -0.0219087252 0.3815680708 -0.1344453044
v -0.0003015954 0.3968309678 -0.1235554838
v -0.1714162330 0.4358898598 -0.1667466318
v -0.1505451348 0.4226694068 -0.1794178258
v -0.1296176352 0.4135171041 -0.1888057041
v -0.1087311441 0.4082833153 -0.1948175612
v -0.0878244802 0.4070695232 -0.1974585527
v -0.0669227605 0.4098958859 -0.1967349394
v -0.0460465939 0.4167720291 -0.1926659615
v -0.0251882939 0.4276706333 -0.1852908628
v -0.0043511644 0.4425996964 -0.1745972700
v -0.1694760615 0.4819863114 -0.2180077248
v -0.1493507128 0.4691089598 -0.2303326321
v -0.1291785231 0.4601883620 -0.2394613154
v -0.1090420678 0.4550933586 -0.2453078034
v -0.0888877854 0.4539084472 -0.2478772355
v -0.0687360697 0.4566499937 -0.2471714450
v -0.0486072522 0.4633327932 -0.2432000999
v -0.0284916386 0.4739269338 -0.2360079276
v -0.0084120463 0.4884582313 -0.2255731176
v -0.1676799263 0.5281766943 -0.2691913004
v -0.1482839547 0.5157125586 -0.2811096642
v -0.1288484881 0.5070735747 -0.2899346437
v -0.1094435257 0.5021457437 -0.2955874447
v -0.0900234330 0.5009985560 -0.2980734506
v -0.0706041945 0.5036450048 -0.2973920064
v -0.0512055842 0.5101043776 -0.2935439143
v -0.0318157309 0.5203435956 -0.2865784613
v -0.0124764765 0.5344059057 -0.2764642735
v -0.1660996509 0.5744635304 -0.3202902483
v -0.1474041927 0.5624932714 -0.3317355065
v -0.1286763438 0.5541923626 -0.3402082827
v -0.1099744552 0.5494647604 -0.3456363507
v -0.0912605108 0.5483673135 -0.3480261720
v -0.0725468769 0.5509092921 -0.3473757958
v -0.0538524562 0.5571134294 -0.3436779589
v -0.0351609121 0.5669407888 -0.3369875151
v -0.0165343070 0.5804545870 -0.3272592118
v -0.1648155398 0.6208565375 -0.3712921536
v -0.1467797783 0.6094708323 -0.3821922486
v -0.1287204596 0.6015697790 -0.3902585951
v -0.1106831999 0.5970797308 -0.3954277685
v -0.0926380619 0.5960440175 -0.3977090046
v -0.0745931865 0.5984696628 -0.3970989510
v -0.0565663995 0.6043827486 -0.3935821022
v -0.0385329182 0.6137328978 -0.3872219764
v -0.0205812477 0.6266105632 -0.3779476857
v -0.1639368191 0.6673839608 -0.4221690848
v -0.1465172150 0.6566772875 -0.4324584103
v -0.1290651235 0.6492567972 -0.4400422995
v -0.1116511610 0.6450382908 -0.4449229915
v -0.0942290591 0.6440741680 -0.4470861403
v -0.0768066720 0.6463636189 -0.4465337124
v -0.0593927933 0.6519254201 -0.4432523150
v -0.0419921357 0.6607546635 -0.4372557013
v -0.0246325374 0.6728717182 -0.4285339068
v -0.1635231413 0.7140357612 -0.4729516677
v -0.1466712146 0.7040963419 -0.4825385851
v -0.1298211776 0.6971815541 -0.4896044894
v -0.1129730305 0.6932913979 -0.4941493807
v -0.0961267732 0.6924258732 -0.4961732588
v -0.0792824057 0.6945849800 -0.4956761240
v -0.0624399280 0.6997687183 -0.4926579761
v -0.0455993401 0.7079770881 -0.4871188151
v -0.0287606421 0.7192100895 -0.4790586410
vt 0.0000000000 0.0000000000
vt 0.0338465961 0.0000000000
vt 0.0647672944 0.0000000000
vt 0.0935741371 0.0000000000
vt 0.1212640782 0.0000000000
vt 0.1489535643 0.0000000000
vt 0.1777591141 0.0000000000
vt 0.2086778469 0.0000000000
vt 0.2425219722 0.0000000000
vt 0.0000000000 0.0687937647
vt 0.0334906245 0.0687937647
vt 0.0640217931 0.0687937647
vt 0.0924105694 0.0687937647
vt 0.1196655932 0.0687937647
vt 0.1469201558 0.0687937647
vt 0.1753076237 0.0687937647
vt 0.2058368080 0.0687937647
vt 0.2393249436 0.0687937647
vt 0.0000000000 0.1375974427
vt 0.0330728720 0.1375974427
vt 0.0631485298 0.1375974427
vt 0.0910493093 0.1375974427
vt 0.1177969969 0.1375974427
vt 0.1445442162 0.1375974427
vt 0.1724436698 0.1375974427
vt 0.2025173225 0.1375974427
vt 0.2355876859 0.1375974427
vt 0.0000000000 0.2064118557
vt 0.0325964645 0.2064118557
vt 0.0621564505 0.2064118557
vt 0.0895071632 0.2064118557
vt 0.1156840616 0.2064118557
vt 0.1418604840 0.2064118557
vt 0.1692098525 0.2064118557
vt 0.1987678124 0.2064118557
vt 0.2313617490 0.2064118557
vt 0.0000000000 0.2752375378
vt 0.0320641958 0.2752375378
vt 0.0610539517 0.2752375378
vt 0.0878002923 0.2752375378
vt 0.1133518987 0.2752375378
vt 0.1389030217 0.2752375378
vt 0.1656480002 0.2752375378
vt 0.1946357103 0.2752375378
vt 0.2266973616 0.2752375378
vt 0.0000000000 0.3440748256
vt 0.0314784416 0.3440748256
vt 0.0598487318 0.3440748256
vt 0.0859440325 0.3440748256
vt 0.1108247749 0.3440748256
vt 0.1357050268 0.3440748256
vt 0.1617989495 0.3440748256
vt 0.1901671775 0.3440748256
vt 0.2216430624 0.3440748256
vt 0.0000000000 0.4129239491
vt 0.0308411023 0.4129239491
vt 0.0585476886 0.4129239491
vt 0.0839527701 0.4129239491
vt 0.1081259823 0.4129239491
vt 0.1322986979 0.4129239491
vt 0.1577023885 0.4129239491
vt 0.1854069015 0.4129239491
vt 0.2162454412 0.4129239491
vt 0.0000000000 0.4817851224
vt 0.0301535780 0.4817851224
vt 0.0571568702 0.4817851224
vt 0.0818398763 0.4817851224
vt 0.1052777710 0.4817851224
vt 0.1287151649 0.4817851224
vt 0.1533967718 0.4817851224
vt 0.1803979866 0.4817851224
vt 0.2105490047 0.4817851224
vt 0.0000000000 0.5506586332
vt 0.0294167802 0.5506586332
vt 0.0556814861 0.5506586332
vt 0.0796177156 0.5506586332
vt 0.1023013565 0.5506586332
vt 0.1249844946 0.5506586332
vt 0.1489193231 0.5506586332
vt 0.1751819564 0.5506586332
vt 0.2045961898 0.5506586332
vt 0.0000000000 0.6195449342
vt 0.0286311861 0.6195449342
vt 0.0541259937 0.6195449342
vt 0.0772977440 0.6195449342
vt 0.0992170192 0.6195449342
vt 0.1211357923 0.6195449342
vt 0.1443061477 0.6195449342
vt 0.1697988983 0.6195449342
vt 0.1984275633 0.6195449342
vt 0.0000000000 0.6884447324
vt 0.0277969472 0.6884447324
vt 0.0524942788 0.6884447324
vt 0.0748907216 0.6884447324
vt 0.0960443219 0.6884447324
vt 0.1171974248 0.6884447324
vt 0.1395924881 0.6884447324
vt 0.1642877912 0.6884447324
vt 0.1920822574 0.6884447324
vt 0.0000000000 0.7573590800
vt 0.0269140650 0.7573590800
vt 0.0507899573 0.7573590800
vt 0.0724070742 0.7573590800
vt 0.0928024822 0.7573590800
vt 0.1131974016 0.7573590800
vt 0.1348131659 0.7573590800
vt 0.1586870729 0.7573590800
vt 0.1855987132 0.7573590800
vt 0.0000000000 0.8262894637
vt 0.0259826569 0.8262894637
vt 0.0490168359 0.8262894637
vt 0.0698574514 0.8262894637
vt 0.0895109459 0.8262894637
vt 0.1091639660 0.8262894637
vt 0.1300032685 0.8262894637
vt 0.1530355222 0.8262894637
vt 0.1790158290 0.8262894637
vt 0.0000000000 0.8952378949
vt 0.0250033424 0.8952378949
vt 0.0471795870 0.8952378949
vt 0.0672535449 0.8952378949
vt 0.0861902312 0.8952378949
vt 0.1051264629 0.8952378949
vt 0.1251991620 0.8952378949
vt 0.1473735597 0.8952378949
vt 0.1723746467 0.8952378949
vt 0.0000000000 0.9642069992
vt 0.0239777994 0.9642069992
vt 0.0452847137 0.9642069992
vt 0.0646092578 0.9642069992
vt 0.0828631320 0.9642069992
vt 0.1011165776 0.9642069992
vt 0.1204399331 0.9642069992
vt 0.1417450993 0.9642069992
vt 0.1657207603 0.9642069992
vt 0.0000000000 1.0332001055
vt 0.0229095590 1.0332001055
vt 0.0433419162 1.0332001055
vt 0.0619423465 1.0332001055
vt 0.0795564060 1.0332001055
vt 0.0971700698 1.0332001055
vt 0.1157693987 1.0332001055
vt 0.1362001287 1.0332001055
vt 0.1591076905 1.0332001055
vt 0.0000000000 1.1022213348
vt 0.0218051477 1.1022213348
vt 0.0413660123 1.1022213348
vt 0.0592766988 1.1022213348
vt 0.0763031112 1.1022213348
vt 0.0933291676 1.1022213348
vt 0.1112388578 1.1022213348
vt 0.1307982399 1.1022213348
vt 0.1526015580 1.1022213348
vn -0.1082414687 -0.9771188479 -0.1830916205
vn -0.0296735186 -0.9898359700 -0.1390835536
vn -0.0211301193 -0.9923583565 -0.1215664850
vn -0.0115093498 -0.9936397020 -0.1120164158
vn 0.0001176312 -0.9937208621 -0.1118875969
vn 0.0155635117 -0.9920682120 -0.1247334749
vn 0.0395897455 -0.9864296619 -0.1593398070
vn 0.0946695006 -0.9650430993 -0.2443961989
vn -0.0112423524 -0.9436532708 -0.3307447869
vn -0.3555999511 -0.8126442959 -0.4616902892
vn -0.1532639525 -0.9273592991 -0.3413427769
vn -0.0683271354 -0.9532346386 -0.2944063966
vn -0.0357146020 -0.9586716856 -0.2822641784
vn 0.0025458908 -0.9576722774 -0.2878494878
vn 0.0482840190 -0.9491614451 -0.3110646309
vn 0.1198327497 -0.9261008608 -0.3577391615
vn 0.2544917805 -0.8606962621 -0.4409488384
vn 0.1720212625 -0.8727729512 -0.4568107495
vn -0.6157524858 -0.5069695496 -0.6031838460
vn -0.4326686686 -0.6710334039 -0.6020896895
vn -0.2196750027 -0.7966533223 -0.5631042331
vn -0.0839013258 -0.8405339021 -0.5352226891
vn 0.0246105279 -0.8433236569 -0.5368421850
vn 0.1347902161 -0.8177769787 -0.5595287399
vn 0.2738794221 -0.7579798189 -0.5919937975
vn 0.4770052522 -0.6412719670 -0.6010293285
vn 0.5225948371 -0.5677297642 -0.6360641093
vn -0.6487045791 -0.5387500999 -0.5375227427
vn -0.5752813014 -0.5641535625 -0.5922686741
vn -0.3857353159 -0.6679028296 -0.6364857236
vn -0.1808653553 -0.7415910268 -0.6460112014
vn 0.0238954969 -0.7653112464 -0.6432166831
vn 0.2097724113 -0.7415445141 -0.6372654620
vn 0.3806765701 -0.6797609043 -0.6269054649
vn 0.5303973962 -0.5961605315 -0.6027198543
vn 0.6276954273 -0.5290499814 -0.5710556609
vn -0.6267326162 -0.5851754399 -0.5145638273
vn -0.5719704151 -0.6156210026 -0.5420891305
vn -0.4166867946 -0.6792270485 -0.6041711113
vn -0.2214994626 -0.7277896865 -0.6490455765
vn 0.0051201672 -0.7462133934 -0.6656871303
vn 0.2207985984 -0.7254789665 -0.6518652070
vn 0.4093681417 -0.6728096402 -0.6162344624
vn 0.5512882726 -0.6072705362 -0.5721046550
vn 0.6047495939 -0.5781182671 -0.5477747693
vn -0.6291179183 -0.5747003401 -0.5233833815
vn -0.5685085881 -0.6107480710 -0.5511667435
vn -0.4196159926 -0.6762507932 -0.6054810347
vn -0.2265966220 -0.7267239950 -0.6484799195
vn 0.0002192747 -0.7451890982 -0.6668531771
vn 0.2227700713 -0.7228559989 -0.6541045025
vn 0.4143141653 -0.6688645966 -0.6172227506
vn 0.5616914572 -0.6009689038 -0.5686291265
vn 0.6100698721 -0.5703885710 -0.5499742078
vn -0.6372192823 -0.5662255246 -0.5228195114
vn -0.5748676720 -0.6046614230 -0.5512818909
vn -0.4252534688 -0.6727637621 -0.6054324138
vn -0.2308142784 -0.7245917713 -0.6493778052
vn -0.0011559287 -0.7435650448 -0.6686626115
vn 0.2264316865 -0.7206425442 -0.6552884974
vn 0.4211909891 -0.6651255157 -0.6166086271
vn 0.5693811085 -0.5951462951 -0.5671032012
vn 0.6230890462 -0.5615587855 -0.5444371138
vn -0.6436157217 -0.5606879655 -0.5209489496
vn -0.5823141445 -0.5986761195 -0.5499974010
vn -0.4322645957 -0.6679983986 -0.6057437237
vn -0.2353478194 -0.7216827297 -0.6509880502
vn -0.0018049769 -0.7416590565 -0.6707746164
vn 0.2305438697 -0.7181248882 -0.6566172166
vn 0.4280859645 -0.6610002894 -0.6162962148
vn 0.5776380388 -0.5893014691 -0.5648522591
vn 0.6321541715 -0.5547317668 -0.5409748334
vn -0.6503346348 -0.5548282611 -0.5188742270
vn -0.5891916378 -0.5933321765 -0.5484616142
vn -0.4385519287 -0.6639373166 -0.6056892318
vn -0.2395346270 -0.7188343383 -0.6526104171
vn -0.0025315078 -0.7393873276 -0.6732755538
vn 0.2340952143 -0.7152890275 -0.6584535199
vn 0.4345016759 -0.6568363285 -0.6162583315
vn 0.5853317988 -0.5837134081 -0.5627302573
vn 0.6407047494 -0.5482468382 -0.5375154216
vn -0.6560395981 -0.5499801003 -0.5168500121
vn -0.5956112564 -0.5881891637 -0.5470655710
vn -0.4445054454 -0.6596768071 -0.6060044713
vn -0.2434203623 -0.7157521079 -0.6545574438
vn -0.0031618850 -0.7368916824 -0.6760034399
vn 0.2372534038 -0.7122863807 -0.6605747000
vn 0.4400295632 -0.6526794209 -0.6167524277
vn 0.5919089016 -0.5784301362 -0.5613042221
vn 0.6482114906 -0.5421622869 -0.5346792666
vn -0.6606580829 -0.5461404160 -0.5150354778
vn -0.6009450618 -0.5839028530 -0.5458227651
vn -0.4494936870 -0.6558567048 -0.6064712756
vn -0.2467729692 -0.7126145211 -0.6567218940
vn -0.0038814179 -0.7340827168 -0.6790489669
vn 0.2396312379 -0.7090999444 -0.6631396073
vn 0.4444114540 -0.6487197921 -0.6177872537
vn 0.5971789233 -0.5737705399 -0.5605039706
vn 0.6543961057 -0.5368743275 -0.5324769416
vn -0.6634872036 -0.5438707306 -0.5137989481
vn -0.6047336310 -0.5806754720 -0.5450809405
vn -0.4531199647 -0.6524909285 -0.6074025730
vn -0.2492776810 -0.7094201448 -0.6592296230
vn -0.0046101885 -0.7309711617 -0.6823927805
vn 0.2410468567 -0.7057741624 -0.6661675800
vn 0.4471913088 -0.6450818908 -0.6195879981
vn 0.6006913639 -0.5699275756 -0.5606714223
vn 0.6589553931 -0.5325394191 -0.5312057577
vn -0.6640098719 -0.5435242699 -0.5134902707
vn -0.6063477125 -0.5789406834 -0.5451331367
vn -0.4547359183 -0.6499107184 -0.6089591963
vn -0.2505230931 -0.7062673091 -0.6621364421
vn -0.0053526076 -0.7275234333 -0.6860619532
vn 0.2411539165 -0.7023439552 -0.6697445462
vn 0.4478820347 -0.6419707862 -0.6223143841
vn 0.6019841943 -0.5672258221 -0.5620230391
vn 0.6615236752 -0.5294852664 -0.5310666434
vn -0.6614537841 -0.5455915010 -0.5145957691
vn -0.6051060362 -0.5790482471 -0.5463971198
vn -0.4536652320 -0.6483136511 -0.6114550409
vn -0.2500274899 -0.7032009176 -0.6655784881
vn -0.0060482227 -0.7237065132 -0.6900813732
vn 0.2395835878 -0.6988404373 -0.6739597522
vn 0.4458134604 -0.6395946967 -0.6262339678
vn 0.6004011631 -0.5660108391 -0.5649337779
vn 0.6615938974 -0.5280511677 -0.5324053711
vn -0.6550312652 -0.5505471642 -0.5175247449
vn -0.5999980835 -0.5815227775 -0.5493938106
vn -0.4492241596 -0.6478253708 -0.6152397447
vn -0.2473686048 -0.7001864753 -0.6697370179
vn -0.0068352010 -0.7194053101 -0.6945568945
vn 0.2355652802 -0.6953367514 -0.6789814437
vn 0.4404824962 -0.6380348090 -0.6315748199
vn 0.5947547575 -0.5667586326 -0.5701328185
vn 0.6584812236 -0.5286947207 -0.5356158795
vn -0.6439134354 -0.5587835394 -0.5226245725
vn -0.5904330988 -0.5868283377 -0.5540949900
vn -0.4401271817 -0.6494103422 -0.6201243999
vn -0.2421381915 -0.6976998307 -0.6742284794
vn -0.0076692480 -0.7149026280 -0.6991819613
vn 0.2282587067 -0.6919223794 -0.6849389635
vn 0.4305815159 -0.6376513783 -0.6387489945
vn 0.5839556636 -0.5700246280 -0.5779859050
vn 0.6501387244 -0.5325248040 -0.5419750660
vn -0.6337577219 -0.5670678699 -0.5261037738
vn -0.6019282102 -0.5822833583 -0.5464691395
vn -0.4591396435 -0.6432044094 -0.6127633112
vn -0.2713831319 -0.6918266323 -0.6691241339
vn -0.0459259219 -0.7128879174 -0.6997725537
vn 0.1863931263 -0.6963230506 -0.6931030311
vn 0.3917034674 -0.6479762475 -0.6532190875
vn 0.5516712552 -0.5840439742 -0.5954422410
vn 0.6378380965 -0.5382861489 -0.5508271821
f 1/1/1 11/11/11 2/2/2
f 1/1/1 10/10/10 11/11/11
f 2/2/2 12/12/12 3/3/3
f 2/2/2 11/11/11 12/12/12
f 3/3/3 13/13/13 4/4/4
f 3/3/3 12/12/12 13/13/13
f 4/4/4 14/14/14 5/5/5
f 4/4/4 13/13/13 14/14/14
f 5/5/5 15/15/15 6/6/6
f 5/5/5 14/14/14 15/15/15
f 6/6/6 16/16/16 7/7/7
f 6/6/6 15/15/15 16/16/16
f 7/7/7 17/17/17 8/8/8
f 7/7/7 16/16/16 17/17/17
f 8/8/8 18/18/18 9/9/9
f 8/8/8 17/17/17 18/18/18
f 10/10/10 20/20/20 11/11/11
f 10/10/10 19/19/19 20/20/20
f 11/11/11 21/21/21 12/12/12
f 11/11/11 20/20/20 21/21/21
f 12/12/12 22/22/22 13/13/13
f 12/12/12 21/21/21 22/22/22
f 13/13/13 23/23/23 14/14/14
f 13/13/13 22/22/22 23/23/23
f 14/14/14 24/24/24 15/15/15
f 14/14/14 23/23/23 24/24/24
f 15/15/15 25/25/25 16/16/16
f 15/15/15 24/24/24 25/25/25
f 16/16/16 26/26/26 17/17/17
f 16/16/16 25/25/25 26/26/26
f 17/17/17 27/27/27 18/18/18
f 17/17/17 26/26/26 27/27/27
f 19/19/19 29/29/29 20/20/20
f 19/19/19 28/28/28 29/29/29
f 20/20/20 30/30/30 21/21/21
f 20/20/20 29/29/29 30/30/30
f 21/21/21 31/31/31 22/22/22
f 21/21/21 30/30/30 31/31/31
f 22/22/22 32/32/32 23/23/23
f 22/22/22 31/31/31 32/32/32
f 23/23/23 33/33/33 24/24/24
f 23/23/23 32/32/32 33/33/33
f 24/24/24 34/34/34 25/25/25
f 24/24/24 33/33/33 34/34/34
f 25/25/25 35/35/35 26/26/26
f 25/25/25 34/34/34 35/35/35
f 26/26/26 36/36/36 27/27/27
f 26/26/26 35/35/35 36/36/36
f 28/28/28 38/38/38 29/29/29
f 28/28/28 37/37/37 38/38/38
f 29/29/29 39/39/39 30/30/30
f 29/29/29 38/38/38 39/39/39
f 30/30/30 40/40/40 31/31/31
f 30/30/30 39/39/39 40/40/40
f 31/31/31 41/41/41 32/32/32
f 31/31/31 40/40/40 41/41/41
f 32/32/32 42/42/42 33/33/33
f 32/32/32 41/41/41 42/42/42
f 33/33/33 43/43/43 34/34/34
f 33/33/33 42/42/42 43/43/43
f 34/34/34 44/44/44 35/35/35
f 34/34/34 43/43/43 44/44/44
f 35/35/35 45/45/45 36/36/36
f 35/35/35 44/44/44 45/45/45
f 37/37/37 47/47/47 38/38/38
f 37/37/37 46/46/46 47/47/47
f 38/38/38 48/48/48 39/39/39
f 38/38/38 47/47/47 48/48/48
f 39/39/39 49/49/49 40/40/40
f 39/39/39 48/48/48 49/49/49
f 40/40/40 50/50/50 41/41/41
f 40/40/40 49/49/49 50/50/50
f 41/41/41 51/51/51 42/42/42
f 41/41/41 50/50/50 51/51/51
f 42/42/42 52/52/52 43/43/43
f 42/42/42 51/51/51 52/52/52
f 43/43/43 53/53/53 44/44/44
f 43/43/43 52/52/52 53/53/53
f 44/44/44 54/54/54 45/45/45
f 44/44/44 53/53/53 54/54/54
f 46/46/46 56/56/56 47/47/47
f 46/46/46 55/55/55 56/56/56
f 47/47/47 57/57/57 48/48/48
f 47/47/47 56/56/56 57/57/57
f 48/48/48 58/58/58 49/49/49
f 48/48/48 57/57/57 58/58/58
f 49/49/49 59/59/59 50/50/50
f 49/49/49 58/58/58 59/59/59
f 50/50/50 60/60/60 51/51/51
f 50/50/50 59/59/59 60/60/60
f 51/51/51 61/61/61 52/52/52
f 51/51/51 60/60/60 61/61/61
f 52/52/52 62/62/62 53/53/53
f 52/52/52 61/61/61 62/62/62
f 53/53/53 63/63/63 54/54/54
f 53/53/53 62/62/62 63/63/63
f 55/55/55 65/65/65 56/56/56
f 55/55/55 64/64/64 65/65/65
f 56/56/56 66/66/66 57/57/57
f 56/56/56 65/65/65 66/66/66
f 57/57/57 67/67/67 58/58/58
f 57/57/57 66/66/66 67/67/67
f 58/58/58 68/68/68 59/59/59
f 58/58/58 67/67/67 68/68/68
f 59/59/59 69/69/69 60/60/60
f 59/59/59 68/68/68 69/69/69
f 60/60/60 70/70/70 61/61/61
f 60/60/60 69/69/69 70/70/70
f 61/61/61 71/71/71 62/62/62
f 61/61/61 70/70/70 71/71/71
f 62/62/62 72/72/72 63/63/63
f 62/62/62 71/71/71 72/72/72
f 64/64/64 74/74/74 65/65/65
f 64/64/64 73/73/73 74/74/74
f 65/65/65 75/75/75 66/66/66
f 65/65/65 74/74/74 75/75/75
f 66/66/66 76/76/76 67/67/67
f 66/66/66 75/75/75 76/76/76
f 67/67/67 77/77/77 68/68/68
f 67/67/67 76/76/76 77/77/77
f 68/68/68 78/78/78 69/69/69
f 68/68/68 77/77/77 78/78/78
f 69/69/69 79/79/79 70/70/70
f 69/69/69 78/78/78 79/79/79
f 70/70/70 80/80/80 71/71/71
f 70/70/70 79/79/79 80/80/80
f 71/71/71 81/81/81 72/72/72
f 71/71/71 80/80/80 81/81/81
f 73/73/73 83/83/83 74/74/74
f 73/73/73 82/82/82 83/83/83
f 74/74/74 84/84/84 75/75/75
f 74/74/74 83/83/83 84/84/84
f 75/75/75 85/85/85 76/76/76
f 75/75/75 84/84/84 85/85/85
f 76/76/76 86/86/86 77/77/77
f 76/76/76 85/85/85 86/86/86
f 77/77/77 87/87/87 78/78/78
f 77/77/77 86/86/86 87/87/87
f 78/78/78 88/88/88 79/79/79
f 78/78/78 87/87/87 88/88/88
f 79/79/79 89/89/89 80/80/80
f 79/79/79 88/88/88 89/89/89
f 80/80/80 90/90/90 81/81/81
f 80/80/80 89/89/89 90/90/90
f 82/82/82 92/92/92 83/83/83
f 82/82/82 91/91/91 92/92/92
f 83/83/83 93/93/93 84/84/84
f 83/83/83 92/92/92 93/93/93
f 84/84/84 94/94/94 85/85/85
f 84/84/84 93/93/93 94/94/94
f 85/85/85 95/95/95 86/86/86
f 85/85/85 94/94/94 95/95/95
f 86/86/86 96/96/96 87/87/87
f 86/86/86 95/95/95 96/96/96
f 87/87/87 97/97/97 88/88/88
f 87/87/87 96/96/96 97/97/97
f 88/88/88 98/98/98 89/89/89
f 88/88/88 97/97/97 98/98/98
f 89/89/89 99/99/99 90/90/90
f 89/89/89 98/98/98 99/99/99
f 91/91/91 101/101/101 92/92/92
f 91/91/91 100/100/100 101/101/101
f 92/92/92 102/102/102 93/93/93
f 92/92/92 101/101/101 102/102/102
f 93/93/93 103/103/103 94/94/94
f 93/93/93 102/102/102 103/103/103
f 94/94/94 104/104/104 95/95/95
f 94/94/94 103/103/103 104/104/104
f 95/95/95 105/105/105 96/96/96
f 95/95/95 104/104/104 105/105/105
f 96/96/96 106/106/106 97/97/97
f 96/96/96 105/105/105 106/106/106
f 97/97/97 107/107/107 98/98/98
f 97/97/97 106/106/106 107/107/107
f 98/98/98 108/108/108 99/99/99
f 98/98/98 107/107/107 108/108/108
f 100/100/100 110/110/110 101/101/101
f 100/100/100 109/109/109 110/110/110
f 101/101/101 111/111/111 102/102/102
f 101/101/101 110/110/110 111/111/111
f 102/102/102 112/112/112 103/103/103
f 102/102/102 111/111/111 112/112/112
f 103/103/103 113/113/113 104/104/104
f 103/103/103 112/112/112 113/113/113
f 104/104/104 114/114/114 105/105/105
f 104/104/104 113/113/113 114/114/114
f 105/105/105 115/115/115 106/106/106
f 105/105/105 114/114/114 115/115/115
f 106/106/106 116/116/116 107/107/107
f 106/106/106 115/115/115 116/116/116
f 107/107/107 117/117/117 108/108/108
f 107/107/107 116/116/116 117/117/117
f 109/109/109 119/119/119 110/110/110
f 109/109/109 118/118/118 119/119/119
f 110/110/110 120/120/120 111/111/111
f 110/110/110 119/119/119 120/120/120
f 111/111/111 121/121/121 112/112/112
f 111/111/111 120/120/120 121/121/121
f 112/112/112 122/122/122 113/113/113
f 112/112/112 121/121/121 122/122/122
f 113/113/113 123/123/123 114/114/114
f 113/113/113 122/122/122 123/123/123
f 114/114/114 124/124/124 115/115/115
f 114/114/114 123/123/123 124/124/124
f 115/115/115 125/125/125 116/116/116
f 115/115/115 124/124/124 125/125/125
f 116/116/116 126/126/126 117/117/117
f 116/116/116 125/125/125 126/126/126
f 118/118/118 128/128/128 119/119/119
f 118/118/118 127/127/127 128/128/128
f 119/119/119 129/129/129 120/120/120
f 119/119/119 128/128/128 129/129/129
f 120/120/120 130/130/130 121/121/121
f 120/120/120 129/129/129 130/130/130
f 121/121/121 131/131/131 122/122/122
f 121/121/121 130/130/130 131/131/131
f 122/122/122 132/132/132 123/123/123
f 122/122/122 131/131/131 132/132/132
f 123/123/123 133/133/133 124/124/124
f 123/123/123 132/132/132 133/133/133
f 124/124/124 134/134/134 125/125/125
f 124/124/124 133/133/133 134/134/134
f 125/125/125 135/135/135 126/126/126
f 125/125/125 134/134/134 135/135/135
f 127/127/127 137/137/137 128/128/128
f 127/127/127 136/136/136 137/137/137
f 128/128/128 138/138/138 129/129/129
f 128/128/128 137/137/137 138/138/138
f 129/129/129 139/139/139 130/130/130
f 129/129/129 138/138/138 139/139/139
f 130/130/130 140/140/140 131/131/131
f 130/130/130 139/139/139 140/140/140
f 131/131/131 141/141/141 132/132/132
f 131/131/131 140/140/140 141/141/141
f 132/132/132 142/142/142 133/133/133
f 132/132/132 141/141/141 142/142/142
f 133/133/133 143/143/143 134/134/134
f 133/133/133 142/142/142 143/143/143
f 134/134/134 144/144/144 135/135/135
f 134/134/134 143/143/143 144/144/144
f 136/136/136 146/146/146 137/137/137
f 136/136/136 145/145/145 146/146/146
f 137/137/137 147/147/147 138/138/138
f 137/137/137 146/146/146 147/147/147
f 138/138/138 148/148/148 139/139/139
f 138/138/138 147/147/147 148/148/148
f 139/139/139 149/149/149 140/140/140
f 139/139/139 148/148/148 149/149/149
f 140/140/140 150/150/150 141/141/141
f 140/140/140 149/149/149 150/150/150
f 141/141/141 151/151/151 142/142/142
f 141/141/141 150/150/150 151/151/151
f 142/142/142 152/152/152 143/143/143
f 142/142/142 151/151/151 152/152/152
f 143/143/143 153/153/153 144/144/144
f 143/143/143 152/152/152 153/153/153
