# Native 3D geometry in metres. Partial staff head; CPU source, not a render.
o S08
v 0.0140000004321 1.44649999994 -3.06161692944e-19
v 0.0129343131557 1.44649999994 -0.00535756815225
v 0.00989949516952 1.44649999994 -0.00989949516952
v 0.00535756815225 1.44649999994 -0.0129343131557
v 8.57252763722e-19 1.44649999994 -0.0140000004321
v -0.00535756815225 1.44649999994 -0.0129343131557
v -0.00989949516952 1.44649999994 -0.00989949516952
v -0.0129343131557 1.44649999994 -0.00535756815225
v -0.0140000004321 1.44649999994 -2.02066722039e-18
v -0.0129343131557 1.44649999994 0.00535756815225
v -0.00989949516952 1.44649999994 0.00989949516952
v -0.00535756815225 1.44649999994 0.0129343131557
v -2.57175829117e-18 1.44649999994 0.0140000004321
v 0.00535756815225 1.44649999994 0.0129343131557
v 0.00989949516952 1.44649999994 0.00989949516952
v 0.0129343131557 1.44649999994 0.00535756815225
v 0.0144999995828 1.44700000003 -3.67394042938e-19
v 0.0133962528780 1.44700000003 -0.00554890977219
v 0.0102530485019 1.44700000003 -0.0102530485019
v 0.00554890977219 1.44700000003 -0.0133962528780
v 8.87868889542e-19 1.44700000003 -0.0144999995828
v -0.00554890977219 1.44700000003 -0.0133962528780
v -0.0102530485019 1.44700000003 -0.0102530485019
v -0.0133962528780 1.44700000003 -0.00554890977219
v -0.0144999995828 1.44700000003 -2.14313182202e-18
v -0.0133962528780 1.44700000003 0.00554890977219
v -0.0102530485019 1.44700000003 0.0102530485019
v -0.00554890977219 1.44700000003 0.0133962528780
v -2.66360677202e-18 1.44700000003 0.0144999995828
v 0.00554890977219 1.44700000003 0.0133962528780
v 0.0102530485019 1.44700000003 0.0102530485019
v 0.0133962528780 1.44700000003 0.00554890977219
v 0.0192000009120 1.44700000003 -3.67394042938e-19
v 0.0177384875715 1.44700000003 -0.00734752183780
v 0.0135764498264 1.44700000003 -0.0135764498264
v 0.00734752183780 1.44700000003 -0.0177384875715
v 1.17566094788e-18 1.44700000003 -0.0192000009120
v -0.00734752183780 1.44700000003 -0.0177384875715
v -0.0135764498264 1.44700000003 -0.0135764498264
v -0.0177384875715 1.44700000003 -0.00734752183780
v -0.0192000009120 1.44700000003 -2.71871593869e-18
v -0.0177384875715 1.44700000003 0.00734752183780
v -0.0135764498264 1.44700000003 0.0135764498264
v -0.00734752183780 1.44700000003 0.0177384875715
v -3.52698274023e-18 1.44700000003 0.0192000009120
v 0.00734752183780 1.44700000003 0.0177384875715
v 0.0135764498264 1.44700000003 0.0135764498264
v 0.0177384875715 1.44700000003 0.00734752183780
v 0.0199999995530 1.44619999999 -2.69422294353e-19
v 0.0184775907546 1.44619999999 -0.00765366852283
v 0.0141421351582 1.44619999999 -0.0141421351582
v 0.00765366852283 1.44619999999 -0.0184775907546
v 1.22464679055e-18 1.44619999999 -0.0199999995530
v -0.00765366852283 1.44619999999 -0.0184775907546
v -0.0141421351582 1.44619999999 -0.0141421351582
v -0.0184775907546 1.44619999999 -0.00765366852283
v -0.0199999995530 1.44619999999 -2.71871587545e-18
v -0.0184775907546 1.44619999999 0.00765366852283
v -0.0141421351582 1.44619999999 0.0141421351582
v -0.00765366852283 1.44619999999 0.0184775907546
v -3.67394047504e-18 1.44619999999 0.0199999995530
v 0.00765366852283 1.44619999999 0.0184775907546
v 0.0141421351582 1.44619999999 0.0141421351582
v 0.0184775907546 1.44619999999 0.00765366852283
v 0.0199999995530 1.44180000001 2.69422294353e-19
v 0.0184775907546 1.44180000001 -0.00765366852283
v 0.0141421351582 1.44180000001 -0.0141421351582
v 0.00765366852283 1.44180000001 -0.0184775907546
v 1.22464679055e-18 1.44180000001 -0.0199999995530
v -0.00765366852283 1.44180000001 -0.0184775907546
v -0.0141421351582 1.44180000001 -0.0141421351582
v -0.0184775907546 1.44180000001 -0.00765366852283
v -0.0199999995530 1.44180000001 -2.17987128674e-18
v -0.0184775907546 1.44180000001 0.00765366852283
v -0.0141421351582 1.44180000001 0.0141421351582
v -0.00765366852283 1.44180000001 0.0184775907546
v -3.67394047504e-18 1.44180000001 0.0199999995530
v 0.00765366852283 1.44180000001 0.0184775907546
v 0.0141421351582 1.44180000001 0.0141421351582
v 0.0184775907546 1.44180000001 0.00765366852283
v 0.0192000009120 1.44099999997 3.67394042938e-19
v 0.0177384875715 1.44099999997 -0.00734752183780
v 0.0135764498264 1.44099999997 -0.0135764498264
v 0.00734752183780 1.44099999997 -0.0177384875715
v 1.17566094788e-18 1.44099999997 -0.0192000009120
v -0.00734752183780 1.44099999997 -0.0177384875715
v -0.0135764498264 1.44099999997 -0.0135764498264
v -0.0177384875715 1.44099999997 -0.00734752183780
v -0.0192000009120 1.44099999997 -1.98392785281e-18
v -0.0177384875715 1.44099999997 0.00734752183780
v -0.0135764498264 1.44099999997 0.0135764498264
v -0.00734752183780 1.44099999997 0.0177384875715
v -3.52698274023e-18 1.44099999997 0.0192000009120
v 0.00734752183780 1.44099999997 0.0177384875715
v 0.0135764498264 1.44099999997 0.0135764498264
v 0.0177384875715 1.44099999997 0.00734752183780
v 0.0144999995828 1.44099999997 3.67394042938e-19
v 0.0133962528780 1.44099999997 -0.00554890977219
v 0.0102530485019 1.44099999997 -0.0102530485019
v 0.00554890977219 1.44099999997 -0.0133962528780
v 8.87868889542e-19 1.44099999997 -0.0144999995828
v -0.00554890977219 1.44099999997 -0.0133962528780
v -0.0102530485019 1.44099999997 -0.0102530485019
v -0.0133962528780 1.44099999997 -0.00554890977219
v -0.0144999995828 1.44099999997 -1.40834373615e-18
v -0.0133962528780 1.44099999997 0.00554890977219
v -0.0102530485019 1.44099999997 0.0102530485019
v -0.00554890977219 1.44099999997 0.0133962528780
v -2.66360677202e-18 1.44099999997 0.0144999995828
v 0.00554890977219 1.44099999997 0.0133962528780
v 0.0102530485019 1.44099999997 0.0102530485019
v 0.0133962528780 1.44099999997 0.00554890977219
v 0.0140000004321 1.44150000006 3.06161692944e-19
v 0.0129343131557 1.44150000006 -0.00535756815225
v 0.00989949516952 1.44150000006 -0.00989949516952
v 0.00535756815225 1.44150000006 -0.0129343131557
v 8.57252763722e-19 1.44150000006 -0.0140000004321
v -0.00535756815225 1.44150000006 -0.0129343131557
v -0.00989949516952 1.44150000006 -0.00989949516952
v -0.0129343131557 1.44150000006 -0.00535756815225
v -0.0140000004321 1.44150000006 -1.40834383450e-18
v -0.0129343131557 1.44150000006 0.00535756815225
v -0.00989949516952 1.44150000006 0.00989949516952
v -0.00535756815225 1.44150000006 0.0129343131557
v -2.57175829117e-18 1.44150000006 0.0140000004321
v 0.00535756815225 1.44150000006 0.0129343131557
v 0.00989949516952 1.44150000006 0.00989949516952
v 0.0129343131557 1.44150000006 0.00535756815225
v 0.0140000004321 1.44299999995 1.22464685731e-19
v 0.0129343131557 1.44299999995 -0.00535756815225
v 0.00989949516952 1.44299999995 -0.00989949516952
v 0.00535756815225 1.44299999995 -0.0129343131557
v 8.57252763722e-19 1.44299999995 -0.0140000004321
v -0.00535756815225 1.44299999995 -0.0129343131557
v -0.00989949516952 1.44299999995 -0.00989949516952
v -0.0129343131557 1.44299999995 -0.00535756815225
v -0.0140000004321 1.44299999995 -1.59204084171e-18
v -0.0129343131557 1.44299999995 0.00535756815225
v -0.00989949516952 1.44299999995 0.00989949516952
v -0.00535756815225 1.44299999995 0.0129343131557
v -2.57175829117e-18 1.44299999995 0.0140000004321
v 0.00535756815225 1.44299999995 0.0129343131557
v 0.00989949516952 1.44299999995 0.00989949516952
v 0.0129343131557 1.44299999995 0.00535756815225
v 0.0149999996647 1.44299999995 1.22464685731e-19
v 0.0138581926003 1.44299999995 -0.00574025139213
v 0.0106066018343 1.44299999995 -0.0106066018343
v 0.00574025139213 1.44299999995 -0.0138581926003
v 9.18485118759e-19 1.44299999995 -0.0149999996647
v -0.00574025139213 1.44299999995 -0.0138581926003
v -0.0106066018343 1.44299999995 -0.0106066018343
v -0.0138581926003 1.44299999995 -0.00574025139213
v -0.0149999996647 1.44299999995 -1.71450555179e-18
v -0.0138581926003 1.44299999995 0.00574025139213
v -0.0106066018343 1.44299999995 0.0106066018343
v -0.00574025139213 1.44299999995 0.0138581926003
v -2.75545525288e-18 1.44299999995 0.0149999996647
v 0.00574025139213 1.44299999995 0.0138581926003
v 0.0106066018343 1.44299999995 0.0106066018343
v 0.0138581926003 1.44299999995 0.00574025139213
v 0.0149999996647 1.44500000005 -1.22464685731e-19
v 0.0138581926003 1.44500000005 -0.00574025139213
v 0.0106066018343 1.44500000005 -0.0106066018343
v 0.00574025139213 1.44500000005 -0.0138581926003
v 9.18485118759e-19 1.44500000005 -0.0149999996647
v -0.00574025139213 1.44500000005 -0.0138581926003
v -0.0106066018343 1.44500000005 -0.0106066018343
v -0.0138581926003 1.44500000005 -0.00574025139213
v -0.0149999996647 1.44500000005 -1.95943492325e-18
v -0.0138581926003 1.44500000005 0.00574025139213
v -0.0106066018343 1.44500000005 0.0106066018343
v -0.00574025139213 1.44500000005 0.0138581926003
v -2.75545525288e-18 1.44500000005 0.0149999996647
v 0.00574025139213 1.44500000005 0.0138581926003
v 0.0106066018343 1.44500000005 0.0106066018343
v 0.0138581926003 1.44500000005 0.00574025139213
v 0.0140000004321 1.44500000005 -1.22464685731e-19
v 0.0129343131557 1.44500000005 -0.00535756815225
v 0.00989949516952 1.44500000005 -0.00989949516952
v 0.00535756815225 1.44500000005 -0.0129343131557
v 8.57252763722e-19 1.44500000005 -0.0140000004321
v -0.00535756815225 1.44500000005 -0.0129343131557
v -0.00989949516952 1.44500000005 -0.00989949516952
v -0.0129343131557 1.44500000005 -0.00535756815225
v -0.0140000004321 1.44500000005 -1.83697021318e-18
v -0.0129343131557 1.44500000005 0.00535756815225
v -0.00989949516952 1.44500000005 0.00989949516952
v -0.00535756815225 1.44500000005 0.0129343131557
v -2.57175829117e-18 1.44500000005 0.0140000004321
v 0.00535756815225 1.44500000005 0.0129343131557
v 0.00989949516952 1.44500000005 0.00989949516952
v 0.0129343131557 1.44500000005 0.00535756815225
vt 0 0
vt 0.0625 0
vt 0.125 0
vt 0.1875 0
vt 0.25 0
vt 0.3125 0
vt 0.375 0
vt 0.4375 0
vt 0.5 0
vt 0.5625 0
vt 0.625 0
vt 0.6875 0
vt 0.75 0
vt 0.8125 0
vt 0.875 0
vt 0.9375 0
vt 0 0.0833333358168602
vt 0.0625 0.0833333358168602
vt 0.125 0.0833333358168602
vt 0.1875 0.0833333358168602
vt 0.25 0.0833333358168602
vt 0.3125 0.0833333358168602
vt 0.375 0.0833333358168602
vt 0.4375 0.0833333358168602
vt 0.5 0.0833333358168602
vt 0.5625 0.0833333358168602
vt 0.625 0.0833333358168602
vt 0.6875 0.0833333358168602
vt 0.75 0.0833333358168602
vt 0.8125 0.0833333358168602
vt 0.875 0.0833333358168602
vt 0.9375 0.0833333358168602
vt 0 0.1666666716337204
vt 0.0625 0.1666666716337204
vt 0.125 0.1666666716337204
vt 0.1875 0.1666666716337204
vt 0.25 0.1666666716337204
vt 0.3125 0.1666666716337204
vt 0.375 0.1666666716337204
vt 0.4375 0.1666666716337204
vt 0.5 0.1666666716337204
vt 0.5625 0.1666666716337204
vt 0.625 0.1666666716337204
vt 0.6875 0.1666666716337204
vt 0.75 0.1666666716337204
vt 0.8125 0.1666666716337204
vt 0.875 0.1666666716337204
vt 0.9375 0.1666666716337204
vt 0 0.25
vt 0.0625 0.25
vt 0.125 0.25
vt 0.1875 0.25
vt 0.25 0.25
vt 0.3125 0.25
vt 0.375 0.25
vt 0.4375 0.25
vt 0.5 0.25
vt 0.5625 0.25
vt 0.625 0.25
vt 0.6875 0.25
vt 0.75 0.25
vt 0.8125 0.25
vt 0.875 0.25
vt 0.9375 0.25
vt 0 0.3333333432674408
vt 0.0625 0.3333333432674408
vt 0.125 0.3333333432674408
vt 0.1875 0.3333333432674408
vt 0.25 0.3333333432674408
vt 0.3125 0.3333333432674408
vt 0.375 0.3333333432674408
vt 0.4375 0.3333333432674408
vt 0.5 0.3333333432674408
vt 0.5625 0.3333333432674408
vt 0.625 0.3333333432674408
vt 0.6875 0.3333333432674408
vt 0.75 0.3333333432674408
vt 0.8125 0.3333333432674408
vt 0.875 0.3333333432674408
vt 0.9375 0.3333333432674408
vt 0 0.4166666567325592
vt 0.0625 0.4166666567325592
vt 0.125 0.4166666567325592
vt 0.1875 0.4166666567325592
vt 0.25 0.4166666567325592
vt 0.3125 0.4166666567325592
vt 0.375 0.4166666567325592
vt 0.4375 0.4166666567325592
vt 0.5 0.4166666567325592
vt 0.5625 0.4166666567325592
vt 0.625 0.4166666567325592
vt 0.6875 0.4166666567325592
vt 0.75 0.4166666567325592
vt 0.8125 0.4166666567325592
vt 0.875 0.4166666567325592
vt 0.9375 0.4166666567325592
vt 0 0.5
vt 0.0625 0.5
vt 0.125 0.5
vt 0.1875 0.5
vt 0.25 0.5
vt 0.3125 0.5
vt 0.375 0.5
vt 0.4375 0.5
vt 0.5 0.5
vt 0.5625 0.5
vt 0.625 0.5
vt 0.6875 0.5
vt 0.75 0.5
vt 0.8125 0.5
vt 0.875 0.5
vt 0.9375 0.5
vt 0 0.5833333134651184
vt 0.0625 0.5833333134651184
vt 0.125 0.5833333134651184
vt 0.1875 0.5833333134651184
vt 0.25 0.5833333134651184
vt 0.3125 0.5833333134651184
vt 0.375 0.5833333134651184
vt 0.4375 0.5833333134651184
vt 0.5 0.5833333134651184
vt 0.5625 0.5833333134651184
vt 0.625 0.5833333134651184
vt 0.6875 0.5833333134651184
vt 0.75 0.5833333134651184
vt 0.8125 0.5833333134651184
vt 0.875 0.5833333134651184
vt 0.9375 0.5833333134651184
vt 0 0.6666666865348816
vt 0.0625 0.6666666865348816
vt 0.125 0.6666666865348816
vt 0.1875 0.6666666865348816
vt 0.25 0.6666666865348816
vt 0.3125 0.6666666865348816
vt 0.375 0.6666666865348816
vt 0.4375 0.6666666865348816
vt 0.5 0.6666666865348816
vt 0.5625 0.6666666865348816
vt 0.625 0.6666666865348816
vt 0.6875 0.6666666865348816
vt 0.75 0.6666666865348816
vt 0.8125 0.6666666865348816
vt 0.875 0.6666666865348816
vt 0.9375 0.6666666865348816
vt 0 0.75
vt 0.0625 0.75
vt 0.125 0.75
vt 0.1875 0.75
vt 0.25 0.75
vt 0.3125 0.75
vt 0.375 0.75
vt 0.4375 0.75
vt 0.5 0.75
vt 0.5625 0.75
vt 0.625 0.75
vt 0.6875 0.75
vt 0.75 0.75
vt 0.8125 0.75
vt 0.875 0.75
vt 0.9375 0.75
vt 0 0.8333333134651184
vt 0.0625 0.8333333134651184
vt 0.125 0.8333333134651184
vt 0.1875 0.8333333134651184
vt 0.25 0.8333333134651184
vt 0.3125 0.8333333134651184
vt 0.375 0.8333333134651184
vt 0.4375 0.8333333134651184
vt 0.5 0.8333333134651184
vt 0.5625 0.8333333134651184
vt 0.625 0.8333333134651184
vt 0.6875 0.8333333134651184
vt 0.75 0.8333333134651184
vt 0.8125 0.8333333134651184
vt 0.875 0.8333333134651184
vt 0.9375 0.8333333134651184
vt 0 0.9166666865348816
vt 0.0625 0.9166666865348816
vt 0.125 0.9166666865348816
vt 0.1875 0.9166666865348816
vt 0.25 0.9166666865348816
vt 0.3125 0.9166666865348816
vt 0.375 0.9166666865348816
vt 0.4375 0.9166666865348816
vt 0.5 0.9166666865348816
vt 0.5625 0.9166666865348816
vt 0.625 0.9166666865348816
vt 0.6875 0.9166666865348816
vt 0.75 0.9166666865348816
vt 0.8125 0.9166666865348816
vt 0.875 0.9166666865348816
vt 0.9375 0.9166666865348816
vn -0.969152671901 0.244444753392 0.0314620578705
vn -0.883340303477 0.244444863211 0.399945767702
vn -0.663047370146 0.244444980056 0.707541402794
vn -0.341811530282 0.244444990783 0.907420257790
vn 0.0314620543781 0.244444725399 0.969152679075
vn 0.399945767702 0.244444863211 0.883340303477
vn 0.707541402794 0.244444980056 0.663047370146
vn 0.907420257790 0.244444990783 0.341811530282
vn 0.969152679075 0.244444725399 -0.0314620543781
vn 0.883340303477 0.244444863211 -0.399945767702
vn 0.663047370146 0.244444980056 -0.707541402794
vn 0.341811530282 0.244444990783 -0.907420257790
vn -0.0314620543781 0.244444725399 -0.969152679075
vn -0.399945767702 0.244444863211 -0.883340303477
vn -0.707541402794 0.244444980056 -0.663047370146
vn -0.907420257790 0.244444990783 -0.341811530282
vn -0.0863544123290 0.996248783879 0.00559250313160
vn -0.0776409210426 0.996248783800 0.0382131934979
vn -0.0571073033404 0.996248782533 0.0650162995418
vn -0.0278796107080 0.996248783479 0.0819212348747
vn 0.00559250313160 0.996248783879 0.0863544123290
vn 0.0382131934979 0.996248783800 0.0776409210426
vn 0.0650162995418 0.996248782533 0.0571073033404
vn 0.0819212348747 0.996248783479 0.0278796107080
vn 0.0863544123290 0.996248783879 -0.00559250313160
vn 0.0776409210426 0.996248783800 -0.0382131934979
vn 0.0571073033404 0.996248782533 -0.0650162995418
vn 0.0278796107080 0.996248783479 -0.0819212348747
vn -0.00559250313160 0.996248783879 -0.0863544123290
vn -0.0382131934979 0.996248783800 -0.0776409210426
vn -0.0650162995418 0.996248782533 -0.0571073033404
vn -0.0819212348747 0.996248783479 -0.0278796107080
vn 0.156233652376 0.987662785566 0.0106427380100
vn 0.148413880463 0.987662784241 -0.0499554272438
vn 0.117999433415 0.987662783367 -0.102948336872
vn 0.0696206461174 0.987662786263 -0.140268265357
vn 0.0106427380100 0.987662785566 -0.156233652376
vn -0.0499554272438 0.987662784241 -0.148413880463
vn -0.102948336872 0.987662783367 -0.117999433415
vn -0.140268265357 0.987662786263 -0.0696206461174
vn -0.156233652376 0.987662785566 -0.0106427380100
vn -0.148413880463 0.987662784241 0.0499554272438
vn -0.117999433415 0.987662783367 0.102948336872
vn -0.0696206461174 0.987662786263 0.140268265357
vn -0.0106427380100 0.987662785566 0.156233652376
vn 0.0499554272438 0.987662784241 0.148413880463
vn 0.102948336872 0.987662783367 0.117999433415
vn 0.140268265357 0.987662786263 0.0696206461174
vn 0.987589915816 0.150219026284 0.0458301464106
vn 0.929952536657 0.150219153268 -0.335592737641
vn 0.730738287862 0.150219188304 -0.665924733073
vn 0.420275867327 0.150219082955 -0.894875646366
vn 0.0458301501281 0.150219026258 -0.987589915648
vn -0.335592737641 0.150219153268 -0.929952536657
vn -0.665924733073 0.150219188304 -0.730738287862
vn -0.894875646366 0.150219082955 -0.420275867327
vn -0.987589915648 0.150219026258 -0.0458301501281
vn -0.929952536657 0.150219153268 0.335592737641
vn -0.730738287862 0.150219188304 0.665924733073
vn -0.420275867327 0.150219082955 0.894875646366
vn -0.0458301501281 0.150219026258 0.987589915648
vn 0.335592737641 0.150219153268 0.929952536657
vn 0.665924733073 0.150219188304 0.730738287862
vn 0.894875646366 0.150219082955 0.420275867327
vn 0.987589915985 -0.150219026309 -0.0458301426931
vn 0.894875646366 -0.150219082955 -0.420275867327
vn 0.665924733073 -0.150219188304 -0.730738287862
vn 0.335592737641 -0.150219153268 -0.929952536657
vn -0.0458301464106 -0.150219026284 -0.987589915816
vn -0.420275867327 -0.150219082955 -0.894875646366
vn -0.730738287862 -0.150219188304 -0.665924733073
vn -0.929952536657 -0.150219153268 -0.335592737641
vn -0.987589915816 -0.150219026284 0.0458301464106
vn -0.894875646366 -0.150219082955 0.420275867327
vn -0.665924733073 -0.150219188304 0.730738287862
vn -0.335592737641 -0.150219153268 0.929952536657
vn 0.0458301464106 -0.150219026284 0.987589915816
vn 0.420275867327 -0.150219082955 0.894875646366
vn 0.730738287862 -0.150219188304 0.665924733073
vn 0.929952536657 -0.150219153268 0.335592737641
vn 0.156233637840 -0.987662787876 -0.0106427371035
vn 0.140268236214 -0.987662790904 -0.0696206389940
vn 0.102948336872 -0.987662783367 -0.117999433415
vn 0.0499554309598 -0.987662784057 -0.148413880435
vn -0.0106427380100 -0.987662785566 -0.156233652376
vn -0.0696206389940 -0.987662790904 -0.140268236214
vn -0.117999433415 -0.987662783367 -0.102948336872
vn -0.148413880435 -0.987662784057 -0.0499554309598
vn -0.156233652376 -0.987662785566 0.0106427380100
vn -0.140268236214 -0.987662790904 0.0696206389940
vn -0.102948336872 -0.987662783367 0.117999433415
vn -0.0499554309598 -0.987662784057 0.148413880435
vn 0.0106427380100 -0.987662785566 0.156233652376
vn 0.0696206389940 -0.987662790904 0.140268236214
vn 0.117999433415 -0.987662783367 0.102948336872
vn 0.148413880435 -0.987662784057 0.0499554309598
vn -0.0863544197240 -0.996248783238 -0.00559250312800
vn -0.0819212496674 -0.996248782159 0.0278796143964
vn -0.0650162995141 -0.996248782109 0.0571073107667
vn -0.0382131934979 -0.996248783800 0.0776409210426
vn -0.00559250266955 -0.996248784522 0.0863544049342
vn 0.0278796143964 -0.996248782159 0.0819212496674
vn 0.0571073107667 -0.996248782109 0.0650162995141
vn 0.0776409210426 -0.996248783800 0.0382131934979
vn 0.0863544049342 -0.996248784522 0.00559250266955
vn 0.0819212496674 -0.996248782159 -0.0278796143964
vn 0.0650162995141 -0.996248782109 -0.0571073107667
vn 0.0382131934979 -0.996248783800 -0.0776409210426
vn 0.00559250266955 -0.996248784522 -0.0863544049342
vn -0.0278796143964 -0.996248782159 -0.0819212496674
vn -0.0571073107667 -0.996248782109 -0.0650162995141
vn -0.0776409210426 -0.996248783800 -0.0382131934979
vn -0.969152672015 -0.244444753421 -0.0314620541489
vn -0.907420257790 -0.244444990783 0.341811530282
vn -0.707541400217 -0.244444994067 0.663047367731
vn -0.399945767702 -0.244444863211 0.883340303477
vn -0.0314620578705 -0.244444753392 0.969152671901
vn 0.341811530282 -0.244444990783 0.907420257790
vn 0.663047367731 -0.244444994067 0.707541400217
vn 0.883340303477 -0.244444863211 0.399945767702
vn 0.969152671901 -0.244444753392 0.0314620578705
vn 0.907420257790 -0.244444990783 -0.341811530282
vn 0.707541400217 -0.244444994067 -0.663047367731
vn 0.399945767702 -0.244444863211 -0.883340303477
vn 0.0314620578705 -0.244444753392 -0.969152671901
vn -0.341811530282 -0.244444990783 -0.907420257790
vn -0.663047367731 -0.244444994067 -0.707541400217
vn -0.883340303477 -0.244444863211 -0.399945767702
vn -0.824714248869 0.562899891286 0.0546819906575
vn -0.741010669908 0.562900009821 0.366123976307
vn -0.544494937312 0.562900077109 0.621826958592
vn -0.265084924476 0.562900070968 0.782862371633
vn 0.0546819869433 0.562899891401 0.824714249037
vn 0.366123976307 0.562900009821 0.741010669908
vn 0.621826958592 0.562900077109 0.544494937312
vn 0.782862371633 0.562900070968 0.265084924476
vn 0.824714249037 0.562899891401 -0.0546819869433
vn 0.741010669908 0.562900009821 -0.366123976307
vn 0.544494937312 0.562900077109 -0.621826958592
vn 0.265084924476 0.562900070968 -0.782862371633
vn -0.0546819869433 0.562899891401 -0.824714249037
vn -0.366123976307 0.562900009821 -0.741010669908
vn -0.621826958592 0.562900077109 -0.544494937312
vn -0.782862371633 0.562900070968 -0.265084924476
vn -0.896794876988 0.438432793348 -0.0594612001656
vn -0.851285181648 0.438432943262 0.288253523429
vn -0.676175122346 0.438432964849 0.592084233242
vn -0.398123439301 0.438432838280 0.805775634651
vn -0.0594612075899 0.438432793153 0.896794876591
vn 0.288253523429 0.438432943262 0.851285181648
vn 0.592084233242 0.438432964849 0.676175122346
vn 0.805775634651 0.438432838280 0.398123439301
vn 0.896794876591 0.438432793153 0.0594612075899
vn 0.851285181648 0.438432943262 -0.288253523429
vn 0.676175122346 0.438432964849 -0.592084233242
vn 0.398123439301 0.438432838280 -0.805775634651
vn 0.0594612075899 0.438432793153 -0.896794876591
vn -0.288253523429 0.438432943262 -0.851285181648
vn -0.592084233242 0.438432964849 -0.676175122346
vn -0.805775634651 0.438432838280 -0.398123439301
vn -0.896794876591 -0.438432793153 0.0594612075899
vn -0.805775593657 -0.438432878208 0.398123478298
vn -0.592084287424 -0.438432901229 0.676175116153
vn -0.288253481476 -0.438432924782 0.851285205371
vn 0.0594612001656 -0.438432793348 0.896794876988
vn 0.398123478298 -0.438432878208 0.805775593657
vn 0.676175116153 -0.438432901229 0.592084287424
vn 0.851285205371 -0.438432924782 0.288253481476
vn 0.896794876988 -0.438432793348 -0.0594612001656
vn 0.805775593657 -0.438432878208 -0.398123478298
vn 0.592084287424 -0.438432901229 -0.676175116153
vn 0.288253481476 -0.438432924782 -0.851285205371
vn -0.0594612001656 -0.438432793348 -0.896794876988
vn -0.398123478298 -0.438432878208 -0.805775593657
vn -0.676175116153 -0.438432901229 -0.592084287424
vn -0.851285205371 -0.438432924782 -0.288253481476
vn -0.824714249037 -0.562899891401 -0.0546819869433
vn -0.782862365448 -0.562900066521 0.265084952185
vn -0.621826958592 -0.562900077109 0.544494937312
vn -0.366123972420 -0.562899944240 0.741010721646
vn -0.0546819906575 -0.562899891286 0.824714248869
vn 0.265084952185 -0.562900066521 0.782862365448
vn 0.544494937312 -0.562900077109 0.621826958592
vn 0.741010721646 -0.562899944240 0.366123972420
vn 0.824714248869 -0.562899891286 0.0546819906575
vn 0.782862365448 -0.562900066521 -0.265084952185
vn 0.621826958592 -0.562900077109 -0.544494937312
vn 0.366123972420 -0.562899944240 -0.741010721646
vn 0.0546819906575 -0.562899891286 -0.824714248869
vn -0.265084952185 -0.562900066521 -0.782862365448
vn -0.544494937312 -0.562900077109 -0.621826958592
vn -0.741010721646 -0.562899944240 -0.366123972420
f 1/1/1 17/17/17 2/2/2
f 2/2/2 17/17/17 18/18/18
f 2/2/2 18/18/18 3/3/3
f 3/3/3 18/18/18 19/19/19
f 3/3/3 19/19/19 4/4/4
f 4/4/4 19/19/19 20/20/20
f 4/4/4 20/20/20 5/5/5
f 5/5/5 20/20/20 21/21/21
f 5/5/5 21/21/21 6/6/6
f 6/6/6 21/21/21 22/22/22
f 6/6/6 22/22/22 7/7/7
f 7/7/7 22/22/22 23/23/23
f 7/7/7 23/23/23 8/8/8
f 8/8/8 23/23/23 24/24/24
f 8/8/8 24/24/24 9/9/9
f 9/9/9 24/24/24 25/25/25
f 9/9/9 25/25/25 10/10/10
f 10/10/10 25/25/25 26/26/26
f 10/10/10 26/26/26 11/11/11
f 11/11/11 26/26/26 27/27/27
f 11/11/11 27/27/27 12/12/12
f 12/12/12 27/27/27 28/28/28
f 12/12/12 28/28/28 13/13/13
f 13/13/13 28/28/28 29/29/29
f 13/13/13 29/29/29 14/14/14
f 14/14/14 29/29/29 30/30/30
f 14/14/14 30/30/30 15/15/15
f 15/15/15 30/30/30 31/31/31
f 15/15/15 31/31/31 16/16/16
f 16/16/16 31/31/31 32/32/32
f 16/16/16 32/32/32 1/1/1
f 1/1/1 32/32/32 17/17/17
f 17/17/17 33/33/33 18/18/18
f 18/18/18 33/33/33 34/34/34
f 18/18/18 34/34/34 19/19/19
f 19/19/19 34/34/34 35/35/35
f 19/19/19 35/35/35 20/20/20
f 20/20/20 35/35/35 36/36/36
f 20/20/20 36/36/36 21/21/21
f 21/21/21 36/36/36 37/37/37
f 21/21/21 37/37/37 22/22/22
f 22/22/22 37/37/37 38/38/38
f 22/22/22 38/38/38 23/23/23
f 23/23/23 38/38/38 39/39/39
f 23/23/23 39/39/39 24/24/24
f 24/24/24 39/39/39 40/40/40
f 24/24/24 40/40/40 25/25/25
f 25/25/25 40/40/40 41/41/41
f 25/25/25 41/41/41 26/26/26
f 26/26/26 41/41/41 42/42/42
f 26/26/26 42/42/42 27/27/27
f 27/27/27 42/42/42 43/43/43
f 27/27/27 43/43/43 28/28/28
f 28/28/28 43/43/43 44/44/44
f 28/28/28 44/44/44 29/29/29
f 29/29/29 44/44/44 45/45/45
f 29/29/29 45/45/45 30/30/30
f 30/30/30 45/45/45 46/46/46
f 30/30/30 46/46/46 31/31/31
f 31/31/31 46/46/46 47/47/47
f 31/31/31 47/47/47 32/32/32
f 32/32/32 47/47/47 48/48/48
f 32/32/32 48/48/48 17/17/17
f 17/17/17 48/48/48 33/33/33
f 33/33/33 49/49/49 34/34/34
f 34/34/34 49/49/49 50/50/50
f 34/34/34 50/50/50 35/35/35
f 35/35/35 50/50/50 51/51/51
f 35/35/35 51/51/51 36/36/36
f 36/36/36 51/51/51 52/52/52
f 36/36/36 52/52/52 37/37/37
f 37/37/37 52/52/52 53/53/53
f 37/37/37 53/53/53 38/38/38
f 38/38/38 53/53/53 54/54/54
f 38/38/38 54/54/54 39/39/39
f 39/39/39 54/54/54 55/55/55
f 39/39/39 55/55/55 40/40/40
f 40/40/40 55/55/55 56/56/56
f 40/40/40 56/56/56 41/41/41
f 41/41/41 56/56/56 57/57/57
f 41/41/41 57/57/57 42/42/42
f 42/42/42 57/57/57 58/58/58
f 42/42/42 58/58/58 43/43/43
f 43/43/43 58/58/58 59/59/59
f 43/43/43 59/59/59 44/44/44
f 44/44/44 59/59/59 60/60/60
f 44/44/44 60/60/60 45/45/45
f 45/45/45 60/60/60 61/61/61
f 45/45/45 61/61/61 46/46/46
f 46/46/46 61/61/61 62/62/62
f 46/46/46 62/62/62 47/47/47
f 47/47/47 62/62/62 63/63/63
f 47/47/47 63/63/63 48/48/48
f 48/48/48 63/63/63 64/64/64
f 48/48/48 64/64/64 33/33/33
f 33/33/33 64/64/64 49/49/49
f 49/49/49 65/65/65 50/50/50
f 50/50/50 65/65/65 66/66/66
f 50/50/50 66/66/66 51/51/51
f 51/51/51 66/66/66 67/67/67
f 51/51/51 67/67/67 52/52/52
f 52/52/52 67/67/67 68/68/68
f 52/52/52 68/68/68 53/53/53
f 53/53/53 68/68/68 69/69/69
f 53/53/53 69/69/69 54/54/54
f 54/54/54 69/69/69 70/70/70
f 54/54/54 70/70/70 55/55/55
f 55/55/55 70/70/70 71/71/71
f 55/55/55 71/71/71 56/56/56
f 56/56/56 71/71/71 72/72/72
f 56/56/56 72/72/72 57/57/57
f 57/57/57 72/72/72 73/73/73
f 57/57/57 73/73/73 58/58/58
f 58/58/58 73/73/73 74/74/74
f 58/58/58 74/74/74 59/59/59
f 59/59/59 74/74/74 75/75/75
f 59/59/59 75/75/75 60/60/60
f 60/60/60 75/75/75 76/76/76
f 60/60/60 76/76/76 61/61/61
f 61/61/61 76/76/76 77/77/77
f 61/61/61 77/77/77 62/62/62
f 62/62/62 77/77/77 78/78/78
f 62/62/62 78/78/78 63/63/63
f 63/63/63 78/78/78 79/79/79
f 63/63/63 79/79/79 64/64/64
f 64/64/64 79/79/79 80/80/80
f 64/64/64 80/80/80 49/49/49
f 49/49/49 80/80/80 65/65/65
f 65/65/65 81/81/81 66/66/66
f 66/66/66 81/81/81 82/82/82
f 66/66/66 82/82/82 67/67/67
f 67/67/67 82/82/82 83/83/83
f 67/67/67 83/83/83 68/68/68
f 68/68/68 83/83/83 84/84/84
f 68/68/68 84/84/84 69/69/69
f 69/69/69 84/84/84 85/85/85
f 69/69/69 85/85/85 70/70/70
f 70/70/70 85/85/85 86/86/86
f 70/70/70 86/86/86 71/71/71
f 71/71/71 86/86/86 87/87/87
f 71/71/71 87/87/87 72/72/72
f 72/72/72 87/87/87 88/88/88
f 72/72/72 88/88/88 73/73/73
f 73/73/73 88/88/88 89/89/89
f 73/73/73 89/89/89 74/74/74
f 74/74/74 89/89/89 90/90/90
f 74/74/74 90/90/90 75/75/75
f 75/75/75 90/90/90 91/91/91
f 75/75/75 91/91/91 76/76/76
f 76/76/76 91/91/91 92/92/92
f 76/76/76 92/92/92 77/77/77
f 77/77/77 92/92/92 93/93/93
f 77/77/77 93/93/93 78/78/78
f 78/78/78 93/93/93 94/94/94
f 78/78/78 94/94/94 79/79/79
f 79/79/79 94/94/94 95/95/95
f 79/79/79 95/95/95 80/80/80
f 80/80/80 95/95/95 96/96/96
f 80/80/80 96/96/96 65/65/65
f 65/65/65 96/96/96 81/81/81
f 81/81/81 97/97/97 82/82/82
f 82/82/82 97/97/97 98/98/98
f 82/82/82 98/98/98 83/83/83
f 83/83/83 98/98/98 99/99/99
f 83/83/83 99/99/99 84/84/84
f 84/84/84 99/99/99 100/100/100
f 84/84/84 100/100/100 85/85/85
f 85/85/85 100/100/100 101/101/101
f 85/85/85 101/101/101 86/86/86
f 86/86/86 101/101/101 102/102/102
f 86/86/86 102/102/102 87/87/87
f 87/87/87 102/102/102 103/103/103
f 87/87/87 103/103/103 88/88/88
f 88/88/88 103/103/103 104/104/104
f 88/88/88 104/104/104 89/89/89
f 89/89/89 104/104/104 105/105/105
f 89/89/89 105/105/105 90/90/90
f 90/90/90 105/105/105 106/106/106
f 90/90/90 106/106/106 91/91/91
f 91/91/91 106/106/106 107/107/107
f 91/91/91 107/107/107 92/92/92
f 92/92/92 107/107/107 108/108/108
f 92/92/92 108/108/108 93/93/93
f 93/93/93 108/108/108 109/109/109
f 93/93/93 109/109/109 94/94/94
f 94/94/94 109/109/109 110/110/110
f 94/94/94 110/110/110 95/95/95
f 95/95/95 110/110/110 111/111/111
f 95/95/95 111/111/111 96/96/96
f 96/96/96 111/111/111 112/112/112
f 96/96/96 112/112/112 81/81/81
f 81/81/81 112/112/112 97/97/97
f 97/97/97 113/113/113 98/98/98
f 98/98/98 113/113/113 114/114/114
f 98/98/98 114/114/114 99/99/99
f 99/99/99 114/114/114 115/115/115
f 99/99/99 115/115/115 100/100/100
f 100/100/100 115/115/115 116/116/116
f 100/100/100 116/116/116 101/101/101
f 101/101/101 116/116/116 117/117/117
f 101/101/101 117/117/117 102/102/102
f 102/102/102 117/117/117 118/118/118
f 102/102/102 118/118/118 103/103/103
f 103/103/103 118/118/118 119/119/119
f 103/103/103 119/119/119 104/104/104
f 104/104/104 119/119/119 120/120/120
f 104/104/104 120/120/120 105/105/105
f 105/105/105 120/120/120 121/121/121
f 105/105/105 121/121/121 106/106/106
f 106/106/106 121/121/121 122/122/122
f 106/106/106 122/122/122 107/107/107
f 107/107/107 122/122/122 123/123/123
f 107/107/107 123/123/123 108/108/108
f 108/108/108 123/123/123 124/124/124
f 108/108/108 124/124/124 109/109/109
f 109/109/109 124/124/124 125/125/125
f 109/109/109 125/125/125 110/110/110
f 110/110/110 125/125/125 126/126/126
f 110/110/110 126/126/126 111/111/111
f 111/111/111 126/126/126 127/127/127
f 111/111/111 127/127/127 112/112/112
f 112/112/112 127/127/127 128/128/128
f 112/112/112 128/128/128 97/97/97
f 97/97/97 128/128/128 113/113/113
f 113/113/113 129/129/129 114/114/114
f 114/114/114 129/129/129 130/130/130
f 114/114/114 130/130/130 115/115/115
f 115/115/115 130/130/130 131/131/131
f 115/115/115 131/131/131 116/116/116
f 116/116/116 131/131/131 132/132/132
f 116/116/116 132/132/132 117/117/117
f 117/117/117 132/132/132 133/133/133
f 117/117/117 133/133/133 118/118/118
f 118/118/118 133/133/133 134/134/134
f 118/118/118 134/134/134 119/119/119
f 119/119/119 134/134/134 135/135/135
f 119/119/119 135/135/135 120/120/120
f 120/120/120 135/135/135 136/136/136
f 120/120/120 136/136/136 121/121/121
f 121/121/121 136/136/136 137/137/137
f 121/121/121 137/137/137 122/122/122
f 122/122/122 137/137/137 138/138/138
f 122/122/122 138/138/138 123/123/123
f 123/123/123 138/138/138 139/139/139
f 123/123/123 139/139/139 124/124/124
f 124/124/124 139/139/139 140/140/140
f 124/124/124 140/140/140 125/125/125
f 125/125/125 140/140/140 141/141/141
f 125/125/125 141/141/141 126/126/126
f 126/126/126 141/141/141 142/142/142
f 126/126/126 142/142/142 127/127/127
f 127/127/127 142/142/142 143/143/143
f 127/127/127 143/143/143 128/128/128
f 128/128/128 143/143/143 144/144/144
f 128/128/128 144/144/144 113/113/113
f 113/113/113 144/144/144 129/129/129
f 129/129/129 145/145/145 130/130/130
f 130/130/130 145/145/145 146/146/146
f 130/130/130 146/146/146 131/131/131
f 131/131/131 146/146/146 147/147/147
f 131/131/131 147/147/147 132/132/132
f 132/132/132 147/147/147 148/148/148
f 132/132/132 148/148/148 133/133/133
f 133/133/133 148/148/148 149/149/149
f 133/133/133 149/149/149 134/134/134
f 134/134/134 149/149/149 150/150/150
f 134/134/134 150/150/150 135/135/135
f 135/135/135 150/150/150 151/151/151
f 135/135/135 151/151/151 136/136/136
f 136/136/136 151/151/151 152/152/152
f 136/136/136 152/152/152 137/137/137
f 137/137/137 152/152/152 153/153/153
f 137/137/137 153/153/153 138/138/138
f 138/138/138 153/153/153 154/154/154
f 138/138/138 154/154/154 139/139/139
f 139/139/139 154/154/154 155/155/155
f 139/139/139 155/155/155 140/140/140
f 140/140/140 155/155/155 156/156/156
f 140/140/140 156/156/156 141/141/141
f 141/141/141 156/156/156 157/157/157
f 141/141/141 157/157/157 142/142/142
f 142/142/142 157/157/157 158/158/158
f 142/142/142 158/158/158 143/143/143
f 143/143/143 158/158/158 159/159/159
f 143/143/143 159/159/159 144/144/144
f 144/144/144 159/159/159 160/160/160
f 144/144/144 160/160/160 129/129/129
f 129/129/129 160/160/160 145/145/145
f 145/145/145 161/161/161 146/146/146
f 146/146/146 161/161/161 162/162/162
f 146/146/146 162/162/162 147/147/147
f 147/147/147 162/162/162 163/163/163
f 147/147/147 163/163/163 148/148/148
f 148/148/148 163/163/163 164/164/164
f 148/148/148 164/164/164 149/149/149
f 149/149/149 164/164/164 165/165/165
f 149/149/149 165/165/165 150/150/150
f 150/150/150 165/165/165 166/166/166
f 150/150/150 166/166/166 151/151/151
f 151/151/151 166/166/166 167/167/167
f 151/151/151 167/167/167 152/152/152
f 152/152/152 167/167/167 168/168/168
f 152/152/152 168/168/168 153/153/153
f 153/153/153 168/168/168 169/169/169
f 153/153/153 169/169/169 154/154/154
f 154/154/154 169/169/169 170/170/170
f 154/154/154 170/170/170 155/155/155
f 155/155/155 170/170/170 171/171/171
f 155/155/155 171/171/171 156/156/156
f 156/156/156 171/171/171 172/172/172
f 156/156/156 172/172/172 157/157/157
f 157/157/157 172/172/172 173/173/173
f 157/157/157 173/173/173 158/158/158
f 158/158/158 173/173/173 174/174/174
f 158/158/158 174/174/174 159/159/159
f 159/159/159 174/174/174 175/175/175
f 159/159/159 175/175/175 160/160/160
f 160/160/160 175/175/175 176/176/176
f 160/160/160 176/176/176 145/145/145
f 145/145/145 176/176/176 161/161/161
f 161/161/161 177/177/177 162/162/162
f 162/162/162 177/177/177 178/178/178
f 162/162/162 178/178/178 163/163/163
f 163/163/163 178/178/178 179/179/179
f 163/163/163 179/179/179 164/164/164
f 164/164/164 179/179/179 180/180/180
f 164/164/164 180/180/180 165/165/165
f 165/165/165 180/180/180 181/181/181
f 165/165/165 181/181/181 166/166/166
f 166/166/166 181/181/181 182/182/182
f 166/166/166 182/182/182 167/167/167
f 167/167/167 182/182/182 183/183/183
f 167/167/167 183/183/183 168/168/168
f 168/168/168 183/183/183 184/184/184
f 168/168/168 184/184/184 169/169/169
f 169/169/169 184/184/184 185/185/185
f 169/169/169 185/185/185 170/170/170
f 170/170/170 185/185/185 186/186/186
f 170/170/170 186/186/186 171/171/171
f 171/171/171 186/186/186 187/187/187
f 171/171/171 187/187/187 172/172/172
f 172/172/172 187/187/187 188/188/188
f 172/172/172 188/188/188 173/173/173
f 173/173/173 188/188/188 189/189/189
f 173/173/173 189/189/189 174/174/174
f 174/174/174 189/189/189 190/190/190
f 174/174/174 190/190/190 175/175/175
f 175/175/175 190/190/190 191/191/191
f 175/175/175 191/191/191 176/176/176
f 176/176/176 191/191/191 192/192/192
f 176/176/176 192/192/192 161/161/161
f 161/161/161 192/192/192 177/177/177
f 177/177/177 1/1/1 178/178/178
f 178/178/178 1/1/1 2/2/2
f 178/178/178 2/2/2 179/179/179
f 179/179/179 2/2/2 3/3/3
f 179/179/179 3/3/3 180/180/180
f 180/180/180 3/3/3 4/4/4
f 180/180/180 4/4/4 181/181/181
f 181/181/181 4/4/4 5/5/5
f 181/181/181 5/5/5 182/182/182
f 182/182/182 5/5/5 6/6/6
f 182/182/182 6/6/6 183/183/183
f 183/183/183 6/6/6 7/7/7
f 183/183/183 7/7/7 184/184/184
f 184/184/184 7/7/7 8/8/8
f 184/184/184 8/8/8 185/185/185
f 185/185/185 8/8/8 9/9/9
f 185/185/185 9/9/9 186/186/186
f 186/186/186 9/9/9 10/10/10
f 186/186/186 10/10/10 187/187/187
f 187/187/187 10/10/10 11/11/11
f 187/187/187 11/11/11 188/188/188
f 188/188/188 11/11/11 12/12/12
f 188/188/188 12/12/12 189/189/189
f 189/189/189 12/12/12 13/13/13
f 189/189/189 13/13/13 190/190/190
f 190/190/190 13/13/13 14/14/14
f 190/190/190 14/14/14 191/191/191
f 191/191/191 14/14/14 15/15/15
f 191/191/191 15/15/15 192/192/192
f 192/192/192 15/15/15 16/16/16
f 192/192/192 16/16/16 177/177/177
f 177/177/177 16/16/16 1/1/1
