# Native 3D geometry in metres. Partial staff head; CPU source, not a render.
o S16
v 0.00000000000 1.66199999875 0.00000000000
v 0.0111936582252 1.66199999875 0.00347742391750
v 0.0121159283444 1.66199999875 0.00000000000
v 0.00856725499034 1.66199999875 0.00642544124275
v 0.00463656522334 1.66199999875 0.00839524343610
v 7.41886659171e-19 1.66199999875 0.00908694602549
v -0.00463656522334 1.66199999875 0.00839524343610
v -0.00856725499034 1.66199999875 0.00642544124275
v -0.0111936582252 1.66199999875 0.00347742391750
v -0.0121159283444 1.66199999875 1.11282996291e-18
v -0.0111936582252 1.66199999875 -0.00347742391750
v -0.00856725499034 1.66199999875 -0.00642544124275
v -0.00463656522334 1.66199999875 -0.00839524343610
v -2.22565992582e-18 1.66199999875 -0.00908694602549
v 0.00463656522334 1.66199999875 -0.00839524343610
v 0.00856725499034 1.66199999875 -0.00642544124275
v 0.0111936582252 1.66199999875 -0.00347742391750
v 0.0134585900232 1.66128591275 0.00000000000
v 0.0124341165647 1.66128591275 0.00386278470978
v 0.00856725499034 1.66199999875 0.00642544124275
v 0.00951666012406 1.66128591275 0.00713749555871
v 0.00856725499034 1.66199999875 0.00642544124275
v 0.00463656522334 1.66199999875 0.00839524343610
v 0.00951666012406 1.66128591275 0.00713749555871
v 0.00515037961304 1.66128591275 0.00932558719069
v 0.00463656522334 1.66199999875 0.00839524343610
v 7.41886659171e-19 1.66199999875 0.00908694602549
v 0.00515037961304 1.66128591275 0.00932558719069
v 8.24100967434e-19 1.66128591275 0.0100939432159
v 7.41886659171e-19 1.66199999875 0.00908694602549
v -0.00463656522334 1.66199999875 0.00839524343610
v -0.00515037961304 1.66128591275 0.00932558719069
v -0.00463656522334 1.66199999875 0.00839524343610
v -0.00856725499034 1.66199999875 0.00642544124275
v -0.00515037961304 1.66128591275 0.00932558719069
v -0.00951666012406 1.66128591275 0.00713749555871
v -0.00856725499034 1.66199999875 0.00642544124275
v -0.00951666012406 1.66128591275 0.00713749555871
v -0.0124341165647 1.66128591275 0.00386278470978
v -0.0134585900232 1.66128591275 1.23615142530e-18
v -0.0124341165647 1.66128591275 -0.00386278470978
v -0.00856725499034 1.66199999875 -0.00642544124275
v -0.00951666012406 1.66128591275 -0.00713749555871
v -0.00856725499034 1.66199999875 -0.00642544124275
v -0.00463656522334 1.66199999875 -0.00839524343610
v -0.00951666012406 1.66128591275 -0.00713749555871
v -0.00515037961304 1.66128591275 -0.00932558719069
v -0.00463656522334 1.66199999875 -0.00839524343610
v -2.22565992582e-18 1.66199999875 -0.00908694602549
v -0.00515037961304 1.66128591275 -0.00932558719069
v -2.47230285060e-18 1.66128591275 -0.0100939432159
v -2.22565992582e-18 1.66199999875 -0.00908694602549
v 0.00463656522334 1.66199999875 -0.00839524343610
v 0.00515037961304 1.66128591275 -0.00932558719069
v 0.00463656522334 1.66199999875 -0.00839524343610
v 0.00856725499034 1.66199999875 -0.00642544124275
v 0.00515037961304 1.66128591275 -0.00932558719069
v 0.00951666012406 1.66128591275 -0.00713749555871
v 0.00856725499034 1.66199999875 -0.00642544124275
v 0.00951666012406 1.66128591275 -0.00713749555871
v 0.0124341165647 1.66128591275 -0.00386278470978
v 0.0198995377868 1.65670286691 0.00000000000
v 0.0183847770095 1.65670286691 0.00571141764522
v 0.0140710985288 1.65670286691 0.0105533236638
v 0.00951666012406 1.66128591275 0.00713749555871
v 0.00761522352695 1.65670286691 0.0137885818258
v 0.00515037961304 1.66128591275 0.00932558719069
v 1.21849525513e-18 1.65670286691 0.0149246538058
v -0.00515037961304 1.66128591275 0.00932558719069
v -0.00761522352695 1.65670286691 0.0137885818258
v -0.00951666012406 1.66128591275 0.00713749555871
v -0.0140710985288 1.65670286691 0.0105533236638
v -0.0183847770095 1.65670286691 0.00571141764522
v -0.0198995377868 1.65670286691 1.82774303779e-18
v -0.0183847770095 1.65670286691 -0.00571141764522
v -0.0140710985288 1.65670286691 -0.0105533236638
v -0.00951666012406 1.66128591275 -0.00713749555871
v -0.00761522352695 1.65670286691 -0.0137885818258
v -0.00515037961304 1.66128591275 -0.00932558719069
v -3.65548607557e-18 1.65670286691 -0.0149246538058
v 0.00515037961304 1.66128591275 -0.00932558719069
v 0.00761522352695 1.65670286691 -0.0137885818258
v 0.00951666012406 1.66128591275 -0.00713749555871
v 0.0140710985288 1.65670286691 -0.0105533236638
v 0.0183847770095 1.65670286691 -0.00571141764522
v 0.0260000005364 1.65039677000 0.00000000000
v 0.0240208674222 1.65039677000 0.00746232690290
v 0.0183847770095 1.65670286691 0.00571141764522
v 0.0240208674222 1.65039677000 0.00746232690290
v 0.0183847770095 1.65039677000 0.0137885818258
v 0.00994976889342 1.65039677000 0.0180156510323
v 1.59204081737e-18 1.65039677000 0.0195000004023
v -0.00994976889342 1.65039677000 0.0180156510323
v -0.0183847770095 1.65039677000 0.0137885818258
v -0.0183847770095 1.65670286691 0.00571141764522
v -0.0240208674222 1.65039677000 0.00746232690290
v -0.0240208674222 1.65039677000 0.00746232690290
v -0.0260000005364 1.65039677000 2.38806132945e-18
v -0.0240208674222 1.65039677000 -0.00746232690290
v -0.0183847770095 1.65670286691 -0.00571141764522
v -0.0240208674222 1.65039677000 -0.00746232690290
v -0.0183847770095 1.65039677000 -0.0137885818258
v -0.00994976889342 1.65039677000 -0.0180156510323
v -4.77612265891e-18 1.65039677000 -0.0195000004023
v 0.00994976889342 1.65039677000 -0.0180156510323
v 0.0183847770095 1.65039677000 -0.0137885818258
v 0.0183847770095 1.65670286691 -0.00571141764522
v 0.0240208674222 1.65039677000 -0.00746232690290
v 0.0240208674222 1.65039677000 -0.00746232690290
v 0.0316555947065 1.64247551388 0.00000000000
v 0.0292459558696 1.64247551388 0.00908555369824
v 0.0292459558696 1.64247551388 0.00908555369824
v 0.0223838854581 1.64247551388 0.0167879145592
v 0.0121140712872 1.64247551388 0.0219344664365
v 1.93834618467e-18 1.64247551388 0.0237416960299
v -0.0121140712872 1.64247551388 0.0219344664365
v -0.0223838854581 1.64247551388 0.0167879145592
v -0.0292459558696 1.64247551388 0.00908555369824
v -0.0292459558696 1.64247551388 0.00908555369824
v -0.0316555947065 1.64247551388 2.90751917361e-18
v -0.0292459558696 1.64247551388 -0.00908555369824
v -0.0292459558696 1.64247551388 -0.00908555369824
v -0.0223838854581 1.64247551388 -0.0167879145592
v -0.0121140712872 1.64247551388 -0.0219344664365
v -5.81503834722e-18 1.64247551388 -0.0237416960299
v 0.0121140712872 1.64247551388 -0.0219344664365
v 0.0223838854581 1.64247551388 -0.0167879145592
v 0.0292459558696 1.64247551388 -0.00908555369824
v 0.0292459558696 1.64247551388 -0.00908555369824
v 0.0367695540190 1.63307463950 0.00000000000
v 0.0339706353843 1.63307463950 0.0105533236638
v 0.0260000005364 1.63307463950 0.0195000004023
v 0.0140710985288 1.63307463950 0.0254779774696
v 2.25148574531e-18 1.63307463950 0.0275771636516
v -0.0140710985288 1.63307463950 0.0254779774696
v -0.0260000005364 1.63307463950 0.0195000004023
v -0.0339706353843 1.63307463950 0.0105533236638
v -0.0367695540190 1.63307463950 3.37722872136e-18
v -0.0339706353843 1.63307463950 -0.0105533236638
v -0.0260000005364 1.63307463950 -0.0195000004023
v -0.0140710985288 1.63307463950 -0.0254779774696
v -6.75445744273e-18 1.63307463950 -0.0275771636516
v 0.0140710985288 1.63307463950 -0.0254779774696
v 0.0260000005364 1.63307463950 -0.0195000004023
v 0.0339706353843 1.63307463950 -0.0105533236638
v 0.0412543751299 1.62235499746 0.00000000000
v 0.0381140708923 1.62235499746 0.0118405241519
v 0.0291712470353 1.62235499746 0.0218784362078
v 0.0157873649150 1.62235499746 0.0285855531693
v 2.52610185046e-18 1.62235499746 0.0309407804161
v -0.0157873649150 1.62235499746 0.0285855531693
v -0.0291712470353 1.62235499746 0.0218784362078
v -0.0381140708923 1.62235499746 0.0118405241519
v -0.0412543751299 1.62235499746 3.78915267230e-18
v -0.0381140708923 1.62235499746 -0.0118405241519
v -0.0291712470353 1.62235499746 -0.0218784362078
v -0.0157873649150 1.62235499746 -0.0285855531693
v -7.57830534459e-18 1.62235499746 -0.0309407804161
v 0.0157873649150 1.62235499746 -0.0285855531693
v 0.0291712470353 1.62235499746 -0.0218784362078
v 0.0381140708923 1.62235499746 -0.0118405241519
v 0.0450333207846 1.61049999869 0.00000000000
v 0.0416053645313 1.61049999869 0.0129251293838
v 0.0318433679640 1.61049999869 0.0238825250417
v 0.0172335058451 1.61049999869 0.0312040224671
v 2.75749570066e-18 1.61049999869 0.0337749905884
v -0.0172335058451 1.61049999869 0.0312040224671
v -0.0318433679640 1.61049999869 0.0238825250417
v -0.0416053645313 1.61049999869 0.0129251293838
v -0.0450333207846 1.61049999869 4.13624344759e-18
v -0.0416053645313 1.61049999869 -0.0129251293838
v -0.0318433679640 1.61049999869 -0.0238825250417
v -0.0172335058451 1.61049999869 -0.0312040224671
v -8.27248689517e-18 1.61049999869 -0.0337749905884
v 0.0172335058451 1.61049999869 -0.0312040224671
v 0.0318433679640 1.61049999869 -0.0238825250417
v 0.0416053645313 1.61049999869 -0.0129251293838
v 0.0480417348444 1.59771249270 0.00000000000
v 0.0443847775459 1.59771249270 0.0137885818258
v 0.0339706353843 1.59771249270 0.0254779774696
v 0.0183847770095 1.59771249270 0.0332885831594
v 2.94170778910e-18 1.59771249270 0.0360313020647
v -0.0183847770095 1.59771249270 0.0332885831594
v -0.0339706353843 1.59771249270 0.0254779774696
v -0.0443847775459 1.59771249270 0.0137885818258
v -0.0480417348444 1.59771249270 4.41256189044e-18
v -0.0443847775459 1.59771249270 -0.0137885818258
v -0.0339706353843 1.59771249270 -0.0254779774696
v -0.0183847770095 1.59771249270 -0.0332885831594
v -8.82512378088e-18 1.59771249270 -0.0360313020647
v 0.0183847770095 1.59771249270 -0.0332885831594
v 0.0339706353843 1.59771249270 -0.0254779774696
v 0.0443847775459 1.59771249270 -0.0137885818258
v 0.0502281412482 1.58421127512 0.00000000000
v 0.0464047528803 1.58421127512 0.0144161088392
v 0.0355166606605 1.58421127512 0.0266374945641
v 0.0192214790732 1.58421127512 0.0348035655916
v 3.07558676444e-18 1.58421127512 0.0376711077988
v -0.0192214790732 1.58421127512 0.0348035655916
v -0.0355166606605 1.58421127512 0.0266374945641
v -0.0464047528803 1.58421127512 0.0144161088392
v -0.0502281412482 1.58421127512 4.61338025006e-18
v -0.0464047528803 1.58421127512 -0.0144161088392
v -0.0355166606605 1.58421127512 -0.0266374945641
v -0.0192214790732 1.58421127512 -0.0348035655916
v -9.22676050012e-18 1.58421127512 -0.0376711077988
v 0.0192214790732 1.58421127512 -0.0348035655916
v 0.0355166606605 1.58421127512 -0.0266374945641
v 0.0464047528803 1.58421127512 -0.0144161088392
v 0.0515551343560 1.57022735490 0.00000000000
v 0.0476307310164 1.57022735490 0.0147969713435
v 0.0364549830556 1.57022735490 0.0273412372917
v 0.0197292957455 1.57022735490 0.0357230491936
v 3.15684133640e-18 1.57022735490 0.0386663489044
v -0.0197292957455 1.57022735490 0.0357230491936
v -0.0364549830556 1.57022735490 0.0273412372917
v -0.0476307310164 1.57022735490 0.0147969713435
v -0.0515551343560 1.57022735490 4.73526200460e-18
v -0.0476307310164 1.57022735490 -0.0147969713435
v -0.0364549830556 1.57022735490 -0.0273412372917
v -0.0197292957455 1.57022735490 -0.0357230491936
v -9.47052400920e-18 1.57022735490 -0.0386663489044
v 0.0197292957455 1.57022735490 -0.0357230491936
v 0.0364549830556 1.57022735490 -0.0273412372917
v 0.0476307310164 1.57022735490 -0.0147969713435
v 0.0520000010729 1.55600000000 0.00000000000
v 0.0480417348444 1.55600000000 0.0149246538058
v 0.0367695540190 1.55600000000 0.0275771636516
v 0.0198995377868 1.55600000000 0.0360313020647
v 3.18408163474e-18 1.55600000000 0.0390000008047
v -0.0198995377868 1.55600000000 0.0360313020647
v -0.0367695540190 1.55600000000 0.0275771636516
v -0.0480417348444 1.55600000000 0.0149246538058
v -0.0520000010729 1.55600000000 4.77612265891e-18
v -0.0480417348444 1.55600000000 -0.0149246538058
v -0.0367695540190 1.55600000000 -0.0275771636516
v -0.0198995377868 1.55600000000 -0.0360313020647
v -9.55224531782e-18 1.55600000000 -0.0390000008047
v 0.0198995377868 1.55600000000 -0.0360313020647
v 0.0367695540190 1.55600000000 -0.0275771636516
v 0.0480417348444 1.55600000000 -0.0149246538058
v 0.0515551343560 1.54177264510 0.00000000000
v 0.0476307310164 1.54177264510 0.0147969713435
v 0.0364549830556 1.54177264510 0.0273412372917
v 0.0197292957455 1.54177264510 0.0357230491936
v 3.15684133640e-18 1.54177264510 0.0386663489044
v -0.0197292957455 1.54177264510 0.0357230491936
v -0.0364549830556 1.54177264510 0.0273412372917
v -0.0476307310164 1.54177264510 0.0147969713435
v -0.0515551343560 1.54177264510 4.73526200460e-18
v -0.0476307310164 1.54177264510 -0.0147969713435
v -0.0364549830556 1.54177264510 -0.0273412372917
v -0.0197292957455 1.54177264510 -0.0357230491936
v -9.47052400920e-18 1.54177264510 -0.0386663489044
v 0.0197292957455 1.54177264510 -0.0357230491936
v 0.0364549830556 1.54177264510 -0.0273412372917
v 0.0476307310164 1.54177264510 -0.0147969713435
v 0.0502281412482 1.52778872488 0.00000000000
v 0.0464047528803 1.52778872488 0.0144161088392
v 0.0355166606605 1.52778872488 0.0266374945641
v 0.0192214790732 1.52778872488 0.0348035655916
v 3.07558676444e-18 1.52778872488 0.0376711077988
v -0.0192214790732 1.52778872488 0.0348035655916
v -0.0355166606605 1.52778872488 0.0266374945641
v -0.0464047528803 1.52778872488 0.0144161088392
v -0.0502281412482 1.52778872488 4.61338025006e-18
v -0.0464047528803 1.52778872488 -0.0144161088392
v -0.0355166606605 1.52778872488 -0.0266374945641
v -0.0192214790732 1.52778872488 -0.0348035655916
v -9.22676050012e-18 1.52778872488 -0.0376711077988
v 0.0192214790732 1.52778872488 -0.0348035655916
v 0.0355166606605 1.52778872488 -0.0266374945641
v 0.0464047528803 1.52778872488 -0.0144161088392
v 0.0480417348444 1.51428750730 0.00000000000
v 0.0443847775459 1.51428750730 0.0137885818258
v 0.0339706353843 1.51428750730 0.0254779774696
v 0.0183847770095 1.51428750730 0.0332885831594
v 2.94170778910e-18 1.51428750730 0.0360313020647
v -0.0183847770095 1.51428750730 0.0332885831594
v -0.0339706353843 1.51428750730 0.0254779774696
v -0.0443847775459 1.51428750730 0.0137885818258
v -0.0480417348444 1.51428750730 4.41256189044e-18
v -0.0443847775459 1.51428750730 -0.0137885818258
v -0.0339706353843 1.51428750730 -0.0254779774696
v -0.0183847770095 1.51428750730 -0.0332885831594
v -8.82512378088e-18 1.51428750730 -0.0360313020647
v 0.0183847770095 1.51428750730 -0.0332885831594
v 0.0339706353843 1.51428750730 -0.0254779774696
v 0.0443847775459 1.51428750730 -0.0137885818258
v 0.0450333207846 1.50150000131 0.00000000000
v 0.0416053645313 1.50150000131 0.0129251293838
v 0.0318433679640 1.50150000131 0.0238825250417
v 0.0172335058451 1.50150000131 0.0312040224671
v 2.75749570066e-18 1.50150000131 0.0337749905884
v -0.0172335058451 1.50150000131 0.0312040224671
v -0.0318433679640 1.50150000131 0.0238825250417
v -0.0416053645313 1.50150000131 0.0129251293838
v -0.0450333207846 1.50150000131 4.13624344759e-18
v -0.0416053645313 1.50150000131 -0.0129251293838
v -0.0318433679640 1.50150000131 -0.0238825250417
v -0.0172335058451 1.50150000131 -0.0312040224671
v -8.27248689517e-18 1.50150000131 -0.0337749905884
v 0.0172335058451 1.50150000131 -0.0312040224671
v 0.0318433679640 1.50150000131 -0.0238825250417
v 0.0416053645313 1.50150000131 -0.0129251293838
v 0.0412543751299 1.48964500254 0.00000000000
v 0.0381140708923 1.48964500254 0.0118405241519
v 0.0291712470353 1.48964500254 0.0218784362078
v 0.0157873649150 1.48964500254 0.0285855531693
v 2.52610185046e-18 1.48964500254 0.0309407804161
v -0.0157873649150 1.48964500254 0.0285855531693
v -0.0291712470353 1.48964500254 0.0218784362078
v -0.0381140708923 1.48964500254 0.0118405241519
v -0.0412543751299 1.48964500254 3.78915267230e-18
v -0.0381140708923 1.48964500254 -0.0118405241519
v -0.0291712470353 1.48964500254 -0.0218784362078
v -0.0157873649150 1.48964500254 -0.0285855531693
v -7.57830534459e-18 1.48964500254 -0.0309407804161
v 0.0157873649150 1.48964500254 -0.0285855531693
v 0.0291712470353 1.48964500254 -0.0218784362078
v 0.0381140708923 1.48964500254 -0.0118405241519
v 0.0367695540190 1.47892536050 0.00000000000
v 0.0339706353843 1.47892536050 0.0105533236638
v 0.0260000005364 1.47892536050 0.0195000004023
v 0.0140710985288 1.47892536050 0.0254779774696
v 2.25148574531e-18 1.47892536050 0.0275771636516
v -0.0140710985288 1.47892536050 0.0254779774696
v -0.0260000005364 1.47892536050 0.0195000004023
v -0.0339706353843 1.47892536050 0.0105533236638
v -0.0367695540190 1.47892536050 3.37722872136e-18
v -0.0339706353843 1.47892536050 -0.0105533236638
v -0.0260000005364 1.47892536050 -0.0195000004023
v -0.0140710985288 1.47892536050 -0.0254779774696
v -6.75445744273e-18 1.47892536050 -0.0275771636516
v 0.0140710985288 1.47892536050 -0.0254779774696
v 0.0260000005364 1.47892536050 -0.0195000004023
v 0.0339706353843 1.47892536050 -0.0105533236638
v 0.0316555947065 1.46952448612 0.00000000000
v 0.0292459558696 1.46952448612 0.00908555369824
v 0.0292459558696 1.46952448612 0.00908555369824
v 0.0223838854581 1.46952448612 0.0167879145592
v 0.0121140712872 1.46952448612 0.0219344664365
v 1.93834618467e-18 1.46952448612 0.0237416960299
v -0.0121140712872 1.46952448612 0.0219344664365
v -0.0223838854581 1.46952448612 0.0167879145592
v -0.0292459558696 1.46952448612 0.00908555369824
v -0.0292459558696 1.46952448612 0.00908555369824
v -0.0316555947065 1.46952448612 2.90751917361e-18
v -0.0292459558696 1.46952448612 -0.00908555369824
v -0.0292459558696 1.46952448612 -0.00908555369824
v -0.0223838854581 1.46952448612 -0.0167879145592
v -0.0121140712872 1.46952448612 -0.0219344664365
v -5.81503834722e-18 1.46952448612 -0.0237416960299
v 0.0121140712872 1.46952448612 -0.0219344664365
v 0.0223838854581 1.46952448612 -0.0167879145592
v 0.0292459558696 1.46952448612 -0.00908555369824
v 0.0292459558696 1.46952448612 -0.00908555369824
v 0.0260000005364 1.46160323000 0.00000000000
v 0.0240208674222 1.46160323000 0.00746232690290
v 0.0240208674222 1.46160323000 0.00746232690290
v 0.0183847770095 1.46160323000 0.0137885818258
v 0.00994976889342 1.46160323000 0.0180156510323
v 1.59204081737e-18 1.46160323000 0.0195000004023
v -0.00994976889342 1.46160323000 0.0180156510323
v -0.0183847770095 1.46160323000 0.0137885818258
v -0.0240208674222 1.46160323000 0.00746232690290
v -0.0240208674222 1.46160323000 0.00746232690290
v -0.0260000005364 1.46160323000 2.38806132945e-18
v -0.0240208674222 1.46160323000 -0.00746232690290
v -0.0240208674222 1.46160323000 -0.00746232690290
v -0.0183847770095 1.46160323000 -0.0137885818258
v -0.00994976889342 1.46160323000 -0.0180156510323
v -4.77612265891e-18 1.46160323000 -0.0195000004023
v 0.00994976889342 1.46160323000 -0.0180156510323
v 0.0183847770095 1.46160323000 -0.0137885818258
v 0.0240208674222 1.46160323000 -0.00746232690290
v 0.0240208674222 1.46160323000 -0.00746232690290
v 0.0198995377868 1.45529713309 0.00000000000
v 0.0183847770095 1.45529713309 0.00571141764522
v 0.0183847770095 1.45529713309 0.00571141764522
v 0.0140710985288 1.45529713309 0.0105533236638
v 0.00761522352695 1.45529713309 0.0137885818258
v 1.21849525513e-18 1.45529713309 0.0149246538058
v -0.00761522352695 1.45529713309 0.0137885818258
v -0.0140710985288 1.45529713309 0.0105533236638
v -0.0183847770095 1.45529713309 0.00571141764522
v -0.0183847770095 1.45529713309 0.00571141764522
v -0.0198995377868 1.45529713309 1.82774303779e-18
v -0.0183847770095 1.45529713309 -0.00571141764522
v -0.0183847770095 1.45529713309 -0.00571141764522
v -0.0140710985288 1.45529713309 -0.0105533236638
v -0.00761522352695 1.45529713309 -0.0137885818258
v -3.65548607557e-18 1.45529713309 -0.0149246538058
v 0.00761522352695 1.45529713309 -0.0137885818258
v 0.0140710985288 1.45529713309 -0.0105533236638
v 0.0183847770095 1.45529713309 -0.00571141764522
v 0.0183847770095 1.45529713309 -0.00571141764522
v 0.0134585900232 1.45071408725 0.00000000000
v 0.0124341165647 1.45071408725 0.00386278470978
v 0.00951666012406 1.45071408725 0.00713749555871
v 0.00951666012406 1.45071408725 0.00713749555871
v 0.00515037961304 1.45071408725 0.00932558719069
v 0.00515037961304 1.45071408725 0.00932558719069
v 8.24100967434e-19 1.45071408725 0.0100939432159
v -0.00515037961304 1.45071408725 0.00932558719069
v -0.00515037961304 1.45071408725 0.00932558719069
v -0.00951666012406 1.45071408725 0.00713749555871
v -0.00951666012406 1.45071408725 0.00713749555871
v -0.0124341165647 1.45071408725 0.00386278470978
v -0.0134585900232 1.45071408725 1.23615142530e-18
v -0.0124341165647 1.45071408725 -0.00386278470978
v -0.00951666012406 1.45071408725 -0.00713749555871
v -0.00951666012406 1.45071408725 -0.00713749555871
v -0.00515037961304 1.45071408725 -0.00932558719069
v -0.00515037961304 1.45071408725 -0.00932558719069
v -2.47230285060e-18 1.45071408725 -0.0100939432159
v 0.00515037961304 1.45071408725 -0.00932558719069
v 0.00515037961304 1.45071408725 -0.00932558719069
v 0.00951666012406 1.45071408725 -0.00713749555871
v 0.00951666012406 1.45071408725 -0.00713749555871
v 0.0124341165647 1.45071408725 -0.00386278470978
v 0.00828454643488 1.44839222556 0.00000000000
v 0.00765392323956 1.44839222556 0.00237776897848
v 0.00951666012406 1.45071408725 0.00713749555871
v 0.00765392323956 1.44839222556 0.00237776897848
v 0.00585805904120 1.44839222556 0.00439354451373
v 0.00951666012406 1.45071408725 0.00713749555871
v 0.00515037961304 1.45071408725 0.00932558719069
v 0.00585805904120 1.44839222556 0.00439354451373
v 0.00317035871558 1.44839222556 0.00574044231325
v 0.00515037961304 1.45071408725 0.00932558719069
v 0.00317035871558 1.44839222556 0.00574044231325
v 5.07282159128e-19 1.44839222556 0.00621340982616
v -0.00515037961304 1.45071408725 0.00932558719069
v -0.00317035871558 1.44839222556 0.00574044231325
v -0.00515037961304 1.45071408725 0.00932558719069
v -0.00951666012406 1.45071408725 0.00713749555871
v -0.00317035871558 1.44839222556 0.00574044231325
v -0.00585805904120 1.44839222556 0.00439354451373
v -0.00951666012406 1.45071408725 0.00713749555871
v -0.00585805904120 1.44839222556 0.00439354451373
v -0.00765392323956 1.44839222556 0.00237776897848
v -0.00765392323956 1.44839222556 0.00237776897848
v -0.00828454643488 1.44839222556 7.60923290391e-19
v -0.00828454643488 1.44839222556 7.60923290391e-19
v -0.00765392323956 1.44839222556 -0.00237776897848
v -0.00951666012406 1.45071408725 -0.00713749555871
v -0.00765392323956 1.44839222556 -0.00237776897848
v -0.00585805904120 1.44839222556 -0.00439354451373
v -0.00951666012406 1.45071408725 -0.00713749555871
v -0.00515037961304 1.45071408725 -0.00932558719069
v -0.00585805904120 1.44839222556 -0.00439354451373
v -0.00317035871558 1.44839222556 -0.00574044231325
v -0.00515037961304 1.45071408725 -0.00932558719069
v -0.00317035871558 1.44839222556 -0.00574044231325
v -1.52184658078e-18 1.44839222556 -0.00621340982616
v 0.00515037961304 1.45071408725 -0.00932558719069
v 0.00317035871558 1.44839222556 -0.00574044231325
v 0.00515037961304 1.45071408725 -0.00932558719069
v 0.00951666012406 1.45071408725 -0.00713749555871
v 0.00317035871558 1.44839222556 -0.00574044231325
v 0.00585805904120 1.44839222556 -0.00439354451373
v 0.00951666012406 1.45071408725 -0.00713749555871
v 0.00585805904120 1.44839222556 -0.00439354451373
v 0.00765392323956 1.44839222556 -0.00237776897848
v 0.00765392323956 1.44839222556 -0.00237776897848
v 0.00828454643488 1.44839222556 0.00000000000
v 0.00828454643488 1.44839222556 0.00000000000
v 0.00765392323956 1.44839222556 0.00237776897848
v 0.00519133778289 1.44754454321 0.00000000000
v 0.00479617062956 1.44754454321 0.00148997921497
v 0.00585805904120 1.44839222556 0.00439354451373
v 0.00367083004676 1.44754454321 0.00275312247686
v 0.00585805904120 1.44839222556 0.00439354451373
v 0.00317035871558 1.44839222556 0.00574044231325
v 0.00367083004676 1.44754454321 0.00275312247686
v 0.00198663887568 1.44754454321 0.00359712797217
v 5.07282159128e-19 1.44839222556 0.00621340982616
v 3.17877754586e-19 1.44754454321 0.00389350322075
v 5.07282159128e-19 1.44839222556 0.00621340982616
v -0.00317035871558 1.44839222556 0.00574044231325
v 3.17877754586e-19 1.44754454321 0.00389350322075
v -0.00198663887568 1.44754454321 0.00359712797217
v -0.00585805904120 1.44839222556 0.00439354451373
v -0.00367083004676 1.44754454321 0.00275312247686
v -0.00585805904120 1.44839222556 0.00439354451373
v -0.00765392323956 1.44839222556 0.00237776897848
v -0.00367083004676 1.44754454321 0.00275312247686
v -0.00479617062956 1.44754454321 0.00148997921497
v -0.00828454643488 1.44839222556 7.60923290391e-19
v -0.00519133778289 1.44754454321 4.76816631879e-19
v -0.00765392323956 1.44839222556 -0.00237776897848
v -0.00479617062956 1.44754454321 -0.00148997921497
v -0.00585805904120 1.44839222556 -0.00439354451373
v -0.00367083004676 1.44754454321 -0.00275312247686
v -0.00585805904120 1.44839222556 -0.00439354451373
v -0.00317035871558 1.44839222556 -0.00574044231325
v -0.00367083004676 1.44754454321 -0.00275312247686
v -0.00198663887568 1.44754454321 -0.00359712797217
v -1.52184658078e-18 1.44839222556 -0.00621340982616
v -9.53633263758e-19 1.44754454321 -0.00389350322075
v -1.52184658078e-18 1.44839222556 -0.00621340982616
v 0.00317035871558 1.44839222556 -0.00574044231325
v -9.53633263758e-19 1.44754454321 -0.00389350322075
v 0.00198663887568 1.44754454321 -0.00359712797217
v 0.00585805904120 1.44839222556 -0.00439354451373
v 0.00367083004676 1.44754454321 -0.00275312247686
v 0.00585805904120 1.44839222556 -0.00439354451373
v 0.00765392323956 1.44839222556 -0.00237776897848
v 0.00367083004676 1.44754454321 -0.00275312247686
v 0.00479617062956 1.44754454321 -0.00148997921497
v 0.00259891687892 1.44713622159 0.00000000000
v 0.00240108603612 1.44713622159 0.000745921803173
v 0.00183771166485 1.44713622159 0.00137828371953
v 0.00198663887568 1.44754454321 0.00359712797217
v 0.000994562404230 1.44713622159 0.00180081452709
v 3.17877754586e-19 1.44754454321 0.00389350322075
v 1.59137762531e-19 1.44713622159 0.00194918760099
v -0.00198663887568 1.44754454321 0.00359712797217
v -0.000994562404230 1.44713622159 0.00180081452709
v -0.00183771166485 1.44713622159 0.00137828371953
v -0.00240108603612 1.44713622159 0.000745921803173
v -0.00259891687892 1.44713622159 2.38706643797e-19
v -0.00240108603612 1.44713622159 -0.000745921803173
v -0.00183771166485 1.44713622159 -0.00137828371953
v -0.00198663887568 1.44754454321 -0.00359712797217
v -0.000994562404230 1.44713622159 -0.00180081452709
v -9.53633263758e-19 1.44754454321 -0.00389350322075
v -4.77413287594e-19 1.44713622159 -0.00194918760099
v 0.00198663887568 1.44754454321 -0.00359712797217
v 0.000994562404230 1.44713622159 -0.00180081452709
v 0.00183771166485 1.44713622159 -0.00137828371953
v 0.00240108603612 1.44713622159 -0.000745921803173
v 0.00000000000 1.44700000262 0.00000000000
vt 0 0
vt 0.0625 0.03846153989434242
vt 0 0.03846153989434242
vt 0.125 0.03846153989434242
vt 0.1875 0.03846153989434242
vt 0.25 0.03846153989434242
vt 0.3125 0.03846153989434242
vt 0.375 0.03846153989434242
vt 0.4375 0.03846153989434242
vt 0.5 0.03846153989434242
vt 0.5625 0.03846153989434242
vt 0.625 0.03846153989434242
vt 0.6875 0.03846153989434242
vt 0.75 0.03846153989434242
vt 0.8125 0.03846153989434242
vt 0.875 0.03846153989434242
vt 0.9375 0.03846153989434242
vt 0 0.07692307978868484
vt 0.0625 0.07692307978868484
vt 0.125 0.03846153989434242
vt 0.125 0.07692307978868484
vt 0.125 0.03846153989434242
vt 0.1875 0.03846153989434242
vt 0.125 0.07692307978868484
vt 0.1875 0.07692307978868484
vt 0.1875 0.03846153989434242
vt 0.25 0.03846153989434242
vt 0.1875 0.07692307978868484
vt 0.25 0.07692307978868484
vt 0.25 0.03846153989434242
vt 0.3125 0.03846153989434242
vt 0.3125 0.07692307978868484
vt 0.3125 0.03846153989434242
vt 0.375 0.03846153989434242
vt 0.3125 0.07692307978868484
vt 0.375 0.07692307978868484
vt 0.375 0.03846153989434242
vt 0.375 0.07692307978868484
vt 0.4375 0.07692307978868484
vt 0.5 0.07692307978868484
vt 0.5625 0.07692307978868484
vt 0.625 0.03846153989434242
vt 0.625 0.07692307978868484
vt 0.625 0.03846153989434242
vt 0.6875 0.03846153989434242
vt 0.625 0.07692307978868484
vt 0.6875 0.07692307978868484
vt 0.6875 0.03846153989434242
vt 0.75 0.03846153989434242
vt 0.6875 0.07692307978868484
vt 0.75 0.07692307978868484
vt 0.75 0.03846153989434242
vt 0.8125 0.03846153989434242
vt 0.8125 0.07692307978868484
vt 0.8125 0.03846153989434242
vt 0.875 0.03846153989434242
vt 0.8125 0.07692307978868484
vt 0.875 0.07692307978868484
vt 0.875 0.03846153989434242
vt 0.875 0.07692307978868484
vt 0.9375 0.07692307978868484
vt 0 0.11538461595773697
vt 0.0625 0.11538461595773697
vt 0.125 0.11538461595773697
vt 0.125 0.07692307978868484
vt 0.1875 0.11538461595773697
vt 0.1875 0.07692307978868484
vt 0.25 0.11538461595773697
vt 0.3125 0.07692307978868484
vt 0.3125 0.11538461595773697
vt 0.375 0.07692307978868484
vt 0.375 0.11538461595773697
vt 0.4375 0.11538461595773697
vt 0.5 0.11538461595773697
vt 0.5625 0.11538461595773697
vt 0.625 0.11538461595773697
vt 0.625 0.07692307978868484
vt 0.6875 0.11538461595773697
vt 0.6875 0.07692307978868484
vt 0.75 0.11538461595773697
vt 0.8125 0.07692307978868484
vt 0.8125 0.11538461595773697
vt 0.875 0.07692307978868484
vt 0.875 0.11538461595773697
vt 0.9375 0.11538461595773697
vt 0 0.1538461595773697
vt 0.0625 0.1538461595773697
vt 0.0625 0.11538461595773697
vt 0.0625 0.1538461595773697
vt 0.125 0.1538461595773697
vt 0.1875 0.1538461595773697
vt 0.25 0.1538461595773697
vt 0.3125 0.1538461595773697
vt 0.375 0.1538461595773697
vt 0.4375 0.11538461595773697
vt 0.4375 0.1538461595773697
vt 0.4375 0.1538461595773697
vt 0.5 0.1538461595773697
vt 0.5625 0.1538461595773697
vt 0.5625 0.11538461595773697
vt 0.5625 0.1538461595773697
vt 0.625 0.1538461595773697
vt 0.6875 0.1538461595773697
vt 0.75 0.1538461595773697
vt 0.8125 0.1538461595773697
vt 0.875 0.1538461595773697
vt 0.9375 0.11538461595773697
vt 0.9375 0.1538461595773697
vt 0.9375 0.1538461595773697
vt 0 0.19230769574642181
vt 0.0625 0.19230769574642181
vt 0.0625 0.19230769574642181
vt 0.125 0.19230769574642181
vt 0.1875 0.19230769574642181
vt 0.25 0.19230769574642181
vt 0.3125 0.19230769574642181
vt 0.375 0.19230769574642181
vt 0.4375 0.19230769574642181
vt 0.4375 0.19230769574642181
vt 0.5 0.19230769574642181
vt 0.5625 0.19230769574642181
vt 0.5625 0.19230769574642181
vt 0.625 0.19230769574642181
vt 0.6875 0.19230769574642181
vt 0.75 0.19230769574642181
vt 0.8125 0.19230769574642181
vt 0.875 0.19230769574642181
vt 0.9375 0.19230769574642181
vt 0.9375 0.19230769574642181
vt 0 0.23076923191547394
vt 0.0625 0.23076923191547394
vt 0.125 0.23076923191547394
vt 0.1875 0.23076923191547394
vt 0.25 0.23076923191547394
vt 0.3125 0.23076923191547394
vt 0.375 0.23076923191547394
vt 0.4375 0.23076923191547394
vt 0.5 0.23076923191547394
vt 0.5625 0.23076923191547394
vt 0.625 0.23076923191547394
vt 0.6875 0.23076923191547394
vt 0.75 0.23076923191547394
vt 0.8125 0.23076923191547394
vt 0.875 0.23076923191547394
vt 0.9375 0.23076923191547394
vt 0 0.26923078298568726
vt 0.0625 0.26923078298568726
vt 0.125 0.26923078298568726
vt 0.1875 0.26923078298568726
vt 0.25 0.26923078298568726
vt 0.3125 0.26923078298568726
vt 0.375 0.26923078298568726
vt 0.4375 0.26923078298568726
vt 0.5 0.26923078298568726
vt 0.5625 0.26923078298568726
vt 0.625 0.26923078298568726
vt 0.6875 0.26923078298568726
vt 0.75 0.26923078298568726
vt 0.8125 0.26923078298568726
vt 0.875 0.26923078298568726
vt 0.9375 0.26923078298568726
vt 0 0.3076923191547394
vt 0.0625 0.3076923191547394
vt 0.125 0.3076923191547394
vt 0.1875 0.3076923191547394
vt 0.25 0.3076923191547394
vt 0.3125 0.3076923191547394
vt 0.375 0.3076923191547394
vt 0.4375 0.3076923191547394
vt 0.5 0.3076923191547394
vt 0.5625 0.3076923191547394
vt 0.625 0.3076923191547394
vt 0.6875 0.3076923191547394
vt 0.75 0.3076923191547394
vt 0.8125 0.3076923191547394
vt 0.875 0.3076923191547394
vt 0.9375 0.3076923191547394
vt 0 0.3461538553237915
vt 0.0625 0.3461538553237915
vt 0.125 0.3461538553237915
vt 0.1875 0.3461538553237915
vt 0.25 0.3461538553237915
vt 0.3125 0.3461538553237915
vt 0.375 0.3461538553237915
vt 0.4375 0.3461538553237915
vt 0.5 0.3461538553237915
vt 0.5625 0.3461538553237915
vt 0.625 0.3461538553237915
vt 0.6875 0.3461538553237915
vt 0.75 0.3461538553237915
vt 0.8125 0.3461538553237915
vt 0.875 0.3461538553237915
vt 0.9375 0.3461538553237915
vt 0 0.38461539149284363
vt 0.0625 0.38461539149284363
vt 0.125 0.38461539149284363
vt 0.1875 0.38461539149284363
vt 0.25 0.38461539149284363
vt 0.3125 0.38461539149284363
vt 0.375 0.38461539149284363
vt 0.4375 0.38461539149284363
vt 0.5 0.38461539149284363
vt 0.5625 0.38461539149284363
vt 0.625 0.38461539149284363
vt 0.6875 0.38461539149284363
vt 0.75 0.38461539149284363
vt 0.8125 0.38461539149284363
vt 0.875 0.38461539149284363
vt 0.9375 0.38461539149284363
vt 0 0.42307692766189575
vt 0.0625 0.42307692766189575
vt 0.125 0.42307692766189575
vt 0.1875 0.42307692766189575
vt 0.25 0.42307692766189575
vt 0.3125 0.42307692766189575
vt 0.375 0.42307692766189575
vt 0.4375 0.42307692766189575
vt 0.5 0.42307692766189575
vt 0.5625 0.42307692766189575
vt 0.625 0.42307692766189575
vt 0.6875 0.42307692766189575
vt 0.75 0.42307692766189575
vt 0.8125 0.42307692766189575
vt 0.875 0.42307692766189575
vt 0.9375 0.42307692766189575
vt 0 0.4615384638309479
vt 0.0625 0.4615384638309479
vt 0.125 0.4615384638309479
vt 0.1875 0.4615384638309479
vt 0.25 0.4615384638309479
vt 0.3125 0.4615384638309479
vt 0.375 0.4615384638309479
vt 0.4375 0.4615384638309479
vt 0.5 0.4615384638309479
vt 0.5625 0.4615384638309479
vt 0.625 0.4615384638309479
vt 0.6875 0.4615384638309479
vt 0.75 0.4615384638309479
vt 0.8125 0.4615384638309479
vt 0.875 0.4615384638309479
vt 0.9375 0.4615384638309479
vt 0 0.5
vt 0.0625 0.5
vt 0.125 0.5
vt 0.1875 0.5
vt 0.25 0.5
vt 0.3125 0.5
vt 0.375 0.5
vt 0.4375 0.5
vt 0.5 0.5
vt 0.5625 0.5
vt 0.625 0.5
vt 0.6875 0.5
vt 0.75 0.5
vt 0.8125 0.5
vt 0.875 0.5
vt 0.9375 0.5
vt 0 0.5384615659713745
vt 0.0625 0.5384615659713745
vt 0.125 0.5384615659713745
vt 0.1875 0.5384615659713745
vt 0.25 0.5384615659713745
vt 0.3125 0.5384615659713745
vt 0.375 0.5384615659713745
vt 0.4375 0.5384615659713745
vt 0.5 0.5384615659713745
vt 0.5625 0.5384615659713745
vt 0.625 0.5384615659713745
vt 0.6875 0.5384615659713745
vt 0.75 0.5384615659713745
vt 0.8125 0.5384615659713745
vt 0.875 0.5384615659713745
vt 0.9375 0.5384615659713745
vt 0 0.5769230723381042
vt 0.0625 0.5769230723381042
vt 0.125 0.5769230723381042
vt 0.1875 0.5769230723381042
vt 0.25 0.5769230723381042
vt 0.3125 0.5769230723381042
vt 0.375 0.5769230723381042
vt 0.4375 0.5769230723381042
vt 0.5 0.5769230723381042
vt 0.5625 0.5769230723381042
vt 0.625 0.5769230723381042
vt 0.6875 0.5769230723381042
vt 0.75 0.5769230723381042
vt 0.8125 0.5769230723381042
vt 0.875 0.5769230723381042
vt 0.9375 0.5769230723381042
vt 0 0.6153846383094788
vt 0.0625 0.6153846383094788
vt 0.125 0.6153846383094788
vt 0.1875 0.6153846383094788
vt 0.25 0.6153846383094788
vt 0.3125 0.6153846383094788
vt 0.375 0.6153846383094788
vt 0.4375 0.6153846383094788
vt 0.5 0.6153846383094788
vt 0.5625 0.6153846383094788
vt 0.625 0.6153846383094788
vt 0.6875 0.6153846383094788
vt 0.75 0.6153846383094788
vt 0.8125 0.6153846383094788
vt 0.875 0.6153846383094788
vt 0.9375 0.6153846383094788
vt 0 0.6538461446762085
vt 0.0625 0.6538461446762085
vt 0.125 0.6538461446762085
vt 0.1875 0.6538461446762085
vt 0.25 0.6538461446762085
vt 0.3125 0.6538461446762085
vt 0.375 0.6538461446762085
vt 0.4375 0.6538461446762085
vt 0.5 0.6538461446762085
vt 0.5625 0.6538461446762085
vt 0.625 0.6538461446762085
vt 0.6875 0.6538461446762085
vt 0.75 0.6538461446762085
vt 0.8125 0.6538461446762085
vt 0.875 0.6538461446762085
vt 0.9375 0.6538461446762085
vt 0 0.692307710647583
vt 0.0625 0.692307710647583
vt 0.125 0.692307710647583
vt 0.1875 0.692307710647583
vt 0.25 0.692307710647583
vt 0.3125 0.692307710647583
vt 0.375 0.692307710647583
vt 0.4375 0.692307710647583
vt 0.5 0.692307710647583
vt 0.5625 0.692307710647583
vt 0.625 0.692307710647583
vt 0.6875 0.692307710647583
vt 0.75 0.692307710647583
vt 0.8125 0.692307710647583
vt 0.875 0.692307710647583
vt 0.9375 0.692307710647583
vt 0 0.7307692170143127
vt 0.0625 0.7307692170143127
vt 0.0625 0.7307692170143127
vt 0.125 0.7307692170143127
vt 0.1875 0.7307692170143127
vt 0.25 0.7307692170143127
vt 0.3125 0.7307692170143127
vt 0.375 0.7307692170143127
vt 0.4375 0.7307692170143127
vt 0.4375 0.7307692170143127
vt 0.5 0.7307692170143127
vt 0.5625 0.7307692170143127
vt 0.5625 0.7307692170143127
vt 0.625 0.7307692170143127
vt 0.6875 0.7307692170143127
vt 0.75 0.7307692170143127
vt 0.8125 0.7307692170143127
vt 0.875 0.7307692170143127
vt 0.9375 0.7307692170143127
vt 0.9375 0.7307692170143127
vt 0 0.7692307829856873
vt 0.0625 0.7692307829856873
vt 0.0625 0.7692307829856873
vt 0.125 0.7692307829856873
vt 0.1875 0.7692307829856873
vt 0.25 0.7692307829856873
vt 0.3125 0.7692307829856873
vt 0.375 0.7692307829856873
vt 0.4375 0.7692307829856873
vt 0.4375 0.7692307829856873
vt 0.5 0.7692307829856873
vt 0.5625 0.7692307829856873
vt 0.5625 0.7692307829856873
vt 0.625 0.7692307829856873
vt 0.6875 0.7692307829856873
vt 0.75 0.7692307829856873
vt 0.8125 0.7692307829856873
vt 0.875 0.7692307829856873
vt 0.9375 0.7692307829856873
vt 0.9375 0.7692307829856873
vt 0 0.807692289352417
vt 0.0625 0.807692289352417
vt 0.0625 0.807692289352417
vt 0.125 0.807692289352417
vt 0.1875 0.807692289352417
vt 0.25 0.807692289352417
vt 0.3125 0.807692289352417
vt 0.375 0.807692289352417
vt 0.4375 0.807692289352417
vt 0.4375 0.807692289352417
vt 0.5 0.807692289352417
vt 0.5625 0.807692289352417
vt 0.5625 0.807692289352417
vt 0.625 0.807692289352417
vt 0.6875 0.807692289352417
vt 0.75 0.807692289352417
vt 0.8125 0.807692289352417
vt 0.875 0.807692289352417
vt 0.9375 0.807692289352417
vt 0.9375 0.807692289352417
vt 0 0.8461538553237915
vt 0.0625 0.8461538553237915
vt 0.125 0.8461538553237915
vt 0.125 0.8461538553237915
vt 0.1875 0.8461538553237915
vt 0.1875 0.8461538553237915
vt 0.25 0.8461538553237915
vt 0.3125 0.8461538553237915
vt 0.3125 0.8461538553237915
vt 0.375 0.8461538553237915
vt 0.375 0.8461538553237915
vt 0.4375 0.8461538553237915
vt 0.5 0.8461538553237915
vt 0.5625 0.8461538553237915
vt 0.625 0.8461538553237915
vt 0.625 0.8461538553237915
vt 0.6875 0.8461538553237915
vt 0.6875 0.8461538553237915
vt 0.75 0.8461538553237915
vt 0.8125 0.8461538553237915
vt 0.8125 0.8461538553237915
vt 0.875 0.8461538553237915
vt 0.875 0.8461538553237915
vt 0.9375 0.8461538553237915
vt 0 0.8846153616905212
vt 0.0625 0.8846153616905212
vt 0.125 0.8461538553237915
vt 0.0625 0.8846153616905212
vt 0.125 0.8846153616905212
vt 0.125 0.8461538553237915
vt 0.1875 0.8461538553237915
vt 0.125 0.8846153616905212
vt 0.1875 0.8846153616905212
vt 0.1875 0.8461538553237915
vt 0.1875 0.8846153616905212
vt 0.25 0.8846153616905212
vt 0.3125 0.8461538553237915
vt 0.3125 0.8846153616905212
vt 0.3125 0.8461538553237915
vt 0.375 0.8461538553237915
vt 0.3125 0.8846153616905212
vt 0.375 0.8846153616905212
vt 0.375 0.8461538553237915
vt 0.375 0.8846153616905212
vt 0.4375 0.8846153616905212
vt 0.4375 0.8846153616905212
vt 0.5 0.8846153616905212
vt 0.5 0.8846153616905212
vt 0.5625 0.8846153616905212
vt 0.625 0.8461538553237915
vt 0.5625 0.8846153616905212
vt 0.625 0.8846153616905212
vt 0.625 0.8461538553237915
vt 0.6875 0.8461538553237915
vt 0.625 0.8846153616905212
vt 0.6875 0.8846153616905212
vt 0.6875 0.8461538553237915
vt 0.6875 0.8846153616905212
vt 0.75 0.8846153616905212
vt 0.8125 0.8461538553237915
vt 0.8125 0.8846153616905212
vt 0.8125 0.8461538553237915
vt 0.875 0.8461538553237915
vt 0.8125 0.8846153616905212
vt 0.875 0.8846153616905212
vt 0.875 0.8461538553237915
vt 0.875 0.8846153616905212
vt 0.9375 0.8846153616905212
vt 0.9375 0.8846153616905212
vt 0 0.8846153616905212
vt 0 0.8846153616905212
vt 0.0625 0.8846153616905212
vt 0 0.9230769276618958
vt 0.0625 0.9230769276618958
vt 0.125 0.8846153616905212
vt 0.125 0.9230769276618958
vt 0.125 0.8846153616905212
vt 0.1875 0.8846153616905212
vt 0.125 0.9230769276618958
vt 0.1875 0.9230769276618958
vt 0.25 0.8846153616905212
vt 0.25 0.9230769276618958
vt 0.25 0.8846153616905212
vt 0.3125 0.8846153616905212
vt 0.25 0.9230769276618958
vt 0.3125 0.9230769276618958
vt 0.375 0.8846153616905212
vt 0.375 0.9230769276618958
vt 0.375 0.8846153616905212
vt 0.4375 0.8846153616905212
vt 0.375 0.9230769276618958
vt 0.4375 0.9230769276618958
vt 0.5 0.8846153616905212
vt 0.5 0.9230769276618958
vt 0.5625 0.8846153616905212
vt 0.5625 0.9230769276618958
vt 0.625 0.8846153616905212
vt 0.625 0.9230769276618958
vt 0.625 0.8846153616905212
vt 0.6875 0.8846153616905212
vt 0.625 0.9230769276618958
vt 0.6875 0.9230769276618958
vt 0.75 0.8846153616905212
vt 0.75 0.9230769276618958
vt 0.75 0.8846153616905212
vt 0.8125 0.8846153616905212
vt 0.75 0.9230769276618958
vt 0.8125 0.9230769276618958
vt 0.875 0.8846153616905212
vt 0.875 0.9230769276618958
vt 0.875 0.8846153616905212
vt 0.9375 0.8846153616905212
vt 0.875 0.9230769276618958
vt 0.9375 0.9230769276618958
vt 0 0.9615384340286255
vt 0.0625 0.9615384340286255
vt 0.125 0.9615384340286255
vt 0.1875 0.9230769276618958
vt 0.1875 0.9615384340286255
vt 0.25 0.9230769276618958
vt 0.25 0.9615384340286255
vt 0.3125 0.9230769276618958
vt 0.3125 0.9615384340286255
vt 0.375 0.9615384340286255
vt 0.4375 0.9615384340286255
vt 0.5 0.9615384340286255
vt 0.5625 0.9615384340286255
vt 0.625 0.9615384340286255
vt 0.6875 0.9230769276618958
vt 0.6875 0.9615384340286255
vt 0.75 0.9230769276618958
vt 0.75 0.9615384340286255
vt 0.8125 0.9230769276618958
vt 0.8125 0.9615384340286255
vt 0.875 0.9615384340286255
vt 0.9375 0.9615384340286255
vt 0 1
vn -5.05999284716e-18 1.00000000000 3.31710642203e-17
vn 0.488678501049 0.872400616612 -0.0105112676311
vn 0.488678501049 0.872400616612 -0.0105112676311
vn -5.05999284716e-18 1.00000000000 3.31710642203e-17
vn -5.05999284716e-18 1.00000000000 3.31710642203e-17
vn -5.05999284716e-18 1.00000000000 3.31710642203e-17
vn -5.05999284716e-18 1.00000000000 3.31710642203e-17
vn -5.05999284716e-18 1.00000000000 3.31710642203e-17
vn -0.488678501049 0.872400616612 0.0105112676311
vn -0.488678501049 0.872400616612 0.0105112676311
vn -0.488678501049 0.872400616612 0.0105112676311
vn -5.05999284716e-18 1.00000000000 3.31710642203e-17
vn -5.05999284716e-18 1.00000000000 3.31710642203e-17
vn -5.05999284716e-18 1.00000000000 3.31710642203e-17
vn -5.05999284716e-18 1.00000000000 3.31710642203e-17
vn -5.05999284716e-18 1.00000000000 3.31710642203e-17
vn 0.488678501049 0.872400616612 -0.0105112676311
vn 0.488678501049 0.872400616612 -0.0105112676311
vn 0.488678501049 0.872400616612 -0.0105112676311
vn 0.0587179898459 0.988251769507 0.141105059208
vn 0.0587179898459 0.988251769507 0.141105059208
vn 0.0462648796734 0.978138273658 0.202743874174
vn 0.0462648796734 0.978138273658 0.202743874174
vn 0.0462648796734 0.978138273658 0.202743874174
vn 0.0462648796734 0.978138273658 0.202743874174
vn 0.0222154038562 0.964430879036 0.263399991256
vn 0.0222154038562 0.964430879036 0.263399991256
vn 0.0222154038562 0.964430879036 0.263399991256
vn 0.00308868596824 0.703857552822 0.710334432049
vn -0.00972175573143 0.964623366821 0.263452552934
vn -0.00972175573143 0.964623366821 0.263452552934
vn -0.00972175573143 0.964623366821 0.263452552934
vn -0.0402759500530 0.979841472379 0.195674568746
vn -0.0402759500530 0.979841472379 0.195674568746
vn -0.0402759500530 0.979841472379 0.195674568746
vn -0.0402759500530 0.979841472379 0.195674568746
vn -0.0535199353617 0.990482645850 0.126805933571
vn -0.0535199353617 0.990482645850 0.126805933571
vn -0.488678501049 0.872400616612 0.0105112676311
vn -0.488678501049 0.872400616612 0.0105112676311
vn -0.488678501049 0.872400616612 0.0105112676311
vn -0.0587179898459 0.988251769507 -0.141105059208
vn -0.0587179898459 0.988251769507 -0.141105059208
vn -0.0462648796734 0.978138273658 -0.202743874174
vn -0.0462648796734 0.978138273658 -0.202743874174
vn -0.0462648796734 0.978138273658 -0.202743874174
vn -0.0462648796734 0.978138273658 -0.202743874174
vn -0.0222154038562 0.964430879036 -0.263399991256
vn -0.0222154038562 0.964430879036 -0.263399991256
vn -0.0222154038562 0.964430879036 -0.263399991256
vn -0.00308868596824 0.703857552822 -0.710334432049
vn 0.00972175573143 0.964623366821 -0.263452552934
vn 0.00972175573143 0.964623366821 -0.263452552934
vn 0.00972175573143 0.964623366821 -0.263452552934
vn 0.0402759500530 0.979841472379 -0.195674568746
vn 0.0402759500530 0.979841472379 -0.195674568746
vn 0.0402759500530 0.979841472379 -0.195674568746
vn 0.0402759500530 0.979841472379 -0.195674568746
vn 0.0535199353617 0.990482645850 -0.126805933571
vn 0.0535199353617 0.990482645850 -0.126805933571
vn 0.488678501049 0.872400616612 -0.0105112676311
vn 0.488678501049 0.872400616612 -0.0105112676311
vn 0.488678501049 0.872400616612 -0.0105112676311
vn 0.432420090189 0.704002952725 0.563376169318
vn 0.0222154038562 0.964430879036 0.263399991256
vn 0.00308868596824 0.703857552822 0.710334432049
vn 0.00644346941775 0.958112194843 0.286320631102
vn 0.00308868596824 0.703857552822 0.710334432049
vn 0.00644346941775 0.958112194843 0.286320631102
vn 0.00308868596824 0.703857552822 0.710334432049
vn -0.00972175573143 0.964623366821 0.263452552934
vn -0.425852381313 0.704045344028 0.568304410402
vn -0.488678501049 0.872400616612 0.0105112676311
vn -0.488678501049 0.872400616612 0.0105112676311
vn -0.488678501049 0.872400616612 0.0105112676311
vn -0.432420090189 0.704002952725 -0.563376169318
vn -0.0222154038562 0.964430879036 -0.263399991256
vn -0.00308868596824 0.703857552822 -0.710334432049
vn -0.00644346941775 0.958112194843 -0.286320631102
vn -0.00308868596824 0.703857552822 -0.710334432049
vn -0.00644346941775 0.958112194843 -0.286320631102
vn -0.00308868596824 0.703857552822 -0.710334432049
vn 0.00972175573143 0.964623366821 -0.263452552934
vn 0.425852381313 0.704045344028 -0.568304410402
vn 0.488678501049 0.872400616612 -0.0105112676311
vn 0.752149279032 0.658984060803 -0.00338668839683
vn 0.752149279032 0.658984060803 -0.00338668839683
vn 0.481946675001 0.876132842300 0.0108924330699
vn 0.751310958397 0.650742602415 0.109844932493
vn 0.496082847643 0.578249997109 0.647710389849
vn 0.00196925878412 0.551398401392 0.834239728712
vn 0.00196925878412 0.551398401392 0.834239728712
vn 0.00196925878412 0.551398401392 0.834239728712
vn -0.491672808874 0.578961545280 0.650431685961
vn -0.485292809381 0.874089933335 0.0213934009866
vn -0.756850794548 0.643574489415 0.113968203314
vn -0.752149279032 0.658984060803 0.00338668839683
vn -0.752149279032 0.658984060803 0.00338668839683
vn -0.752149279032 0.658984060803 0.00338668839683
vn -0.481946675001 0.876132842300 -0.0108924330699
vn -0.751310958397 0.650742602415 -0.109844932493
vn -0.496082847643 0.578249997109 -0.647710389849
vn -0.00196925878412 0.551398401392 -0.834239728712
vn -0.00196925878412 0.551398401392 -0.834239728712
vn -0.00196925878412 0.551398401392 -0.834239728712
vn 0.491672808874 0.578961545280 -0.650431685961
vn 0.485292809381 0.874089933335 -0.0213934009866
vn 0.756850794548 0.643574489415 -0.113968203314
vn 0.752149279032 0.658984060803 -0.00338668839683
vn 0.847654481861 0.530541670920 -0.00272301264944
vn 0.828565885683 0.559888177398 -0.00194984404375
vn 0.814068619704 0.543079855904 0.205807075983
vn 0.536672718983 0.469739145741 0.700947592662
vn 0.271563237893 0.437048385180 0.857462603754
vn 0.00108421852220 0.425509729683 0.904953200124
vn -0.269151598251 0.437686026154 0.857897639388
vn -0.533732949013 0.470746724321 0.702514527024
vn -0.820802040864 0.532440250287 0.206860797612
vn -0.828565885683 0.559888177398 0.00194984404375
vn -0.847654481861 0.530541670920 0.00272301264944
vn -0.828565885683 0.559888177398 0.00194984404375
vn -0.814068619704 0.543079855904 -0.205807075983
vn -0.536672718983 0.469739145741 -0.700947592662
vn -0.271563237893 0.437048385180 -0.857462603754
vn -0.00108421852220 0.425509729683 -0.904953200124
vn 0.269151598251 0.437686026154 -0.857897639388
vn 0.533732949013 0.470746724321 -0.702514527024
vn 0.820802040864 0.532440250287 -0.206860797612
vn 0.828565885683 0.559888177398 -0.00194984404375
vn 0.901617691695 0.432529919523 -0.00184573591123
vn 0.801590448263 0.414043220793 0.431301477587
vn 0.562994236889 0.377505746228 0.735205346005
vn 0.282804306843 0.348837252141 0.893495548702
vn 0.000688919490174 0.338879279212 0.940829612369
vn -0.281248026560 0.349488250301 0.893732348333
vn -0.561017570106 0.378599761045 0.736153181728
vn -0.799738568890 0.414973607749 0.433837672755
vn -0.901617691695 0.432529919523 0.00184573591123
vn -0.801590448263 0.414043220793 -0.431301477587
vn -0.562994236889 0.377505746228 -0.735205346005
vn -0.282804306843 0.348837252141 -0.893495548702
vn -0.000688919490174 0.338879279212 -0.940829612369
vn 0.281248026560 0.349488250301 -0.893732348333
vn 0.561017570106 0.378599761045 -0.736153181728
vn 0.799738568890 0.414973607749 -0.433837672755
vn 0.938527512436 0.345202143534 -0.00126035719425
vn 0.831558938900 0.329231439479 0.447343704990
vn 0.580407441071 0.298239171715 0.757747054633
vn 0.290123168753 0.274325821699 0.916828168471
vn 0.000449978914691 0.266120757844 0.963939593420
vn -0.289096149742 0.274950954115 0.916965315067
vn -0.579066326658 0.299328411677 0.758343386134
vn -0.830259123837 0.330206296648 0.449036289112
vn -0.938527512436 0.345202143534 0.00126035719425
vn -0.831558938900 0.329231439479 -0.447343704990
vn -0.580407441071 0.298239171715 -0.757747054633
vn -0.290123168753 0.274325821699 -0.916828168471
vn -0.000449978914691 0.266120757844 -0.963939593420
vn 0.289096149742 0.274950954115 -0.916965315067
vn 0.579066326658 0.299328411677 -0.758343386134
vn 0.830259123837 0.330206296648 -0.449036289112
vn 0.963811533799 0.266583179179 -0.000857843043080
vn 0.851920364813 0.253545552053 0.458199023407
vn 0.592057281677 0.228644562424 0.772780589357
vn 0.294965171209 0.209673668247 0.932219126932
vn 0.000297035316310 0.203236709116 0.979129588889
vn -0.294282406006 0.210264563159 0.932301817543
vn -0.591148917064 0.229697765535 0.773163562490
vn -0.851019227387 0.254518784227 0.459332627942
vn -0.963811533799 0.266583179179 0.000857843043080
vn -0.851920364813 0.253545552053 -0.458199023407
vn -0.592057281677 0.228644562424 -0.772780589357
vn -0.294965171209 0.209673668247 -0.932219126932
vn -0.000297035316310 0.203236709116 -0.979129588889
vn 0.294282406006 0.210264563159 -0.932301817543
vn 0.591148917064 0.229697765535 -0.773163562490
vn 0.851019227387 0.254518784227 -0.459332627942
vn 0.980888377781 0.194570469074 -0.000568241003801
vn 0.865585400750 0.184635373955 0.465480066912
vn 0.599789569135 0.165983962604 0.782752704828
vn 0.298151737260 0.151928487379 0.942349869365
vn 0.000192729741201 0.147221743691 0.989103493594
vn -0.297706671182 0.152488518660 0.942400121822
vn -0.599189988322 0.166996968432 0.782996405119
vn -0.864981170411 0.185591160380 0.466222582060
vn -0.980888377781 0.194570469074 0.000568241003801
vn -0.865585400750 0.184635373955 -0.465480066912
vn -0.599789569135 0.165983962604 -0.782752704828
vn -0.298151737260 0.151928487379 -0.942349869365
vn -0.000192729741201 0.147221743691 -0.989103493594
vn 0.297706671182 0.152488518660 -0.942400121822
vn 0.599189988322 0.166996968432 -0.782996405119
vn 0.864981170411 0.185591160380 -0.466222582060
vn 0.991871595653 0.127242356573 -0.000347031280493
vn 0.874322131456 0.120463418058 0.470158883098
vn 0.604690779865 0.108062615638 0.789095388308
vn 0.300155553337 0.0988339568435 0.948756287345
vn 0.000116130652010 0.0958114655632 0.995399492455
vn -0.299886612553 0.0993709559136 0.948785240575
vn -0.604325479120 0.109042913770 0.789240367849
vn -0.873950315895 0.121400276183 0.470608986622
vn -0.991871595653 0.127242356573 0.000347031280493
vn -0.874322131456 0.120463418058 -0.470158883098
vn -0.604690779865 0.108062615638 -0.789095388308
vn -0.300155553337 0.0988339568435 -0.948756287345
vn -0.000116130652010 0.0958114655632 -0.995399492455
vn 0.299886612553 0.0993709559136 -0.948785240575
vn 0.604325479120 0.109042913770 -0.789240367849
vn 0.873950315895 0.121400276183 -0.470608986622
vn 0.998020002609 0.0628971165322 -0.000164691913313
vn 0.879169886288 0.0592808987554 0.472806605375
vn 0.607385522825 0.0530885165789 0.792631336795
vn 0.301244058226 0.0486052049132 0.952307487862
vn 0.0000547072480329 0.0472318562120 0.998883951601
vn -0.301117188009 0.0491282205018 0.952320774233
vn -0.607212428876 0.0540480878572 0.792699104590
vn -0.878992682410 0.0602046627713 0.473019304945
vn -0.998020002609 0.0628971165322 0.000164691913313
vn -0.879169886288 0.0592808987554 -0.472806605375
vn -0.607385522825 0.0530885165789 -0.792631336795
vn -0.301244058226 0.0486052049132 -0.952307487862
vn -0.0000547072480329 0.0472318562120 -0.998883951601
vn 0.301117188009 0.0491282205018 -0.952320774233
vn 0.607212428876 0.0540480878572 -0.792699104590
vn 0.878992682410 0.0602046627713 -0.473019304945
vn 1.00000000000 -5.98505446538e-19 0.00000000000
vn 0.880672138060 -0.000459477324733 0.473726053881
vn 0.608194887670 -0.000476276327415 0.793787598652
vn 0.301552267524 -0.000259156049243 0.953449612087
vn 3.27486694036e-17 -4.67838134337e-18 1.00000000000
vn -0.301552267524 0.000259156049243 0.953449612087
vn -0.608194887670 0.000476276327415 0.793787598652
vn -0.880672138060 0.000459477324733 0.473726053881
vn -1.00000000000 1.13716034325e-17 8.61847884374e-17
vn -0.880672138060 -0.000459477324733 -0.473726053881
vn -0.608194887670 -0.000476276327415 -0.793787598652
vn -0.301552267524 -0.000259156049243 -0.953449612087
vn -8.42108641806e-17 5.84797667921e-19 -1.00000000000
vn 0.301552267524 0.000259156049243 -0.953449612087
vn 0.608194887670 0.000476276327415 -0.793787598652
vn 0.880672138060 0.000459477324733 -0.473726053881
vn 0.998020002609 -0.0628971165322 0.000164691913313
vn 0.878992682410 -0.0602046627713 0.473019304945
vn 0.607212428876 -0.0540480878572 0.792699104590
vn 0.301117188009 -0.0491282205018 0.952320774233
vn -0.0000547072480329 -0.0472318562120 0.998883951601
vn -0.301244058226 -0.0486052049132 0.952307487862
vn -0.607385522825 -0.0530885165789 0.792631336795
vn -0.879169886288 -0.0592808987554 0.472806605375
vn -0.998020002609 -0.0628971165322 -0.000164691913313
vn -0.878992682410 -0.0602046627713 -0.473019304945
vn -0.607212428876 -0.0540480878572 -0.792699104590
vn -0.301117188009 -0.0491282205018 -0.952320774233
vn 0.0000547072480329 -0.0472318562120 -0.998883951601
vn 0.301244058226 -0.0486052049132 -0.952307487862
vn 0.607385522825 -0.0530885165789 -0.792631336795
vn 0.879169886288 -0.0592808987554 -0.472806605375
vn 0.991871595653 -0.127242356573 0.000347031280493
vn 0.873950315895 -0.121400276183 0.470608986622
vn 0.604325479120 -0.109042913770 0.789240367849
vn 0.299886612553 -0.0993709559136 0.948785240575
vn -0.000116130652010 -0.0958114655632 0.995399492455
vn -0.300155553337 -0.0988339568435 0.948756287345
vn -0.604690779865 -0.108062615638 0.789095388308
vn -0.874322131456 -0.120463418058 0.470158883098
vn -0.991871595653 -0.127242356573 -0.000347031280493
vn -0.873950315895 -0.121400276183 -0.470608986622
vn -0.604325479120 -0.109042913770 -0.789240367849
vn -0.299886612553 -0.0993709559136 -0.948785240575
vn 0.000116130652010 -0.0958114655632 -0.995399492455
vn 0.300155553337 -0.0988339568435 -0.948756287345
vn 0.604690779865 -0.108062615638 -0.789095388308
vn 0.874322131456 -0.120463418058 -0.470158883098
vn 0.980888377781 -0.194570469074 0.000568241003801
vn 0.864981170411 -0.185591160380 0.466222582060
vn 0.599189988322 -0.166996968432 0.782996405119
vn 0.297706671182 -0.152488518660 0.942400121822
vn -0.000192729741201 -0.147221743691 0.989103493594
vn -0.298151737260 -0.151928487379 0.942349869365
vn -0.599789569135 -0.165983962604 0.782752704828
vn -0.865585400750 -0.184635373955 0.465480066912
vn -0.980888377781 -0.194570469074 -0.000568241003801
vn -0.864981170411 -0.185591160380 -0.466222582060
vn -0.599189988322 -0.166996968432 -0.782996405119
vn -0.297706671182 -0.152488518660 -0.942400121822
vn 0.000192729741201 -0.147221743691 -0.989103493594
vn 0.298151737260 -0.151928487379 -0.942349869365
vn 0.599789569135 -0.165983962604 -0.782752704828
vn 0.865585400750 -0.184635373955 -0.465480066912
vn 0.963811533799 -0.266583179179 0.000857843043080
vn 0.851019227387 -0.254518784227 0.459332627942
vn 0.591148917064 -0.229697765535 0.773163562490
vn 0.294282406006 -0.210264563159 0.932301817543
vn -0.000297035316310 -0.203236709116 0.979129588889
vn -0.294965171209 -0.209673668247 0.932219126932
vn -0.592057281677 -0.228644562424 0.772780589357
vn -0.851920364813 -0.253545552053 0.458199023407
vn -0.963811533799 -0.266583179179 -0.000857843043080
vn -0.851019227387 -0.254518784227 -0.459332627942
vn -0.591148917064 -0.229697765535 -0.773163562490
vn -0.294282406006 -0.210264563159 -0.932301817543
vn 0.000297035316310 -0.203236709116 -0.979129588889
vn 0.294965171209 -0.209673668247 -0.932219126932
vn 0.592057281677 -0.228644562424 -0.772780589357
vn 0.851920364813 -0.253545552053 -0.458199023407
vn 0.938527512436 -0.345202143534 0.00126035719425
vn 0.830259123837 -0.330206296648 0.449036289112
vn 0.579066326658 -0.299328411677 0.758343386134
vn 0.289096149742 -0.274950954115 0.916965315067
vn -0.000449978914691 -0.266120757844 0.963939593420
vn -0.290123168753 -0.274325821699 0.916828168471
vn -0.580407441071 -0.298239171715 0.757747054633
vn -0.831558938900 -0.329231439479 0.447343704990
vn -0.938527512436 -0.345202143534 -0.00126035719425
vn -0.830259123837 -0.330206296648 -0.449036289112
vn -0.579066326658 -0.299328411677 -0.758343386134
vn -0.289096149742 -0.274950954115 -0.916965315067
vn 0.000449978914691 -0.266120757844 -0.963939593420
vn 0.290123168753 -0.274325821699 -0.916828168471
vn 0.580407441071 -0.298239171715 -0.757747054633
vn 0.831558938900 -0.329231439479 -0.447343704990
vn 0.901617691695 -0.432529919523 0.00184573591123
vn 0.799738568890 -0.414973607749 0.433837672755
vn 0.561017570106 -0.378599761045 0.736153181728
vn 0.281248026560 -0.349488250301 0.893732348333
vn -0.000688919490174 -0.338879279212 0.940829612369
vn -0.282804306843 -0.348837252141 0.893495548702
vn -0.562994236889 -0.377505746228 0.735205346005
vn -0.801590448263 -0.414043220793 0.431301477587
vn -0.901617691695 -0.432529919523 -0.00184573591123
vn -0.799738568890 -0.414973607749 -0.433837672755
vn -0.561017570106 -0.378599761045 -0.736153181728
vn -0.281248026560 -0.349488250301 -0.893732348333
vn 0.000688919490174 -0.338879279212 -0.940829612369
vn 0.282804306843 -0.348837252141 -0.893495548702
vn 0.562994236889 -0.377505746228 -0.735205346005
vn 0.801590448263 -0.414043220793 -0.431301477587
vn 0.847654481861 -0.530541670920 0.00272301264944
vn 0.828565885683 -0.559888177398 0.00194984404375
vn 0.820802040864 -0.532440250287 0.206860797612
vn 0.533732949013 -0.470746724321 0.702514527024
vn 0.269151598251 -0.437686026154 0.857897639388
vn -0.00108421852220 -0.425509729683 0.904953200124
vn -0.271563237893 -0.437048385180 0.857462603754
vn -0.536672718983 -0.469739145741 0.700947592662
vn -0.814068619704 -0.543079855904 0.205807075983
vn -0.828565885683 -0.559888177398 -0.00194984404375
vn -0.847654481861 -0.530541670920 -0.00272301264944
vn -0.828565885683 -0.559888177398 -0.00194984404375
vn -0.820802040864 -0.532440250287 -0.206860797612
vn -0.533732949013 -0.470746724321 -0.702514527024
vn -0.269151598251 -0.437686026154 -0.857897639388
vn 0.00108421852220 -0.425509729683 -0.904953200124
vn 0.271563237893 -0.437048385180 -0.857462603754
vn 0.536672718983 -0.469739145741 -0.700947592662
vn 0.814068619704 -0.543079855904 -0.205807075983
vn 0.828565885683 -0.559888177398 0.00194984404375
vn 0.752149279032 -0.658984060803 0.00338668839683
vn 0.752149279032 -0.658984060803 0.00338668839683
vn 0.756850794548 -0.643574489415 0.113968203314
vn 0.491672808874 -0.578961545280 0.650431685961
vn -0.00196925878412 -0.551398401392 0.834239728712
vn -0.00196925878412 -0.551398401392 0.834239728712
vn -0.00196925878412 -0.551398401392 0.834239728712
vn -0.496082847643 -0.578249997109 0.647710389849
vn -0.751310958397 -0.650742602415 0.109844932493
vn -0.752149279032 -0.658984060803 -0.00338668839683
vn -0.752149279032 -0.658984060803 -0.00338668839683
vn -0.752149279032 -0.658984060803 -0.00338668839683
vn -0.756850794548 -0.643574489415 -0.113968203314
vn -0.491672808874 -0.578961545280 -0.650431685961
vn 0.00196925878412 -0.551398401392 -0.834239728712
vn 0.00196925878412 -0.551398401392 -0.834239728712
vn 0.00196925878412 -0.551398401392 -0.834239728712
vn 0.496082847643 -0.578249997109 -0.647710389849
vn 0.751310958397 -0.650742602415 -0.109844932493
vn 0.752149279032 -0.658984060803 0.00338668839683
vn 0.556680266471 -0.830705470425 0.00595838301849
vn 0.556680266471 -0.830705470425 0.00595838301849
vn 0.553802185460 -0.832377125606 0.0212475915643
vn 0.425852381313 -0.704045344028 0.568304410402
vn -0.00350544420886 -0.710732411511 0.703453730596
vn -0.00350544420886 -0.710732411511 0.703453730596
vn -0.00350544420886 -0.710732411511 0.703453730596
vn -0.432420090189 -0.704002952725 0.563376169318
vn -0.550843362491 -0.834240145271 0.0247985890276
vn -0.556680266471 -0.830705470425 -0.00595838301849
vn -0.556680266471 -0.830705470425 -0.00595838301849
vn -0.556680266471 -0.830705470425 -0.00595838301849
vn -0.553802185460 -0.832377125606 -0.0212475915643
vn -0.425852381313 -0.704045344028 -0.568304410402
vn 0.00350544420886 -0.710732411511 -0.703453730596
vn 0.00350544420886 -0.710732411511 -0.703453730596
vn 0.00350544420886 -0.710732411511 -0.703453730596
vn 0.432420090189 -0.704002952725 -0.563376169318
vn 0.550843362491 -0.834240145271 -0.0247985890276
vn 0.556680266471 -0.830705470425 0.00595838301849
vn 0.556680266471 -0.830705470425 0.00595838301849
vn 0.556680266471 -0.830705470425 0.00595838301849
vn 0.0164790193198 -0.998474851143 0.0526916839538
vn 0.0135564607934 -0.996445174828 0.0831458714115
vn 0.0135564607934 -0.996445174828 0.0831458714115
vn -0.000404576542123 -0.994462738313 0.105089002395
vn -0.00350544420886 -0.710732411511 0.703453730596
vn -0.000404576542123 -0.994462738313 0.105089002395
vn -0.0155362583561 -0.996530675072 0.0817633066593
vn -0.0155362583561 -0.996530675072 0.0817633066593
vn -0.0167458279359 -0.998450210319 0.0530731077013
vn -0.556680266471 -0.830705470425 -0.00595838301849
vn -0.556680266471 -0.830705470425 -0.00595838301849
vn -0.556680266471 -0.830705470425 -0.00595838301849
vn -0.0164790193198 -0.998474851143 -0.0526916839538
vn -0.0135564607934 -0.996445174828 -0.0831458714115
vn -0.0135564607934 -0.996445174828 -0.0831458714115
vn 0.000404576542123 -0.994462738313 -0.105089002395
vn 0.00350544420886 -0.710732411511 -0.703453730596
vn 0.000404576542123 -0.994462738313 -0.105089002395
vn 0.0155362583561 -0.996530675072 -0.0817633066593
vn 0.0155362583561 -0.996530675072 -0.0817633066593
vn 0.0167458279359 -0.998450210319 -0.0530731077013
vn 0.556680266471 -0.830705470425 0.00595838301849
vn 0.00439150921235 -0.999965154988 0.00709953920982
vn 0.00439150921235 -0.999965154988 0.00709953920982
vn 0.00475204779581 -0.999893659044 0.0137872639179
vn 0.00475204779581 -0.999893659044 0.0137872639179
vn 0.00475204779581 -0.999893659044 0.0137872639179
vn 0.00185990808095 -0.999803707043 0.0197253168422
vn 0.00185990808095 -0.999803707043 0.0197253168422
vn 0.00185990808095 -0.999803707043 0.0197253168422
vn 0.00185990808095 -0.999803707043 0.0197253168422
vn -0.00148757839461 -0.999254116091 0.0385875444461
vn -0.00148757839461 -0.999254116091 0.0385875444461
vn -0.00148757839461 -0.999254116091 0.0385875444461
vn -0.00148757839461 -0.999254116091 0.0385875444461
vn -0.00148757839461 -0.999254116091 0.0385875444461
vn -0.00272917391410 -0.999772821634 0.0211389860427
vn -0.00272917391410 -0.999772821634 0.0211389860427
vn -0.00272917391410 -0.999772821634 0.0211389860427
vn -0.00272917391410 -0.999772821634 0.0211389860427
vn -0.00562234351217 -0.999869028375 0.0151761441216
vn -0.00562234351217 -0.999869028375 0.0151761441216
vn -0.00562234351217 -0.999869028375 0.0151761441216
vn -0.00591227460118 -0.999946715694 0.00846231544428
vn -0.00591227460118 -0.999946715694 0.00846231544428
vn -0.00439150921235 -0.999965154988 -0.00709953920982
vn -0.00439150921235 -0.999965154988 -0.00709953920982
vn -0.00475204779581 -0.999893659044 -0.0137872639179
vn -0.00475204779581 -0.999893659044 -0.0137872639179
vn -0.00475204779581 -0.999893659044 -0.0137872639179
vn -0.00185990808095 -0.999803707043 -0.0197253168422
vn -0.00185990808095 -0.999803707043 -0.0197253168422
vn -0.00185990808095 -0.999803707043 -0.0197253168422
vn -0.00185990808095 -0.999803707043 -0.0197253168422
vn 0.00148757839461 -0.999254116091 -0.0385875444461
vn 0.00148757839461 -0.999254116091 -0.0385875444461
vn 0.00148757839461 -0.999254116091 -0.0385875444461
vn 0.00148757839461 -0.999254116091 -0.0385875444461
vn 0.00148757839461 -0.999254116091 -0.0385875444461
vn 0.00272917391410 -0.999772821634 -0.0211389860427
vn 0.00272917391410 -0.999772821634 -0.0211389860427
vn 0.00272917391410 -0.999772821634 -0.0211389860427
vn 0.00272917391410 -0.999772821634 -0.0211389860427
vn 0.00562234351217 -0.999869028375 -0.0151761441216
vn 0.00562234351217 -0.999869028375 -0.0151761441216
vn 0.00562234351217 -0.999869028375 -0.0151761441216
vn 0.00591227460118 -0.999946715694 -0.00846231544428
vn 0.00591227460118 -0.999946715694 -0.00846231544428
vn 1.32360757711e-18 -1.00000000000 -3.40277454022e-17
vn 1.32360757711e-18 -1.00000000000 -3.40277454022e-17
vn 1.32360757711e-18 -1.00000000000 -3.40277454022e-17
vn 1.32360757711e-18 -1.00000000000 -3.40277454022e-17
vn 1.32360757711e-18 -1.00000000000 -3.40277454022e-17
vn 1.32360757711e-18 -1.00000000000 -3.40277454022e-17
vn 0.00322746757801 -0.999917842903 0.0124052769582
vn 0.00322746757801 -0.999917842903 0.0124052769582
vn 0.00322746757801 -0.999917842903 0.0124052769582
vn 0.00322746757801 -0.999917842903 0.0124052769582
vn 0.00322746757801 -0.999917842903 0.0124052769582
vn 0.00322746757801 -0.999917842903 0.0124052769582
vn -0.00256886700450 -0.999919751492 0.0124053011880
vn -0.00256886700450 -0.999919751492 0.0124053011880
vn -0.00256886700450 -0.999919751492 0.0124053011880
vn -0.00256886700450 -0.999919751492 0.0124053011880
vn -0.00256886700450 -0.999919751492 0.0124053011880
vn -0.00256886700450 -0.999919751492 0.0124053011880
vn 1.32360757711e-18 -1.00000000000 -3.40277454022e-17
vn 1.32360757711e-18 -1.00000000000 -3.40277454022e-17
vn 1.32360757711e-18 -1.00000000000 -3.40277454022e-17
vn 1.32360757711e-18 -1.00000000000 -3.40277454022e-17
vn 1.32360757711e-18 -1.00000000000 -3.40277454022e-17
vn 1.32360757711e-18 -1.00000000000 -3.40277454022e-17
vn 1.32360757711e-18 -1.00000000000 -3.40277454022e-17
vn 1.32360757711e-18 -1.00000000000 -3.40277454022e-17
vn 1.32360757711e-18 -1.00000000000 -3.40277454022e-17
vn 1.32360757711e-18 -1.00000000000 -3.40277454022e-17
vn -0.00322746757801 -0.999917842903 -0.0124052769582
vn -0.00322746757801 -0.999917842903 -0.0124052769582
vn -0.00322746757801 -0.999917842903 -0.0124052769582
vn -0.00322746757801 -0.999917842903 -0.0124052769582
vn -0.00322746757801 -0.999917842903 -0.0124052769582
vn -0.00322746757801 -0.999917842903 -0.0124052769582
vn 0.00256886700450 -0.999919751492 -0.0124053011880
vn 0.00256886700450 -0.999919751492 -0.0124053011880
vn 0.00256886700450 -0.999919751492 -0.0124053011880
vn 0.00256886700450 -0.999919751492 -0.0124053011880
vn 0.00256886700450 -0.999919751492 -0.0124053011880
vn 0.00256886700450 -0.999919751492 -0.0124053011880
vn 1.32360757711e-18 -1.00000000000 -3.40277454022e-17
vn 1.32360757711e-18 -1.00000000000 -3.40277454022e-17
vn 1.32360757711e-18 -1.00000000000 -3.40277454022e-17
vn 1.32360757711e-18 -1.00000000000 -3.40277454022e-17
vn 1.32360757711e-18 -1.00000000000 -3.40277454022e-17
vn 1.32360757711e-18 -1.00000000000 -3.40277454022e-17
vn 1.32360757711e-18 -1.00000000000 -3.40277454022e-17
vn 1.32360757711e-18 -1.00000000000 -3.40277454022e-17
vn 1.32360757711e-18 -1.00000000000 -3.40277454022e-17
vn 1.32360757711e-18 -1.00000000000 -3.40277454022e-17
vn 1.32360757711e-18 -1.00000000000 -3.40277454022e-17
vn 1.32360757711e-18 -1.00000000000 -3.40277454022e-17
vn 1.32360757711e-18 -1.00000000000 -3.40277454022e-17
vn 1.32360757711e-18 -1.00000000000 -3.40277454022e-17
vn 1.32360757711e-18 -1.00000000000 -3.40277454022e-17
vn 1.32360757711e-18 -1.00000000000 -3.40277454022e-17
vn 1.32360757711e-18 -1.00000000000 -3.40277454022e-17
vn 1.32360757711e-18 -1.00000000000 -3.40277454022e-17
vn 1.32360757711e-18 -1.00000000000 -3.40277454022e-17
vn 1.32360757711e-18 -1.00000000000 -3.40277454022e-17
vn 1.32360757711e-18 -1.00000000000 -3.40277454022e-17
vn 1.32360757711e-18 -1.00000000000 -3.40277454022e-17
vn 1.32360757711e-18 -1.00000000000 -3.40277454022e-17
vn 1.32360757711e-18 -1.00000000000 -3.40277454022e-17
vn 1.32360757711e-18 -1.00000000000 -3.40277454022e-17
vn 1.32360757711e-18 -1.00000000000 -3.40277454022e-17
vn 1.32360757711e-18 -1.00000000000 -3.40277454022e-17
f 1/1/1 2/2/2 3/3/3
f 1/1/1 4/4/4 2/2/2
f 1/1/1 5/5/5 4/4/4
f 1/1/1 6/6/6 5/5/5
f 1/1/1 7/7/7 6/6/6
f 1/1/1 8/8/8 7/7/7
f 1/1/1 9/9/9 8/8/8
f 1/1/1 10/10/10 9/9/9
f 1/1/1 11/11/11 10/10/10
f 1/1/1 12/12/12 11/11/11
f 1/1/1 13/13/13 12/12/12
f 1/1/1 14/14/14 13/13/13
f 1/1/1 15/15/15 14/14/14
f 1/1/1 16/16/16 15/15/15
f 1/1/1 17/17/17 16/16/16
f 1/1/1 3/3/3 17/17/17
f 3/3/3 2/2/2 18/18/18
f 2/2/2 19/19/19 18/18/18
f 2/2/2 20/20/20 19/19/19
f 20/20/20 21/21/21 19/19/19
f 22/22/22 23/23/23 24/24/24
f 23/23/23 25/25/25 24/24/24
f 26/26/26 27/27/27 28/28/28
f 27/27/27 29/29/29 28/28/28
f 30/30/30 31/31/31 29/29/29
f 31/31/31 32/32/32 29/29/29
f 33/33/33 34/34/34 35/35/35
f 34/34/34 36/36/36 35/35/35
f 37/37/37 9/9/9 38/38/38
f 9/9/9 39/39/39 38/38/38
f 9/9/9 10/10/10 39/39/39
f 10/10/10 40/40/40 39/39/39
f 10/10/10 11/11/11 40/40/40
f 11/11/11 41/41/41 40/40/40
f 11/11/11 42/42/42 41/41/41
f 42/42/42 43/43/43 41/41/41
f 44/44/44 45/45/45 46/46/46
f 45/45/45 47/47/47 46/46/46
f 48/48/48 49/49/49 50/50/50
f 49/49/49 51/51/51 50/50/50
f 52/52/52 53/53/53 51/51/51
f 53/53/53 54/54/54 51/51/51
f 55/55/55 56/56/56 57/57/57
f 56/56/56 58/58/58 57/57/57
f 59/59/59 17/17/17 60/60/60
f 17/17/17 61/61/61 60/60/60
f 17/17/17 3/3/3 61/61/61
f 3/3/3 18/18/18 61/61/61
f 18/18/18 19/19/19 62/62/62
f 19/19/19 63/63/63 62/62/62
f 19/19/19 24/24/24 63/63/63
f 24/24/24 64/64/64 63/63/63
f 65/65/65 28/28/28 64/64/64
f 28/28/28 66/66/66 64/64/64
f 67/67/67 29/29/29 66/66/66
f 29/29/29 68/68/68 66/66/66
f 29/29/29 69/69/69 68/68/68
f 69/69/69 70/70/70 68/68/68
f 32/32/32 71/71/71 70/70/70
f 71/71/71 72/72/72 70/70/70
f 36/36/36 39/39/39 72/72/72
f 39/39/39 73/73/73 72/72/72
f 39/39/39 40/40/40 73/73/73
f 40/40/40 74/74/74 73/73/73
f 40/40/40 41/41/41 74/74/74
f 41/41/41 75/75/75 74/74/74
f 41/41/41 46/46/46 75/75/75
f 46/46/46 76/76/76 75/75/75
f 77/77/77 50/50/50 76/76/76
f 50/50/50 78/78/78 76/76/76
f 79/79/79 51/51/51 78/78/78
f 51/51/51 80/80/80 78/78/78
f 51/51/51 81/81/81 80/80/80
f 81/81/81 82/82/82 80/80/80
f 54/54/54 83/83/83 82/82/82
f 83/83/83 84/84/84 82/82/82
f 58/58/58 61/61/61 84/84/84
f 61/61/61 85/85/85 84/84/84
f 61/61/61 18/18/18 85/85/85
f 18/18/18 62/62/62 85/85/85
f 62/62/62 63/63/63 86/86/86
f 63/63/63 87/87/87 86/86/86
f 88/88/88 64/64/64 89/89/89
f 64/64/64 90/90/90 89/89/89
f 64/64/64 66/66/66 90/90/90
f 66/66/66 91/91/91 90/90/90
f 66/66/66 68/68/68 91/91/91
f 68/68/68 92/92/92 91/91/91
f 68/68/68 70/70/70 92/92/92
f 70/70/70 93/93/93 92/92/92
f 70/70/70 72/72/72 93/93/93
f 72/72/72 94/94/94 93/93/93
f 72/72/72 95/95/95 94/94/94
f 95/95/95 96/96/96 94/94/94
f 73/73/73 74/74/74 97/97/97
f 74/74/74 98/98/98 97/97/97
f 74/74/74 75/75/75 98/98/98
f 75/75/75 99/99/99 98/98/98
f 100/100/100 76/76/76 101/101/101
f 76/76/76 102/102/102 101/101/101
f 76/76/76 78/78/78 102/102/102
f 78/78/78 103/103/103 102/102/102
f 78/78/78 80/80/80 103/103/103
f 80/80/80 104/104/104 103/103/103
f 80/80/80 82/82/82 104/104/104
f 82/82/82 105/105/105 104/104/104
f 82/82/82 84/84/84 105/105/105
f 84/84/84 106/106/106 105/105/105
f 84/84/84 107/107/107 106/106/106
f 107/107/107 108/108/108 106/106/106
f 85/85/85 62/62/62 109/109/109
f 62/62/62 86/86/86 109/109/109
f 86/86/86 87/87/87 110/110/110
f 87/87/87 111/111/111 110/110/110
f 89/89/89 90/90/90 112/112/112
f 90/90/90 113/113/113 112/112/112
f 90/90/90 91/91/91 113/113/113
f 91/91/91 114/114/114 113/113/113
f 91/91/91 92/92/92 114/114/114
f 92/92/92 115/115/115 114/114/114
f 92/92/92 93/93/93 115/115/115
f 93/93/93 116/116/116 115/115/115
f 93/93/93 94/94/94 116/116/116
f 94/94/94 117/117/117 116/116/116
f 94/94/94 96/96/96 117/117/117
f 96/96/96 118/118/118 117/117/117
f 97/97/97 98/98/98 119/119/119
f 98/98/98 120/120/120 119/119/119
f 98/98/98 99/99/99 120/120/120
f 99/99/99 121/121/121 120/120/120
f 101/101/101 102/102/102 122/122/122
f 102/102/102 123/123/123 122/122/122
f 102/102/102 103/103/103 123/123/123
f 103/103/103 124/124/124 123/123/123
f 103/103/103 104/104/104 124/124/124
f 104/104/104 125/125/125 124/124/124
f 104/104/104 105/105/105 125/125/125
f 105/105/105 126/126/126 125/125/125
f 105/105/105 106/106/106 126/126/126
f 106/106/106 127/127/127 126/126/126
f 106/106/106 108/108/108 127/127/127
f 108/108/108 128/128/128 127/127/127
f 109/109/109 86/86/86 129/129/129
f 86/86/86 110/110/110 129/129/129
f 110/110/110 111/111/111 130/130/130
f 111/111/111 131/131/131 130/130/130
f 112/112/112 113/113/113 131/131/131
f 113/113/113 132/132/132 131/131/131
f 113/113/113 114/114/114 132/132/132
f 114/114/114 133/133/133 132/132/132
f 114/114/114 115/115/115 133/133/133
f 115/115/115 134/134/134 133/133/133
f 115/115/115 116/116/116 134/134/134
f 116/116/116 135/135/135 134/134/134
f 116/116/116 117/117/117 135/135/135
f 117/117/117 136/136/136 135/135/135
f 117/117/117 118/118/118 136/136/136
f 118/118/118 137/137/137 136/136/136
f 119/119/119 120/120/120 137/137/137
f 120/120/120 138/138/138 137/137/137
f 120/120/120 121/121/121 138/138/138
f 121/121/121 139/139/139 138/138/138
f 122/122/122 123/123/123 139/139/139
f 123/123/123 140/140/140 139/139/139
f 123/123/123 124/124/124 140/140/140
f 124/124/124 141/141/141 140/140/140
f 124/124/124 125/125/125 141/141/141
f 125/125/125 142/142/142 141/141/141
f 125/125/125 126/126/126 142/142/142
f 126/126/126 143/143/143 142/142/142
f 126/126/126 127/127/127 143/143/143
f 127/127/127 144/144/144 143/143/143
f 127/127/127 128/128/128 144/144/144
f 128/128/128 145/145/145 144/144/144
f 129/129/129 110/110/110 145/145/145
f 110/110/110 130/130/130 145/145/145
f 130/130/130 131/131/131 146/146/146
f 131/131/131 147/147/147 146/146/146
f 131/131/131 132/132/132 147/147/147
f 132/132/132 148/148/148 147/147/147
f 132/132/132 133/133/133 148/148/148
f 133/133/133 149/149/149 148/148/148
f 133/133/133 134/134/134 149/149/149
f 134/134/134 150/150/150 149/149/149
f 134/134/134 135/135/135 150/150/150
f 135/135/135 151/151/151 150/150/150
f 135/135/135 136/136/136 151/151/151
f 136/136/136 152/152/152 151/151/151
f 136/136/136 137/137/137 152/152/152
f 137/137/137 153/153/153 152/152/152
f 137/137/137 138/138/138 153/153/153
f 138/138/138 154/154/154 153/153/153
f 138/138/138 139/139/139 154/154/154
f 139/139/139 155/155/155 154/154/154
f 139/139/139 140/140/140 155/155/155
f 140/140/140 156/156/156 155/155/155
f 140/140/140 141/141/141 156/156/156
f 141/141/141 157/157/157 156/156/156
f 141/141/141 142/142/142 157/157/157
f 142/142/142 158/158/158 157/157/157
f 142/142/142 143/143/143 158/158/158
f 143/143/143 159/159/159 158/158/158
f 143/143/143 144/144/144 159/159/159
f 144/144/144 160/160/160 159/159/159
f 144/144/144 145/145/145 160/160/160
f 145/145/145 161/161/161 160/160/160
f 145/145/145 130/130/130 161/161/161
f 130/130/130 146/146/146 161/161/161
f 146/146/146 147/147/147 162/162/162
f 147/147/147 163/163/163 162/162/162
f 147/147/147 148/148/148 163/163/163
f 148/148/148 164/164/164 163/163/163
f 148/148/148 149/149/149 164/164/164
f 149/149/149 165/165/165 164/164/164
f 149/149/149 150/150/150 165/165/165
f 150/150/150 166/166/166 165/165/165
f 150/150/150 151/151/151 166/166/166
f 151/151/151 167/167/167 166/166/166
f 151/151/151 152/152/152 167/167/167
f 152/152/152 168/168/168 167/167/167
f 152/152/152 153/153/153 168/168/168
f 153/153/153 169/169/169 168/168/168
f 153/153/153 154/154/154 169/169/169
f 154/154/154 170/170/170 169/169/169
f 154/154/154 155/155/155 170/170/170
f 155/155/155 171/171/171 170/170/170
f 155/155/155 156/156/156 171/171/171
f 156/156/156 172/172/172 171/171/171
f 156/156/156 157/157/157 172/172/172
f 157/157/157 173/173/173 172/172/172
f 157/157/157 158/158/158 173/173/173
f 158/158/158 174/174/174 173/173/173
f 158/158/158 159/159/159 174/174/174
f 159/159/159 175/175/175 174/174/174
f 159/159/159 160/160/160 175/175/175
f 160/160/160 176/176/176 175/175/175
f 160/160/160 161/161/161 176/176/176
f 161/161/161 177/177/177 176/176/176
f 161/161/161 146/146/146 177/177/177
f 146/146/146 162/162/162 177/177/177
f 162/162/162 163/163/163 178/178/178
f 163/163/163 179/179/179 178/178/178
f 163/163/163 164/164/164 179/179/179
f 164/164/164 180/180/180 179/179/179
f 164/164/164 165/165/165 180/180/180
f 165/165/165 181/181/181 180/180/180
f 165/165/165 166/166/166 181/181/181
f 166/166/166 182/182/182 181/181/181
f 166/166/166 167/167/167 182/182/182
f 167/167/167 183/183/183 182/182/182
f 167/167/167 168/168/168 183/183/183
f 168/168/168 184/184/184 183/183/183
f 168/168/168 169/169/169 184/184/184
f 169/169/169 185/185/185 184/184/184
f 169/169/169 170/170/170 185/185/185
f 170/170/170 186/186/186 185/185/185
f 170/170/170 171/171/171 186/186/186
f 171/171/171 187/187/187 186/186/186
f 171/171/171 172/172/172 187/187/187
f 172/172/172 188/188/188 187/187/187
f 172/172/172 173/173/173 188/188/188
f 173/173/173 189/189/189 188/188/188
f 173/173/173 174/174/174 189/189/189
f 174/174/174 190/190/190 189/189/189
f 174/174/174 175/175/175 190/190/190
f 175/175/175 191/191/191 190/190/190
f 175/175/175 176/176/176 191/191/191
f 176/176/176 192/192/192 191/191/191
f 176/176/176 177/177/177 192/192/192
f 177/177/177 193/193/193 192/192/192
f 177/177/177 162/162/162 193/193/193
f 162/162/162 178/178/178 193/193/193
f 178/178/178 179/179/179 194/194/194
f 179/179/179 195/195/195 194/194/194
f 179/179/179 180/180/180 195/195/195
f 180/180/180 196/196/196 195/195/195
f 180/180/180 181/181/181 196/196/196
f 181/181/181 197/197/197 196/196/196
f 181/181/181 182/182/182 197/197/197
f 182/182/182 198/198/198 197/197/197
f 182/182/182 183/183/183 198/198/198
f 183/183/183 199/199/199 198/198/198
f 183/183/183 184/184/184 199/199/199
f 184/184/184 200/200/200 199/199/199
f 184/184/184 185/185/185 200/200/200
f 185/185/185 201/201/201 200/200/200
f 185/185/185 186/186/186 201/201/201
f 186/186/186 202/202/202 201/201/201
f 186/186/186 187/187/187 202/202/202
f 187/187/187 203/203/203 202/202/202
f 187/187/187 188/188/188 203/203/203
f 188/188/188 204/204/204 203/203/203
f 188/188/188 189/189/189 204/204/204
f 189/189/189 205/205/205 204/204/204
f 189/189/189 190/190/190 205/205/205
f 190/190/190 206/206/206 205/205/205
f 190/190/190 191/191/191 206/206/206
f 191/191/191 207/207/207 206/206/206
f 191/191/191 192/192/192 207/207/207
f 192/192/192 208/208/208 207/207/207
f 192/192/192 193/193/193 208/208/208
f 193/193/193 209/209/209 208/208/208
f 193/193/193 178/178/178 209/209/209
f 178/178/178 194/194/194 209/209/209
f 194/194/194 195/195/195 210/210/210
f 195/195/195 211/211/211 210/210/210
f 195/195/195 196/196/196 211/211/211
f 196/196/196 212/212/212 211/211/211
f 196/196/196 197/197/197 212/212/212
f 197/197/197 213/213/213 212/212/212
f 197/197/197 198/198/198 213/213/213
f 198/198/198 214/214/214 213/213/213
f 198/198/198 199/199/199 214/214/214
f 199/199/199 215/215/215 214/214/214
f 199/199/199 200/200/200 215/215/215
f 200/200/200 216/216/216 215/215/215
f 200/200/200 201/201/201 216/216/216
f 201/201/201 217/217/217 216/216/216
f 201/201/201 202/202/202 217/217/217
f 202/202/202 218/218/218 217/217/217
f 202/202/202 203/203/203 218/218/218
f 203/203/203 219/219/219 218/218/218
f 203/203/203 204/204/204 219/219/219
f 204/204/204 220/220/220 219/219/219
f 204/204/204 205/205/205 220/220/220
f 205/205/205 221/221/221 220/220/220
f 205/205/205 206/206/206 221/221/221
f 206/206/206 222/222/222 221/221/221
f 206/206/206 207/207/207 222/222/222
f 207/207/207 223/223/223 222/222/222
f 207/207/207 208/208/208 223/223/223
f 208/208/208 224/224/224 223/223/223
f 208/208/208 209/209/209 224/224/224
f 209/209/209 225/225/225 224/224/224
f 209/209/209 194/194/194 225/225/225
f 194/194/194 210/210/210 225/225/225
f 210/210/210 211/211/211 226/226/226
f 211/211/211 227/227/227 226/226/226
f 211/211/211 212/212/212 227/227/227
f 212/212/212 228/228/228 227/227/227
f 212/212/212 213/213/213 228/228/228
f 213/213/213 229/229/229 228/228/228
f 213/213/213 214/214/214 229/229/229
f 214/214/214 230/230/230 229/229/229
f 214/214/214 215/215/215 230/230/230
f 215/215/215 231/231/231 230/230/230
f 215/215/215 216/216/216 231/231/231
f 216/216/216 232/232/232 231/231/231
f 216/216/216 217/217/217 232/232/232
f 217/217/217 233/233/233 232/232/232
f 217/217/217 218/218/218 233/233/233
f 218/218/218 234/234/234 233/233/233
f 218/218/218 219/219/219 234/234/234
f 219/219/219 235/235/235 234/234/234
f 219/219/219 220/220/220 235/235/235
f 220/220/220 236/236/236 235/235/235
f 220/220/220 221/221/221 236/236/236
f 221/221/221 237/237/237 236/236/236
f 221/221/221 222/222/222 237/237/237
f 222/222/222 238/238/238 237/237/237
f 222/222/222 223/223/223 238/238/238
f 223/223/223 239/239/239 238/238/238
f 223/223/223 224/224/224 239/239/239
f 224/224/224 240/240/240 239/239/239
f 224/224/224 225/225/225 240/240/240
f 225/225/225 241/241/241 240/240/240
f 225/225/225 210/210/210 241/241/241
f 210/210/210 226/226/226 241/241/241
f 226/226/226 227/227/227 242/242/242
f 227/227/227 243/243/243 242/242/242
f 227/227/227 228/228/228 243/243/243
f 228/228/228 244/244/244 243/243/243
f 228/228/228 229/229/229 244/244/244
f 229/229/229 245/245/245 244/244/244
f 229/229/229 230/230/230 245/245/245
f 230/230/230 246/246/246 245/245/245
f 230/230/230 231/231/231 246/246/246
f 231/231/231 247/247/247 246/246/246
f 231/231/231 232/232/232 247/247/247
f 232/232/232 248/248/248 247/247/247
f 232/232/232 233/233/233 248/248/248
f 233/233/233 249/249/249 248/248/248
f 233/233/233 234/234/234 249/249/249
f 234/234/234 250/250/250 249/249/249
f 234/234/234 235/235/235 250/250/250
f 235/235/235 251/251/251 250/250/250
f 235/235/235 236/236/236 251/251/251
f 236/236/236 252/252/252 251/251/251
f 236/236/236 237/237/237 252/252/252
f 237/237/237 253/253/253 252/252/252
f 237/237/237 238/238/238 253/253/253
f 238/238/238 254/254/254 253/253/253
f 238/238/238 239/239/239 254/254/254
f 239/239/239 255/255/255 254/254/254
f 239/239/239 240/240/240 255/255/255
f 240/240/240 256/256/256 255/255/255
f 240/240/240 241/241/241 256/256/256
f 241/241/241 257/257/257 256/256/256
f 241/241/241 226/226/226 257/257/257
f 226/226/226 242/242/242 257/257/257
f 242/242/242 243/243/243 258/258/258
f 243/243/243 259/259/259 258/258/258
f 243/243/243 244/244/244 259/259/259
f 244/244/244 260/260/260 259/259/259
f 244/244/244 245/245/245 260/260/260
f 245/245/245 261/261/261 260/260/260
f 245/245/245 246/246/246 261/261/261
f 246/246/246 262/262/262 261/261/261
f 246/246/246 247/247/247 262/262/262
f 247/247/247 263/263/263 262/262/262
f 247/247/247 248/248/248 263/263/263
f 248/248/248 264/264/264 263/263/263
f 248/248/248 249/249/249 264/264/264
f 249/249/249 265/265/265 264/264/264
f 249/249/249 250/250/250 265/265/265
f 250/250/250 266/266/266 265/265/265
f 250/250/250 251/251/251 266/266/266
f 251/251/251 267/267/267 266/266/266
f 251/251/251 252/252/252 267/267/267
f 252/252/252 268/268/268 267/267/267
f 252/252/252 253/253/253 268/268/268
f 253/253/253 269/269/269 268/268/268
f 253/253/253 254/254/254 269/269/269
f 254/254/254 270/270/270 269/269/269
f 254/254/254 255/255/255 270/270/270
f 255/255/255 271/271/271 270/270/270
f 255/255/255 256/256/256 271/271/271
f 256/256/256 272/272/272 271/271/271
f 256/256/256 257/257/257 272/272/272
f 257/257/257 273/273/273 272/272/272
f 257/257/257 242/242/242 273/273/273
f 242/242/242 258/258/258 273/273/273
f 258/258/258 259/259/259 274/274/274
f 259/259/259 275/275/275 274/274/274
f 259/259/259 260/260/260 275/275/275
f 260/260/260 276/276/276 275/275/275
f 260/260/260 261/261/261 276/276/276
f 261/261/261 277/277/277 276/276/276
f 261/261/261 262/262/262 277/277/277
f 262/262/262 278/278/278 277/277/277
f 262/262/262 263/263/263 278/278/278
f 263/263/263 279/279/279 278/278/278
f 263/263/263 264/264/264 279/279/279
f 264/264/264 280/280/280 279/279/279
f 264/264/264 265/265/265 280/280/280
f 265/265/265 281/281/281 280/280/280
f 265/265/265 266/266/266 281/281/281
f 266/266/266 282/282/282 281/281/281
f 266/266/266 267/267/267 282/282/282
f 267/267/267 283/283/283 282/282/282
f 267/267/267 268/268/268 283/283/283
f 268/268/268 284/284/284 283/283/283
f 268/268/268 269/269/269 284/284/284
f 269/269/269 285/285/285 284/284/284
f 269/269/269 270/270/270 285/285/285
f 270/270/270 286/286/286 285/285/285
f 270/270/270 271/271/271 286/286/286
f 271/271/271 287/287/287 286/286/286
f 271/271/271 272/272/272 287/287/287
f 272/272/272 288/288/288 287/287/287
f 272/272/272 273/273/273 288/288/288
f 273/273/273 289/289/289 288/288/288
f 273/273/273 258/258/258 289/289/289
f 258/258/258 274/274/274 289/289/289
f 274/274/274 275/275/275 290/290/290
f 275/275/275 291/291/291 290/290/290
f 275/275/275 276/276/276 291/291/291
f 276/276/276 292/292/292 291/291/291
f 276/276/276 277/277/277 292/292/292
f 277/277/277 293/293/293 292/292/292
f 277/277/277 278/278/278 293/293/293
f 278/278/278 294/294/294 293/293/293
f 278/278/278 279/279/279 294/294/294
f 279/279/279 295/295/295 294/294/294
f 279/279/279 280/280/280 295/295/295
f 280/280/280 296/296/296 295/295/295
f 280/280/280 281/281/281 296/296/296
f 281/281/281 297/297/297 296/296/296
f 281/281/281 282/282/282 297/297/297
f 282/282/282 298/298/298 297/297/297
f 282/282/282 283/283/283 298/298/298
f 283/283/283 299/299/299 298/298/298
f 283/283/283 284/284/284 299/299/299
f 284/284/284 300/300/300 299/299/299
f 284/284/284 285/285/285 300/300/300
f 285/285/285 301/301/301 300/300/300
f 285/285/285 286/286/286 301/301/301
f 286/286/286 302/302/302 301/301/301
f 286/286/286 287/287/287 302/302/302
f 287/287/287 303/303/303 302/302/302
f 287/287/287 288/288/288 303/303/303
f 288/288/288 304/304/304 303/303/303
f 288/288/288 289/289/289 304/304/304
f 289/289/289 305/305/305 304/304/304
f 289/289/289 274/274/274 305/305/305
f 274/274/274 290/290/290 305/305/305
f 290/290/290 291/291/291 306/306/306
f 291/291/291 307/307/307 306/306/306
f 291/291/291 292/292/292 307/307/307
f 292/292/292 308/308/308 307/307/307
f 292/292/292 293/293/293 308/308/308
f 293/293/293 309/309/309 308/308/308
f 293/293/293 294/294/294 309/309/309
f 294/294/294 310/310/310 309/309/309
f 294/294/294 295/295/295 310/310/310
f 295/295/295 311/311/311 310/310/310
f 295/295/295 296/296/296 311/311/311
f 296/296/296 312/312/312 311/311/311
f 296/296/296 297/297/297 312/312/312
f 297/297/297 313/313/313 312/312/312
f 297/297/297 298/298/298 313/313/313
f 298/298/298 314/314/314 313/313/313
f 298/298/298 299/299/299 314/314/314
f 299/299/299 315/315/315 314/314/314
f 299/299/299 300/300/300 315/315/315
f 300/300/300 316/316/316 315/315/315
f 300/300/300 301/301/301 316/316/316
f 301/301/301 317/317/317 316/316/316
f 301/301/301 302/302/302 317/317/317
f 302/302/302 318/318/318 317/317/317
f 302/302/302 303/303/303 318/318/318
f 303/303/303 319/319/319 318/318/318
f 303/303/303 304/304/304 319/319/319
f 304/304/304 320/320/320 319/319/319
f 304/304/304 305/305/305 320/320/320
f 305/305/305 321/321/321 320/320/320
f 305/305/305 290/290/290 321/321/321
f 290/290/290 306/306/306 321/321/321
f 306/306/306 307/307/307 322/322/322
f 307/307/307 323/323/323 322/322/322
f 307/307/307 308/308/308 323/323/323
f 308/308/308 324/324/324 323/323/323
f 308/308/308 309/309/309 324/324/324
f 309/309/309 325/325/325 324/324/324
f 309/309/309 310/310/310 325/325/325
f 310/310/310 326/326/326 325/325/325
f 310/310/310 311/311/311 326/326/326
f 311/311/311 327/327/327 326/326/326
f 311/311/311 312/312/312 327/327/327
f 312/312/312 328/328/328 327/327/327
f 312/312/312 313/313/313 328/328/328
f 313/313/313 329/329/329 328/328/328
f 313/313/313 314/314/314 329/329/329
f 314/314/314 330/330/330 329/329/329
f 314/314/314 315/315/315 330/330/330
f 315/315/315 331/331/331 330/330/330
f 315/315/315 316/316/316 331/331/331
f 316/316/316 332/332/332 331/331/331
f 316/316/316 317/317/317 332/332/332
f 317/317/317 333/333/333 332/332/332
f 317/317/317 318/318/318 333/333/333
f 318/318/318 334/334/334 333/333/333
f 318/318/318 319/319/319 334/334/334
f 319/319/319 335/335/335 334/334/334
f 319/319/319 320/320/320 335/335/335
f 320/320/320 336/336/336 335/335/335
f 320/320/320 321/321/321 336/336/336
f 321/321/321 337/337/337 336/336/336
f 321/321/321 306/306/306 337/337/337
f 306/306/306 322/322/322 337/337/337
f 322/322/322 323/323/323 338/338/338
f 323/323/323 339/339/339 338/338/338
f 323/323/323 324/324/324 340/340/340
f 324/324/324 341/341/341 340/340/340
f 324/324/324 325/325/325 341/341/341
f 325/325/325 342/342/342 341/341/341
f 325/325/325 326/326/326 342/342/342
f 326/326/326 343/343/343 342/342/342
f 326/326/326 327/327/327 343/343/343
f 327/327/327 344/344/344 343/343/343
f 327/327/327 328/328/328 344/344/344
f 328/328/328 345/345/345 344/344/344
f 328/328/328 329/329/329 345/345/345
f 329/329/329 346/346/346 345/345/345
f 329/329/329 330/330/330 347/347/347
f 330/330/330 348/348/348 347/347/347
f 330/330/330 331/331/331 348/348/348
f 331/331/331 349/349/349 348/348/348
f 331/331/331 332/332/332 350/350/350
f 332/332/332 351/351/351 350/350/350
f 332/332/332 333/333/333 351/351/351
f 333/333/333 352/352/352 351/351/351
f 333/333/333 334/334/334 352/352/352
f 334/334/334 353/353/353 352/352/352
f 334/334/334 335/335/335 353/353/353
f 335/335/335 354/354/354 353/353/353
f 335/335/335 336/336/336 354/354/354
f 336/336/336 355/355/355 354/354/354
f 336/336/336 337/337/337 355/355/355
f 337/337/337 356/356/356 355/355/355
f 337/337/337 322/322/322 357/357/357
f 322/322/322 338/338/338 357/357/357
f 338/338/338 339/339/339 358/358/358
f 339/339/339 359/359/359 358/358/358
f 340/340/340 341/341/341 360/360/360
f 341/341/341 361/361/361 360/360/360
f 341/341/341 342/342/342 361/361/361
f 342/342/342 362/362/362 361/361/361
f 342/342/342 343/343/343 362/362/362
f 343/343/343 363/363/363 362/362/362
f 343/343/343 344/344/344 363/363/363
f 344/344/344 364/364/364 363/363/363
f 344/344/344 345/345/345 364/364/364
f 345/345/345 365/365/365 364/364/364
f 345/345/345 346/346/346 365/365/365
f 346/346/346 366/366/366 365/365/365
f 347/347/347 348/348/348 367/367/367
f 348/348/348 368/368/368 367/367/367
f 348/348/348 349/349/349 368/368/368
f 349/349/349 369/369/369 368/368/368
f 350/350/350 351/351/351 370/370/370
f 351/351/351 371/371/371 370/370/370
f 351/351/351 352/352/352 371/371/371
f 352/352/352 372/372/372 371/371/371
f 352/352/352 353/353/353 372/372/372
f 353/353/353 373/373/373 372/372/372
f 353/353/353 354/354/354 373/373/373
f 354/354/354 374/374/374 373/373/373
f 354/354/354 355/355/355 374/374/374
f 355/355/355 375/375/375 374/374/374
f 355/355/355 356/356/356 375/375/375
f 356/356/356 376/376/376 375/375/375
f 357/357/357 338/338/338 377/377/377
f 338/338/338 358/358/358 377/377/377
f 358/358/358 359/359/359 378/378/378
f 359/359/359 379/379/379 378/378/378
f 360/360/360 361/361/361 380/380/380
f 361/361/361 381/381/381 380/380/380
f 361/361/361 362/362/362 381/381/381
f 362/362/362 382/382/382 381/381/381
f 362/362/362 363/363/363 382/382/382
f 363/363/363 383/383/383 382/382/382
f 363/363/363 364/364/364 383/383/383
f 364/364/364 384/384/384 383/383/383
f 364/364/364 365/365/365 384/384/384
f 365/365/365 385/385/385 384/384/384
f 365/365/365 366/366/366 385/385/385
f 366/366/366 386/386/386 385/385/385
f 367/367/367 368/368/368 387/387/387
f 368/368/368 388/388/388 387/387/387
f 368/368/368 369/369/369 388/388/388
f 369/369/369 389/389/389 388/388/388
f 370/370/370 371/371/371 390/390/390
f 371/371/371 391/391/391 390/390/390
f 371/371/371 372/372/372 391/391/391
f 372/372/372 392/392/392 391/391/391
f 372/372/372 373/373/373 392/392/392
f 373/373/373 393/393/393 392/392/392
f 373/373/373 374/374/374 393/393/393
f 374/374/374 394/394/394 393/393/393
f 374/374/374 375/375/375 394/394/394
f 375/375/375 395/395/395 394/394/394
f 375/375/375 376/376/376 395/395/395
f 376/376/376 396/396/396 395/395/395
f 377/377/377 358/358/358 397/397/397
f 358/358/358 378/378/378 397/397/397
f 378/378/378 379/379/379 398/398/398
f 379/379/379 399/399/399 398/398/398
f 379/379/379 381/381/381 399/399/399
f 381/381/381 400/400/400 399/399/399
f 381/381/381 382/382/382 401/401/401
f 382/382/382 402/402/402 401/401/401
f 382/382/382 383/383/383 403/403/403
f 383/383/383 404/404/404 403/403/403
f 383/383/383 384/384/384 404/404/404
f 384/384/384 405/405/405 404/404/404
f 384/384/384 385/385/385 406/406/406
f 385/385/385 407/407/407 406/406/406
f 385/385/385 387/387/387 408/408/408
f 387/387/387 409/409/409 408/408/408
f 387/387/387 388/388/388 409/409/409
f 388/388/388 410/410/410 409/409/409
f 388/388/388 389/389/389 410/410/410
f 389/389/389 411/411/411 410/410/410
f 389/389/389 391/391/391 411/411/411
f 391/391/391 412/412/412 411/411/411
f 391/391/391 392/392/392 413/413/413
f 392/392/392 414/414/414 413/413/413
f 392/392/392 393/393/393 415/415/415
f 393/393/393 416/416/416 415/415/415
f 393/393/393 394/394/394 416/416/416
f 394/394/394 417/417/417 416/416/416
f 394/394/394 395/395/395 418/418/418
f 395/395/395 419/419/419 418/418/418
f 395/395/395 397/397/397 420/420/420
f 397/397/397 421/421/421 420/420/420
f 397/397/397 378/378/378 421/421/421
f 378/378/378 398/398/398 421/421/421
f 398/398/398 399/399/399 422/422/422
f 399/399/399 423/423/423 422/422/422
f 399/399/399 424/424/424 425/425/425
f 424/424/424 426/426/426 425/425/425
f 427/427/427 428/428/428 429/429/429
f 428/428/428 430/430/430 429/429/429
f 431/431/431 404/404/404 432/432/432
f 404/404/404 433/433/433 432/432/432
f 404/404/404 434/434/434 433/433/433
f 434/434/434 435/435/435 433/433/433
f 436/436/436 437/437/437 438/438/438
f 437/437/437 439/439/439 438/438/438
f 440/440/440 409/409/409 441/441/441
f 409/409/409 442/442/442 441/441/441
f 409/409/409 410/410/410 443/443/443
f 410/410/410 444/444/444 443/443/443
f 410/410/410 411/411/411 445/445/445
f 411/411/411 446/446/446 445/445/445
f 411/411/411 447/447/447 448/448/448
f 447/447/447 449/449/449 448/448/448
f 450/450/450 451/451/451 452/452/452
f 451/451/451 453/453/453 452/452/452
f 454/454/454 416/416/416 455/455/455
f 416/416/416 456/456/456 455/455/455
f 416/416/416 457/457/457 456/456/456
f 457/457/457 458/458/458 456/456/456
f 459/459/459 460/460/460 461/461/461
f 460/460/460 462/462/462 461/461/461
f 463/463/463 421/421/421 464/464/464
f 421/421/421 465/465/465 464/464/464
f 421/421/421 398/398/398 466/466/466
f 398/398/398 467/467/467 466/466/466
f 468/468/468 469/469/469 470/470/470
f 469/469/469 471/471/471 470/470/470
f 469/469/469 472/472/472 471/471/471
f 472/472/472 473/473/473 471/471/471
f 474/474/474 475/475/475 476/476/476
f 475/475/475 477/477/477 476/476/476
f 475/475/475 478/478/478 477/477/477
f 478/478/478 479/479/479 477/477/477
f 480/480/480 481/481/481 482/482/482
f 481/481/481 483/483/483 482/482/482
f 481/481/481 484/484/484 483/483/483
f 484/484/484 485/485/485 483/483/483
f 486/486/486 487/487/487 488/488/488
f 487/487/487 489/489/489 488/488/488
f 487/487/487 490/490/490 489/489/489
f 490/490/490 491/491/491 489/489/489
f 490/490/490 492/492/492 491/491/491
f 492/492/492 493/493/493 491/491/491
f 492/492/492 494/494/494 493/493/493
f 494/494/494 495/495/495 493/493/493
f 496/496/496 497/497/497 498/498/498
f 497/497/497 499/499/499 498/498/498
f 497/497/497 500/500/500 499/499/499
f 500/500/500 501/501/501 499/499/499
f 502/502/502 503/503/503 504/504/504
f 503/503/503 505/505/505 504/504/504
f 503/503/503 506/506/506 505/505/505
f 506/506/506 507/507/507 505/505/505
f 508/508/508 509/509/509 510/510/510
f 509/509/509 511/511/511 510/510/510
f 509/509/509 468/468/468 511/511/511
f 468/468/468 470/470/470 511/511/511
f 470/470/470 471/471/471 512/512/512
f 471/471/471 513/513/513 512/512/512
f 471/471/471 473/473/473 513/513/513
f 473/473/473 514/514/514 513/513/513
f 473/473/473 515/515/515 514/514/514
f 515/515/515 516/516/516 514/514/514
f 515/515/515 517/517/517 516/516/516
f 517/517/517 518/518/518 516/516/516
f 517/517/517 519/519/519 518/518/518
f 519/519/519 520/520/520 518/518/518
f 519/519/519 488/488/488 520/520/520
f 488/488/488 521/521/521 520/520/520
f 488/488/488 489/489/489 521/521/521
f 489/489/489 522/522/522 521/521/521
f 489/489/489 491/491/491 522/522/522
f 491/491/491 523/523/523 522/522/522
f 491/491/491 493/493/493 523/523/523
f 493/493/493 524/524/524 523/523/523
f 493/493/493 495/495/495 524/524/524
f 495/495/495 525/525/525 524/524/524
f 495/495/495 526/526/526 525/525/525
f 526/526/526 527/527/527 525/525/525
f 526/526/526 528/528/528 527/527/527
f 528/528/528 529/529/529 527/527/527
f 528/528/528 530/530/530 529/529/529
f 530/530/530 531/531/531 529/529/529
f 530/530/530 510/510/510 531/531/531
f 510/510/510 532/532/532 531/531/531
f 510/510/510 511/511/511 532/532/532
f 511/511/511 533/533/533 532/532/532
f 511/511/511 470/470/470 533/533/533
f 470/470/470 512/512/512 533/533/533
f 512/512/512 513/513/513 534/534/534
f 513/513/513 514/514/514 534/534/534
f 514/514/514 516/516/516 534/534/534
f 516/516/516 518/518/518 534/534/534
f 518/518/518 520/520/520 534/534/534
f 520/520/520 521/521/521 534/534/534
f 521/521/521 522/522/522 534/534/534
f 522/522/522 523/523/523 534/534/534
f 523/523/523 524/524/524 534/534/534
f 524/524/524 525/525/525 534/534/534
f 525/525/525 527/527/527 534/534/534
f 527/527/527 529/529/529 534/534/534
f 529/529/529 531/531/531 534/534/534
f 531/531/531 532/532/532 534/534/534
f 532/532/532 533/533/533 534/534/534
f 533/533/533 512/512/512 534/534/534
