# P01-R open surface prototype; metres; no material; not a finished garment
# Anatomical Right=-X; front=+Z; UV values are metres, not a texture atlas.
o P01-R
v -0.2250000000 0.3150000000 -0.2440000000
v -0.1975000000 0.3150000000 -0.2636875000
v -0.1700000000 0.3150000000 -0.2777500000
v -0.1425000000 0.3150000000 -0.2861875000
v -0.1150000000 0.3150000000 -0.2890000000
v -0.0875000000 0.3150000000 -0.2861875000
v -0.0600000000 0.3150000000 -0.2777500000
v -0.0325000000 0.3150000000 -0.2636875000
v -0.0050000000 0.3150000000 -0.2440000000
v -0.2214965820 0.3837500000 -0.2422878418
v -0.1944345093 0.3837500000 -0.2619738998
v -0.1673724365 0.3837500000 -0.2760353699
v -0.1403103638 0.3837500000 -0.2844722519
v -0.1132482910 0.3837500000 -0.2872845459
v -0.0861862183 0.3837500000 -0.2844722519
v -0.0591241455 0.3837500000 -0.2760353699
v -0.0320620728 0.3837500000 -0.2619738998
v -0.0050000000 0.3837500000 -0.2422878418
v -0.2174101563 0.4525000000 -0.2405214844
v -0.1908588867 0.4525000000 -0.2601974487
v -0.1643076172 0.4525000000 -0.2742517090
v -0.1377563477 0.4525000000 -0.2826842651
v -0.1112050781 0.4525000000 -0.2854951172
v -0.0846538086 0.4525000000 -0.2826842651
v -0.0581025391 0.4525000000 -0.2742517090
v -0.0315512695 0.4525000000 -0.2601974487
v -0.0050000000 0.4525000000 -0.2405214844
v -0.2128139648 0.5212500000 -0.2386936035
v -0.1868372192 0.5212500000 -0.2583421707
v -0.1608604736 0.5212500000 -0.2723768616
v -0.1348837280 0.5212500000 -0.2807976761
v -0.1089069824 0.5212500000 -0.2836046143
v -0.0829302368 0.5212500000 -0.2807976761
v -0.0569534912 0.5212500000 -0.2723768616
v -0.0309767456 0.5212500000 -0.2583421707
v -0.0050000000 0.5212500000 -0.2386936035
v -0.2077812500 0.5900000000 -0.2367968750
v -0.1824335938 0.5900000000 -0.2563920898
v -0.1570859375 0.5900000000 -0.2703886719
v -0.1317382813 0.5900000000 -0.2787866211
v -0.1063906250 0.5900000000 -0.2815859375
v -0.0810429687 0.5900000000 -0.2787866211
v -0.0556953125 0.5900000000 -0.2703886719
v -0.0303476563 0.5900000000 -0.2563920898
v -0.0050000000 0.5900000000 -0.2367968750
v -0.2023852539 0.6587500000 -0.2348239746
v -0.1777120972 0.6587500000 -0.2543312302
v -0.1530389404 0.6587500000 -0.2682649841
v -0.1283657837 0.6587500000 -0.2766252365
v -0.1036926270 0.6587500000 -0.2794119873
v -0.0790194702 0.6587500000 -0.2766252365
v -0.0543463135 0.6587500000 -0.2682649841
v -0.0296731567 0.6587500000 -0.2543312302
v -0.0050000000 0.6587500000 -0.2348239746
v -0.1966992188 0.7275000000 -0.2327675781
v -0.1727368164 0.7275000000 -0.2521436157
v -0.1487744141 0.7275000000 -0.2659836426
v -0.1248120117 0.7275000000 -0.2742876587
v -0.1008496094 0.7275000000 -0.2770556641
v -0.0768872070 0.7275000000 -0.2742876587
v -0.0529248047 0.7275000000 -0.2659836426
v -0.0289624023 0.7275000000 -0.2521436157
v -0.0050000000 0.7275000000 -0.2327675781
v -0.1907963867 0.7962500000 -0.2306203613
v -0.1675718384 0.7962500000 -0.2498132706
v -0.1443472900 0.7962500000 -0.2635224915
v -0.1211227417 0.7962500000 -0.2717480240
v -0.0978981934 0.7962500000 -0.2744898682
v -0.0746736450 0.7962500000 -0.2717480240
v -0.0514490967 0.7962500000 -0.2635224915
v -0.0282245483 0.7962500000 -0.2498132706
v -0.0050000000 0.7962500000 -0.2306203613
v -0.1847500000 0.8650000000 -0.2283750000
v -0.1622812500 0.8650000000 -0.2473242188
v -0.1398125000 0.8650000000 -0.2608593750
v -0.1173437500 0.8650000000 -0.2689804687
v -0.0948750000 0.8650000000 -0.2716875000
v -0.0724062500 0.8650000000 -0.2689804688
v -0.0499375000 0.8650000000 -0.2608593750
v -0.0274687500 0.8650000000 -0.2473242188
v -0.0050000000 0.8650000000 -0.2283750000
v -0.1786333008 0.9337500000 -0.2260241699
v -0.1569291382 0.9337500000 -0.2446604843
v -0.1352249756 0.9337500000 -0.2579721375
v -0.1135208130 0.9337500000 -0.2659591293
v -0.0918166504 0.9337500000 -0.2686214600
v -0.0701124878 0.9337500000 -0.2659591293
v -0.0484083252 0.9337500000 -0.2579721375
v -0.0267041626 0.9337500000 -0.2446604843
v -0.0050000000 0.9337500000 -0.2260241699
v -0.1725195313 1.0025000000 -0.2235605469
v -0.1515795898 1.0025000000 -0.2418060913
v -0.1306396484 1.0025000000 -0.2548386230
v -0.1096997070 1.0025000000 -0.2626581421
v -0.0887597656 1.0025000000 -0.2652646484
v -0.0678198242 1.0025000000 -0.2626581421
v -0.0468798828 1.0025000000 -0.2548386230
v -0.0259399414 1.0025000000 -0.2418060913
v -0.0050000000 1.0025000000 -0.2235605469
v -0.1664819336 1.0712500000 -0.2209768066
v -0.1462966919 1.0712500000 -0.2387450638
v -0.1261114502 1.0712500000 -0.2514366760
v -0.1059262085 1.0712500000 -0.2590516434
v -0.0857409668 1.0712500000 -0.2615899658
v -0.0655557251 1.0712500000 -0.2590516434
v -0.0453704834 1.0712500000 -0.2514366760
v -0.0251852417 1.0712500000 -0.2387450638
v -0.0050000000 1.0712500000 -0.2209768066
v -0.1605937500 1.1400000000 -0.2182656250
v -0.1411445313 1.1400000000 -0.2354614258
v -0.1216953125 1.1400000000 -0.2477441406
v -0.1022460938 1.1400000000 -0.2551137695
v -0.0827968750 1.1400000000 -0.2575703125
v -0.0633476563 1.1400000000 -0.2551137695
v -0.0438984375 1.1400000000 -0.2477441406
v -0.0244492188 1.1400000000 -0.2354614258
v -0.0050000000 1.1400000000 -0.2182656250
v -0.1549282227 1.2087500000 -0.2154196777
v -0.1361871948 1.2087500000 -0.2319392014
v -0.1174461670 1.2087500000 -0.2437388611
v -0.0987051392 1.2087500000 -0.2508186569
v -0.0799641113 1.2087500000 -0.2531785889
v -0.0612230835 1.2087500000 -0.2508186569
v -0.0424820557 1.2087500000 -0.2437388611
v -0.0237410278 1.2087500000 -0.2319392014
v -0.0050000000 1.2087500000 -0.2154196777
v -0.1495585938 1.2775000000 -0.2124316406
v -0.1314887695 1.2775000000 -0.2281624146
v -0.1134189453 1.2775000000 -0.2393986816
v -0.0953491211 1.2775000000 -0.2461404419
v -0.0772792969 1.2775000000 -0.2483876953
v -0.0592094727 1.2775000000 -0.2461404419
v -0.0411396484 1.2775000000 -0.2393986816
v -0.0230698242 1.2775000000 -0.2281624146
v -0.0050000000 1.2775000000 -0.2124316406
v -0.1445581055 1.3462500000 -0.2092941895
v -0.1271133423 1.3462500000 -0.2241150894
v -0.1096685791 1.3462500000 -0.2347014465
v -0.0922238159 1.3462500000 -0.2410532608
v -0.0747790527 1.3462500000 -0.2431705322
v -0.0573342896 1.3462500000 -0.2410532608
v -0.0398895264 1.3462500000 -0.2347014465
v -0.0224447632 1.3462500000 -0.2241150894
v -0.0050000000 1.3462500000 -0.2092941895
v -0.1400000000 1.4150000000 -0.2060000000
v -0.1231250000 1.4150000000 -0.2197812500
v -0.1062500000 1.4150000000 -0.2296250000
v -0.0893750000 1.4150000000 -0.2355312500
v -0.0725000000 1.4150000000 -0.2375000000
v -0.0556250000 1.4150000000 -0.2355312500
v -0.0387500000 1.4150000000 -0.2296250000
v -0.0218750000 1.4150000000 -0.2197812500
v -0.0050000000 1.4150000000 -0.2060000000
vt 0.0000000000 0.0000000000
vt 0.0338465961 0.0000000000
vt 0.0647672944 0.0000000000
vt 0.0935741371 0.0000000000
vt 0.1212640782 0.0000000000
vt 0.1489535643 0.0000000000
vt 0.1777591141 0.0000000000
vt 0.2086778469 0.0000000000
vt 0.2425219722 0.0000000000
vt 0.0000000000 0.0687937647
vt 0.0334906245 0.0687937647
vt 0.0640217931 0.0687937647
vt 0.0924105694 0.0687937647
vt 0.1196655932 0.0687937647
vt 0.1469201558 0.0687937647
vt 0.1753076237 0.0687937647
vt 0.2058368080 0.0687937647
vt 0.2393249436 0.0687937647
vt 0.0000000000 0.1375974427
vt 0.0330728720 0.1375974427
vt 0.0631485298 0.1375974427
vt 0.0910493093 0.1375974427
vt 0.1177969969 0.1375974427
vt 0.1445442162 0.1375974427
vt 0.1724436698 0.1375974427
vt 0.2025173225 0.1375974427
vt 0.2355876859 0.1375974427
vt 0.0000000000 0.2064118557
vt 0.0325964645 0.2064118557
vt 0.0621564505 0.2064118557
vt 0.0895071632 0.2064118557
vt 0.1156840616 0.2064118557
vt 0.1418604840 0.2064118557
vt 0.1692098525 0.2064118557
vt 0.1987678124 0.2064118557
vt 0.2313617490 0.2064118557
vt 0.0000000000 0.2752375378
vt 0.0320641958 0.2752375378
vt 0.0610539517 0.2752375378
vt 0.0878002923 0.2752375378
vt 0.1133518987 0.2752375378
vt 0.1389030217 0.2752375378
vt 0.1656480002 0.2752375378
vt 0.1946357103 0.2752375378
vt 0.2266973616 0.2752375378
vt 0.0000000000 0.3440748256
vt 0.0314784416 0.3440748256
vt 0.0598487318 0.3440748256
vt 0.0859440325 0.3440748256
vt 0.1108247749 0.3440748256
vt 0.1357050268 0.3440748256
vt 0.1617989495 0.3440748256
vt 0.1901671775 0.3440748256
vt 0.2216430624 0.3440748256
vt 0.0000000000 0.4129239491
vt 0.0308411023 0.4129239491
vt 0.0585476886 0.4129239491
vt 0.0839527701 0.4129239491
vt 0.1081259823 0.4129239491
vt 0.1322986979 0.4129239491
vt 0.1577023885 0.4129239491
vt 0.1854069015 0.4129239491
vt 0.2162454412 0.4129239491
vt 0.0000000000 0.4817851224
vt 0.0301535780 0.4817851224
vt 0.0571568702 0.4817851224
vt 0.0818398763 0.4817851224
vt 0.1052777710 0.4817851224
vt 0.1287151649 0.4817851224
vt 0.1533967718 0.4817851224
vt 0.1803979866 0.4817851224
vt 0.2105490047 0.4817851224
vt 0.0000000000 0.5506586332
vt 0.0294167802 0.5506586332
vt 0.0556814861 0.5506586332
vt 0.0796177156 0.5506586332
vt 0.1023013565 0.5506586332
vt 0.1249844946 0.5506586332
vt 0.1489193231 0.5506586332
vt 0.1751819564 0.5506586332
vt 0.2045961898 0.5506586332
vt 0.0000000000 0.6195449342
vt 0.0286311861 0.6195449342
vt 0.0541259937 0.6195449342
vt 0.0772977440 0.6195449342
vt 0.0992170192 0.6195449342
vt 0.1211357923 0.6195449342
vt 0.1443061477 0.6195449342
vt 0.1697988983 0.6195449342
vt 0.1984275633 0.6195449342
vt 0.0000000000 0.6884447324
vt 0.0277969472 0.6884447324
vt 0.0524942788 0.6884447324
vt 0.0748907216 0.6884447324
vt 0.0960443219 0.6884447324
vt 0.1171974248 0.6884447324
vt 0.1395924881 0.6884447324
vt 0.1642877912 0.6884447324
vt 0.1920822574 0.6884447324
vt 0.0000000000 0.7573590800
vt 0.0269140650 0.7573590800
vt 0.0507899573 0.7573590800
vt 0.0724070742 0.7573590800
vt 0.0928024822 0.7573590800
vt 0.1131974016 0.7573590800
vt 0.1348131659 0.7573590800
vt 0.1586870729 0.7573590800
vt 0.1855987132 0.7573590800
vt 0.0000000000 0.8262894637
vt 0.0259826569 0.8262894637
vt 0.0490168359 0.8262894637
vt 0.0698574514 0.8262894637
vt 0.0895109459 0.8262894637
vt 0.1091639660 0.8262894637
vt 0.1300032685 0.8262894637
vt 0.1530355222 0.8262894637
vt 0.1790158290 0.8262894637
vt 0.0000000000 0.8952378949
vt 0.0250033424 0.8952378949
vt 0.0471795870 0.8952378949
vt 0.0672535449 0.8952378949
vt 0.0861902312 0.8952378949
vt 0.1051264629 0.8952378949
vt 0.1251991620 0.8952378949
vt 0.1473735597 0.8952378949
vt 0.1723746467 0.8952378949
vt 0.0000000000 0.9642069992
vt 0.0239777994 0.9642069992
vt 0.0452847137 0.9642069992
vt 0.0646092578 0.9642069992
vt 0.0828631320 0.9642069992
vt 0.1011165776 0.9642069992
vt 0.1204399331 0.9642069992
vt 0.1417450993 0.9642069992
vt 0.1657207603 0.9642069992
vt 0.0000000000 1.0332001055
vt 0.0229095590 1.0332001055
vt 0.0433419162 1.0332001055
vt 0.0619423465 1.0332001055
vt 0.0795564060 1.0332001055
vt 0.0971700698 1.0332001055
vt 0.1157693987 1.0332001055
vt 0.1362001287 1.0332001055
vt 0.1591076905 1.0332001055
vt 0.0000000000 1.1022213348
vt 0.0218051477 1.1022213348
vt 0.0413660123 1.1022213348
vt 0.0592766988 1.1022213348
vt 0.0763031112 1.1022213348
vt 0.0933291676 1.1022213348
vt 0.1112388578 1.1022213348
vt 0.1307982399 1.1022213348
vt 0.1526015580 1.1022213348
vn -0.6324987249 0.0482999026 -0.7730539971
vn -0.5225524904 0.0421011041 -0.8515670213
vn -0.3783893045 0.0358609864 -0.9249516333
vn -0.2003069902 0.0298411891 -0.9792786187
vn 0.0000000000 0.0245380638 -0.9996988964
vn 0.2003538805 0.0205590402 -0.9795078603
vn 0.3785692586 0.0183261937 -0.9253915210
vn 0.5229325481 0.0178866701 -0.8521863747
vn 0.6331235562 0.0189937067 -0.7738176798
vn -0.6383296974 0.0547591380 -0.7678128901
vn -0.5285090441 0.0470902120 -0.8476206122
vn -0.3835419717 0.0393548753 -0.9226845343
vn -0.2033879180 0.0319102356 -0.9785780969
vn 0.0000000000 0.0254161476 -0.9996769575
vn 0.2034481425 0.0206534546 -0.9788678604
vn 0.3837762672 0.0181267602 -0.9232481775
vn 0.5290117964 0.0178402276 -0.8484269241
vn 0.6391681286 0.0194362198 -0.7688213945
vn -0.6450896025 0.0607465124 -0.7616884310
vn -0.5354478097 0.0519007123 -0.8429720987
vn -0.3895798770 0.0429313847 -0.9199915302
vn -0.2070164725 0.0342611098 -0.9777373658
vn -0.0000000000 0.0266879339 -0.9996438137
vn 0.2070917035 0.0211597137 -0.9780926811
vn 0.3898742681 0.0182754814 -0.9206867338
vn 0.5360834176 0.0180154482 -0.8439727561
vn 0.6461547782 0.0199298003 -0.7629461355
vn -0.6525342587 0.0662460381 -0.7548579361
vn -0.5431362275 0.0565172785 -0.8377403152
vn -0.3963187173 0.0465797017 -0.9169306439
vn -0.2110913385 0.0368891892 -0.9767700008
vn -0.0000000000 0.0283532981 -0.9995979644
vn 0.2111836203 0.0220789659 -0.9771970107
vn 0.3966794411 0.0187728346 -0.9177652214
vn 0.5439135356 0.0184121880 -0.8389392452
vn 0.6538337302 0.0204749334 -0.7563611772
vn -0.6604209540 0.0712307048 -0.7475094315
vn -0.5513376913 0.0609141486 -0.8320554168
vn -0.4035663374 0.0502809362 -0.9135677527
vn -0.2155047759 0.0397857494 -0.9756919523
vn 0.0000000000 0.0304120626 -0.9995374462
vn 0.2156164110 0.0234146115 -0.9761973772
vn 0.4039996542 0.0196217683 -0.9145486677
vn 0.5522633799 0.0190318543 -0.8334524268
vn 0.6619557624 0.0210725615 -0.7492466322
vn -0.6685063107 0.0756653602 -0.7398473261
vn -0.5598075712 0.0650574829 -0.8260647717
vn -0.4111173073 0.0540095397 -0.9099810598
vn -0.2201382877 0.0429384561 -0.9745231774
vn 0.0000000000 0.0328639855 -0.9994598333
vn 0.2202716847 0.0251722179 -0.9751137084
vn 0.4116289326 0.0208277770 -0.9111135086
vn 0.5608851892 0.0198776941 -0.8276549292
vn 0.6702700248 0.0217244975 -0.7417992586
vn -0.6765434258 0.0795095119 -0.7320978285
vn -0.5682889226 0.0689077821 -0.8199386673
vn -0.4187473421 0.0577348218 -0.9062656089
vn -0.2248581049 0.0463318975 -0.9732893650
vn 0.0000000000 0.0357087459 -0.9993622394
vn 0.2250155754 0.0273594775 -0.9739709697
vn 0.4193417636 0.0223990771 -0.9075520738
vn 0.5695178601 0.0209551888 -0.8217118030
vn 0.6785212847 0.0224338942 -0.7342380994
vn -0.6842778999 0.0827200704 -0.7245144206
vn -0.5765075062 0.0724224382 -0.8138759646
vn -0.4262073242 0.0614226726 -0.9025378508
vn -0.2295103953 0.0499482207 -0.9720237413
vn 0.0000000000 0.0389459272 -0.9992413196
vn 0.2296938894 0.0299861887 -0.9728008767
vn 0.4268870126 0.0243468921 -0.9039771608
vn 0.5778819857 0.0222725826 -0.8158163657
vn 0.6864462035 0.0232057909 -0.7268102235
vn -0.6914421924 0.0852540604 -0.7173837465
vn -0.5841656072 0.0755584888 -0.8081098058
vn -0.4332166510 0.0650375874 -0.8989401791
vn -0.2339161484 0.0537679477 -0.9707688929
vn -0.0000000000 0.0425749975 -0.9990932737
vn 0.2341269242 0.0330642374 -0.9716436279
vn 0.4339811877 0.0266858508 -0.9005266204
vn 0.5856737815 0.0238415682 -0.8101961499
vn 0.6937680743 0.0240477598 -0.7197968910
vn -0.6977475116 0.0870713451 -0.7110323417
vn -0.5909339411 0.0782756427 -0.8029134455
vn -0.4394555599 0.0685450946 -0.8956452316
vn -0.2378657478 0.0577710425 -0.9695784613
vn -0.0000000000 0.0465952872 -0.9989138497
vn 0.2381039782 0.0366075469 -0.9705495263
vn 0.4403007277 0.0294344938 -0.8973677506
vn 0.5925571984 0.0256781588 -0.8051189967
vn 0.7001892064 0.0249706846 -0.7135205254
vn -0.7028721027 0.0881374385 -0.7058346826
vn -0.5964406811 0.0805396625 -0.7986062088
vn -0.4445560051 0.0719146755 -0.8928595846
vn -0.2411133312 0.0619383080 -0.9685184601
vn -0.0000000000 0.0510059647 -0.9986983486
vn 0.2413776654 0.0406319448 -0.9695802534
vn 0.4454729079 0.0326158683 -0.8947011196
vn 0.5981532553 0.0278037674 -0.8008992656
vn 0.7053797898 0.0259897108 -0.7083529396
vn -0.7064442782 0.0884265378 -0.7022230622
vn -0.6002562781 0.0823262119 -0.7955594229
vn -0.4480905781 0.0751232678 -0.8908262055
vn -0.2433711681 0.0662531791 -0.9676678101
vn 0.0000000000 0.0558060087 -0.9984416304
vn 0.2436582843 0.0451548749 -0.9688094125
vn 0.4490648821 0.0362581533 -0.8927631701
vn 0.6020252560 0.0302465075 -0.7979039666
vn 0.7089615480 0.0271254170 -0.7047252906
vn -0.7080177289 0.0879249871 -0.7006997162
vn -0.6018722815 0.0836253275 -0.7942018392
vn -0.4495589212 0.0781594242 -0.8898246348
vn -0.2443044871 0.0707039637 -0.9671175043
vn 0.0000000000 0.0609941790 -0.9981381218
vn 0.2446086993 0.0501948412 -0.9683217761
vn 0.4505703345 0.0403951963 -0.8918265536
vn 0.6036580764 0.0330426954 -0.7965582886
vn 0.7104836691 0.0284052648 -0.7031401687
vn -0.7070354025 0.0866355176 -0.7018512853
vn -0.6006717722 0.0844467349 -0.7950233777
vn -0.4483711666 0.0810281781 -0.8901672491
vn -0.2435274846 0.0752865368 -0.9669675804
vn -0.0000000000 0.0665689845 -0.9977818250
vn 0.2438404966 0.0557704237 -0.9682104482
vn 0.4493933019 0.0450667364 -0.8921965307
vn 0.6024291134 0.0362384698 -0.7973493191
vn 0.7093872580 0.0298653841 -0.7041858966
vn -0.7027763382 0.0845828009 -0.7063647559
vn -0.5958883774 0.0848263122 -0.7985746918
vn -0.4438283023 0.0837566070 -0.8921890320
vn -0.2406016877 0.0800074215 -0.9673208570
vn 0.0000000000 0.0725286495 -0.9973663294
vn 0.2409126210 0.0618986435 -0.9685709406
vn 0.4448291054 0.0503179086 -0.8942008584
vn 0.5975678475 0.0398912972 -0.8008254192
vn 0.7049526484 0.0315527142 -0.7085521785
vn -0.6942770697 0.0818211505 -0.7150417119
vn -0.5865504094 0.0848340735 -0.8054575080
vn -0.4351003594 0.0863999673 -0.8962269371
vn -0.2350384579 0.0848870749 -0.9682722282
vn 0.0000000000 0.0788710776 -0.9968848244
vn 0.2353343086 0.0685923941 -0.9694910245
vn 0.4360433322 0.0561973513 -0.8981692881
vn 0.5881005702 0.0440708413 -0.8075862061
vn 0.6962211558 0.0335274062 -0.7170439423
vn -0.6802156132 0.0784456447 -0.7288024427
vn -0.5714072552 0.0845840431 -0.8162960789
vn -0.4212054820 0.0890480356 -0.9025831758
vn -0.2263082235 0.0899630296 -0.9698923864
vn 0.0000000000 0.0855938145 -0.9963301154
vn 0.2265749071 0.0758566168 -0.9710353161
vn 0.4220519999 0.0627528290 -0.9043971427
vn 0.5727774753 0.0488581046 -0.8182535361
vn 0.6818792748 0.0358650787 -0.7305849373
f 1/1/1 11/11/11 2/2/2
f 1/1/1 10/10/10 11/11/11
f 2/2/2 12/12/12 3/3/3
f 2/2/2 11/11/11 12/12/12
f 3/3/3 13/13/13 4/4/4
f 3/3/3 12/12/12 13/13/13
f 4/4/4 14/14/14 5/5/5
f 4/4/4 13/13/13 14/14/14
f 5/5/5 15/15/15 6/6/6
f 5/5/5 14/14/14 15/15/15
f 6/6/6 16/16/16 7/7/7
f 6/6/6 15/15/15 16/16/16
f 7/7/7 17/17/17 8/8/8
f 7/7/7 16/16/16 17/17/17
f 8/8/8 18/18/18 9/9/9
f 8/8/8 17/17/17 18/18/18
f 10/10/10 20/20/20 11/11/11
f 10/10/10 19/19/19 20/20/20
f 11/11/11 21/21/21 12/12/12
f 11/11/11 20/20/20 21/21/21
f 12/12/12 22/22/22 13/13/13
f 12/12/12 21/21/21 22/22/22
f 13/13/13 23/23/23 14/14/14
f 13/13/13 22/22/22 23/23/23
f 14/14/14 24/24/24 15/15/15
f 14/14/14 23/23/23 24/24/24
f 15/15/15 25/25/25 16/16/16
f 15/15/15 24/24/24 25/25/25
f 16/16/16 26/26/26 17/17/17
f 16/16/16 25/25/25 26/26/26
f 17/17/17 27/27/27 18/18/18
f 17/17/17 26/26/26 27/27/27
f 19/19/19 29/29/29 20/20/20
f 19/19/19 28/28/28 29/29/29
f 20/20/20 30/30/30 21/21/21
f 20/20/20 29/29/29 30/30/30
f 21/21/21 31/31/31 22/22/22
f 21/21/21 30/30/30 31/31/31
f 22/22/22 32/32/32 23/23/23
f 22/22/22 31/31/31 32/32/32
f 23/23/23 33/33/33 24/24/24
f 23/23/23 32/32/32 33/33/33
f 24/24/24 34/34/34 25/25/25
f 24/24/24 33/33/33 34/34/34
f 25/25/25 35/35/35 26/26/26
f 25/25/25 34/34/34 35/35/35
f 26/26/26 36/36/36 27/27/27
f 26/26/26 35/35/35 36/36/36
f 28/28/28 38/38/38 29/29/29
f 28/28/28 37/37/37 38/38/38
f 29/29/29 39/39/39 30/30/30
f 29/29/29 38/38/38 39/39/39
f 30/30/30 40/40/40 31/31/31
f 30/30/30 39/39/39 40/40/40
f 31/31/31 41/41/41 32/32/32
f 31/31/31 40/40/40 41/41/41
f 32/32/32 42/42/42 33/33/33
f 32/32/32 41/41/41 42/42/42
f 33/33/33 43/43/43 34/34/34
f 33/33/33 42/42/42 43/43/43
f 34/34/34 44/44/44 35/35/35
f 34/34/34 43/43/43 44/44/44
f 35/35/35 45/45/45 36/36/36
f 35/35/35 44/44/44 45/45/45
f 37/37/37 47/47/47 38/38/38
f 37/37/37 46/46/46 47/47/47
f 38/38/38 48/48/48 39/39/39
f 38/38/38 47/47/47 48/48/48
f 39/39/39 49/49/49 40/40/40
f 39/39/39 48/48/48 49/49/49
f 40/40/40 50/50/50 41/41/41
f 40/40/40 49/49/49 50/50/50
f 41/41/41 51/51/51 42/42/42
f 41/41/41 50/50/50 51/51/51
f 42/42/42 52/52/52 43/43/43
f 42/42/42 51/51/51 52/52/52
f 43/43/43 53/53/53 44/44/44
f 43/43/43 52/52/52 53/53/53
f 44/44/44 54/54/54 45/45/45
f 44/44/44 53/53/53 54/54/54
f 46/46/46 56/56/56 47/47/47
f 46/46/46 55/55/55 56/56/56
f 47/47/47 57/57/57 48/48/48
f 47/47/47 56/56/56 57/57/57
f 48/48/48 58/58/58 49/49/49
f 48/48/48 57/57/57 58/58/58
f 49/49/49 59/59/59 50/50/50
f 49/49/49 58/58/58 59/59/59
f 50/50/50 60/60/60 51/51/51
f 50/50/50 59/59/59 60/60/60
f 51/51/51 61/61/61 52/52/52
f 51/51/51 60/60/60 61/61/61
f 52/52/52 62/62/62 53/53/53
f 52/52/52 61/61/61 62/62/62
f 53/53/53 63/63/63 54/54/54
f 53/53/53 62/62/62 63/63/63
f 55/55/55 65/65/65 56/56/56
f 55/55/55 64/64/64 65/65/65
f 56/56/56 66/66/66 57/57/57
f 56/56/56 65/65/65 66/66/66
f 57/57/57 67/67/67 58/58/58
f 57/57/57 66/66/66 67/67/67
f 58/58/58 68/68/68 59/59/59
f 58/58/58 67/67/67 68/68/68
f 59/59/59 69/69/69 60/60/60
f 59/59/59 68/68/68 69/69/69
f 60/60/60 70/70/70 61/61/61
f 60/60/60 69/69/69 70/70/70
f 61/61/61 71/71/71 62/62/62
f 61/61/61 70/70/70 71/71/71
f 62/62/62 72/72/72 63/63/63
f 62/62/62 71/71/71 72/72/72
f 64/64/64 74/74/74 65/65/65
f 64/64/64 73/73/73 74/74/74
f 65/65/65 75/75/75 66/66/66
f 65/65/65 74/74/74 75/75/75
f 66/66/66 76/76/76 67/67/67
f 66/66/66 75/75/75 76/76/76
f 67/67/67 77/77/77 68/68/68
f 67/67/67 76/76/76 77/77/77
f 68/68/68 78/78/78 69/69/69
f 68/68/68 77/77/77 78/78/78
f 69/69/69 79/79/79 70/70/70
f 69/69/69 78/78/78 79/79/79
f 70/70/70 80/80/80 71/71/71
f 70/70/70 79/79/79 80/80/80
f 71/71/71 81/81/81 72/72/72
f 71/71/71 80/80/80 81/81/81
f 73/73/73 83/83/83 74/74/74
f 73/73/73 82/82/82 83/83/83
f 74/74/74 84/84/84 75/75/75
f 74/74/74 83/83/83 84/84/84
f 75/75/75 85/85/85 76/76/76
f 75/75/75 84/84/84 85/85/85
f 76/76/76 86/86/86 77/77/77
f 76/76/76 85/85/85 86/86/86
f 77/77/77 87/87/87 78/78/78
f 77/77/77 86/86/86 87/87/87
f 78/78/78 88/88/88 79/79/79
f 78/78/78 87/87/87 88/88/88
f 79/79/79 89/89/89 80/80/80
f 79/79/79 88/88/88 89/89/89
f 80/80/80 90/90/90 81/81/81
f 80/80/80 89/89/89 90/90/90
f 82/82/82 92/92/92 83/83/83
f 82/82/82 91/91/91 92/92/92
f 83/83/83 93/93/93 84/84/84
f 83/83/83 92/92/92 93/93/93
f 84/84/84 94/94/94 85/85/85
f 84/84/84 93/93/93 94/94/94
f 85/85/85 95/95/95 86/86/86
f 85/85/85 94/94/94 95/95/95
f 86/86/86 96/96/96 87/87/87
f 86/86/86 95/95/95 96/96/96
f 87/87/87 97/97/97 88/88/88
f 87/87/87 96/96/96 97/97/97
f 88/88/88 98/98/98 89/89/89
f 88/88/88 97/97/97 98/98/98
f 89/89/89 99/99/99 90/90/90
f 89/89/89 98/98/98 99/99/99
f 91/91/91 101/101/101 92/92/92
f 91/91/91 100/100/100 101/101/101
f 92/92/92 102/102/102 93/93/93
f 92/92/92 101/101/101 102/102/102
f 93/93/93 103/103/103 94/94/94
f 93/93/93 102/102/102 103/103/103
f 94/94/94 104/104/104 95/95/95
f 94/94/94 103/103/103 104/104/104
f 95/95/95 105/105/105 96/96/96
f 95/95/95 104/104/104 105/105/105
f 96/96/96 106/106/106 97/97/97
f 96/96/96 105/105/105 106/106/106
f 97/97/97 107/107/107 98/98/98
f 97/97/97 106/106/106 107/107/107
f 98/98/98 108/108/108 99/99/99
f 98/98/98 107/107/107 108/108/108
f 100/100/100 110/110/110 101/101/101
f 100/100/100 109/109/109 110/110/110
f 101/101/101 111/111/111 102/102/102
f 101/101/101 110/110/110 111/111/111
f 102/102/102 112/112/112 103/103/103
f 102/102/102 111/111/111 112/112/112
f 103/103/103 113/113/113 104/104/104
f 103/103/103 112/112/112 113/113/113
f 104/104/104 114/114/114 105/105/105
f 104/104/104 113/113/113 114/114/114
f 105/105/105 115/115/115 106/106/106
f 105/105/105 114/114/114 115/115/115
f 106/106/106 116/116/116 107/107/107
f 106/106/106 115/115/115 116/116/116
f 107/107/107 117/117/117 108/108/108
f 107/107/107 116/116/116 117/117/117
f 109/109/109 119/119/119 110/110/110
f 109/109/109 118/118/118 119/119/119
f 110/110/110 120/120/120 111/111/111
f 110/110/110 119/119/119 120/120/120
f 111/111/111 121/121/121 112/112/112
f 111/111/111 120/120/120 121/121/121
f 112/112/112 122/122/122 113/113/113
f 112/112/112 121/121/121 122/122/122
f 113/113/113 123/123/123 114/114/114
f 113/113/113 122/122/122 123/123/123
f 114/114/114 124/124/124 115/115/115
f 114/114/114 123/123/123 124/124/124
f 115/115/115 125/125/125 116/116/116
f 115/115/115 124/124/124 125/125/125
f 116/116/116 126/126/126 117/117/117
f 116/116/116 125/125/125 126/126/126
f 118/118/118 128/128/128 119/119/119
f 118/118/118 127/127/127 128/128/128
f 119/119/119 129/129/129 120/120/120
f 119/119/119 128/128/128 129/129/129
f 120/120/120 130/130/130 121/121/121
f 120/120/120 129/129/129 130/130/130
f 121/121/121 131/131/131 122/122/122
f 121/121/121 130/130/130 131/131/131
f 122/122/122 132/132/132 123/123/123
f 122/122/122 131/131/131 132/132/132
f 123/123/123 133/133/133 124/124/124
f 123/123/123 132/132/132 133/133/133
f 124/124/124 134/134/134 125/125/125
f 124/124/124 133/133/133 134/134/134
f 125/125/125 135/135/135 126/126/126
f 125/125/125 134/134/134 135/135/135
f 127/127/127 137/137/137 128/128/128
f 127/127/127 136/136/136 137/137/137
f 128/128/128 138/138/138 129/129/129
f 128/128/128 137/137/137 138/138/138
f 129/129/129 139/139/139 130/130/130
f 129/129/129 138/138/138 139/139/139
f 130/130/130 140/140/140 131/131/131
f 130/130/130 139/139/139 140/140/140
f 131/131/131 141/141/141 132/132/132
f 131/131/131 140/140/140 141/141/141
f 132/132/132 142/142/142 133/133/133
f 132/132/132 141/141/141 142/142/142
f 133/133/133 143/143/143 134/134/134
f 133/133/133 142/142/142 143/143/143
f 134/134/134 144/144/144 135/135/135
f 134/134/134 143/143/143 144/144/144
f 136/136/136 146/146/146 137/137/137
f 136/136/136 145/145/145 146/146/146
f 137/137/137 147/147/147 138/138/138
f 137/137/137 146/146/146 147/147/147
f 138/138/138 148/148/148 139/139/139
f 138/138/138 147/147/147 148/148/148
f 139/139/139 149/149/149 140/140/140
f 139/139/139 148/148/148 149/149/149
f 140/140/140 150/150/150 141/141/141
f 140/140/140 149/149/149 150/150/150
f 141/141/141 151/151/151 142/142/142
f 141/141/141 150/150/150 151/151/151
f 142/142/142 152/152/152 143/143/143
f 142/142/142 151/151/151 152/152/152
f 143/143/143 153/153/153 144/144/144
f 143/143/143 152/152/152 153/153/153
