# S05-R open surface prototype; metres; no material; not a finished garment
# Anatomical Right=-X; front=+Z; UV values are metres, not a texture atlas.
o S05-R
v -0.3590000000 0.8550000000 0.0000000000
v -0.3571898148 0.8550000000 0.0137500000
v -0.3521851852 0.8550000000 0.0250000000
v -0.3446250000 0.8550000000 0.0337500000
v -0.3351481481 0.8550000000 0.0400000000
v -0.3243935185 0.8550000000 0.0437500000
v -0.3130000000 0.8550000000 0.0450000000
v -0.3016064815 0.8550000000 0.0437500000
v -0.2908518519 0.8550000000 0.0400000000
v -0.2813750000 0.8550000000 0.0337500000
v -0.2738148148 0.8550000000 0.0250000000
v -0.2688101852 0.8550000000 0.0137500000
v -0.2670000000 0.8550000000 0.0000000000
v -0.3609160156 0.8787500000 0.0013125000
v -0.3590304317 0.8787500000 0.0157625326
v -0.3538173466 0.8787500000 0.0275852865
v -0.3459422607 0.8787500000 0.0367807617
v -0.3360706742 0.8787500000 0.0433489583
v -0.3248680872 0.8787500000 0.0472898763
v -0.3130000000 0.8787500000 0.0486035156
v -0.3011319128 0.8787500000 0.0472898763
v -0.2899293258 0.8787500000 0.0433489583
v -0.2800577393 0.8787500000 0.0367807617
v -0.2721826534 0.8787500000 0.0275852865
v -0.2669695683 0.8787500000 0.0157625326
v -0.2650839844 0.8787500000 0.0013125000
v -0.3628906250 0.9025000000 0.0022500000
v -0.3609273365 0.9025000000 0.0174179687
v -0.3554994213 0.9025000000 0.0298281250
v -0.3472998047 0.9025000000 0.0394804688
v -0.3370214120 0.9025000000 0.0463750000
v -0.3253571687 0.9025000000 0.0505117187
v -0.3130000000 0.9025000000 0.0518906250
v -0.3006428313 0.9025000000 0.0505117187
v -0.2889785880 0.9025000000 0.0463750000
v -0.2787001953 0.9025000000 0.0394804687
v -0.2705005787 0.9025000000 0.0298281250
v -0.2650726635 0.9025000000 0.0174179688
v -0.2631093750 0.9025000000 0.0022500000
v -0.3648886719 0.9262500000 0.0028125000
v -0.3628467565 0.9262500000 0.0187055664
v -0.3572014612 0.9262500000 0.0317089844
v -0.3486734619 0.9262500000 0.0418227539
v -0.3379834346 0.9262500000 0.0490468750
v -0.3258520553 0.9262500000 0.0533813477
v -0.3130000000 0.9262500000 0.0548261719
v -0.3001479447 0.9262500000 0.0533813477
v -0.2880165654 0.9262500000 0.0490468750
v -0.2773265381 0.9262500000 0.0418227539
v -0.2687985388 0.9262500000 0.0317089844
v -0.2631532435 0.9262500000 0.0187055664
v -0.2611113281 0.9262500000 0.0028125000
v -0.3668750000 0.9500000000 0.0030000000
v -0.3647549190 0.9500000000 0.0196145833
v -0.3588935185 0.9500000000 0.0332083333
v -0.3500390625 0.9500000000 0.0437812500
v -0.3389398148 0.9500000000 0.0513333333
v -0.3263440394 0.9500000000 0.0558645833
v -0.3130000000 0.9500000000 0.0573750000
v -0.2996559606 0.9500000000 0.0558645833
v -0.2870601852 0.9500000000 0.0513333333
v -0.2759609375 0.9500000000 0.0437812500
v -0.2671064815 0.9500000000 0.0332083333
v -0.2612450810 0.9500000000 0.0196145833
v -0.2591250000 0.9500000000 0.0030000000
v -0.3688144531 0.9737500000 0.0028125000
v -0.3666180510 0.9737500000 0.0201342773
v -0.3605456453 0.9737500000 0.0343066406
v -0.3513724365 0.9737500000 0.0453295898
v -0.3398736256 0.9737500000 0.0532031250
v -0.3268244132 0.9737500000 0.0579272461
v -0.3130000000 0.9737500000 0.0595019531
v -0.2991755868 0.9737500000 0.0579272461
v -0.2861263744 0.9737500000 0.0532031250
v -0.2746275635 0.9737500000 0.0453295898
v -0.2654543547 0.9737500000 0.0343066406
v -0.2593819490 0.9737500000 0.0201342773
v -0.2571855469 0.9737500000 0.0028125000
v -0.3706718750 0.9975000000 0.0022500000
v -0.3684023799 0.9975000000 0.0202539062
v -0.3621278935 0.9975000000 0.0349843750
v -0.3526494141 0.9975000000 0.0464414063
v -0.3407679398 0.9975000000 0.0546250000
v -0.3272844690 0.9975000000 0.0595351562
v -0.3130000000 0.9975000000 0.0611718750
v -0.2987155310 0.9975000000 0.0595351563
v -0.2852320602 0.9975000000 0.0546250000
v -0.2733505859 0.9975000000 0.0464414062
v -0.2638721065 0.9975000000 0.0349843750
v -0.2575976201 0.9975000000 0.0202539063
v -0.2553281250 0.9975000000 0.0022500000
v -0.3724121094 1.0212500000 0.0013125000
v -0.3700741328 1.0212500000 0.0199627279
v -0.3636103154 1.0212500000 0.0352220052
v -0.3538458252 1.0212500000 0.0470903320
v -0.3416058304 1.0212500000 0.0555677083
v -0.3277154993 1.0212500000 0.0606541341
v -0.3130000000 1.0212500000 0.0623496094
v -0.2982845007 1.0212500000 0.0606541341
v -0.2843941696 1.0212500000 0.0555677083
v -0.2721541748 1.0212500000 0.0470903320
v -0.2623896846 1.0212500000 0.0352220052
v -0.2559258672 1.0212500000 0.0199627279
v -0.2535878906 1.0212500000 0.0013125000
v -0.3740000000 1.0450000000 0.0000000000
v -0.3715995370 1.0450000000 0.0192500000
v -0.3649629630 1.0450000000 0.0350000000
v -0.3549375000 1.0450000000 0.0472500000
v -0.3423703704 1.0450000000 0.0560000000
v -0.3281087963 1.0450000000 0.0612500000
v -0.3130000000 1.0450000000 0.0630000000
v -0.2978912037 1.0450000000 0.0612500000
v -0.2836296296 1.0450000000 0.0560000000
v -0.2710625000 1.0450000000 0.0472500000
v -0.2610370370 1.0450000000 0.0350000000
v -0.2544004630 1.0450000000 0.0192500000
v -0.2520000000 1.0450000000 0.0000000000
vt 0.0000000000 0.0000000000
vt 0.0139122130 0.0000000000
vt 0.0262698565 0.0000000000
vt 0.0378730031 0.0000000000
vt 0.0492568955 0.0000000000
vt 0.0606718494 0.0000000000
vt 0.0721555658 0.0000000000
vt 0.0836388591 0.0000000000
vt 0.0950524788 0.0000000000
vt 0.1064339372 0.0000000000
vt 0.1180333036 0.0000000000
vt 0.1303857190 0.0000000000
vt 0.1442914838 0.0000000000
vt 0.0000000000 0.0240219711
vt 0.0146175457 0.0240219711
vt 0.0275849506 0.0240219711
vt 0.0397329184 0.0240219711
vt 0.0516232588 0.0240219711
vt 0.0635255531 0.0240219711
vt 0.0754892759 0.0240219711
vt 0.0874525530 0.0240219711
vt 0.0993534430 0.0240219711
vt 0.1112412265 0.0240219711
vt 0.1233852366 0.0240219711
vt 0.1363471880 0.0240219711
vt 0.1509580229 0.0240219711
vt 0.0000000000 0.0479985573
vt 0.0153410071 0.0479985573
vt 0.0289343311 0.0479985573
vt 0.0416422955 0.0479985573
vt 0.0540538614 0.0479985573
vt 0.0664581571 0.0479985573
vt 0.0789165325 0.0479985573
vt 0.0913744391 0.0479985573
vt 0.1037772586 0.0479985573
vt 0.1161861417 0.0479985573
vt 0.1288899661 0.0479985573
vt 0.1424776045 0.0479985573
vt 0.1578116296 0.0479985573
vt 0.0000000000 0.0719295214
vt 0.0160717305 0.0719295214
vt 0.0302974963 0.0719295214
vt 0.0435716262 0.0719295214
vt 0.0565104144 0.0719295214
vt 0.0694226170 0.0719295214
vt 0.0823815101 0.0719295214
vt 0.0953399109 0.0719295214
vt 0.1082505646 0.0719295214
vt 0.1211865428 0.0719295214
vt 0.1344563486 0.0719295214
vt 0.1486761941 0.0719295214
vt 0.1647406679 0.0719295214
vt 0.0000000000 0.0958161770
vt 0.0167988500 0.0958161770
vt 0.0316539472 0.0958161770
vt 0.0454914082 0.0958161770
vt 0.0589546374 0.0958161770
vt 0.0723718980 0.0958161770
vt 0.0858283928 0.0958161770
vt 0.0992843718 0.0958161770
vt 0.1127000112 0.0958161770
vt 0.1261603039 0.0958161770
vt 0.1399932578 0.0958161770
vt 0.1548422014 0.0958161770
vt 0.1716335213 0.0958161770
vt 0.0000000000 0.1196615553
vt 0.0175114999 0.1196615553
vt 0.0329831877 0.1196615553
vt 0.0473721461 0.1196615553
vt 0.0613482599 0.1196615553
vt 0.0752589764 0.1196615553
vt 0.0892013759 0.1196615553
vt 0.1031432368 0.1196615553
vt 0.1170522612 0.1196615553
vt 0.1310253145 0.1196615553
vt 0.1454095869 0.1196615553
vt 0.1608748930 0.1196615553
vt 0.1783785959 0.1196615553
vt 0.0000000000 0.1434705716
vt 0.0181988151 0.1434705716
vt 0.0342647245 0.1434705716
vt 0.0491843511 0.1434705716
vt 0.0636530211 0.1434705716
vt 0.0780368400 0.1434705716
vt 0.0924446667 0.1434705716
vt 0.1068519328 0.1434705716
vt 0.1212339908 0.1434705716
vt 0.1356994808 0.1434705716
vt 0.1506142495 0.1434705716
vt 0.1666735586 0.1434705716
vt 0.1848643209 0.1434705716
vt 0.0000000000 0.1672501905
vt 0.0188499307 0.1672501905
vt 0.0354780672 0.1672501905
vt 0.0508985410 0.1672501905
vt 0.0658306701 0.1672501905
vt 0.0806584876 0.1672501905
vt 0.0955024839 0.1672501905
vt 0.1103458983 0.1672501905
vt 0.1251718898 0.1672501905
vt 0.1401007258 0.1672501905
vt 0.1555161795 0.1672501905
vt 0.1721375104 0.1672501905
vt 0.1909791489 0.1672501905
vt 0.0000000000 0.1910095869
vt 0.0194539825 0.1910095869
vt 0.0366027280 0.1910095869
vt 0.0524852401 0.1910095869
vt 0.0678429659 0.1910095869
vt 0.0830769296 0.1910095869
vt 0.0983190573 0.1910095869
vt 0.1135605836 0.1910095869
vt 0.1287926608 0.1910095869
vt 0.1441469885 0.1910095869
vt 0.1600243311 0.1910095869
vt 0.1771660831 0.1910095869
vt 0.1966115550 0.1910095869
vn -0.9968981487 -0.0787024854 0.0000000000
vn -0.9581019113 -0.0974700607 0.2693330928
vn -0.8367909669 -0.1181783734 0.5346164511
vn -0.6501156837 -0.1356261074 0.7476330362
vn -0.4345823532 -0.1474530300 0.8884794777
vn -0.2156130979 -0.1539316755 0.9642696880
vn 0.0000000000 -0.1559625735 0.9877629653
vn 0.2156130979 -0.1539316755 0.9642696880
vn 0.4345823532 -0.1474530300 0.8884794777
vn 0.6501156837 -0.1356261074 0.7476330362
vn 0.8367909669 -0.1181783734 0.5346164511
vn 0.9581019113 -0.0974700607 0.2693330928
vn 0.9968981487 -0.0787024854 0.0000000000
vn -0.9966422977 -0.0818787546 0.0000000000
vn -0.9588255977 -0.0963225966 0.2671618059
vn -0.8394498454 -0.1128538717 0.5315900306
vn -0.6541377041 -0.1270384711 0.7456306666
vn -0.4383709071 -0.1367580591 0.8883288699
vn -0.2178263476 -0.1421169722 0.9655850291
vn 0.0000000000 -0.1438021876 0.9896064525
vn 0.2178263476 -0.1421169722 0.9655850291
vn 0.4383709071 -0.1367580591 0.8883288699
vn 0.6541377041 -0.1270384711 0.7456306666
vn 0.8394498454 -0.1128538717 0.5315900306
vn 0.9588255977 -0.0963225966 0.2671618059
vn 0.9966422977 -0.0818787546 0.0000000000
vn -0.9965003973 -0.0835880267 0.0000000000
vn -0.9596155660 -0.0937793383 0.2652233044
vn -0.8420134204 -0.1061553400 0.5289087290
vn -0.6579443557 -0.1170448802 0.7439151302
vn -0.4419466525 -0.1246063100 0.8883447663
vn -0.2199159016 -0.1288076133 0.9669775566
vn -0.0000000000 -0.1301339062 0.9914964279
vn 0.2199159016 -0.1288076133 0.9669775566
vn 0.4419466525 -0.1246063100 0.8883447663
vn 0.6579443557 -0.1170448802 0.7439151302
vn 0.8420134204 -0.1061553400 0.5289087290
vn 0.9596155660 -0.0937793383 0.2652233044
vn 0.9965003973 -0.0835880267 0.0000000000
vn -0.9964798898 -0.0838321486 0.0000000000
vn -0.9604695018 -0.0898279546 0.2634943541
vn -0.8444808805 -0.0980609811 0.5265321325
vn -0.6615352632 -0.1056218291 0.7424386337
vn -0.4453070873 -0.1109767435 0.8884738378
vn -0.2218792470 -0.1139852128 0.9683888532
vn 0.0000000000 -0.1149403747 0.9933723925
vn 0.2218792470 -0.1139852128 0.9683888532
vn 0.4453070873 -0.1109767435 0.8884738378
vn 0.6615352632 -0.1056218291 0.7424386337
vn 0.8444808805 -0.0980609811 0.5265321325
vn 0.9604695018 -0.0898279546 0.2634943541
vn 0.9964798898 -0.0838321486 0.0000000000
vn -0.9965818373 -0.0826113891 0.0000000000
vn -0.9613793825 -0.0844558714 0.2619482559
vn -0.8468472781 -0.0885499948 0.5244126104
vn -0.6649086947 -0.0927476357 0.7411439157
vn -0.4484503878 -0.0958507315 0.8886534122
vn -0.2237147852 -0.0976341818 0.9697521650
vn 0.0000000000 -0.0982071703 0.9951659920
vn 0.2237147852 -0.0976341818 0.9697521650
vn 0.4484503878 -0.0958507315 0.8886534122
vn 0.6649086947 -0.0927476357 0.7411439157
vn 0.8468472781 -0.0885499948 0.5244126104
vn 0.9613793825 -0.0844558714 0.2619482559
vn 0.9965818373 -0.0826113891 0.0000000000
vn -0.9968009268 -0.0799244164 0.0000000000
vn -0.9623309143 -0.0776507480 0.2605562756
vn -0.8491018950 -0.0776035634 0.5224975205
vn -0.6680591273 -0.0784038018 0.7399661116
vn -0.4513731353 -0.0792135993 0.8888124090
vn -0.2254205200 -0.0797433316 0.9709925799
vn 0.0000000000 -0.0799244164 0.9968009268
vn 0.2254205200 -0.0797433316 0.9709925799
vn 0.4513731353 -0.0792135993 0.8888124090
vn 0.6680591273 -0.0784038018 0.7399661116
vn 0.8491018950 -0.0776035634 0.5224975205
vn 0.9623309143 -0.0776507480 0.2605562756
vn 0.9968009268 -0.0799244164 0.0000000000
vn -0.9971254422 -0.0757684135 0.0000000000
vn -0.9633031692 -0.0694009828 0.2592884644
vn -0.8512272819 -0.0652058276 0.5207305585
vn -0.6709757800 -0.0625764121 0.7388340107
vn -0.4540688969 -0.0610562853 0.8888720756
vn -0.2269932226 -0.0603076526 0.9720272959
vn 0.0000000000 -0.0600885947 0.9981930479
vn 0.2269932226 -0.0603076526 0.9720272959
vn 0.4540688969 -0.0610562853 0.8888720756
vn 0.6709757800 -0.0625764121 0.7388340107
vn 0.8512272819 -0.0652058276 0.5207305585
vn 0.9633031692 -0.0694009828 0.2592884644
vn 0.9971254422 -0.0757684135 0.0000000000
vn -0.9975372042 -0.0701393347 0.0000000000
vn -0.9642683716 -0.0596963109 0.2581140408
vn -0.8531988137 -0.0513449370 0.5190524846
vn -0.6736419130 -0.0452576289 0.7376708752
vn -0.4565275120 -0.0413771350 0.8887466250
vn -0.2284279973 -0.0393302563 0.9727660464
vn 0.0000000000 -0.0387045295 0.9992506990
vn 0.2284279973 -0.0393302563 0.9727660464
vn 0.4565275120 -0.0413771350 0.8887466250
vn 0.6736419130 -0.0452576289 0.7376708752
vn 0.8531988137 -0.0513449370 0.5190524846
vn 0.9642683716 -0.0596963109 0.2581140408
vn 0.9975372042 -0.0701393347 0.0000000000
vn -0.9980114872 -0.0630323045 0.0000000000
vn -0.9651918077 -0.0485285392 0.2570014694
vn -0.8549846451 -0.0360142342 0.5174014221
vn -0.6760347387 -0.0264473177 0.7363949833
vn -0.4587349557 -0.0201838271 0.8883438825
vn -0.2297181854 -0.0168244502 0.9731117578
vn 0.0000000000 -0.0157875058 0.9998753696
vn 0.2297181854 -0.0168244502 0.9731117578
vn 0.4587349557 -0.0201838271 0.8883438825
vn 0.6760347387 -0.0264473177 0.7363949833
vn 0.8549846451 -0.0360142342 0.5174014221
vn 0.9651918077 -0.0485285392 0.2570014694
vn 0.9980114872 -0.0630323045 0.0000000000
f 1/1/1 2/2/2 15/15/15
f 1/1/1 15/15/15 14/14/14
f 2/2/2 3/3/3 16/16/16
f 2/2/2 16/16/16 15/15/15
f 3/3/3 4/4/4 17/17/17
f 3/3/3 17/17/17 16/16/16
f 4/4/4 5/5/5 18/18/18
f 4/4/4 18/18/18 17/17/17
f 5/5/5 6/6/6 19/19/19
f 5/5/5 19/19/19 18/18/18
f 6/6/6 7/7/7 20/20/20
f 6/6/6 20/20/20 19/19/19
f 7/7/7 8/8/8 21/21/21
f 7/7/7 21/21/21 20/20/20
f 8/8/8 9/9/9 22/22/22
f 8/8/8 22/22/22 21/21/21
f 9/9/9 10/10/10 23/23/23
f 9/9/9 23/23/23 22/22/22
f 10/10/10 11/11/11 24/24/24
f 10/10/10 24/24/24 23/23/23
f 11/11/11 12/12/12 25/25/25
f 11/11/11 25/25/25 24/24/24
f 12/12/12 13/13/13 26/26/26
f 12/12/12 26/26/26 25/25/25
f 14/14/14 15/15/15 28/28/28
f 14/14/14 28/28/28 27/27/27
f 15/15/15 16/16/16 29/29/29
f 15/15/15 29/29/29 28/28/28
f 16/16/16 17/17/17 30/30/30
f 16/16/16 30/30/30 29/29/29
f 17/17/17 18/18/18 31/31/31
f 17/17/17 31/31/31 30/30/30
f 18/18/18 19/19/19 32/32/32
f 18/18/18 32/32/32 31/31/31
f 19/19/19 20/20/20 33/33/33
f 19/19/19 33/33/33 32/32/32
f 20/20/20 21/21/21 34/34/34
f 20/20/20 34/34/34 33/33/33
f 21/21/21 22/22/22 35/35/35
f 21/21/21 35/35/35 34/34/34
f 22/22/22 23/23/23 36/36/36
f 22/22/22 36/36/36 35/35/35
f 23/23/23 24/24/24 37/37/37
f 23/23/23 37/37/37 36/36/36
f 24/24/24 25/25/25 38/38/38
f 24/24/24 38/38/38 37/37/37
f 25/25/25 26/26/26 39/39/39
f 25/25/25 39/39/39 38/38/38
f 27/27/27 28/28/28 41/41/41
f 27/27/27 41/41/41 40/40/40
f 28/28/28 29/29/29 42/42/42
f 28/28/28 42/42/42 41/41/41
f 29/29/29 30/30/30 43/43/43
f 29/29/29 43/43/43 42/42/42
f 30/30/30 31/31/31 44/44/44
f 30/30/30 44/44/44 43/43/43
f 31/31/31 32/32/32 45/45/45
f 31/31/31 45/45/45 44/44/44
f 32/32/32 33/33/33 46/46/46
f 32/32/32 46/46/46 45/45/45
f 33/33/33 34/34/34 47/47/47
f 33/33/33 47/47/47 46/46/46
f 34/34/34 35/35/35 48/48/48
f 34/34/34 48/48/48 47/47/47
f 35/35/35 36/36/36 49/49/49
f 35/35/35 49/49/49 48/48/48
f 36/36/36 37/37/37 50/50/50
f 36/36/36 50/50/50 49/49/49
f 37/37/37 38/38/38 51/51/51
f 37/37/37 51/51/51 50/50/50
f 38/38/38 39/39/39 52/52/52
f 38/38/38 52/52/52 51/51/51
f 40/40/40 41/41/41 54/54/54
f 40/40/40 54/54/54 53/53/53
f 41/41/41 42/42/42 55/55/55
f 41/41/41 55/55/55 54/54/54
f 42/42/42 43/43/43 56/56/56
f 42/42/42 56/56/56 55/55/55
f 43/43/43 44/44/44 57/57/57
f 43/43/43 57/57/57 56/56/56
f 44/44/44 45/45/45 58/58/58
f 44/44/44 58/58/58 57/57/57
f 45/45/45 46/46/46 59/59/59
f 45/45/45 59/59/59 58/58/58
f 46/46/46 47/47/47 60/60/60
f 46/46/46 60/60/60 59/59/59
f 47/47/47 48/48/48 61/61/61
f 47/47/47 61/61/61 60/60/60
f 48/48/48 49/49/49 62/62/62
f 48/48/48 62/62/62 61/61/61
f 49/49/49 50/50/50 63/63/63
f 49/49/49 63/63/63 62/62/62
f 50/50/50 51/51/51 64/64/64
f 50/50/50 64/64/64 63/63/63
f 51/51/51 52/52/52 65/65/65
f 51/51/51 65/65/65 64/64/64
f 53/53/53 54/54/54 67/67/67
f 53/53/53 67/67/67 66/66/66
f 54/54/54 55/55/55 68/68/68
f 54/54/54 68/68/68 67/67/67
f 55/55/55 56/56/56 69/69/69
f 55/55/55 69/69/69 68/68/68
f 56/56/56 57/57/57 70/70/70
f 56/56/56 70/70/70 69/69/69
f 57/57/57 58/58/58 71/71/71
f 57/57/57 71/71/71 70/70/70
f 58/58/58 59/59/59 72/72/72
f 58/58/58 72/72/72 71/71/71
f 59/59/59 60/60/60 73/73/73
f 59/59/59 73/73/73 72/72/72
f 60/60/60 61/61/61 74/74/74
f 60/60/60 74/74/74 73/73/73
f 61/61/61 62/62/62 75/75/75
f 61/61/61 75/75/75 74/74/74
f 62/62/62 63/63/63 76/76/76
f 62/62/62 76/76/76 75/75/75
f 63/63/63 64/64/64 77/77/77
f 63/63/63 77/77/77 76/76/76
f 64/64/64 65/65/65 78/78/78
f 64/64/64 78/78/78 77/77/77
f 66/66/66 67/67/67 80/80/80
f 66/66/66 80/80/80 79/79/79
f 67/67/67 68/68/68 81/81/81
f 67/67/67 81/81/81 80/80/80
f 68/68/68 69/69/69 82/82/82
f 68/68/68 82/82/82 81/81/81
f 69/69/69 70/70/70 83/83/83
f 69/69/69 83/83/83 82/82/82
f 70/70/70 71/71/71 84/84/84
f 70/70/70 84/84/84 83/83/83
f 71/71/71 72/72/72 85/85/85
f 71/71/71 85/85/85 84/84/84
f 72/72/72 73/73/73 86/86/86
f 72/72/72 86/86/86 85/85/85
f 73/73/73 74/74/74 87/87/87
f 73/73/73 87/87/87 86/86/86
f 74/74/74 75/75/75 88/88/88
f 74/74/74 88/88/88 87/87/87
f 75/75/75 76/76/76 89/89/89
f 75/75/75 89/89/89 88/88/88
f 76/76/76 77/77/77 90/90/90
f 76/76/76 90/90/90 89/89/89
f 77/77/77 78/78/78 91/91/91
f 77/77/77 91/91/91 90/90/90
f 79/79/79 80/80/80 93/93/93
f 79/79/79 93/93/93 92/92/92
f 80/80/80 81/81/81 94/94/94
f 80/80/80 94/94/94 93/93/93
f 81/81/81 82/82/82 95/95/95
f 81/81/81 95/95/95 94/94/94
f 82/82/82 83/83/83 96/96/96
f 82/82/82 96/96/96 95/95/95
f 83/83/83 84/84/84 97/97/97
f 83/83/83 97/97/97 96/96/96
f 84/84/84 85/85/85 98/98/98
f 84/84/84 98/98/98 97/97/97
f 85/85/85 86/86/86 99/99/99
f 85/85/85 99/99/99 98/98/98
f 86/86/86 87/87/87 100/100/100
f 86/86/86 100/100/100 99/99/99
f 87/87/87 88/88/88 101/101/101
f 87/87/87 101/101/101 100/100/100
f 88/88/88 89/89/89 102/102/102
f 88/88/88 102/102/102 101/101/101
f 89/89/89 90/90/90 103/103/103
f 89/89/89 103/103/103 102/102/102
f 90/90/90 91/91/91 104/104/104
f 90/90/90 104/104/104 103/103/103
f 92/92/92 93/93/93 106/106/106
f 92/92/92 106/106/106 105/105/105
f 93/93/93 94/94/94 107/107/107
f 93/93/93 107/107/107 106/106/106
f 94/94/94 95/95/95 108/108/108
f 94/94/94 108/108/108 107/107/107
f 95/95/95 96/96/96 109/109/109
f 95/95/95 109/109/109 108/108/108
f 96/96/96 97/97/97 110/110/110
f 96/96/96 110/110/110 109/109/109
f 97/97/97 98/98/98 111/111/111
f 97/97/97 111/111/111 110/110/110
f 98/98/98 99/99/99 112/112/112
f 98/98/98 112/112/112 111/111/111
f 99/99/99 100/100/100 113/113/113
f 99/99/99 113/113/113 112/112/112
f 100/100/100 101/101/101 114/114/114
f 100/100/100 114/114/114 113/113/113
f 101/101/101 102/102/102 115/115/115
f 101/101/101 115/115/115 114/114/114
f 102/102/102 103/103/103 116/116/116
f 102/102/102 116/116/116 115/115/115
f 103/103/103 104/104/104 117/117/117
f 103/103/103 117/117/117 116/116/116
