# T01-R open surface prototype; metres; no material; not a finished garment
# Anatomical Right=-X; front=+Z; UV values are metres, not a texture atlas.
o T01-R
v -0.1180000000 1.0200000000 0.1430000000
v -0.1040000000 1.0200000000 0.1430000000
v -0.0900000000 1.0200000000 0.1430000000
v -0.0760000000 1.0200000000 0.1430000000
v -0.0620000000 1.0200000000 0.1430000000
v -0.0480000000 1.0200000000 0.1430000000
v -0.0340000000 1.0200000000 0.1430000000
v -0.0200000000 1.0200000000 0.1430000000
v -0.0060000000 1.0200000000 0.1430000000
v -0.1167517361 1.0616666667 0.1454537037
v -0.1029077691 1.0616666667 0.1464312428
v -0.0890638021 1.0616666667 0.1471294850
v -0.0752198351 1.0616666667 0.1475484303
v -0.0613758681 1.0616666667 0.1476880787
v -0.0475319010 1.0616666667 0.1475484303
v -0.0336879340 1.0616666667 0.1471294850
v -0.0198439670 1.0616666667 0.1464312428
v -0.0060000000 1.0616666667 0.1454537037
v -0.1172638889 1.1033333333 0.1477129630
v -0.1033559028 1.1033333333 0.1496270255
v -0.0894479167 1.1033333333 0.1509942130
v -0.0755399306 1.1033333333 0.1518145255
v -0.0616319444 1.1033333333 0.1520879630
v -0.0477239583 1.1033333333 0.1518145255
v -0.0338159722 1.1033333333 0.1509942130
v -0.0199079861 1.1033333333 0.1496270255
v -0.0060000000 1.1033333333 0.1477129630
v -0.1191718750 1.1450000000 0.1496250000
v -0.1050253906 1.1450000000 0.1523935547
v -0.0908789062 1.1450000000 0.1543710937
v -0.0767324219 1.1450000000 0.1555576172
v -0.0625859375 1.1450000000 0.1559531250
v -0.0484394531 1.1450000000 0.1555576172
v -0.0342929688 1.1450000000 0.1543710938
v -0.0201464844 1.1450000000 0.1523935547
v -0.0060000000 1.1450000000 0.1496250000
v -0.1221111111 1.1866666667 0.1510370370
v -0.1075972222 1.1866666667 0.1545370370
v -0.0930833333 1.1866666667 0.1570370370
v -0.0785694444 1.1866666667 0.1585370370
v -0.0640555556 1.1866666667 0.1590370370
v -0.0495416667 1.1866666667 0.1585370370
v -0.0350277778 1.1866666667 0.1570370370
v -0.0205138889 1.1866666667 0.1545370370
v -0.0060000000 1.1866666667 0.1510370370
v -0.1257170139 1.2283333333 0.1517962963
v -0.1107523872 1.2283333333 0.1558636791
v -0.0957877604 1.2283333333 0.1587689525
v -0.0808231337 1.2283333333 0.1605121166
v -0.0658585069 1.2283333333 0.1610931713
v -0.0508938802 1.2283333333 0.1605121166
v -0.0359292535 1.2283333333 0.1587689525
v -0.0209646267 1.2283333333 0.1558636791
v -0.0060000000 1.2283333333 0.1517962963
v -0.1296250000 1.2700000000 0.1517500000
v -0.1141718750 1.2700000000 0.1561796875
v -0.0987187500 1.2700000000 0.1593437500
v -0.0832656250 1.2700000000 0.1612421875
v -0.0678125000 1.2700000000 0.1618750000
v -0.0523593750 1.2700000000 0.1612421875
v -0.0369062500 1.2700000000 0.1593437500
v -0.0214531250 1.2700000000 0.1561796875
v -0.0060000000 1.2700000000 0.1517500000
v -0.1334704861 1.3116666667 0.1507453704
v -0.1175366753 1.3116666667 0.1552912688
v -0.1016028646 1.3116666667 0.1585383391
v -0.0856690538 1.3116666667 0.1604865813
v -0.0697352431 1.3116666667 0.1611359954
v -0.0538014323 1.3116666667 0.1604865813
v -0.0378676215 1.3116666667 0.1585383391
v -0.0219338108 1.3116666667 0.1552912688
v -0.0060000000 1.3116666667 0.1507453704
v -0.1368888889 1.3533333333 0.1486296296
v -0.1205277778 1.3533333333 0.1530046296
v -0.1041666667 1.3533333333 0.1561296296
v -0.0878055556 1.3533333333 0.1580046296
v -0.0714444444 1.3533333333 0.1586296296
v -0.0550833333 1.3533333333 0.1580046296
v -0.0387222222 1.3533333333 0.1561296296
v -0.0223611111 1.3533333333 0.1530046296
v -0.0060000000 1.3533333333 0.1486296296
v -0.1395156250 1.3950000000 0.1452500000
v -0.1228261719 1.3950000000 0.1491259766
v -0.1061367187 1.3950000000 0.1518945313
v -0.0894472656 1.3950000000 0.1535556641
v -0.0727578125 1.3950000000 0.1541093750
v -0.0560683594 1.3950000000 0.1535556641
v -0.0393789063 1.3950000000 0.1518945313
v -0.0226894531 1.3950000000 0.1491259766
v -0.0060000000 1.3950000000 0.1452500000
v -0.1409861111 1.4366666667 0.1404537037
v -0.1241128472 1.4366666667 0.1434615162
v -0.1072395833 1.4366666667 0.1456099537
v -0.0903663194 1.4366666667 0.1468990162
v -0.0734930556 1.4366666667 0.1473287037
v -0.0566197917 1.4366666667 0.1468990162
v -0.0397465278 1.4366666667 0.1456099537
v -0.0228732639 1.4366666667 0.1434615162
v -0.0060000000 1.4366666667 0.1404537037
v -0.1409357639 1.4783333333 0.1340879630
v -0.1240687934 1.4783333333 0.1358174552
v -0.1072018229 1.4783333333 0.1370528067
v -0.0903348524 1.4783333333 0.1377940177
v -0.0734678819 1.4783333333 0.1380410880
v -0.0566009115 1.4783333333 0.1377940177
v -0.0397339410 1.4783333333 0.1370528067
v -0.0228669705 1.4783333333 0.1358174552
v -0.0060000000 1.4783333333 0.1340879630
v -0.1390000000 1.5200000000 0.1260000000
v -0.1223750000 1.5200000000 0.1260000000
v -0.1057500000 1.5200000000 0.1260000000
v -0.0891250000 1.5200000000 0.1260000000
v -0.0725000000 1.5200000000 0.1260000000
v -0.0558750000 1.5200000000 0.1260000000
v -0.0392500000 1.5200000000 0.1260000000
v -0.0226250000 1.5200000000 0.1260000000
v -0.0060000000 1.5200000000 0.1260000000
vt 0.0000000000 0.0000000000
vt 0.0140000000 0.0000000000
vt 0.0280000000 0.0000000000
vt 0.0420000000 0.0000000000
vt 0.0560000000 0.0000000000
vt 0.0700000000 0.0000000000
vt 0.0840000000 0.0000000000
vt 0.0980000000 0.0000000000
vt 0.1120000000 0.0000000000
vt 0.0000000000 0.0419351837
vt 0.0138786696 0.0419351837
vt 0.0277404671 0.0419351837
vt 0.0415910042 0.0419351837
vt 0.0554359066 0.0419351837
vt 0.0692808064 0.0419351837
vt 0.0831313362 0.0419351837
vt 0.0969931215 0.0419351837
vt 0.1108717741 0.0419351837
vt 0.0000000000 0.0838350816
vt 0.0140399488 0.0838350816
vt 0.0280158526 0.0838350816
vt 0.0419488933 0.0838350816
vt 0.0558604483 0.0838350816
vt 0.0697719939 0.0838350816
vt 0.0837050068 0.0838350816
vt 0.0976808645 0.0838350816
vt 0.1117207490 0.0838350816
vt 0.0000000000 0.1256923010
vt 0.0144165915 0.1256923010
vt 0.0287024120 0.1256923010
vt 0.0429003771 0.1256923010
vt 0.0570542008 0.1256923010
vt 0.0712080054 0.1256923010
vt 0.0854059137 0.1256923010
vt 0.0996916402 0.1256923010
vt 0.1141081018 0.1256923010
vt 0.0000000000 0.1674997558
vt 0.0149325714 0.1674997558
vt 0.0296629365 0.1674997558
vt 0.0442569337 0.1674997558
vt 0.0587822529 0.1674997558
vt 0.0733075425 0.1674997558
vt 0.0879014518 0.1674997558
vt 0.1026316722 0.1674997558
vt 0.1175640444 0.1674997558
vt 0.0000000000 0.2092574169
vt 0.0155109125 0.2092574169
vt 0.0307584957 0.2092574169
vt 0.0458279619 0.2092574169
vt 0.0608075578 0.2092574169
vt 0.0757871152 0.2092574169
vt 0.0908564668 0.2092574169
vt 0.1061038619 0.2092574169
vt 0.1216145171 0.2092574169
vt 0.0000000000 0.2509791028
vt 0.0160793189 0.2509791028
vt 0.0318570908 0.2509791028
vt 0.0474305804 0.2509791028
vt 0.0629008974 0.2509791028
vt 0.0783711701 0.2509791028
vt 0.0939445285 0.2509791028
vt 0.1097220854 0.2509791028
vt 0.1258011106 0.2509791028
vt 0.0000000000 0.2926992739
vt 0.0165735167 0.2926992739
vt 0.0328389511 0.2926992739
vt 0.0488957057 0.2926992739
vt 0.0648470762 0.2926992739
vt 0.0807984016 0.2926992739
vt 0.0968550220 0.2926992739
vt 0.1131202367 0.2926992739
vt 0.1296934533 0.2926992739
vt 0.0000000000 0.3344797179
vt 0.0169395409 0.3344797179
vt 0.0336001779 0.3344797179
vt 0.0500722471 0.3344797179
vt 0.0664491993 0.3344797179
vt 0.0828261108 0.3344797179
vt 0.0992980587 0.3344797179
vt 0.1159584965 0.3344797179
vt 0.1328977644 0.3344797179
vt 0.0000000000 0.3764158977
vt 0.0171364513 0.3764158977
vt 0.0340569093 0.3764158977
vt 0.0508318186 0.3764158977
vt 0.0675334629 0.3764158977
vt 0.0842350756 0.3764158977
vt 0.1010098910 0.3764158977
vt 0.1179301943 0.3764158977
vt 0.1350664325 0.3764158977
vt 0.0000000000 0.4186425997
vt 0.0171409915 0.4186425997
vt 0.0341522583 0.4186425997
vt 0.0510764836 0.4186425997
vt 0.0679570106 0.4186425997
vt 0.0848375188 0.4186425997
vt 0.1017616878 0.4186425997
vt 0.1187728612 0.4186425997
vt 0.1359137235 0.4186425997
vt 0.0000000000 0.4613383901
vt 0.0169560008 0.4613383901
vt 0.0338687464 0.4613383901
vt 0.0507525916 0.4613383901
vt 0.0676219649 0.4613383901
vt 0.0844913320 0.4613383901
vt 0.1013751584 0.4613383901
vt 0.1182878728 0.4613383901
vt 0.1352438300 0.4613383901
vt 0.0000000000 0.5047283208
vt 0.0166250000 0.5047283208
vt 0.0332500000 0.5047283208
vt 0.0498750000 0.5047283208
vt 0.0665000000 0.5047283208
vt 0.0831250000 0.5047283208
vt 0.0997500000 0.5047283208
vt 0.1163750000 0.5047283208
vt 0.1330000000 0.5047283208
vn 0.0000000000 -0.0598922907 0.9982048455
vn -0.0000000000 -0.0833341240 0.9965216625
vn -0.0000000000 -0.0999962751 0.9949878115
vn 0.0000000000 -0.1099542419 0.9939366502
vn 0.0000000000 -0.1132663710 0.9935646578
vn -0.0000000000 -0.1099542419 0.9939366502
vn 0.0000000000 -0.0999962751 0.9949878115
vn 0.0000000000 -0.0833341240 0.9965216625
vn 0.0000000000 -0.0598922907 0.9982048455
vn -0.0803094455 -0.0562987725 0.9951787986
vn -0.0602220653 -0.0795104263 0.9950132637
vn -0.0401299503 -0.0960747007 0.9945648491
vn -0.0200568388 -0.1060213516 0.9941615544
vn -0.0000000000 -0.1093814006 0.9939998537
vn 0.0200565241 -0.1061676047 0.9941459528
vn 0.0401288076 -0.0963679148 0.9945365271
vn 0.0602199328 -0.0799517328 0.9949780300
vn 0.0803067536 -0.0568891478 0.9951454417
vn -0.1551409557 -0.0547082007 0.9863763463
vn -0.1168228505 -0.0747417235 0.9903363552
vn -0.0780889630 -0.0889607181 0.9929693371
vn -0.0391042054 -0.0972832961 0.9944882209
vn 0.0000000000 -0.0996679125 0.9950207572
vn 0.0391087156 -0.0961017006 0.9946029215
vn 0.0781052920 -0.0865971091 0.9931769752
vn 0.1168532321 -0.0711971377 0.9905939076
vn 0.1551793943 -0.0499887840 0.9866207362
vn -0.2179706488 -0.0524655352 0.9745440800
vn -0.1650610252 -0.0673506009 0.9839810743
vn -0.1108034190 -0.0776860083 0.9908014364
vn -0.0556348362 -0.0832955206 0.9949706635
vn 0.0000000000 -0.0840762554 0.9964593234
vn 0.0556499087 -0.0799999610 0.9952402192
vn 0.1108579102 -0.0711143101 0.9912886959
vn 0.1651625353 -0.0575442044 0.9845862083
vn 0.2181009843 -0.0394926357 0.9751268083
vn -0.2653999735 -0.0469119027 0.9629964317
vn -0.2021063075 -0.0556217299 0.9777828305
vn -0.1362528661 -0.0612396707 0.9887794796
vn -0.0685974845 -0.0635816904 0.9956162683
vn 0.0000000000 -0.0625439784 0.9980422089
vn 0.0686203983 -0.0581132969 0.9959488369
vn 0.1363357997 -0.0503700817 0.9893813242
vn 0.2022618278 -0.0394835845 0.9785352316
vn 0.2656047366 -0.0256997176 0.9637394090
vn -0.2964548493 -0.0359110808 0.9543714773
vn -0.2267303145 -0.0381155576 0.9732114718
vn -0.1533588429 -0.0387518240 0.9874104321
vn -0.0773688530 -0.0377309942 0.9962883281
vn -0.0000000000 -0.0350201723 0.9993866056
vn 0.0773876098 -0.0306495017 0.9965298620
vn 0.1534272558 -0.0247113387 0.9878509133
vn 0.2268610322 -0.0173513904 0.9737725614
vn 0.2966348235 -0.0087537163 0.9549508647
vn -0.3112725771 -0.0180134593 0.9501499345
vn -0.2385832108 -0.0138106727 0.9710238498
vn -0.1616401301 -0.0096059886 0.9868030165
vn -0.0816263750 -0.0054751080 0.9966479610
vn 0.0000000000 -0.0014999983 0.9999988750
vn 0.0816273939 0.0022386124 0.9966604021
vn 0.1616449906 0.0056691742 0.9868326897
vn 0.2385968621 0.0087359406 0.9710794101
vn 0.3113028503 0.0114029081 0.9502423423
vn -0.3099850588 0.0075454472 0.9507114860
vn -0.2375046420 0.0178336498 0.9712226861
vn -0.1608472685 0.0264817969 0.9866239763
vn -0.0811995911 0.0332442015 0.9961432876
vn 0.0000000000 0.0379310170 0.9992803600
vn 0.0811780713 0.0404297976 0.9958792860
vn 0.1607702613 0.0407173829 0.9861516201
vn 0.2373630011 0.0388593103 0.9706434771
vn 0.3098039821 0.0349974175 0.9501561311
vn -0.2920161976 0.0408195383 0.9555418911
vn -0.2230482310 0.0568004023 0.9731511707
vn -0.1506842170 0.0693780830 0.9861444866
vn -0.0759453547 0.0782059244 0.9940403093
vn 0.0000000000 0.0830454799 0.9965457582
vn 0.0759107999 0.0837877403 0.9935880258
vn 0.1505584361 0.0804614952 0.9853213207
vn 0.2228091202 0.0732273864 0.9721079394
vn 0.2916909812 0.0623592104 0.9544777108
vn -0.2556934579 0.0809831237 0.9633600517
vn -0.1942075959 0.1023646440 0.9756048838
vn -0.1306300980 0.1184201904 0.9843334984
vn -0.0656571989 0.1288367152 0.9894898853
vn 0.0000000000 0.1334213719 0.9910594016
vn 0.0656287377 0.1321033217 0.9890609593
vn 0.1305250679 0.1249328090 0.9835420682
vn 0.1940030778 0.1120782506 0.9745774836
vn 0.2554044870 0.0938214532 0.9622713146
vn -0.1980346215 0.1259456852 0.9720699425
vn -0.1492659600 0.1528416975 0.9769130405
vn -0.0998228322 0.1722752060 0.9799778853
vn -0.0499954262 0.1841417030 0.9816273685
vn 0.0000000000 0.1883981237 0.9820927385
vn 0.0499868920 0.1850350276 0.9814598052
vn 0.0997909192 0.1740662622 0.9796645899
vn 0.1492024322 0.1555368929 0.9764972653
vn 0.1979419804 0.1295486941 0.9716152059
vn -0.1146609962 0.1716757192 0.9784581255
vn -0.0856882168 0.2052130111 0.9749590502
vn -0.0569411217 0.2287747479 0.9718126483
vn -0.0284085875 0.2426523981 0.9696972548
vn 0.0000000000 0.2470549971 0.9690014594
vn 0.0284129646 0.2420540443 0.9698466596
vn 0.0569576794 0.2275668446 0.9720952392
vn 0.0857217930 0.2033753970 0.9753410799
vn 0.1147111531 0.1691841544 0.9788861391
vn 0.0000000000 0.2111308847 0.9774577994
vn -0.0000000000 0.2545766001 0.9670526121
vn -0.0000000000 0.2847084078 0.9586141677
vn -0.0000000000 0.3023970100 0.9531820646
vn 0.0000000000 0.3082255155 0.9513133194
vn 0.0000000000 0.3023970100 0.9531820646
vn 0.0000000000 0.2847084078 0.9586141677
vn 0.0000000000 0.2545766001 0.9670526121
vn 0.0000000000 0.2111308847 0.9774577994
f 1/1/1 2/2/2 11/11/11
f 1/1/1 11/11/11 10/10/10
f 2/2/2 3/3/3 12/12/12
f 2/2/2 12/12/12 11/11/11
f 3/3/3 4/4/4 13/13/13
f 3/3/3 13/13/13 12/12/12
f 4/4/4 5/5/5 14/14/14
f 4/4/4 14/14/14 13/13/13
f 5/5/5 6/6/6 15/15/15
f 5/5/5 15/15/15 14/14/14
f 6/6/6 7/7/7 16/16/16
f 6/6/6 16/16/16 15/15/15
f 7/7/7 8/8/8 17/17/17
f 7/7/7 17/17/17 16/16/16
f 8/8/8 9/9/9 18/18/18
f 8/8/8 18/18/18 17/17/17
f 10/10/10 11/11/11 20/20/20
f 10/10/10 20/20/20 19/19/19
f 11/11/11 12/12/12 21/21/21
f 11/11/11 21/21/21 20/20/20
f 12/12/12 13/13/13 22/22/22
f 12/12/12 22/22/22 21/21/21
f 13/13/13 14/14/14 23/23/23
f 13/13/13 23/23/23 22/22/22
f 14/14/14 15/15/15 24/24/24
f 14/14/14 24/24/24 23/23/23
f 15/15/15 16/16/16 25/25/25
f 15/15/15 25/25/25 24/24/24
f 16/16/16 17/17/17 26/26/26
f 16/16/16 26/26/26 25/25/25
f 17/17/17 18/18/18 27/27/27
f 17/17/17 27/27/27 26/26/26
f 19/19/19 20/20/20 29/29/29
f 19/19/19 29/29/29 28/28/28
f 20/20/20 21/21/21 30/30/30
f 20/20/20 30/30/30 29/29/29
f 21/21/21 22/22/22 31/31/31
f 21/21/21 31/31/31 30/30/30
f 22/22/22 23/23/23 32/32/32
f 22/22/22 32/32/32 31/31/31
f 23/23/23 24/24/24 33/33/33
f 23/23/23 33/33/33 32/32/32
f 24/24/24 25/25/25 34/34/34
f 24/24/24 34/34/34 33/33/33
f 25/25/25 26/26/26 35/35/35
f 25/25/25 35/35/35 34/34/34
f 26/26/26 27/27/27 36/36/36
f 26/26/26 36/36/36 35/35/35
f 28/28/28 29/29/29 38/38/38
f 28/28/28 38/38/38 37/37/37
f 29/29/29 30/30/30 39/39/39
f 29/29/29 39/39/39 38/38/38
f 30/30/30 31/31/31 40/40/40
f 30/30/30 40/40/40 39/39/39
f 31/31/31 32/32/32 41/41/41
f 31/31/31 41/41/41 40/40/40
f 32/32/32 33/33/33 42/42/42
f 32/32/32 42/42/42 41/41/41
f 33/33/33 34/34/34 43/43/43
f 33/33/33 43/43/43 42/42/42
f 34/34/34 35/35/35 44/44/44
f 34/34/34 44/44/44 43/43/43
f 35/35/35 36/36/36 45/45/45
f 35/35/35 45/45/45 44/44/44
f 37/37/37 38/38/38 47/47/47
f 37/37/37 47/47/47 46/46/46
f 38/38/38 39/39/39 48/48/48
f 38/38/38 48/48/48 47/47/47
f 39/39/39 40/40/40 49/49/49
f 39/39/39 49/49/49 48/48/48
f 40/40/40 41/41/41 50/50/50
f 40/40/40 50/50/50 49/49/49
f 41/41/41 42/42/42 51/51/51
f 41/41/41 51/51/51 50/50/50
f 42/42/42 43/43/43 52/52/52
f 42/42/42 52/52/52 51/51/51
f 43/43/43 44/44/44 53/53/53
f 43/43/43 53/53/53 52/52/52
f 44/44/44 45/45/45 54/54/54
f 44/44/44 54/54/54 53/53/53
f 46/46/46 47/47/47 56/56/56
f 46/46/46 56/56/56 55/55/55
f 47/47/47 48/48/48 57/57/57
f 47/47/47 57/57/57 56/56/56
f 48/48/48 49/49/49 58/58/58
f 48/48/48 58/58/58 57/57/57
f 49/49/49 50/50/50 59/59/59
f 49/49/49 59/59/59 58/58/58
f 50/50/50 51/51/51 60/60/60
f 50/50/50 60/60/60 59/59/59
f 51/51/51 52/52/52 61/61/61
f 51/51/51 61/61/61 60/60/60
f 52/52/52 53/53/53 62/62/62
f 52/52/52 62/62/62 61/61/61
f 53/53/53 54/54/54 63/63/63
f 53/53/53 63/63/63 62/62/62
f 55/55/55 56/56/56 65/65/65
f 55/55/55 65/65/65 64/64/64
f 56/56/56 57/57/57 66/66/66
f 56/56/56 66/66/66 65/65/65
f 57/57/57 58/58/58 67/67/67
f 57/57/57 67/67/67 66/66/66
f 58/58/58 59/59/59 68/68/68
f 58/58/58 68/68/68 67/67/67
f 59/59/59 60/60/60 69/69/69
f 59/59/59 69/69/69 68/68/68
f 60/60/60 61/61/61 70/70/70
f 60/60/60 70/70/70 69/69/69
f 61/61/61 62/62/62 71/71/71
f 61/61/61 71/71/71 70/70/70
f 62/62/62 63/63/63 72/72/72
f 62/62/62 72/72/72 71/71/71
f 64/64/64 65/65/65 74/74/74
f 64/64/64 74/74/74 73/73/73
f 65/65/65 66/66/66 75/75/75
f 65/65/65 75/75/75 74/74/74
f 66/66/66 67/67/67 76/76/76
f 66/66/66 76/76/76 75/75/75
f 67/67/67 68/68/68 77/77/77
f 67/67/67 77/77/77 76/76/76
f 68/68/68 69/69/69 78/78/78
f 68/68/68 78/78/78 77/77/77
f 69/69/69 70/70/70 79/79/79
f 69/69/69 79/79/79 78/78/78
f 70/70/70 71/71/71 80/80/80
f 70/70/70 80/80/80 79/79/79
f 71/71/71 72/72/72 81/81/81
f 71/71/71 81/81/81 80/80/80
f 73/73/73 74/74/74 83/83/83
f 73/73/73 83/83/83 82/82/82
f 74/74/74 75/75/75 84/84/84
f 74/74/74 84/84/84 83/83/83
f 75/75/75 76/76/76 85/85/85
f 75/75/75 85/85/85 84/84/84
f 76/76/76 77/77/77 86/86/86
f 76/76/76 86/86/86 85/85/85
f 77/77/77 78/78/78 87/87/87
f 77/77/77 87/87/87 86/86/86
f 78/78/78 79/79/79 88/88/88
f 78/78/78 88/88/88 87/87/87
f 79/79/79 80/80/80 89/89/89
f 79/79/79 89/89/89 88/88/88
f 80/80/80 81/81/81 90/90/90
f 80/80/80 90/90/90 89/89/89
f 82/82/82 83/83/83 92/92/92
f 82/82/82 92/92/92 91/91/91
f 83/83/83 84/84/84 93/93/93
f 83/83/83 93/93/93 92/92/92
f 84/84/84 85/85/85 94/94/94
f 84/84/84 94/94/94 93/93/93
f 85/85/85 86/86/86 95/95/95
f 85/85/85 95/95/95 94/94/94
f 86/86/86 87/87/87 96/96/96
f 86/86/86 96/96/96 95/95/95
f 87/87/87 88/88/88 97/97/97
f 87/87/87 97/97/97 96/96/96
f 88/88/88 89/89/89 98/98/98
f 88/88/88 98/98/98 97/97/97
f 89/89/89 90/90/90 99/99/99
f 89/89/89 99/99/99 98/98/98
f 91/91/91 92/92/92 101/101/101
f 91/91/91 101/101/101 100/100/100
f 92/92/92 93/93/93 102/102/102
f 92/92/92 102/102/102 101/101/101
f 93/93/93 94/94/94 103/103/103
f 93/93/93 103/103/103 102/102/102
f 94/94/94 95/95/95 104/104/104
f 94/94/94 104/104/104 103/103/103
f 95/95/95 96/96/96 105/105/105
f 95/95/95 105/105/105 104/104/104
f 96/96/96 97/97/97 106/106/106
f 96/96/96 106/106/106 105/105/105
f 97/97/97 98/98/98 107/107/107
f 97/97/97 107/107/107 106/106/106
f 98/98/98 99/99/99 108/108/108
f 98/98/98 108/108/108 107/107/107
f 100/100/100 101/101/101 110/110/110
f 100/100/100 110/110/110 109/109/109
f 101/101/101 102/102/102 111/111/111
f 101/101/101 111/111/111 110/110/110
f 102/102/102 103/103/103 112/112/112
f 102/102/102 112/112/112 111/111/111
f 103/103/103 104/104/104 113/113/113
f 103/103/103 113/113/113 112/112/112
f 104/104/104 105/105/105 114/114/114
f 104/104/104 114/114/114 113/113/113
f 105/105/105 106/106/106 115/115/115
f 105/105/105 115/115/115 114/114/114
f 106/106/106 107/107/107 116/116/116
f 106/106/106 116/116/116 115/115/115
f 107/107/107 108/108/108 117/117/117
f 107/107/107 117/117/117 116/116/116
