# Authored reference micro-part S13; metres; local origin
o S13
v 0.014000000432133675 -0.0024999999441206455 0
v 0.013522961176931858 -0.0024999999441206455 0.003623466705903411
v 0.012124355882406235 -0.0024999999441206455 0.007000000216066837
v 0.009899495169520378 -0.0024999999441206455 0.009899495169520378
v 0.007000000216066837 -0.0024999999441206455 0.012124355882406235
v 0.003623466705903411 -0.0024999999441206455 0.013522961176931858
v 8.57252763722393e-19 -0.0024999999441206455 0.014000000432133675
v -0.003623466705903411 -0.0024999999441206455 0.013522961176931858
v -0.007000000216066837 -0.0024999999441206455 0.012124355882406235
v -0.009899495169520378 -0.0024999999441206455 0.009899495169520378
v -0.012124355882406235 -0.0024999999441206455 0.007000000216066837
v -0.013522961176931858 -0.0024999999441206455 0.003623466705903411
v -0.014000000432133675 -0.0024999999441206455 1.714505527444786e-18
v -0.013522961176931858 -0.0024999999441206455 -0.003623466705903411
v -0.012124355882406235 -0.0024999999441206455 -0.007000000216066837
v -0.009899495169520378 -0.0024999999441206455 -0.009899495169520378
v -0.007000000216066837 -0.0024999999441206455 -0.012124355882406235
v -0.003623466705903411 -0.0024999999441206455 -0.013522961176931858
v -2.571758291167179e-18 -0.0024999999441206455 -0.014000000432133675
v 0.003623466705903411 -0.0024999999441206455 -0.013522961176931858
v 0.007000000216066837 -0.0024999999441206455 -0.012124355882406235
v 0.009899495169520378 -0.0024999999441206455 -0.009899495169520378
v 0.012124355882406235 -0.0024999999441206455 -0.007000000216066837
v 0.013522961176931858 -0.0024999999441206455 -0.003623466705903411
v 0.014499999582767487 -0.003000000026077032 0
v 0.014005924575030804 -0.003000000026077032 0.0037528760731220245
v 0.012557368725538254 -0.003000000026077032 0.007249999791383743
v 0.01025304850190878 -0.003000000026077032 0.01025304850190878
v 0.007249999791383743 -0.003000000026077032 0.012557368725538254
v 0.0037528760731220245 -0.003000000026077032 0.014005924575030804
v 8.878688895420885e-19 -0.003000000026077032 0.014499999582767487
v -0.0037528760731220245 -0.003000000026077032 0.014005924575030804
v -0.007249999791383743 -0.003000000026077032 0.012557368725538254
v -0.01025304850190878 -0.003000000026077032 0.01025304850190878
v -0.012557368725538254 -0.003000000026077032 0.007249999791383743
v -0.014005924575030804 -0.003000000026077032 0.0037528760731220245
v -0.014499999582767487 -0.003000000026077032 1.775737779084177e-18
v -0.014005924575030804 -0.003000000026077032 -0.0037528760731220245
v -0.012557368725538254 -0.003000000026077032 -0.007249999791383743
v -0.01025304850190878 -0.003000000026077032 -0.01025304850190878
v -0.007249999791383743 -0.003000000026077032 -0.012557368725538254
v -0.0037528760731220245 -0.003000000026077032 -0.014005924575030804
v -2.663606772023842e-18 -0.003000000026077032 -0.014499999582767487
v 0.0037528760731220245 -0.003000000026077032 -0.014005924575030804
v 0.007249999791383743 -0.003000000026077032 -0.012557368725538254
v 0.01025304850190878 -0.003000000026077032 -0.01025304850190878
v 0.012557368725538254 -0.003000000026077032 -0.007249999791383743
v 0.014005924575030804 -0.003000000026077032 -0.0037528760731220245
v 0.019200000911951065 -0.003000000026077032 0
v 0.01854577660560608 -0.003000000026077032 0.004969325847923756
v 0.016627687960863113 -0.003000000026077032 0.009600000455975533
v 0.013576449826359749 -0.003000000026077032 0.013576449826359749
v 0.009600000455975533 -0.003000000026077032 0.016627687960863113
v 0.004969325847923756 -0.003000000026077032 0.01854577660560608
v 1.1756609478760785e-18 -0.003000000026077032 0.019200000911951065
v -0.004969325847923756 -0.003000000026077032 0.01854577660560608
v -0.009600000455975533 -0.003000000026077032 0.016627687960863113
v -0.013576449826359749 -0.003000000026077032 0.013576449826359749
v -0.016627687960863113 -0.003000000026077032 0.009600000455975533
v -0.01854577660560608 -0.003000000026077032 0.004969325847923756
v -0.019200000911951065 -0.003000000026077032 2.351321895752157e-18
v -0.01854577660560608 -0.003000000026077032 -0.004969325847923756
v -0.016627687960863113 -0.003000000026077032 -0.009600000455975533
v -0.013576449826359749 -0.003000000026077032 -0.013576449826359749
v -0.009600000455975533 -0.003000000026077032 -0.016627687960863113
v -0.004969325847923756 -0.003000000026077032 -0.01854577660560608
v -3.526982740230659e-18 -0.003000000026077032 -0.019200000911951065
v 0.004969325847923756 -0.003000000026077032 -0.01854577660560608
v 0.009600000455975533 -0.003000000026077032 -0.016627687960863113
v 0.013576449826359749 -0.003000000026077032 -0.013576449826359749
v 0.016627687960863113 -0.003000000026077032 -0.009600000455975533
v 0.01854577660560608 -0.003000000026077032 -0.004969325847923756
v 0.019999999552965164 -0.002199999988079071 0
v 0.019318517297506332 -0.002199999988079071 0.00517638074234128
v 0.017320508137345314 -0.002199999988079071 0.009999999776482582
v 0.01414213515818119 -0.002199999988079071 0.01414213515818119
v 0.009999999776482582 -0.002199999988079071 0.017320508137345314
v 0.00517638074234128 -0.002199999988079071 0.019318517297506332
v 1.224646790546622e-18 -0.002199999988079071 0.019999999552965164
v -0.00517638074234128 -0.002199999988079071 0.019318517297506332
v -0.009999999776482582 -0.002199999988079071 0.017320508137345314
v -0.01414213515818119 -0.002199999988079071 0.01414213515818119
v -0.017320508137345314 -0.002199999988079071 0.009999999776482582
v -0.019318517297506332 -0.002199999988079071 0.00517638074234128
v -0.019999999552965164 -0.002199999988079071 2.449293581093244e-18
v -0.019318517297506332 -0.002199999988079071 -0.00517638074234128
v -0.017320508137345314 -0.002199999988079071 -0.009999999776482582
v -0.01414213515818119 -0.002199999988079071 -0.01414213515818119
v -0.009999999776482582 -0.002199999988079071 -0.017320508137345314
v -0.00517638074234128 -0.002199999988079071 -0.019318517297506332
v -3.673940475037442e-18 -0.002199999988079071 -0.019999999552965164
v 0.00517638074234128 -0.002199999988079071 -0.019318517297506332
v 0.009999999776482582 -0.002199999988079071 -0.017320508137345314
v 0.01414213515818119 -0.002199999988079071 -0.01414213515818119
v 0.017320508137345314 -0.002199999988079071 -0.009999999776482582
v 0.019318517297506332 -0.002199999988079071 -0.00517638074234128
v 0.019999999552965164 0.002199999988079071 0
v 0.019318517297506332 0.002199999988079071 0.00517638074234128
v 0.017320508137345314 0.002199999988079071 0.009999999776482582
v 0.01414213515818119 0.002199999988079071 0.01414213515818119
v 0.009999999776482582 0.002199999988079071 0.017320508137345314
v 0.00517638074234128 0.002199999988079071 0.019318517297506332
v 1.224646790546622e-18 0.002199999988079071 0.019999999552965164
v -0.00517638074234128 0.002199999988079071 0.019318517297506332
v -0.009999999776482582 0.002199999988079071 0.017320508137345314
v -0.01414213515818119 0.002199999988079071 0.01414213515818119
v -0.017320508137345314 0.002199999988079071 0.009999999776482582
v -0.019318517297506332 0.002199999988079071 0.00517638074234128
v -0.019999999552965164 0.002199999988079071 2.449293581093244e-18
v -0.019318517297506332 0.002199999988079071 -0.00517638074234128
v -0.017320508137345314 0.002199999988079071 -0.009999999776482582
v -0.01414213515818119 0.002199999988079071 -0.01414213515818119
v -0.009999999776482582 0.002199999988079071 -0.017320508137345314
v -0.00517638074234128 0.002199999988079071 -0.019318517297506332
v -3.673940475037442e-18 0.002199999988079071 -0.019999999552965164
v 0.00517638074234128 0.002199999988079071 -0.019318517297506332
v 0.009999999776482582 0.002199999988079071 -0.017320508137345314
v 0.01414213515818119 0.002199999988079071 -0.01414213515818119
v 0.017320508137345314 0.002199999988079071 -0.009999999776482582
v 0.019318517297506332 0.002199999988079071 -0.00517638074234128
v 0.019200000911951065 0.003000000026077032 0
v 0.01854577660560608 0.003000000026077032 0.004969325847923756
v 0.016627687960863113 0.003000000026077032 0.009600000455975533
v 0.013576449826359749 0.003000000026077032 0.013576449826359749
v 0.009600000455975533 0.003000000026077032 0.016627687960863113
v 0.004969325847923756 0.003000000026077032 0.01854577660560608
v 1.1756609478760785e-18 0.003000000026077032 0.019200000911951065
v -0.004969325847923756 0.003000000026077032 0.01854577660560608
v -0.009600000455975533 0.003000000026077032 0.016627687960863113
v -0.013576449826359749 0.003000000026077032 0.013576449826359749
v -0.016627687960863113 0.003000000026077032 0.009600000455975533
v -0.01854577660560608 0.003000000026077032 0.004969325847923756
v -0.019200000911951065 0.003000000026077032 2.351321895752157e-18
v -0.01854577660560608 0.003000000026077032 -0.004969325847923756
v -0.016627687960863113 0.003000000026077032 -0.009600000455975533
v -0.013576449826359749 0.003000000026077032 -0.013576449826359749
v -0.009600000455975533 0.003000000026077032 -0.016627687960863113
v -0.004969325847923756 0.003000000026077032 -0.01854577660560608
v -3.526982740230659e-18 0.003000000026077032 -0.019200000911951065
v 0.004969325847923756 0.003000000026077032 -0.01854577660560608
v 0.009600000455975533 0.003000000026077032 -0.016627687960863113
v 0.013576449826359749 0.003000000026077032 -0.013576449826359749
v 0.016627687960863113 0.003000000026077032 -0.009600000455975533
v 0.01854577660560608 0.003000000026077032 -0.004969325847923756
v 0.014499999582767487 0.003000000026077032 0
v 0.014005924575030804 0.003000000026077032 0.0037528760731220245
v 0.012557368725538254 0.003000000026077032 0.007249999791383743
v 0.01025304850190878 0.003000000026077032 0.01025304850190878
v 0.007249999791383743 0.003000000026077032 0.012557368725538254
v 0.0037528760731220245 0.003000000026077032 0.014005924575030804
v 8.878688895420885e-19 0.003000000026077032 0.014499999582767487
v -0.0037528760731220245 0.003000000026077032 0.014005924575030804
v -0.007249999791383743 0.003000000026077032 0.012557368725538254
v -0.01025304850190878 0.003000000026077032 0.01025304850190878
v -0.012557368725538254 0.003000000026077032 0.007249999791383743
v -0.014005924575030804 0.003000000026077032 0.0037528760731220245
v -0.014499999582767487 0.003000000026077032 1.775737779084177e-18
v -0.014005924575030804 0.003000000026077032 -0.0037528760731220245
v -0.012557368725538254 0.003000000026077032 -0.007249999791383743
v -0.01025304850190878 0.003000000026077032 -0.01025304850190878
v -0.007249999791383743 0.003000000026077032 -0.012557368725538254
v -0.0037528760731220245 0.003000000026077032 -0.014005924575030804
v -2.663606772023842e-18 0.003000000026077032 -0.014499999582767487
v 0.0037528760731220245 0.003000000026077032 -0.014005924575030804
v 0.007249999791383743 0.003000000026077032 -0.012557368725538254
v 0.01025304850190878 0.003000000026077032 -0.01025304850190878
v 0.012557368725538254 0.003000000026077032 -0.007249999791383743
v 0.014005924575030804 0.003000000026077032 -0.0037528760731220245
v 0.014000000432133675 0.0024999999441206455 0
v 0.013522961176931858 0.0024999999441206455 0.003623466705903411
v 0.012124355882406235 0.0024999999441206455 0.007000000216066837
v 0.009899495169520378 0.0024999999441206455 0.009899495169520378
v 0.007000000216066837 0.0024999999441206455 0.012124355882406235
v 0.003623466705903411 0.0024999999441206455 0.013522961176931858
v 8.57252763722393e-19 0.0024999999441206455 0.014000000432133675
v -0.003623466705903411 0.0024999999441206455 0.013522961176931858
v -0.007000000216066837 0.0024999999441206455 0.012124355882406235
v -0.009899495169520378 0.0024999999441206455 0.009899495169520378
v -0.012124355882406235 0.0024999999441206455 0.007000000216066837
v -0.013522961176931858 0.0024999999441206455 0.003623466705903411
v -0.014000000432133675 0.0024999999441206455 1.714505527444786e-18
v -0.013522961176931858 0.0024999999441206455 -0.003623466705903411
v -0.012124355882406235 0.0024999999441206455 -0.007000000216066837
v -0.009899495169520378 0.0024999999441206455 -0.009899495169520378
v -0.007000000216066837 0.0024999999441206455 -0.012124355882406235
v -0.003623466705903411 0.0024999999441206455 -0.013522961176931858
v -2.571758291167179e-18 0.0024999999441206455 -0.014000000432133675
v 0.003623466705903411 0.0024999999441206455 -0.013522961176931858
v 0.007000000216066837 0.0024999999441206455 -0.012124355882406235
v 0.009899495169520378 0.0024999999441206455 -0.009899495169520378
v 0.012124355882406235 0.0024999999441206455 -0.007000000216066837
v 0.013522961176931858 0.0024999999441206455 -0.003623466705903411
v 0.014000000432133675 0.0010000000474974513 0
v 0.013522961176931858 0.0010000000474974513 0.003623466705903411
v 0.012124355882406235 0.0010000000474974513 0.007000000216066837
v 0.009899495169520378 0.0010000000474974513 0.009899495169520378
v 0.007000000216066837 0.0010000000474974513 0.012124355882406235
v 0.003623466705903411 0.0010000000474974513 0.013522961176931858
v 8.57252763722393e-19 0.0010000000474974513 0.014000000432133675
v -0.003623466705903411 0.0010000000474974513 0.013522961176931858
v -0.007000000216066837 0.0010000000474974513 0.012124355882406235
v -0.009899495169520378 0.0010000000474974513 0.009899495169520378
v -0.012124355882406235 0.0010000000474974513 0.007000000216066837
v -0.013522961176931858 0.0010000000474974513 0.003623466705903411
v -0.014000000432133675 0.0010000000474974513 1.714505527444786e-18
v -0.013522961176931858 0.0010000000474974513 -0.003623466705903411
v -0.012124355882406235 0.0010000000474974513 -0.007000000216066837
v -0.009899495169520378 0.0010000000474974513 -0.009899495169520378
v -0.007000000216066837 0.0010000000474974513 -0.012124355882406235
v -0.003623466705903411 0.0010000000474974513 -0.013522961176931858
v -2.571758291167179e-18 0.0010000000474974513 -0.014000000432133675
v 0.003623466705903411 0.0010000000474974513 -0.013522961176931858
v 0.007000000216066837 0.0010000000474974513 -0.012124355882406235
v 0.009899495169520378 0.0010000000474974513 -0.009899495169520378
v 0.012124355882406235 0.0010000000474974513 -0.007000000216066837
v 0.013522961176931858 0.0010000000474974513 -0.003623466705903411
v 0.014999999664723873 0.0010000000474974513 0
v 0.014488887041807175 0.0010000000474974513 0.003882285673171282
v 0.012990380637347698 0.0010000000474974513 0.007499999832361937
v 0.01060660183429718 0.0010000000474974513 0.01060660183429718
v 0.007499999832361937 0.0010000000474974513 0.012990380637347698
v 0.003882285673171282 0.0010000000474974513 0.014488887041807175
v 9.184851187593606e-19 0.0010000000474974513 0.014999999664723873
v -0.003882285673171282 0.0010000000474974513 0.014488887041807175
v -0.007499999832361937 0.0010000000474974513 0.012990380637347698
v -0.01060660183429718 0.0010000000474974513 0.01060660183429718
v -0.012990380637347698 0.0010000000474974513 0.007499999832361937
v -0.014488887041807175 0.0010000000474974513 0.003882285673171282
v -0.014999999664723873 0.0010000000474974513 1.836970237518721e-18
v -0.014488887041807175 0.0010000000474974513 -0.003882285673171282
v -0.012990380637347698 0.0010000000474974513 -0.007499999832361937
v -0.01060660183429718 0.0010000000474974513 -0.01060660183429718
v -0.007499999832361937 0.0010000000474974513 -0.012990380637347698
v -0.003882285673171282 0.0010000000474974513 -0.014488887041807175
v -2.755455252880505e-18 0.0010000000474974513 -0.014999999664723873
v 0.003882285673171282 0.0010000000474974513 -0.014488887041807175
v 0.007499999832361937 0.0010000000474974513 -0.012990380637347698
v 0.01060660183429718 0.0010000000474974513 -0.01060660183429718
v 0.012990380637347698 0.0010000000474974513 -0.007499999832361937
v 0.014488887041807175 0.0010000000474974513 -0.003882285673171282
v 0.014999999664723873 -0.0010000000474974513 0
v 0.014488887041807175 -0.0010000000474974513 0.003882285673171282
v 0.012990380637347698 -0.0010000000474974513 0.007499999832361937
v 0.01060660183429718 -0.0010000000474974513 0.01060660183429718
v 0.007499999832361937 -0.0010000000474974513 0.012990380637347698
v 0.003882285673171282 -0.0010000000474974513 0.014488887041807175
v 9.184851187593606e-19 -0.0010000000474974513 0.014999999664723873
v -0.003882285673171282 -0.0010000000474974513 0.014488887041807175
v -0.007499999832361937 -0.0010000000474974513 0.012990380637347698
v -0.01060660183429718 -0.0010000000474974513 0.01060660183429718
v -0.012990380637347698 -0.0010000000474974513 0.007499999832361937
v -0.014488887041807175 -0.0010000000474974513 0.003882285673171282
v -0.014999999664723873 -0.0010000000474974513 1.836970237518721e-18
v -0.014488887041807175 -0.0010000000474974513 -0.003882285673171282
v -0.012990380637347698 -0.0010000000474974513 -0.007499999832361937
v -0.01060660183429718 -0.0010000000474974513 -0.01060660183429718
v -0.007499999832361937 -0.0010000000474974513 -0.012990380637347698
v -0.003882285673171282 -0.0010000000474974513 -0.014488887041807175
v -2.755455252880505e-18 -0.0010000000474974513 -0.014999999664723873
v 0.003882285673171282 -0.0010000000474974513 -0.014488887041807175
v 0.007499999832361937 -0.0010000000474974513 -0.012990380637347698
v 0.01060660183429718 -0.0010000000474974513 -0.01060660183429718
v 0.012990380637347698 -0.0010000000474974513 -0.007499999832361937
v 0.014488887041807175 -0.0010000000474974513 -0.003882285673171282
v 0.014000000432133675 -0.0010000000474974513 0
v 0.013522961176931858 -0.0010000000474974513 0.003623466705903411
v 0.012124355882406235 -0.0010000000474974513 0.007000000216066837
v 0.009899495169520378 -0.0010000000474974513 0.009899495169520378
v 0.007000000216066837 -0.0010000000474974513 0.012124355882406235
v 0.003623466705903411 -0.0010000000474974513 0.013522961176931858
v 8.57252763722393e-19 -0.0010000000474974513 0.014000000432133675
v -0.003623466705903411 -0.0010000000474974513 0.013522961176931858
v -0.007000000216066837 -0.0010000000474974513 0.012124355882406235
v -0.009899495169520378 -0.0010000000474974513 0.009899495169520378
v -0.012124355882406235 -0.0010000000474974513 0.007000000216066837
v -0.013522961176931858 -0.0010000000474974513 0.003623466705903411
v -0.014000000432133675 -0.0010000000474974513 1.714505527444786e-18
v -0.013522961176931858 -0.0010000000474974513 -0.003623466705903411
v -0.012124355882406235 -0.0010000000474974513 -0.007000000216066837
v -0.009899495169520378 -0.0010000000474974513 -0.009899495169520378
v -0.007000000216066837 -0.0010000000474974513 -0.012124355882406235
v -0.003623466705903411 -0.0010000000474974513 -0.013522961176931858
v -2.571758291167179e-18 -0.0010000000474974513 -0.014000000432133675
v 0.003623466705903411 -0.0010000000474974513 -0.013522961176931858
v 0.007000000216066837 -0.0010000000474974513 -0.012124355882406235
v 0.009899495169520378 -0.0010000000474974513 -0.009899495169520378
v 0.012124355882406235 -0.0010000000474974513 -0.007000000216066837
v 0.013522961176931858 -0.0010000000474974513 -0.003623466705903411
vn -0.9694223403930664 -0.24451281130313873 -0.020829372107982635
vn -0.9309989809989929 -0.24451303482055664 -0.2710244655609131
vn -0.8291296362876892 -0.24451307952404022 -0.5027498006820679
vn -0.6707565188407898 -0.24451297521591187 -0.700213611125946
vn -0.4666723608970642 -0.24451299011707306 -0.8499590158462524
vn -0.23078542947769165 -0.244513139128685 -0.9417809844017029
vn 0.020829373970627785 -0.24451285600662231 -0.9694222807884216
vn 0.2710244655609131 -0.24451303482055664 -0.9309989809989929
vn 0.5027498006820679 -0.24451307952404022 -0.8291296362876892
vn 0.700213611125946 -0.24451297521591187 -0.6707565188407898
vn 0.8499590158462524 -0.24451299011707306 -0.4666723608970642
vn 0.9417809844017029 -0.244513139128685 -0.23078542947769165
vn 0.9694222807884216 -0.24451285600662231 0.020829373970627785
vn 0.9309989809989929 -0.24451303482055664 0.2710244655609131
vn 0.8291296362876892 -0.24451307952404022 0.5027498006820679
vn 0.6707565188407898 -0.24451297521591187 0.700213611125946
vn 0.4666723608970642 -0.24451299011707306 0.8499590158462524
vn 0.23078542947769165 -0.244513139128685 0.9417809844017029
vn -0.020829373970627785 -0.24451285600662231 0.9694222807884216
vn -0.2710244655609131 -0.24451303482055664 0.9309989809989929
vn -0.5027498006820679 -0.24451307952404022 0.8291296362876892
vn -0.700213611125946 -0.24451297521591187 0.6707565188407898
vn -0.8499590158462524 -0.24451299011707306 0.4666723608970642
vn -0.9417809844017029 -0.244513139128685 0.23078542947769165
vn -0.08635517954826355 -0.9962575435638428 -0.0037015005946159363
vn -0.08245466649532318 -0.9962575435638428 -0.02592572011053562
vn -0.07293502986431122 -0.9962575435638428 -0.046383172273635864
vn -0.05844499543309212 -0.9962575435638428 -0.06367970257997513
vn -0.03997199982404709 -0.9962575435638428 -0.07663653790950775
vn -0.01877499558031559 -0.9962575435638428 -0.08437070995569229
vn 0.0037015005946159363 -0.9962575435638428 -0.08635517954826355
vn 0.02592572011053562 -0.9962575435638428 -0.08245466649532318
vn 0.046383172273635864 -0.9962575435638428 -0.07293502986431122
vn 0.06367970257997513 -0.9962575435638428 -0.05844499543309212
vn 0.07663653790950775 -0.9962575435638428 -0.03997199982404709
vn 0.08437070995569229 -0.9962575435638428 -0.01877499558031559
vn 0.08635517954826355 -0.9962575435638428 0.0037015005946159363
vn 0.08245466649532318 -0.9962575435638428 0.02592572011053562
vn 0.07293502986431122 -0.9962575435638428 0.046383172273635864
vn 0.05844499543309212 -0.9962575435638428 0.06367970257997513
vn 0.03997199982404709 -0.9962575435638428 0.07663653790950775
vn 0.01877499558031559 -0.9962575435638428 0.08437070995569229
vn -0.0037015005946159363 -0.9962575435638428 0.08635517954826355
vn -0.02592572011053562 -0.9962575435638428 0.08245466649532318
vn -0.046383172273635864 -0.9962575435638428 0.07293502986431122
vn -0.06367970257997513 -0.9962575435638428 0.05844499543309212
vn -0.07663653790950775 -0.9962575435638428 0.03997199982404709
vn -0.08437070995569229 -0.9962575435638428 0.01877499558031559
vn 0.1562386304140091 -0.9876942038536072 -0.007044236175715923
vn 0.15273810923099518 -0.9876942038536072 0.03363330662250519
vn 0.13882873952388763 -0.9876942038536072 0.07201883941888809
vn 0.11545844376087189 -0.9876942038536072 0.1054963693022728
vn 0.08421982079744339 -0.9876942038536072 0.13178448379039764
vn 0.047241758555173874 -0.9876942038536072 0.1490917056798935
vn 0.007044235710054636 -0.9876942038536072 0.1562386006116867
vn -0.03363330662250519 -0.9876942038536072 0.15273810923099518
vn -0.07201883941888809 -0.9876942038536072 0.13882873952388763
vn -0.1054963693022728 -0.9876942038536072 0.11545844376087189
vn -0.13178448379039764 -0.9876942038536072 0.08421982079744339
vn -0.1490917056798935 -0.9876942038536072 0.047241758555173874
vn -0.1562386006116867 -0.9876942038536072 0.007044235710054636
vn -0.15273810923099518 -0.9876942038536072 -0.03363330662250519
vn -0.13882873952388763 -0.9876942038536072 -0.07201883941888809
vn -0.11545844376087189 -0.9876942038536072 -0.1054963693022728
vn -0.08421982079744339 -0.9876942038536072 -0.13178448379039764
vn -0.047241758555173874 -0.9876942038536072 -0.1490917056798935
vn -0.007044235710054636 -0.9876942038536072 -0.1562386006116867
vn 0.03363330662250519 -0.9876942038536072 -0.15273810923099518
vn 0.07201883941888809 -0.9876942038536072 -0.13882873952388763
vn 0.1054963693022728 -0.9876942038536072 -0.11545844376087189
vn 0.13178448379039764 -0.9876942038536072 -0.08421982079744339
vn 0.1490917056798935 -0.9876942038536072 -0.047241758555173874
vn 0.988173246383667 -0.1503077894449234 -0.03035108931362629
vn 0.9623575210571289 -0.15030793845653534 0.22644101083278656
vn 0.8709586262702942 -0.15030789375305176 0.46780186891555786
vn 0.7202054858207703 -0.15030789375305176 0.6772825121879578
vn 0.5203715562820435 -0.15030787885189056 0.8406075239181519
vn 0.28507503867149353 -0.15030787885189056 0.9466465711593628
vn 0.03035108558833599 -0.1503077894449234 0.988173246383667
vn -0.22644101083278656 -0.15030793845653534 0.9623575210571289
vn -0.46780186891555786 -0.15030789375305176 0.8709586262702942
vn -0.6772825121879578 -0.15030789375305176 0.7202054858207703
vn -0.8406075239181519 -0.15030787885189056 0.5203715562820435
vn -0.9466465711593628 -0.15030787885189056 0.28507503867149353
vn -0.988173246383667 -0.1503077894449234 0.03035108558833599
vn -0.9623575210571289 -0.15030793845653534 -0.22644101083278656
vn -0.8709586262702942 -0.15030789375305176 -0.46780186891555786
vn -0.7202054858207703 -0.15030789375305176 -0.6772825121879578
vn -0.5203715562820435 -0.15030787885189056 -0.8406075239181519
vn -0.28507503867149353 -0.15030787885189056 -0.9466465711593628
vn -0.03035108558833599 -0.1503077894449234 -0.988173246383667
vn 0.22644101083278656 -0.15030793845653534 -0.9623575210571289
vn 0.46780186891555786 -0.15030789375305176 -0.8709586262702942
vn 0.6772825121879578 -0.15030789375305176 -0.7202054858207703
vn 0.8406075239181519 -0.15030787885189056 -0.5203715562820435
vn 0.9466465711593628 -0.15030787885189056 -0.28507503867149353
vn 0.988173246383667 0.1503077894449234 0.03035108931362629
vn 0.9466465711593628 0.15030784904956818 0.28507503867149353
vn 0.8406075239181519 0.15030789375305176 0.5203715562820435
vn 0.6772825121879578 0.15030789375305176 0.7202054858207703
vn 0.4678018391132355 0.15030787885189056 0.870958685874939
vn 0.22644101083278656 0.15030793845653534 0.9623575210571289
vn -0.03035108931362629 0.1503077894449234 0.988173246383667
vn -0.28507503867149353 0.15030784904956818 0.9466465711593628
vn -0.5203715562820435 0.15030789375305176 0.8406075239181519
vn -0.7202054858207703 0.15030789375305176 0.6772825121879578
vn -0.870958685874939 0.15030787885189056 0.4678018391132355
vn -0.9623575210571289 0.15030793845653534 0.22644101083278656
vn -0.988173246383667 0.1503077894449234 -0.03035108931362629
vn -0.9466465711593628 0.15030784904956818 -0.28507503867149353
vn -0.8406075239181519 0.15030789375305176 -0.5203715562820435
vn -0.6772825121879578 0.15030789375305176 -0.7202054858207703
vn -0.4678018391132355 0.15030787885189056 -0.870958685874939
vn -0.22644101083278656 0.15030793845653534 -0.9623575210571289
vn 0.03035108931362629 0.1503077894449234 -0.988173246383667
vn 0.28507503867149353 0.15030784904956818 -0.9466465711593628
vn 0.5203715562820435 0.15030789375305176 -0.8406075239181519
vn 0.7202054858207703 0.15030789375305176 -0.6772825121879578
vn 0.870958685874939 0.15030787885189056 -0.4678018391132355
vn 0.9623575210571289 0.15030793845653534 -0.22644101083278656
vn 0.1562386006116867 0.9876942038536072 0.007044235710054636
vn 0.1490917205810547 0.9876942038536072 0.047241758555173874
vn 0.13178448379039764 0.9876942038536072 0.08421982079744339
vn 0.1054963693022728 0.9876942038536072 0.11545844376087189
vn 0.0720188319683075 0.9876942038536072 0.13882873952388763
vn 0.03363330289721489 0.9876942038536072 0.15273809432983398
vn -0.007044235710054636 0.9876942038536072 0.1562386006116867
vn -0.047241758555173874 0.9876942038536072 0.1490917205810547
vn -0.08421982079744339 0.9876942038536072 0.13178448379039764
vn -0.11545844376087189 0.9876942038536072 0.1054963693022728
vn -0.13882873952388763 0.9876942038536072 0.0720188319683075
vn -0.15273809432983398 0.9876942038536072 0.03363330289721489
vn -0.1562386006116867 0.9876942038536072 -0.007044235710054636
vn -0.1490917205810547 0.9876942038536072 -0.047241758555173874
vn -0.13178448379039764 0.9876942038536072 -0.08421982079744339
vn -0.1054963693022728 0.9876942038536072 -0.11545844376087189
vn -0.0720188319683075 0.9876942038536072 -0.13882873952388763
vn -0.03363330289721489 0.9876942038536072 -0.15273809432983398
vn 0.007044235710054636 0.9876942038536072 -0.1562386006116867
vn 0.047241758555173874 0.9876942038536072 -0.1490917205810547
vn 0.08421982079744339 0.9876942038536072 -0.13178448379039764
vn 0.11545844376087189 0.9876942038536072 -0.1054963693022728
vn 0.13882873952388763 0.9876942038536072 -0.0720188319683075
vn 0.15273809432983398 0.9876942038536072 -0.03363330289721489
vn -0.08635517954826355 0.9962575435638428 0.0037015010602772236
vn -0.08437070995569229 0.9962575435638428 -0.01877499744296074
vn -0.07663653790950775 0.9962575435638428 -0.03997199982404709
vn -0.06367969512939453 0.9962575435638428 -0.05844499170780182
vn -0.04638317599892616 0.9962575435638428 -0.07293502986431122
vn -0.025925718247890472 0.9962575435638428 -0.08245466649532318
vn -0.0037015005946159363 0.9962575435638428 -0.08635517954826355
vn 0.01877499744296074 0.9962575435638428 -0.08437070995569229
vn 0.03997199982404709 0.9962575435638428 -0.07663653790950775
vn 0.05844499170780182 0.9962575435638428 -0.06367969512939453
vn 0.07293502986431122 0.9962575435638428 -0.04638317599892616
vn 0.08245466649532318 0.9962575435638428 -0.025925718247890472
vn 0.08635517954826355 0.9962575435638428 -0.0037015005946159363
vn 0.08437070995569229 0.9962575435638428 0.01877499744296074
vn 0.07663653790950775 0.9962575435638428 0.03997199982404709
vn 0.06367969512939453 0.9962575435638428 0.05844499170780182
vn 0.04638317599892616 0.9962575435638428 0.07293502986431122
vn 0.025925718247890472 0.9962575435638428 0.08245466649532318
vn 0.0037015005946159363 0.9962575435638428 0.08635517954826355
vn -0.01877499744296074 0.9962575435638428 0.08437070995569229
vn -0.03997199982404709 0.9962575435638428 0.07663653790950775
vn -0.05844499170780182 0.9962575435638428 0.06367969512939453
vn -0.07293502986431122 0.9962575435638428 0.04638317599892616
vn -0.08245466649532318 0.9962575435638428 0.025925718247890472
vn -0.9694222807884216 0.24451285600662231 0.020829373970627785
vn -0.9417809844017029 0.2445131540298462 -0.23078544437885284
vn -0.8499590158462524 0.24451301991939545 -0.4666723608970642
vn -0.700213611125946 0.24451297521591187 -0.6707565188407898
vn -0.5027498006820679 0.24451307952404022 -0.8291296362876892
vn -0.2710244655609131 0.24451303482055664 -0.9309989809989929
vn -0.020829373970627785 0.24451285600662231 -0.9694222807884216
vn 0.23078544437885284 0.2445131540298462 -0.9417809844017029
vn 0.4666723608970642 0.24451301991939545 -0.8499590158462524
vn 0.6707565188407898 0.24451297521591187 -0.700213611125946
vn 0.8291296362876892 0.24451307952404022 -0.5027498006820679
vn 0.9309989809989929 0.24451303482055664 -0.2710244655609131
vn 0.9694222807884216 0.24451285600662231 -0.020829373970627785
vn 0.9417809844017029 0.2445131540298462 0.23078544437885284
vn 0.8499590158462524 0.24451301991939545 0.4666723608970642
vn 0.700213611125946 0.24451297521591187 0.6707565188407898
vn 0.5027498006820679 0.24451307952404022 0.8291296362876892
vn 0.2710244655609131 0.24451303482055664 0.9309989809989929
vn 0.020829373970627785 0.24451285600662231 0.9694222807884216
vn -0.23078544437885284 0.2445131540298462 0.9417809844017029
vn -0.4666723608970642 0.24451301991939545 0.8499590158462524
vn -0.6707565188407898 0.24451297521591187 0.700213611125946
vn -0.8291296362876892 0.24451307952404022 0.5027498006820679
vn -0.9309989809989929 0.24451303482055664 0.2710244655609131
vn -0.8254079818725586 -0.5633734464645386 -0.03622240200638771
vn -0.7879077792167664 -0.5633735656738281 -0.24861934781074524
vn -0.6967131495475769 -0.5633734464645386 -0.4440734088420868
vn -0.5580385327339172 -0.5633735060691833 -0.6092645525932312
vn -0.38133442401885986 -0.5633733868598938 -0.7329354882240295
vn -0.17864325642585754 -0.5633735060691833 -0.8066578507423401
vn 0.03622240200638771 -0.5633734464645386 -0.8254079818725586
vn 0.24861934781074524 -0.5633735656738281 -0.7879077792167664
vn 0.4440734088420868 -0.5633734464645386 -0.6967131495475769
vn 0.6092645525932312 -0.5633735060691833 -0.5580385327339172
vn 0.7329354882240295 -0.5633733868598938 -0.38133442401885986
vn 0.8066578507423401 -0.5633735060691833 -0.17864325642585754
vn 0.8254079818725586 -0.5633734464645386 0.03622240200638771
vn 0.7879077792167664 -0.5633735656738281 0.24861934781074524
vn 0.6967131495475769 -0.5633734464645386 0.4440734088420868
vn 0.5580385327339172 -0.5633735060691833 0.6092645525932312
vn 0.38133442401885986 -0.5633733868598938 0.7329354882240295
vn 0.17864325642585754 -0.5633735060691833 0.8066578507423401
vn -0.03622240200638771 -0.5633734464645386 0.8254079818725586
vn -0.24861934781074524 -0.5633735656738281 0.7879077792167664
vn -0.4440734088420868 -0.5633734464645386 0.6967131495475769
vn -0.6092645525932312 -0.5633735060691833 0.5580385327339172
vn -0.7329354882240295 -0.5633733868598938 0.38133442401885986
vn -0.8066578507423401 -0.5633735060691833 0.17864325642585754
vn -0.8976870775222778 -0.43886899948120117 0.03939425200223923
vn -0.8772950768470764 -0.43886908888816833 -0.19428659975528717
vn -0.7971169352531433 -0.43886899948120117 -0.4147270917892456
vn -0.6626165509223938 -0.43886902928352356 -0.6069046854972839
vn -0.48295992612838745 -0.43886899948120117 -0.7577227354049683
vn -0.27039045095443726 -0.4388691186904907 -0.856903076171875
vn -0.03939425200223923 -0.43886899948120117 -0.8976870775222778
vn 0.19428659975528717 -0.43886908888816833 -0.8772950768470764
vn 0.4147270917892456 -0.43886899948120117 -0.7971169352531433
vn 0.6069046854972839 -0.43886902928352356 -0.6626165509223938
vn 0.7577227354049683 -0.43886899948120117 -0.48295992612838745
vn 0.856903076171875 -0.4388691186904907 -0.27039045095443726
vn 0.8976870775222778 -0.43886899948120117 -0.03939425200223923
vn 0.8772950768470764 -0.43886908888816833 0.19428659975528717
vn 0.7971169352531433 -0.43886899948120117 0.4147270917892456
vn 0.6626165509223938 -0.43886902928352356 0.6069046854972839
vn 0.48295992612838745 -0.43886899948120117 0.7577227354049683
vn 0.27039045095443726 -0.4388691186904907 0.856903076171875
vn 0.03939425200223923 -0.43886899948120117 0.8976870775222778
vn -0.19428659975528717 -0.43886908888816833 0.8772950768470764
vn -0.4147270917892456 -0.43886899948120117 0.7971169352531433
vn -0.6069046854972839 -0.43886902928352356 0.6626165509223938
vn -0.7577227354049683 -0.43886899948120117 0.48295992612838745
vn -0.856903076171875 -0.4388691186904907 0.27039045095443726
vn -0.8976870775222778 0.43886899948120117 -0.03939425200223923
vn -0.856903076171875 0.4388691186904907 -0.27039045095443726
vn -0.7577227354049683 0.43886899948120117 -0.48295989632606506
vn -0.6069046854972839 0.43886902928352356 -0.6626165509223938
vn -0.414727121591568 0.4388689696788788 -0.7971169352531433
vn -0.19428658485412598 0.43886908888816833 -0.8772950768470764
vn 0.03939425200223923 0.43886899948120117 -0.8976870775222778
vn 0.27039045095443726 0.4388691186904907 -0.856903076171875
vn 0.48295989632606506 0.43886899948120117 -0.7577227354049683
vn 0.6626165509223938 0.43886902928352356 -0.6069046854972839
vn 0.7971169352531433 0.4388689696788788 -0.414727121591568
vn 0.8772950768470764 0.43886908888816833 -0.19428658485412598
vn 0.8976870775222778 0.43886899948120117 0.03939425200223923
vn 0.856903076171875 0.4388691186904907 0.27039045095443726
vn 0.7577227354049683 0.43886899948120117 0.48295989632606506
vn 0.6069046854972839 0.43886902928352356 0.6626165509223938
vn 0.414727121591568 0.4388689696788788 0.7971169352531433
vn 0.19428658485412598 0.43886908888816833 0.8772950768470764
vn -0.03939425200223923 0.43886899948120117 0.8976870775222778
vn -0.27039045095443726 0.4388691186904907 0.856903076171875
vn -0.48295989632606506 0.43886899948120117 0.7577227354049683
vn -0.6626165509223938 0.43886902928352356 0.6069046854972839
vn -0.7971169352531433 0.4388689696788788 0.414727121591568
vn -0.8772950768470764 0.43886908888816833 0.19428658485412598
vn -0.8254079818725586 0.5633734464645386 0.03622240200638771
vn -0.8066578507423401 0.5633735060691833 -0.17864325642585754
vn -0.7329354882240295 0.5633734464645386 -0.38133442401885986
vn -0.609264612197876 0.5633735060691833 -0.5580384731292725
vn -0.4440734088420868 0.5633734464645386 -0.6967131495475769
vn -0.24861934781074524 0.5633735656738281 -0.7879077792167664
vn -0.03622240200638771 0.5633734464645386 -0.8254079818725586
vn 0.17864325642585754 0.5633735060691833 -0.8066578507423401
vn 0.38133442401885986 0.5633734464645386 -0.7329354882240295
vn 0.5580384731292725 0.5633735060691833 -0.609264612197876
vn 0.6967131495475769 0.5633734464645386 -0.4440734088420868
vn 0.7879077792167664 0.5633735656738281 -0.24861934781074524
vn 0.8254079818725586 0.5633734464645386 -0.03622240200638771
vn 0.8066578507423401 0.5633735060691833 0.17864325642585754
vn 0.7329354882240295 0.5633734464645386 0.38133442401885986
vn 0.609264612197876 0.5633735060691833 0.5580384731292725
vn 0.4440734088420868 0.5633734464645386 0.6967131495475769
vn 0.24861934781074524 0.5633735656738281 0.7879077792167664
vn 0.03622240200638771 0.5633734464645386 0.8254079818725586
vn -0.17864325642585754 0.5633735060691833 0.8066578507423401
vn -0.38133442401885986 0.5633734464645386 0.7329354882240295
vn -0.5580384731292725 0.5633735060691833 0.609264612197876
vn -0.6967131495475769 0.5633734464645386 0.4440734088420868
vn -0.7879077792167664 0.5633735656738281 0.24861934781074524
f 1//1 25//25 2//2
f 2//2 25//25 26//26
f 2//2 26//26 3//3
f 3//3 26//26 27//27
f 3//3 27//27 4//4
f 4//4 27//27 28//28
f 4//4 28//28 5//5
f 5//5 28//28 29//29
f 5//5 29//29 6//6
f 6//6 29//29 30//30
f 6//6 30//30 7//7
f 7//7 30//30 31//31
f 7//7 31//31 8//8
f 8//8 31//31 32//32
f 8//8 32//32 9//9
f 9//9 32//32 33//33
f 9//9 33//33 10//10
f 10//10 33//33 34//34
f 10//10 34//34 11//11
f 11//11 34//34 35//35
f 11//11 35//35 12//12
f 12//12 35//35 36//36
f 12//12 36//36 13//13
f 13//13 36//36 37//37
f 13//13 37//37 14//14
f 14//14 37//37 38//38
f 14//14 38//38 15//15
f 15//15 38//38 39//39
f 15//15 39//39 16//16
f 16//16 39//39 40//40
f 16//16 40//40 17//17
f 17//17 40//40 41//41
f 17//17 41//41 18//18
f 18//18 41//41 42//42
f 18//18 42//42 19//19
f 19//19 42//42 43//43
f 19//19 43//43 20//20
f 20//20 43//43 44//44
f 20//20 44//44 21//21
f 21//21 44//44 45//45
f 21//21 45//45 22//22
f 22//22 45//45 46//46
f 22//22 46//46 23//23
f 23//23 46//46 47//47
f 23//23 47//47 24//24
f 24//24 47//47 48//48
f 24//24 48//48 1//1
f 1//1 48//48 25//25
f 25//25 49//49 26//26
f 26//26 49//49 50//50
f 26//26 50//50 27//27
f 27//27 50//50 51//51
f 27//27 51//51 28//28
f 28//28 51//51 52//52
f 28//28 52//52 29//29
f 29//29 52//52 53//53
f 29//29 53//53 30//30
f 30//30 53//53 54//54
f 30//30 54//54 31//31
f 31//31 54//54 55//55
f 31//31 55//55 32//32
f 32//32 55//55 56//56
f 32//32 56//56 33//33
f 33//33 56//56 57//57
f 33//33 57//57 34//34
f 34//34 57//57 58//58
f 34//34 58//58 35//35
f 35//35 58//58 59//59
f 35//35 59//59 36//36
f 36//36 59//59 60//60
f 36//36 60//60 37//37
f 37//37 60//60 61//61
f 37//37 61//61 38//38
f 38//38 61//61 62//62
f 38//38 62//62 39//39
f 39//39 62//62 63//63
f 39//39 63//63 40//40
f 40//40 63//63 64//64
f 40//40 64//64 41//41
f 41//41 64//64 65//65
f 41//41 65//65 42//42
f 42//42 65//65 66//66
f 42//42 66//66 43//43
f 43//43 66//66 67//67
f 43//43 67//67 44//44
f 44//44 67//67 68//68
f 44//44 68//68 45//45
f 45//45 68//68 69//69
f 45//45 69//69 46//46
f 46//46 69//69 70//70
f 46//46 70//70 47//47
f 47//47 70//70 71//71
f 47//47 71//71 48//48
f 48//48 71//71 72//72
f 48//48 72//72 25//25
f 25//25 72//72 49//49
f 49//49 73//73 50//50
f 50//50 73//73 74//74
f 50//50 74//74 51//51
f 51//51 74//74 75//75
f 51//51 75//75 52//52
f 52//52 75//75 76//76
f 52//52 76//76 53//53
f 53//53 76//76 77//77
f 53//53 77//77 54//54
f 54//54 77//77 78//78
f 54//54 78//78 55//55
f 55//55 78//78 79//79
f 55//55 79//79 56//56
f 56//56 79//79 80//80
f 56//56 80//80 57//57
f 57//57 80//80 81//81
f 57//57 81//81 58//58
f 58//58 81//81 82//82
f 58//58 82//82 59//59
f 59//59 82//82 83//83
f 59//59 83//83 60//60
f 60//60 83//83 84//84
f 60//60 84//84 61//61
f 61//61 84//84 85//85
f 61//61 85//85 62//62
f 62//62 85//85 86//86
f 62//62 86//86 63//63
f 63//63 86//86 87//87
f 63//63 87//87 64//64
f 64//64 87//87 88//88
f 64//64 88//88 65//65
f 65//65 88//88 89//89
f 65//65 89//89 66//66
f 66//66 89//89 90//90
f 66//66 90//90 67//67
f 67//67 90//90 91//91
f 67//67 91//91 68//68
f 68//68 91//91 92//92
f 68//68 92//92 69//69
f 69//69 92//92 93//93
f 69//69 93//93 70//70
f 70//70 93//93 94//94
f 70//70 94//94 71//71
f 71//71 94//94 95//95
f 71//71 95//95 72//72
f 72//72 95//95 96//96
f 72//72 96//96 49//49
f 49//49 96//96 73//73
f 73//73 97//97 74//74
f 74//74 97//97 98//98
f 74//74 98//98 75//75
f 75//75 98//98 99//99
f 75//75 99//99 76//76
f 76//76 99//99 100//100
f 76//76 100//100 77//77
f 77//77 100//100 101//101
f 77//77 101//101 78//78
f 78//78 101//101 102//102
f 78//78 102//102 79//79
f 79//79 102//102 103//103
f 79//79 103//103 80//80
f 80//80 103//103 104//104
f 80//80 104//104 81//81
f 81//81 104//104 105//105
f 81//81 105//105 82//82
f 82//82 105//105 106//106
f 82//82 106//106 83//83
f 83//83 106//106 107//107
f 83//83 107//107 84//84
f 84//84 107//107 108//108
f 84//84 108//108 85//85
f 85//85 108//108 109//109
f 85//85 109//109 86//86
f 86//86 109//109 110//110
f 86//86 110//110 87//87
f 87//87 110//110 111//111
f 87//87 111//111 88//88
f 88//88 111//111 112//112
f 88//88 112//112 89//89
f 89//89 112//112 113//113
f 89//89 113//113 90//90
f 90//90 113//113 114//114
f 90//90 114//114 91//91
f 91//91 114//114 115//115
f 91//91 115//115 92//92
f 92//92 115//115 116//116
f 92//92 116//116 93//93
f 93//93 116//116 117//117
f 93//93 117//117 94//94
f 94//94 117//117 118//118
f 94//94 118//118 95//95
f 95//95 118//118 119//119
f 95//95 119//119 96//96
f 96//96 119//119 120//120
f 96//96 120//120 73//73
f 73//73 120//120 97//97
f 97//97 121//121 98//98
f 98//98 121//121 122//122
f 98//98 122//122 99//99
f 99//99 122//122 123//123
f 99//99 123//123 100//100
f 100//100 123//123 124//124
f 100//100 124//124 101//101
f 101//101 124//124 125//125
f 101//101 125//125 102//102
f 102//102 125//125 126//126
f 102//102 126//126 103//103
f 103//103 126//126 127//127
f 103//103 127//127 104//104
f 104//104 127//127 128//128
f 104//104 128//128 105//105
f 105//105 128//128 129//129
f 105//105 129//129 106//106
f 106//106 129//129 130//130
f 106//106 130//130 107//107
f 107//107 130//130 131//131
f 107//107 131//131 108//108
f 108//108 131//131 132//132
f 108//108 132//132 109//109
f 109//109 132//132 133//133
f 109//109 133//133 110//110
f 110//110 133//133 134//134
f 110//110 134//134 111//111
f 111//111 134//134 135//135
f 111//111 135//135 112//112
f 112//112 135//135 136//136
f 112//112 136//136 113//113
f 113//113 136//136 137//137
f 113//113 137//137 114//114
f 114//114 137//137 138//138
f 114//114 138//138 115//115
f 115//115 138//138 139//139
f 115//115 139//139 116//116
f 116//116 139//139 140//140
f 116//116 140//140 117//117
f 117//117 140//140 141//141
f 117//117 141//141 118//118
f 118//118 141//141 142//142
f 118//118 142//142 119//119
f 119//119 142//142 143//143
f 119//119 143//143 120//120
f 120//120 143//143 144//144
f 120//120 144//144 97//97
f 97//97 144//144 121//121
f 121//121 145//145 122//122
f 122//122 145//145 146//146
f 122//122 146//146 123//123
f 123//123 146//146 147//147
f 123//123 147//147 124//124
f 124//124 147//147 148//148
f 124//124 148//148 125//125
f 125//125 148//148 149//149
f 125//125 149//149 126//126
f 126//126 149//149 150//150
f 126//126 150//150 127//127
f 127//127 150//150 151//151
f 127//127 151//151 128//128
f 128//128 151//151 152//152
f 128//128 152//152 129//129
f 129//129 152//152 153//153
f 129//129 153//153 130//130
f 130//130 153//153 154//154
f 130//130 154//154 131//131
f 131//131 154//154 155//155
f 131//131 155//155 132//132
f 132//132 155//155 156//156
f 132//132 156//156 133//133
f 133//133 156//156 157//157
f 133//133 157//157 134//134
f 134//134 157//157 158//158
f 134//134 158//158 135//135
f 135//135 158//158 159//159
f 135//135 159//159 136//136
f 136//136 159//159 160//160
f 136//136 160//160 137//137
f 137//137 160//160 161//161
f 137//137 161//161 138//138
f 138//138 161//161 162//162
f 138//138 162//162 139//139
f 139//139 162//162 163//163
f 139//139 163//163 140//140
f 140//140 163//163 164//164
f 140//140 164//164 141//141
f 141//141 164//164 165//165
f 141//141 165//165 142//142
f 142//142 165//165 166//166
f 142//142 166//166 143//143
f 143//143 166//166 167//167
f 143//143 167//167 144//144
f 144//144 167//167 168//168
f 144//144 168//168 121//121
f 121//121 168//168 145//145
f 145//145 169//169 146//146
f 146//146 169//169 170//170
f 146//146 170//170 147//147
f 147//147 170//170 171//171
f 147//147 171//171 148//148
f 148//148 171//171 172//172
f 148//148 172//172 149//149
f 149//149 172//172 173//173
f 149//149 173//173 150//150
f 150//150 173//173 174//174
f 150//150 174//174 151//151
f 151//151 174//174 175//175
f 151//151 175//175 152//152
f 152//152 175//175 176//176
f 152//152 176//176 153//153
f 153//153 176//176 177//177
f 153//153 177//177 154//154
f 154//154 177//177 178//178
f 154//154 178//178 155//155
f 155//155 178//178 179//179
f 155//155 179//179 156//156
f 156//156 179//179 180//180
f 156//156 180//180 157//157
f 157//157 180//180 181//181
f 157//157 181//181 158//158
f 158//158 181//181 182//182
f 158//158 182//182 159//159
f 159//159 182//182 183//183
f 159//159 183//183 160//160
f 160//160 183//183 184//184
f 160//160 184//184 161//161
f 161//161 184//184 185//185
f 161//161 185//185 162//162
f 162//162 185//185 186//186
f 162//162 186//186 163//163
f 163//163 186//186 187//187
f 163//163 187//187 164//164
f 164//164 187//187 188//188
f 164//164 188//188 165//165
f 165//165 188//188 189//189
f 165//165 189//189 166//166
f 166//166 189//189 190//190
f 166//166 190//190 167//167
f 167//167 190//190 191//191
f 167//167 191//191 168//168
f 168//168 191//191 192//192
f 168//168 192//192 145//145
f 145//145 192//192 169//169
f 169//169 193//193 170//170
f 170//170 193//193 194//194
f 170//170 194//194 171//171
f 171//171 194//194 195//195
f 171//171 195//195 172//172
f 172//172 195//195 196//196
f 172//172 196//196 173//173
f 173//173 196//196 197//197
f 173//173 197//197 174//174
f 174//174 197//197 198//198
f 174//174 198//198 175//175
f 175//175 198//198 199//199
f 175//175 199//199 176//176
f 176//176 199//199 200//200
f 176//176 200//200 177//177
f 177//177 200//200 201//201
f 177//177 201//201 178//178
f 178//178 201//201 202//202
f 178//178 202//202 179//179
f 179//179 202//202 203//203
f 179//179 203//203 180//180
f 180//180 203//203 204//204
f 180//180 204//204 181//181
f 181//181 204//204 205//205
f 181//181 205//205 182//182
f 182//182 205//205 206//206
f 182//182 206//206 183//183
f 183//183 206//206 207//207
f 183//183 207//207 184//184
f 184//184 207//207 208//208
f 184//184 208//208 185//185
f 185//185 208//208 209//209
f 185//185 209//209 186//186
f 186//186 209//209 210//210
f 186//186 210//210 187//187
f 187//187 210//210 211//211
f 187//187 211//211 188//188
f 188//188 211//211 212//212
f 188//188 212//212 189//189
f 189//189 212//212 213//213
f 189//189 213//213 190//190
f 190//190 213//213 214//214
f 190//190 214//214 191//191
f 191//191 214//214 215//215
f 191//191 215//215 192//192
f 192//192 215//215 216//216
f 192//192 216//216 169//169
f 169//169 216//216 193//193
f 193//193 217//217 194//194
f 194//194 217//217 218//218
f 194//194 218//218 195//195
f 195//195 218//218 219//219
f 195//195 219//219 196//196
f 196//196 219//219 220//220
f 196//196 220//220 197//197
f 197//197 220//220 221//221
f 197//197 221//221 198//198
f 198//198 221//221 222//222
f 198//198 222//222 199//199
f 199//199 222//222 223//223
f 199//199 223//223 200//200
f 200//200 223//223 224//224
f 200//200 224//224 201//201
f 201//201 224//224 225//225
f 201//201 225//225 202//202
f 202//202 225//225 226//226
f 202//202 226//226 203//203
f 203//203 226//226 227//227
f 203//203 227//227 204//204
f 204//204 227//227 228//228
f 204//204 228//228 205//205
f 205//205 228//228 229//229
f 205//205 229//229 206//206
f 206//206 229//229 230//230
f 206//206 230//230 207//207
f 207//207 230//230 231//231
f 207//207 231//231 208//208
f 208//208 231//231 232//232
f 208//208 232//232 209//209
f 209//209 232//232 233//233
f 209//209 233//233 210//210
f 210//210 233//233 234//234
f 210//210 234//234 211//211
f 211//211 234//234 235//235
f 211//211 235//235 212//212
f 212//212 235//235 236//236
f 212//212 236//236 213//213
f 213//213 236//236 237//237
f 213//213 237//237 214//214
f 214//214 237//237 238//238
f 214//214 238//238 215//215
f 215//215 238//238 239//239
f 215//215 239//239 216//216
f 216//216 239//239 240//240
f 216//216 240//240 193//193
f 193//193 240//240 217//217
f 217//217 241//241 218//218
f 218//218 241//241 242//242
f 218//218 242//242 219//219
f 219//219 242//242 243//243
f 219//219 243//243 220//220
f 220//220 243//243 244//244
f 220//220 244//244 221//221
f 221//221 244//244 245//245
f 221//221 245//245 222//222
f 222//222 245//245 246//246
f 222//222 246//246 223//223
f 223//223 246//246 247//247
f 223//223 247//247 224//224
f 224//224 247//247 248//248
f 224//224 248//248 225//225
f 225//225 248//248 249//249
f 225//225 249//249 226//226
f 226//226 249//249 250//250
f 226//226 250//250 227//227
f 227//227 250//250 251//251
f 227//227 251//251 228//228
f 228//228 251//251 252//252
f 228//228 252//252 229//229
f 229//229 252//252 253//253
f 229//229 253//253 230//230
f 230//230 253//253 254//254
f 230//230 254//254 231//231
f 231//231 254//254 255//255
f 231//231 255//255 232//232
f 232//232 255//255 256//256
f 232//232 256//256 233//233
f 233//233 256//256 257//257
f 233//233 257//257 234//234
f 234//234 257//257 258//258
f 234//234 258//258 235//235
f 235//235 258//258 259//259
f 235//235 259//259 236//236
f 236//236 259//259 260//260
f 236//236 260//260 237//237
f 237//237 260//260 261//261
f 237//237 261//261 238//238
f 238//238 261//261 262//262
f 238//238 262//262 239//239
f 239//239 262//262 263//263
f 239//239 263//263 240//240
f 240//240 263//263 264//264
f 240//240 264//264 217//217
f 217//217 264//264 241//241
f 241//241 265//265 242//242
f 242//242 265//265 266//266
f 242//242 266//266 243//243
f 243//243 266//266 267//267
f 243//243 267//267 244//244
f 244//244 267//267 268//268
f 244//244 268//268 245//245
f 245//245 268//268 269//269
f 245//245 269//269 246//246
f 246//246 269//269 270//270
f 246//246 270//270 247//247
f 247//247 270//270 271//271
f 247//247 271//271 248//248
f 248//248 271//271 272//272
f 248//248 272//272 249//249
f 249//249 272//272 273//273
f 249//249 273//273 250//250
f 250//250 273//273 274//274
f 250//250 274//274 251//251
f 251//251 274//274 275//275
f 251//251 275//275 252//252
f 252//252 275//275 276//276
f 252//252 276//276 253//253
f 253//253 276//276 277//277
f 253//253 277//277 254//254
f 254//254 277//277 278//278
f 254//254 278//278 255//255
f 255//255 278//278 279//279
f 255//255 279//279 256//256
f 256//256 279//279 280//280
f 256//256 280//280 257//257
f 257//257 280//280 281//281
f 257//257 281//281 258//258
f 258//258 281//281 282//282
f 258//258 282//282 259//259
f 259//259 282//282 283//283
f 259//259 283//283 260//260
f 260//260 283//283 284//284
f 260//260 284//284 261//261
f 261//261 284//284 285//285
f 261//261 285//285 262//262
f 262//262 285//285 286//286
f 262//262 286//286 263//263
f 263//263 286//286 287//287
f 263//263 287//287 264//264
f 264//264 287//287 288//288
f 264//264 288//288 241//241
f 241//241 288//288 265//265
f 265//265 1//1 266//266
f 266//266 1//1 2//2
f 266//266 2//2 267//267
f 267//267 2//2 3//3
f 267//267 3//3 268//268
f 268//268 3//3 4//4
f 268//268 4//4 269//269
f 269//269 4//4 5//5
f 269//269 5//5 270//270
f 270//270 5//5 6//6
f 270//270 6//6 271//271
f 271//271 6//6 7//7
f 271//271 7//7 272//272
f 272//272 7//7 8//8
f 272//272 8//8 273//273
f 273//273 8//8 9//9
f 273//273 9//9 274//274
f 274//274 9//9 10//10
f 274//274 10//10 275//275
f 275//275 10//10 11//11
f 275//275 11//11 276//276
f 276//276 11//11 12//12
f 276//276 12//12 277//277
f 277//277 12//12 13//13
f 277//277 13//13 278//278
f 278//278 13//13 14//14
f 278//278 14//14 279//279
f 279//279 14//14 15//15
f 279//279 15//15 280//280
f 280//280 15//15 16//16
f 280//280 16//16 281//281
f 281//281 16//16 17//17
f 281//281 17//17 282//282
f 282//282 17//17 18//18
f 282//282 18//18 283//283
f 283//283 18//18 19//19
f 283//283 19//19 284//284
f 284//284 19//19 20//20
f 284//284 20//20 285//285
f 285//285 20//20 21//21
f 285//285 21//21 286//286
f 286//286 21//21 22//22
f 286//286 22//22 287//287
f 287//287 22//22 23//23
f 287//287 23//23 288//288
f 288//288 23//23 24//24
f 288//288 24//24 265//265
f 265//265 24//24 1//1
