# Real native mesh, metres. Development-only partial assembly; no image texture.
o S09
v -0.0154499998316 1.44700000262 0.00400000018999
v -0.0185708515346 1.44829000360 0.00390344741754
v -0.0180500000715 1.44700000262 0.00400000018999
v -0.0215367283672 1.44829000360 0.00390344741754
v -0.0180500000715 1.44700000262 0.00400000018999
v -0.0215367283672 1.44829000360 0.00390344741754
v -0.0182499997318 1.44700000262 0.00380000006407
v -0.0217367280275 1.44829000360 0.00370344752446
v -0.0217367280275 1.44829000360 0.00370344752446
v -0.0182499997318 1.44700000262 -0.00380000006407
v -0.0217367280275 1.44829000360 -0.00370344752446
v -0.0217367280275 1.44829000360 -0.00370344752446
v -0.0180500000715 1.44700000262 -0.00400000018999
v -0.0215367283672 1.44829000360 -0.00390344741754
v -0.0180500000715 1.44700000262 -0.00400000018999
v -0.0215367283672 1.44829000360 -0.00390344741754
v -0.0154499998316 1.44700000262 -0.00400000018999
v -0.0185708515346 1.44829000360 -0.00390344741754
v -0.0154499998316 1.44700000262 -0.00400000018999
v -0.0185708515346 1.44829000360 -0.00390344741754
v -0.0152500001714 1.44700000262 -0.00380000006407
v -0.0183708500117 1.44829000360 -0.00370344752446
v -0.0152500001714 1.44700000262 -0.00380000006407
v -0.0183708500117 1.44829000360 -0.00370344752446
v -0.0152500001714 1.44700000262 0.00380000006407
v -0.0183708500117 1.44829000360 0.00370344752446
v -0.0152500001714 1.44700000262 0.00380000006407
v -0.0183708500117 1.44829000360 0.00370344752446
v -0.0154499998316 1.44700000262 0.00400000018999
v -0.0185708515346 1.44829000360 0.00390344741754
v -0.0209386758506 1.45022500134 0.00346642616205
v -0.0251073427498 1.45022500134 0.00346642616205
v -0.0215367283672 1.44829000360 0.00390344741754
v -0.0251073427498 1.45022500134 0.00346642616205
v -0.0217367280275 1.44829000360 0.00370344752446
v -0.0253073424101 1.45022500134 0.00326642626897
v -0.0253073424101 1.45022500134 0.00326642626897
v -0.0253073424101 1.45022500134 -0.00326642626897
v -0.0217367280275 1.44829000360 -0.00370344752446
v -0.0253073424101 1.45022500134 -0.00326642626897
v -0.0215367283672 1.44829000360 -0.00390344741754
v -0.0251073427498 1.45022500134 -0.00346642616205
v -0.0251073427498 1.45022500134 -0.00346642616205
v -0.0209386758506 1.45022500134 -0.00346642616205
v -0.0185708515346 1.44829000360 -0.00390344741754
v -0.0209386758506 1.45022500134 -0.00346642616205
v -0.0183708500117 1.44829000360 -0.00370344752446
v -0.0207386743277 1.45022500134 -0.00326642626897
v -0.0207386743277 1.45022500134 -0.00326642626897
v -0.0207386743277 1.45022500134 0.00326642626897
v -0.0183708500117 1.44829000360 0.00370344752446
v -0.0207386743277 1.45022500134 0.00326642626897
v -0.0185708515346 1.44829000360 0.00390344741754
v -0.0209386758506 1.45022500134 0.00346642616205
v -0.0209386758506 1.45022500134 0.00346642616205
v -0.0235705245286 1.45345000005 0.00233156629838
v -0.0251073427498 1.45022500134 0.00346642616205
v -0.0302947014570 1.45345000005 0.00233156629838
v -0.0302947014570 1.45345000005 0.00233156629838
v -0.0304947011173 1.45345000005 0.00213156640530
v -0.0304947011173 1.45345000005 0.00213156640530
v -0.0304947011173 1.45345000005 -0.00213156640530
v -0.0304947011173 1.45345000005 -0.00213156640530
v -0.0302947014570 1.45345000005 -0.00233156629838
v -0.0251073427498 1.45022500134 -0.00346642616205
v -0.0302947014570 1.45345000005 -0.00233156629838
v -0.0209386758506 1.45022500134 -0.00346642616205
v -0.0235705245286 1.45345000005 -0.00233156629838
v -0.0209386758506 1.45022500134 -0.00346642616205
v -0.0235705245286 1.45345000005 -0.00233156629838
v -0.0207386743277 1.45022500134 -0.00326642626897
v -0.0233705230057 1.45345000005 -0.00213156640530
v -0.0233705230057 1.45345000005 -0.00213156640530
v -0.0233705230057 1.45345000005 0.00213156640530
v -0.0207386743277 1.45022500134 0.00326642626897
v -0.0233705230057 1.45345000005 0.00213156640530
v -0.0209386758506 1.45022500134 0.00346642616205
v -0.0235705245286 1.45345000005 0.00233156629838
v -0.0235705245286 1.45345000005 0.00233156629838
v -0.0267828293145 1.45774999833 0.00109087454621
v -0.0357829704881 1.45774999833 0.00109087454621
v -0.0357829704881 1.45774999833 0.00109087454621
v -0.0359829738736 1.45774999833 0.000890874594916
v -0.0359829738736 1.45774999833 0.000890874594916
v -0.0359829738736 1.45774999833 -0.000890874594916
v -0.0359829738736 1.45774999833 -0.000890874594916
v -0.0357829704881 1.45774999833 -0.00109087454621
v -0.0357829704881 1.45774999833 -0.00109087454621
v -0.0235705245286 1.45345000005 -0.00233156629838
v -0.0267828293145 1.45774999833 -0.00109087454621
v -0.0235705245286 1.45345000005 -0.00233156629838
v -0.0267828293145 1.45774999833 -0.00109087454621
v -0.0233705230057 1.45345000005 -0.00213156640530
v -0.0265828296542 1.45774999833 -0.000890874594916
v -0.0265828296542 1.45774999833 -0.000890874594916
v -0.0265828296542 1.45774999833 0.000890874594916
v -0.0233705230057 1.45345000005 0.00213156640530
v -0.0265828296542 1.45774999833 0.000890874594916
v -0.0235705245286 1.45345000005 0.00233156629838
v -0.0267828293145 1.45774999833 0.00109087454621
v -0.0267828293145 1.45774999833 0.00109087454621
v -0.0325697846711 1.46420000321 0.00100000004750
v -0.0357829704881 1.45774999833 0.00109087454621
v -0.0411380156875 1.46420000321 0.00100000004750
v -0.0411380156875 1.46420000321 0.00100000004750
v -0.0413380153477 1.46420000321 0.000799999979790
v -0.0413380153477 1.46420000321 0.000799999979790
v -0.0413380153477 1.46420000321 -0.000799999979790
v -0.0413380153477 1.46420000321 -0.000799999979790
v -0.0411380156875 1.46420000321 -0.00100000004750
v -0.0357829704881 1.45774999833 -0.00109087454621
v -0.0411380156875 1.46420000321 -0.00100000004750
v -0.0267828293145 1.45774999833 -0.00109087454621
v -0.0325697846711 1.46420000321 -0.00100000004750
v -0.0325697846711 1.46420000321 -0.00100000004750
v -0.0323697850108 1.46420000321 -0.000799999979790
v -0.0323697850108 1.46420000321 -0.000799999979790
v -0.0323697850108 1.46420000321 0.000799999979790
v -0.0323697850108 1.46420000321 0.000799999979790
v -0.0325697846711 1.46420000321 0.00100000004750
v -0.0391661487520 1.47279999977 0.00100000004750
v -0.0472448505461 1.47279999977 0.00100000004750
v -0.0472448505461 1.47279999977 0.00100000004750
v -0.0474448502064 1.47279999977 0.000799999979790
v -0.0474448502064 1.47279999977 0.000799999979790
v -0.0474448502064 1.47279999977 -0.000799999979790
v -0.0474448502064 1.47279999977 -0.000799999979790
v -0.0472448505461 1.47279999977 -0.00100000004750
v -0.0472448505461 1.47279999977 -0.00100000004750
v -0.0391661487520 1.47279999977 -0.00100000004750
v -0.0391661487520 1.47279999977 -0.00100000004750
v -0.0389661490917 1.47279999977 -0.000799999979790
v -0.0389661490917 1.47279999977 -0.000799999979790
v -0.0389661490917 1.47279999977 0.000799999979790
v -0.0389661490917 1.47279999977 0.000799999979790
v -0.0391661487520 1.47279999977 0.00100000004750
v -0.0473540686071 1.48570000207 0.00100000004750
v -0.0549583323300 1.48570000207 0.00100000004750
v -0.0549583323300 1.48570000207 0.00100000004750
v -0.0551583319902 1.48570000207 0.000799999979790
v -0.0551583319902 1.48570000207 0.000799999979790
v -0.0551583319902 1.48570000207 -0.000799999979790
v -0.0551583319902 1.48570000207 -0.000799999979790
v -0.0549583323300 1.48570000207 -0.00100000004750
v -0.0549583323300 1.48570000207 -0.00100000004750
v -0.0473540686071 1.48570000207 -0.00100000004750
v -0.0473540686071 1.48570000207 -0.00100000004750
v -0.0471540689468 1.48570000207 -0.000799999979790
v -0.0471540689468 1.48570000207 -0.000799999979790
v -0.0471540689468 1.48570000207 0.000799999979790
v -0.0471540689468 1.48570000207 0.000799999979790
v -0.0473540686071 1.48570000207 0.00100000004750
v -0.0549229197204 1.50074999979 0.00100000004750
v -0.0621352866292 1.50074999979 0.00100000004750
v -0.0621352866292 1.50074999979 0.00100000004750
v -0.0623352862895 1.50074999979 0.000799999979790
v -0.0623352862895 1.50074999979 0.000799999979790
v -0.0623352862895 1.50074999979 -0.000799999979790
v -0.0623352862895 1.50074999979 -0.000799999979790
v -0.0621352866292 1.50074999979 -0.00100000004750
v -0.0621352866292 1.50074999979 -0.00100000004750
v -0.0549229197204 1.50074999979 -0.00100000004750
v -0.0549229197204 1.50074999979 -0.00100000004750
v -0.0547229200602 1.50074999979 -0.000799999979790
v -0.0547229200602 1.50074999979 -0.000799999979790
v -0.0547229200602 1.50074999979 0.000799999979790
v -0.0547229200602 1.50074999979 0.000799999979790
v -0.0549229197204 1.50074999979 0.00100000004750
v -0.0612493902445 1.51795000038 0.00100000004750
v -0.0681378245354 1.51795000038 0.00100000004750
v -0.0681378245354 1.51795000038 0.00100000004750
v -0.0683378279209 1.51795000038 0.000799999979790
v -0.0683378279209 1.51795000038 0.000799999979790
v -0.0683378279209 1.51795000038 -0.000799999979790
v -0.0683378279209 1.51795000038 -0.000799999979790
v -0.0681378245354 1.51795000038 -0.00100000004750
v -0.0681378245354 1.51795000038 -0.00100000004750
v -0.0612493902445 1.51795000038 -0.00100000004750
v -0.0612493902445 1.51795000038 -0.00100000004750
v -0.0610493905842 1.51795000038 -0.000799999979790
v -0.0610493905842 1.51795000038 -0.000799999979790
v -0.0610493905842 1.51795000038 0.000799999979790
v -0.0610493905842 1.51795000038 0.000799999979790
v -0.0612493902445 1.51795000038 0.00100000004750
v -0.0654907673597 1.53730000010 0.00100000004750
v -0.0721559226513 1.53730000010 0.00100000004750
v -0.0721559226513 1.53730000010 0.00100000004750
v -0.0723559185863 1.53730000010 0.000799999979790
v -0.0723559185863 1.53730000010 0.000799999979790
v -0.0723559185863 1.53730000010 -0.000799999979790
v -0.0723559185863 1.53730000010 -0.000799999979790
v -0.0721559226513 1.53730000010 -0.00100000004750
v -0.0721559226513 1.53730000010 -0.00100000004750
v -0.0654907673597 1.53730000010 -0.00100000004750
v -0.0654907673597 1.53730000010 -0.00100000004750
v -0.0652907639742 1.53730000010 -0.000799999979790
v -0.0652907639742 1.53730000010 -0.000799999979790
v -0.0652907639742 1.53730000010 0.000799999979790
v -0.0652907639742 1.53730000010 0.000799999979790
v -0.0654907673597 1.53730000010 0.00100000004750
v -0.0666999965906 1.55449999999 0.00100000004750
v -0.0732999965549 1.55449999999 0.00100000004750
v -0.0721559226513 1.53730000010 0.00100000004750
v -0.0732999965549 1.55449999999 0.00100000004750
v -0.0723559185863 1.53730000010 0.000799999979790
v -0.0734999999404 1.55449999999 0.000799999979790
v -0.0723559185863 1.53730000010 0.000799999979790
v -0.0734999999404 1.55449999999 0.000799999979790
v -0.0723559185863 1.53730000010 -0.000799999979790
v -0.0734999999404 1.55449999999 -0.000799999979790
v -0.0723559185863 1.53730000010 -0.000799999979790
v -0.0734999999404 1.55449999999 -0.000799999979790
v -0.0721559226513 1.53730000010 -0.00100000004750
v -0.0732999965549 1.55449999999 -0.00100000004750
v -0.0732999965549 1.55449999999 -0.00100000004750
v -0.0666999965906 1.55449999999 -0.00100000004750
v -0.0654907673597 1.53730000010 -0.00100000004750
v -0.0666999965906 1.55449999999 -0.00100000004750
v -0.0652907639742 1.53730000010 -0.000799999979790
v -0.0665000006557 1.55449999999 -0.000799999979790
v -0.0652907639742 1.53730000010 -0.000799999979790
v -0.0665000006557 1.55449999999 -0.000799999979790
v -0.0652907639742 1.53730000010 0.000799999979790
v -0.0665000006557 1.55449999999 0.000799999979790
v -0.0652907639742 1.53730000010 0.000799999979790
v -0.0665000006557 1.55449999999 0.000799999979790
v -0.0654907673597 1.53730000010 0.00100000004750
v -0.0666999965906 1.55449999999 0.00100000004750
v -0.0654907673597 1.57169999941 0.00100000004750
v -0.0721559226513 1.57169999941 0.00100000004750
v -0.0732999965549 1.55449999999 0.00100000004750
v -0.0721559226513 1.57169999941 0.00100000004750
v -0.0734999999404 1.55449999999 0.000799999979790
v -0.0723559185863 1.57169999941 0.000799999979790
v -0.0734999999404 1.55449999999 0.000799999979790
v -0.0723559185863 1.57169999941 0.000799999979790
v -0.0734999999404 1.55449999999 -0.000799999979790
v -0.0723559185863 1.57169999941 -0.000799999979790
v -0.0734999999404 1.55449999999 -0.000799999979790
v -0.0723559185863 1.57169999941 -0.000799999979790
v -0.0732999965549 1.55449999999 -0.00100000004750
v -0.0721559226513 1.57169999941 -0.00100000004750
v -0.0721559226513 1.57169999941 -0.00100000004750
v -0.0654907673597 1.57169999941 -0.00100000004750
v -0.0666999965906 1.55449999999 -0.00100000004750
v -0.0654907673597 1.57169999941 -0.00100000004750
v -0.0665000006557 1.55449999999 -0.000799999979790
v -0.0652907639742 1.57169999941 -0.000799999979790
v -0.0665000006557 1.55449999999 -0.000799999979790
v -0.0652907639742 1.57169999941 -0.000799999979790
v -0.0665000006557 1.55449999999 0.000799999979790
v -0.0652907639742 1.57169999941 0.000799999979790
v -0.0665000006557 1.55449999999 0.000799999979790
v -0.0652907639742 1.57169999941 0.000799999979790
v -0.0666999965906 1.55449999999 0.00100000004750
v -0.0654907673597 1.57169999941 0.00100000004750
v -0.0612493902445 1.59105000100 0.00100000004750
v -0.0681378245354 1.59105000100 0.00100000004750
v -0.0721559226513 1.57169999941 0.00100000004750
v -0.0681378245354 1.59105000100 0.00100000004750
v -0.0723559185863 1.57169999941 0.000799999979790
v -0.0683378279209 1.59105000100 0.000799999979790
v -0.0723559185863 1.57169999941 0.000799999979790
v -0.0683378279209 1.59105000100 0.000799999979790
v -0.0723559185863 1.57169999941 -0.000799999979790
v -0.0683378279209 1.59105000100 -0.000799999979790
v -0.0723559185863 1.57169999941 -0.000799999979790
v -0.0683378279209 1.59105000100 -0.000799999979790
v -0.0721559226513 1.57169999941 -0.00100000004750
v -0.0681378245354 1.59105000100 -0.00100000004750
v -0.0681378245354 1.59105000100 -0.00100000004750
v -0.0612493902445 1.59105000100 -0.00100000004750
v -0.0654907673597 1.57169999941 -0.00100000004750
v -0.0612493902445 1.59105000100 -0.00100000004750
v -0.0652907639742 1.57169999941 -0.000799999979790
v -0.0610493905842 1.59105000100 -0.000799999979790
v -0.0652907639742 1.57169999941 -0.000799999979790
v -0.0610493905842 1.59105000100 -0.000799999979790
v -0.0652907639742 1.57169999941 0.000799999979790
v -0.0610493905842 1.59105000100 0.000799999979790
v -0.0652907639742 1.57169999941 0.000799999979790
v -0.0610493905842 1.59105000100 0.000799999979790
v -0.0654907673597 1.57169999941 0.00100000004750
v -0.0612493902445 1.59105000100 0.00100000004750
v -0.0549229197204 1.60825000158 0.00100000004750
v -0.0621352866292 1.60825000158 0.00100000004750
v -0.0621352866292 1.60825000158 0.00100000004750
v -0.0623352862895 1.60825000158 0.000799999979790
v -0.0623352862895 1.60825000158 0.000799999979790
v -0.0623352862895 1.60825000158 -0.000799999979790
v -0.0623352862895 1.60825000158 -0.000799999979790
v -0.0621352866292 1.60825000158 -0.00100000004750
v -0.0621352866292 1.60825000158 -0.00100000004750
v -0.0549229197204 1.60825000158 -0.00100000004750
v -0.0549229197204 1.60825000158 -0.00100000004750
v -0.0547229200602 1.60825000158 -0.000799999979790
v -0.0547229200602 1.60825000158 -0.000799999979790
v -0.0547229200602 1.60825000158 0.000799999979790
v -0.0547229200602 1.60825000158 0.000799999979790
v -0.0549229197204 1.60825000158 0.00100000004750
v -0.0473540686071 1.62329999930 0.00100000004750
v -0.0549583323300 1.62329999930 0.00100000004750
v -0.0549583323300 1.62329999930 0.00100000004750
v -0.0551583319902 1.62329999930 0.000799999979790
v -0.0551583319902 1.62329999930 0.000799999979790
v -0.0551583319902 1.62329999930 -0.000799999979790
v -0.0551583319902 1.62329999930 -0.000799999979790
v -0.0549583323300 1.62329999930 -0.00100000004750
v -0.0549583323300 1.62329999930 -0.00100000004750
v -0.0473540686071 1.62329999930 -0.00100000004750
v -0.0473540686071 1.62329999930 -0.00100000004750
v -0.0471540689468 1.62329999930 -0.000799999979790
v -0.0471540689468 1.62329999930 -0.000799999979790
v -0.0471540689468 1.62329999930 0.000799999979790
v -0.0471540689468 1.62329999930 0.000799999979790
v -0.0473540686071 1.62329999930 0.00100000004750
v -0.0391661487520 1.63620000160 0.00100000004750
v -0.0472448505461 1.63620000160 0.00100000004750
v -0.0472448505461 1.63620000160 0.00100000004750
v -0.0474448502064 1.63620000160 0.000799999979790
v -0.0474448502064 1.63620000160 0.000799999979790
v -0.0474448502064 1.63620000160 -0.000799999979790
v -0.0474448502064 1.63620000160 -0.000799999979790
v -0.0472448505461 1.63620000160 -0.00100000004750
v -0.0472448505461 1.63620000160 -0.00100000004750
v -0.0391661487520 1.63620000160 -0.00100000004750
v -0.0391661487520 1.63620000160 -0.00100000004750
v -0.0389661490917 1.63620000160 -0.000799999979790
v -0.0389661490917 1.63620000160 -0.000799999979790
v -0.0389661490917 1.63620000160 0.000799999979790
v -0.0389661490917 1.63620000160 0.000799999979790
v -0.0391661487520 1.63620000160 0.00100000004750
v -0.0325697846711 1.64479999816 0.00100000004750
v -0.0411380156875 1.64479999816 0.00100000004750
v -0.0411380156875 1.64479999816 0.00100000004750
v -0.0413380153477 1.64479999816 0.000799999979790
v -0.0413380153477 1.64479999816 0.000799999979790
v -0.0413380153477 1.64479999816 -0.000799999979790
v -0.0413380153477 1.64479999816 -0.000799999979790
v -0.0411380156875 1.64479999816 -0.00100000004750
v -0.0411380156875 1.64479999816 -0.00100000004750
v -0.0325697846711 1.64479999816 -0.00100000004750
v -0.0325697846711 1.64479999816 -0.00100000004750
v -0.0323697850108 1.64479999816 -0.000799999979790
v -0.0323697850108 1.64479999816 -0.000799999979790
v -0.0323697850108 1.64479999816 0.000799999979790
v -0.0323697850108 1.64479999816 0.000799999979790
v -0.0325697846711 1.64479999816 0.00100000004750
v -0.0267828293145 1.65125000304 0.00109087454621
v -0.0357829704881 1.65125000304 0.00109087454621
v -0.0357829704881 1.65125000304 0.00109087454621
v -0.0359829738736 1.65125000304 0.000890874594916
v -0.0359829738736 1.65125000304 0.000890874594916
v -0.0359829738736 1.65125000304 -0.000890874594916
v -0.0359829738736 1.65125000304 -0.000890874594916
v -0.0357829704881 1.65125000304 -0.00109087454621
v -0.0357829704881 1.65125000304 -0.00109087454621
v -0.0267828293145 1.65125000304 -0.00109087454621
v -0.0267828293145 1.65125000304 -0.00109087454621
v -0.0265828296542 1.65125000304 -0.000890874594916
v -0.0265828296542 1.65125000304 -0.000890874594916
v -0.0265828296542 1.65125000304 0.000890874594916
v -0.0265828296542 1.65125000304 0.000890874594916
v -0.0267828293145 1.65125000304 0.00109087454621
v -0.0267828293145 1.65125000304 0.00109087454621
v -0.0235705245286 1.65555000132 0.00233156629838
v -0.0302947014570 1.65555000132 0.00233156629838
v -0.0302947014570 1.65555000132 0.00233156629838
v -0.0304947011173 1.65555000132 0.00213156640530
v -0.0304947011173 1.65555000132 0.00213156640530
v -0.0304947011173 1.65555000132 -0.00213156640530
v -0.0304947011173 1.65555000132 -0.00213156640530
v -0.0302947014570 1.65555000132 -0.00233156629838
v -0.0302947014570 1.65555000132 -0.00233156629838
v -0.0267828293145 1.65125000304 -0.00109087454621
v -0.0235705245286 1.65555000132 -0.00233156629838
v -0.0235705245286 1.65555000132 -0.00233156629838
v -0.0233705230057 1.65555000132 -0.00213156640530
v -0.0233705230057 1.65555000132 -0.00213156640530
v -0.0233705230057 1.65555000132 0.00213156640530
v -0.0233705230057 1.65555000132 0.00213156640530
v -0.0235705245286 1.65555000132 0.00233156629838
v -0.0235705245286 1.65555000132 0.00233156629838
v -0.0209386758506 1.65877500004 0.00346642616205
v -0.0251073427498 1.65877500004 0.00346642616205
v -0.0251073427498 1.65877500004 0.00346642616205
v -0.0253073424101 1.65877500004 0.00326642626897
v -0.0253073424101 1.65877500004 0.00326642626897
v -0.0253073424101 1.65877500004 -0.00326642626897
v -0.0253073424101 1.65877500004 -0.00326642626897
v -0.0251073427498 1.65877500004 -0.00346642616205
v -0.0251073427498 1.65877500004 -0.00346642616205
v -0.0235705245286 1.65555000132 -0.00233156629838
v -0.0209386758506 1.65877500004 -0.00346642616205
v -0.0235705245286 1.65555000132 -0.00233156629838
v -0.0209386758506 1.65877500004 -0.00346642616205
v -0.0233705230057 1.65555000132 -0.00213156640530
v -0.0207386743277 1.65877500004 -0.00326642626897
v -0.0207386743277 1.65877500004 -0.00326642626897
v -0.0207386743277 1.65877500004 0.00326642626897
v -0.0233705230057 1.65555000132 0.00213156640530
v -0.0207386743277 1.65877500004 0.00326642626897
v -0.0235705245286 1.65555000132 0.00233156629838
v -0.0209386758506 1.65877500004 0.00346642616205
v -0.0209386758506 1.65877500004 0.00346642616205
v -0.0185708515346 1.66070999777 0.00390344741754
v -0.0251073427498 1.65877500004 0.00346642616205
v -0.0215367283672 1.66070999777 0.00390344741754
v -0.0215367283672 1.66070999777 0.00390344741754
v -0.0217367280275 1.66070999777 0.00370344752446
v -0.0217367280275 1.66070999777 0.00370344752446
v -0.0217367280275 1.66070999777 -0.00370344752446
v -0.0217367280275 1.66070999777 -0.00370344752446
v -0.0215367283672 1.66070999777 -0.00390344741754
v -0.0251073427498 1.65877500004 -0.00346642616205
v -0.0215367283672 1.66070999777 -0.00390344741754
v -0.0209386758506 1.65877500004 -0.00346642616205
v -0.0185708515346 1.66070999777 -0.00390344741754
v -0.0209386758506 1.65877500004 -0.00346642616205
v -0.0185708515346 1.66070999777 -0.00390344741754
v -0.0207386743277 1.65877500004 -0.00326642626897
v -0.0183708500117 1.66070999777 -0.00370344752446
v -0.0183708500117 1.66070999777 -0.00370344752446
v -0.0183708500117 1.66070999777 0.00370344752446
v -0.0207386743277 1.65877500004 0.00326642626897
v -0.0183708500117 1.66070999777 0.00370344752446
v -0.0209386758506 1.65877500004 0.00346642616205
v -0.0185708515346 1.66070999777 0.00390344741754
v -0.0154499998316 1.66199999875 0.00400000018999
v -0.0180500000715 1.66199999875 0.00400000018999
v -0.0215367283672 1.66070999777 0.00390344741754
v -0.0180500000715 1.66199999875 0.00400000018999
v -0.0217367280275 1.66070999777 0.00370344752446
v -0.0182499997318 1.66199999875 0.00380000006407
v -0.0182499997318 1.66199999875 -0.00380000006407
v -0.0217367280275 1.66070999777 -0.00370344752446
v -0.0215367283672 1.66070999777 -0.00390344741754
v -0.0180500000715 1.66199999875 -0.00400000018999
v -0.0180500000715 1.66199999875 -0.00400000018999
v -0.0154499998316 1.66199999875 -0.00400000018999
v -0.0185708515346 1.66070999777 -0.00390344741754
v -0.0154499998316 1.66199999875 -0.00400000018999
v -0.0183708500117 1.66070999777 -0.00370344752446
v -0.0152500001714 1.66199999875 -0.00380000006407
v -0.0152500001714 1.66199999875 -0.00380000006407
v -0.0152500001714 1.66199999875 0.00380000006407
v -0.0183708500117 1.66070999777 0.00370344752446
v -0.0152500001714 1.66199999875 0.00380000006407
v -0.0185708515346 1.66070999777 0.00390344741754
v -0.0154499998316 1.66199999875 0.00400000018999
v -0.0154499998316 1.44700000262 0.00400000018999
v -0.0154499998316 1.66199999875 0.00400000018999
v -0.0154499998316 1.44700000262 -0.00400000018999
v -0.0154499998316 1.66199999875 -0.00400000018999
v -0.0152500001714 1.44700000262 -0.00380000006407
v -0.0152500001714 1.66199999875 -0.00380000006407
v -0.0152500001714 1.44700000262 0.00380000006407
v -0.0152500001714 1.66199999875 0.00380000006407
vt 0 0
vt 0 0.006000000052154064
vt 0.125 0
vt 0.125 0.006000000052154064
vt 0.125 0
vt 0.125 0.006000000052154064
vt 0.25 0
vt 0.25 0.006000000052154064
vt 0.25 0.006000000052154064
vt 0.375 0
vt 0.375 0.006000000052154064
vt 0.375 0.006000000052154064
vt 0.5 0
vt 0.5 0.006000000052154064
vt 0.5 0
vt 0.5 0.006000000052154064
vt 0.625 0
vt 0.625 0.006000000052154064
vt 0.625 0
vt 0.625 0.006000000052154064
vt 0.75 0
vt 0.75 0.006000000052154064
vt 0.75 0
vt 0.75 0.006000000052154064
vt 0.875 0
vt 0.875 0.006000000052154064
vt 0.875 0
vt 0.875 0.006000000052154064
vt 0 0
vt 0 0.006000000052154064
vt 0 0.014999999664723873
vt 0.125 0.014999999664723873
vt 0.125 0.006000000052154064
vt 0.125 0.014999999664723873
vt 0.25 0.006000000052154064
vt 0.25 0.014999999664723873
vt 0.25 0.014999999664723873
vt 0.375 0.014999999664723873
vt 0.375 0.006000000052154064
vt 0.375 0.014999999664723873
vt 0.5 0.006000000052154064
vt 0.5 0.014999999664723873
vt 0.5 0.014999999664723873
vt 0.625 0.014999999664723873
vt 0.625 0.006000000052154064
vt 0.625 0.014999999664723873
vt 0.75 0.006000000052154064
vt 0.75 0.014999999664723873
vt 0.75 0.014999999664723873
vt 0.875 0.014999999664723873
vt 0.875 0.006000000052154064
vt 0.875 0.014999999664723873
vt 0 0.006000000052154064
vt 0 0.014999999664723873
vt 0 0.014999999664723873
vt 0 0.029999999329447746
vt 0.125 0.014999999664723873
vt 0.125 0.029999999329447746
vt 0.125 0.029999999329447746
vt 0.25 0.029999999329447746
vt 0.25 0.029999999329447746
vt 0.375 0.029999999329447746
vt 0.375 0.029999999329447746
vt 0.5 0.029999999329447746
vt 0.5 0.014999999664723873
vt 0.5 0.029999999329447746
vt 0.625 0.014999999664723873
vt 0.625 0.029999999329447746
vt 0.625 0.014999999664723873
vt 0.625 0.029999999329447746
vt 0.75 0.014999999664723873
vt 0.75 0.029999999329447746
vt 0.75 0.029999999329447746
vt 0.875 0.029999999329447746
vt 0.875 0.014999999664723873
vt 0.875 0.029999999329447746
vt 0 0.014999999664723873
vt 0 0.029999999329447746
vt 0 0.029999999329447746
vt 0 0.05000000074505806
vt 0.125 0.05000000074505806
vt 0.125 0.05000000074505806
vt 0.25 0.05000000074505806
vt 0.25 0.05000000074505806
vt 0.375 0.05000000074505806
vt 0.375 0.05000000074505806
vt 0.5 0.05000000074505806
vt 0.5 0.05000000074505806
vt 0.625 0.029999999329447746
vt 0.625 0.05000000074505806
vt 0.625 0.029999999329447746
vt 0.625 0.05000000074505806
vt 0.75 0.029999999329447746
vt 0.75 0.05000000074505806
vt 0.75 0.05000000074505806
vt 0.875 0.05000000074505806
vt 0.875 0.029999999329447746
vt 0.875 0.05000000074505806
vt 0 0.029999999329447746
vt 0 0.05000000074505806
vt 0 0.05000000074505806
vt 0 0.07999999821186066
vt 0.125 0.05000000074505806
vt 0.125 0.07999999821186066
vt 0.125 0.07999999821186066
vt 0.25 0.07999999821186066
vt 0.25 0.07999999821186066
vt 0.375 0.07999999821186066
vt 0.375 0.07999999821186066
vt 0.5 0.07999999821186066
vt 0.5 0.05000000074505806
vt 0.5 0.07999999821186066
vt 0.625 0.05000000074505806
vt 0.625 0.07999999821186066
vt 0.625 0.07999999821186066
vt 0.75 0.07999999821186066
vt 0.75 0.07999999821186066
vt 0.875 0.07999999821186066
vt 0.875 0.07999999821186066
vt 0 0.07999999821186066
vt 0 0.11999999731779099
vt 0.125 0.11999999731779099
vt 0.125 0.11999999731779099
vt 0.25 0.11999999731779099
vt 0.25 0.11999999731779099
vt 0.375 0.11999999731779099
vt 0.375 0.11999999731779099
vt 0.5 0.11999999731779099
vt 0.5 0.11999999731779099
vt 0.625 0.11999999731779099
vt 0.625 0.11999999731779099
vt 0.75 0.11999999731779099
vt 0.75 0.11999999731779099
vt 0.875 0.11999999731779099
vt 0.875 0.11999999731779099
vt 0 0.11999999731779099
vt 0 0.18000000715255737
vt 0.125 0.18000000715255737
vt 0.125 0.18000000715255737
vt 0.25 0.18000000715255737
vt 0.25 0.18000000715255737
vt 0.375 0.18000000715255737
vt 0.375 0.18000000715255737
vt 0.5 0.18000000715255737
vt 0.5 0.18000000715255737
vt 0.625 0.18000000715255737
vt 0.625 0.18000000715255737
vt 0.75 0.18000000715255737
vt 0.75 0.18000000715255737
vt 0.875 0.18000000715255737
vt 0.875 0.18000000715255737
vt 0 0.18000000715255737
vt 0 0.25
vt 0.125 0.25
vt 0.125 0.25
vt 0.25 0.25
vt 0.25 0.25
vt 0.375 0.25
vt 0.375 0.25
vt 0.5 0.25
vt 0.5 0.25
vt 0.625 0.25
vt 0.625 0.25
vt 0.75 0.25
vt 0.75 0.25
vt 0.875 0.25
vt 0.875 0.25
vt 0 0.25
vt 0 0.33000001311302185
vt 0.125 0.33000001311302185
vt 0.125 0.33000001311302185
vt 0.25 0.33000001311302185
vt 0.25 0.33000001311302185
vt 0.375 0.33000001311302185
vt 0.375 0.33000001311302185
vt 0.5 0.33000001311302185
vt 0.5 0.33000001311302185
vt 0.625 0.33000001311302185
vt 0.625 0.33000001311302185
vt 0.75 0.33000001311302185
vt 0.75 0.33000001311302185
vt 0.875 0.33000001311302185
vt 0.875 0.33000001311302185
vt 0 0.33000001311302185
vt 0 0.41999998688697815
vt 0.125 0.41999998688697815
vt 0.125 0.41999998688697815
vt 0.25 0.41999998688697815
vt 0.25 0.41999998688697815
vt 0.375 0.41999998688697815
vt 0.375 0.41999998688697815
vt 0.5 0.41999998688697815
vt 0.5 0.41999998688697815
vt 0.625 0.41999998688697815
vt 0.625 0.41999998688697815
vt 0.75 0.41999998688697815
vt 0.75 0.41999998688697815
vt 0.875 0.41999998688697815
vt 0.875 0.41999998688697815
vt 0 0.41999998688697815
vt 0 0.5
vt 0.125 0.5
vt 0.125 0.41999998688697815
vt 0.125 0.5
vt 0.25 0.41999998688697815
vt 0.25 0.5
vt 0.25 0.41999998688697815
vt 0.25 0.5
vt 0.375 0.41999998688697815
vt 0.375 0.5
vt 0.375 0.41999998688697815
vt 0.375 0.5
vt 0.5 0.41999998688697815
vt 0.5 0.5
vt 0.5 0.5
vt 0.625 0.5
vt 0.625 0.41999998688697815
vt 0.625 0.5
vt 0.75 0.41999998688697815
vt 0.75 0.5
vt 0.75 0.41999998688697815
vt 0.75 0.5
vt 0.875 0.41999998688697815
vt 0.875 0.5
vt 0.875 0.41999998688697815
vt 0.875 0.5
vt 0 0.41999998688697815
vt 0 0.5
vt 0 0.5799999833106995
vt 0.125 0.5799999833106995
vt 0.125 0.5
vt 0.125 0.5799999833106995
vt 0.25 0.5
vt 0.25 0.5799999833106995
vt 0.25 0.5
vt 0.25 0.5799999833106995
vt 0.375 0.5
vt 0.375 0.5799999833106995
vt 0.375 0.5
vt 0.375 0.5799999833106995
vt 0.5 0.5
vt 0.5 0.5799999833106995
vt 0.5 0.5799999833106995
vt 0.625 0.5799999833106995
vt 0.625 0.5
vt 0.625 0.5799999833106995
vt 0.75 0.5
vt 0.75 0.5799999833106995
vt 0.75 0.5
vt 0.75 0.5799999833106995
vt 0.875 0.5
vt 0.875 0.5799999833106995
vt 0.875 0.5
vt 0.875 0.5799999833106995
vt 0 0.5
vt 0 0.5799999833106995
vt 0 0.6700000166893005
vt 0.125 0.6700000166893005
vt 0.125 0.5799999833106995
vt 0.125 0.6700000166893005
vt 0.25 0.5799999833106995
vt 0.25 0.6700000166893005
vt 0.25 0.5799999833106995
vt 0.25 0.6700000166893005
vt 0.375 0.5799999833106995
vt 0.375 0.6700000166893005
vt 0.375 0.5799999833106995
vt 0.375 0.6700000166893005
vt 0.5 0.5799999833106995
vt 0.5 0.6700000166893005
vt 0.5 0.6700000166893005
vt 0.625 0.6700000166893005
vt 0.625 0.5799999833106995
vt 0.625 0.6700000166893005
vt 0.75 0.5799999833106995
vt 0.75 0.6700000166893005
vt 0.75 0.5799999833106995
vt 0.75 0.6700000166893005
vt 0.875 0.5799999833106995
vt 0.875 0.6700000166893005
vt 0.875 0.5799999833106995
vt 0.875 0.6700000166893005
vt 0 0.5799999833106995
vt 0 0.6700000166893005
vt 0 0.75
vt 0.125 0.75
vt 0.125 0.75
vt 0.25 0.75
vt 0.25 0.75
vt 0.375 0.75
vt 0.375 0.75
vt 0.5 0.75
vt 0.5 0.75
vt 0.625 0.75
vt 0.625 0.75
vt 0.75 0.75
vt 0.75 0.75
vt 0.875 0.75
vt 0.875 0.75
vt 0 0.75
vt 0 0.8199999928474426
vt 0.125 0.8199999928474426
vt 0.125 0.8199999928474426
vt 0.25 0.8199999928474426
vt 0.25 0.8199999928474426
vt 0.375 0.8199999928474426
vt 0.375 0.8199999928474426
vt 0.5 0.8199999928474426
vt 0.5 0.8199999928474426
vt 0.625 0.8199999928474426
vt 0.625 0.8199999928474426
vt 0.75 0.8199999928474426
vt 0.75 0.8199999928474426
vt 0.875 0.8199999928474426
vt 0.875 0.8199999928474426
vt 0 0.8199999928474426
vt 0 0.8799999952316284
vt 0.125 0.8799999952316284
vt 0.125 0.8799999952316284
vt 0.25 0.8799999952316284
vt 0.25 0.8799999952316284
vt 0.375 0.8799999952316284
vt 0.375 0.8799999952316284
vt 0.5 0.8799999952316284
vt 0.5 0.8799999952316284
vt 0.625 0.8799999952316284
vt 0.625 0.8799999952316284
vt 0.75 0.8799999952316284
vt 0.75 0.8799999952316284
vt 0.875 0.8799999952316284
vt 0.875 0.8799999952316284
vt 0 0.8799999952316284
vt 0 0.9200000166893005
vt 0.125 0.9200000166893005
vt 0.125 0.9200000166893005
vt 0.25 0.9200000166893005
vt 0.25 0.9200000166893005
vt 0.375 0.9200000166893005
vt 0.375 0.9200000166893005
vt 0.5 0.9200000166893005
vt 0.5 0.9200000166893005
vt 0.625 0.9200000166893005
vt 0.625 0.9200000166893005
vt 0.75 0.9200000166893005
vt 0.75 0.9200000166893005
vt 0.875 0.9200000166893005
vt 0.875 0.9200000166893005
vt 0 0.9200000166893005
vt 0 0.949999988079071
vt 0.125 0.949999988079071
vt 0.125 0.949999988079071
vt 0.25 0.949999988079071
vt 0.25 0.949999988079071
vt 0.375 0.949999988079071
vt 0.375 0.949999988079071
vt 0.5 0.949999988079071
vt 0.5 0.949999988079071
vt 0.625 0.949999988079071
vt 0.625 0.949999988079071
vt 0.75 0.949999988079071
vt 0.75 0.949999988079071
vt 0.875 0.949999988079071
vt 0.875 0.949999988079071
vt 0 0.949999988079071
vt 0 0.949999988079071
vt 0 0.9700000286102295
vt 0.125 0.9700000286102295
vt 0.125 0.9700000286102295
vt 0.25 0.9700000286102295
vt 0.25 0.9700000286102295
vt 0.375 0.9700000286102295
vt 0.375 0.9700000286102295
vt 0.5 0.9700000286102295
vt 0.5 0.9700000286102295
vt 0.625 0.949999988079071
vt 0.625 0.9700000286102295
vt 0.625 0.9700000286102295
vt 0.75 0.9700000286102295
vt 0.75 0.9700000286102295
vt 0.875 0.9700000286102295
vt 0.875 0.9700000286102295
vt 0 0.9700000286102295
vt 0 0.9700000286102295
vt 0 0.9850000143051147
vt 0.125 0.9850000143051147
vt 0.125 0.9850000143051147
vt 0.25 0.9850000143051147
vt 0.25 0.9850000143051147
vt 0.375 0.9850000143051147
vt 0.375 0.9850000143051147
vt 0.5 0.9850000143051147
vt 0.5 0.9850000143051147
vt 0.625 0.9700000286102295
vt 0.625 0.9850000143051147
vt 0.625 0.9700000286102295
vt 0.625 0.9850000143051147
vt 0.75 0.9700000286102295
vt 0.75 0.9850000143051147
vt 0.75 0.9850000143051147
vt 0.875 0.9850000143051147
vt 0.875 0.9700000286102295
vt 0.875 0.9850000143051147
vt 0 0.9700000286102295
vt 0 0.9850000143051147
vt 0 0.9850000143051147
vt 0 0.9940000176429749
vt 0.125 0.9850000143051147
vt 0.125 0.9940000176429749
vt 0.125 0.9940000176429749
vt 0.25 0.9940000176429749
vt 0.25 0.9940000176429749
vt 0.375 0.9940000176429749
vt 0.375 0.9940000176429749
vt 0.5 0.9940000176429749
vt 0.5 0.9850000143051147
vt 0.5 0.9940000176429749
vt 0.625 0.9850000143051147
vt 0.625 0.9940000176429749
vt 0.625 0.9850000143051147
vt 0.625 0.9940000176429749
vt 0.75 0.9850000143051147
vt 0.75 0.9940000176429749
vt 0.75 0.9940000176429749
vt 0.875 0.9940000176429749
vt 0.875 0.9850000143051147
vt 0.875 0.9940000176429749
vt 0 0.9850000143051147
vt 0 0.9940000176429749
vt 0 1
vt 0.125 1
vt 0.125 0.9940000176429749
vt 0.125 1
vt 0.25 0.9940000176429749
vt 0.25 1
vt 0.375 1
vt 0.375 0.9940000176429749
vt 0.5 0.9940000176429749
vt 0.5 1
vt 0.5 1
vt 0.625 1
vt 0.625 0.9940000176429749
vt 0.625 1
vt 0.75 0.9940000176429749
vt 0.75 1
vt 0.75 1
vt 0.875 1
vt 0.875 0.9940000176429749
vt 0.875 1
vt 0 0.9940000176429749
vt 0 1
vt 0 0
vt 0 1
vt 0.625 0
vt 0.625 1
vt 0.75 0
vt 0.75 1
vt 0.875 0
vt 0.875 1
vn -1.21862272338e-16 0.0990649557124 0.995080968841
vn -1.21862272338e-16 0.0990649557124 0.995080968841
vn -1.21862272338e-16 0.0990649557124 0.995080968841
vn -1.18246064445e-16 0.260208726169 0.965552390513
vn -0.116134236701 -0.993233526954 6.79156012111e-10
vn -0.460923365016 -0.871017976088 0.169933330792
vn -0.116134236701 -0.993233526954 6.79156012111e-10
vn -0.460923365016 -0.871017976088 0.169933330792
vn -0.489482364660 -0.872013196395 -5.37622885925e-10
vn -0.116134236701 -0.993233526954 6.79156012111e-10
vn -0.489482364660 -0.872013196395 -5.37622885925e-10
vn -0.460923365016 -0.871017976088 -0.169933330792
vn -0.116134236701 -0.993233526954 6.79156012111e-10
vn -0.460923365016 -0.871017976088 -0.169933330792
vn 1.21527298396e-16 0.123490945537 -0.992345699023
vn 1.18772026588e-16 0.243713794891 -0.969847197336
vn 1.21527298396e-16 0.123490945537 -0.992345699023
vn 1.21527298396e-16 0.123490945537 -0.992345699023
vn 0.433212049587 0.898937420200 -0.0651063334641
vn 0.433212049587 0.898937420200 -0.0651063334641
vn 0.433212049587 0.898937420200 -0.0651063334641
vn 0.433212049587 0.898937420200 -0.0651063334641
vn 0.448410008737 0.893827983487 -1.51234631126e-13
vn 0.448410008737 0.893827983487 -1.51234631126e-13
vn 0.448410008737 0.893827983487 -1.51234631126e-13
vn 0.448410008737 0.893827983487 -1.51234631126e-13
vn 0.433212049587 0.898937420200 0.0651063334641
vn 0.433212049587 0.898937420200 0.0651063334641
vn 0.433212049587 0.898937420200 0.0651063334641
vn 0.433212049587 0.898937420200 0.0651063334641
vn -1.18246064445e-16 0.260208726169 0.965552390513
vn -1.18246064445e-16 0.260208726169 0.965552390513
vn -0.468144662752 -0.852686657305 0.231875050815
vn -0.468144662752 -0.852686657305 0.231875050815
vn -0.468144662752 -0.852686657305 0.231875050815
vn -0.468144662752 -0.852686657305 0.231875050815
vn -0.489482364660 -0.872013196395 -5.37622885925e-10
vn -0.489482364660 -0.872013196395 -5.37622885925e-10
vn -0.468144662752 -0.852686657305 -0.231875050815
vn -0.468144662752 -0.852686657305 -0.231875050815
vn -0.468144662752 -0.852686657305 -0.231875050815
vn -0.468144662752 -0.852686657305 -0.231875050815
vn 1.18772026588e-16 0.243713794891 -0.969847197336
vn 1.18772026588e-16 0.243713794891 -0.969847197336
vn 0.444477191426 0.872111958326 -0.204599018685
vn 0.673132058036 0.683526869606 -0.282283989930
vn 0.444477191426 0.872111958326 -0.204599018685
vn 0.673132058036 0.683526869606 -0.282283989930
vn 0.683071590567 0.730351423740 -2.68185589760e-9
vn 0.683071590567 0.730351423740 -2.68185589760e-9
vn 0.444477191426 0.872111958326 0.204599018685
vn 0.673132063699 0.683526875356 0.282283962503
vn 0.444477191426 0.872111958326 0.204599018685
vn 0.673132063699 0.683526875356 0.282283962503
vn 0.257646716138 0.450179170925 0.854960164995
vn 0.257646716138 0.450179170925 0.854960164995
vn 0.257646716138 0.450179170925 0.854960164995
vn -1.16993019926e-16 0.295571872328 0.955320505531
vn -0.590447715055 -0.753000903815 0.290449883180
vn -0.590447715055 -0.753000903815 0.290449883180
vn -0.633064864331 -0.774098751807 1.03026306428e-8
vn -0.633064864331 -0.774098751807 1.03026306428e-8
vn -0.590447720166 -0.753000910333 -0.290449855892
vn -0.590447720166 -0.753000910333 -0.290449855892
vn 0.258389885301 0.441086462729 -0.859463437018
vn 1.16278153730e-16 0.313817926183 -0.949483180054
vn 0.258389885301 0.441086462729 -0.859463437018
vn 0.258389885301 0.441086462729 -0.859463437018
vn 0.613766659102 0.676113414430 -0.407628677847
vn 0.613766659102 0.676113414430 -0.407628677847
vn 0.613766659102 0.676113414430 -0.407628677847
vn 0.613766659102 0.676113414430 -0.407628677847
vn 0.683071590567 0.730351423740 -2.68185589760e-9
vn 0.683071590567 0.730351423740 -2.68185589760e-9
vn 0.598952349108 0.672692413726 0.434443321981
vn 0.598952349108 0.672692413726 0.434443321981
vn 0.598952349108 0.672692413726 0.434443321981
vn 0.598952349108 0.672692413726 0.434443321981
vn 0.120210476665 0.343140066941 0.931560162179
vn 0.420378644148 0.477065729479 0.771809617264
vn 0.337088290885 0.313150230794 0.887867342063
vn -0.681547763520 -0.660440685843 0.315136076202
vn -0.681547763520 -0.660440685843 0.315136076202
vn -0.726055630310 -0.687635965970 -1.77016058038e-8
vn -0.726055630310 -0.687635965970 -1.77016058038e-8
vn -0.681547822268 -0.660440625407 -0.315136075806
vn -0.681547822268 -0.660440625407 -0.315136075806
vn 0.335655204629 0.334734759923 -0.880504528157
vn 0.120470512755 0.329777737459 -0.936340482641
vn 0.425062619316 0.450375787646 -0.785164581195
vn 0.585583398886 0.666130375408 -0.461911686265
vn 0.682779149317 0.627563431662 -0.374134698335
vn 0.585583398886 0.666130375408 -0.461911686265
vn 0.682779149317 0.627563431662 -0.374134698335
vn 0.739153982274 0.673536480444 5.24175601628e-9
vn 0.739153982274 0.673536480444 5.24175601628e-9
vn 0.584952045876 0.667488682173 0.460749349643
vn 0.652000956278 0.621503822893 0.434312964510
vn 0.584952045876 0.667488682173 0.460749349643
vn 0.652000956278 0.621503822893 0.434312964510
vn -1.20209634183e-16 0.191019951505 0.981586154205
vn -1.22273344034e-16 0.0558776435007 0.998437623969
vn -1.22273344034e-16 0.0558776435007 0.998437623969
vn -1.22463329592e-16 0.00469599059150 0.999988973775
vn -0.749573295347 -0.573969606412 0.329694958740
vn -0.749573295347 -0.573969606412 0.329694958740
vn -0.794368107377 -0.607436671582 7.25868750644e-9
vn -0.794368107377 -0.607436671582 7.25868750644e-9
vn -0.749573295347 -0.573969606412 -0.329694958740
vn -0.749573295347 -0.573969606412 -0.329694958740
vn 1.21876152260e-16 0.0979198208623 -0.995194306999
vn 1.22459278533e-16 0.00939198119402 -0.999955894372
vn 1.21818271889e-16 0.102609860684 -0.994721677903
vn 1.21876152260e-16 0.0979198208623 -0.995194306999
vn 0.664406662654 0.598272686130 -0.447921398966
vn 0.664406662654 0.598272686130 -0.447921398966
vn 0.767730512744 0.640772861318 2.22663822505e-10
vn 0.767730512744 0.640772861318 2.22663822505e-10
vn 0.696270569346 0.603600130764 0.388425252016
vn 0.696270569346 0.603600130764 0.388425252016
vn -1.22464679915e-16 0.00000000000 1.00000000000
vn -1.22464679915e-16 0.00000000000 1.00000000000
vn -0.787001934430 -0.513785916054 0.341543537003
vn -0.787001934430 -0.513785916054 0.341543537003
vn -0.837316642155 -0.546718246238 -1.17158102044e-16
vn -0.837316642155 -0.546718246238 -1.17158102044e-16
vn -0.787001934430 -0.513785916054 -0.341543537003
vn -0.787001934430 -0.513785916054 -0.341543537003
vn 1.22464679915e-16 0.00000000000 -1.00000000000
vn 1.22464679915e-16 0.00000000000 -1.00000000000
vn 0.771735371161 0.539579928622 -0.336567998370
vn 0.771735371161 0.539579928622 -0.336567998370
vn 0.819494254396 0.573087399104 1.14900675460e-16
vn 0.819494254396 0.573087399104 1.14900675460e-16
vn 0.771735371161 0.539579928622 0.336567998370
vn 0.771735371161 0.539579928622 0.336567998370
vn -1.22464679915e-16 0.00000000000 1.00000000000
vn -1.22464679915e-16 0.00000000000 1.00000000000
vn -0.824434237999 -0.442036727357 0.353428520189
vn -0.824434237999 -0.442036727357 0.353428520189
vn -0.881270952338 -0.472611371599 -1.07924565096e-16
vn -0.881270952338 -0.472611371599 -1.07924565096e-16
vn -0.824434237999 -0.442036727357 -0.353428520189
vn -0.824434237999 -0.442036727357 -0.353428520189
vn 1.22464679915e-16 0.00000000000 -1.00000000000
vn 1.22464679915e-16 0.00000000000 -1.00000000000
vn 0.814650882204 0.462151670172 -0.350370909010
vn 0.814650882204 0.462151670172 -0.350370909010
vn 0.869734468594 0.493519963263 1.21275031386e-16
vn 0.869734468594 0.493519963263 1.21275031386e-16
vn 0.814650882204 0.462151670172 0.350370909010
vn 0.814650882204 0.462151670172 0.350370909010
vn -1.22464679915e-16 0.00000000000 1.00000000000
vn -1.22464679915e-16 0.00000000000 1.00000000000
vn -0.861016059501 -0.354541937632 0.364624957651
vn -0.861016059501 -0.354541937632 0.364624957651
vn -0.924638916929 -0.380844946535 1.65304889978e-9
vn -0.924638916929 -0.380844946535 1.65304889978e-9
vn -0.861016059501 -0.354541937632 -0.364624957651
vn -0.861016059501 -0.354541937632 -0.364624957651
vn 1.22464679915e-16 0.00000000000 -1.00000000000
vn 1.22464679915e-16 0.00000000000 -1.00000000000
vn 0.854834542576 0.371018254639 -0.362771773356
vn 0.854834542576 0.371018254639 -0.362771773356
vn 0.917280896578 0.398240827606 1.27311684841e-16
vn 0.917280896578 0.398240827606 1.27311684841e-16
vn 0.854834542576 0.371018254639 0.362771773356
vn 0.854834542576 0.371018254639 0.362771773356
vn -1.22464679915e-16 0.00000000000 1.00000000000
vn -1.22464679915e-16 0.00000000000 1.00000000000
vn -0.893596947648 -0.247788295276 0.374279916477
vn -0.893596947648 -0.247788295276 0.374279916477
vn -0.963611996322 -0.267304920538 -3.54574883650e-9
vn -0.963611996322 -0.267304920538 -3.54574883650e-9
vn -0.893596957547 -0.247788253317 -0.374279920623
vn -0.893596957547 -0.247788253317 -0.374279920623
vn 1.22464679915e-16 0.00000000000 -1.00000000000
vn 1.22464679915e-16 0.00000000000 -1.00000000000
vn 0.890418783330 0.260285292598 -0.373371071121
vn 0.890418783330 0.260285292598 -0.373371071121
vn 0.959800314650 0.280683729484 9.83944499928e-10
vn 0.959800314650 0.280683729484 9.83944499928e-10
vn 0.890418783330 0.260285292598 0.373371071121
vn 0.890418783330 0.260285292598 0.373371071121
vn -1.22464679915e-16 0.00000000000 1.00000000000
vn -1.22464679915e-16 0.00000000000 1.00000000000
vn -0.916169642078 -0.125107422290 0.380764126228
vn -0.916169642078 -0.125107422290 0.380764126228
vn -0.986509749168 -0.163702519211 2.66674184140e-9
vn -0.986509749168 -0.163702519211 2.66674184140e-9
vn -0.916169636955 -0.125107466294 -0.380764124098
vn -0.916169636955 -0.125107466294 -0.380764124098
vn 1.22464679915e-16 0.00000000000 -1.00000000000
vn 1.22464679915e-16 0.00000000000 -1.00000000000
vn 0.915303088935 0.131920021561 -0.380548765991
vn 0.915303088935 0.131920021561 -0.380548765991
vn 0.985006164017 0.172519149223 -1.40195988676e-9
vn 0.985006164017 0.172519149223 -1.40195988676e-9
vn 0.915303085337 0.131920050845 0.380548764494
vn 0.915303085337 0.131920050845 0.380548764494
vn -1.22464679915e-16 0.00000000000 1.00000000000
vn -1.22464679915e-16 0.00000000000 1.00000000000
vn -0.859493561740 -0.0924766221419 0.502711539239
vn -0.862511484181 -0.0237486167537 0.505479913408
vn -0.859493561740 -0.0924766221419 0.502711539239
vn -0.862511484181 -0.0237486167537 0.505479913408
vn -0.990797270514 -0.135354234300 2.58849571267e-9
vn -0.999620173792 -0.0275591753868 -9.92604651291e-10
vn -0.990797270514 -0.135354234300 2.58849571267e-9
vn -0.999620173792 -0.0275591753868 -9.92604651291e-10
vn -0.859493555818 -0.0924766960105 -0.502711535775
vn -0.862511485669 -0.0237485441515 -0.505479914280
vn -0.859493555818 -0.0924766960105 -0.502711535775
vn -0.862511485669 -0.0237485441515 -0.505479914280
vn 1.22464679915e-16 0.00000000000 -1.00000000000
vn 1.22464679915e-16 0.00000000000 -1.00000000000
vn 0.859105481363 0.0976007894194 -0.502406068630
vn 0.862473476145 0.0250980068316 -0.505479567341
vn 0.859105481363 0.0976007894194 -0.502406068630
vn 0.862473476145 0.0250980068316 -0.505479567341
vn 0.989763497159 0.142717271878 -1.73255497617e-9
vn 0.999575640911 0.0291296772780 1.04895018762e-9
vn 0.989763497159 0.142717271878 -1.73255497617e-9
vn 0.999575640911 0.0291296772780 1.04895018762e-9
vn 0.859105476990 0.0976008410766 0.502406066072
vn 0.862473477758 0.0250979323727 0.505479568286
vn 0.859105476990 0.0976008410766 0.502406066072
vn 0.862473477758 0.0250979323727 0.505479568286
vn -1.22464679915e-16 0.00000000000 1.00000000000
vn -1.22464679915e-16 0.00000000000 1.00000000000
vn -0.862511485669 0.0237485441515 0.505479914280
vn -0.859493556411 0.0924766886237 0.502711536122
vn -0.862511485669 0.0237485441515 0.505479914280
vn -0.859493556411 0.0924766886237 0.502711536122
vn -0.999620173741 0.0275591772480 9.92604517426e-10
vn -0.990797272512 0.135354219671 -2.58849551648e-9
vn -0.999620173741 0.0275591772480 9.92604517426e-10
vn -0.990797272512 0.135354219671 -2.58849551648e-9
vn -0.862511484181 0.0237486167537 -0.505479913408
vn -0.859493561740 0.0924766221419 -0.502711539239
vn -0.862511484181 0.0237486167537 -0.505479913408
vn -0.859493561740 0.0924766221419 -0.502711539239
vn 1.22464679915e-16 0.00000000000 -1.00000000000
vn 1.22464679915e-16 0.00000000000 -1.00000000000
vn 0.862473477718 -0.0250979342342 -0.505479568263
vn 0.859105476990 -0.0976008410766 -0.502406066072
vn 0.862473477718 -0.0250979342342 -0.505479568263
vn 0.859105476990 -0.0976008410766 -0.502406066072
vn 0.999575640856 -0.0291296791390 -1.04895005376e-9
vn 0.989763497159 -0.142717271878 1.73255510757e-9
vn 0.999575640856 -0.0291296791390 -1.04895005376e-9
vn 0.989763497159 -0.142717271878 1.73255510757e-9
vn 0.862473476145 -0.0250980068316 0.505479567341
vn 0.859105481363 -0.0976007894194 0.502406068630
vn 0.862473476145 -0.0250980068316 0.505479567341
vn 0.859105481363 -0.0976007894194 0.502406068630
vn -1.22464679915e-16 0.00000000000 1.00000000000
vn -1.22464679915e-16 0.00000000000 1.00000000000
vn -0.916169636955 0.125107466294 0.380764124098
vn -0.893596957547 0.247788253317 0.374279920623
vn -0.916169636955 0.125107466294 0.380764124098
vn -0.893596957547 0.247788253317 0.374279920623
vn -0.986509751575 0.163702504709 -2.66674164544e-9
vn -0.963611996322 0.267304920538 3.54574837844e-9
vn -0.986509751575 0.163702504709 -2.66674164544e-9
vn -0.963611996322 0.267304920538 3.54574837844e-9
vn -0.916169643786 0.125107407622 -0.380764126937
vn -0.893596950948 0.247788281290 -0.374279917859
vn -0.916169643786 0.125107407622 -0.380764126937
vn -0.893596950948 0.247788281290 -0.374279917859
vn 1.22464679915e-16 0.00000000000 -1.00000000000
vn 1.22464679915e-16 0.00000000000 -1.00000000000
vn 0.915303085337 -0.131920050845 -0.380548764494
vn 0.890418790237 -0.260285264814 -0.373371074017
vn 0.915303085337 -0.131920050845 -0.380548764494
vn 0.890418790237 -0.260285264814 -0.373371074017
vn 0.985006166549 -0.172519134766 1.40195990958e-9
vn 0.959800314650 -0.280683729484 -9.83944153823e-10
vn 0.985006166549 -0.172519134766 1.40195990958e-9
vn 0.959800314650 -0.280683729484 -9.83944153823e-10
vn 0.915303090734 -0.131920006920 0.380548766739
vn 0.890418783330 -0.260285292598 0.373371071121
vn 0.915303090734 -0.131920006920 0.380548766739
vn 0.890418783330 -0.260285292598 0.373371071121
vn -1.22464679915e-16 0.00000000000 1.00000000000
vn -1.22464679915e-16 0.00000000000 1.00000000000
vn -0.861016059501 0.354541937632 0.364624957651
vn -0.861016059501 0.354541937632 0.364624957651
vn -0.924638916929 0.380844946535 -1.65304912625e-9
vn -0.924638916929 0.380844946535 -1.65304912625e-9
vn -0.861016059501 0.354541937632 -0.364624957651
vn -0.861016059501 0.354541937632 -0.364624957651
vn 1.22464679915e-16 0.00000000000 -1.00000000000
vn 1.22464679915e-16 0.00000000000 -1.00000000000
vn 0.854834542576 -0.371018254639 -0.362771773356
vn 0.854834542576 -0.371018254639 -0.362771773356
vn 0.917280896578 -0.398240827606 9.73573379421e-17
vn 0.917280896578 -0.398240827606 9.73573379421e-17
vn 0.854834542576 -0.371018254639 0.362771773356
vn 0.854834542576 -0.371018254639 0.362771773356
vn -1.22464679915e-16 0.00000000000 1.00000000000
vn -1.22464679915e-16 0.00000000000 1.00000000000
vn -0.824434237999 0.442036727357 0.353428520189
vn -0.824434237999 0.442036727357 0.353428520189
vn -0.881270952338 0.472611371599 -1.07924565096e-16
vn -0.881270952338 0.472611371599 -1.07924565096e-16
vn -0.824434237999 0.442036727357 -0.353428520189
vn -0.824434237999 0.442036727357 -0.353428520189
vn 1.22464679915e-16 0.00000000000 -1.00000000000
vn 1.22464679915e-16 0.00000000000 -1.00000000000
vn 0.814650882204 -0.462151670172 -0.350370909010
vn 0.814650882204 -0.462151670172 -0.350370909010
vn 0.869734468594 -0.493519963263 1.21275031386e-16
vn 0.869734468594 -0.493519963263 1.21275031386e-16
vn 0.814650882204 -0.462151670172 0.350370909010
vn 0.814650882204 -0.462151670172 0.350370909010
vn -1.22464342341e-16 -0.00234797570200 0.999997243501
vn -1.22463329592e-16 -0.00469599059150 0.999988973775
vn -0.768741180794 0.544297926753 0.335822518429
vn -0.768741180794 0.544297926753 0.335822518429
vn -0.816271897050 0.577667889091 -3.65469285233e-9
vn -0.816271897050 0.577667889091 -3.65469285233e-9
vn -0.768741180794 0.544297926753 -0.335822518429
vn -0.768741180794 0.544297926753 -0.335822518429
vn 1.22464342341e-16 -0.00234797570200 -0.999997243501
vn 1.22463329592e-16 -0.00469599059150 -0.999988973775
vn 0.750176541977 -0.573491925625 -0.329153713501
vn 0.750176541977 -0.573491925625 -0.329153713501
vn 0.794129473911 -0.607748614697 -1.12310991334e-10
vn 0.794129473911 -0.607748614697 -1.12310991334e-10
vn 0.750176541977 -0.573491925625 0.329153713501
vn 0.750176541977 -0.573491925625 0.329153713501
vn -1.22464342341e-16 -0.00234797570200 0.999997243501
vn -1.22463329592e-16 -0.00469599059150 0.999988973775
vn -0.768741180794 0.544297926753 0.335822518429
vn -0.768741180794 0.544297926753 0.335822518429
vn -0.816271897050 0.577667889091 -3.65469285233e-9
vn -0.816271897050 0.577667889091 -3.65469285233e-9
vn -0.768741180794 0.544297926753 -0.335822518429
vn -0.768741180794 0.544297926753 -0.335822518429
vn 1.22464342341e-16 -0.00234797570200 -0.999997243501
vn 1.22463329592e-16 -0.00469599059150 -0.999988973775
vn 0.750176541977 -0.573491925625 -0.329153713501
vn 0.750176541977 -0.573491925625 -0.329153713501
vn 0.794129473911 -0.607748614697 -1.12310991334e-10
vn 0.794129473911 -0.607748614697 -1.12310991334e-10
vn 0.750176541977 -0.573491925625 0.329153713501
vn 0.750176541977 -0.573491925625 0.329153713501
vn -1.19979639527e-16 -0.200429609552 0.979708105312
vn -1.18475281306e-16 -0.253161279659 0.967424088227
vn -0.637194523885 0.708469937997 0.303403173493
vn -0.637194523885 0.708469937997 0.303403173493
vn -0.680416656928 0.732825472384 3.55122663222e-9
vn -0.680416656928 0.732825472384 3.55122663222e-9
vn -0.637194496978 0.708469967684 -0.303403160681
vn -0.637194496978 0.708469967684 -0.303403160681
vn 1.19979639527e-16 -0.200429609552 -0.979708105312
vn 1.18475281306e-16 -0.253161279659 -0.967424088227
vn 0.632932598102 -0.627503568683 -0.453470613766
vn 0.632932598102 -0.627503568683 -0.453470613766
vn 0.728838242923 -0.684685924825 1.09229551707e-10
vn 0.728838242923 -0.684685924825 1.09229551707e-10
vn 0.648746420278 -0.629893590652 0.427038811623
vn 0.648746420278 -0.629893590652 0.427038811623
vn 0.378421508635 -0.462404123835 0.801860080103
vn 0.378421508635 -0.462404123835 0.801860080103
vn -1.18475281306e-16 -0.253161279659 0.967424088227
vn -0.637194523885 0.708469937997 0.303403173493
vn -0.637194523885 0.708469937997 0.303403173493
vn -0.680416656928 0.732825472384 3.55122663222e-9
vn -0.680416656928 0.732825472384 3.55122663222e-9
vn -0.637194496978 0.708469967684 -0.303403160681
vn -0.637194496978 0.708469967684 -0.303403160681
vn 1.19979639527e-16 -0.200429609552 -0.979708105312
vn 0.375555812822 -0.481831281748 -0.791704772869
vn 0.375555812822 -0.481831281748 -0.791704772869
vn 0.632932598102 -0.627503568683 -0.453470613766
vn 0.632932598102 -0.627503568683 -0.453470613766
vn 0.728838242923 -0.684685924825 1.09229551707e-10
vn 0.728838242923 -0.684685924825 1.09229551707e-10
vn 0.648746420278 -0.629893590652 0.427038811623
vn 0.648746420278 -0.629893590652 0.427038811623
vn 0.412054591823 -0.498186520813 0.762903141846
vn 0.145980789134 -0.351352718749 0.924792342222
vn 0.145980789134 -0.351352718749 0.924792342222
vn -0.468144662752 0.852686657305 0.231875050815
vn -0.468144662752 0.852686657305 0.231875050815
vn -0.489482364660 0.872013196395 5.37622766036e-10
vn -0.489482364660 0.872013196395 5.37622766036e-10
vn -0.468144662752 0.852686657305 -0.231875050815
vn -0.468144662752 0.852686657305 -0.231875050815
vn 0.145565557643 -0.363317050434 -0.920223553976
vn 0.409149616291 -0.513682483791 -0.754139839376
vn 0.145565557643 -0.363317050434 -0.920223553976
vn 0.678238029749 -0.637613709511 -0.365297046861
vn 0.554459750275 -0.700534164429 -0.449250787191
vn 0.678238029749 -0.637613709511 -0.365297046861
vn 0.554459750275 -0.700534164429 -0.449250787191
vn 0.646634289547 -0.762800167529 5.85931018067e-17
vn 0.646634289547 -0.762800167529 5.85931018067e-17
vn 0.693963334940 -0.638182865688 0.333372943864
vn 0.554459750275 -0.700534164429 0.449250787191
vn 0.693963334940 -0.638182865688 0.333372943864
vn 0.554459750275 -0.700534164429 0.449250787191
vn -1.19290626784e-16 -0.226195651891 0.974081889302
vn -1.21527298396e-16 -0.123490945537 0.992345699023
vn -1.19290626784e-16 -0.226195651891 0.974081889302
vn -1.19290626784e-16 -0.226195651891 0.974081889302
vn -0.468144662752 0.852686657305 0.231875050815
vn -0.468144662752 0.852686657305 0.231875050815
vn -0.489482364660 0.872013196395 5.37622766036e-10
vn -0.489482364660 0.872013196395 5.37622766036e-10
vn -0.468144662752 0.852686657305 -0.231875050815
vn -0.468144662752 0.852686657305 -0.231875050815
vn 1.18821319448e-16 -0.242106405789 -0.970249704084
vn 1.18821319448e-16 -0.242106405789 -0.970249704084
vn 1.18821319448e-16 -0.242106405789 -0.970249704084
vn 1.21862272338e-16 -0.0990649557124 -0.995080968841
vn 0.638585439438 -0.720180918752 -0.271197494096
vn 0.444477191426 -0.872111958326 -0.204599018685
vn 0.638585439438 -0.720180918752 -0.271197494096
vn 0.444477191426 -0.872111958326 -0.204599018685
vn 0.448410008737 -0.893827983487 1.51326895827e-13
vn 0.448410008737 -0.893827983487 1.51326895827e-13
vn 0.638585439438 -0.720180918752 0.271197494096
vn 0.444477191426 -0.872111958326 0.204599018685
vn 0.638585439438 -0.720180918752 0.271197494096
vn 0.444477191426 -0.872111958326 0.204599018685
vn -1.21527298396e-16 -0.123490945537 0.992345699023
vn -1.21527298396e-16 -0.123490945537 0.992345699023
vn -0.460923365016 0.871017976088 0.169933330792
vn -0.116134236701 0.993233526954 -6.79156040555e-10
vn -0.460923365016 0.871017976088 0.169933330792
vn -0.116134236701 0.993233526954 -6.79156040555e-10
vn -0.116134236701 0.993233526954 -6.79156040555e-10
vn -0.460923365016 0.871017976088 -0.169933330792
vn -0.460923365016 0.871017976088 -0.169933330792
vn -0.116134236701 0.993233526954 -6.79156040555e-10
vn 1.21862272338e-16 -0.0990649557124 -0.995080968841
vn 1.21862272338e-16 -0.0990649557124 -0.995080968841
vn 0.433212049587 -0.898937420200 -0.0651063334641
vn 0.433212049587 -0.898937420200 -0.0651063334641
vn 0.433212049587 -0.898937420200 -0.0651063334641
vn 0.433212049587 -0.898937420200 -0.0651063334641
vn 0.448410008737 -0.893827983487 1.51326895827e-13
vn 0.448410008737 -0.893827983487 1.51326895827e-13
vn 0.433212049587 -0.898937420200 0.0651063334641
vn 0.433212049587 -0.898937420200 0.0651063334641
vn 0.433212049587 -0.898937420200 0.0651063334641
vn 0.433212049587 -0.898937420200 0.0651063334641
vn -0.116134236701 -0.993233526954 6.79156012111e-10
vn -0.116134236701 0.993233526954 -6.79156040555e-10
vn -0.116134236701 -0.993233526954 6.79156012111e-10
vn -0.116134236701 0.993233526954 -6.79156040555e-10
vn -0.116134236701 -0.993233526954 6.79156012111e-10
vn -0.116134236701 0.993233526954 -6.79156040555e-10
vn -0.116134236701 -0.993233526954 6.79156012111e-10
vn -0.116134236701 0.993233526954 -6.79156040555e-10
f 1/1/1 2/2/2 3/3/3
f 3/3/3 2/2/2 4/4/4
f 5/5/5 6/6/6 7/7/7
f 7/7/7 6/6/6 8/8/8
f 7/7/7 9/9/9 10/10/10
f 10/10/10 9/9/9 11/11/11
f 10/10/10 12/12/12 13/13/13
f 13/13/13 12/12/12 14/14/14
f 15/15/15 16/16/16 17/17/17
f 17/17/17 16/16/16 18/18/18
f 19/19/19 20/20/20 21/21/21
f 21/21/21 20/20/20 22/22/22
f 23/23/23 24/24/24 25/25/25
f 25/25/25 24/24/24 26/26/26
f 27/27/27 28/28/28 29/29/29
f 29/29/29 28/28/28 30/30/30
f 2/2/2 31/31/31 4/4/4
f 4/4/4 31/31/31 32/32/32
f 33/33/33 34/34/34 35/35/35
f 35/35/35 34/34/34 36/36/36
f 9/9/9 37/37/37 11/11/11
f 11/11/11 37/37/37 38/38/38
f 39/39/39 40/40/40 41/41/41
f 41/41/41 40/40/40 42/42/42
f 16/16/16 43/43/43 18/18/18
f 18/18/18 43/43/43 44/44/44
f 45/45/45 46/46/46 47/47/47
f 47/47/47 46/46/46 48/48/48
f 24/24/24 49/49/49 26/26/26
f 26/26/26 49/49/49 50/50/50
f 51/51/51 52/52/52 53/53/53
f 53/53/53 52/52/52 54/54/54
f 55/55/55 56/56/56 57/57/57
f 57/57/57 56/56/56 58/58/58
f 34/34/34 59/59/59 36/36/36
f 36/36/36 59/59/59 60/60/60
f 37/37/37 61/61/61 38/38/38
f 38/38/38 61/61/61 62/62/62
f 40/40/40 63/63/63 42/42/42
f 42/42/42 63/63/63 64/64/64
f 65/65/65 66/66/66 67/67/67
f 67/67/67 66/66/66 68/68/68
f 69/69/69 70/70/70 71/71/71
f 71/71/71 70/70/70 72/72/72
f 49/49/49 73/73/73 50/50/50
f 50/50/50 73/73/73 74/74/74
f 75/75/75 76/76/76 77/77/77
f 77/77/77 76/76/76 78/78/78
f 79/79/79 80/80/80 58/58/58
f 58/58/58 80/80/80 81/81/81
f 59/59/59 82/82/82 60/60/60
f 60/60/60 82/82/82 83/83/83
f 61/61/61 84/84/84 62/62/62
f 62/62/62 84/84/84 85/85/85
f 63/63/63 86/86/86 64/64/64
f 64/64/64 86/86/86 87/87/87
f 66/66/66 88/88/88 89/89/89
f 89/89/89 88/88/88 90/90/90
f 91/91/91 92/92/92 93/93/93
f 93/93/93 92/92/92 94/94/94
f 73/73/73 95/95/95 74/74/74
f 74/74/74 95/95/95 96/96/96
f 97/97/97 98/98/98 99/99/99
f 99/99/99 98/98/98 100/100/100
f 101/101/101 102/102/102 103/103/103
f 103/103/103 102/102/102 104/104/104
f 82/82/82 105/105/105 83/83/83
f 83/83/83 105/105/105 106/106/106
f 84/84/84 107/107/107 85/85/85
f 85/85/85 107/107/107 108/108/108
f 86/86/86 109/109/109 87/87/87
f 87/87/87 109/109/109 110/110/110
f 111/111/111 112/112/112 113/113/113
f 113/113/113 112/112/112 114/114/114
f 92/92/92 115/115/115 94/94/94
f 94/94/94 115/115/115 116/116/116
f 95/95/95 117/117/117 96/96/96
f 96/96/96 117/117/117 118/118/118
f 98/98/98 119/119/119 100/100/100
f 100/100/100 119/119/119 120/120/120
f 102/102/102 121/121/121 104/104/104
f 104/104/104 121/121/121 122/122/122
f 105/105/105 123/123/123 106/106/106
f 106/106/106 123/123/123 124/124/124
f 107/107/107 125/125/125 108/108/108
f 108/108/108 125/125/125 126/126/126
f 109/109/109 127/127/127 110/110/110
f 110/110/110 127/127/127 128/128/128
f 112/112/112 129/129/129 114/114/114
f 114/114/114 129/129/129 130/130/130
f 115/115/115 131/131/131 116/116/116
f 116/116/116 131/131/131 132/132/132
f 117/117/117 133/133/133 118/118/118
f 118/118/118 133/133/133 134/134/134
f 119/119/119 135/135/135 120/120/120
f 120/120/120 135/135/135 136/136/136
f 121/121/121 137/137/137 122/122/122
f 122/122/122 137/137/137 138/138/138
f 123/123/123 139/139/139 124/124/124
f 124/124/124 139/139/139 140/140/140
f 125/125/125 141/141/141 126/126/126
f 126/126/126 141/141/141 142/142/142
f 127/127/127 143/143/143 128/128/128
f 128/128/128 143/143/143 144/144/144
f 129/129/129 145/145/145 130/130/130
f 130/130/130 145/145/145 146/146/146
f 131/131/131 147/147/147 132/132/132
f 132/132/132 147/147/147 148/148/148
f 133/133/133 149/149/149 134/134/134
f 134/134/134 149/149/149 150/150/150
f 135/135/135 151/151/151 136/136/136
f 136/136/136 151/151/151 152/152/152
f 137/137/137 153/153/153 138/138/138
f 138/138/138 153/153/153 154/154/154
f 139/139/139 155/155/155 140/140/140
f 140/140/140 155/155/155 156/156/156
f 141/141/141 157/157/157 142/142/142
f 142/142/142 157/157/157 158/158/158
f 143/143/143 159/159/159 144/144/144
f 144/144/144 159/159/159 160/160/160
f 145/145/145 161/161/161 146/146/146
f 146/146/146 161/161/161 162/162/162
f 147/147/147 163/163/163 148/148/148
f 148/148/148 163/163/163 164/164/164
f 149/149/149 165/165/165 150/150/150
f 150/150/150 165/165/165 166/166/166
f 151/151/151 167/167/167 152/152/152
f 152/152/152 167/167/167 168/168/168
f 153/153/153 169/169/169 154/154/154
f 154/154/154 169/169/169 170/170/170
f 155/155/155 171/171/171 156/156/156
f 156/156/156 171/171/171 172/172/172
f 157/157/157 173/173/173 158/158/158
f 158/158/158 173/173/173 174/174/174
f 159/159/159 175/175/175 160/160/160
f 160/160/160 175/175/175 176/176/176
f 161/161/161 177/177/177 162/162/162
f 162/162/162 177/177/177 178/178/178
f 163/163/163 179/179/179 164/164/164
f 164/164/164 179/179/179 180/180/180
f 165/165/165 181/181/181 166/166/166
f 166/166/166 181/181/181 182/182/182
f 167/167/167 183/183/183 168/168/168
f 168/168/168 183/183/183 184/184/184
f 169/169/169 185/185/185 170/170/170
f 170/170/170 185/185/185 186/186/186
f 171/171/171 187/187/187 172/172/172
f 172/172/172 187/187/187 188/188/188
f 173/173/173 189/189/189 174/174/174
f 174/174/174 189/189/189 190/190/190
f 175/175/175 191/191/191 176/176/176
f 176/176/176 191/191/191 192/192/192
f 177/177/177 193/193/193 178/178/178
f 178/178/178 193/193/193 194/194/194
f 179/179/179 195/195/195 180/180/180
f 180/180/180 195/195/195 196/196/196
f 181/181/181 197/197/197 182/182/182
f 182/182/182 197/197/197 198/198/198
f 183/183/183 199/199/199 184/184/184
f 184/184/184 199/199/199 200/200/200
f 185/185/185 201/201/201 186/186/186
f 186/186/186 201/201/201 202/202/202
f 203/203/203 204/204/204 205/205/205
f 205/205/205 204/204/204 206/206/206
f 207/207/207 208/208/208 209/209/209
f 209/209/209 208/208/208 210/210/210
f 211/211/211 212/212/212 213/213/213
f 213/213/213 212/212/212 214/214/214
f 193/193/193 215/215/215 194/194/194
f 194/194/194 215/215/215 216/216/216
f 217/217/217 218/218/218 219/219/219
f 219/219/219 218/218/218 220/220/220
f 221/221/221 222/222/222 223/223/223
f 223/223/223 222/222/222 224/224/224
f 225/225/225 226/226/226 227/227/227
f 227/227/227 226/226/226 228/228/228
f 201/201/201 229/229/229 202/202/202
f 202/202/202 229/229/229 230/230/230
f 231/231/231 232/232/232 233/233/233
f 233/233/233 232/232/232 234/234/234
f 235/235/235 236/236/236 237/237/237
f 237/237/237 236/236/236 238/238/238
f 239/239/239 240/240/240 241/241/241
f 241/241/241 240/240/240 242/242/242
f 215/215/215 243/243/243 216/216/216
f 216/216/216 243/243/243 244/244/244
f 245/245/245 246/246/246 247/247/247
f 247/247/247 246/246/246 248/248/248
f 249/249/249 250/250/250 251/251/251
f 251/251/251 250/250/250 252/252/252
f 253/253/253 254/254/254 255/255/255
f 255/255/255 254/254/254 256/256/256
f 229/229/229 257/257/257 230/230/230
f 230/230/230 257/257/257 258/258/258
f 259/259/259 260/260/260 261/261/261
f 261/261/261 260/260/260 262/262/262
f 263/263/263 264/264/264 265/265/265
f 265/265/265 264/264/264 266/266/266
f 267/267/267 268/268/268 269/269/269
f 269/269/269 268/268/268 270/270/270
f 243/243/243 271/271/271 244/244/244
f 244/244/244 271/271/271 272/272/272
f 273/273/273 274/274/274 275/275/275
f 275/275/275 274/274/274 276/276/276
f 277/277/277 278/278/278 279/279/279
f 279/279/279 278/278/278 280/280/280
f 281/281/281 282/282/282 283/283/283
f 283/283/283 282/282/282 284/284/284
f 257/257/257 285/285/285 258/258/258
f 258/258/258 285/285/285 286/286/286
f 260/260/260 287/287/287 262/262/262
f 262/262/262 287/287/287 288/288/288
f 264/264/264 289/289/289 266/266/266
f 266/266/266 289/289/289 290/290/290
f 268/268/268 291/291/291 270/270/270
f 270/270/270 291/291/291 292/292/292
f 271/271/271 293/293/293 272/272/272
f 272/272/272 293/293/293 294/294/294
f 274/274/274 295/295/295 276/276/276
f 276/276/276 295/295/295 296/296/296
f 278/278/278 297/297/297 280/280/280
f 280/280/280 297/297/297 298/298/298
f 282/282/282 299/299/299 284/284/284
f 284/284/284 299/299/299 300/300/300
f 285/285/285 301/301/301 286/286/286
f 286/286/286 301/301/301 302/302/302
f 287/287/287 303/303/303 288/288/288
f 288/288/288 303/303/303 304/304/304
f 289/289/289 305/305/305 290/290/290
f 290/290/290 305/305/305 306/306/306
f 291/291/291 307/307/307 292/292/292
f 292/292/292 307/307/307 308/308/308
f 293/293/293 309/309/309 294/294/294
f 294/294/294 309/309/309 310/310/310
f 295/295/295 311/311/311 296/296/296
f 296/296/296 311/311/311 312/312/312
f 297/297/297 313/313/313 298/298/298
f 298/298/298 313/313/313 314/314/314
f 299/299/299 315/315/315 300/300/300
f 300/300/300 315/315/315 316/316/316
f 301/301/301 317/317/317 302/302/302
f 302/302/302 317/317/317 318/318/318
f 303/303/303 319/319/319 304/304/304
f 304/304/304 319/319/319 320/320/320
f 305/305/305 321/321/321 306/306/306
f 306/306/306 321/321/321 322/322/322
f 307/307/307 323/323/323 308/308/308
f 308/308/308 323/323/323 324/324/324
f 309/309/309 325/325/325 310/310/310
f 310/310/310 325/325/325 326/326/326
f 311/311/311 327/327/327 312/312/312
f 312/312/312 327/327/327 328/328/328
f 313/313/313 329/329/329 314/314/314
f 314/314/314 329/329/329 330/330/330
f 315/315/315 331/331/331 316/316/316
f 316/316/316 331/331/331 332/332/332
f 317/317/317 333/333/333 318/318/318
f 318/318/318 333/333/333 334/334/334
f 319/319/319 335/335/335 320/320/320
f 320/320/320 335/335/335 336/336/336
f 321/321/321 337/337/337 322/322/322
f 322/322/322 337/337/337 338/338/338
f 323/323/323 339/339/339 324/324/324
f 324/324/324 339/339/339 340/340/340
f 325/325/325 341/341/341 326/326/326
f 326/326/326 341/341/341 342/342/342
f 327/327/327 343/343/343 328/328/328
f 328/328/328 343/343/343 344/344/344
f 329/329/329 345/345/345 330/330/330
f 330/330/330 345/345/345 346/346/346
f 331/331/331 347/347/347 332/332/332
f 332/332/332 347/347/347 348/348/348
f 333/333/333 349/349/349 334/334/334
f 334/334/334 349/349/349 350/350/350
f 335/335/335 351/351/351 336/336/336
f 336/336/336 351/351/351 352/352/352
f 337/337/337 353/353/353 338/338/338
f 338/338/338 353/353/353 354/354/354
f 339/339/339 355/355/355 340/340/340
f 340/340/340 355/355/355 356/356/356
f 341/341/341 357/357/357 342/342/342
f 342/342/342 357/357/357 358/358/358
f 343/343/343 359/359/359 344/344/344
f 344/344/344 359/359/359 360/360/360
f 345/345/345 361/361/361 346/346/346
f 346/346/346 361/361/361 362/362/362
f 347/347/347 363/363/363 348/348/348
f 348/348/348 363/363/363 364/364/364
f 365/365/365 366/366/366 350/350/350
f 350/350/350 366/366/366 367/367/367
f 351/351/351 368/368/368 352/352/352
f 352/352/352 368/368/368 369/369/369
f 353/353/353 370/370/370 354/354/354
f 354/354/354 370/370/370 371/371/371
f 355/355/355 372/372/372 356/356/356
f 356/356/356 372/372/372 373/373/373
f 357/357/357 374/374/374 375/375/375
f 375/375/375 374/374/374 376/376/376
f 359/359/359 377/377/377 360/360/360
f 360/360/360 377/377/377 378/378/378
f 361/361/361 379/379/379 362/362/362
f 362/362/362 379/379/379 380/380/380
f 363/363/363 381/381/381 364/364/364
f 364/364/364 381/381/381 382/382/382
f 383/383/383 384/384/384 367/367/367
f 367/367/367 384/384/384 385/385/385
f 368/368/368 386/386/386 369/369/369
f 369/369/369 386/386/386 387/387/387
f 370/370/370 388/388/388 371/371/371
f 371/371/371 388/388/388 389/389/389
f 372/372/372 390/390/390 373/373/373
f 373/373/373 390/390/390 391/391/391
f 374/374/374 392/392/392 393/393/393
f 393/393/393 392/392/392 394/394/394
f 395/395/395 396/396/396 397/397/397
f 397/397/397 396/396/396 398/398/398
f 379/379/379 399/399/399 380/380/380
f 380/380/380 399/399/399 400/400/400
f 401/401/401 402/402/402 403/403/403
f 403/403/403 402/402/402 404/404/404
f 405/405/405 406/406/406 407/407/407
f 407/407/407 406/406/406 408/408/408
f 386/386/386 409/409/409 387/387/387
f 387/387/387 409/409/409 410/410/410
f 388/388/388 411/411/411 389/389/389
f 389/389/389 411/411/411 412/412/412
f 390/390/390 413/413/413 391/391/391
f 391/391/391 413/413/413 414/414/414
f 415/415/415 416/416/416 417/417/417
f 417/417/417 416/416/416 418/418/418
f 419/419/419 420/420/420 421/421/421
f 421/421/421 420/420/420 422/422/422
f 399/399/399 423/423/423 400/400/400
f 400/400/400 423/423/423 424/424/424
f 425/425/425 426/426/426 427/427/427
f 427/427/427 426/426/426 428/428/428
f 406/406/406 429/429/429 408/408/408
f 408/408/408 429/429/429 430/430/430
f 431/431/431 432/432/432 433/433/433
f 433/433/433 432/432/432 434/434/434
f 411/411/411 434/434/434 412/412/412
f 412/412/412 434/434/434 435/435/435
f 436/436/436 435/435/435 437/437/437
f 437/437/437 435/435/435 438/438/438
f 416/416/416 439/439/439 418/418/418
f 418/418/418 439/439/439 440/440/440
f 441/441/441 442/442/442 443/443/443
f 443/443/443 442/442/442 444/444/444
f 423/423/423 445/445/445 424/424/424
f 424/424/424 445/445/445 446/446/446
f 447/447/447 448/448/448 449/449/449
f 449/449/449 448/448/448 450/450/450
f 451/451/451 5/5/5 7/7/7
f 452/452/452 434/434/434 432/432/432
f 451/451/451 7/7/7 10/10/10
f 452/452/452 435/435/435 434/434/434
f 451/451/451 10/10/10 13/13/13
f 452/452/452 438/438/438 435/435/435
f 451/451/451 13/13/13 453/453/453
f 452/452/452 454/454/454 438/438/438
f 451/451/451 453/453/453 455/455/455
f 452/452/452 456/456/456 454/454/454
f 451/451/451 455/455/455 457/457/457
f 452/452/452 458/458/458 456/456/456
