# Real native mesh, metres. Development-only partial assembly; no image texture.
o S12
v 0.00400000018999 1.44700000262 -0.0154499998316
v 0.00400000018999 1.44700000262 -0.0180500000715
v 0.00398390786722 1.44829000360 -0.0178189501166
v 0.00398390786722 1.44829000360 -0.0204273387790
v 0.00400000018999 1.44700000262 -0.0180500000715
v 0.00380000006407 1.44700000262 -0.0182499997318
v 0.00398390786722 1.44829000360 -0.0204273387790
v 0.00378390797414 1.44829000360 -0.0206273384392
v 0.00380000006407 1.44700000262 -0.0182499997318
v -0.00380000006407 1.44700000262 -0.0182499997318
v 0.00378390797414 1.44829000360 -0.0206273384392
v -0.00378390797414 1.44829000360 -0.0206273384392
v -0.00380000006407 1.44700000262 -0.0182499997318
v -0.00400000018999 1.44700000262 -0.0180500000715
v -0.00378390797414 1.44829000360 -0.0206273384392
v -0.00398390786722 1.44829000360 -0.0204273387790
v -0.00400000018999 1.44700000262 -0.0180500000715
v -0.00400000018999 1.44700000262 -0.0154499998316
v -0.00398390786722 1.44829000360 -0.0204273387790
v -0.00398390786722 1.44829000360 -0.0178189501166
v -0.00400000018999 1.44700000262 -0.0154499998316
v -0.00380000006407 1.44700000262 -0.0152500001714
v -0.00398390786722 1.44829000360 -0.0178189501166
v -0.00378390797414 1.44829000360 -0.0176189504564
v -0.00380000006407 1.44700000262 -0.0152500001714
v 0.00380000006407 1.44700000262 -0.0152500001714
v -0.00378390797414 1.44829000360 -0.0176189504564
v 0.00378390797414 1.44829000360 -0.0176189504564
v 0.00380000006407 1.44700000262 -0.0152500001714
v 0.00400000018999 1.44700000262 -0.0154499998316
v 0.00378390797414 1.44829000360 -0.0176189504564
v 0.00398390786722 1.44829000360 -0.0178189501166
v 0.00391107099131 1.45022500134 -0.0199740584940
v 0.00391107099131 1.45022500134 -0.0225378703326
v 0.00391107099131 1.45022500134 -0.0225378703326
v 0.00371107109822 1.45022500134 -0.0227378699929
v 0.00378390797414 1.44829000360 -0.0206273384392
v -0.00378390797414 1.44829000360 -0.0206273384392
v 0.00371107109822 1.45022500134 -0.0227378699929
v -0.00371107109822 1.45022500134 -0.0227378699929
v -0.00371107109822 1.45022500134 -0.0227378699929
v -0.00391107099131 1.45022500134 -0.0225378703326
v -0.00391107099131 1.45022500134 -0.0225378703326
v -0.00391107099131 1.45022500134 -0.0199740584940
v -0.00391107099131 1.45022500134 -0.0199740584940
v -0.00371107109822 1.45022500134 -0.0197740588337
v -0.00371107109822 1.45022500134 -0.0197740588337
v 0.00371107109822 1.45022500134 -0.0197740588337
v 0.00371107109822 1.45022500134 -0.0197740588337
v 0.00391107099131 1.45022500134 -0.0199740584940
v 0.00372192775831 1.45345000005 -0.0228892378509
v 0.00372192775831 1.45345000005 -0.0252393037081
v 0.00372192775831 1.45345000005 -0.0252393037081
v 0.00352192763239 1.45345000005 -0.0254393033683
v 0.00352192763239 1.45345000005 -0.0254393033683
v -0.00352192763239 1.45345000005 -0.0254393033683
v -0.00352192763239 1.45345000005 -0.0254393033683
v -0.00372192775831 1.45345000005 -0.0252393037081
v -0.00372192775831 1.45345000005 -0.0252393037081
v -0.00372192775831 1.45345000005 -0.0228892378509
v -0.00372192775831 1.45345000005 -0.0228892378509
v -0.00352192763239 1.45345000005 -0.0226892381907
v -0.00352192763239 1.45345000005 -0.0226892381907
v 0.00352192763239 1.45345000005 -0.0226892381907
v 0.00352192763239 1.45345000005 -0.0226892381907
v 0.00372192775831 1.45345000005 -0.0228892378509
v 0.00351514574140 1.45774999833 -0.0261741988361
v 0.00351514574140 1.45774999833 -0.0282040536404
v 0.00372192775831 1.45345000005 -0.0252393037081
v 0.00352192763239 1.45345000005 -0.0254393033683
v 0.00351514574140 1.45774999833 -0.0282040536404
v 0.00331514584832 1.45774999833 -0.0284040533006
v 0.00331514584832 1.45774999833 -0.0284040533006
v -0.00331514584832 1.45774999833 -0.0284040533006
v -0.00352192763239 1.45345000005 -0.0254393033683
v -0.00372192775831 1.45345000005 -0.0252393037081
v -0.00331514584832 1.45774999833 -0.0284040533006
v -0.00351514574140 1.45774999833 -0.0282040536404
v -0.00351514574140 1.45774999833 -0.0282040536404
v -0.00351514574140 1.45774999833 -0.0261741988361
v -0.00351514574140 1.45774999833 -0.0261741988361
v -0.00331514584832 1.45774999833 -0.0259741991758
v -0.00331514584832 1.45774999833 -0.0259741991758
v 0.00331514584832 1.45774999833 -0.0259741991758
v 0.00331514584832 1.45774999833 -0.0259741991758
v 0.00351514574140 1.45774999833 -0.0261741988361
v 0.00350000010803 1.46420000321 -0.0302371606231
v 0.00350000010803 1.46420000321 -0.0321444980800
v 0.00350000010803 1.46420000321 -0.0321444980800
v 0.00329999998212 1.46420000321 -0.0323444977403
v 0.00329999998212 1.46420000321 -0.0323444977403
v -0.00329999998212 1.46420000321 -0.0323444977403
v -0.00329999998212 1.46420000321 -0.0323444977403
v -0.00350000010803 1.46420000321 -0.0321444980800
v -0.00350000010803 1.46420000321 -0.0321444980800
v -0.00350000010803 1.46420000321 -0.0302371606231
v -0.00350000010803 1.46420000321 -0.0302371606231
v -0.00329999998212 1.46420000321 -0.0300371609628
v -0.00329999998212 1.46420000321 -0.0300371609628
v 0.00329999998212 1.46420000321 -0.0300371609628
v 0.00329999998212 1.46420000321 -0.0300371609628
v 0.00350000010803 1.46420000321 -0.0302371606231
v 0.00350000010803 1.47279999977 -0.0348392389715
v 0.00350000010803 1.47279999977 -0.0366672538221
v 0.00350000010803 1.47279999977 -0.0366672538221
v 0.00329999998212 1.47279999977 -0.0368672534823
v 0.00329999998212 1.47279999977 -0.0368672534823
v -0.00329999998212 1.47279999977 -0.0368672534823
v -0.00329999998212 1.47279999977 -0.0368672534823
v -0.00350000010803 1.47279999977 -0.0366672538221
v -0.00350000010803 1.47279999977 -0.0366672538221
v -0.00350000010803 1.47279999977 -0.0348392389715
v -0.00350000010803 1.47279999977 -0.0348392389715
v -0.00329999998212 1.47279999977 -0.0346392393112
v -0.00329999998212 1.47279999977 -0.0346392393112
v 0.00329999998212 1.47279999977 -0.0346392393112
v 0.00329999998212 1.47279999977 -0.0346392393112
v 0.00350000010803 1.47279999977 -0.0348392389715
v 0.00350000010803 1.48570000207 -0.0405878983438
v 0.00350000010803 1.48570000207 -0.0423407256603
v 0.00350000010803 1.48570000207 -0.0423407256603
v 0.00329999998212 1.48570000207 -0.0425407290459
v 0.00329999998212 1.48570000207 -0.0425407290459
v -0.00329999998212 1.48570000207 -0.0425407290459
v -0.00329999998212 1.48570000207 -0.0425407290459
v -0.00350000010803 1.48570000207 -0.0423407256603
v -0.00350000010803 1.48570000207 -0.0423407256603
v -0.00350000010803 1.48570000207 -0.0405878983438
v -0.00350000010803 1.48570000207 -0.0405878983438
v -0.00329999998212 1.48570000207 -0.0403878986835
v -0.00329999998212 1.48570000207 -0.0403878986835
v 0.00329999998212 1.48570000207 -0.0403878986835
v 0.00329999998212 1.48570000207 -0.0403878986835
v 0.00350000010803 1.48570000207 -0.0405878983438
v 0.00350000010803 1.50074999979 -0.0459142886102
v 0.00350000010803 1.50074999979 -0.0476063936949
v 0.00350000010803 1.50074999979 -0.0476063936949
v 0.00329999998212 1.50074999979 -0.0478063933551
v 0.00329999998212 1.50074999979 -0.0478063933551
v -0.00329999998212 1.50074999979 -0.0478063933551
v -0.00329999998212 1.50074999979 -0.0478063933551
v -0.00350000010803 1.50074999979 -0.0476063936949
v -0.00350000010803 1.50074999979 -0.0476063936949
v -0.00350000010803 1.50074999979 -0.0459142886102
v -0.00350000010803 1.50074999979 -0.0459142886102
v -0.00329999998212 1.50074999979 -0.0457142889500
v -0.00329999998212 1.50074999979 -0.0457142889500
v 0.00329999998212 1.50074999979 -0.0457142889500
v 0.00329999998212 1.50074999979 -0.0457142889500
v 0.00350000010803 1.50074999979 -0.0459142886102
v 0.00350000010803 1.51795000038 -0.0503668971360
v 0.00350000010803 1.51795000038 -0.0520098358393
v 0.00350000010803 1.51795000038 -0.0520098358393
v 0.00329999998212 1.51795000038 -0.0522098354995
v 0.00329999998212 1.51795000038 -0.0522098354995
v -0.00329999998212 1.51795000038 -0.0522098354995
v -0.00329999998212 1.51795000038 -0.0522098354995
v -0.00350000010803 1.51795000038 -0.0520098358393
v -0.00350000010803 1.51795000038 -0.0520098358393
v -0.00350000010803 1.51795000038 -0.0503668971360
v -0.00350000010803 1.51795000038 -0.0503668971360
v -0.00329999998212 1.51795000038 -0.0501668974757
v -0.00329999998212 1.51795000038 -0.0501668974757
v 0.00329999998212 1.51795000038 -0.0501668974757
v 0.00329999998212 1.51795000038 -0.0501668974757
v 0.00350000010803 1.51795000038 -0.0503668971360
v 0.00350000010803 1.53730000010 -0.0533499829471
v 0.00350000010803 1.53730000010 -0.0549596101046
v 0.00350000010803 1.53730000010 -0.0549596101046
v 0.00329999998212 1.53730000010 -0.0551596097648
v 0.00329999998212 1.53730000010 -0.0551596097648
v -0.00329999998212 1.53730000010 -0.0551596097648
v -0.00329999998212 1.53730000010 -0.0551596097648
v -0.00350000010803 1.53730000010 -0.0549596101046
v -0.00350000010803 1.53730000010 -0.0549596101046
v -0.00350000010803 1.53730000010 -0.0533499829471
v -0.00350000010803 1.53730000010 -0.0533499829471
v -0.00329999998212 1.53730000010 -0.0531499832869
v -0.00329999998212 1.53730000010 -0.0531499832869
v 0.00329999998212 1.53730000010 -0.0531499832869
v 0.00329999998212 1.53730000010 -0.0531499832869
v 0.00350000010803 1.53730000010 -0.0533499829471
v 0.00350000010803 1.55449999999 -0.0542000010610
v 0.00350000010803 1.55449999999 -0.0557999983430
v 0.00350000010803 1.53730000010 -0.0549596101046
v 0.00329999998212 1.53730000010 -0.0551596097648
v 0.00350000010803 1.55449999999 -0.0557999983430
v 0.00329999998212 1.55449999999 -0.0560000017285
v 0.00329999998212 1.53730000010 -0.0551596097648
v -0.00329999998212 1.53730000010 -0.0551596097648
v 0.00329999998212 1.55449999999 -0.0560000017285
v -0.00329999998212 1.55449999999 -0.0560000017285
v -0.00329999998212 1.53730000010 -0.0551596097648
v -0.00350000010803 1.53730000010 -0.0549596101046
v -0.00329999998212 1.55449999999 -0.0560000017285
v -0.00350000010803 1.55449999999 -0.0557999983430
v -0.00350000010803 1.55449999999 -0.0557999983430
v -0.00350000010803 1.55449999999 -0.0542000010610
v -0.00350000010803 1.53730000010 -0.0533499829471
v -0.00329999998212 1.53730000010 -0.0531499832869
v -0.00350000010803 1.55449999999 -0.0542000010610
v -0.00329999998212 1.55449999999 -0.0540000014007
v -0.00329999998212 1.53730000010 -0.0531499832869
v 0.00329999998212 1.53730000010 -0.0531499832869
v -0.00329999998212 1.55449999999 -0.0540000014007
v 0.00329999998212 1.55449999999 -0.0540000014007
v 0.00329999998212 1.53730000010 -0.0531499832869
v 0.00350000010803 1.53730000010 -0.0533499829471
v 0.00329999998212 1.55449999999 -0.0540000014007
v 0.00350000010803 1.55449999999 -0.0542000010610
v 0.00350000010803 1.57169999941 -0.0533499829471
v 0.00350000010803 1.57169999941 -0.0549596101046
v 0.00350000010803 1.55449999999 -0.0557999983430
v 0.00329999998212 1.55449999999 -0.0560000017285
v 0.00350000010803 1.57169999941 -0.0549596101046
v 0.00329999998212 1.57169999941 -0.0551596097648
v 0.00329999998212 1.55449999999 -0.0560000017285
v -0.00329999998212 1.55449999999 -0.0560000017285
v 0.00329999998212 1.57169999941 -0.0551596097648
v -0.00329999998212 1.57169999941 -0.0551596097648
v -0.00329999998212 1.55449999999 -0.0560000017285
v -0.00350000010803 1.55449999999 -0.0557999983430
v -0.00329999998212 1.57169999941 -0.0551596097648
v -0.00350000010803 1.57169999941 -0.0549596101046
v -0.00350000010803 1.57169999941 -0.0549596101046
v -0.00350000010803 1.57169999941 -0.0533499829471
v -0.00350000010803 1.55449999999 -0.0542000010610
v -0.00329999998212 1.55449999999 -0.0540000014007
v -0.00350000010803 1.57169999941 -0.0533499829471
v -0.00329999998212 1.57169999941 -0.0531499832869
v -0.00329999998212 1.55449999999 -0.0540000014007
v 0.00329999998212 1.55449999999 -0.0540000014007
v -0.00329999998212 1.57169999941 -0.0531499832869
v 0.00329999998212 1.57169999941 -0.0531499832869
v 0.00329999998212 1.55449999999 -0.0540000014007
v 0.00350000010803 1.55449999999 -0.0542000010610
v 0.00329999998212 1.57169999941 -0.0531499832869
v 0.00350000010803 1.57169999941 -0.0533499829471
v 0.00350000010803 1.59105000100 -0.0503668971360
v 0.00350000010803 1.59105000100 -0.0520098358393
v 0.00350000010803 1.57169999941 -0.0549596101046
v 0.00329999998212 1.57169999941 -0.0551596097648
v 0.00350000010803 1.59105000100 -0.0520098358393
v 0.00329999998212 1.59105000100 -0.0522098354995
v 0.00329999998212 1.57169999941 -0.0551596097648
v -0.00329999998212 1.57169999941 -0.0551596097648
v 0.00329999998212 1.59105000100 -0.0522098354995
v -0.00329999998212 1.59105000100 -0.0522098354995
v -0.00329999998212 1.57169999941 -0.0551596097648
v -0.00350000010803 1.57169999941 -0.0549596101046
v -0.00329999998212 1.59105000100 -0.0522098354995
v -0.00350000010803 1.59105000100 -0.0520098358393
v -0.00350000010803 1.59105000100 -0.0520098358393
v -0.00350000010803 1.59105000100 -0.0503668971360
v -0.00350000010803 1.57169999941 -0.0533499829471
v -0.00329999998212 1.57169999941 -0.0531499832869
v -0.00350000010803 1.59105000100 -0.0503668971360
v -0.00329999998212 1.59105000100 -0.0501668974757
v -0.00329999998212 1.57169999941 -0.0531499832869
v 0.00329999998212 1.57169999941 -0.0531499832869
v -0.00329999998212 1.59105000100 -0.0501668974757
v 0.00329999998212 1.59105000100 -0.0501668974757
v 0.00329999998212 1.57169999941 -0.0531499832869
v 0.00350000010803 1.57169999941 -0.0533499829471
v 0.00329999998212 1.59105000100 -0.0501668974757
v 0.00350000010803 1.59105000100 -0.0503668971360
v 0.00350000010803 1.60825000158 -0.0459142886102
v 0.00350000010803 1.60825000158 -0.0476063936949
v 0.00350000010803 1.60825000158 -0.0476063936949
v 0.00329999998212 1.60825000158 -0.0478063933551
v 0.00329999998212 1.60825000158 -0.0478063933551
v -0.00329999998212 1.60825000158 -0.0478063933551
v -0.00329999998212 1.60825000158 -0.0478063933551
v -0.00350000010803 1.60825000158 -0.0476063936949
v -0.00350000010803 1.60825000158 -0.0476063936949
v -0.00350000010803 1.60825000158 -0.0459142886102
v -0.00350000010803 1.60825000158 -0.0459142886102
v -0.00329999998212 1.60825000158 -0.0457142889500
v -0.00329999998212 1.60825000158 -0.0457142889500
v 0.00329999998212 1.60825000158 -0.0457142889500
v 0.00329999998212 1.60825000158 -0.0457142889500
v 0.00350000010803 1.60825000158 -0.0459142886102
v 0.00350000010803 1.62329999930 -0.0405878983438
v 0.00350000010803 1.62329999930 -0.0423407256603
v 0.00350000010803 1.62329999930 -0.0423407256603
v 0.00329999998212 1.62329999930 -0.0425407290459
v 0.00329999998212 1.62329999930 -0.0425407290459
v -0.00329999998212 1.62329999930 -0.0425407290459
v -0.00329999998212 1.62329999930 -0.0425407290459
v -0.00350000010803 1.62329999930 -0.0423407256603
v -0.00350000010803 1.62329999930 -0.0423407256603
v -0.00350000010803 1.62329999930 -0.0405878983438
v -0.00350000010803 1.62329999930 -0.0405878983438
v -0.00329999998212 1.62329999930 -0.0403878986835
v -0.00329999998212 1.62329999930 -0.0403878986835
v 0.00329999998212 1.62329999930 -0.0403878986835
v 0.00329999998212 1.62329999930 -0.0403878986835
v 0.00350000010803 1.62329999930 -0.0405878983438
v 0.00350000010803 1.63620000160 -0.0348392389715
v 0.00350000010803 1.63620000160 -0.0366672538221
v 0.00350000010803 1.63620000160 -0.0366672538221
v 0.00329999998212 1.63620000160 -0.0368672534823
v 0.00329999998212 1.63620000160 -0.0368672534823
v -0.00329999998212 1.63620000160 -0.0368672534823
v -0.00329999998212 1.63620000160 -0.0368672534823
v -0.00350000010803 1.63620000160 -0.0366672538221
v -0.00350000010803 1.63620000160 -0.0366672538221
v -0.00350000010803 1.63620000160 -0.0348392389715
v -0.00350000010803 1.63620000160 -0.0348392389715
v -0.00329999998212 1.63620000160 -0.0346392393112
v -0.00329999998212 1.63620000160 -0.0346392393112
v 0.00329999998212 1.63620000160 -0.0346392393112
v 0.00329999998212 1.63620000160 -0.0346392393112
v 0.00350000010803 1.63620000160 -0.0348392389715
v 0.00350000010803 1.64479999816 -0.0302371606231
v 0.00350000010803 1.64479999816 -0.0321444980800
v 0.00350000010803 1.64479999816 -0.0321444980800
v 0.00329999998212 1.64479999816 -0.0323444977403
v 0.00329999998212 1.64479999816 -0.0323444977403
v -0.00329999998212 1.64479999816 -0.0323444977403
v -0.00329999998212 1.64479999816 -0.0323444977403
v -0.00350000010803 1.64479999816 -0.0321444980800
v -0.00350000010803 1.64479999816 -0.0321444980800
v -0.00350000010803 1.64479999816 -0.0302371606231
v -0.00350000010803 1.64479999816 -0.0302371606231
v -0.00329999998212 1.64479999816 -0.0300371609628
v -0.00329999998212 1.64479999816 -0.0300371609628
v 0.00329999998212 1.64479999816 -0.0300371609628
v 0.00329999998212 1.64479999816 -0.0300371609628
v 0.00350000010803 1.64479999816 -0.0302371606231
v 0.00351514574140 1.65125000304 -0.0261741988361
v 0.00351514574140 1.65125000304 -0.0282040536404
v 0.00351514574140 1.65125000304 -0.0282040536404
v 0.00331514584832 1.65125000304 -0.0284040533006
v 0.00331514584832 1.65125000304 -0.0284040533006
v -0.00331514584832 1.65125000304 -0.0284040533006
v -0.00331514584832 1.65125000304 -0.0284040533006
v -0.00351514574140 1.65125000304 -0.0282040536404
v -0.00351514574140 1.65125000304 -0.0282040536404
v -0.00351514574140 1.65125000304 -0.0261741988361
v -0.00351514574140 1.65125000304 -0.0261741988361
v -0.00331514584832 1.65125000304 -0.0259741991758
v -0.00331514584832 1.65125000304 -0.0259741991758
v 0.00331514584832 1.65125000304 -0.0259741991758
v 0.00331514584832 1.65125000304 -0.0259741991758
v 0.00351514574140 1.65125000304 -0.0261741988361
v 0.00372192775831 1.65555000132 -0.0228892378509
v 0.00372192775831 1.65555000132 -0.0252393037081
v 0.00372192775831 1.65555000132 -0.0252393037081
v 0.00352192763239 1.65555000132 -0.0254393033683
v 0.00352192763239 1.65555000132 -0.0254393033683
v -0.00352192763239 1.65555000132 -0.0254393033683
v -0.00352192763239 1.65555000132 -0.0254393033683
v -0.00372192775831 1.65555000132 -0.0252393037081
v -0.00372192775831 1.65555000132 -0.0252393037081
v -0.00372192775831 1.65555000132 -0.0228892378509
v -0.00372192775831 1.65555000132 -0.0228892378509
v -0.00352192763239 1.65555000132 -0.0226892381907
v -0.00352192763239 1.65555000132 -0.0226892381907
v 0.00352192763239 1.65555000132 -0.0226892381907
v 0.00352192763239 1.65555000132 -0.0226892381907
v 0.00372192775831 1.65555000132 -0.0228892378509
v 0.00391107099131 1.65877500004 -0.0199740584940
v 0.00391107099131 1.65877500004 -0.0225378703326
v 0.00391107099131 1.65877500004 -0.0225378703326
v 0.00371107109822 1.65877500004 -0.0227378699929
v 0.00371107109822 1.65877500004 -0.0227378699929
v -0.00371107109822 1.65877500004 -0.0227378699929
v -0.00371107109822 1.65877500004 -0.0227378699929
v -0.00391107099131 1.65877500004 -0.0225378703326
v -0.00391107099131 1.65877500004 -0.0225378703326
v -0.00391107099131 1.65877500004 -0.0199740584940
v -0.00391107099131 1.65877500004 -0.0199740584940
v -0.00371107109822 1.65877500004 -0.0197740588337
v -0.00371107109822 1.65877500004 -0.0197740588337
v 0.00371107109822 1.65877500004 -0.0197740588337
v 0.00371107109822 1.65877500004 -0.0197740588337
v 0.00391107099131 1.65877500004 -0.0199740584940
v 0.00398390786722 1.66070999777 -0.0178189501166
v 0.00398390786722 1.66070999777 -0.0204273387790
v 0.00398390786722 1.66070999777 -0.0204273387790
v 0.00378390797414 1.66070999777 -0.0206273384392
v 0.00378390797414 1.66070999777 -0.0206273384392
v -0.00378390797414 1.66070999777 -0.0206273384392
v -0.00378390797414 1.66070999777 -0.0206273384392
v -0.00398390786722 1.66070999777 -0.0204273387790
v -0.00398390786722 1.66070999777 -0.0204273387790
v -0.00398390786722 1.66070999777 -0.0178189501166
v -0.00398390786722 1.66070999777 -0.0178189501166
v -0.00378390797414 1.66070999777 -0.0176189504564
v -0.00378390797414 1.66070999777 -0.0176189504564
v 0.00378390797414 1.66070999777 -0.0176189504564
v 0.00378390797414 1.66070999777 -0.0176189504564
v 0.00398390786722 1.66070999777 -0.0178189501166
v 0.00400000018999 1.66199999875 -0.0154499998316
v 0.00400000018999 1.66199999875 -0.0180500000715
v 0.00400000018999 1.66199999875 -0.0180500000715
v 0.00380000006407 1.66199999875 -0.0182499997318
v 0.00380000006407 1.66199999875 -0.0182499997318
v -0.00380000006407 1.66199999875 -0.0182499997318
v -0.00380000006407 1.66199999875 -0.0182499997318
v -0.00400000018999 1.66199999875 -0.0180500000715
v -0.00400000018999 1.66199999875 -0.0180500000715
v -0.00400000018999 1.66199999875 -0.0154499998316
v -0.00400000018999 1.66199999875 -0.0154499998316
v -0.00380000006407 1.66199999875 -0.0152500001714
v -0.00380000006407 1.66199999875 -0.0152500001714
v 0.00380000006407 1.66199999875 -0.0152500001714
v 0.00380000006407 1.66199999875 -0.0152500001714
v 0.00400000018999 1.66199999875 -0.0154499998316
v 0.00400000018999 1.44700000262 -0.0154499998316
v 0.00400000018999 1.44700000262 -0.0180500000715
v 0.00400000018999 1.66199999875 -0.0154499998316
v 0.00400000018999 1.66199999875 -0.0180500000715
v -0.00400000018999 1.44700000262 -0.0180500000715
v -0.00400000018999 1.66199999875 -0.0180500000715
v -0.00400000018999 1.44700000262 -0.0154499998316
v -0.00400000018999 1.66199999875 -0.0154499998316
v -0.00380000006407 1.44700000262 -0.0152500001714
v -0.00380000006407 1.66199999875 -0.0152500001714
v 0.00380000006407 1.44700000262 -0.0152500001714
v 0.00380000006407 1.66199999875 -0.0152500001714
vt 0 0
vt 0.125 0
vt 0 0.006000000052154064
vt 0.125 0.006000000052154064
vt 0.125 0
vt 0.25 0
vt 0.125 0.006000000052154064
vt 0.25 0.006000000052154064
vt 0.25 0
vt 0.375 0
vt 0.25 0.006000000052154064
vt 0.375 0.006000000052154064
vt 0.375 0
vt 0.5 0
vt 0.375 0.006000000052154064
vt 0.5 0.006000000052154064
vt 0.5 0
vt 0.625 0
vt 0.5 0.006000000052154064
vt 0.625 0.006000000052154064
vt 0.625 0
vt 0.75 0
vt 0.625 0.006000000052154064
vt 0.75 0.006000000052154064
vt 0.75 0
vt 0.875 0
vt 0.75 0.006000000052154064
vt 0.875 0.006000000052154064
vt 0.875 0
vt 0 0
vt 0.875 0.006000000052154064
vt 0 0.006000000052154064
vt 0 0.014999999664723873
vt 0.125 0.014999999664723873
vt 0.125 0.014999999664723873
vt 0.25 0.014999999664723873
vt 0.25 0.006000000052154064
vt 0.375 0.006000000052154064
vt 0.25 0.014999999664723873
vt 0.375 0.014999999664723873
vt 0.375 0.014999999664723873
vt 0.5 0.014999999664723873
vt 0.5 0.014999999664723873
vt 0.625 0.014999999664723873
vt 0.625 0.014999999664723873
vt 0.75 0.014999999664723873
vt 0.75 0.014999999664723873
vt 0.875 0.014999999664723873
vt 0.875 0.014999999664723873
vt 0 0.014999999664723873
vt 0 0.029999999329447746
vt 0.125 0.029999999329447746
vt 0.125 0.029999999329447746
vt 0.25 0.029999999329447746
vt 0.25 0.029999999329447746
vt 0.375 0.029999999329447746
vt 0.375 0.029999999329447746
vt 0.5 0.029999999329447746
vt 0.5 0.029999999329447746
vt 0.625 0.029999999329447746
vt 0.625 0.029999999329447746
vt 0.75 0.029999999329447746
vt 0.75 0.029999999329447746
vt 0.875 0.029999999329447746
vt 0.875 0.029999999329447746
vt 0 0.029999999329447746
vt 0 0.05000000074505806
vt 0.125 0.05000000074505806
vt 0.125 0.029999999329447746
vt 0.25 0.029999999329447746
vt 0.125 0.05000000074505806
vt 0.25 0.05000000074505806
vt 0.25 0.05000000074505806
vt 0.375 0.05000000074505806
vt 0.375 0.029999999329447746
vt 0.5 0.029999999329447746
vt 0.375 0.05000000074505806
vt 0.5 0.05000000074505806
vt 0.5 0.05000000074505806
vt 0.625 0.05000000074505806
vt 0.625 0.05000000074505806
vt 0.75 0.05000000074505806
vt 0.75 0.05000000074505806
vt 0.875 0.05000000074505806
vt 0.875 0.05000000074505806
vt 0 0.05000000074505806
vt 0 0.07999999821186066
vt 0.125 0.07999999821186066
vt 0.125 0.07999999821186066
vt 0.25 0.07999999821186066
vt 0.25 0.07999999821186066
vt 0.375 0.07999999821186066
vt 0.375 0.07999999821186066
vt 0.5 0.07999999821186066
vt 0.5 0.07999999821186066
vt 0.625 0.07999999821186066
vt 0.625 0.07999999821186066
vt 0.75 0.07999999821186066
vt 0.75 0.07999999821186066
vt 0.875 0.07999999821186066
vt 0.875 0.07999999821186066
vt 0 0.07999999821186066
vt 0 0.11999999731779099
vt 0.125 0.11999999731779099
vt 0.125 0.11999999731779099
vt 0.25 0.11999999731779099
vt 0.25 0.11999999731779099
vt 0.375 0.11999999731779099
vt 0.375 0.11999999731779099
vt 0.5 0.11999999731779099
vt 0.5 0.11999999731779099
vt 0.625 0.11999999731779099
vt 0.625 0.11999999731779099
vt 0.75 0.11999999731779099
vt 0.75 0.11999999731779099
vt 0.875 0.11999999731779099
vt 0.875 0.11999999731779099
vt 0 0.11999999731779099
vt 0 0.18000000715255737
vt 0.125 0.18000000715255737
vt 0.125 0.18000000715255737
vt 0.25 0.18000000715255737
vt 0.25 0.18000000715255737
vt 0.375 0.18000000715255737
vt 0.375 0.18000000715255737
vt 0.5 0.18000000715255737
vt 0.5 0.18000000715255737
vt 0.625 0.18000000715255737
vt 0.625 0.18000000715255737
vt 0.75 0.18000000715255737
vt 0.75 0.18000000715255737
vt 0.875 0.18000000715255737
vt 0.875 0.18000000715255737
vt 0 0.18000000715255737
vt 0 0.25
vt 0.125 0.25
vt 0.125 0.25
vt 0.25 0.25
vt 0.25 0.25
vt 0.375 0.25
vt 0.375 0.25
vt 0.5 0.25
vt 0.5 0.25
vt 0.625 0.25
vt 0.625 0.25
vt 0.75 0.25
vt 0.75 0.25
vt 0.875 0.25
vt 0.875 0.25
vt 0 0.25
vt 0 0.33000001311302185
vt 0.125 0.33000001311302185
vt 0.125 0.33000001311302185
vt 0.25 0.33000001311302185
vt 0.25 0.33000001311302185
vt 0.375 0.33000001311302185
vt 0.375 0.33000001311302185
vt 0.5 0.33000001311302185
vt 0.5 0.33000001311302185
vt 0.625 0.33000001311302185
vt 0.625 0.33000001311302185
vt 0.75 0.33000001311302185
vt 0.75 0.33000001311302185
vt 0.875 0.33000001311302185
vt 0.875 0.33000001311302185
vt 0 0.33000001311302185
vt 0 0.41999998688697815
vt 0.125 0.41999998688697815
vt 0.125 0.41999998688697815
vt 0.25 0.41999998688697815
vt 0.25 0.41999998688697815
vt 0.375 0.41999998688697815
vt 0.375 0.41999998688697815
vt 0.5 0.41999998688697815
vt 0.5 0.41999998688697815
vt 0.625 0.41999998688697815
vt 0.625 0.41999998688697815
vt 0.75 0.41999998688697815
vt 0.75 0.41999998688697815
vt 0.875 0.41999998688697815
vt 0.875 0.41999998688697815
vt 0 0.41999998688697815
vt 0 0.5
vt 0.125 0.5
vt 0.125 0.41999998688697815
vt 0.25 0.41999998688697815
vt 0.125 0.5
vt 0.25 0.5
vt 0.25 0.41999998688697815
vt 0.375 0.41999998688697815
vt 0.25 0.5
vt 0.375 0.5
vt 0.375 0.41999998688697815
vt 0.5 0.41999998688697815
vt 0.375 0.5
vt 0.5 0.5
vt 0.5 0.5
vt 0.625 0.5
vt 0.625 0.41999998688697815
vt 0.75 0.41999998688697815
vt 0.625 0.5
vt 0.75 0.5
vt 0.75 0.41999998688697815
vt 0.875 0.41999998688697815
vt 0.75 0.5
vt 0.875 0.5
vt 0.875 0.41999998688697815
vt 0 0.41999998688697815
vt 0.875 0.5
vt 0 0.5
vt 0 0.5799999833106995
vt 0.125 0.5799999833106995
vt 0.125 0.5
vt 0.25 0.5
vt 0.125 0.5799999833106995
vt 0.25 0.5799999833106995
vt 0.25 0.5
vt 0.375 0.5
vt 0.25 0.5799999833106995
vt 0.375 0.5799999833106995
vt 0.375 0.5
vt 0.5 0.5
vt 0.375 0.5799999833106995
vt 0.5 0.5799999833106995
vt 0.5 0.5799999833106995
vt 0.625 0.5799999833106995
vt 0.625 0.5
vt 0.75 0.5
vt 0.625 0.5799999833106995
vt 0.75 0.5799999833106995
vt 0.75 0.5
vt 0.875 0.5
vt 0.75 0.5799999833106995
vt 0.875 0.5799999833106995
vt 0.875 0.5
vt 0 0.5
vt 0.875 0.5799999833106995
vt 0 0.5799999833106995
vt 0 0.6700000166893005
vt 0.125 0.6700000166893005
vt 0.125 0.5799999833106995
vt 0.25 0.5799999833106995
vt 0.125 0.6700000166893005
vt 0.25 0.6700000166893005
vt 0.25 0.5799999833106995
vt 0.375 0.5799999833106995
vt 0.25 0.6700000166893005
vt 0.375 0.6700000166893005
vt 0.375 0.5799999833106995
vt 0.5 0.5799999833106995
vt 0.375 0.6700000166893005
vt 0.5 0.6700000166893005
vt 0.5 0.6700000166893005
vt 0.625 0.6700000166893005
vt 0.625 0.5799999833106995
vt 0.75 0.5799999833106995
vt 0.625 0.6700000166893005
vt 0.75 0.6700000166893005
vt 0.75 0.5799999833106995
vt 0.875 0.5799999833106995
vt 0.75 0.6700000166893005
vt 0.875 0.6700000166893005
vt 0.875 0.5799999833106995
vt 0 0.5799999833106995
vt 0.875 0.6700000166893005
vt 0 0.6700000166893005
vt 0 0.75
vt 0.125 0.75
vt 0.125 0.75
vt 0.25 0.75
vt 0.25 0.75
vt 0.375 0.75
vt 0.375 0.75
vt 0.5 0.75
vt 0.5 0.75
vt 0.625 0.75
vt 0.625 0.75
vt 0.75 0.75
vt 0.75 0.75
vt 0.875 0.75
vt 0.875 0.75
vt 0 0.75
vt 0 0.8199999928474426
vt 0.125 0.8199999928474426
vt 0.125 0.8199999928474426
vt 0.25 0.8199999928474426
vt 0.25 0.8199999928474426
vt 0.375 0.8199999928474426
vt 0.375 0.8199999928474426
vt 0.5 0.8199999928474426
vt 0.5 0.8199999928474426
vt 0.625 0.8199999928474426
vt 0.625 0.8199999928474426
vt 0.75 0.8199999928474426
vt 0.75 0.8199999928474426
vt 0.875 0.8199999928474426
vt 0.875 0.8199999928474426
vt 0 0.8199999928474426
vt 0 0.8799999952316284
vt 0.125 0.8799999952316284
vt 0.125 0.8799999952316284
vt 0.25 0.8799999952316284
vt 0.25 0.8799999952316284
vt 0.375 0.8799999952316284
vt 0.375 0.8799999952316284
vt 0.5 0.8799999952316284
vt 0.5 0.8799999952316284
vt 0.625 0.8799999952316284
vt 0.625 0.8799999952316284
vt 0.75 0.8799999952316284
vt 0.75 0.8799999952316284
vt 0.875 0.8799999952316284
vt 0.875 0.8799999952316284
vt 0 0.8799999952316284
vt 0 0.9200000166893005
vt 0.125 0.9200000166893005
vt 0.125 0.9200000166893005
vt 0.25 0.9200000166893005
vt 0.25 0.9200000166893005
vt 0.375 0.9200000166893005
vt 0.375 0.9200000166893005
vt 0.5 0.9200000166893005
vt 0.5 0.9200000166893005
vt 0.625 0.9200000166893005
vt 0.625 0.9200000166893005
vt 0.75 0.9200000166893005
vt 0.75 0.9200000166893005
vt 0.875 0.9200000166893005
vt 0.875 0.9200000166893005
vt 0 0.9200000166893005
vt 0 0.949999988079071
vt 0.125 0.949999988079071
vt 0.125 0.949999988079071
vt 0.25 0.949999988079071
vt 0.25 0.949999988079071
vt 0.375 0.949999988079071
vt 0.375 0.949999988079071
vt 0.5 0.949999988079071
vt 0.5 0.949999988079071
vt 0.625 0.949999988079071
vt 0.625 0.949999988079071
vt 0.75 0.949999988079071
vt 0.75 0.949999988079071
vt 0.875 0.949999988079071
vt 0.875 0.949999988079071
vt 0 0.949999988079071
vt 0 0.9700000286102295
vt 0.125 0.9700000286102295
vt 0.125 0.9700000286102295
vt 0.25 0.9700000286102295
vt 0.25 0.9700000286102295
vt 0.375 0.9700000286102295
vt 0.375 0.9700000286102295
vt 0.5 0.9700000286102295
vt 0.5 0.9700000286102295
vt 0.625 0.9700000286102295
vt 0.625 0.9700000286102295
vt 0.75 0.9700000286102295
vt 0.75 0.9700000286102295
vt 0.875 0.9700000286102295
vt 0.875 0.9700000286102295
vt 0 0.9700000286102295
vt 0 0.9850000143051147
vt 0.125 0.9850000143051147
vt 0.125 0.9850000143051147
vt 0.25 0.9850000143051147
vt 0.25 0.9850000143051147
vt 0.375 0.9850000143051147
vt 0.375 0.9850000143051147
vt 0.5 0.9850000143051147
vt 0.5 0.9850000143051147
vt 0.625 0.9850000143051147
vt 0.625 0.9850000143051147
vt 0.75 0.9850000143051147
vt 0.75 0.9850000143051147
vt 0.875 0.9850000143051147
vt 0.875 0.9850000143051147
vt 0 0.9850000143051147
vt 0 0.9940000176429749
vt 0.125 0.9940000176429749
vt 0.125 0.9940000176429749
vt 0.25 0.9940000176429749
vt 0.25 0.9940000176429749
vt 0.375 0.9940000176429749
vt 0.375 0.9940000176429749
vt 0.5 0.9940000176429749
vt 0.5 0.9940000176429749
vt 0.625 0.9940000176429749
vt 0.625 0.9940000176429749
vt 0.75 0.9940000176429749
vt 0.75 0.9940000176429749
vt 0.875 0.9940000176429749
vt 0.875 0.9940000176429749
vt 0 0.9940000176429749
vt 0 1
vt 0.125 1
vt 0.125 1
vt 0.25 1
vt 0.25 1
vt 0.375 1
vt 0.375 1
vt 0.5 1
vt 0.5 1
vt 0.625 1
vt 0.625 1
vt 0.75 1
vt 0.75 1
vt 0.875 1
vt 0.875 1
vt 0 1
vt 0 0
vt 0.125 0
vt 0 1
vt 0.125 1
vt 0.5 0
vt 0.5 1
vt 0.625 0
vt 0.625 1
vt 0.75 0
vt 0.75 1
vt 0.875 0
vt 0.875 1
vn 0.999662539460 0.0259770514302 1.22423352918e-16
vn 0.999662539460 0.0259770514302 1.22423352918e-16
vn 0.999662539460 0.0259770514302 1.22423352918e-16
vn 0.998901890498 0.0468509675364 1.22330200286e-16
vn 0.0558836078630 -0.991495176164 -0.117534412050
vn 0.0558836078630 -0.991495176164 -0.117534412050
vn 0.305513562677 -0.670395080454 -0.676189248009
vn 0.305513562677 -0.670395080454 -0.676189248009
vn 1.03860324629e-9 -0.987663291559 -0.156592536562
vn 1.03860324629e-9 -0.987663291559 -0.156592536562
vn -6.32202581157e-10 -0.718067870013 -0.695973084290
vn -6.32202581157e-10 -0.718067870013 -0.695973084290
vn -0.0558836078630 -0.991495176164 -0.117534412050
vn -0.0558836078630 -0.991495176164 -0.117534412050
vn -0.305513562677 -0.670395080454 -0.676189248009
vn -0.305513562677 -0.670395080454 -0.676189248009
vn -0.999516332018 0.0310982640759 -1.22405447670e-16
vn -0.999516332018 0.0310982640759 -1.22405447670e-16
vn -0.999074529035 0.0430126194643 -1.22351342409e-16
vn -0.999516332018 0.0310982640759 -1.22405447670e-16
vn -0.265945760096 0.767250054401 0.583609635552
vn -0.265945760096 0.767250054401 0.583609635552
vn -0.265945760096 0.767250054401 0.583609635552
vn -0.265945760096 0.767250054401 0.583609635552
vn -3.43657066031e-10 0.797925950171 0.602755487776
vn -3.43657066031e-10 0.797925950171 0.602755487776
vn -3.43657066031e-10 0.797925950171 0.602755487776
vn -3.43657066031e-10 0.797925950171 0.602755487776
vn 0.265945760096 0.767250054401 0.583609635552
vn 0.265945760096 0.767250054401 0.583609635552
vn 0.265945760096 0.767250054401 0.583609635552
vn 0.265945760096 0.767250054401 0.583609635552
vn 0.999662539460 0.0259770514302 1.22423352918e-16
vn 0.998901890498 0.0468509675364 1.22330200286e-16
vn 0.305513562677 -0.670395080454 -0.676189248009
vn 0.305513562677 -0.670395080454 -0.676189248009
vn -3.72974954995e-10 -0.702243928735 -0.711936418899
vn -3.72974954995e-10 -0.702243928735 -0.711936418899
vn -3.72974954995e-10 -0.702243928735 -0.711936418899
vn -3.72974954995e-10 -0.702243928735 -0.711936418899
vn -0.305513562677 -0.670395080454 -0.676189248009
vn -0.305513562677 -0.670395080454 -0.676189248009
vn -0.999074529035 0.0430126194643 -1.22351342409e-16
vn -0.999516332018 0.0310982640759 -1.22405447670e-16
vn -0.265945760096 0.767250054401 0.583609635552
vn -0.265945760096 0.767250054401 0.583609635552
vn -3.43657066031e-10 0.797925950171 0.602755487776
vn -3.43657066031e-10 0.797925950171 0.602755487776
vn 0.265945760096 0.767250054401 0.583609635552
vn 0.265945760096 0.767250054401 0.583609635552
vn 0.998901890498 0.0468509675364 1.22330200286e-16
vn 0.998901890498 0.0468509675364 1.22330200286e-16
vn 0.305513562677 -0.670395080454 -0.676189248009
vn 0.305513562677 -0.670395080454 -0.676189248009
vn -3.72974954995e-10 -0.702243928735 -0.711936418899
vn -3.72974954995e-10 -0.702243928735 -0.711936418899
vn -0.305513562677 -0.670395080454 -0.676189248009
vn -0.305513562677 -0.670395080454 -0.676189248009
vn -0.999074529035 0.0430126194643 -1.22351342409e-16
vn -0.999074529035 0.0430126194643 -1.22351342409e-16
vn -0.315875379577 0.616653379549 0.721083458462
vn -0.315875379577 0.616653379549 0.721083458462
vn 1.54044776039e-9 0.653957295739 0.756531463556
vn 1.54044776039e-9 0.653957295739 0.756531463556
vn 0.315875379577 0.616653379549 0.721083458462
vn 0.315875379577 0.616653379549 0.721083458462
vn 0.999682496848 0.0251973311343 1.22425796993e-16
vn 0.999682496848 0.0251973311343 1.22425796993e-16
vn 0.332092652637 -0.644095141924 -0.689097901763
vn 0.332092652637 -0.644095141924 -0.689097901763
vn 0.344539707460 -0.505368002407 -0.791135621829
vn 0.344539707460 -0.505368002407 -0.791135621829
vn -1.00959462759e-9 -0.535801822523 -0.844343772986
vn -1.00959462759e-9 -0.535801822523 -0.844343772986
vn -0.332092652637 -0.644095141924 -0.689097901763
vn -0.332092652637 -0.644095141924 -0.689097901763
vn -0.344539707460 -0.505368002407 -0.791135621829
vn -0.344539707460 -0.505368002407 -0.791135621829
vn -0.999682496848 0.0251973311343 -1.22425796993e-16
vn -0.999682496848 0.0251973311343 -1.22425796993e-16
vn -0.334289612152 0.543406250964 0.770039026037
vn -0.334289612152 0.543406250964 0.770039026037
vn -1.06397799639e-9 0.578906352260 0.815394036839
vn -1.06397799639e-9 0.578906352260 0.815394036839
vn 0.334289612152 0.543406250964 0.770039026037
vn 0.334289612152 0.543406250964 0.770039026037
vn 0.999999310772 0.00117407684011 1.22464595509e-16
vn 0.999999310772 0.00117407684011 1.22464595509e-16
vn 0.350422623140 -0.462132814667 -0.814639335412
vn 0.350422623140 -0.462132814667 -0.814639335412
vn 4.00041575674e-10 -0.493327703326 -0.869843536006
vn 4.00041575674e-10 -0.493327703326 -0.869843536006
vn -0.350422623140 -0.462132814667 -0.814639335412
vn -0.350422623140 -0.462132814667 -0.814639335412
vn -0.999999310772 0.00117407684011 -1.22464595509e-16
vn -0.999999310772 0.00117407684011 -1.22464595509e-16
vn -0.348790189714 0.471554058746 0.809927264166
vn -0.348790189714 0.471554058746 0.809927264166
vn 4.07306131323e-10 0.503324321025 0.864097580059
vn 4.07306131323e-10 0.503324321025 0.864097580059
vn 0.348790194616 0.471554035570 0.809927275548
vn 0.348790194616 0.471554035570 0.809927275548
vn 1.00000000000 0.00000000000 1.22464679915e-16
vn 1.00000000000 0.00000000000 1.22464679915e-16
vn 0.358476575382 -0.405519540771 -0.840861728797
vn 0.358476575382 -0.405519540771 -0.840861728797
vn 2.62229159700e-9 -0.434430299803 -0.900705453860
vn 2.62229159700e-9 -0.434430299803 -0.900705453860
vn -0.358476571049 -0.405519565673 -0.840861718635
vn -0.358476571049 -0.405519565673 -0.840861718635
vn -1.00000000000 0.00000000000 -1.22464679915e-16
vn -1.00000000000 0.00000000000 -1.22464679915e-16
vn -0.357794798128 0.410709805990 0.838630036247
vn -0.357794798128 0.410709805990 0.838630036247
vn -9.50993627438e-17 0.439869977501 0.898061469440
vn -9.50993627438e-17 0.439869977501 0.898061469440
vn 0.357794798128 0.410709805990 0.838630036247
vn 0.357794798128 0.410709805990 0.838630036247
vn 1.00000000000 0.00000000000 1.22464679915e-16
vn 1.00000000000 0.00000000000 1.22464679915e-16
vn 0.365995473836 -0.341354138345 -0.865750925709
vn 0.365995473836 -0.341354138345 -0.865750925709
vn -4.54093201501e-9 -0.366848353945 -0.930280756120
vn -4.54093201501e-9 -0.366848353945 -0.930280756120
vn -0.365995458673 -0.341354094401 -0.865750949446
vn -0.365995458673 -0.341354094401 -0.865750949446
vn -1.00000000000 0.00000000000 -1.22464679915e-16
vn -1.00000000000 0.00000000000 -1.22464679915e-16
vn -0.365603328482 0.345076293443 0.864440025627
vn -0.365603328482 0.345076293443 0.864440025627
vn -9.87162582526e-17 0.370788545118 0.928717316954
vn -9.87162582526e-17 0.370788545118 0.928717316954
vn 0.365603328482 0.345076293443 0.864440025627
vn 0.365603328482 0.345076293443 0.864440025627
vn 1.00000000000 0.00000000000 1.22464679915e-16
vn 1.00000000000 0.00000000000 1.22464679915e-16
vn 0.372622511478 -0.268656486283 -0.888243297930
vn 0.372622511478 -0.268656486283 -0.888243297930
vn 1.91068863312e-9 -0.289549681534 -0.957162986081
vn 1.91068863312e-9 -0.289549681534 -0.957162986081
vn -0.372622528223 -0.268656528158 -0.888243278240
vn -0.372622528223 -0.268656528158 -0.888243278240
vn -1.00000000000 0.00000000000 -1.22464679915e-16
vn -1.00000000000 0.00000000000 -1.22464679915e-16
vn -0.372401455401 0.271469510418 0.887480400307
vn -0.372401455401 0.271469510418 0.887480400307
vn -1.32249990547e-16 0.292554380879 0.956248887178
vn -1.32249990547e-16 0.292554380879 0.956248887178
vn 0.372401455401 0.271469510418 0.887480400307
vn 0.372401455401 0.271469510418 0.887480400307
vn 1.00000000000 0.00000000000 1.22464679915e-16
vn 1.00000000000 0.00000000000 1.22464679915e-16
vn 0.378083101427 -0.184881668142 -0.907122889801
vn 0.378083101427 -0.184881668142 -0.907122889801
vn 1.04744714879e-16 -0.199746887580 -0.979847529416
vn 1.04744714879e-16 -0.199746887580 -0.979847529416
vn -0.378083101427 -0.184881668142 -0.907122889801
vn -0.378083101427 -0.184881668142 -0.907122889801
vn -1.00000000000 0.00000000000 -1.22464679915e-16
vn -1.00000000000 0.00000000000 -1.22464679915e-16
vn -0.377981331980 0.186871348356 0.906757526486
vn -0.377981331980 0.186871348356 0.906757526486
vn -1.19942954841e-16 0.201888305854 0.979408552117
vn -1.19942954841e-16 0.201888305854 0.979408552117
vn 0.377981331980 0.186871348356 0.906757526486
vn 0.377981331980 0.186871348356 0.906757526486
vn 1.00000000000 0.00000000000 1.22464679915e-16
vn 1.00000000000 0.00000000000 1.22464679915e-16
vn 0.381646206764 -0.0923727207087 -0.919681169391
vn 0.381646206764 -0.0923727207087 -0.919681169391
vn 1.43214640103e-16 -0.121058199284 -0.992645411205
vn 1.43214640103e-16 -0.121058199284 -0.992645411205
vn -0.381646206239 -0.0923727354827 -0.919681168125
vn -0.381646206239 -0.0923727354827 -0.919681168125
vn -1.00000000000 0.00000000000 -1.22464679915e-16
vn -1.00000000000 0.00000000000 -1.22464679915e-16
vn -0.381621890083 0.0934055355604 0.919586939303
vn -0.381621890083 0.0934055355604 0.919586939303
vn -1.21543791060e-16 0.122403886765 0.992480371849
vn -1.21543791060e-16 0.122403886765 0.992480371849
vn 0.381621890083 0.0934055355604 0.919586939303
vn 0.381621890083 0.0934055355604 0.919586939303
vn 1.00000000000 0.00000000000 1.22464679915e-16
vn 1.00000000000 0.00000000000 1.22464679915e-16
vn 0.503966447473 -0.0681037153425 -0.861034089789
vn 0.503966447473 -0.0681037153425 -0.861034089789
vn 0.505468310890 -0.0174530726604 -0.862668636813
vn 0.505468310890 -0.0174530726604 -0.862668636813
vn 2.57695381994e-10 -0.0999595174085 -0.994991504928
vn 2.57695381994e-10 -0.0999595174085 -0.994991504928
vn -3.64892460591e-10 -0.0202412844469 -0.999795124215
vn -3.64892460591e-10 -0.0202412844469 -0.999795124215
vn -0.503966446961 -0.0681037301745 -0.861034088915
vn -0.503966446961 -0.0681037301745 -0.861034088915
vn -0.505468311202 -0.0174530372810 -0.862668637346
vn -0.505468311202 -0.0174530372810 -0.862668637346
vn -1.00000000000 0.00000000000 -1.22464679915e-16
vn -1.00000000000 0.00000000000 -1.22464679915e-16
vn -0.503931940630 0.0688723252628 0.860993148652
vn -0.503931940630 0.0688723252628 0.860993148652
vn -0.505464964158 0.0176527199717 0.862666535509
vn -0.505464964158 0.0176527199717 0.862666535509
vn -1.37158040367e-16 0.101076543571 0.994878652068
vn -1.37158040367e-16 0.101076543571 0.994878652068
vn -1.44133883140e-16 0.0204733224957 0.999790399567
vn -1.44133883140e-16 0.0204733224957 0.999790399567
vn 0.503931940630 0.0688723252628 0.860993148652
vn 0.503931940630 0.0688723252628 0.860993148652
vn 0.505464964158 0.0176527199717 0.862666535509
vn 0.505464964158 0.0176527199717 0.862666535509
vn 1.00000000000 0.00000000000 1.22464679915e-16
vn 1.00000000000 0.00000000000 1.22464679915e-16
vn 0.505468311202 0.0174530372810 -0.862668637346
vn 0.505468311202 0.0174530372810 -0.862668637346
vn 0.503966446961 0.0681037301745 -0.861034088915
vn 0.503966446961 0.0681037301745 -0.861034088915
vn 3.64892705457e-10 0.0202412863088 -0.999795124177
vn 3.64892705457e-10 0.0202412863088 -0.999795124177
vn -2.57695166239e-10 0.0999595100324 -0.994991505669
vn -2.57695166239e-10 0.0999595100324 -0.994991505669
vn -0.505468310873 0.0174530745225 -0.862668636785
vn -0.505468310873 0.0174530745225 -0.862668636785
vn -0.503966447473 0.0681037153425 -0.861034089789
vn -0.503966447473 0.0681037153425 -0.861034089789
vn -1.00000000000 0.00000000000 -1.22464679915e-16
vn -1.00000000000 0.00000000000 -1.22464679915e-16
vn -0.505464964158 -0.0176527199717 0.862666535509
vn -0.505464964158 -0.0176527199717 0.862666535509
vn -0.503931940630 -0.0688723252628 0.860993148652
vn -0.503931940630 -0.0688723252628 0.860993148652
vn -1.44133883135e-16 -0.0204733243576 0.999790399529
vn -1.44133883135e-16 -0.0204733243576 0.999790399529
vn -1.52478585170e-16 -0.101076536196 0.994878652817
vn -1.52478585170e-16 -0.101076536196 0.994878652817
vn 0.505464964158 -0.0176527199717 0.862666535509
vn 0.505464964158 -0.0176527199717 0.862666535509
vn 0.503931940630 -0.0688723252628 0.860993148652
vn 0.503931940630 -0.0688723252628 0.860993148652
vn 1.00000000000 0.00000000000 1.22464679915e-16
vn 1.00000000000 0.00000000000 1.22464679915e-16
vn 0.381646206501 0.0923727280957 -0.919681168758
vn 0.381646206501 0.0923727280957 -0.919681168758
vn 0.378083101427 0.184881668142 -0.907122889801
vn 0.378083101427 0.184881668142 -0.907122889801
vn 9.99133650909e-17 0.121058191942 -0.992645412100
vn 9.99133650909e-17 0.121058191942 -0.992645412100
vn 1.04744714879e-16 0.199746887580 -0.979847529416
vn 1.04744714879e-16 0.199746887580 -0.979847529416
vn -0.381646206764 0.0923727207087 -0.919681169391
vn -0.381646206764 0.0923727207087 -0.919681169391
vn -0.378083101427 0.184881668142 -0.907122889801
vn -0.378083101427 0.184881668142 -0.907122889801
vn -1.00000000000 0.00000000000 -1.22464679915e-16
vn -1.00000000000 0.00000000000 -1.22464679915e-16
vn -0.381621890083 -0.0934055355604 0.919586939303
vn -0.381621890083 -0.0934055355604 0.919586939303
vn -0.377981333032 -0.186871333975 0.906757529011
vn -0.377981333032 -0.186871333975 0.906757529011
vn -1.21543791282e-16 -0.122403872087 0.992480373659
vn -1.21543791282e-16 -0.122403872087 0.992480373659
vn -1.35193260528e-16 -0.201888291560 0.979408555063
vn -1.35193260528e-16 -0.201888291560 0.979408555063
vn 0.381621890083 -0.0934055355604 0.919586939303
vn 0.381621890083 -0.0934055355604 0.919586939303
vn 0.377981333032 -0.186871333975 0.906757529011
vn 0.377981333032 -0.186871333975 0.906757529011
vn 1.00000000000 0.00000000000 1.22464679915e-16
vn 1.00000000000 0.00000000000 1.22464679915e-16
vn 0.372622528223 0.268656528158 -0.888243278240
vn 0.372622528223 0.268656528158 -0.888243278240
vn -1.91068839869e-9 0.289549681534 -0.957162986081
vn -1.91068839869e-9 0.289549681534 -0.957162986081
vn -0.372622511478 0.268656486283 -0.888243297930
vn -0.372622511478 0.268656486283 -0.888243297930
vn -1.00000000000 0.00000000000 -1.22464679915e-16
vn -1.00000000000 0.00000000000 -1.22464679915e-16
vn -0.372401455401 -0.271469510418 0.887480400307
vn -0.372401455401 -0.271469510418 0.887480400307
vn -1.32249990547e-16 -0.292554380879 0.956248887178
vn -1.32249990547e-16 -0.292554380879 0.956248887178
vn 0.372401455401 -0.271469510418 0.887480400307
vn 0.372401455401 -0.271469510418 0.887480400307
vn 1.00000000000 0.00000000000 1.22464679915e-16
vn 1.00000000000 0.00000000000 1.22464679915e-16
vn 0.365995458673 0.341354094401 -0.865750949446
vn 0.365995458673 0.341354094401 -0.865750949446
vn 4.54093224287e-9 0.366848353945 -0.930280756120
vn 4.54093224287e-9 0.366848353945 -0.930280756120
vn -0.365995473836 0.341354138345 -0.865750925709
vn -0.365995473836 0.341354138345 -0.865750925709
vn -1.00000000000 0.00000000000 -1.22464679915e-16
vn -1.00000000000 0.00000000000 -1.22464679915e-16
vn -0.365603328482 -0.345076293443 0.864440025627
vn -0.365603328482 -0.345076293443 0.864440025627
vn -1.28753879651e-16 -0.370788545118 0.928717316954
vn -1.28753879651e-16 -0.370788545118 0.928717316954
vn 0.365603328482 -0.345076293443 0.864440025627
vn 0.365603328482 -0.345076293443 0.864440025627
vn 0.999999827693 -0.000587038292178 1.22464658813e-16
vn 0.999999827693 -0.000587038292178 1.22464658813e-16
vn 0.354618373683 0.434088204187 -0.828138418401
vn 0.354618373683 0.434088204187 -0.828138418401
vn -1.50688529819e-9 0.464271221410 -0.885693080570
vn -1.50688529819e-9 0.464271221410 -0.885693080570
vn -0.354618378271 0.434088180000 -0.828138429115
vn -0.354618378271 0.434088180000 -0.828138429115
vn -0.999999827693 -0.000587038292178 -1.22464658813e-16
vn -0.999999827693 -0.000587038292178 -1.22464658813e-16
vn -0.353487934540 -0.441441381815 0.824727704491
vn -0.353487934540 -0.441441381815 0.824727704491
vn -2.04819940552e-10 -0.472063999572 0.881564280304
vn -2.04819940552e-10 -0.472063999572 0.881564280304
vn 0.353487934540 -0.441441381815 0.824727704491
vn 0.353487934540 -0.441441381815 0.824727704491
vn 0.999999827693 -0.000587038292178 1.22464658813e-16
vn 0.999999827693 -0.000587038292178 1.22464658813e-16
vn 0.354618373683 0.434088204187 -0.828138418401
vn 0.354618373683 0.434088204187 -0.828138418401
vn -1.50688529819e-9 0.464271221410 -0.885693080570
vn -1.50688529819e-9 0.464271221410 -0.885693080570
vn -0.354618378271 0.434088180000 -0.828138429115
vn -0.354618378271 0.434088180000 -0.828138429115
vn -0.999999827693 -0.000587038292178 -1.22464658813e-16
vn -0.999999827693 -0.000587038292178 -1.22464658813e-16
vn -0.353487934540 -0.441441381815 0.824727704491
vn -0.353487934540 -0.441441381815 0.824727704491
vn -2.04819940552e-10 -0.472063999572 0.881564280304
vn -2.04819940552e-10 -0.472063999572 0.881564280304
vn 0.353487934540 -0.441441381815 0.824727704491
vn 0.353487934540 -0.441441381815 0.824727704491
vn 0.999229417581 -0.0392501088116 1.22370310785e-16
vn 0.999229417581 -0.0392501088116 1.22370310785e-16
vn 0.340247382208 0.532640083173 -0.774936294606
vn 0.340247382208 0.532640083173 -0.774936294606
vn -2.41404071680e-10 0.562843080784 -0.826563770325
vn -2.41404071680e-10 0.562843080784 -0.826563770325
vn -0.340247382208 0.532640083173 -0.774936294606
vn -0.340247382208 0.532640083173 -0.774936294606
vn -0.999229417581 -0.0392501088116 -1.22370310785e-16
vn -0.999229417581 -0.0392501088116 -1.22370310785e-16
vn -0.325379916902 -0.580746368409 0.746231576159
vn -0.325379916902 -0.580746368409 0.746231576159
vn -2.50880182437e-10 -0.617490509420 0.786578330986
vn -2.50880182437e-10 -0.617490509420 0.786578330986
vn 0.325379916902 -0.580746368409 0.746231576159
vn 0.325379916902 -0.580746368409 0.746231576159
vn 0.999229417581 -0.0392501088116 1.22370310785e-16
vn 0.999229417581 -0.0392501088116 1.22370310785e-16
vn 0.340247382208 0.532640083173 -0.774936294606
vn 0.340247382208 0.532640083173 -0.774936294606
vn -2.41404071680e-10 0.562843080784 -0.826563770325
vn -2.41404071680e-10 0.562843080784 -0.826563770325
vn -0.340247382208 0.532640083173 -0.774936294606
vn -0.340247382208 0.532640083173 -0.774936294606
vn -0.999229417581 -0.0392501088116 -1.22370310785e-16
vn -0.999229417581 -0.0392501088116 -1.22370310785e-16
vn -0.325379916902 -0.580746368409 0.746231576159
vn -0.325379916902 -0.580746368409 0.746231576159
vn -2.50880182437e-10 -0.617490509420 0.786578330986
vn -2.50880182437e-10 -0.617490509420 0.786578330986
vn 0.325379916902 -0.580746368409 0.746231576159
vn 0.325379916902 -0.580746368409 0.746231576159
vn 0.999516332018 -0.0310982640759 1.22405447670e-16
vn 0.999464300930 -0.0327278347370 1.22399075700e-16
vn 0.288307251173 0.720591310752 -0.630576792937
vn 0.288307251173 0.720591310752 -0.630576792937
vn 1.26474338024e-9 0.751324170454 -0.659933323065
vn 1.26474338024e-9 0.751324170454 -0.659933323065
vn -0.288307251173 0.720591310752 -0.630576792937
vn -0.288307251173 0.720591310752 -0.630576792937
vn -0.999183277869 -0.0404076382168 -1.22364660300e-16
vn -0.999662539460 -0.0259770514302 -1.22423352918e-16
vn -0.265945760096 -0.767250054401 0.583609635552
vn -0.265945760096 -0.767250054401 0.583609635552
vn 3.43656918399e-10 -0.797925950171 0.602755487776
vn 3.43656918399e-10 -0.797925950171 0.602755487776
vn 0.265945760096 -0.767250054401 0.583609635552
vn 0.265945760096 -0.767250054401 0.583609635552
vn 0.999516332018 -0.0310982640759 1.22405447670e-16
vn 0.999464300930 -0.0327278347370 1.22399075700e-16
vn 0.288307251173 0.720591310752 -0.630576792937
vn 0.288307251173 0.720591310752 -0.630576792937
vn 1.26474338024e-9 0.751324170454 -0.659933323065
vn 1.26474338024e-9 0.751324170454 -0.659933323065
vn -0.288307251173 0.720591310752 -0.630576792937
vn -0.288307251173 0.720591310752 -0.630576792937
vn -0.999183277869 -0.0404076382168 -1.22364660300e-16
vn -0.999662539460 -0.0259770514302 -1.22423352918e-16
vn -0.265945760096 -0.767250054401 0.583609635552
vn -0.265945760096 -0.767250054401 0.583609635552
vn 3.43656918399e-10 -0.797925950171 0.602755487776
vn 3.43656918399e-10 -0.797925950171 0.602755487776
vn 0.265945760096 -0.767250054401 0.583609635552
vn 0.265945760096 -0.767250054401 0.583609635552
vn 0.999516332018 -0.0310982640759 1.22405447670e-16
vn 0.999516332018 -0.0310982640759 1.22405447670e-16
vn 0.0558836078630 0.991495176164 -0.117534412050
vn 0.0558836078630 0.991495176164 -0.117534412050
vn -1.03860320794e-9 0.987663291559 -0.156592536562
vn -1.03860320794e-9 0.987663291559 -0.156592536562
vn -0.0558836078630 0.991495176164 -0.117534412050
vn -0.0558836078630 0.991495176164 -0.117534412050
vn -0.999662539460 -0.0259770514302 -1.22423352918e-16
vn -0.999662539460 -0.0259770514302 -1.22423352918e-16
vn -0.265945760096 -0.767250054401 0.583609635552
vn -0.265945760096 -0.767250054401 0.583609635552
vn 3.43656918399e-10 -0.797925950171 0.602755487776
vn 3.43656918399e-10 -0.797925950171 0.602755487776
vn 0.265945760096 -0.767250054401 0.583609635552
vn 0.265945760096 -0.767250054401 0.583609635552
vn 1.03860324629e-9 -0.987663291559 -0.156592536562
vn 1.03860324629e-9 -0.987663291559 -0.156592536562
vn -1.03860320794e-9 0.987663291559 -0.156592536562
vn -1.03860320794e-9 0.987663291559 -0.156592536562
vn 1.03860324629e-9 -0.987663291559 -0.156592536562
vn -1.03860320794e-9 0.987663291559 -0.156592536562
vn 1.03860324629e-9 -0.987663291559 -0.156592536562
vn -1.03860320794e-9 0.987663291559 -0.156592536562
vn 1.03860324629e-9 -0.987663291559 -0.156592536562
vn -1.03860320794e-9 0.987663291559 -0.156592536562
vn 1.03860324629e-9 -0.987663291559 -0.156592536562
vn -1.03860320794e-9 0.987663291559 -0.156592536562
f 1/1/1 2/2/2 3/3/3
f 2/2/2 4/4/4 3/3/3
f 5/5/5 6/6/6 7/7/7
f 6/6/6 8/8/8 7/7/7
f 9/9/9 10/10/10 11/11/11
f 10/10/10 12/12/12 11/11/11
f 13/13/13 14/14/14 15/15/15
f 14/14/14 16/16/16 15/15/15
f 17/17/17 18/18/18 19/19/19
f 18/18/18 20/20/20 19/19/19
f 21/21/21 22/22/22 23/23/23
f 22/22/22 24/24/24 23/23/23
f 25/25/25 26/26/26 27/27/27
f 26/26/26 28/28/28 27/27/27
f 29/29/29 30/30/30 31/31/31
f 30/30/30 32/32/32 31/31/31
f 3/3/3 4/4/4 33/33/33
f 4/4/4 34/34/34 33/33/33
f 7/7/7 8/8/8 35/35/35
f 8/8/8 36/36/36 35/35/35
f 37/37/37 38/38/38 39/39/39
f 38/38/38 40/40/40 39/39/39
f 15/15/15 16/16/16 41/41/41
f 16/16/16 42/42/42 41/41/41
f 19/19/19 20/20/20 43/43/43
f 20/20/20 44/44/44 43/43/43
f 23/23/23 24/24/24 45/45/45
f 24/24/24 46/46/46 45/45/45
f 27/27/27 28/28/28 47/47/47
f 28/28/28 48/48/48 47/47/47
f 31/31/31 32/32/32 49/49/49
f 32/32/32 50/50/50 49/49/49
f 33/33/33 34/34/34 51/51/51
f 34/34/34 52/52/52 51/51/51
f 35/35/35 36/36/36 53/53/53
f 36/36/36 54/54/54 53/53/53
f 39/39/39 40/40/40 55/55/55
f 40/40/40 56/56/56 55/55/55
f 41/41/41 42/42/42 57/57/57
f 42/42/42 58/58/58 57/57/57
f 43/43/43 44/44/44 59/59/59
f 44/44/44 60/60/60 59/59/59
f 45/45/45 46/46/46 61/61/61
f 46/46/46 62/62/62 61/61/61
f 47/47/47 48/48/48 63/63/63
f 48/48/48 64/64/64 63/63/63
f 49/49/49 50/50/50 65/65/65
f 50/50/50 66/66/66 65/65/65
f 51/51/51 52/52/52 67/67/67
f 52/52/52 68/68/68 67/67/67
f 69/69/69 70/70/70 71/71/71
f 70/70/70 72/72/72 71/71/71
f 55/55/55 56/56/56 73/73/73
f 56/56/56 74/74/74 73/73/73
f 75/75/75 76/76/76 77/77/77
f 76/76/76 78/78/78 77/77/77
f 59/59/59 60/60/60 79/79/79
f 60/60/60 80/80/80 79/79/79
f 61/61/61 62/62/62 81/81/81
f 62/62/62 82/82/82 81/81/81
f 63/63/63 64/64/64 83/83/83
f 64/64/64 84/84/84 83/83/83
f 65/65/65 66/66/66 85/85/85
f 66/66/66 86/86/86 85/85/85
f 67/67/67 68/68/68 87/87/87
f 68/68/68 88/88/88 87/87/87
f 71/71/71 72/72/72 89/89/89
f 72/72/72 90/90/90 89/89/89
f 73/73/73 74/74/74 91/91/91
f 74/74/74 92/92/92 91/91/91
f 77/77/77 78/78/78 93/93/93
f 78/78/78 94/94/94 93/93/93
f 79/79/79 80/80/80 95/95/95
f 80/80/80 96/96/96 95/95/95
f 81/81/81 82/82/82 97/97/97
f 82/82/82 98/98/98 97/97/97
f 83/83/83 84/84/84 99/99/99
f 84/84/84 100/100/100 99/99/99
f 85/85/85 86/86/86 101/101/101
f 86/86/86 102/102/102 101/101/101
f 87/87/87 88/88/88 103/103/103
f 88/88/88 104/104/104 103/103/103
f 89/89/89 90/90/90 105/105/105
f 90/90/90 106/106/106 105/105/105
f 91/91/91 92/92/92 107/107/107
f 92/92/92 108/108/108 107/107/107
f 93/93/93 94/94/94 109/109/109
f 94/94/94 110/110/110 109/109/109
f 95/95/95 96/96/96 111/111/111
f 96/96/96 112/112/112 111/111/111
f 97/97/97 98/98/98 113/113/113
f 98/98/98 114/114/114 113/113/113
f 99/99/99 100/100/100 115/115/115
f 100/100/100 116/116/116 115/115/115
f 101/101/101 102/102/102 117/117/117
f 102/102/102 118/118/118 117/117/117
f 103/103/103 104/104/104 119/119/119
f 104/104/104 120/120/120 119/119/119
f 105/105/105 106/106/106 121/121/121
f 106/106/106 122/122/122 121/121/121
f 107/107/107 108/108/108 123/123/123
f 108/108/108 124/124/124 123/123/123
f 109/109/109 110/110/110 125/125/125
f 110/110/110 126/126/126 125/125/125
f 111/111/111 112/112/112 127/127/127
f 112/112/112 128/128/128 127/127/127
f 113/113/113 114/114/114 129/129/129
f 114/114/114 130/130/130 129/129/129
f 115/115/115 116/116/116 131/131/131
f 116/116/116 132/132/132 131/131/131
f 117/117/117 118/118/118 133/133/133
f 118/118/118 134/134/134 133/133/133
f 119/119/119 120/120/120 135/135/135
f 120/120/120 136/136/136 135/135/135
f 121/121/121 122/122/122 137/137/137
f 122/122/122 138/138/138 137/137/137
f 123/123/123 124/124/124 139/139/139
f 124/124/124 140/140/140 139/139/139
f 125/125/125 126/126/126 141/141/141
f 126/126/126 142/142/142 141/141/141
f 127/127/127 128/128/128 143/143/143
f 128/128/128 144/144/144 143/143/143
f 129/129/129 130/130/130 145/145/145
f 130/130/130 146/146/146 145/145/145
f 131/131/131 132/132/132 147/147/147
f 132/132/132 148/148/148 147/147/147
f 133/133/133 134/134/134 149/149/149
f 134/134/134 150/150/150 149/149/149
f 135/135/135 136/136/136 151/151/151
f 136/136/136 152/152/152 151/151/151
f 137/137/137 138/138/138 153/153/153
f 138/138/138 154/154/154 153/153/153
f 139/139/139 140/140/140 155/155/155
f 140/140/140 156/156/156 155/155/155
f 141/141/141 142/142/142 157/157/157
f 142/142/142 158/158/158 157/157/157
f 143/143/143 144/144/144 159/159/159
f 144/144/144 160/160/160 159/159/159
f 145/145/145 146/146/146 161/161/161
f 146/146/146 162/162/162 161/161/161
f 147/147/147 148/148/148 163/163/163
f 148/148/148 164/164/164 163/163/163
f 149/149/149 150/150/150 165/165/165
f 150/150/150 166/166/166 165/165/165
f 151/151/151 152/152/152 167/167/167
f 152/152/152 168/168/168 167/167/167
f 153/153/153 154/154/154 169/169/169
f 154/154/154 170/170/170 169/169/169
f 155/155/155 156/156/156 171/171/171
f 156/156/156 172/172/172 171/171/171
f 157/157/157 158/158/158 173/173/173
f 158/158/158 174/174/174 173/173/173
f 159/159/159 160/160/160 175/175/175
f 160/160/160 176/176/176 175/175/175
f 161/161/161 162/162/162 177/177/177
f 162/162/162 178/178/178 177/177/177
f 163/163/163 164/164/164 179/179/179
f 164/164/164 180/180/180 179/179/179
f 165/165/165 166/166/166 181/181/181
f 166/166/166 182/182/182 181/181/181
f 167/167/167 168/168/168 183/183/183
f 168/168/168 184/184/184 183/183/183
f 185/185/185 186/186/186 187/187/187
f 186/186/186 188/188/188 187/187/187
f 189/189/189 190/190/190 191/191/191
f 190/190/190 192/192/192 191/191/191
f 193/193/193 194/194/194 195/195/195
f 194/194/194 196/196/196 195/195/195
f 175/175/175 176/176/176 197/197/197
f 176/176/176 198/198/198 197/197/197
f 199/199/199 200/200/200 201/201/201
f 200/200/200 202/202/202 201/201/201
f 203/203/203 204/204/204 205/205/205
f 204/204/204 206/206/206 205/205/205
f 207/207/207 208/208/208 209/209/209
f 208/208/208 210/210/210 209/209/209
f 183/183/183 184/184/184 211/211/211
f 184/184/184 212/212/212 211/211/211
f 213/213/213 214/214/214 215/215/215
f 214/214/214 216/216/216 215/215/215
f 217/217/217 218/218/218 219/219/219
f 218/218/218 220/220/220 219/219/219
f 221/221/221 222/222/222 223/223/223
f 222/222/222 224/224/224 223/223/223
f 197/197/197 198/198/198 225/225/225
f 198/198/198 226/226/226 225/225/225
f 227/227/227 228/228/228 229/229/229
f 228/228/228 230/230/230 229/229/229
f 231/231/231 232/232/232 233/233/233
f 232/232/232 234/234/234 233/233/233
f 235/235/235 236/236/236 237/237/237
f 236/236/236 238/238/238 237/237/237
f 211/211/211 212/212/212 239/239/239
f 212/212/212 240/240/240 239/239/239
f 241/241/241 242/242/242 243/243/243
f 242/242/242 244/244/244 243/243/243
f 245/245/245 246/246/246 247/247/247
f 246/246/246 248/248/248 247/247/247
f 249/249/249 250/250/250 251/251/251
f 250/250/250 252/252/252 251/251/251
f 225/225/225 226/226/226 253/253/253
f 226/226/226 254/254/254 253/253/253
f 255/255/255 256/256/256 257/257/257
f 256/256/256 258/258/258 257/257/257
f 259/259/259 260/260/260 261/261/261
f 260/260/260 262/262/262 261/261/261
f 263/263/263 264/264/264 265/265/265
f 264/264/264 266/266/266 265/265/265
f 239/239/239 240/240/240 267/267/267
f 240/240/240 268/268/268 267/267/267
f 243/243/243 244/244/244 269/269/269
f 244/244/244 270/270/270 269/269/269
f 247/247/247 248/248/248 271/271/271
f 248/248/248 272/272/272 271/271/271
f 251/251/251 252/252/252 273/273/273
f 252/252/252 274/274/274 273/273/273
f 253/253/253 254/254/254 275/275/275
f 254/254/254 276/276/276 275/275/275
f 257/257/257 258/258/258 277/277/277
f 258/258/258 278/278/278 277/277/277
f 261/261/261 262/262/262 279/279/279
f 262/262/262 280/280/280 279/279/279
f 265/265/265 266/266/266 281/281/281
f 266/266/266 282/282/282 281/281/281
f 267/267/267 268/268/268 283/283/283
f 268/268/268 284/284/284 283/283/283
f 269/269/269 270/270/270 285/285/285
f 270/270/270 286/286/286 285/285/285
f 271/271/271 272/272/272 287/287/287
f 272/272/272 288/288/288 287/287/287
f 273/273/273 274/274/274 289/289/289
f 274/274/274 290/290/290 289/289/289
f 275/275/275 276/276/276 291/291/291
f 276/276/276 292/292/292 291/291/291
f 277/277/277 278/278/278 293/293/293
f 278/278/278 294/294/294 293/293/293
f 279/279/279 280/280/280 295/295/295
f 280/280/280 296/296/296 295/295/295
f 281/281/281 282/282/282 297/297/297
f 282/282/282 298/298/298 297/297/297
f 283/283/283 284/284/284 299/299/299
f 284/284/284 300/300/300 299/299/299
f 285/285/285 286/286/286 301/301/301
f 286/286/286 302/302/302 301/301/301
f 287/287/287 288/288/288 303/303/303
f 288/288/288 304/304/304 303/303/303
f 289/289/289 290/290/290 305/305/305
f 290/290/290 306/306/306 305/305/305
f 291/291/291 292/292/292 307/307/307
f 292/292/292 308/308/308 307/307/307
f 293/293/293 294/294/294 309/309/309
f 294/294/294 310/310/310 309/309/309
f 295/295/295 296/296/296 311/311/311
f 296/296/296 312/312/312 311/311/311
f 297/297/297 298/298/298 313/313/313
f 298/298/298 314/314/314 313/313/313
f 299/299/299 300/300/300 315/315/315
f 300/300/300 316/316/316 315/315/315
f 301/301/301 302/302/302 317/317/317
f 302/302/302 318/318/318 317/317/317
f 303/303/303 304/304/304 319/319/319
f 304/304/304 320/320/320 319/319/319
f 305/305/305 306/306/306 321/321/321
f 306/306/306 322/322/322 321/321/321
f 307/307/307 308/308/308 323/323/323
f 308/308/308 324/324/324 323/323/323
f 309/309/309 310/310/310 325/325/325
f 310/310/310 326/326/326 325/325/325
f 311/311/311 312/312/312 327/327/327
f 312/312/312 328/328/328 327/327/327
f 313/313/313 314/314/314 329/329/329
f 314/314/314 330/330/330 329/329/329
f 315/315/315 316/316/316 331/331/331
f 316/316/316 332/332/332 331/331/331
f 317/317/317 318/318/318 333/333/333
f 318/318/318 334/334/334 333/333/333
f 319/319/319 320/320/320 335/335/335
f 320/320/320 336/336/336 335/335/335
f 321/321/321 322/322/322 337/337/337
f 322/322/322 338/338/338 337/337/337
f 323/323/323 324/324/324 339/339/339
f 324/324/324 340/340/340 339/339/339
f 325/325/325 326/326/326 341/341/341
f 326/326/326 342/342/342 341/341/341
f 327/327/327 328/328/328 343/343/343
f 328/328/328 344/344/344 343/343/343
f 329/329/329 330/330/330 345/345/345
f 330/330/330 346/346/346 345/345/345
f 331/331/331 332/332/332 347/347/347
f 332/332/332 348/348/348 347/347/347
f 333/333/333 334/334/334 349/349/349
f 334/334/334 350/350/350 349/349/349
f 335/335/335 336/336/336 351/351/351
f 336/336/336 352/352/352 351/351/351
f 337/337/337 338/338/338 353/353/353
f 338/338/338 354/354/354 353/353/353
f 339/339/339 340/340/340 355/355/355
f 340/340/340 356/356/356 355/355/355
f 341/341/341 342/342/342 357/357/357
f 342/342/342 358/358/358 357/357/357
f 343/343/343 344/344/344 359/359/359
f 344/344/344 360/360/360 359/359/359
f 345/345/345 346/346/346 361/361/361
f 346/346/346 362/362/362 361/361/361
f 347/347/347 348/348/348 363/363/363
f 348/348/348 364/364/364 363/363/363
f 349/349/349 350/350/350 365/365/365
f 350/350/350 366/366/366 365/365/365
f 351/351/351 352/352/352 367/367/367
f 352/352/352 368/368/368 367/367/367
f 353/353/353 354/354/354 369/369/369
f 354/354/354 370/370/370 369/369/369
f 355/355/355 356/356/356 371/371/371
f 356/356/356 372/372/372 371/371/371
f 357/357/357 358/358/358 373/373/373
f 358/358/358 374/374/374 373/373/373
f 359/359/359 360/360/360 375/375/375
f 360/360/360 376/376/376 375/375/375
f 361/361/361 362/362/362 377/377/377
f 362/362/362 378/378/378 377/377/377
f 363/363/363 364/364/364 379/379/379
f 364/364/364 380/380/380 379/379/379
f 365/365/365 366/366/366 381/381/381
f 366/366/366 382/382/382 381/381/381
f 367/367/367 368/368/368 383/383/383
f 368/368/368 384/384/384 383/383/383
f 369/369/369 370/370/370 385/385/385
f 370/370/370 386/386/386 385/385/385
f 371/371/371 372/372/372 387/387/387
f 372/372/372 388/388/388 387/387/387
f 373/373/373 374/374/374 389/389/389
f 374/374/374 390/390/390 389/389/389
f 375/375/375 376/376/376 391/391/391
f 376/376/376 392/392/392 391/391/391
f 377/377/377 378/378/378 393/393/393
f 378/378/378 394/394/394 393/393/393
f 379/379/379 380/380/380 395/395/395
f 380/380/380 396/396/396 395/395/395
f 381/381/381 382/382/382 397/397/397
f 382/382/382 398/398/398 397/397/397
f 383/383/383 384/384/384 399/399/399
f 384/384/384 400/400/400 399/399/399
f 385/385/385 386/386/386 401/401/401
f 386/386/386 402/402/402 401/401/401
f 387/387/387 388/388/388 403/403/403
f 388/388/388 404/404/404 403/403/403
f 389/389/389 390/390/390 405/405/405
f 390/390/390 406/406/406 405/405/405
f 391/391/391 392/392/392 407/407/407
f 392/392/392 408/408/408 407/407/407
f 393/393/393 394/394/394 409/409/409
f 394/394/394 410/410/410 409/409/409
f 411/411/411 9/9/9 412/412/412
f 413/413/413 414/414/414 399/399/399
f 411/411/411 10/10/10 9/9/9
f 413/413/413 399/399/399 400/400/400
f 411/411/411 415/415/415 10/10/10
f 413/413/413 400/400/400 416/416/416
f 411/411/411 417/417/417 415/415/415
f 413/413/413 416/416/416 418/418/418
f 411/411/411 419/419/419 417/417/417
f 413/413/413 418/418/418 420/420/420
f 411/411/411 421/421/421 419/419/419
f 413/413/413 420/420/420 422/422/422
