# death .45s explicit open surface prototype; metres; no material; not a finished garment
# Anatomical Right=-X; front=+Z; UV values are metres, not a texture atlas.
o death .45s explicit
v -0.1902870411 0.0153137296 0.3657062532
v -0.1605365234 0.0172580445 0.3594007872
v -0.1310802082 0.0182070649 0.3540617686
v -0.1019180956 0.0181607906 0.3496891973
v -0.0730501856 0.0171192217 0.3462830733
v -0.0444764782 0.0150823582 0.3438433965
v -0.0161969733 0.0120502001 0.3423701671
v 0.0117883291 0.0080227474 0.3418633850
v 0.0394794289 0.0030000000 0.3423230502
v -0.1887509522 0.0311255418 0.2978858360
v -0.1608282638 0.0217755317 0.2916514236
v -0.1327667319 0.0149189667 0.2864488870
v -0.1045663565 0.0105558470 0.2822782263
v -0.0762271375 0.0086861723 0.2791394415
v -0.0477490750 0.0093099429 0.2770325325
v -0.0191321689 0.0124271586 0.2759574993
v 0.0096235807 0.0180378195 0.2759143419
v 0.0385181739 0.0261419255 0.2769030604
v -0.1876740067 0.0658155792 0.2389792010
v -0.1596805585 0.0537694605 0.2292892473
v -0.1319064283 0.0456651069 0.2221828987
v -0.1043516160 0.0415025185 0.2176601553
v -0.0770161216 0.0412816953 0.2157210171
v -0.0498999453 0.0450026373 0.2163654840
v -0.0230030868 0.0526653444 0.2195935561
v 0.0036744536 0.0642698167 0.2254052334
v 0.0301326762 0.0798160542 0.2338005158
v -0.1830224059 0.1173124821 0.1935874948
v -0.1566237974 0.1027850345 0.1802747852
v -0.1303562971 0.0927102607 0.1704109052
v -0.1042199051 0.0870881605 0.1639958547
v -0.0782146214 0.0859187340 0.1610296338
v -0.0523404460 0.0892019812 0.1615122425
v -0.0265973789 0.0969379020 0.1654436808
v -0.0009854201 0.1091264966 0.1728239486
v 0.0244954305 0.1257677648 0.1836530460
v -0.1819878830 0.1618899957 0.1413132385
v -0.1565126572 0.1473252464 0.1280036006
v -0.1310954490 0.1371925324 0.1181619075
v -0.1057362584 0.1314918538 0.1117881590
v -0.0804350855 0.1302232105 0.1088823553
v -0.0551919302 0.1333866025 0.1094444962
v -0.0300067926 0.1409820299 0.1134745819
v -0.0048796726 0.1530094926 0.1209726122
v 0.0201894298 0.1694689907 0.1319385873
v -0.1807841570 0.2069804294 0.0896887880
v -0.1560139610 0.1926857443 0.0762480813
v -0.1312938766 0.1827539412 0.0663275112
v -0.1066239036 0.1771850201 0.0599270776
v -0.0820040421 0.1759789810 0.0570467806
v -0.0574342920 0.1791358240 0.0576866202
v -0.0329146535 0.1866555489 0.0618465964
v -0.0084451264 0.1985381558 0.0695267092
v 0.0159742892 0.2147836448 0.0807269585
v -0.1791697397 0.2525987992 0.0383200544
v -0.1551600658 0.2384612945 0.0248850571
v -0.1311870116 0.2286307158 0.0149771550
v -0.1072505771 0.2231070632 0.0085963481
v -0.0833507623 0.2218903365 0.0057426362
v -0.0594875672 0.2249805358 0.0064160196
v -0.0356609918 0.2323776612 0.0106164981
v -0.0118710361 0.2440817125 0.0183440717
v 0.0118822999 0.2600926899 0.0295987405
v -0.1773731282 0.2983576837 -0.0130409158
v -0.1541343234 0.2844103000 -0.0263832899
v -0.1309195685 0.2747084938 -0.0362169519
v -0.1077288635 0.2692522652 -0.0425419019
v -0.0845622084 0.2680416141 -0.0453581397
v -0.0614196032 0.2710765405 -0.0446656654
v -0.0383010479 0.2783570445 -0.0404644791
v -0.0152065426 0.2898831260 -0.0327545807
v 0.0078639129 0.3056547851 -0.0215359702
v -0.1754407427 0.3441845562 -0.0644004838
v -0.1529747459 0.3304400953 -0.0775706323
v -0.1305252895 0.3208752232 -0.0872719427
v -0.1080923735 0.3154899398 -0.0935044151
v -0.0856759979 0.3142842453 -0.0962680495
v -0.0632761627 0.3172581397 -0.0955628458
v -0.0408928680 0.3244116228 -0.0913888041
v -0.0185261137 0.3357446947 -0.0837459244
v 0.0038241003 0.3512573555 -0.0726342066
v -0.1734378956 0.3900973929 -0.1157198400
v -0.1517469485 0.3765922242 -0.1286654566
v -0.1300672704 0.3671903617 -0.1381973075
v -0.1083988611 0.3618918054 -0.1443153927
v -0.0867417208 0.3606965554 -0.1470197123
v -0.0650958494 0.3636046115 -0.1463102663
v -0.0434612469 0.3706159739 -0.1421870547
v -0.0218379133 0.3817306425 -0.1346500774
v -0.0002258487 0.3969486173 -0.1236993345
v -0.1714374444 0.4360882320 -0.1669908211
v -0.1505166629 0.4228675423 -0.1796544117
v -0.1296038856 0.4136604056 -0.1889754794
v -0.1086991124 0.4084668219 -0.1949540244
v -0.0878023433 0.4072867912 -0.1975900464
v -0.0669135784 0.4101203135 -0.1968835457
v -0.0460328175 0.4169673889 -0.1928345222
v -0.0251600608 0.4278280172 -0.1854429758
v -0.0042953082 0.4427021986 -0.1747089066
v -0.1695115349 0.4821661540 -0.2181965432
v -0.1493492641 0.4692891214 -0.2305213101
v -0.1291927352 0.4603187926 -0.2395909797
v -0.1090419482 0.4552551677 -0.2454055523
v -0.0888969030 0.4540982466 -0.2479650276
v -0.0687575996 0.4568480294 -0.2472694058
v -0.0486240381 0.4635045160 -0.2433186868
v -0.0284962185 0.4740677064 -0.2361128707
v -0.0083741407 0.4885376007 -0.2256519574
v -0.1677310291 0.5283348577 -0.2693275578
v -0.1483072036 0.5158695443 -0.2812519320
v -0.1288875822 0.5071844788 -0.2900260798
v -0.1094721648 0.5022796613 -0.2956500012
v -0.0900609515 0.5011550917 -0.2981236962
v -0.0706539422 0.5038107701 -0.2974471648
v -0.0512511370 0.5102466964 -0.2936204069
v -0.0318525358 0.5204628707 -0.2866434227
v -0.0124581387 0.5344592929 -0.2765162120
v -0.1661693962 0.5745988328 -0.3203737436
v -0.1474553838 0.5626233151 -0.3318313046
v -0.1287444082 0.5542792713 -0.3402623907
v -0.1100364693 0.5495667015 -0.3456670018
v -0.0913315672 0.5484856056 -0.3480451379
v -0.0726297018 0.5510359836 -0.3473967990
v -0.0539308732 0.5572178356 -0.3437219851
v -0.0352350814 0.5670311616 -0.3370206962
v -0.0165423263 0.5804759614 -0.3272929323
v -0.1648949518 0.6209685055 -0.3713261161
v -0.1468528135 0.6095683906 -0.3822469742
v -0.1288129608 0.6016267083 -0.3902849549
v -0.1107753936 0.5971434583 -0.3954400580
v -0.0927401120 0.5961186408 -0.3977122836
v -0.0747071160 0.5985522557 -0.3971016318
v -0.0566764055 0.6044443031 -0.3936081024
v -0.0386479806 0.6137947829 -0.3872316955
v -0.0206218413 0.6266036951 -0.3779724111
v -0.1640041903 0.6674395878 -0.4221828907
v -0.1465850087 0.6567163659 -0.4324832628
v -0.1291675814 0.6492495307 -0.4400683450
v -0.1117519085 0.6450390823 -0.4449381374
v -0.0943379898 0.6440850206 -0.4470926400
v -0.0769258254 0.6463873457 -0.4465318528
v -0.0595154153 0.6519460575 -0.4432557759
v -0.0421067595 0.6607611560 -0.4372644091
v -0.0246998579 0.6728326412 -0.4285577525
v -0.1635231413 0.7140357612 -0.4729516677
v -0.1466712146 0.7040963419 -0.4825385851
v -0.1298211776 0.6971815541 -0.4896044894
v -0.1129730305 0.6932913979 -0.4941493807
v -0.0961267732 0.6924258732 -0.4961732588
v -0.0792824057 0.6945849800 -0.4956761240
v -0.0624399280 0.6997687183 -0.4926579761
v -0.0455993401 0.7079770881 -0.4871188151
v -0.0287606421 0.7192100895 -0.4790586410
vt 0.0000000000 0.0000000000
vt 0.0338465961 0.0000000000
vt 0.0647672944 0.0000000000
vt 0.0935741371 0.0000000000
vt 0.1212640782 0.0000000000
vt 0.1489535643 0.0000000000
vt 0.1777591141 0.0000000000
vt 0.2086778469 0.0000000000
vt 0.2425219722 0.0000000000
vt 0.0000000000 0.0687937647
vt 0.0334906245 0.0687937647
vt 0.0640217931 0.0687937647
vt 0.0924105694 0.0687937647
vt 0.1196655932 0.0687937647
vt 0.1469201558 0.0687937647
vt 0.1753076237 0.0687937647
vt 0.2058368080 0.0687937647
vt 0.2393249436 0.0687937647
vt 0.0000000000 0.1375974427
vt 0.0330728720 0.1375974427
vt 0.0631485298 0.1375974427
vt 0.0910493093 0.1375974427
vt 0.1177969969 0.1375974427
vt 0.1445442162 0.1375974427
vt 0.1724436698 0.1375974427
vt 0.2025173225 0.1375974427
vt 0.2355876859 0.1375974427
vt 0.0000000000 0.2064118557
vt 0.0325964645 0.2064118557
vt 0.0621564505 0.2064118557
vt 0.0895071632 0.2064118557
vt 0.1156840616 0.2064118557
vt 0.1418604840 0.2064118557
vt 0.1692098525 0.2064118557
vt 0.1987678124 0.2064118557
vt 0.2313617490 0.2064118557
vt 0.0000000000 0.2752375378
vt 0.0320641958 0.2752375378
vt 0.0610539517 0.2752375378
vt 0.0878002923 0.2752375378
vt 0.1133518987 0.2752375378
vt 0.1389030217 0.2752375378
vt 0.1656480002 0.2752375378
vt 0.1946357103 0.2752375378
vt 0.2266973616 0.2752375378
vt 0.0000000000 0.3440748256
vt 0.0314784416 0.3440748256
vt 0.0598487318 0.3440748256
vt 0.0859440325 0.3440748256
vt 0.1108247749 0.3440748256
vt 0.1357050268 0.3440748256
vt 0.1617989495 0.3440748256
vt 0.1901671775 0.3440748256
vt 0.2216430624 0.3440748256
vt 0.0000000000 0.4129239491
vt 0.0308411023 0.4129239491
vt 0.0585476886 0.4129239491
vt 0.0839527701 0.4129239491
vt 0.1081259823 0.4129239491
vt 0.1322986979 0.4129239491
vt 0.1577023885 0.4129239491
vt 0.1854069015 0.4129239491
vt 0.2162454412 0.4129239491
vt 0.0000000000 0.4817851224
vt 0.0301535780 0.4817851224
vt 0.0571568702 0.4817851224
vt 0.0818398763 0.4817851224
vt 0.1052777710 0.4817851224
vt 0.1287151649 0.4817851224
vt 0.1533967718 0.4817851224
vt 0.1803979866 0.4817851224
vt 0.2105490047 0.4817851224
vt 0.0000000000 0.5506586332
vt 0.0294167802 0.5506586332
vt 0.0556814861 0.5506586332
vt 0.0796177156 0.5506586332
vt 0.1023013565 0.5506586332
vt 0.1249844946 0.5506586332
vt 0.1489193231 0.5506586332
vt 0.1751819564 0.5506586332
vt 0.2045961898 0.5506586332
vt 0.0000000000 0.6195449342
vt 0.0286311861 0.6195449342
vt 0.0541259937 0.6195449342
vt 0.0772977440 0.6195449342
vt 0.0992170192 0.6195449342
vt 0.1211357923 0.6195449342
vt 0.1443061477 0.6195449342
vt 0.1697988983 0.6195449342
vt 0.1984275633 0.6195449342
vt 0.0000000000 0.6884447324
vt 0.0277969472 0.6884447324
vt 0.0524942788 0.6884447324
vt 0.0748907216 0.6884447324
vt 0.0960443219 0.6884447324
vt 0.1171974248 0.6884447324
vt 0.1395924881 0.6884447324
vt 0.1642877912 0.6884447324
vt 0.1920822574 0.6884447324
vt 0.0000000000 0.7573590800
vt 0.0269140650 0.7573590800
vt 0.0507899573 0.7573590800
vt 0.0724070742 0.7573590800
vt 0.0928024822 0.7573590800
vt 0.1131974016 0.7573590800
vt 0.1348131659 0.7573590800
vt 0.1586870729 0.7573590800
vt 0.1855987132 0.7573590800
vt 0.0000000000 0.8262894637
vt 0.0259826569 0.8262894637
vt 0.0490168359 0.8262894637
vt 0.0698574514 0.8262894637
vt 0.0895109459 0.8262894637
vt 0.1091639660 0.8262894637
vt 0.1300032685 0.8262894637
vt 0.1530355222 0.8262894637
vt 0.1790158290 0.8262894637
vt 0.0000000000 0.8952378949
vt 0.0250033424 0.8952378949
vt 0.0471795870 0.8952378949
vt 0.0672535449 0.8952378949
vt 0.0861902312 0.8952378949
vt 0.1051264629 0.8952378949
vt 0.1251991620 0.8952378949
vt 0.1473735597 0.8952378949
vt 0.1723746467 0.8952378949
vt 0.0000000000 0.9642069992
vt 0.0239777994 0.9642069992
vt 0.0452847137 0.9642069992
vt 0.0646092578 0.9642069992
vt 0.0828631320 0.9642069992
vt 0.1011165776 0.9642069992
vt 0.1204399331 0.9642069992
vt 0.1417450993 0.9642069992
vt 0.1657207603 0.9642069992
vt 0.0000000000 1.0332001055
vt 0.0229095590 1.0332001055
vt 0.0433419162 1.0332001055
vt 0.0619423465 1.0332001055
vt 0.0795564060 1.0332001055
vt 0.0971700698 1.0332001055
vt 0.1157693987 1.0332001055
vt 0.1362001287 1.0332001055
vt 0.1591076905 1.0332001055
vt 0.0000000000 1.1022213348
vt 0.0218051477 1.1022213348
vt 0.0413660123 1.1022213348
vt 0.0592766988 1.1022213348
vt 0.0763031112 1.1022213348
vt 0.0933291676 1.1022213348
vt 0.1112388578 1.1022213348
vt 0.1307982399 1.1022213348
vt 0.1526015580 1.1022213348
vn -0.1575242377 -0.9763830502 -0.1478588981
vn -0.0511010962 -0.9983083491 -0.0277329796
vn -0.0286740616 -0.9970917337 0.0706107125
vn -0.0192368043 -0.9929382601 0.1170621928
vn -0.0177850740 -0.9934644028 0.1127482659
vn -0.0191193360 -0.9982060401 0.0567375749
vn -0.0177071710 -0.9984253985 -0.0532276212
vn -0.0077773725 -0.9769453370 -0.2133478873
vn -0.1634128860 -0.9308323385 -0.3268751845
vn -0.4065170874 -0.8344473542 -0.3720772377
vn -0.2691957946 -0.9208979150 -0.2819231353
vn -0.1803478795 -0.9595835956 -0.2160415828
vn -0.0926032137 -0.9786484653 -0.1834988452
vn -0.0075609353 -0.9819977189 -0.1887413899
vn 0.0747638728 -0.9692749435 -0.2343425854
vn 0.1536924591 -0.9346633953 -0.3205978251
vn 0.2255729537 -0.8682884585 -0.4418053819
vn 0.1120739926 -0.8825812006 -0.4566068819
vn -0.5240749671 -0.6243459142 -0.5792560818
vn -0.4253935088 -0.7243873603 -0.5424972949
vn -0.2923097684 -0.7929021861 -0.5346598195
vn -0.1387250994 -0.8337891598 -0.5343697071
vn 0.0257631460 -0.8402287316 -0.5416197364
vn 0.1882627776 -0.8095156981 -0.5560948311
vn 0.3357230440 -0.7443513125 -0.5772617789
vn 0.4581703996 -0.6517507240 -0.6044012564
vn 0.4337470590 -0.6017868695 -0.6706087179
vn -0.6026354297 -0.5700212670 -0.5584857152
vn -0.5212995040 -0.6110297259 -0.5957260286
vn -0.3772765835 -0.6878316567 -0.6201209492
vn -0.1965205924 -0.7441110785 -0.6384969535
vn 0.0086648936 -0.7659375257 -0.6428566142
vn 0.2142460591 -0.7469832834 -0.6293763584
vn 0.3959532469 -0.6938454055 -0.6014977802
vn 0.5411418585 -0.6210254393 -0.5670034327
vn 0.5859071588 -0.5828623945 -0.5630135259
vn -0.6150767125 -0.5902280260 -0.5227920381
vn -0.5524923837 -0.6285384332 -0.5474409593
vn -0.4053155721 -0.6927953884 -0.5964510348
vn -0.2174904927 -0.7401511714 -0.6362972018
vn -0.0013541231 -0.7557265163 -0.6548859434
vn 0.2157159230 -0.7326305762 -0.6455378218
vn 0.4056534613 -0.6783483265 -0.6126082086
vn 0.5549168677 -0.6084726018 -0.5672991828
vn 0.6120852343 -0.5750584708 -0.5428254057
vn -0.6240232758 -0.5779766593 -0.5258687408
vn -0.5622496475 -0.6159105907 -0.5518418959
vn -0.4137534223 -0.6814764576 -0.6036538274
vn -0.2225189081 -0.7306219416 -0.6455051619
vn -0.0013180805 -0.7474273179 -0.6643422815
vn 0.2205837080 -0.7243402401 -0.6532029121
vn 0.4133789423 -0.6692636725 -0.6174171902
vn 0.5633618486 -0.5985676901 -0.5695086900
vn 0.6197608152 -0.5632364076 -0.5464991135
vn -0.6332307137 -0.5685012646 -0.5251906087
vn -0.5716124809 -0.6063302508 -0.5528316187
vn -0.4220767459 -0.6739509043 -0.6063343955
vn -0.2277149939 -0.7253308863 -0.6496468170
vn -0.0016302197 -0.7435122657 -0.6687203101
vn 0.2250476801 -0.7203431062 -0.6560940108
vn 0.4207280081 -0.6643329549 -0.6177780088
vn 0.5715276594 -0.5928458270 -0.5673534701
vn 0.6283664985 -0.5573344387 -0.5427097446
vn -0.6413670126 -0.5617118693 -0.5226166195
vn -0.5802553173 -0.5996494452 -0.5511118849
vn -0.4298572061 -0.6688255871 -0.6065435816
vn -0.2326814665 -0.7219453164 -0.6516550432
vn -0.0021008309 -0.7410533694 -0.6714428421
vn 0.2289726158 -0.7174246744 -0.6579311345
vn 0.4272442345 -0.6601786170 -0.6177593040
vn 0.5787005162 -0.5876328589 -0.5655027283
vn 0.6356487958 -0.5516651903 -0.5400149314
vn -0.6486159892 -0.5557069961 -0.5200836788
vn -0.5879960021 -0.5937867162 -0.5492522527
vn -0.4369005859 -0.6643251096 -0.6064569455
vn -0.2371843592 -0.7190267628 -0.6532565302
vn -0.0024227564 -0.7389752233 -0.6737282461
vn 0.2327639234 -0.7148661689 -0.6593840433
vn 0.4334271306 -0.6564004381 -0.6174782485
vn 0.5854454632 -0.5828094285 -0.5635483827
vn 0.6424524112 -0.5464703976 -0.5372383119
vn -0.6548710057 -0.5505858207 -0.5176864109
vn -0.5948321988 -0.5885185130 -0.5475587778
vn -0.4432263862 -0.6600478084 -0.6065371063
vn -0.2413274121 -0.7159992131 -0.6550619871
vn -0.0028315706 -0.7366126135 -0.6763089826
vn 0.2360810751 -0.7120514937 -0.6612476059
vn 0.4389130140 -0.6525421513 -0.6176925667
vn 0.5914420830 -0.5781329901 -0.5621018664
vn 0.6486651758 -0.5414319467 -0.5348690837
vn -0.6597675091 -0.5466620158 -0.5156233842
vn -0.6004506573 -0.5841301523 -0.5461235879
vn -0.4485114850 -0.6561561291 -0.6068744368
vn -0.2448899094 -0.7128976250 -0.6571194021
vn -0.0033298090 -0.7339404179 -0.6792056945
vn 0.2386883581 -0.7090115140 -0.6635740658
vn 0.4433392769 -0.6487568167 -0.6185182927
vn 0.5963099084 -0.5738680382 -0.5613287520
vn 0.6539409044 -0.5368694049 -0.5330408386
vn -0.6628847708 -0.5442470194 -0.5141779483
vn -0.6044267429 -0.5808544441 -0.5452306183
vn -0.4523263296 -0.6527851276 -0.6076779318
vn -0.2475815691 -0.7097312051 -0.6595339136
vn -0.0039253004 -0.7309055882 -0.6824672983
vn 0.2402685297 -0.7057625587 -0.6664609849
vn 0.4462243989 -0.6452041389 -0.6201575647
vn 0.5995489310 -0.5703001277 -0.5615147760
vn 0.6578285501 -0.5330812167 -0.5320582816
vn -0.6636921853 -0.5437445645 -0.5136677251
vn -0.6062432992 -0.5790411511 -0.5451425571
vn -0.4541521050 -0.6501712056 -0.6091167941
vn -0.2490431031 -0.7065974952 -0.6623424436
vn -0.0045973329 -0.7275364424 -0.6860536346
vn 0.2404896779 -0.7024037425 -0.6699206649
vn 0.4470474705 -0.6421294076 -0.6227506588
vn 0.6006141399 -0.5677967589 -0.5629116232
vn 0.6598338735 -0.5304650194 -0.5321899309
vn -0.6615367077 -0.5455448178 -0.5145386634
vn -0.6052651310 -0.5790354637 -0.5462344304
vn -0.4533728926 -0.6485309955 -0.6114413857
vn -0.2488598012 -0.7035626213 -0.6656338612
vn -0.0053262038 -0.7238262284 -0.6899617544
vn 0.2389619093 -0.6990040581 -0.6740107809
vn 0.4451888094 -0.6397610505 -0.6265083576
vn 0.5988450285 -0.5667255916 -0.5658681257
vn 0.6593528863 -0.5294316734 -0.5338125837
vn -0.6555011998 -0.5503078610 -0.5171841404
vn -0.6006933628 -0.5812780583 -0.5488927972
vn -0.4492582836 -0.6480947238 -0.6149310723
vn -0.2465732003 -0.7006580517 -0.6695371173
vn -0.0061162027 -0.7197245086 -0.6942328311
vn 0.2352117950 -0.6956096345 -0.6788244602
vn 0.4398943394 -0.6383561670 -0.6316600148
vn 0.5934202713 -0.5675593933 -0.5707264815
vn 0.6557113851 -0.5304580835 -0.5372679044
vn -0.6442608369 -0.5584338364 -0.5225702100
vn -0.5913315097 -0.5862094701 -0.5537919310
vn -0.4407700395 -0.6490803613 -0.6200132715
vn -0.2415601067 -0.6979133684 -0.6742148359
vn -0.0069665596 -0.7152019315 -0.6988831549
vn 0.2286053574 -0.6923022936 -0.6844392777
vn 0.4300940167 -0.6382281090 -0.6385013842
vn 0.5831031853 -0.5708595086 -0.5780225745
vn 0.6477641468 -0.5342416627 -0.5431274767
vn -0.6337602421 -0.5668845373 -0.5262982774
vn -0.6021301181 -0.5819107119 -0.5466436173
vn -0.4598642169 -0.6424228364 -0.6130398040
vn -0.2711621185 -0.6914510462 -0.6696017893
vn -0.0456802697 -0.7128320678 -0.6998455230
vn 0.1867434485 -0.6966234448 -0.6927067638
vn 0.3917091378 -0.6485995836 -0.6525967602
vn 0.5515434940 -0.5848051898 -0.5948131339
vn 0.6368029394 -0.5393739133 -0.5509607953
f 1/1/1 11/11/11 2/2/2
f 1/1/1 10/10/10 11/11/11
f 2/2/2 12/12/12 3/3/3
f 2/2/2 11/11/11 12/12/12
f 3/3/3 13/13/13 4/4/4
f 3/3/3 12/12/12 13/13/13
f 4/4/4 14/14/14 5/5/5
f 4/4/4 13/13/13 14/14/14
f 5/5/5 15/15/15 6/6/6
f 5/5/5 14/14/14 15/15/15
f 6/6/6 16/16/16 7/7/7
f 6/6/6 15/15/15 16/16/16
f 7/7/7 17/17/17 8/8/8
f 7/7/7 16/16/16 17/17/17
f 8/8/8 18/18/18 9/9/9
f 8/8/8 17/17/17 18/18/18
f 10/10/10 20/20/20 11/11/11
f 10/10/10 19/19/19 20/20/20
f 11/11/11 21/21/21 12/12/12
f 11/11/11 20/20/20 21/21/21
f 12/12/12 22/22/22 13/13/13
f 12/12/12 21/21/21 22/22/22
f 13/13/13 23/23/23 14/14/14
f 13/13/13 22/22/22 23/23/23
f 14/14/14 24/24/24 15/15/15
f 14/14/14 23/23/23 24/24/24
f 15/15/15 25/25/25 16/16/16
f 15/15/15 24/24/24 25/25/25
f 16/16/16 26/26/26 17/17/17
f 16/16/16 25/25/25 26/26/26
f 17/17/17 27/27/27 18/18/18
f 17/17/17 26/26/26 27/27/27
f 19/19/19 29/29/29 20/20/20
f 19/19/19 28/28/28 29/29/29
f 20/20/20 30/30/30 21/21/21
f 20/20/20 29/29/29 30/30/30
f 21/21/21 31/31/31 22/22/22
f 21/21/21 30/30/30 31/31/31
f 22/22/22 32/32/32 23/23/23
f 22/22/22 31/31/31 32/32/32
f 23/23/23 33/33/33 24/24/24
f 23/23/23 32/32/32 33/33/33
f 24/24/24 34/34/34 25/25/25
f 24/24/24 33/33/33 34/34/34
f 25/25/25 35/35/35 26/26/26
f 25/25/25 34/34/34 35/35/35
f 26/26/26 36/36/36 27/27/27
f 26/26/26 35/35/35 36/36/36
f 28/28/28 38/38/38 29/29/29
f 28/28/28 37/37/37 38/38/38
f 29/29/29 39/39/39 30/30/30
f 29/29/29 38/38/38 39/39/39
f 30/30/30 40/40/40 31/31/31
f 30/30/30 39/39/39 40/40/40
f 31/31/31 41/41/41 32/32/32
f 31/31/31 40/40/40 41/41/41
f 32/32/32 42/42/42 33/33/33
f 32/32/32 41/41/41 42/42/42
f 33/33/33 43/43/43 34/34/34
f 33/33/33 42/42/42 43/43/43
f 34/34/34 44/44/44 35/35/35
f 34/34/34 43/43/43 44/44/44
f 35/35/35 45/45/45 36/36/36
f 35/35/35 44/44/44 45/45/45
f 37/37/37 47/47/47 38/38/38
f 37/37/37 46/46/46 47/47/47
f 38/38/38 48/48/48 39/39/39
f 38/38/38 47/47/47 48/48/48
f 39/39/39 49/49/49 40/40/40
f 39/39/39 48/48/48 49/49/49
f 40/40/40 50/50/50 41/41/41
f 40/40/40 49/49/49 50/50/50
f 41/41/41 51/51/51 42/42/42
f 41/41/41 50/50/50 51/51/51
f 42/42/42 52/52/52 43/43/43
f 42/42/42 51/51/51 52/52/52
f 43/43/43 53/53/53 44/44/44
f 43/43/43 52/52/52 53/53/53
f 44/44/44 54/54/54 45/45/45
f 44/44/44 53/53/53 54/54/54
f 46/46/46 56/56/56 47/47/47
f 46/46/46 55/55/55 56/56/56
f 47/47/47 57/57/57 48/48/48
f 47/47/47 56/56/56 57/57/57
f 48/48/48 58/58/58 49/49/49
f 48/48/48 57/57/57 58/58/58
f 49/49/49 59/59/59 50/50/50
f 49/49/49 58/58/58 59/59/59
f 50/50/50 60/60/60 51/51/51
f 50/50/50 59/59/59 60/60/60
f 51/51/51 61/61/61 52/52/52
f 51/51/51 60/60/60 61/61/61
f 52/52/52 62/62/62 53/53/53
f 52/52/52 61/61/61 62/62/62
f 53/53/53 63/63/63 54/54/54
f 53/53/53 62/62/62 63/63/63
f 55/55/55 65/65/65 56/56/56
f 55/55/55 64/64/64 65/65/65
f 56/56/56 66/66/66 57/57/57
f 56/56/56 65/65/65 66/66/66
f 57/57/57 67/67/67 58/58/58
f 57/57/57 66/66/66 67/67/67
f 58/58/58 68/68/68 59/59/59
f 58/58/58 67/67/67 68/68/68
f 59/59/59 69/69/69 60/60/60
f 59/59/59 68/68/68 69/69/69
f 60/60/60 70/70/70 61/61/61
f 60/60/60 69/69/69 70/70/70
f 61/61/61 71/71/71 62/62/62
f 61/61/61 70/70/70 71/71/71
f 62/62/62 72/72/72 63/63/63
f 62/62/62 71/71/71 72/72/72
f 64/64/64 74/74/74 65/65/65
f 64/64/64 73/73/73 74/74/74
f 65/65/65 75/75/75 66/66/66
f 65/65/65 74/74/74 75/75/75
f 66/66/66 76/76/76 67/67/67
f 66/66/66 75/75/75 76/76/76
f 67/67/67 77/77/77 68/68/68
f 67/67/67 76/76/76 77/77/77
f 68/68/68 78/78/78 69/69/69
f 68/68/68 77/77/77 78/78/78
f 69/69/69 79/79/79 70/70/70
f 69/69/69 78/78/78 79/79/79
f 70/70/70 80/80/80 71/71/71
f 70/70/70 79/79/79 80/80/80
f 71/71/71 81/81/81 72/72/72
f 71/71/71 80/80/80 81/81/81
f 73/73/73 83/83/83 74/74/74
f 73/73/73 82/82/82 83/83/83
f 74/74/74 84/84/84 75/75/75
f 74/74/74 83/83/83 84/84/84
f 75/75/75 85/85/85 76/76/76
f 75/75/75 84/84/84 85/85/85
f 76/76/76 86/86/86 77/77/77
f 76/76/76 85/85/85 86/86/86
f 77/77/77 87/87/87 78/78/78
f 77/77/77 86/86/86 87/87/87
f 78/78/78 88/88/88 79/79/79
f 78/78/78 87/87/87 88/88/88
f 79/79/79 89/89/89 80/80/80
f 79/79/79 88/88/88 89/89/89
f 80/80/80 90/90/90 81/81/81
f 80/80/80 89/89/89 90/90/90
f 82/82/82 92/92/92 83/83/83
f 82/82/82 91/91/91 92/92/92
f 83/83/83 93/93/93 84/84/84
f 83/83/83 92/92/92 93/93/93
f 84/84/84 94/94/94 85/85/85
f 84/84/84 93/93/93 94/94/94
f 85/85/85 95/95/95 86/86/86
f 85/85/85 94/94/94 95/95/95
f 86/86/86 96/96/96 87/87/87
f 86/86/86 95/95/95 96/96/96
f 87/87/87 97/97/97 88/88/88
f 87/87/87 96/96/96 97/97/97
f 88/88/88 98/98/98 89/89/89
f 88/88/88 97/97/97 98/98/98
f 89/89/89 99/99/99 90/90/90
f 89/89/89 98/98/98 99/99/99
f 91/91/91 101/101/101 92/92/92
f 91/91/91 100/100/100 101/101/101
f 92/92/92 102/102/102 93/93/93
f 92/92/92 101/101/101 102/102/102
f 93/93/93 103/103/103 94/94/94
f 93/93/93 102/102/102 103/103/103
f 94/94/94 104/104/104 95/95/95
f 94/94/94 103/103/103 104/104/104
f 95/95/95 105/105/105 96/96/96
f 95/95/95 104/104/104 105/105/105
f 96/96/96 106/106/106 97/97/97
f 96/96/96 105/105/105 106/106/106
f 97/97/97 107/107/107 98/98/98
f 97/97/97 106/106/106 107/107/107
f 98/98/98 108/108/108 99/99/99
f 98/98/98 107/107/107 108/108/108
f 100/100/100 110/110/110 101/101/101
f 100/100/100 109/109/109 110/110/110
f 101/101/101 111/111/111 102/102/102
f 101/101/101 110/110/110 111/111/111
f 102/102/102 112/112/112 103/103/103
f 102/102/102 111/111/111 112/112/112
f 103/103/103 113/113/113 104/104/104
f 103/103/103 112/112/112 113/113/113
f 104/104/104 114/114/114 105/105/105
f 104/104/104 113/113/113 114/114/114
f 105/105/105 115/115/115 106/106/106
f 105/105/105 114/114/114 115/115/115
f 106/106/106 116/116/116 107/107/107
f 106/106/106 115/115/115 116/116/116
f 107/107/107 117/117/117 108/108/108
f 107/107/107 116/116/116 117/117/117
f 109/109/109 119/119/119 110/110/110
f 109/109/109 118/118/118 119/119/119
f 110/110/110 120/120/120 111/111/111
f 110/110/110 119/119/119 120/120/120
f 111/111/111 121/121/121 112/112/112
f 111/111/111 120/120/120 121/121/121
f 112/112/112 122/122/122 113/113/113
f 112/112/112 121/121/121 122/122/122
f 113/113/113 123/123/123 114/114/114
f 113/113/113 122/122/122 123/123/123
f 114/114/114 124/124/124 115/115/115
f 114/114/114 123/123/123 124/124/124
f 115/115/115 125/125/125 116/116/116
f 115/115/115 124/124/124 125/125/125
f 116/116/116 126/126/126 117/117/117
f 116/116/116 125/125/125 126/126/126
f 118/118/118 128/128/128 119/119/119
f 118/118/118 127/127/127 128/128/128
f 119/119/119 129/129/129 120/120/120
f 119/119/119 128/128/128 129/129/129
f 120/120/120 130/130/130 121/121/121
f 120/120/120 129/129/129 130/130/130
f 121/121/121 131/131/131 122/122/122
f 121/121/121 130/130/130 131/131/131
f 122/122/122 132/132/132 123/123/123
f 122/122/122 131/131/131 132/132/132
f 123/123/123 133/133/133 124/124/124
f 123/123/123 132/132/132 133/133/133
f 124/124/124 134/134/134 125/125/125
f 124/124/124 133/133/133 134/134/134
f 125/125/125 135/135/135 126/126/126
f 125/125/125 134/134/134 135/135/135
f 127/127/127 137/137/137 128/128/128
f 127/127/127 136/136/136 137/137/137
f 128/128/128 138/138/138 129/129/129
f 128/128/128 137/137/137 138/138/138
f 129/129/129 139/139/139 130/130/130
f 129/129/129 138/138/138 139/139/139
f 130/130/130 140/140/140 131/131/131
f 130/130/130 139/139/139 140/140/140
f 131/131/131 141/141/141 132/132/132
f 131/131/131 140/140/140 141/141/141
f 132/132/132 142/142/142 133/133/133
f 132/132/132 141/141/141 142/142/142
f 133/133/133 143/143/143 134/134/134
f 133/133/133 142/142/142 143/143/143
f 134/134/134 144/144/144 135/135/135
f 134/134/134 143/143/143 144/144/144
f 136/136/136 146/146/146 137/137/137
f 136/136/136 145/145/145 146/146/146
f 137/137/137 147/147/147 138/138/138
f 137/137/137 146/146/146 147/147/147
f 138/138/138 148/148/148 139/139/139
f 138/138/138 147/147/147 148/148/148
f 139/139/139 149/149/149 140/140/140
f 139/139/139 148/148/148 149/149/149
f 140/140/140 150/150/150 141/141/141
f 140/140/140 149/149/149 150/150/150
f 141/141/141 151/151/151 142/142/142
f 141/141/141 150/150/150 151/151/151
f 142/142/142 152/152/152 143/143/143
f 142/142/142 151/151/151 152/152/152
f 143/143/143 153/153/153 144/144/144
f 143/143/143 152/152/152 153/153/153
