# death 1s explicit open surface prototype; metres; no material; not a finished garment
# Anatomical Right=-X; front=+Z; UV values are metres, not a texture atlas.
o death 1s explicit
v -0.1557287965 0.0423185143 0.6403324932
v -0.1279111642 0.0252124532 0.6366204886
v -0.1001157750 0.0129573471 0.6331748952
v -0.0723426290 0.0055531960 0.6299957130
v -0.0445917263 0.0030000000 0.6270829420
v -0.0168630667 0.0052977591 0.6244365822
v 0.0108433496 0.0124464732 0.6220566336
v 0.0385275227 0.0244461423 0.6199430961
v 0.0661894527 0.0412967665 0.6180959699
v -0.1579503787 0.0459381183 0.5715291331
v -0.1308967647 0.0271722941 0.5679113656
v -0.1038241584 0.0138157894 0.5645483819
v -0.0767325598 0.0058686044 0.5614401822
v -0.0496219688 0.0033307391 0.5585867663
v -0.0224923855 0.0062021933 0.5559881344
v 0.0046561901 0.0144829671 0.5536442864
v 0.0318237580 0.0281730605 0.5515552224
v 0.0590103183 0.0472724736 0.5497209422
v -0.1605843239 0.0518147898 0.5031927994
v -0.1340134065 0.0327804030 0.4992895340
v -0.1074601132 0.0192622516 0.4957439757
v -0.0809244440 0.0112603354 0.4925561245
v -0.0544063991 0.0087746546 0.4897259804
v -0.0279059782 0.0118052090 0.4872535434
v -0.0014231815 0.0203519988 0.4851388135
v 0.0250419910 0.0344150239 0.4833817906
v 0.0514895394 0.0539942843 0.4819824749
v -0.1626682335 0.0592447639 0.4348181510
v -0.1366960752 0.0400070659 0.4307647347
v -0.1107524009 0.0263420401 0.4271324684
v -0.0848372105 0.0182496865 0.4239213519
v -0.0589505042 0.0157300052 0.4211313854
v -0.0330922819 0.0187829960 0.4187625689
v -0.0072625436 0.0274086590 0.4168149023
v 0.0185387107 0.0416069943 0.4152883857
v 0.0443114811 0.0613780018 0.4141830190
v -0.1644377248 0.0673144312 0.3664965611
v -0.1391314065 0.0480423718 0.3623488603
v -0.1138497698 0.0343495618 0.3586676315
v -0.0885928146 0.0262360013 0.3554528746
v -0.0633605409 0.0237016902 0.3527045897
v -0.0381529488 0.0267466286 0.3504227767
v -0.0129700382 0.0353708164 0.3486074357
v 0.0121881908 0.0495742537 0.3472585666
v 0.0373217384 0.0693569404 0.3463761696
v -0.1658967801 0.0756914566 0.2981101823
v -0.1412866199 0.0564765858 0.2939436217
v -0.1166967251 0.0428220775 0.2902687863
v -0.0921270958 0.0347279317 0.2870856762
v -0.0675777318 0.0321941484 0.2843942913
v -0.0430486333 0.0352207276 0.2821946317
v -0.0185398002 0.0438076694 0.2804866973
v 0.0059487674 0.0579549736 0.2792704881
v 0.0304170696 0.0776626403 0.2785460043
v -0.1670937162 0.0842361826 0.2296948369
v -0.1432095483 0.0651503475 0.2255545365
v -0.1193402955 0.0515859467 0.2219185781
v -0.0954859579 0.0435429802 0.2187869619
v -0.0716465355 0.0410214481 0.2161596877
v -0.0478220282 0.0440213503 0.2140367557
v -0.0240124362 0.0525426868 0.2124181657
v -0.0002177593 0.0665854576 0.2113039177
v 0.0235620025 0.0861496627 0.2106940119
v -0.1680802131 0.0928924658 0.1612451381
v -0.1449414561 0.0739917877 0.1571650644
v -0.1218137250 0.0605577517 0.1535929883
v -0.0986970197 0.0525903578 0.1505289098
v -0.0755913404 0.0500896061 0.1479728291
v -0.0524966870 0.0530554965 0.1459247460
v -0.0294130594 0.0614880290 0.1443846605
v -0.0063404578 0.0753872037 0.1433525728
v 0.0167211180 0.0947530205 0.1428284827
v -0.1689259523 0.1016463196 0.0927810010
v -0.1465462820 0.0829905930 0.0887821983
v -0.1241748311 0.0697296741 0.0852893701
v -0.1018115998 0.0618635627 0.0823025165
v -0.0794565879 0.0593922590 0.0798216375
v -0.0571097954 0.0623157629 0.0778467330
v -0.0347712225 0.0706340744 0.0763778030
v -0.0124408690 0.0843471935 0.0754148476
v 0.0098812651 0.1034551202 0.0749578667
v -0.1697018619 0.1104994529 0.0243113568
v -0.1480868835 0.0921545100 0.0204092370
v -0.1264784106 0.0791136781 0.0170069190
v -0.1048764433 0.0713769573 0.0141044027
v -0.0832809814 0.0689443475 0.0117016883
v -0.0616920250 0.0718158488 0.0097987756
v -0.0401095741 0.0799914611 0.0083956647
v -0.0185336287 0.0934711845 0.0074923557
v 0.0030358112 0.1122550190 0.0070888483
v -0.1704815298 0.1194591952 -0.0441517335
v -0.1496292529 0.1015002543 -0.0479458164
v -0.1287824196 0.0887331695 -0.0512495316
v -0.1079410299 0.0811579409 -0.0540628792
v -0.0871050838 0.0787745683 -0.0563858592
v -0.0662745814 0.0815830520 -0.0582184716
v -0.0454495226 0.0895833917 -0.0595607164
v -0.0246299074 0.1027755876 -0.0604125935
v -0.0038157358 0.1211596396 -0.0607741030
v -0.1713378640 0.1285337685 -0.1125992840
v -0.1512378824 0.1110452428 -0.1162758474
v -0.1311427062 0.0986121469 -0.1194744157
v -0.1110523353 0.0912344808 -0.1221949891
v -0.0909667698 0.0889122446 -0.1244375674
v -0.0708860096 0.0916454381 -0.1262021506
v -0.0508100548 0.0994340616 -0.1274887388
v -0.0307389053 0.1122781148 -0.1282973320
v -0.0106725612 0.1301775979 -0.1286279302
v -0.1723437746 0.1377312409 -0.1810221081
v -0.1529771152 0.1208069169 -0.1845728653
v -0.1336148357 0.1087747849 -0.1876608538
v -0.1142569359 0.1016348449 -0.1902860735
v -0.0949034160 0.0993870969 -0.1924485245
v -0.0755542758 0.1020315409 -0.1941482067
v -0.0562095154 0.1095681769 -0.1953851201
v -0.0368691348 0.1219970049 -0.1961592648
v -0.0175331340 0.1393180249 -0.1964706407
v -0.1735719723 0.1470591857 -0.2494117548
v -0.1549107957 0.1308019681 -0.2528290310
v -0.1362536775 0.1192443295 -0.2558016938
v -0.1176006177 0.1123862700 -0.2583297432
v -0.0989516162 0.1102277896 -0.2604131791
v -0.0803066731 0.1127688883 -0.2620520016
v -0.0616657883 0.1200095660 -0.2632462106
v -0.0430289619 0.1319498228 -0.2639958062
v -0.0243961939 0.1485896587 -0.2643007883
v -0.1750951270 0.1565250108 -0.3177599495
v -0.1571026214 0.1410467402 -0.3210364957
v -0.1391138920 0.1300435499 -0.3238896517
v -0.1211289386 0.1235154400 -0.3263194173
v -0.1031477613 0.1214624104 -0.3283257927
v -0.0851703601 0.1238844612 -0.3299087778
v -0.0671967350 0.1307815922 -0.3310683726
v -0.0492268860 0.1421538036 -0.3318045771
v -0.0312608131 0.1580010954 -0.3321173913
v -0.1769870364 0.1661356947 -0.3860585489
v -0.1596172710 0.1515574940 -0.3891872934
v -0.1422509936 0.1411953614 -0.3919171484
v -0.1248882043 0.1350492968 -0.3942481141
v -0.1075289030 0.1331193004 -0.3961801903
v -0.0901730899 0.1354053719 -0.3977133771
v -0.0728207648 0.1419075116 -0.3988476744
v -0.0554719277 0.1526257193 -0.3995830824
v -0.0381265788 0.1675599950 -0.3999196009
v -0.1793180310 0.1758970529 -0.4543008305
v -0.1625162004 0.1623491528 -0.4572742743
v -0.1457175511 0.1527212591 -0.4598769813
v -0.1289220831 0.1470133718 -0.4621089517
v -0.1121297963 0.1452254910 -0.4639701852
v -0.0953406909 0.1473576166 -0.4654606821
v -0.0785547668 0.1534097487 -0.4665804422
v -0.0617720239 0.1633818871 -0.4673294655
v -0.0449924624 0.1772740320 -0.4677077521
vt 0.0000000000 0.0000000000
vt 0.0338465961 0.0000000000
vt 0.0647672944 0.0000000000
vt 0.0935741371 0.0000000000
vt 0.1212640782 0.0000000000
vt 0.1489535643 0.0000000000
vt 0.1777591141 0.0000000000
vt 0.2086778469 0.0000000000
vt 0.2425219722 0.0000000000
vt 0.0000000000 0.0687937647
vt 0.0334906245 0.0687937647
vt 0.0640217931 0.0687937647
vt 0.0924105694 0.0687937647
vt 0.1196655932 0.0687937647
vt 0.1469201558 0.0687937647
vt 0.1753076237 0.0687937647
vt 0.2058368080 0.0687937647
vt 0.2393249436 0.0687937647
vt 0.0000000000 0.1375974427
vt 0.0330728720 0.1375974427
vt 0.0631485298 0.1375974427
vt 0.0910493093 0.1375974427
vt 0.1177969969 0.1375974427
vt 0.1445442162 0.1375974427
vt 0.1724436698 0.1375974427
vt 0.2025173225 0.1375974427
vt 0.2355876859 0.1375974427
vt 0.0000000000 0.2064118557
vt 0.0325964645 0.2064118557
vt 0.0621564505 0.2064118557
vt 0.0895071632 0.2064118557
vt 0.1156840616 0.2064118557
vt 0.1418604840 0.2064118557
vt 0.1692098525 0.2064118557
vt 0.1987678124 0.2064118557
vt 0.2313617490 0.2064118557
vt 0.0000000000 0.2752375378
vt 0.0320641958 0.2752375378
vt 0.0610539517 0.2752375378
vt 0.0878002923 0.2752375378
vt 0.1133518987 0.2752375378
vt 0.1389030217 0.2752375378
vt 0.1656480002 0.2752375378
vt 0.1946357103 0.2752375378
vt 0.2266973616 0.2752375378
vt 0.0000000000 0.3440748256
vt 0.0314784416 0.3440748256
vt 0.0598487318 0.3440748256
vt 0.0859440325 0.3440748256
vt 0.1108247749 0.3440748256
vt 0.1357050268 0.3440748256
vt 0.1617989495 0.3440748256
vt 0.1901671775 0.3440748256
vt 0.2216430624 0.3440748256
vt 0.0000000000 0.4129239491
vt 0.0308411023 0.4129239491
vt 0.0585476886 0.4129239491
vt 0.0839527701 0.4129239491
vt 0.1081259823 0.4129239491
vt 0.1322986979 0.4129239491
vt 0.1577023885 0.4129239491
vt 0.1854069015 0.4129239491
vt 0.2162454412 0.4129239491
vt 0.0000000000 0.4817851224
vt 0.0301535780 0.4817851224
vt 0.0571568702 0.4817851224
vt 0.0818398763 0.4817851224
vt 0.1052777710 0.4817851224
vt 0.1287151649 0.4817851224
vt 0.1533967718 0.4817851224
vt 0.1803979866 0.4817851224
vt 0.2105490047 0.4817851224
vt 0.0000000000 0.5506586332
vt 0.0294167802 0.5506586332
vt 0.0556814861 0.5506586332
vt 0.0796177156 0.5506586332
vt 0.1023013565 0.5506586332
vt 0.1249844946 0.5506586332
vt 0.1489193231 0.5506586332
vt 0.1751819564 0.5506586332
vt 0.2045961898 0.5506586332
vt 0.0000000000 0.6195449342
vt 0.0286311861 0.6195449342
vt 0.0541259937 0.6195449342
vt 0.0772977440 0.6195449342
vt 0.0992170192 0.6195449342
vt 0.1211357923 0.6195449342
vt 0.1443061477 0.6195449342
vt 0.1697988983 0.6195449342
vt 0.1984275633 0.6195449342
vt 0.0000000000 0.6884447324
vt 0.0277969472 0.6884447324
vt 0.0524942788 0.6884447324
vt 0.0748907216 0.6884447324
vt 0.0960443219 0.6884447324
vt 0.1171974248 0.6884447324
vt 0.1395924881 0.6884447324
vt 0.1642877912 0.6884447324
vt 0.1920822574 0.6884447324
vt 0.0000000000 0.7573590800
vt 0.0269140650 0.7573590800
vt 0.0507899573 0.7573590800
vt 0.0724070742 0.7573590800
vt 0.0928024822 0.7573590800
vt 0.1131974016 0.7573590800
vt 0.1348131659 0.7573590800
vt 0.1586870729 0.7573590800
vt 0.1855987132 0.7573590800
vt 0.0000000000 0.8262894637
vt 0.0259826569 0.8262894637
vt 0.0490168359 0.8262894637
vt 0.0698574514 0.8262894637
vt 0.0895109459 0.8262894637
vt 0.1091639660 0.8262894637
vt 0.1300032685 0.8262894637
vt 0.1530355222 0.8262894637
vt 0.1790158290 0.8262894637
vt 0.0000000000 0.8952378949
vt 0.0250033424 0.8952378949
vt 0.0471795870 0.8952378949
vt 0.0672535449 0.8952378949
vt 0.0861902312 0.8952378949
vt 0.1051264629 0.8952378949
vt 0.1251991620 0.8952378949
vt 0.1473735597 0.8952378949
vt 0.1723746467 0.8952378949
vt 0.0000000000 0.9642069992
vt 0.0239777994 0.9642069992
vt 0.0452847137 0.9642069992
vt 0.0646092578 0.9642069992
vt 0.0828631320 0.9642069992
vt 0.1011165776 0.9642069992
vt 0.1204399331 0.9642069992
vt 0.1417450993 0.9642069992
vt 0.1657207603 0.9642069992
vt 0.0000000000 1.0332001055
vt 0.0229095590 1.0332001055
vt 0.0433419162 1.0332001055
vt 0.0619423465 1.0332001055
vt 0.0795564060 1.0332001055
vt 0.0971700698 1.0332001055
vt 0.1157693987 1.0332001055
vt 0.1362001287 1.0332001055
vt 0.1591076905 1.0332001055
vt 0.0000000000 1.1022213348
vt 0.0218051477 1.1022213348
vt 0.0413660123 1.1022213348
vt 0.0592766988 1.1022213348
vt 0.0763031112 1.1022213348
vt 0.0933291676 1.1022213348
vt 0.1112388578 1.1022213348
vt 0.1307982399 1.1022213348
vt 0.1526015580 1.1022213348
vn -0.5483745208 -0.8361292974 -0.0131599034
vn -0.4589290733 -0.8884725719 0.0007712014
vn -0.3158644321 -0.9487656627 0.0085660891
vn -0.1489568701 -0.9888300211 0.0052000203
vn 0.0306629774 -0.9994784510 -0.0101295496
vn 0.2066878750 -0.9777433492 -0.0360286749
vn 0.3639629223 -0.9288337635 -0.0692735957
vn 0.4939568657 -0.8629797734 -0.1061721508
vn 0.5097254426 -0.8507809067 -0.1278742432
vn -0.5771582944 -0.8157725400 -0.0374628647
vn -0.5064446178 -0.8618010563 -0.0285094444
vn -0.3630238421 -0.9314208523 -0.0258628319
vn -0.1893907585 -0.9814324565 -0.0303557906
vn 0.0029148619 -0.9990914640 -0.0425176439
vn 0.1940103370 -0.9790784077 -0.0613633491
vn 0.3644320406 -0.9273680722 -0.0847215818
vn 0.5035252555 -0.8569106963 -0.1103012951
vn 0.5471254061 -0.8278482479 -0.1237783038
vn -0.5914082066 -0.8042041132 -0.0590938023
vn -0.5271834121 -0.8478212470 -0.0572431934
vn -0.3817222060 -0.9219888304 -0.0649981078
vn -0.2016024692 -0.9764981679 -0.0762087422
vn 0.0010428097 -0.9959392196 -0.0900221271
vn 0.2031254680 -0.9735111877 -0.1049571892
vn 0.3817508139 -0.9164781276 -0.1197253431
vn 0.5251756779 -0.8404063298 -0.1338196850
vn 0.5770447481 -0.8044207357 -0.1411617468
vn -0.6045139758 -0.7932913320 -0.0724687211
vn -0.5410382783 -0.8377691085 -0.0736240599
vn -0.3942479932 -0.9152648348 -0.0828178849
vn -0.2098845531 -0.9731041633 -0.0949566313
vn -0.0004084027 -0.9940872120 -0.1085838299
vn 0.2089016461 -0.9703225304 -0.1217960969
vn 0.3927562070 -0.9099197752 -0.1333737773
vn 0.5386995217 -0.8302287872 -0.1432584598
vn 0.5931045971 -0.7914436400 -0.1477968255
vn -0.6153153865 -0.7843146486 -0.0789778899
vn -0.5526873931 -0.8293800436 -0.0816418319
vn -0.4048333785 -0.9097202911 -0.0922980365
vn -0.2169901548 -0.9704429819 -0.1056205072
vn -0.0019018455 -0.9928083867 -0.1196991655
vn 0.2132338814 -0.9680042656 -0.1322839883
vn 0.4010964023 -0.9049308167 -0.1422037026
vn 0.5487394333 -0.8224701430 -0.1497594680
vn 0.6043382579 -0.7818671377 -0.1531634712
vn -0.6248989054 -0.7762937047 -0.0828820977
vn -0.5628121592 -0.8220641964 -0.0863303566
vn -0.4139742866 -0.9050249987 -0.0977498936
vn -0.2229521264 -0.9684112099 -0.1116784574
vn -0.0027709498 -0.9920358168 -0.1259256128
vn 0.2175358879 -0.9662433176 -0.1380289413
vn 0.4087730445 -0.9007370847 -0.1468921455
vn 0.5576438872 -0.8158398457 -0.1530968363
vn 0.6136872304 -0.7740006165 -0.1559199436
vn -0.6337192644 -0.7688287501 -0.0854531853
vn -0.5720400769 -0.8153395697 -0.0893953946
vn -0.4223163071 -0.9007648930 -0.1013486277
vn -0.2283210932 -0.9666832341 -0.1157281436
vn -0.0033373258 -0.9914935461 -0.1301130674
vn 0.2217937702 -0.9647195899 -0.1418578035
vn 0.4160632551 -0.8968893320 -0.1499362998
vn 0.5659079093 -0.8097340152 -0.1551742984
vn 0.6221711285 -0.7668732794 -0.1575070161
vn -0.6418939508 -0.7618138453 -0.0872457515
vn -0.5806364136 -0.8089899078 -0.0916334234
vn -0.4301516505 -0.8967305779 -0.1041337040
vn -0.2333703340 -0.9650802566 -0.1189890144
vn -0.0037877535 -0.9910340871 -0.1335555730
vn 0.2259592114 -0.9632833261 -0.1450092013
vn 0.4230613785 -0.8931923337 -0.1524025099
vn 0.5737358973 -0.8038894333 -0.1568084794
vn 0.6301282260 -0.7601036404 -0.1586848280
vn -0.6492753536 -0.7553876988 -0.0884925966
vn -0.5885342286 -0.8030588960 -0.0934016670
vn -0.4374410306 -0.8929018902 -0.1066375128
vn -0.2381299052 -0.9635217560 -0.1221473452
vn -0.0042465399 -0.9905575999 -0.1370314133
vn 0.2298400513 -0.9618694876 -0.1482586913
vn 0.4295679266 -0.8896389037 -0.1549645685
vn 0.5809691836 -0.7983450219 -0.1584930087
vn 0.6375534769 -0.7536415949 -0.1598433935
vn -0.6555966141 -0.7498125264 -0.0892986839
vn -0.5954986276 -0.7977366812 -0.0948555318
vn -0.4439632981 -0.8893820140 -0.1090698089
vn -0.2424754342 -0.9620125308 -0.1254494099
vn -0.0047632071 -0.9900269295 -0.1407976941
vn 0.2332222435 -0.9604947521 -0.1518460282
vn 0.4352929672 -0.8863480618 -0.1578199797
vn 0.5873255363 -0.7933043796 -0.1603648210
vn 0.6442241050 -0.7476793916 -0.1610926125
vn -0.6605037020 -0.7454424221 -0.0897243279
vn -0.6011842569 -0.7933146302 -0.0960696970
vn -0.4493779613 -0.8863529631 -0.1115252112
vn -0.2461882117 -0.9605990744 -0.1289991579
vn -0.0053618719 -0.9894231796 -0.1449586904
vn 0.2358385968 -0.9592102509 -0.1558712639
vn 0.4398470525 -0.8835127221 -0.1610584995
vn 0.5924111754 -0.7890786472 -0.1624927314
vn 0.6498030680 -0.7425330596 -0.1624827015
vn -0.6635710515 -0.7427001715 -0.0898327048
vn -0.6051683416 -0.7901529547 -0.0971060574
vn -0.4532631989 -0.8840493732 -0.1140577847
vn -0.2489856271 -0.9593554310 -0.1328281393
vn -0.0060489953 -0.9887398207 -0.1495224951
vn 0.2373890201 -0.9580913844 -0.1603351247
vn 0.4427817503 -0.8813751762 -0.1646879484
vn 0.5957699393 -0.7860461320 -0.1648928673
vn 0.6538807706 -0.7386028687 -0.1640296931
vn -0.6642822772 -0.7420790220 -0.0897094277
vn -0.6069438225 -0.7886741058 -0.0980425988
vn -0.4551184237 -0.8827465384 -0.1167294707
vn -0.2505319791 -0.9583708903 -0.1369633677
vn -0.0068263717 -0.9879718336 -0.1544831919
vn 0.2375273367 -0.9572258632 -0.1652253347
vn 0.4435734216 -0.8802152784 -0.1687118349
vn 0.5968642796 -0.7846452584 -0.1675853521
vn 0.6559790942 -0.7363537719 -0.1657544889
vn -0.6619974956 -0.7441456396 -0.0894795108
vn -0.6058977072 -0.7893596713 -0.0989913018
vn -0.4543559203 -0.8827515507 -0.1196260738
vn -0.2504407537 -0.9577444856 -0.1414387822
vn -0.0076930742 -0.9871150809 -0.1598268867
vn 0.2358602923 -0.9567097713 -0.1705178465
vn 0.4416129691 -0.8803435392 -0.1731278099
vn 0.5950531390 -0.7853725687 -0.1705921749
vn 0.6555266258 -0.7363201198 -0.1676828076
vn -0.6558965230 -0.7495484004 -0.0893137538
vn -0.6012722032 -0.7927482908 -0.1001093662
vn -0.4502837067 -0.8843909509 -0.1228707838
vn -0.2482761183 -0.9575761805 -0.1463107231
vn -0.0086495442 -0.9861637717 -0.1655481827
vn 0.2319412279 -0.9566399473 -0.1761910272
vn 0.4361813771 -0.8820908345 -0.1779369719
vn 0.5895463589 -0.7887837605 -0.1739404204
vn 0.6518187024 -0.7391108028 -0.1698458137
vn -0.6448991030 -0.7590131575 -0.0894660473
vn -0.5921042485 -0.7994288721 -0.1016171117
vn -0.4420781239 -0.8879933536 -0.1266283394
vn -0.2435503071 -0.9579589125 -0.1516508154
vn -0.0096952446 -0.9851126836 -0.1716362513
vn 0.2252713502 -0.9571066973 -0.1822075431
vn 0.4264231822 -0.8857923841 -0.1831259727
vn 0.5793410553 -0.7954899526 -0.1776504347
vn 0.6439426060 -0.7454259299 -0.1722733390
vn -0.6346604247 -0.7677483191 -0.0881400241
vn -0.6030770959 -0.7916913695 -0.0975847932
vn -0.4613829098 -0.8785355246 -0.1236977870
vn -0.2733234403 -0.9501367105 -0.1501150503
vn -0.0484711133 -0.9839000528 -0.1720210371
vn 0.1834615467 -0.9655144887 -0.1847258317
vn 0.3881548143 -0.9023811177 -0.1872008507
vn 0.5479168504 -0.8164402265 -0.1822429191
vn 0.6331625144 -0.7538906333 -0.1753685929
f 1/1/1 11/11/11 2/2/2
f 1/1/1 10/10/10 11/11/11
f 2/2/2 12/12/12 3/3/3
f 2/2/2 11/11/11 12/12/12
f 3/3/3 13/13/13 4/4/4
f 3/3/3 12/12/12 13/13/13
f 4/4/4 14/14/14 5/5/5
f 4/4/4 13/13/13 14/14/14
f 5/5/5 15/15/15 6/6/6
f 5/5/5 14/14/14 15/15/15
f 6/6/6 16/16/16 7/7/7
f 6/6/6 15/15/15 16/16/16
f 7/7/7 17/17/17 8/8/8
f 7/7/7 16/16/16 17/17/17
f 8/8/8 18/18/18 9/9/9
f 8/8/8 17/17/17 18/18/18
f 10/10/10 20/20/20 11/11/11
f 10/10/10 19/19/19 20/20/20
f 11/11/11 21/21/21 12/12/12
f 11/11/11 20/20/20 21/21/21
f 12/12/12 22/22/22 13/13/13
f 12/12/12 21/21/21 22/22/22
f 13/13/13 23/23/23 14/14/14
f 13/13/13 22/22/22 23/23/23
f 14/14/14 24/24/24 15/15/15
f 14/14/14 23/23/23 24/24/24
f 15/15/15 25/25/25 16/16/16
f 15/15/15 24/24/24 25/25/25
f 16/16/16 26/26/26 17/17/17
f 16/16/16 25/25/25 26/26/26
f 17/17/17 27/27/27 18/18/18
f 17/17/17 26/26/26 27/27/27
f 19/19/19 29/29/29 20/20/20
f 19/19/19 28/28/28 29/29/29
f 20/20/20 30/30/30 21/21/21
f 20/20/20 29/29/29 30/30/30
f 21/21/21 31/31/31 22/22/22
f 21/21/21 30/30/30 31/31/31
f 22/22/22 32/32/32 23/23/23
f 22/22/22 31/31/31 32/32/32
f 23/23/23 33/33/33 24/24/24
f 23/23/23 32/32/32 33/33/33
f 24/24/24 34/34/34 25/25/25
f 24/24/24 33/33/33 34/34/34
f 25/25/25 35/35/35 26/26/26
f 25/25/25 34/34/34 35/35/35
f 26/26/26 36/36/36 27/27/27
f 26/26/26 35/35/35 36/36/36
f 28/28/28 38/38/38 29/29/29
f 28/28/28 37/37/37 38/38/38
f 29/29/29 39/39/39 30/30/30
f 29/29/29 38/38/38 39/39/39
f 30/30/30 40/40/40 31/31/31
f 30/30/30 39/39/39 40/40/40
f 31/31/31 41/41/41 32/32/32
f 31/31/31 40/40/40 41/41/41
f 32/32/32 42/42/42 33/33/33
f 32/32/32 41/41/41 42/42/42
f 33/33/33 43/43/43 34/34/34
f 33/33/33 42/42/42 43/43/43
f 34/34/34 44/44/44 35/35/35
f 34/34/34 43/43/43 44/44/44
f 35/35/35 45/45/45 36/36/36
f 35/35/35 44/44/44 45/45/45
f 37/37/37 47/47/47 38/38/38
f 37/37/37 46/46/46 47/47/47
f 38/38/38 48/48/48 39/39/39
f 38/38/38 47/47/47 48/48/48
f 39/39/39 49/49/49 40/40/40
f 39/39/39 48/48/48 49/49/49
f 40/40/40 50/50/50 41/41/41
f 40/40/40 49/49/49 50/50/50
f 41/41/41 51/51/51 42/42/42
f 41/41/41 50/50/50 51/51/51
f 42/42/42 52/52/52 43/43/43
f 42/42/42 51/51/51 52/52/52
f 43/43/43 53/53/53 44/44/44
f 43/43/43 52/52/52 53/53/53
f 44/44/44 54/54/54 45/45/45
f 44/44/44 53/53/53 54/54/54
f 46/46/46 56/56/56 47/47/47
f 46/46/46 55/55/55 56/56/56
f 47/47/47 57/57/57 48/48/48
f 47/47/47 56/56/56 57/57/57
f 48/48/48 58/58/58 49/49/49
f 48/48/48 57/57/57 58/58/58
f 49/49/49 59/59/59 50/50/50
f 49/49/49 58/58/58 59/59/59
f 50/50/50 60/60/60 51/51/51
f 50/50/50 59/59/59 60/60/60
f 51/51/51 61/61/61 52/52/52
f 51/51/51 60/60/60 61/61/61
f 52/52/52 62/62/62 53/53/53
f 52/52/52 61/61/61 62/62/62
f 53/53/53 63/63/63 54/54/54
f 53/53/53 62/62/62 63/63/63
f 55/55/55 65/65/65 56/56/56
f 55/55/55 64/64/64 65/65/65
f 56/56/56 66/66/66 57/57/57
f 56/56/56 65/65/65 66/66/66
f 57/57/57 67/67/67 58/58/58
f 57/57/57 66/66/66 67/67/67
f 58/58/58 68/68/68 59/59/59
f 58/58/58 67/67/67 68/68/68
f 59/59/59 69/69/69 60/60/60
f 59/59/59 68/68/68 69/69/69
f 60/60/60 70/70/70 61/61/61
f 60/60/60 69/69/69 70/70/70
f 61/61/61 71/71/71 62/62/62
f 61/61/61 70/70/70 71/71/71
f 62/62/62 72/72/72 63/63/63
f 62/62/62 71/71/71 72/72/72
f 64/64/64 74/74/74 65/65/65
f 64/64/64 73/73/73 74/74/74
f 65/65/65 75/75/75 66/66/66
f 65/65/65 74/74/74 75/75/75
f 66/66/66 76/76/76 67/67/67
f 66/66/66 75/75/75 76/76/76
f 67/67/67 77/77/77 68/68/68
f 67/67/67 76/76/76 77/77/77
f 68/68/68 78/78/78 69/69/69
f 68/68/68 77/77/77 78/78/78
f 69/69/69 79/79/79 70/70/70
f 69/69/69 78/78/78 79/79/79
f 70/70/70 80/80/80 71/71/71
f 70/70/70 79/79/79 80/80/80
f 71/71/71 81/81/81 72/72/72
f 71/71/71 80/80/80 81/81/81
f 73/73/73 83/83/83 74/74/74
f 73/73/73 82/82/82 83/83/83
f 74/74/74 84/84/84 75/75/75
f 74/74/74 83/83/83 84/84/84
f 75/75/75 85/85/85 76/76/76
f 75/75/75 84/84/84 85/85/85
f 76/76/76 86/86/86 77/77/77
f 76/76/76 85/85/85 86/86/86
f 77/77/77 87/87/87 78/78/78
f 77/77/77 86/86/86 87/87/87
f 78/78/78 88/88/88 79/79/79
f 78/78/78 87/87/87 88/88/88
f 79/79/79 89/89/89 80/80/80
f 79/79/79 88/88/88 89/89/89
f 80/80/80 90/90/90 81/81/81
f 80/80/80 89/89/89 90/90/90
f 82/82/82 92/92/92 83/83/83
f 82/82/82 91/91/91 92/92/92
f 83/83/83 93/93/93 84/84/84
f 83/83/83 92/92/92 93/93/93
f 84/84/84 94/94/94 85/85/85
f 84/84/84 93/93/93 94/94/94
f 85/85/85 95/95/95 86/86/86
f 85/85/85 94/94/94 95/95/95
f 86/86/86 96/96/96 87/87/87
f 86/86/86 95/95/95 96/96/96
f 87/87/87 97/97/97 88/88/88
f 87/87/87 96/96/96 97/97/97
f 88/88/88 98/98/98 89/89/89
f 88/88/88 97/97/97 98/98/98
f 89/89/89 99/99/99 90/90/90
f 89/89/89 98/98/98 99/99/99
f 91/91/91 101/101/101 92/92/92
f 91/91/91 100/100/100 101/101/101
f 92/92/92 102/102/102 93/93/93
f 92/92/92 101/101/101 102/102/102
f 93/93/93 103/103/103 94/94/94
f 93/93/93 102/102/102 103/103/103
f 94/94/94 104/104/104 95/95/95
f 94/94/94 103/103/103 104/104/104
f 95/95/95 105/105/105 96/96/96
f 95/95/95 104/104/104 105/105/105
f 96/96/96 106/106/106 97/97/97
f 96/96/96 105/105/105 106/106/106
f 97/97/97 107/107/107 98/98/98
f 97/97/97 106/106/106 107/107/107
f 98/98/98 108/108/108 99/99/99
f 98/98/98 107/107/107 108/108/108
f 100/100/100 110/110/110 101/101/101
f 100/100/100 109/109/109 110/110/110
f 101/101/101 111/111/111 102/102/102
f 101/101/101 110/110/110 111/111/111
f 102/102/102 112/112/112 103/103/103
f 102/102/102 111/111/111 112/112/112
f 103/103/103 113/113/113 104/104/104
f 103/103/103 112/112/112 113/113/113
f 104/104/104 114/114/114 105/105/105
f 104/104/104 113/113/113 114/114/114
f 105/105/105 115/115/115 106/106/106
f 105/105/105 114/114/114 115/115/115
f 106/106/106 116/116/116 107/107/107
f 106/106/106 115/115/115 116/116/116
f 107/107/107 117/117/117 108/108/108
f 107/107/107 116/116/116 117/117/117
f 109/109/109 119/119/119 110/110/110
f 109/109/109 118/118/118 119/119/119
f 110/110/110 120/120/120 111/111/111
f 110/110/110 119/119/119 120/120/120
f 111/111/111 121/121/121 112/112/112
f 111/111/111 120/120/120 121/121/121
f 112/112/112 122/122/122 113/113/113
f 112/112/112 121/121/121 122/122/122
f 113/113/113 123/123/123 114/114/114
f 113/113/113 122/122/122 123/123/123
f 114/114/114 124/124/124 115/115/115
f 114/114/114 123/123/123 124/124/124
f 115/115/115 125/125/125 116/116/116
f 115/115/115 124/124/124 125/125/125
f 116/116/116 126/126/126 117/117/117
f 116/116/116 125/125/125 126/126/126
f 118/118/118 128/128/128 119/119/119
f 118/118/118 127/127/127 128/128/128
f 119/119/119 129/129/129 120/120/120
f 119/119/119 128/128/128 129/129/129
f 120/120/120 130/130/130 121/121/121
f 120/120/120 129/129/129 130/130/130
f 121/121/121 131/131/131 122/122/122
f 121/121/121 130/130/130 131/131/131
f 122/122/122 132/132/132 123/123/123
f 122/122/122 131/131/131 132/132/132
f 123/123/123 133/133/133 124/124/124
f 123/123/123 132/132/132 133/133/133
f 124/124/124 134/134/134 125/125/125
f 124/124/124 133/133/133 134/134/134
f 125/125/125 135/135/135 126/126/126
f 125/125/125 134/134/134 135/135/135
f 127/127/127 137/137/137 128/128/128
f 127/127/127 136/136/136 137/137/137
f 128/128/128 138/138/138 129/129/129
f 128/128/128 137/137/137 138/138/138
f 129/129/129 139/139/139 130/130/130
f 129/129/129 138/138/138 139/139/139
f 130/130/130 140/140/140 131/131/131
f 130/130/130 139/139/139 140/140/140
f 131/131/131 141/141/141 132/132/132
f 131/131/131 140/140/140 141/141/141
f 132/132/132 142/142/142 133/133/133
f 132/132/132 141/141/141 142/142/142
f 133/133/133 143/143/143 134/134/134
f 133/133/133 142/142/142 143/143/143
f 134/134/134 144/144/144 135/135/135
f 134/134/134 143/143/143 144/144/144
f 136/136/136 146/146/146 137/137/137
f 136/136/136 145/145/145 146/146/146
f 137/137/137 147/147/147 138/138/138
f 137/137/137 146/146/146 147/147/147
f 138/138/138 148/148/148 139/139/139
f 138/138/138 147/147/147 148/148/148
f 139/139/139 149/149/149 140/140/140
f 139/139/139 148/148/148 149/149/149
f 140/140/140 150/150/150 141/141/141
f 140/140/140 149/149/149 150/150/150
f 141/141/141 151/151/151 142/142/142
f 141/141/141 150/150/150 151/151/151
f 142/142/142 152/152/152 143/143/143
f 142/142/142 151/151/151 152/152/152
f 143/143/143 153/153/153 144/144/144
f 143/143/143 152/152/152 153/153/153
