# P01-P02-P04RB-right-join open surface prototype; metres; no material; not a finished garment
# Anatomical Right=-X; front=+Z; UV values are metres, not a texture atlas.
o P01-P02-P04RB-right-join
v -0.2250000000 0.3150000000 -0.2440000000
v -0.1975000000 0.3150000000 -0.2636875000
v -0.1700000000 0.3150000000 -0.2777500000
v -0.1425000000 0.3150000000 -0.2861875000
v -0.1150000000 0.3150000000 -0.2890000000
v -0.0875000000 0.3150000000 -0.2861875000
v -0.0600000000 0.3150000000 -0.2777500000
v -0.0325000000 0.3150000000 -0.2636875000
v -0.0050000000 0.3150000000 -0.2440000000
v -0.2214965820 0.3837500000 -0.2422878418
v -0.1944345093 0.3837500000 -0.2619738998
v -0.1673724365 0.3837500000 -0.2760353699
v -0.1403103638 0.3837500000 -0.2844722519
v -0.1132482910 0.3837500000 -0.2872845459
v -0.0861862183 0.3837500000 -0.2844722519
v -0.0591241455 0.3837500000 -0.2760353699
v -0.0320620728 0.3837500000 -0.2619738998
v -0.0050000000 0.3837500000 -0.2422878418
v -0.2174101563 0.4525000000 -0.2405214844
v -0.1908588867 0.4525000000 -0.2601974487
v -0.1643076172 0.4525000000 -0.2742517090
v -0.1377563477 0.4525000000 -0.2826842651
v -0.1112050781 0.4525000000 -0.2854951172
v -0.0846538086 0.4525000000 -0.2826842651
v -0.0581025391 0.4525000000 -0.2742517090
v -0.0315512695 0.4525000000 -0.2601974487
v -0.0050000000 0.4525000000 -0.2405214844
v -0.2128139648 0.5212500000 -0.2386936035
v -0.1868372192 0.5212500000 -0.2583421707
v -0.1608604736 0.5212500000 -0.2723768616
v -0.1348837280 0.5212500000 -0.2807976761
v -0.1089069824 0.5212500000 -0.2836046143
v -0.0829302368 0.5212500000 -0.2807976761
v -0.0569534912 0.5212500000 -0.2723768616
v -0.0309767456 0.5212500000 -0.2583421707
v -0.0050000000 0.5212500000 -0.2386936035
v -0.2077812500 0.5900000000 -0.2367968750
v -0.1824335938 0.5900000000 -0.2563920898
v -0.1570859375 0.5900000000 -0.2703886719
v -0.1317382813 0.5900000000 -0.2787866211
v -0.1063906250 0.5900000000 -0.2815859375
v -0.0810429687 0.5900000000 -0.2787866211
v -0.0556953125 0.5900000000 -0.2703886719
v -0.0303476563 0.5900000000 -0.2563920898
v -0.0050000000 0.5900000000 -0.2367968750
v -0.2023852539 0.6587500000 -0.2348239746
v -0.1777120972 0.6587500000 -0.2543312302
v -0.1530389404 0.6587500000 -0.2682649841
v -0.1283657837 0.6587500000 -0.2766252365
v -0.1036926270 0.6587500000 -0.2794119873
v -0.0790194702 0.6587500000 -0.2766252365
v -0.0543463135 0.6587500000 -0.2682649841
v -0.0296731567 0.6587500000 -0.2543312302
v -0.0050000000 0.6587500000 -0.2348239746
v -0.1966992188 0.7275000000 -0.2327675781
v -0.1727368164 0.7275000000 -0.2521436157
v -0.1487744141 0.7275000000 -0.2659836426
v -0.1248120117 0.7275000000 -0.2742876587
v -0.1008496094 0.7275000000 -0.2770556641
v -0.0768872070 0.7275000000 -0.2742876587
v -0.0529248047 0.7275000000 -0.2659836426
v -0.0289624023 0.7275000000 -0.2521436157
v -0.0050000000 0.7275000000 -0.2327675781
v -0.1907963867 0.7962500000 -0.2306203613
v -0.1675718384 0.7962500000 -0.2498132706
v -0.1443472900 0.7962500000 -0.2635224915
v -0.1211227417 0.7962500000 -0.2717480240
v -0.0978981934 0.7962500000 -0.2744898682
v -0.0746736450 0.7962500000 -0.2717480240
v -0.0514490967 0.7962500000 -0.2635224915
v -0.0282245483 0.7962500000 -0.2498132706
v -0.0050000000 0.7962500000 -0.2306203613
v -0.1847500000 0.8650000000 -0.2283750000
v -0.1622812500 0.8650000000 -0.2473242188
v -0.1398125000 0.8650000000 -0.2608593750
v -0.1173437500 0.8650000000 -0.2689804687
v -0.0948750000 0.8650000000 -0.2716875000
v -0.0724062500 0.8650000000 -0.2689804688
v -0.0499375000 0.8650000000 -0.2608593750
v -0.0274687500 0.8650000000 -0.2473242188
v -0.0050000000 0.8650000000 -0.2283750000
v -0.1786333008 0.9337500000 -0.2260241699
v -0.1569291382 0.9337500000 -0.2446604843
v -0.1352249756 0.9337500000 -0.2579721375
v -0.1135208130 0.9337500000 -0.2659591293
v -0.0918166504 0.9337500000 -0.2686214600
v -0.0701124878 0.9337500000 -0.2659591293
v -0.0484083252 0.9337500000 -0.2579721375
v -0.0267041626 0.9337500000 -0.2446604843
v -0.0050000000 0.9337500000 -0.2260241699
v -0.1725195313 1.0025000000 -0.2235605469
v -0.1515795898 1.0025000000 -0.2418060913
v -0.1306396484 1.0025000000 -0.2548386230
v -0.1096997070 1.0025000000 -0.2626581421
v -0.0887597656 1.0025000000 -0.2652646484
v -0.0678198242 1.0025000000 -0.2626581421
v -0.0468798828 1.0025000000 -0.2548386230
v -0.0259399414 1.0025000000 -0.2418060913
v -0.0050000000 1.0025000000 -0.2235605469
v -0.1664819336 1.0712500000 -0.2209768066
v -0.1462966919 1.0712500000 -0.2387450638
v -0.1261114502 1.0712500000 -0.2514366760
v -0.1059262085 1.0712500000 -0.2590516434
v -0.0857409668 1.0712500000 -0.2615899658
v -0.0655557251 1.0712500000 -0.2590516434
v -0.0453704834 1.0712500000 -0.2514366760
v -0.0251852417 1.0712500000 -0.2387450638
v -0.0050000000 1.0712500000 -0.2209768066
v -0.1605937500 1.1400000000 -0.2182656250
v -0.1411445313 1.1400000000 -0.2354614258
v -0.1216953125 1.1400000000 -0.2477441406
v -0.1022460938 1.1400000000 -0.2551137695
v -0.0827968750 1.1400000000 -0.2575703125
v -0.0633476563 1.1400000000 -0.2551137695
v -0.0438984375 1.1400000000 -0.2477441406
v -0.0244492188 1.1400000000 -0.2354614258
v -0.0050000000 1.1400000000 -0.2182656250
v -0.1549282227 1.2087500000 -0.2154196777
v -0.1361871948 1.2087500000 -0.2319392014
v -0.1174461670 1.2087500000 -0.2437388611
v -0.0987051392 1.2087500000 -0.2508186569
v -0.0799641113 1.2087500000 -0.2531785889
v -0.0612230835 1.2087500000 -0.2508186569
v -0.0424820557 1.2087500000 -0.2437388611
v -0.0237410278 1.2087500000 -0.2319392014
v -0.0050000000 1.2087500000 -0.2154196777
v -0.1495585938 1.2775000000 -0.2124316406
v -0.1314887695 1.2775000000 -0.2281624146
v -0.1134189453 1.2775000000 -0.2393986816
v -0.0953491211 1.2775000000 -0.2461404419
v -0.0772792969 1.2775000000 -0.2483876953
v -0.0592094727 1.2775000000 -0.2461404419
v -0.0411396484 1.2775000000 -0.2393986816
v -0.0230698242 1.2775000000 -0.2281624146
v -0.0050000000 1.2775000000 -0.2124316406
v -0.1445581055 1.3462500000 -0.2092941895
v -0.1271133423 1.3462500000 -0.2241150894
v -0.1096685791 1.3462500000 -0.2347014465
v -0.0922238159 1.3462500000 -0.2410532608
v -0.0747790527 1.3462500000 -0.2431705322
v -0.0573342896 1.3462500000 -0.2410532608
v -0.0398895264 1.3462500000 -0.2347014465
v -0.0224447632 1.3462500000 -0.2241150894
v -0.0050000000 1.3462500000 -0.2092941895
v -0.1400000000 1.4150000000 -0.2060000000
v -0.1231250000 1.4150000000 -0.2197812500
v -0.1062500000 1.4150000000 -0.2296250000
v -0.0893750000 1.4150000000 -0.2355312500
v -0.0725000000 1.4150000000 -0.2375000000
v -0.0556250000 1.4150000000 -0.2355312500
v -0.0387500000 1.4150000000 -0.2296250000
v -0.0218750000 1.4150000000 -0.2197812500
v -0.0050000000 1.4150000000 -0.2060000000
v -0.4200000000 0.3150000000 0.0100000000
v -0.3966845703 0.3150000000 -0.0314707031
v -0.3734765625 0.3150000000 -0.0697656250
v -0.3501708984 0.3150000000 -0.1050839844
v -0.3265625000 0.3150000000 -0.1376250000
v -0.3024462891 0.3150000000 -0.1675878906
v -0.2776171875 0.3150000000 -0.1951718750
v -0.2518701172 0.3150000000 -0.2205761719
v -0.4162915039 0.3837500000 0.0064636230
v -0.3929664278 0.3837500000 -0.0340282855
v -0.3696791458 0.3837500000 -0.0713754234
v -0.3462644339 0.3837500000 -0.1058076081
v -0.3225570679 0.3837500000 -0.1375546570
v -0.2983918238 0.3837500000 -0.1668463874
v -0.2736034775 0.3837500000 -0.1939126167
v -0.2480268049 0.3837500000 -0.2189831624
v -0.4119414063 0.4525000000 0.0026152344
v -0.3886096420 0.4525000000 -0.0368306541
v -0.3652343140 0.4525000000 -0.0731664734
v -0.3416965408 0.4525000000 -0.1066538582
v -0.3178774414 0.4525000000 -0.1375544434
v -0.2936581345 0.4525000000 -0.1661298637
v -0.2689197388 0.4525000000 -0.1926417542
v -0.2435433731 0.4525000000 -0.2173517494
v -0.4069877930 0.5212500000 -0.0015290527
v -0.3836598577 0.5212500000 -0.0398644166
v -0.3601964951 0.5212500000 -0.0751295967
v -0.3365305910 0.5212500000 -0.1076182857
v -0.3125950317 0.5212500000 -0.1376241760
v -0.2883227034 0.5212500000 -0.1654409604
v -0.2636464920 0.5212500000 -0.1913623314
v -0.2384992838 0.5212500000 -0.2156819816
v -0.4014687500 0.5900000000 -0.0059531250
v -0.3781627197 0.5900000000 -0.0431161804
v -0.3546201172 0.5900000000 -0.0772556152
v -0.3308299561 0.5900000000 -0.1086964417
v -0.3067812500 0.5900000000 -0.1377636719
v -0.2824630127 0.5900000000 -0.1647823181
v -0.2578642578 0.5900000000 -0.1900773926
v -0.2329739990 0.5900000000 -0.2139739075
v -0.3954223633 0.6587500000 -0.0106408691
v -0.3721638727 0.6587500000 -0.0465725532
v -0.3485596085 0.6587500000 -0.0795353508
v -0.3246580076 0.6587500000 -0.1098838773
v -0.3005075073 0.6587500000 -0.1379727478
v -0.2761565447 0.6587500000 -0.1641565776
v -0.2516535568 0.6587500000 -0.1887899818
v -0.2270469809 0.6587500000 -0.2122275758
v -0.3888867188 0.7275000000 -0.0155761719
v -0.3657089615 0.7275000000 -0.0502201424
v -0.3420693970 0.7275000000 -0.0819596252
v -0.3180781174 0.7275000000 -0.1111761436
v -0.2938452148 0.7275000000 -0.1382512207
v -0.2694807816 0.7275000000 -0.1635663795
v -0.2450949097 0.7275000000 -0.1875031433
v -0.2207976913 0.7275000000 -0.2104430351
v -0.3818999023 0.7962500000 -0.0207429199
v -0.3588436308 0.7962500000 -0.0540455556
v -0.3352039108 0.7962500000 -0.0845192604
v -0.3111536570 0.7962500000 -0.1125687919
v -0.2868657837 0.7962500000 -0.1385989075
v -0.2625132055 0.7962500000 -0.1630143647
v -0.2382688370 0.7962500000 -0.1862199211
v -0.2143055925 0.7962500000 -0.2086203341
v -0.3745000000 0.8650000000 -0.0261250000
v -0.3516135254 0.8650000000 -0.0580354004
v -0.3280175781 0.8650000000 -0.0872050781
v -0.3039479980 0.8650000000 -0.1140573730
v -0.2796406250 0.8650000000 -0.1390156250
v -0.2553312988 0.8650000000 -0.1625031738
v -0.2312558594 0.8650000000 -0.1849433594
v -0.2076501465 0.8650000000 -0.2067595215
v -0.3667250977 0.9337500000 -0.0317062988
v -0.3440642900 0.9337500000 -0.0621762843
v -0.3205648270 0.9337500000 -0.0900079002
v -0.2965245123 0.9337500000 -0.1156374383
v -0.2722411499 0.9337500000 -0.1395011902
v -0.2480125437 0.9337500000 -0.1620354476
v -0.2241364975 0.9337500000 -0.1836765022
v -0.2009108152 0.9337500000 -0.2048606458
v -0.3586132813 1.0025000000 -0.0374707031
v -0.3362415695 1.0025000000 -0.0664548149
v -0.3129000854 1.0025000000 -0.0929185486
v -0.2889465714 1.0025000000 -0.1173045387
v -0.2647387695 1.0025000000 -0.1400554199
v -0.2406344223 1.0025000000 -0.1616138268
v -0.2169912720 1.0025000000 -0.1824223938
v -0.1941670609 1.0025000000 -0.2029237556
v -0.3502026367 1.0712500000 -0.0434020996
v -0.3281910086 1.0712500000 -0.0708575997
v -0.3050777817 1.0712500000 -0.0959278450
v -0.2812775469 1.0712500000 -0.1190542254
v -0.2572048950 1.0712500000 -0.1406781311
v -0.2332744169 1.0712500000 -0.1612409520
v -0.2099007034 1.0712500000 -0.1811840782
v -0.1874983454 1.0712500000 -0.2009488997
v -0.3415312500 1.1400000000 -0.0494843750
v -0.3199582520 1.1400000000 -0.0753712463
v -0.2971523437 1.1400000000 -0.0990266113
v -0.2735808105 1.1400000000 -0.1208820496
v -0.2497109375 1.1400000000 -0.1413691406
v -0.2260100098 1.1400000000 -0.1609194641
v -0.2029453125 1.1400000000 -0.1799645996
v -0.1809841309 1.1400000000 -0.1989361267
v -0.3326372070 1.2087500000 -0.0557014160
v -0.3115889444 1.2087500000 -0.0799823623
v -0.2891781998 1.2087500000 -0.1022056694
v -0.2659197340 1.2087500000 -0.1227835622
v -0.2423283081 1.2087500000 -0.1421282654
v -0.2189186831 1.2087500000 -0.1606520038
v -0.1962056198 1.2087500000 -0.1787670021
v -0.1747038794 1.2087500000 -0.1968854852
v -0.3235585937 1.2775000000 -0.0620371094
v -0.3031287308 1.2775000000 -0.0846775551
v -0.2812097778 1.2775000000 -0.1054558411
v -0.2583576889 1.2775000000 -0.1247543144
v -0.2351284180 1.2775000000 -0.1429553223
v -0.2120779190 1.2775000000 -0.1604412117
v -0.1897621460 1.2775000000 -0.1775943298
v -0.1687370529 1.2775000000 -0.1947970238
v -0.3143334961 1.3462500000 -0.0684753418
v -0.2946232557 1.3462500000 -0.0894434323
v -0.2733015060 1.3462500000 -0.1087679482
v -0.2509580469 1.3462500000 -0.1267898574
v -0.2281826782 1.3462500000 -0.1438501282
v -0.2055651999 1.3462500000 -0.1602897286
v -0.1836954117 1.3462500000 -0.1764496269
v -0.1631631136 1.3462500000 -0.1926707911
v -0.3050000000 1.4150000000 -0.0750000000
v -0.2861181641 1.4150000000 -0.0942666016
v -0.2655078125 1.4150000000 -0.1121328125
v -0.2437841797 1.4150000000 -0.1288857422
v -0.2215625000 1.4150000000 -0.1448125000
v -0.1994580078 1.4150000000 -0.1602001953
v -0.1780859375 1.4150000000 -0.1753359375
v -0.1580615234 1.4150000000 -0.1905068359
v -0.1387248580 1.4375000000 -0.2009880682
v -0.1220071023 1.4375000000 -0.2144936745
v -0.1052893466 1.4375000000 -0.2241405362
v -0.0885715909 1.4375000000 -0.2299286532
v -0.0718538352 1.4375000000 -0.2318580256
v -0.0551360795 1.4375000000 -0.2299286532
v -0.0384183239 1.4375000000 -0.2241405362
v -0.0217005682 1.4375000000 -0.2144936745
v -0.0049828125 1.4375000000 -0.2009880682
v -0.1375443182 1.4600000000 -0.1890727273
v -0.1209684659 1.4600000000 -0.2020985440
v -0.1043926136 1.4600000000 -0.2114026989
v -0.0878167614 1.4600000000 -0.2169851918
v -0.0712409091 1.4600000000 -0.2188460227
v -0.0546650568 1.4600000000 -0.2169851918
v -0.0380892045 1.4600000000 -0.2114026989
v -0.0215133523 1.4600000000 -0.2020985440
v -0.0049375000 1.4600000000 -0.1890727273
v -0.1361916193 1.4825000000 -0.1716210227
v -0.1197768466 1.4825000000 -0.1833963290
v -0.1033620739 1.4825000000 -0.1918072621
v -0.0869473011 1.4825000000 -0.1968538219
v -0.0705325284 1.4825000000 -0.1985360085
v -0.0541177557 1.4825000000 -0.1968538219
v -0.0377029830 1.4825000000 -0.1918072621
v -0.0212882102 1.4825000000 -0.1833963290
v -0.0048734375 1.4825000000 -0.1716210227
v -0.1344000000 1.5050000000 -0.1500000000
v -0.1182000000 1.5050000000 -0.1591875000
v -0.1020000000 1.5050000000 -0.1657500000
v -0.0858000000 1.5050000000 -0.1696875000
v -0.0696000000 1.5050000000 -0.1710000000
v -0.0534000000 1.5050000000 -0.1696875000
v -0.0372000000 1.5050000000 -0.1657500000
v -0.0210000000 1.5050000000 -0.1591875000
v -0.0048000000 1.5050000000 -0.1500000000
vt 0.0000000000 0.0000000000
vt 0.0338465961 0.0000000000
vt 0.0647672944 0.0000000000
vt 0.0935741371 0.0000000000
vt 0.1212640782 0.0000000000
vt 0.1489535643 0.0000000000
vt 0.1777591141 0.0000000000
vt 0.2086778469 0.0000000000
vt 0.2425219722 0.0000000000
vt 0.0000000000 0.0687937647
vt 0.0334906245 0.0687937647
vt 0.0640217931 0.0687937647
vt 0.0924105694 0.0687937647
vt 0.1196655932 0.0687937647
vt 0.1469201558 0.0687937647
vt 0.1753076237 0.0687937647
vt 0.2058368080 0.0687937647
vt 0.2393249436 0.0687937647
vt 0.0000000000 0.1375974427
vt 0.0330728720 0.1375974427
vt 0.0631485298 0.1375974427
vt 0.0910493093 0.1375974427
vt 0.1177969969 0.1375974427
vt 0.1445442162 0.1375974427
vt 0.1724436698 0.1375974427
vt 0.2025173225 0.1375974427
vt 0.2355876859 0.1375974427
vt 0.0000000000 0.2064118557
vt 0.0325964645 0.2064118557
vt 0.0621564505 0.2064118557
vt 0.0895071632 0.2064118557
vt 0.1156840616 0.2064118557
vt 0.1418604840 0.2064118557
vt 0.1692098525 0.2064118557
vt 0.1987678124 0.2064118557
vt 0.2313617490 0.2064118557
vt 0.0000000000 0.2752375378
vt 0.0320641958 0.2752375378
vt 0.0610539517 0.2752375378
vt 0.0878002923 0.2752375378
vt 0.1133518987 0.2752375378
vt 0.1389030217 0.2752375378
vt 0.1656480002 0.2752375378
vt 0.1946357103 0.2752375378
vt 0.2266973616 0.2752375378
vt 0.0000000000 0.3440748256
vt 0.0314784416 0.3440748256
vt 0.0598487318 0.3440748256
vt 0.0859440325 0.3440748256
vt 0.1108247749 0.3440748256
vt 0.1357050268 0.3440748256
vt 0.1617989495 0.3440748256
vt 0.1901671775 0.3440748256
vt 0.2216430624 0.3440748256
vt 0.0000000000 0.4129239491
vt 0.0308411023 0.4129239491
vt 0.0585476886 0.4129239491
vt 0.0839527701 0.4129239491
vt 0.1081259823 0.4129239491
vt 0.1322986979 0.4129239491
vt 0.1577023885 0.4129239491
vt 0.1854069015 0.4129239491
vt 0.2162454412 0.4129239491
vt 0.0000000000 0.4817851224
vt 0.0301535780 0.4817851224
vt 0.0571568702 0.4817851224
vt 0.0818398763 0.4817851224
vt 0.1052777710 0.4817851224
vt 0.1287151649 0.4817851224
vt 0.1533967718 0.4817851224
vt 0.1803979866 0.4817851224
vt 0.2105490047 0.4817851224
vt 0.0000000000 0.5506586332
vt 0.0294167802 0.5506586332
vt 0.0556814861 0.5506586332
vt 0.0796177156 0.5506586332
vt 0.1023013565 0.5506586332
vt 0.1249844946 0.5506586332
vt 0.1489193231 0.5506586332
vt 0.1751819564 0.5506586332
vt 0.2045961898 0.5506586332
vt 0.0000000000 0.6195449342
vt 0.0286311861 0.6195449342
vt 0.0541259937 0.6195449342
vt 0.0772977440 0.6195449342
vt 0.0992170192 0.6195449342
vt 0.1211357923 0.6195449342
vt 0.1443061477 0.6195449342
vt 0.1697988983 0.6195449342
vt 0.1984275633 0.6195449342
vt 0.0000000000 0.6884447324
vt 0.0277969472 0.6884447324
vt 0.0524942788 0.6884447324
vt 0.0748907216 0.6884447324
vt 0.0960443219 0.6884447324
vt 0.1171974248 0.6884447324
vt 0.1395924881 0.6884447324
vt 0.1642877912 0.6884447324
vt 0.1920822574 0.6884447324
vt 0.0000000000 0.7573590800
vt 0.0269140650 0.7573590800
vt 0.0507899573 0.7573590800
vt 0.0724070742 0.7573590800
vt 0.0928024822 0.7573590800
vt 0.1131974016 0.7573590800
vt 0.1348131659 0.7573590800
vt 0.1586870729 0.7573590800
vt 0.1855987132 0.7573590800
vt 0.0000000000 0.8262894637
vt 0.0259826569 0.8262894637
vt 0.0490168359 0.8262894637
vt 0.0698574514 0.8262894637
vt 0.0895109459 0.8262894637
vt 0.1091639660 0.8262894637
vt 0.1300032685 0.8262894637
vt 0.1530355222 0.8262894637
vt 0.1790158290 0.8262894637
vt 0.0000000000 0.8952378949
vt 0.0250033424 0.8952378949
vt 0.0471795870 0.8952378949
vt 0.0672535449 0.8952378949
vt 0.0861902312 0.8952378949
vt 0.1051264629 0.8952378949
vt 0.1251991620 0.8952378949
vt 0.1473735597 0.8952378949
vt 0.1723746467 0.8952378949
vt 0.0000000000 0.9642069992
vt 0.0239777994 0.9642069992
vt 0.0452847137 0.9642069992
vt 0.0646092578 0.9642069992
vt 0.0828631320 0.9642069992
vt 0.1011165776 0.9642069992
vt 0.1204399331 0.9642069992
vt 0.1417450993 0.9642069992
vt 0.1657207603 0.9642069992
vt 0.0000000000 1.0332001055
vt 0.0229095590 1.0332001055
vt 0.0433419162 1.0332001055
vt 0.0619423465 1.0332001055
vt 0.0795564060 1.0332001055
vt 0.0971700698 1.0332001055
vt 0.1157693987 1.0332001055
vt 0.1362001287 1.0332001055
vt 0.1591076905 1.0332001055
vt 0.0000000000 1.1022213348
vt 0.0218051477 1.1022213348
vt 0.0413660123 1.1022213348
vt 0.0592766988 1.1022213348
vt 0.0763031112 1.1022213348
vt 0.0933291676 1.1022213348
vt 0.1112388578 1.1022213348
vt 0.1307982399 1.1022213348
vt 0.1526015580 1.1022213348
vt -0.3222947970 0.0000000000
vt -0.2747175224 0.0000000000
vt -0.2299366904 0.0000000000
vt -0.1876189104 0.0000000000
vt -0.1474123019 0.0000000000
vt -0.1089453980 0.0000000000
vt -0.0718276464 0.0000000000
vt -0.0356520287 0.0000000000
vt -0.3178334433 0.0687937647
vt -0.2711017939 0.0687937647
vt -0.2270866816 0.0687937647
vt -0.1854444317 0.0687937647
vt -0.1458187808 0.0687937647
vt -0.1078416735 0.0687937647
vt -0.0711354327 0.0687937647
vt -0.0353164224 0.0687937647
vt -0.3130709301 0.1375974427
vt -0.2672389280 0.1375974427
vt -0.2240308562 0.1375974427
vt -0.1830957448 0.1375974427
vt -0.1440771245 0.1375974427
vt -0.1066153559 0.1375974427
vt -0.0703508821 0.1375974427
vt -0.0349281839 0.1375974427
vt -0.3080073163 0.2064118557
vt -0.2631291418 0.2064118557
vt -0.2207685503 0.2064118557
vt -0.1805710386 0.2064118557
vt -0.1421848469 0.2064118557
vt -0.1052642202 0.2064118557
vt -0.0694729109 0.2064118557
vt -0.0344874927 0.2064118557
vt -0.3026411826 0.2752375378
vt -0.2587713657 0.2752375378
vt -0.2172981044 0.2752375378
vt -0.1778678470 0.2752375378
vt -0.1401391161 0.2752375378
vt -0.1037858842 0.2752375378
vt -0.0685003116 0.2752375378
vt -0.0339943709 0.2752375378
vt -0.2969692569 0.3440748256
vt -0.2541629108 0.3440748256
vt -0.2136166037 0.3440748256
vt -0.1749828807 0.3440748256
vt -0.1379366652 0.3440748256
vt -0.1021777626 0.3440748256
vt -0.0674317132 0.3440748256
vt -0.0334486407 0.3440748256
vt -0.2909861082 0.4129239491
vt -0.2492991986 0.4129239491
vt -0.2097196745 0.4129239491
vt -0.1719119029 0.4129239491
vt -0.1355737357 0.4129239491
vt -0.1004370484 0.4129239491
vt -0.0662655680 0.4129239491
vt -0.0328499023 0.4129239491
vt -0.2846839120 0.4817851224
vt -0.2441735576 0.4817851224
vt -0.2056013374 0.4817851224
vt -0.1686496507 0.4817851224
vt -0.1330460570 0.4817851224
vt -0.0985607239 0.4817851224
vt -0.0650001650 0.4817851224
vt -0.0321975348 0.4817851224
vt -0.2780522919 0.5506586332
vt -0.2387770907 0.5506586332
vt -0.2012539235 0.5506586332
vt -0.1651898072 0.5506586332
vt -0.1303488648 0.5506586332
vt -0.0965456044 0.5506586332
vt -0.0636336761 0.5506586332
vt -0.0314907220 0.5506586332
vt -0.2710782437 0.6195449342
vt -0.2330986216 0.6195449342
vt -0.1966680585 0.6195449342
vt -0.1615250297 0.6195449342
vt -0.1274769645 0.6195449342
vt -0.0943884218 0.6195449342
vt -0.0621642380 0.6195449342
vt -0.0307285077 0.6195449342
vt -0.2637461523 0.6884447324
vt -0.2271247276 0.6884447324
vt -0.1918327265 0.6884447324
vt -0.1576470441 0.6884447324
vt -0.1244248494 0.6884447324
vt -0.0920859555 0.6884447324
vt -0.0605900814 0.6884447324
vt -0.0299098873 0.6884447324
vt -0.2560379139 0.7573590800
vt -0.2208398745 0.7573590800
vt -0.1867354237 0.7573590800
vt -0.1535468162 0.7573590800
vt -0.1211868840 0.7573590800
vt -0.0896352255 0.7573590800
vt -0.0589097175 0.7573590800
vt -0.0290339450 0.7573590800
vt -0.2479331816 0.8262894637
vt -0.2142266705 0.8262894637
vt -0.1813624241 0.8262894637
vt -0.1492148210 0.8262894637
vt -0.1177575744 0.8262894637
vt -0.0870337643 0.8262894637
vt -0.0571222027 0.8262894637
vt -0.0281000517 0.8262894637
vt -0.2394097646 0.8952378949
vt -0.2072662678 0.8952378949
vt -0.1756991817 0.8952378949
vt -0.1446414370 0.8952378949
vt -0.1141319511 0.8952378949
vt -0.0842799985 0.8952378949
vt -0.0552275076 0.8952378949
vt -0.0271081445 0.8952378949
vt -0.2304442183 0.9642069992
vt -0.1999389530 0.9642069992
vt -0.1697309134 0.9642069992
vt -0.1398175061 0.9642069992
vt -0.1103061089 0.9642069992
vt -0.0813737806 0.9642069992
vt -0.0532270322 0.9642069992
vt -0.0260591223 0.9642069992
vt -0.2210126916 1.0332001055
vt -0.1922249884 1.0332001055
vt -0.1634434231 1.0332001055
vt -0.1347351235 1.0332001055
vt -0.1062779639 1.0332001055
vt -0.0783171362 1.0332001055
vt -0.0511243301 1.0332001055
vt -0.0249554067 1.0332001055
vt -0.2110921221 1.1022213348
vt -0.1841057986 1.1022213348
vt -0.1568242629 1.1022213348
vt -0.1293887504 1.1022213348
vt -0.1020483255 1.1022213348
vt -0.0751153193 1.1022213348
vt -0.0489261331 1.1022213348
vt -0.0238017435 1.1022213348
vt 0.0000000000 1.1255193405
vt 0.0218051477 1.1255193405
vt 0.0413660123 1.1255193405
vt 0.0592766988 1.1255193405
vt 0.0763031112 1.1255193405
vt 0.0933291676 1.1255193405
vt 0.1112388578 1.1255193405
vt 0.1307982399 1.1255193405
vt 0.1526015580 1.1255193405
vt 0.0000000000 1.1515825734
vt 0.0218051477 1.1515825734
vt 0.0413660123 1.1515825734
vt 0.0592766988 1.1515825734
vt 0.0763031112 1.1515825734
vt 0.0933291676 1.1515825734
vt 0.1112388578 1.1515825734
vt 0.1307982399 1.1515825734
vt 0.1526015580 1.1515825734
vt 0.0000000000 1.1819412378
vt 0.0218051477 1.1819412378
vt 0.0413660123 1.1819412378
vt 0.0592766988 1.1819412378
vt 0.0763031112 1.1819412378
vt 0.0933291676 1.1819412378
vt 0.1112388578 1.1819412378
vt 0.1307982399 1.1819412378
vt 0.1526015580 1.1819412378
vt 0.0000000000 1.2175365920
vt 0.0218051477 1.2175365920
vt 0.0413660123 1.2175365920
vt 0.0592766988 1.2175365920
vt 0.0763031112 1.2175365920
vt 0.0933291676 1.2175365920
vt 0.1112388578 1.2175365920
vt 0.1307982399 1.2175365920
vt 0.1526015580 1.2175365920
vn -0.6099203727 0.0495653500 -0.7909111297
vn -0.5029490214 0.0430044936 -0.8632455592
vn -0.3525273976 0.0361851688 -0.9351016348
vn -0.1688250362 0.0297426064 -0.9851971805
vn 0.0342401268 0.0242747708 -0.9991187863
vn 0.2332344429 0.0204324260 -0.9722058479
vn 0.4068993286 0.0185859158 -0.9132839099
vn 0.5455800083 0.0186827436 -0.8378504697
vn 0.5819925888 0.0202456053 -0.8129420287
vn -0.6255517248 0.0537884197 -0.7783263104
vn -0.5286590718 0.0470555604 -0.8475289730
vn -0.3836719484 0.0394130237 -0.9226280126
vn -0.2034697323 0.0320583583 -0.9785562476
vn -0.0000101504 0.0256404268 -0.9996712302
vn 0.2035107216 0.0209299170 -0.9788489795
vn 0.3838891076 0.0184277276 -0.9231953054
vn 0.5291458305 0.0181414982 -0.8483369473
vn 0.5860928828 0.0191457153 -0.8100176383
vn -0.6305636693 0.0596286205 -0.7738435802
vn -0.5355640176 0.0519257778 -0.8428967295
vn -0.3896879604 0.0430441696 -0.9199404834
vn -0.2070967814 0.0344565740 -0.9777134896
vn -0.0000336207 0.0269496516 -0.9996367916
vn 0.2071091343 0.0214615863 -0.9780824131
vn 0.3899295641 0.0185891740 -0.9206570358
vn 0.5361570768 0.0183177073 -0.8439194574
vn 0.5928866530 0.0194933781 -0.8050499518
vn -0.6361345644 0.0649738722 -0.7688375719
vn -0.5432272257 0.0565939559 -0.8376761340
vn -0.3964163648 0.0467388684 -0.9168803324
vn -0.2111848040 0.0371237464 -0.9767409104
vn -0.0000740082 0.0286442999 -0.9995896651
vn 0.2111392218 0.0223982220 -0.9771993393
vn 0.3966632361 0.0190914469 -0.9177656530
vn 0.5439165898 0.0187080230 -0.8389307202
vn 0.6004964133 0.0199517076 -0.7993785005
vn -0.6420553404 0.0698036966 -0.7634738920
vn -0.5514120055 0.0610347784 -0.8319973293
vn -0.4036652252 0.0504785440 -0.9135131649
vn -0.2156268740 0.0400513139 -0.9756541106
vn -0.0001327136 0.0307242268 -0.9995278907
vn 0.2154920194 0.0237431806 -0.9762169077
vn 0.4038969522 0.0199374394 -0.9145872022
vn 0.5521851131 0.0193138316 -0.8334977965
vn 0.6086752779 0.0205213057 -0.7931540091
vn -0.6481132826 0.0740906135 -0.7579312329
vn -0.5598737192 0.0652147096 -0.8260075424
vn -0.4112294974 0.0542377874 -0.9099167890
vn -0.2203055690 0.0432269163 -0.9744726215
vn -0.0002114407 0.0331890512 -0.9994490693
vn 0.2200474123 0.0255018595 -0.9751557781
vn 0.4114235544 0.0211325141 -0.9111992514
vn 0.5607142992 0.0201383152 -0.8277644127
vn 0.6171721182 0.0212038358 -0.7865424171
vn -0.6540888399 0.0778024311 -0.7524058554
vn -0.5683555191 0.0690944232 -0.8198767984
vn -0.4188854710 0.0579858839 -0.9061857423
vn -0.2250884661 0.0466349332 -0.9732216425
vn -0.0003121967 0.0360381482 -0.9993503662
vn 0.2246695595 0.0276816645 -0.9740417417
vn 0.4190161642 0.0226846890 -0.9076953558
vn 0.5692422954 0.0211868524 -0.8218967858
vn 0.6257282212 0.0220024464 -0.7797307776
vn -0.6597514039 0.0809045176 -0.7471161517
vn -0.5765834104 0.0726313609 -0.8138035735
vn -0.4263848312 0.0616885412 -0.9024358701
vn -0.2298233683 0.0502571252 -0.9719338664
vn -0.0004372882 0.0392706363 -0.9992285154
vn 0.2292020328 0.0302919997 -0.9729074072
vn 0.4264220449 0.0246049315 -0.9041896023
vn 0.5774886927 0.0224675478 -0.8160894676
vn 0.6340733043 0.0229222867 -0.7729331236
vn -0.6648536095 0.0833620929 -0.7423075100
vn -0.5842601305 0.0757824898 -0.8080204912
vn -0.4334480660 0.0653099185 -0.8988088721
vn -0.2343332134 0.0540734522 -0.9706513313
vn -0.0005893041 0.0428853636 -0.9990798258
vn 0.2334626286 0.0333442585 -0.9717938884
vn 0.4333557882 0.0269075639 -0.9008211498
vn 0.5851483282 0.0239919187 -0.8105712935
vn 0.6419203879 0.0239711369 -0.7663965033
vn -0.6691235216 0.0851425937 -0.7382577136
vn -0.5910571441 0.0785073281 -0.8028001320
vn -0.4397568780 0.0688150534 -0.8954766198
vn -0.2384106768 0.0580631447 -0.9694271610
vn -0.0007710814 0.0468808929 -0.9989001889
vn 0.2372378748 0.0368517829 -0.9707523561
vn 0.4394914939 0.0296107765 -0.8977585582
vn 0.5918832296 0.0257757621 -0.8056114775
vn 0.6489588197 0.0251601841 -0.7604074010
vn -0.6722538124 0.0862181978 -0.7352830979
vn -0.5966037964 0.0807713202 -0.7984609596
vn -0.4449451841 0.0721727823 -0.8926448749
vn -0.2418125666 0.0622061081 -0.9683269503
vn -0.0009856422 0.0512554913 -0.9986850871
vn 0.2402773510 0.0408297427 -0.9698452076
vn 0.4444535320 0.0327372254 -0.8952035143
vn 0.5973117176 0.0278402275 -0.8015258160
vn 0.6548444559 0.0265049713 -0.7552987654
vn -0.6738866558 0.0865686312 -0.7337456284
vn -0.6004723173 0.0825496711 -0.7953732130
vn -0.4485882041 0.0753592393 -0.8905557861
vn -0.2442542366 0.0664847325 -0.9674294022
vn -0.0012360911 0.0560071262 -0.9984296039
vn 0.2422880801 0.0452948618 -0.9691464604
vn 0.4478053985 0.0363146581 -0.8933932900
vn 0.6009933129 0.0302131045 -0.7986827945
vn 0.6591855953 0.0280265578 -0.7514578251
vn -0.6735925083 0.0861844557 -0.7340608779
vn -0.6021569052 0.0838317945 -0.7939642887
vn -0.4501890972 0.0783620123 -0.8894881516
vn -0.2454044418 0.0708861611 -0.9668256369
vn -0.0015254612 0.0611334742 -0.9981284343
vn 0.2429294605 0.0502648795 -0.9687407905
vn 0.4490361411 0.0403764459 -0.8926008551
vn 0.6024076080 0.0329303073 -0.7975090398
vn 0.6615226685 0.0297529199 -0.7493347202
vn -0.6708401492 0.0850711335 -0.7367064520
vn -0.6010445396 0.0846265957 -0.7947224677
vn -0.4491626832 0.0811850070 -0.8897538304
vn -0.2448813500 0.0754050317 -0.9666163694
vn -0.0018564919 0.0666319475 -0.9977758952
vn 0.2418095256 0.0557575876 -0.9687204162
vn 0.4475439299 0.0449617945 -0.8931309355
vn 0.6009246672 0.0360374686 -0.7984928586
vn 0.6612988371 0.0317206053 -0.7494515670
vn -0.6649542436 0.0832543179 -0.7422294608
vn -0.5963745397 0.0849688884 -0.7981965274
vn -0.4448161449 0.0838540173 -0.8916877822
vn -0.2422508515 0.0800466330 -0.9669059217
vn -0.0022313294 0.0724997444 -0.9973659350
vn 0.2384837713 0.0617892202 -0.9691788189
vn 0.4426167538 0.0501152269 -0.8953093730
vn 0.5957638820 0.0395914096 -0.8021832192
vn 0.6578174798 0.0339765945 -0.7524106288
vn -0.6550552805 0.0807870410 -0.7512496479
vn -0.5871834618 0.0849273229 -0.8049862931
vn -0.4363275669 0.0864228866 -0.8956279021
vn -0.2370289039 0.0848303032 -0.9677918776
vn -0.0026511420 0.0787339266 -0.9968921407
vn 0.2324584210 0.0683719154 -0.9702001668
vn 0.4334112852 0.0558846522 -0.8994618188
vn 0.5859378459 0.0436609589 -0.8091789428
vn 0.6501810380 0.0365801781 -0.7588982201
vn -0.6442813701 0.0990041733 -0.7583532751
vn -0.5849155934 0.1157725048 -0.8027891851
vn -0.4388804067 0.1226716871 -0.8901323754
vn -0.2473787148 0.1258996792 -0.9607044510
vn -0.0217719624 0.1229524135 -0.9921737175
vn 0.2075559474 0.1131318870 -0.9716592535
vn 0.4077348317 0.0985628609 -0.9077652061
vn 0.5630412879 0.0825256412 -0.8222980157
vn 0.6380843415 0.0580454995 -0.7677754184
vn -0.8688617214 0.0250162333 -0.4944223875
vn -0.8585796936 0.0300635832 -0.5117979002
vn -0.8389551423 0.0363933363 -0.5429823148
vn -0.8150170501 0.0428423662 -0.5778509667
vn -0.7863656684 0.0486443049 -0.6158431352
vn -0.7528529002 0.0529928740 -0.6560520299
vn -0.7147056119 0.0550645559 -0.6972544608
vn -0.6726108557 0.0540558463 -0.7380193780
vn -0.8642976368 0.0271966811 -0.5022448961
vn -0.8573797198 0.0304283481 -0.5137841295
vn -0.8375617283 0.0367094575 -0.5451080324
vn -0.8138807636 0.0434035753 -0.5794085193
vn -0.7861075996 0.0496934096 -0.6160887980
vn -0.7542699535 0.0547282006 -0.6542794978
vn -0.7187397515 0.0576460245 -0.6928853480
vn -0.6802756935 0.0576064032 -0.7306890468
vn -0.8581684360 0.0318899913 -0.5123767793
vn -0.8506007861 0.0354133128 -0.5246181468
vn -0.8292577045 0.0419441818 -0.5572901803
vn -0.8046932410 0.0490042491 -0.5916649149
vn -0.7770101008 0.0556661405 -0.6270219964
vn -0.7465881170 0.0609874300 -0.6624852579
vn -0.7141100753 0.0640367220 -0.6970983421
vn -0.6805331013 0.0639209016 -0.7299238429
vn -0.8514081541 0.0359115205 -0.5232728905
vn -0.8430733566 0.0396468682 -0.5363351948
vn -0.8200085555 0.0462908381 -0.5704762284
vn -0.7944942914 0.0536088945 -0.6049007418
vn -0.7669928049 0.0605827501 -0.6387892983
vn -0.7382344684 0.0661988770 -0.6712879995
vn -0.7091831545 0.0694742245 -0.7015928916
vn -0.6809518368 0.0694734193 -0.7290254042
vn -0.8440271416 0.0392611480 -0.5348614274
vn -0.8348122272 0.0431293220 -0.5488427888
vn -0.8098397831 0.0497522090 -0.5845376322
vn -0.7833223347 0.0572238456 -0.6189762124
vn -0.7560988731 0.0644531966 -0.6512758859
vn -0.7292346051 0.0703741249 -0.6806352719
vn -0.7039331120 0.0739664294 -0.7064043751
vn -0.6814155427 0.0742592569 -0.7281197848
vn -0.8360341173 0.0419430396 -0.5470719661
vn -0.8258315810 0.0458663949 -0.5620484619
vn -0.7987790625 0.0523384283 -0.5993435561
vn -0.7712189069 0.0598636001 -0.6337489621
vn -0.7443719458 0.0672947802 -0.6643657268
vn -0.7196095224 0.0735294818 -0.6904748732
vn -0.6983257981 0.0775219932 -0.7115696876
vn -0.6818010492 0.0782700518 -0.7273383864
vn -0.8274365464 0.0439653851 -0.5598355174
vn -0.8161458801 0.0478690074 -0.5758597577
vn -0.7868580288 0.0540668582 -0.6147611059
vn -0.7582306118 0.0615506589 -0.6490746149
vn -0.7318574503 0.0691318384 -0.6779420782
vn -0.7093758185 0.0756856277 -0.7007550456
vn -0.6923176566 0.0801503417 -0.7171277328
vn -0.6819758475 0.0814948310 -0.7268201538
vn -0.8182409387 0.0453401547 -0.5730846680
vn -0.8057707152 0.0491530910 -0.5901843171
vn -0.7741140166 0.0549619729 -0.6306557467
vn -0.7444109815 0.0623153535 -0.6648075566
vn -0.7186038451 0.0699954559 -0.6918881051
vn -0.6985458487 0.0768673397 -0.7114247039
vn -0.6858543012 0.0818617763 -0.7231199949
vn -0.6817947431 0.0839210742 -0.7267139614
vn -0.8084530443 0.0460828585 -0.5867538201
vn -0.7947236074 0.0497394094 -0.6049300612
vn -0.7605917414 0.0550552191 -0.6468918965
vn -0.7298222272 0.0621956206 -0.6808018959
vn -0.7046637839 0.0699231579 -0.7060876034
vn -0.6871278021 0.0771032855 -0.7224337111
vn -0.6788687171 0.0826676890 -0.7295911993
vn -0.6810954596 0.0855358202 -0.7271812693
vn -0.7980779179 0.0462122996 -0.6007795439
vn -0.7830247540 0.0496533731 -0.6200054654
vn -0.7463449254 0.0543848208 -0.6633336593
vn -0.7145368748 0.0612366851 -0.6969125648
vn -0.6900951921 0.0689585571 -0.7204258069
vn -0.6751256637 0.0764258785 -0.7337332099
vn -0.6712789730 0.0825809106 -0.7365900717
vn -0.6796928635 0.0863268641 -0.7283991240
vn -0.7871198071 0.0457503038 -0.6151010641
vn -0.7706977164 0.0489248347 -0.6353199119
vn -0.7314378855 0.0529955054 -0.6798456413
vn -0.6986393063 0.0594906198 -0.7129964838
vn -0.6749622594 0.0671509283 -0.7347902430
vn -0.6625390221 0.0748711874 -0.7452760223
vn -0.6629852930 0.0816162176 -0.7441702052
vn -0.6773713480 0.0862841165 -0.7305635551
vn -0.7755818040 0.0447214140 -0.6296609091
vn -0.7577700503 0.0475878529 -0.6507841018
vn -0.7159471375 0.0509381334 -0.6962937619
vn -0.6822272626 0.0570157612 -0.7289136884
vn -0.6593363710 0.0645546924 -0.7490715864
vn -0.6493626681 0.0724788972 -0.7570171297
vn -0.6538662820 0.0797910433 -0.7523910384
vn -0.6738747226 0.0854012264 -0.7338933770
vn -0.7634651674 0.0431525273 -0.6444057709
vn -0.7442738904 0.0456804186 -0.6663104948
vn -0.6999631176 0.0482692247 -0.7125459396
vn -0.6654134206 0.0538759687 -0.7445282800
vn -0.6432970269 0.0612287932 -0.7631644450
vn -0.6355859141 0.0692923223 -0.7689142474
vn -0.6437740224 0.0771264499 -0.7613189337
vn -0.6688926920 0.0836776172 -0.7386342958
vn -0.7507681727 0.0410724514 -0.6592876493
vn -0.7302465151 0.0432441367 -0.6818137369
vn -0.6835922000 0.0450503855 -0.7284724888
vn -0.6483272320 0.0501397260 -0.7597090286
vn -0.6269328294 0.0572359599 -0.7769679995
vn -0.6211915380 0.0653584782 -0.7809285130
vn -0.6325276543 0.0736484476 -0.7710283216
vn -0.6620426399 0.0811211553 -0.7450630183
vn -0.7374842613 0.0385113437 -0.6742654083
vn -0.7157309432 0.0403238658 -0.6972110174
vn -0.6669593019 0.0413476521 -0.7439460070
vn -0.6311173223 0.0458790940 -0.7743294094
vn -0.6103426736 0.0526418501 -0.7903863969
vn -0.6061542174 0.0607282276 -0.7930253130
vn -0.6199048957 0.0693897837 -0.7816028264
vn -0.6528449330 0.0777517776 -0.7534906466
vn -0.7235991048 0.0354999734 -0.6893069617
vn -0.7007766519 0.0369673176 -0.7124222776
vn -0.6502115482 0.0372307822 -0.7588404387
vn -0.6139549132 0.0411685307 -0.7882667801
vn -0.5936373417 0.0475140730 -0.8033287742
vn -0.5904382581 0.0554565297 -0.8051752832
vn -0.6056307429 0.0643923824 -0.7931361953
vn -0.6406893314 0.0736065684 -0.7642638639
vn -0.7138696642 0.0305187250 -0.6996132575
vn -0.7000374128 0.0337263132 -0.7133092993
vn -0.6461583954 0.0329090018 -0.7624934922
vn -0.6071297716 0.0361605781 -0.7937794738
vn -0.5842781373 0.0420412671 -0.8104638117
vn -0.5785035354 0.0496980524 -0.8141644571
vn -0.5909369014 0.0585941232 -0.8045870414
vn -0.6231651556 0.0681887746 -0.7791119816
vn -0.5858867119 0.3480463136 -0.7318473369
vn -0.5367890629 0.3310204984 -0.7760688961
vn -0.3910417399 0.3592344189 -0.8473706332
vn -0.2085715635 0.3784208671 -0.9018290028
vn -0.0009940723 0.3821670259 -0.9240927313
vn 0.2076825073 0.3677995005 -0.9064168487
vn 0.3927149121 0.3387922390 -0.8549823487
vn 0.5411285923 0.3021491396 -0.7847838837
vn 0.6105395535 0.2454355911 -0.7529958992
vn -0.5203709005 0.5140730917 -0.6818672762
vn -0.4762312362 0.5169961529 -0.7112796830
vn -0.3384656811 0.5590924972 -0.7568728838
vn -0.1776434017 0.5866780269 -0.7900960160
vn -0.0019997675 0.5940158939 -0.8044508181
vn 0.1751458346 0.5785741685 -0.7966027041
vn 0.3397365517 0.5425510538 -0.7682560963
vn 0.4819360879 0.4917764563 -0.7251851655
vn 0.5598541290 0.4340568095 -0.7058031173
vn -0.4298226783 0.6331536979 -0.6437148904
vn -0.3965107540 0.6473517584 -0.6509338851
vn -0.2724689173 0.6925861181 -0.6678960684
vn -0.1405842933 0.7196678494 -0.6799369405
vn -0.0038246641 0.7270312637 -0.6865937033
vn 0.1344649197 0.7137432694 -0.6873788844
vn 0.2705537161 0.6796468973 -0.6818216641
vn 0.4004102606 0.6255650540 -0.6695819490
vn 0.4909900925 0.5648821529 -0.6632019922
vn -0.3712315927 0.6585684518 -0.6545797880
vn -0.3578867381 0.6848941581 -0.6346944736
vn -0.2457316954 0.7329874400 -0.6343069814
vn -0.1336550253 0.7619929783 -0.6336426716
vn -0.0218397442 0.7732215840 -0.6337597397
vn 0.0901842499 0.7671839641 -0.6350555616
vn 0.2029604142 0.7434278542 -0.6372770951
vn 0.3165171032 0.7006194335 -0.6394914642
vn 0.4114852069 0.6487043185 -0.6402051481
f 1/1/1 11/11/11 2/2/2
f 1/1/1 10/10/10 11/11/11
f 2/2/2 12/12/12 3/3/3
f 2/2/2 11/11/11 12/12/12
f 3/3/3 13/13/13 4/4/4
f 3/3/3 12/12/12 13/13/13
f 4/4/4 14/14/14 5/5/5
f 4/4/4 13/13/13 14/14/14
f 5/5/5 15/15/15 6/6/6
f 5/5/5 14/14/14 15/15/15
f 6/6/6 16/16/16 7/7/7
f 6/6/6 15/15/15 16/16/16
f 7/7/7 17/17/17 8/8/8
f 7/7/7 16/16/16 17/17/17
f 8/8/8 18/18/18 9/9/9
f 8/8/8 17/17/17 18/18/18
f 10/10/10 20/20/20 11/11/11
f 10/10/10 19/19/19 20/20/20
f 11/11/11 21/21/21 12/12/12
f 11/11/11 20/20/20 21/21/21
f 12/12/12 22/22/22 13/13/13
f 12/12/12 21/21/21 22/22/22
f 13/13/13 23/23/23 14/14/14
f 13/13/13 22/22/22 23/23/23
f 14/14/14 24/24/24 15/15/15
f 14/14/14 23/23/23 24/24/24
f 15/15/15 25/25/25 16/16/16
f 15/15/15 24/24/24 25/25/25
f 16/16/16 26/26/26 17/17/17
f 16/16/16 25/25/25 26/26/26
f 17/17/17 27/27/27 18/18/18
f 17/17/17 26/26/26 27/27/27
f 19/19/19 29/29/29 20/20/20
f 19/19/19 28/28/28 29/29/29
f 20/20/20 30/30/30 21/21/21
f 20/20/20 29/29/29 30/30/30
f 21/21/21 31/31/31 22/22/22
f 21/21/21 30/30/30 31/31/31
f 22/22/22 32/32/32 23/23/23
f 22/22/22 31/31/31 32/32/32
f 23/23/23 33/33/33 24/24/24
f 23/23/23 32/32/32 33/33/33
f 24/24/24 34/34/34 25/25/25
f 24/24/24 33/33/33 34/34/34
f 25/25/25 35/35/35 26/26/26
f 25/25/25 34/34/34 35/35/35
f 26/26/26 36/36/36 27/27/27
f 26/26/26 35/35/35 36/36/36
f 28/28/28 38/38/38 29/29/29
f 28/28/28 37/37/37 38/38/38
f 29/29/29 39/39/39 30/30/30
f 29/29/29 38/38/38 39/39/39
f 30/30/30 40/40/40 31/31/31
f 30/30/30 39/39/39 40/40/40
f 31/31/31 41/41/41 32/32/32
f 31/31/31 40/40/40 41/41/41
f 32/32/32 42/42/42 33/33/33
f 32/32/32 41/41/41 42/42/42
f 33/33/33 43/43/43 34/34/34
f 33/33/33 42/42/42 43/43/43
f 34/34/34 44/44/44 35/35/35
f 34/34/34 43/43/43 44/44/44
f 35/35/35 45/45/45 36/36/36
f 35/35/35 44/44/44 45/45/45
f 37/37/37 47/47/47 38/38/38
f 37/37/37 46/46/46 47/47/47
f 38/38/38 48/48/48 39/39/39
f 38/38/38 47/47/47 48/48/48
f 39/39/39 49/49/49 40/40/40
f 39/39/39 48/48/48 49/49/49
f 40/40/40 50/50/50 41/41/41
f 40/40/40 49/49/49 50/50/50
f 41/41/41 51/51/51 42/42/42
f 41/41/41 50/50/50 51/51/51
f 42/42/42 52/52/52 43/43/43
f 42/42/42 51/51/51 52/52/52
f 43/43/43 53/53/53 44/44/44
f 43/43/43 52/52/52 53/53/53
f 44/44/44 54/54/54 45/45/45
f 44/44/44 53/53/53 54/54/54
f 46/46/46 56/56/56 47/47/47
f 46/46/46 55/55/55 56/56/56
f 47/47/47 57/57/57 48/48/48
f 47/47/47 56/56/56 57/57/57
f 48/48/48 58/58/58 49/49/49
f 48/48/48 57/57/57 58/58/58
f 49/49/49 59/59/59 50/50/50
f 49/49/49 58/58/58 59/59/59
f 50/50/50 60/60/60 51/51/51
f 50/50/50 59/59/59 60/60/60
f 51/51/51 61/61/61 52/52/52
f 51/51/51 60/60/60 61/61/61
f 52/52/52 62/62/62 53/53/53
f 52/52/52 61/61/61 62/62/62
f 53/53/53 63/63/63 54/54/54
f 53/53/53 62/62/62 63/63/63
f 55/55/55 65/65/65 56/56/56
f 55/55/55 64/64/64 65/65/65
f 56/56/56 66/66/66 57/57/57
f 56/56/56 65/65/65 66/66/66
f 57/57/57 67/67/67 58/58/58
f 57/57/57 66/66/66 67/67/67
f 58/58/58 68/68/68 59/59/59
f 58/58/58 67/67/67 68/68/68
f 59/59/59 69/69/69 60/60/60
f 59/59/59 68/68/68 69/69/69
f 60/60/60 70/70/70 61/61/61
f 60/60/60 69/69/69 70/70/70
f 61/61/61 71/71/71 62/62/62
f 61/61/61 70/70/70 71/71/71
f 62/62/62 72/72/72 63/63/63
f 62/62/62 71/71/71 72/72/72
f 64/64/64 74/74/74 65/65/65
f 64/64/64 73/73/73 74/74/74
f 65/65/65 75/75/75 66/66/66
f 65/65/65 74/74/74 75/75/75
f 66/66/66 76/76/76 67/67/67
f 66/66/66 75/75/75 76/76/76
f 67/67/67 77/77/77 68/68/68
f 67/67/67 76/76/76 77/77/77
f 68/68/68 78/78/78 69/69/69
f 68/68/68 77/77/77 78/78/78
f 69/69/69 79/79/79 70/70/70
f 69/69/69 78/78/78 79/79/79
f 70/70/70 80/80/80 71/71/71
f 70/70/70 79/79/79 80/80/80
f 71/71/71 81/81/81 72/72/72
f 71/71/71 80/80/80 81/81/81
f 73/73/73 83/83/83 74/74/74
f 73/73/73 82/82/82 83/83/83
f 74/74/74 84/84/84 75/75/75
f 74/74/74 83/83/83 84/84/84
f 75/75/75 85/85/85 76/76/76
f 75/75/75 84/84/84 85/85/85
f 76/76/76 86/86/86 77/77/77
f 76/76/76 85/85/85 86/86/86
f 77/77/77 87/87/87 78/78/78
f 77/77/77 86/86/86 87/87/87
f 78/78/78 88/88/88 79/79/79
f 78/78/78 87/87/87 88/88/88
f 79/79/79 89/89/89 80/80/80
f 79/79/79 88/88/88 89/89/89
f 80/80/80 90/90/90 81/81/81
f 80/80/80 89/89/89 90/90/90
f 82/82/82 92/92/92 83/83/83
f 82/82/82 91/91/91 92/92/92
f 83/83/83 93/93/93 84/84/84
f 83/83/83 92/92/92 93/93/93
f 84/84/84 94/94/94 85/85/85
f 84/84/84 93/93/93 94/94/94
f 85/85/85 95/95/95 86/86/86
f 85/85/85 94/94/94 95/95/95
f 86/86/86 96/96/96 87/87/87
f 86/86/86 95/95/95 96/96/96
f 87/87/87 97/97/97 88/88/88
f 87/87/87 96/96/96 97/97/97
f 88/88/88 98/98/98 89/89/89
f 88/88/88 97/97/97 98/98/98
f 89/89/89 99/99/99 90/90/90
f 89/89/89 98/98/98 99/99/99
f 91/91/91 101/101/101 92/92/92
f 91/91/91 100/100/100 101/101/101
f 92/92/92 102/102/102 93/93/93
f 92/92/92 101/101/101 102/102/102
f 93/93/93 103/103/103 94/94/94
f 93/93/93 102/102/102 103/103/103
f 94/94/94 104/104/104 95/95/95
f 94/94/94 103/103/103 104/104/104
f 95/95/95 105/105/105 96/96/96
f 95/95/95 104/104/104 105/105/105
f 96/96/96 106/106/106 97/97/97
f 96/96/96 105/105/105 106/106/106
f 97/97/97 107/107/107 98/98/98
f 97/97/97 106/106/106 107/107/107
f 98/98/98 108/108/108 99/99/99
f 98/98/98 107/107/107 108/108/108
f 100/100/100 110/110/110 101/101/101
f 100/100/100 109/109/109 110/110/110
f 101/101/101 111/111/111 102/102/102
f 101/101/101 110/110/110 111/111/111
f 102/102/102 112/112/112 103/103/103
f 102/102/102 111/111/111 112/112/112
f 103/103/103 113/113/113 104/104/104
f 103/103/103 112/112/112 113/113/113
f 104/104/104 114/114/114 105/105/105
f 104/104/104 113/113/113 114/114/114
f 105/105/105 115/115/115 106/106/106
f 105/105/105 114/114/114 115/115/115
f 106/106/106 116/116/116 107/107/107
f 106/106/106 115/115/115 116/116/116
f 107/107/107 117/117/117 108/108/108
f 107/107/107 116/116/116 117/117/117
f 109/109/109 119/119/119 110/110/110
f 109/109/109 118/118/118 119/119/119
f 110/110/110 120/120/120 111/111/111
f 110/110/110 119/119/119 120/120/120
f 111/111/111 121/121/121 112/112/112
f 111/111/111 120/120/120 121/121/121
f 112/112/112 122/122/122 113/113/113
f 112/112/112 121/121/121 122/122/122
f 113/113/113 123/123/123 114/114/114
f 113/113/113 122/122/122 123/123/123
f 114/114/114 124/124/124 115/115/115
f 114/114/114 123/123/123 124/124/124
f 115/115/115 125/125/125 116/116/116
f 115/115/115 124/124/124 125/125/125
f 116/116/116 126/126/126 117/117/117
f 116/116/116 125/125/125 126/126/126
f 118/118/118 128/128/128 119/119/119
f 118/118/118 127/127/127 128/128/128
f 119/119/119 129/129/129 120/120/120
f 119/119/119 128/128/128 129/129/129
f 120/120/120 130/130/130 121/121/121
f 120/120/120 129/129/129 130/130/130
f 121/121/121 131/131/131 122/122/122
f 121/121/121 130/130/130 131/131/131
f 122/122/122 132/132/132 123/123/123
f 122/122/122 131/131/131 132/132/132
f 123/123/123 133/133/133 124/124/124
f 123/123/123 132/132/132 133/133/133
f 124/124/124 134/134/134 125/125/125
f 124/124/124 133/133/133 134/134/134
f 125/125/125 135/135/135 126/126/126
f 125/125/125 134/134/134 135/135/135
f 127/127/127 137/137/137 128/128/128
f 127/127/127 136/136/136 137/137/137
f 128/128/128 138/138/138 129/129/129
f 128/128/128 137/137/137 138/138/138
f 129/129/129 139/139/139 130/130/130
f 129/129/129 138/138/138 139/139/139
f 130/130/130 140/140/140 131/131/131
f 130/130/130 139/139/139 140/140/140
f 131/131/131 141/141/141 132/132/132
f 131/131/131 140/140/140 141/141/141
f 132/132/132 142/142/142 133/133/133
f 132/132/132 141/141/141 142/142/142
f 133/133/133 143/143/143 134/134/134
f 133/133/133 142/142/142 143/143/143
f 134/134/134 144/144/144 135/135/135
f 134/134/134 143/143/143 144/144/144
f 136/136/136 146/146/146 137/137/137
f 136/136/136 145/145/145 146/146/146
f 137/137/137 147/147/147 138/138/138
f 137/137/137 146/146/146 147/147/147
f 138/138/138 148/148/148 139/139/139
f 138/138/138 147/147/147 148/148/148
f 139/139/139 149/149/149 140/140/140
f 139/139/139 148/148/148 149/149/149
f 140/140/140 150/150/150 141/141/141
f 140/140/140 149/149/149 150/150/150
f 141/141/141 151/151/151 142/142/142
f 141/141/141 150/150/150 151/151/151
f 142/142/142 152/152/152 143/143/143
f 142/142/142 151/151/151 152/152/152
f 143/143/143 153/153/153 144/144/144
f 143/143/143 152/152/152 153/153/153
f 154/154/154 163/163/163 155/155/155
f 154/154/154 162/162/162 163/163/163
f 155/155/155 164/164/164 156/156/156
f 155/155/155 163/163/163 164/164/164
f 156/156/156 165/165/165 157/157/157
f 156/156/156 164/164/164 165/165/165
f 157/157/157 166/166/166 158/158/158
f 157/157/157 165/165/165 166/166/166
f 158/158/158 167/167/167 159/159/159
f 158/158/158 166/166/166 167/167/167
f 159/159/159 168/168/168 160/160/160
f 159/159/159 167/167/167 168/168/168
f 160/160/160 169/169/169 161/161/161
f 160/160/160 168/168/168 169/169/169
f 161/161/161 10/10/10 1/1/1
f 161/161/161 169/169/169 10/10/10
f 162/162/162 171/171/171 163/163/163
f 162/162/162 170/170/170 171/171/171
f 163/163/163 172/172/172 164/164/164
f 163/163/163 171/171/171 172/172/172
f 164/164/164 173/173/173 165/165/165
f 164/164/164 172/172/172 173/173/173
f 165/165/165 174/174/174 166/166/166
f 165/165/165 173/173/173 174/174/174
f 166/166/166 175/175/175 167/167/167
f 166/166/166 174/174/174 175/175/175
f 167/167/167 176/176/176 168/168/168
f 167/167/167 175/175/175 176/176/176
f 168/168/168 177/177/177 169/169/169
f 168/168/168 176/176/176 177/177/177
f 169/169/169 19/19/19 10/10/10
f 169/169/169 177/177/177 19/19/19
f 170/170/170 179/179/179 171/171/171
f 170/170/170 178/178/178 179/179/179
f 171/171/171 180/180/180 172/172/172
f 171/171/171 179/179/179 180/180/180
f 172/172/172 181/181/181 173/173/173
f 172/172/172 180/180/180 181/181/181
f 173/173/173 182/182/182 174/174/174
f 173/173/173 181/181/181 182/182/182
f 174/174/174 183/183/183 175/175/175
f 174/174/174 182/182/182 183/183/183
f 175/175/175 184/184/184 176/176/176
f 175/175/175 183/183/183 184/184/184
f 176/176/176 185/185/185 177/177/177
f 176/176/176 184/184/184 185/185/185
f 177/177/177 28/28/28 19/19/19
f 177/177/177 185/185/185 28/28/28
f 178/178/178 187/187/187 179/179/179
f 178/178/178 186/186/186 187/187/187
f 179/179/179 188/188/188 180/180/180
f 179/179/179 187/187/187 188/188/188
f 180/180/180 189/189/189 181/181/181
f 180/180/180 188/188/188 189/189/189
f 181/181/181 190/190/190 182/182/182
f 181/181/181 189/189/189 190/190/190
f 182/182/182 191/191/191 183/183/183
f 182/182/182 190/190/190 191/191/191
f 183/183/183 192/192/192 184/184/184
f 183/183/183 191/191/191 192/192/192
f 184/184/184 193/193/193 185/185/185
f 184/184/184 192/192/192 193/193/193
f 185/185/185 37/37/37 28/28/28
f 185/185/185 193/193/193 37/37/37
f 186/186/186 195/195/195 187/187/187
f 186/186/186 194/194/194 195/195/195
f 187/187/187 196/196/196 188/188/188
f 187/187/187 195/195/195 196/196/196
f 188/188/188 197/197/197 189/189/189
f 188/188/188 196/196/196 197/197/197
f 189/189/189 198/198/198 190/190/190
f 189/189/189 197/197/197 198/198/198
f 190/190/190 199/199/199 191/191/191
f 190/190/190 198/198/198 199/199/199
f 191/191/191 200/200/200 192/192/192
f 191/191/191 199/199/199 200/200/200
f 192/192/192 201/201/201 193/193/193
f 192/192/192 200/200/200 201/201/201
f 193/193/193 46/46/46 37/37/37
f 193/193/193 201/201/201 46/46/46
f 194/194/194 203/203/203 195/195/195
f 194/194/194 202/202/202 203/203/203
f 195/195/195 204/204/204 196/196/196
f 195/195/195 203/203/203 204/204/204
f 196/196/196 205/205/205 197/197/197
f 196/196/196 204/204/204 205/205/205
f 197/197/197 206/206/206 198/198/198
f 197/197/197 205/205/205 206/206/206
f 198/198/198 207/207/207 199/199/199
f 198/198/198 206/206/206 207/207/207
f 199/199/199 208/208/208 200/200/200
f 199/199/199 207/207/207 208/208/208
f 200/200/200 209/209/209 201/201/201
f 200/200/200 208/208/208 209/209/209
f 201/201/201 55/55/55 46/46/46
f 201/201/201 209/209/209 55/55/55
f 202/202/202 211/211/211 203/203/203
f 202/202/202 210/210/210 211/211/211
f 203/203/203 212/212/212 204/204/204
f 203/203/203 211/211/211 212/212/212
f 204/204/204 213/213/213 205/205/205
f 204/204/204 212/212/212 213/213/213
f 205/205/205 214/214/214 206/206/206
f 205/205/205 213/213/213 214/214/214
f 206/206/206 215/215/215 207/207/207
f 206/206/206 214/214/214 215/215/215
f 207/207/207 216/216/216 208/208/208
f 207/207/207 215/215/215 216/216/216
f 208/208/208 217/217/217 209/209/209
f 208/208/208 216/216/216 217/217/217
f 209/209/209 64/64/64 55/55/55
f 209/209/209 217/217/217 64/64/64
f 210/210/210 219/219/219 211/211/211
f 210/210/210 218/218/218 219/219/219
f 211/211/211 220/220/220 212/212/212
f 211/211/211 219/219/219 220/220/220
f 212/212/212 221/221/221 213/213/213
f 212/212/212 220/220/220 221/221/221
f 213/213/213 222/222/222 214/214/214
f 213/213/213 221/221/221 222/222/222
f 214/214/214 223/223/223 215/215/215
f 214/214/214 222/222/222 223/223/223
f 215/215/215 224/224/224 216/216/216
f 215/215/215 223/223/223 224/224/224
f 216/216/216 225/225/225 217/217/217
f 216/216/216 224/224/224 225/225/225
f 217/217/217 73/73/73 64/64/64
f 217/217/217 225/225/225 73/73/73
f 218/218/218 227/227/227 219/219/219
f 218/218/218 226/226/226 227/227/227
f 219/219/219 228/228/228 220/220/220
f 219/219/219 227/227/227 228/228/228
f 220/220/220 229/229/229 221/221/221
f 220/220/220 228/228/228 229/229/229
f 221/221/221 230/230/230 222/222/222
f 221/221/221 229/229/229 230/230/230
f 222/222/222 231/231/231 223/223/223
f 222/222/222 230/230/230 231/231/231
f 223/223/223 232/232/232 224/224/224
f 223/223/223 231/231/231 232/232/232
f 224/224/224 233/233/233 225/225/225
f 224/224/224 232/232/232 233/233/233
f 225/225/225 82/82/82 73/73/73
f 225/225/225 233/233/233 82/82/82
f 226/226/226 235/235/235 227/227/227
f 226/226/226 234/234/234 235/235/235
f 227/227/227 236/236/236 228/228/228
f 227/227/227 235/235/235 236/236/236
f 228/228/228 237/237/237 229/229/229
f 228/228/228 236/236/236 237/237/237
f 229/229/229 238/238/238 230/230/230
f 229/229/229 237/237/237 238/238/238
f 230/230/230 239/239/239 231/231/231
f 230/230/230 238/238/238 239/239/239
f 231/231/231 240/240/240 232/232/232
f 231/231/231 239/239/239 240/240/240
f 232/232/232 241/241/241 233/233/233
f 232/232/232 240/240/240 241/241/241
f 233/233/233 91/91/91 82/82/82
f 233/233/233 241/241/241 91/91/91
f 234/234/234 243/243/243 235/235/235
f 234/234/234 242/242/242 243/243/243
f 235/235/235 244/244/244 236/236/236
f 235/235/235 243/243/243 244/244/244
f 236/236/236 245/245/245 237/237/237
f 236/236/236 244/244/244 245/245/245
f 237/237/237 246/246/246 238/238/238
f 237/237/237 245/245/245 246/246/246
f 238/238/238 247/247/247 239/239/239
f 238/238/238 246/246/246 247/247/247
f 239/239/239 248/248/248 240/240/240
f 239/239/239 247/247/247 248/248/248
f 240/240/240 249/249/249 241/241/241
f 240/240/240 248/248/248 249/249/249
f 241/241/241 100/100/100 91/91/91
f 241/241/241 249/249/249 100/100/100
f 242/242/242 251/251/251 243/243/243
f 242/242/242 250/250/250 251/251/251
f 243/243/243 252/252/252 244/244/244
f 243/243/243 251/251/251 252/252/252
f 244/244/244 253/253/253 245/245/245
f 244/244/244 252/252/252 253/253/253
f 245/245/245 254/254/254 246/246/246
f 245/245/245 253/253/253 254/254/254
f 246/246/246 255/255/255 247/247/247
f 246/246/246 254/254/254 255/255/255
f 247/247/247 256/256/256 248/248/248
f 247/247/247 255/255/255 256/256/256
f 248/248/248 257/257/257 249/249/249
f 248/248/248 256/256/256 257/257/257
f 249/249/249 109/109/109 100/100/100
f 249/249/249 257/257/257 109/109/109
f 250/250/250 259/259/259 251/251/251
f 250/250/250 258/258/258 259/259/259
f 251/251/251 260/260/260 252/252/252
f 251/251/251 259/259/259 260/260/260
f 252/252/252 261/261/261 253/253/253
f 252/252/252 260/260/260 261/261/261
f 253/253/253 262/262/262 254/254/254
f 253/253/253 261/261/261 262/262/262
f 254/254/254 263/263/263 255/255/255
f 254/254/254 262/262/262 263/263/263
f 255/255/255 264/264/264 256/256/256
f 255/255/255 263/263/263 264/264/264
f 256/256/256 265/265/265 257/257/257
f 256/256/256 264/264/264 265/265/265
f 257/257/257 118/118/118 109/109/109
f 257/257/257 265/265/265 118/118/118
f 258/258/258 267/267/267 259/259/259
f 258/258/258 266/266/266 267/267/267
f 259/259/259 268/268/268 260/260/260
f 259/259/259 267/267/267 268/268/268
f 260/260/260 269/269/269 261/261/261
f 260/260/260 268/268/268 269/269/269
f 261/261/261 270/270/270 262/262/262
f 261/261/261 269/269/269 270/270/270
f 262/262/262 271/271/271 263/263/263
f 262/262/262 270/270/270 271/271/271
f 263/263/263 272/272/272 264/264/264
f 263/263/263 271/271/271 272/272/272
f 264/264/264 273/273/273 265/265/265
f 264/264/264 272/272/272 273/273/273
f 265/265/265 127/127/127 118/118/118
f 265/265/265 273/273/273 127/127/127
f 266/266/266 275/275/275 267/267/267
f 266/266/266 274/274/274 275/275/275
f 267/267/267 276/276/276 268/268/268
f 267/267/267 275/275/275 276/276/276
f 268/268/268 277/277/277 269/269/269
f 268/268/268 276/276/276 277/277/277
f 269/269/269 278/278/278 270/270/270
f 269/269/269 277/277/277 278/278/278
f 270/270/270 279/279/279 271/271/271
f 270/270/270 278/278/278 279/279/279
f 271/271/271 280/280/280 272/272/272
f 271/271/271 279/279/279 280/280/280
f 272/272/272 281/281/281 273/273/273
f 272/272/272 280/280/280 281/281/281
f 273/273/273 136/136/136 127/127/127
f 273/273/273 281/281/281 136/136/136
f 274/274/274 283/283/283 275/275/275
f 274/274/274 282/282/282 283/283/283
f 275/275/275 284/284/284 276/276/276
f 275/275/275 283/283/283 284/284/284
f 276/276/276 285/285/285 277/277/277
f 276/276/276 284/284/284 285/285/285
f 277/277/277 286/286/286 278/278/278
f 277/277/277 285/285/285 286/286/286
f 278/278/278 287/287/287 279/279/279
f 278/278/278 286/286/286 287/287/287
f 279/279/279 288/288/288 280/280/280
f 279/279/279 287/287/287 288/288/288
f 280/280/280 289/289/289 281/281/281
f 280/280/280 288/288/288 289/289/289
f 281/281/281 145/145/145 136/136/136
f 281/281/281 289/289/289 145/145/145
f 145/145/145 291/291/291 146/146/146
f 145/145/145 290/290/290 291/291/291
f 146/146/146 292/292/292 147/147/147
f 146/146/146 291/291/291 292/292/292
f 147/147/147 293/293/293 148/148/148
f 147/147/147 292/292/292 293/293/293
f 148/148/148 294/294/294 149/149/149
f 148/148/148 293/293/293 294/294/294
f 149/149/149 295/295/295 150/150/150
f 149/149/149 294/294/294 295/295/295
f 150/150/150 296/296/296 151/151/151
f 150/150/150 295/295/295 296/296/296
f 151/151/151 297/297/297 152/152/152
f 151/151/151 296/296/296 297/297/297
f 152/152/152 298/298/298 153/153/153
f 152/152/152 297/297/297 298/298/298
f 290/290/290 300/300/300 291/291/291
f 290/290/290 299/299/299 300/300/300
f 291/291/291 301/301/301 292/292/292
f 291/291/291 300/300/300 301/301/301
f 292/292/292 302/302/302 293/293/293
f 292/292/292 301/301/301 302/302/302
f 293/293/293 303/303/303 294/294/294
f 293/293/293 302/302/302 303/303/303
f 294/294/294 304/304/304 295/295/295
f 294/294/294 303/303/303 304/304/304
f 295/295/295 305/305/305 296/296/296
f 295/295/295 304/304/304 305/305/305
f 296/296/296 306/306/306 297/297/297
f 296/296/296 305/305/305 306/306/306
f 297/297/297 307/307/307 298/298/298
f 297/297/297 306/306/306 307/307/307
f 299/299/299 309/309/309 300/300/300
f 299/299/299 308/308/308 309/309/309
f 300/300/300 310/310/310 301/301/301
f 300/300/300 309/309/309 310/310/310
f 301/301/301 311/311/311 302/302/302
f 301/301/301 310/310/310 311/311/311
f 302/302/302 312/312/312 303/303/303
f 302/302/302 311/311/311 312/312/312
f 303/303/303 313/313/313 304/304/304
f 303/303/303 312/312/312 313/313/313
f 304/304/304 314/314/314 305/305/305
f 304/304/304 313/313/313 314/314/314
f 305/305/305 315/315/315 306/306/306
f 305/305/305 314/314/314 315/315/315
f 306/306/306 316/316/316 307/307/307
f 306/306/306 315/315/315 316/316/316
f 308/308/308 318/318/318 309/309/309
f 308/308/308 317/317/317 318/318/318
f 309/309/309 319/319/319 310/310/310
f 309/309/309 318/318/318 319/319/319
f 310/310/310 320/320/320 311/311/311
f 310/310/310 319/319/319 320/320/320
f 311/311/311 321/321/321 312/312/312
f 311/311/311 320/320/320 321/321/321
f 312/312/312 322/322/322 313/313/313
f 312/312/312 321/321/321 322/322/322
f 313/313/313 323/323/323 314/314/314
f 313/313/313 322/322/322 323/323/323
f 314/314/314 324/324/324 315/315/315
f 314/314/314 323/323/323 324/324/324
f 315/315/315 325/325/325 316/316/316
f 315/315/315 324/324/324 325/325/325
