# P02-R open surface prototype; metres; no material; not a finished garment
# Anatomical Right=-X; front=+Z; UV values are metres, not a texture atlas.
o P02-R
v -0.4200000000 0.3150000000 0.0100000000
v -0.3966845703 0.3150000000 -0.0314707031
v -0.3734765625 0.3150000000 -0.0697656250
v -0.3501708984 0.3150000000 -0.1050839844
v -0.3265625000 0.3150000000 -0.1376250000
v -0.3024462891 0.3150000000 -0.1675878906
v -0.2776171875 0.3150000000 -0.1951718750
v -0.2518701172 0.3150000000 -0.2205761719
v -0.2250000000 0.3150000000 -0.2440000000
v -0.4162915039 0.3837500000 0.0064636230
v -0.3929664278 0.3837500000 -0.0340282855
v -0.3696791458 0.3837500000 -0.0713754234
v -0.3462644339 0.3837500000 -0.1058076081
v -0.3225570679 0.3837500000 -0.1375546570
v -0.2983918238 0.3837500000 -0.1668463874
v -0.2736034775 0.3837500000 -0.1939126167
v -0.2480268049 0.3837500000 -0.2189831624
v -0.2214965820 0.3837500000 -0.2422878418
v -0.4119414063 0.4525000000 0.0026152344
v -0.3886096420 0.4525000000 -0.0368306541
v -0.3652343140 0.4525000000 -0.0731664734
v -0.3416965408 0.4525000000 -0.1066538582
v -0.3178774414 0.4525000000 -0.1375544434
v -0.2936581345 0.4525000000 -0.1661298637
v -0.2689197388 0.4525000000 -0.1926417542
v -0.2435433731 0.4525000000 -0.2173517494
v -0.2174101563 0.4525000000 -0.2405214844
v -0.4069877930 0.5212500000 -0.0015290527
v -0.3836598577 0.5212500000 -0.0398644166
v -0.3601964951 0.5212500000 -0.0751295967
v -0.3365305910 0.5212500000 -0.1076182857
v -0.3125950317 0.5212500000 -0.1376241760
v -0.2883227034 0.5212500000 -0.1654409604
v -0.2636464920 0.5212500000 -0.1913623314
v -0.2384992838 0.5212500000 -0.2156819816
v -0.2128139648 0.5212500000 -0.2386936035
v -0.4014687500 0.5900000000 -0.0059531250
v -0.3781627197 0.5900000000 -0.0431161804
v -0.3546201172 0.5900000000 -0.0772556152
v -0.3308299561 0.5900000000 -0.1086964417
v -0.3067812500 0.5900000000 -0.1377636719
v -0.2824630127 0.5900000000 -0.1647823181
v -0.2578642578 0.5900000000 -0.1900773926
v -0.2329739990 0.5900000000 -0.2139739075
v -0.2077812500 0.5900000000 -0.2367968750
v -0.3954223633 0.6587500000 -0.0106408691
v -0.3721638727 0.6587500000 -0.0465725532
v -0.3485596085 0.6587500000 -0.0795353508
v -0.3246580076 0.6587500000 -0.1098838773
v -0.3005075073 0.6587500000 -0.1379727478
v -0.2761565447 0.6587500000 -0.1641565776
v -0.2516535568 0.6587500000 -0.1887899818
v -0.2270469809 0.6587500000 -0.2122275758
v -0.2023852539 0.6587500000 -0.2348239746
v -0.3888867188 0.7275000000 -0.0155761719
v -0.3657089615 0.7275000000 -0.0502201424
v -0.3420693970 0.7275000000 -0.0819596252
v -0.3180781174 0.7275000000 -0.1111761436
v -0.2938452148 0.7275000000 -0.1382512207
v -0.2694807816 0.7275000000 -0.1635663795
v -0.2450949097 0.7275000000 -0.1875031433
v -0.2207976913 0.7275000000 -0.2104430351
v -0.1966992188 0.7275000000 -0.2327675781
v -0.3818999023 0.7962500000 -0.0207429199
v -0.3588436308 0.7962500000 -0.0540455556
v -0.3352039108 0.7962500000 -0.0845192604
v -0.3111536570 0.7962500000 -0.1125687919
v -0.2868657837 0.7962500000 -0.1385989075
v -0.2625132055 0.7962500000 -0.1630143647
v -0.2382688370 0.7962500000 -0.1862199211
v -0.2143055925 0.7962500000 -0.2086203341
v -0.1907963867 0.7962500000 -0.2306203613
v -0.3745000000 0.8650000000 -0.0261250000
v -0.3516135254 0.8650000000 -0.0580354004
v -0.3280175781 0.8650000000 -0.0872050781
v -0.3039479980 0.8650000000 -0.1140573730
v -0.2796406250 0.8650000000 -0.1390156250
v -0.2553312988 0.8650000000 -0.1625031738
v -0.2312558594 0.8650000000 -0.1849433594
v -0.2076501465 0.8650000000 -0.2067595215
v -0.1847500000 0.8650000000 -0.2283750000
v -0.3667250977 0.9337500000 -0.0317062988
v -0.3440642900 0.9337500000 -0.0621762843
v -0.3205648270 0.9337500000 -0.0900079002
v -0.2965245123 0.9337500000 -0.1156374383
v -0.2722411499 0.9337500000 -0.1395011902
v -0.2480125437 0.9337500000 -0.1620354476
v -0.2241364975 0.9337500000 -0.1836765022
v -0.2009108152 0.9337500000 -0.2048606458
v -0.1786333008 0.9337500000 -0.2260241699
v -0.3586132813 1.0025000000 -0.0374707031
v -0.3362415695 1.0025000000 -0.0664548149
v -0.3129000854 1.0025000000 -0.0929185486
v -0.2889465714 1.0025000000 -0.1173045387
v -0.2647387695 1.0025000000 -0.1400554199
v -0.2406344223 1.0025000000 -0.1616138268
v -0.2169912720 1.0025000000 -0.1824223938
v -0.1941670609 1.0025000000 -0.2029237556
v -0.1725195313 1.0025000000 -0.2235605469
v -0.3502026367 1.0712500000 -0.0434020996
v -0.3281910086 1.0712500000 -0.0708575997
v -0.3050777817 1.0712500000 -0.0959278450
v -0.2812775469 1.0712500000 -0.1190542254
v -0.2572048950 1.0712500000 -0.1406781311
v -0.2332744169 1.0712500000 -0.1612409520
v -0.2099007034 1.0712500000 -0.1811840782
v -0.1874983454 1.0712500000 -0.2009488997
v -0.1664819336 1.0712500000 -0.2209768066
v -0.3415312500 1.1400000000 -0.0494843750
v -0.3199582520 1.1400000000 -0.0753712463
v -0.2971523437 1.1400000000 -0.0990266113
v -0.2735808105 1.1400000000 -0.1208820496
v -0.2497109375 1.1400000000 -0.1413691406
v -0.2260100098 1.1400000000 -0.1609194641
v -0.2029453125 1.1400000000 -0.1799645996
v -0.1809841309 1.1400000000 -0.1989361267
v -0.1605937500 1.1400000000 -0.2182656250
v -0.3326372070 1.2087500000 -0.0557014160
v -0.3115889444 1.2087500000 -0.0799823623
v -0.2891781998 1.2087500000 -0.1022056694
v -0.2659197340 1.2087500000 -0.1227835622
v -0.2423283081 1.2087500000 -0.1421282654
v -0.2189186831 1.2087500000 -0.1606520038
v -0.1962056198 1.2087500000 -0.1787670021
v -0.1747038794 1.2087500000 -0.1968854852
v -0.1549282227 1.2087500000 -0.2154196777
v -0.3235585937 1.2775000000 -0.0620371094
v -0.3031287308 1.2775000000 -0.0846775551
v -0.2812097778 1.2775000000 -0.1054558411
v -0.2583576889 1.2775000000 -0.1247543144
v -0.2351284180 1.2775000000 -0.1429553223
v -0.2120779190 1.2775000000 -0.1604412117
v -0.1897621460 1.2775000000 -0.1775943298
v -0.1687370529 1.2775000000 -0.1947970238
v -0.1495585938 1.2775000000 -0.2124316406
v -0.3143334961 1.3462500000 -0.0684753418
v -0.2946232557 1.3462500000 -0.0894434323
v -0.2733015060 1.3462500000 -0.1087679482
v -0.2509580469 1.3462500000 -0.1267898574
v -0.2281826782 1.3462500000 -0.1438501282
v -0.2055651999 1.3462500000 -0.1602897286
v -0.1836954117 1.3462500000 -0.1764496269
v -0.1631631136 1.3462500000 -0.1926707911
v -0.1445581055 1.3462500000 -0.2092941895
v -0.3050000000 1.4150000000 -0.0750000000
v -0.2861181641 1.4150000000 -0.0942666016
v -0.2655078125 1.4150000000 -0.1121328125
v -0.2437841797 1.4150000000 -0.1288857422
v -0.2215625000 1.4150000000 -0.1448125000
v -0.1994580078 1.4150000000 -0.1602001953
v -0.1780859375 1.4150000000 -0.1753359375
v -0.1580615234 1.4150000000 -0.1905068359
v -0.1400000000 1.4150000000 -0.2060000000
vt -0.3222947970 0.0000000000
vt -0.2747175224 0.0000000000
vt -0.2299366904 0.0000000000
vt -0.1876189104 0.0000000000
vt -0.1474123019 0.0000000000
vt -0.1089453980 0.0000000000
vt -0.0718276464 0.0000000000
vt -0.0356520287 0.0000000000
vt 0.0000000000 0.0000000000
vt -0.3178334433 0.0687937647
vt -0.2711017939 0.0687937647
vt -0.2270866816 0.0687937647
vt -0.1854444317 0.0687937647
vt -0.1458187808 0.0687937647
vt -0.1078416735 0.0687937647
vt -0.0711354327 0.0687937647
vt -0.0353164224 0.0687937647
vt 0.0000000000 0.0687937647
vt -0.3130709301 0.1375974427
vt -0.2672389280 0.1375974427
vt -0.2240308562 0.1375974427
vt -0.1830957448 0.1375974427
vt -0.1440771245 0.1375974427
vt -0.1066153559 0.1375974427
vt -0.0703508821 0.1375974427
vt -0.0349281839 0.1375974427
vt 0.0000000000 0.1375974427
vt -0.3080073163 0.2064118557
vt -0.2631291418 0.2064118557
vt -0.2207685503 0.2064118557
vt -0.1805710386 0.2064118557
vt -0.1421848469 0.2064118557
vt -0.1052642202 0.2064118557
vt -0.0694729109 0.2064118557
vt -0.0344874927 0.2064118557
vt 0.0000000000 0.2064118557
vt -0.3026411826 0.2752375378
vt -0.2587713657 0.2752375378
vt -0.2172981044 0.2752375378
vt -0.1778678470 0.2752375378
vt -0.1401391161 0.2752375378
vt -0.1037858842 0.2752375378
vt -0.0685003116 0.2752375378
vt -0.0339943709 0.2752375378
vt 0.0000000000 0.2752375378
vt -0.2969692569 0.3440748256
vt -0.2541629108 0.3440748256
vt -0.2136166037 0.3440748256
vt -0.1749828807 0.3440748256
vt -0.1379366652 0.3440748256
vt -0.1021777626 0.3440748256
vt -0.0674317132 0.3440748256
vt -0.0334486407 0.3440748256
vt 0.0000000000 0.3440748256
vt -0.2909861082 0.4129239491
vt -0.2492991986 0.4129239491
vt -0.2097196745 0.4129239491
vt -0.1719119029 0.4129239491
vt -0.1355737357 0.4129239491
vt -0.1004370484 0.4129239491
vt -0.0662655680 0.4129239491
vt -0.0328499023 0.4129239491
vt 0.0000000000 0.4129239491
vt -0.2846839120 0.4817851224
vt -0.2441735576 0.4817851224
vt -0.2056013374 0.4817851224
vt -0.1686496507 0.4817851224
vt -0.1330460570 0.4817851224
vt -0.0985607239 0.4817851224
vt -0.0650001650 0.4817851224
vt -0.0321975348 0.4817851224
vt 0.0000000000 0.4817851224
vt -0.2780522919 0.5506586332
vt -0.2387770907 0.5506586332
vt -0.2012539235 0.5506586332
vt -0.1651898072 0.5506586332
vt -0.1303488648 0.5506586332
vt -0.0965456044 0.5506586332
vt -0.0636336761 0.5506586332
vt -0.0314907220 0.5506586332
vt 0.0000000000 0.5506586332
vt -0.2710782437 0.6195449342
vt -0.2330986216 0.6195449342
vt -0.1966680585 0.6195449342
vt -0.1615250297 0.6195449342
vt -0.1274769645 0.6195449342
vt -0.0943884218 0.6195449342
vt -0.0621642380 0.6195449342
vt -0.0307285077 0.6195449342
vt 0.0000000000 0.6195449342
vt -0.2637461523 0.6884447324
vt -0.2271247276 0.6884447324
vt -0.1918327265 0.6884447324
vt -0.1576470441 0.6884447324
vt -0.1244248494 0.6884447324
vt -0.0920859555 0.6884447324
vt -0.0605900814 0.6884447324
vt -0.0299098873 0.6884447324
vt 0.0000000000 0.6884447324
vt -0.2560379139 0.7573590800
vt -0.2208398745 0.7573590800
vt -0.1867354237 0.7573590800
vt -0.1535468162 0.7573590800
vt -0.1211868840 0.7573590800
vt -0.0896352255 0.7573590800
vt -0.0589097175 0.7573590800
vt -0.0290339450 0.7573590800
vt 0.0000000000 0.7573590800
vt -0.2479331816 0.8262894637
vt -0.2142266705 0.8262894637
vt -0.1813624241 0.8262894637
vt -0.1492148210 0.8262894637
vt -0.1177575744 0.8262894637
vt -0.0870337643 0.8262894637
vt -0.0571222027 0.8262894637
vt -0.0281000517 0.8262894637
vt 0.0000000000 0.8262894637
vt -0.2394097646 0.8952378949
vt -0.2072662678 0.8952378949
vt -0.1756991817 0.8952378949
vt -0.1446414370 0.8952378949
vt -0.1141319511 0.8952378949
vt -0.0842799985 0.8952378949
vt -0.0552275076 0.8952378949
vt -0.0271081445 0.8952378949
vt 0.0000000000 0.8952378949
vt -0.2304442183 0.9642069992
vt -0.1999389530 0.9642069992
vt -0.1697309134 0.9642069992
vt -0.1398175061 0.9642069992
vt -0.1103061089 0.9642069992
vt -0.0813737806 0.9642069992
vt -0.0532270322 0.9642069992
vt -0.0260591223 0.9642069992
vt 0.0000000000 0.9642069992
vt -0.2210126916 1.0332001055
vt -0.1922249884 1.0332001055
vt -0.1634434231 1.0332001055
vt -0.1347351235 1.0332001055
vt -0.1062779639 1.0332001055
vt -0.0783171362 1.0332001055
vt -0.0511243301 1.0332001055
vt -0.0249554067 1.0332001055
vt 0.0000000000 1.0332001055
vt -0.2110921221 1.1022213348
vt -0.1841057986 1.1022213348
vt -0.1568242629 1.1022213348
vt -0.1293887504 1.1022213348
vt -0.1020483255 1.1022213348
vt -0.0751153193 1.1022213348
vt -0.0489261331 1.1022213348
vt -0.0238017435 1.1022213348
vt 0.0000000000 1.1022213348
vn -0.8688617214 0.0250162333 -0.4944223875
vn -0.8585796936 0.0300635832 -0.5117979002
vn -0.8389551423 0.0363933363 -0.5429823148
vn -0.8150170501 0.0428423662 -0.5778509667
vn -0.7863656684 0.0486443049 -0.6158431352
vn -0.7528529002 0.0529928740 -0.6560520299
vn -0.7147056119 0.0550645559 -0.6972544608
vn -0.6726108557 0.0540558463 -0.7380193780
vn -0.6099203727 0.0495653500 -0.7909111297
vn -0.8642976368 0.0271966811 -0.5022448961
vn -0.8573797198 0.0304283481 -0.5137841295
vn -0.8375617283 0.0367094575 -0.5451080324
vn -0.8138807636 0.0434035753 -0.5794085193
vn -0.7861075996 0.0496934096 -0.6160887980
vn -0.7542699535 0.0547282006 -0.6542794978
vn -0.7187397515 0.0576460245 -0.6928853480
vn -0.6802756935 0.0576064032 -0.7306890468
vn -0.6255517248 0.0537884197 -0.7783263104
vn -0.8581684360 0.0318899913 -0.5123767793
vn -0.8506007861 0.0354133128 -0.5246181468
vn -0.8292577045 0.0419441818 -0.5572901803
vn -0.8046932410 0.0490042491 -0.5916649149
vn -0.7770101008 0.0556661405 -0.6270219964
vn -0.7465881170 0.0609874300 -0.6624852579
vn -0.7141100753 0.0640367220 -0.6970983421
vn -0.6805331013 0.0639209016 -0.7299238429
vn -0.6305636693 0.0596286205 -0.7738435802
vn -0.8514081541 0.0359115205 -0.5232728905
vn -0.8430733566 0.0396468682 -0.5363351948
vn -0.8200085555 0.0462908381 -0.5704762284
vn -0.7944942914 0.0536088945 -0.6049007418
vn -0.7669928049 0.0605827501 -0.6387892983
vn -0.7382344684 0.0661988770 -0.6712879995
vn -0.7091831545 0.0694742245 -0.7015928916
vn -0.6809518368 0.0694734193 -0.7290254042
vn -0.6361345644 0.0649738722 -0.7688375719
vn -0.8440271416 0.0392611480 -0.5348614274
vn -0.8348122272 0.0431293220 -0.5488427888
vn -0.8098397831 0.0497522090 -0.5845376322
vn -0.7833223347 0.0572238456 -0.6189762124
vn -0.7560988731 0.0644531966 -0.6512758859
vn -0.7292346051 0.0703741249 -0.6806352719
vn -0.7039331120 0.0739664294 -0.7064043751
vn -0.6814155427 0.0742592569 -0.7281197848
vn -0.6420553404 0.0698036966 -0.7634738920
vn -0.8360341173 0.0419430396 -0.5470719661
vn -0.8258315810 0.0458663949 -0.5620484619
vn -0.7987790625 0.0523384283 -0.5993435561
vn -0.7712189069 0.0598636001 -0.6337489621
vn -0.7443719458 0.0672947802 -0.6643657268
vn -0.7196095224 0.0735294818 -0.6904748732
vn -0.6983257981 0.0775219932 -0.7115696876
vn -0.6818010492 0.0782700518 -0.7273383864
vn -0.6481132826 0.0740906135 -0.7579312329
vn -0.8274365464 0.0439653851 -0.5598355174
vn -0.8161458801 0.0478690074 -0.5758597577
vn -0.7868580288 0.0540668582 -0.6147611059
vn -0.7582306118 0.0615506589 -0.6490746149
vn -0.7318574503 0.0691318384 -0.6779420782
vn -0.7093758185 0.0756856277 -0.7007550456
vn -0.6923176566 0.0801503417 -0.7171277328
vn -0.6819758475 0.0814948310 -0.7268201538
vn -0.6540888399 0.0778024311 -0.7524058554
vn -0.8182409387 0.0453401547 -0.5730846680
vn -0.8057707152 0.0491530910 -0.5901843171
vn -0.7741140166 0.0549619729 -0.6306557467
vn -0.7444109815 0.0623153535 -0.6648075566
vn -0.7186038451 0.0699954559 -0.6918881051
vn -0.6985458487 0.0768673397 -0.7114247039
vn -0.6858543012 0.0818617763 -0.7231199949
vn -0.6817947431 0.0839210742 -0.7267139614
vn -0.6597514039 0.0809045176 -0.7471161517
vn -0.8084530443 0.0460828585 -0.5867538201
vn -0.7947236074 0.0497394094 -0.6049300612
vn -0.7605917414 0.0550552191 -0.6468918965
vn -0.7298222272 0.0621956206 -0.6808018959
vn -0.7046637839 0.0699231579 -0.7060876034
vn -0.6871278021 0.0771032855 -0.7224337111
vn -0.6788687171 0.0826676890 -0.7295911993
vn -0.6810954596 0.0855358202 -0.7271812693
vn -0.6648536095 0.0833620929 -0.7423075100
vn -0.7980779179 0.0462122996 -0.6007795439
vn -0.7830247540 0.0496533731 -0.6200054654
vn -0.7463449254 0.0543848208 -0.6633336593
vn -0.7145368748 0.0612366851 -0.6969125648
vn -0.6900951921 0.0689585571 -0.7204258069
vn -0.6751256637 0.0764258785 -0.7337332099
vn -0.6712789730 0.0825809106 -0.7365900717
vn -0.6796928635 0.0863268641 -0.7283991240
vn -0.6691235216 0.0851425937 -0.7382577136
vn -0.7871198071 0.0457503038 -0.6151010641
vn -0.7706977164 0.0489248347 -0.6353199119
vn -0.7314378855 0.0529955054 -0.6798456413
vn -0.6986393063 0.0594906198 -0.7129964838
vn -0.6749622594 0.0671509283 -0.7347902430
vn -0.6625390221 0.0748711874 -0.7452760223
vn -0.6629852930 0.0816162176 -0.7441702052
vn -0.6773713480 0.0862841165 -0.7305635551
vn -0.6722538124 0.0862181978 -0.7352830979
vn -0.7755818040 0.0447214140 -0.6296609091
vn -0.7577700503 0.0475878529 -0.6507841018
vn -0.7159471375 0.0509381334 -0.6962937619
vn -0.6822272626 0.0570157612 -0.7289136884
vn -0.6593363710 0.0645546924 -0.7490715864
vn -0.6493626681 0.0724788972 -0.7570171297
vn -0.6538662820 0.0797910433 -0.7523910384
vn -0.6738747226 0.0854012264 -0.7338933770
vn -0.6738866558 0.0865686312 -0.7337456284
vn -0.7634651674 0.0431525273 -0.6444057709
vn -0.7442738904 0.0456804186 -0.6663104948
vn -0.6999631176 0.0482692247 -0.7125459396
vn -0.6654134206 0.0538759687 -0.7445282800
vn -0.6432970269 0.0612287932 -0.7631644450
vn -0.6355859141 0.0692923223 -0.7689142474
vn -0.6437740224 0.0771264499 -0.7613189337
vn -0.6688926920 0.0836776172 -0.7386342958
vn -0.6735925083 0.0861844557 -0.7340608779
vn -0.7507681727 0.0410724514 -0.6592876493
vn -0.7302465151 0.0432441367 -0.6818137369
vn -0.6835922000 0.0450503855 -0.7284724888
vn -0.6483272320 0.0501397260 -0.7597090286
vn -0.6269328294 0.0572359599 -0.7769679995
vn -0.6211915380 0.0653584782 -0.7809285130
vn -0.6325276543 0.0736484476 -0.7710283216
vn -0.6620426399 0.0811211553 -0.7450630183
vn -0.6708401492 0.0850711335 -0.7367064520
vn -0.7374842613 0.0385113437 -0.6742654083
vn -0.7157309432 0.0403238658 -0.6972110174
vn -0.6669593019 0.0413476521 -0.7439460070
vn -0.6311173223 0.0458790940 -0.7743294094
vn -0.6103426736 0.0526418501 -0.7903863969
vn -0.6061542174 0.0607282276 -0.7930253130
vn -0.6199048957 0.0693897837 -0.7816028264
vn -0.6528449330 0.0777517776 -0.7534906466
vn -0.6649542436 0.0832543179 -0.7422294608
vn -0.7235991048 0.0354999734 -0.6893069617
vn -0.7007766519 0.0369673176 -0.7124222776
vn -0.6502115482 0.0372307822 -0.7588404387
vn -0.6139549132 0.0411685307 -0.7882667801
vn -0.5936373417 0.0475140730 -0.8033287742
vn -0.5904382581 0.0554565297 -0.8051752832
vn -0.6056307429 0.0643923824 -0.7931361953
vn -0.6406893314 0.0736065684 -0.7642638639
vn -0.6550552805 0.0807870410 -0.7512496479
vn -0.7138696642 0.0305187250 -0.6996132575
vn -0.7000374128 0.0337263132 -0.7133092993
vn -0.6461583954 0.0329090018 -0.7624934922
vn -0.6071297716 0.0361605781 -0.7937794738
vn -0.5842781373 0.0420412671 -0.8104638117
vn -0.5785035354 0.0496980524 -0.8141644571
vn -0.5909369014 0.0585941232 -0.8045870414
vn -0.6231651556 0.0681887746 -0.7791119816
vn -0.6442813701 0.0990041733 -0.7583532751
f 1/1/1 11/11/11 2/2/2
f 1/1/1 10/10/10 11/11/11
f 2/2/2 12/12/12 3/3/3
f 2/2/2 11/11/11 12/12/12
f 3/3/3 13/13/13 4/4/4
f 3/3/3 12/12/12 13/13/13
f 4/4/4 14/14/14 5/5/5
f 4/4/4 13/13/13 14/14/14
f 5/5/5 15/15/15 6/6/6
f 5/5/5 14/14/14 15/15/15
f 6/6/6 16/16/16 7/7/7
f 6/6/6 15/15/15 16/16/16
f 7/7/7 17/17/17 8/8/8
f 7/7/7 16/16/16 17/17/17
f 8/8/8 18/18/18 9/9/9
f 8/8/8 17/17/17 18/18/18
f 10/10/10 20/20/20 11/11/11
f 10/10/10 19/19/19 20/20/20
f 11/11/11 21/21/21 12/12/12
f 11/11/11 20/20/20 21/21/21
f 12/12/12 22/22/22 13/13/13
f 12/12/12 21/21/21 22/22/22
f 13/13/13 23/23/23 14/14/14
f 13/13/13 22/22/22 23/23/23
f 14/14/14 24/24/24 15/15/15
f 14/14/14 23/23/23 24/24/24
f 15/15/15 25/25/25 16/16/16
f 15/15/15 24/24/24 25/25/25
f 16/16/16 26/26/26 17/17/17
f 16/16/16 25/25/25 26/26/26
f 17/17/17 27/27/27 18/18/18
f 17/17/17 26/26/26 27/27/27
f 19/19/19 29/29/29 20/20/20
f 19/19/19 28/28/28 29/29/29
f 20/20/20 30/30/30 21/21/21
f 20/20/20 29/29/29 30/30/30
f 21/21/21 31/31/31 22/22/22
f 21/21/21 30/30/30 31/31/31
f 22/22/22 32/32/32 23/23/23
f 22/22/22 31/31/31 32/32/32
f 23/23/23 33/33/33 24/24/24
f 23/23/23 32/32/32 33/33/33
f 24/24/24 34/34/34 25/25/25
f 24/24/24 33/33/33 34/34/34
f 25/25/25 35/35/35 26/26/26
f 25/25/25 34/34/34 35/35/35
f 26/26/26 36/36/36 27/27/27
f 26/26/26 35/35/35 36/36/36
f 28/28/28 38/38/38 29/29/29
f 28/28/28 37/37/37 38/38/38
f 29/29/29 39/39/39 30/30/30
f 29/29/29 38/38/38 39/39/39
f 30/30/30 40/40/40 31/31/31
f 30/30/30 39/39/39 40/40/40
f 31/31/31 41/41/41 32/32/32
f 31/31/31 40/40/40 41/41/41
f 32/32/32 42/42/42 33/33/33
f 32/32/32 41/41/41 42/42/42
f 33/33/33 43/43/43 34/34/34
f 33/33/33 42/42/42 43/43/43
f 34/34/34 44/44/44 35/35/35
f 34/34/34 43/43/43 44/44/44
f 35/35/35 45/45/45 36/36/36
f 35/35/35 44/44/44 45/45/45
f 37/37/37 47/47/47 38/38/38
f 37/37/37 46/46/46 47/47/47
f 38/38/38 48/48/48 39/39/39
f 38/38/38 47/47/47 48/48/48
f 39/39/39 49/49/49 40/40/40
f 39/39/39 48/48/48 49/49/49
f 40/40/40 50/50/50 41/41/41
f 40/40/40 49/49/49 50/50/50
f 41/41/41 51/51/51 42/42/42
f 41/41/41 50/50/50 51/51/51
f 42/42/42 52/52/52 43/43/43
f 42/42/42 51/51/51 52/52/52
f 43/43/43 53/53/53 44/44/44
f 43/43/43 52/52/52 53/53/53
f 44/44/44 54/54/54 45/45/45
f 44/44/44 53/53/53 54/54/54
f 46/46/46 56/56/56 47/47/47
f 46/46/46 55/55/55 56/56/56
f 47/47/47 57/57/57 48/48/48
f 47/47/47 56/56/56 57/57/57
f 48/48/48 58/58/58 49/49/49
f 48/48/48 57/57/57 58/58/58
f 49/49/49 59/59/59 50/50/50
f 49/49/49 58/58/58 59/59/59
f 50/50/50 60/60/60 51/51/51
f 50/50/50 59/59/59 60/60/60
f 51/51/51 61/61/61 52/52/52
f 51/51/51 60/60/60 61/61/61
f 52/52/52 62/62/62 53/53/53
f 52/52/52 61/61/61 62/62/62
f 53/53/53 63/63/63 54/54/54
f 53/53/53 62/62/62 63/63/63
f 55/55/55 65/65/65 56/56/56
f 55/55/55 64/64/64 65/65/65
f 56/56/56 66/66/66 57/57/57
f 56/56/56 65/65/65 66/66/66
f 57/57/57 67/67/67 58/58/58
f 57/57/57 66/66/66 67/67/67
f 58/58/58 68/68/68 59/59/59
f 58/58/58 67/67/67 68/68/68
f 59/59/59 69/69/69 60/60/60
f 59/59/59 68/68/68 69/69/69
f 60/60/60 70/70/70 61/61/61
f 60/60/60 69/69/69 70/70/70
f 61/61/61 71/71/71 62/62/62
f 61/61/61 70/70/70 71/71/71
f 62/62/62 72/72/72 63/63/63
f 62/62/62 71/71/71 72/72/72
f 64/64/64 74/74/74 65/65/65
f 64/64/64 73/73/73 74/74/74
f 65/65/65 75/75/75 66/66/66
f 65/65/65 74/74/74 75/75/75
f 66/66/66 76/76/76 67/67/67
f 66/66/66 75/75/75 76/76/76
f 67/67/67 77/77/77 68/68/68
f 67/67/67 76/76/76 77/77/77
f 68/68/68 78/78/78 69/69/69
f 68/68/68 77/77/77 78/78/78
f 69/69/69 79/79/79 70/70/70
f 69/69/69 78/78/78 79/79/79
f 70/70/70 80/80/80 71/71/71
f 70/70/70 79/79/79 80/80/80
f 71/71/71 81/81/81 72/72/72
f 71/71/71 80/80/80 81/81/81
f 73/73/73 83/83/83 74/74/74
f 73/73/73 82/82/82 83/83/83
f 74/74/74 84/84/84 75/75/75
f 74/74/74 83/83/83 84/84/84
f 75/75/75 85/85/85 76/76/76
f 75/75/75 84/84/84 85/85/85
f 76/76/76 86/86/86 77/77/77
f 76/76/76 85/85/85 86/86/86
f 77/77/77 87/87/87 78/78/78
f 77/77/77 86/86/86 87/87/87
f 78/78/78 88/88/88 79/79/79
f 78/78/78 87/87/87 88/88/88
f 79/79/79 89/89/89 80/80/80
f 79/79/79 88/88/88 89/89/89
f 80/80/80 90/90/90 81/81/81
f 80/80/80 89/89/89 90/90/90
f 82/82/82 92/92/92 83/83/83
f 82/82/82 91/91/91 92/92/92
f 83/83/83 93/93/93 84/84/84
f 83/83/83 92/92/92 93/93/93
f 84/84/84 94/94/94 85/85/85
f 84/84/84 93/93/93 94/94/94
f 85/85/85 95/95/95 86/86/86
f 85/85/85 94/94/94 95/95/95
f 86/86/86 96/96/96 87/87/87
f 86/86/86 95/95/95 96/96/96
f 87/87/87 97/97/97 88/88/88
f 87/87/87 96/96/96 97/97/97
f 88/88/88 98/98/98 89/89/89
f 88/88/88 97/97/97 98/98/98
f 89/89/89 99/99/99 90/90/90
f 89/89/89 98/98/98 99/99/99
f 91/91/91 101/101/101 92/92/92
f 91/91/91 100/100/100 101/101/101
f 92/92/92 102/102/102 93/93/93
f 92/92/92 101/101/101 102/102/102
f 93/93/93 103/103/103 94/94/94
f 93/93/93 102/102/102 103/103/103
f 94/94/94 104/104/104 95/95/95
f 94/94/94 103/103/103 104/104/104
f 95/95/95 105/105/105 96/96/96
f 95/95/95 104/104/104 105/105/105
f 96/96/96 106/106/106 97/97/97
f 96/96/96 105/105/105 106/106/106
f 97/97/97 107/107/107 98/98/98
f 97/97/97 106/106/106 107/107/107
f 98/98/98 108/108/108 99/99/99
f 98/98/98 107/107/107 108/108/108
f 100/100/100 110/110/110 101/101/101
f 100/100/100 109/109/109 110/110/110
f 101/101/101 111/111/111 102/102/102
f 101/101/101 110/110/110 111/111/111
f 102/102/102 112/112/112 103/103/103
f 102/102/102 111/111/111 112/112/112
f 103/103/103 113/113/113 104/104/104
f 103/103/103 112/112/112 113/113/113
f 104/104/104 114/114/114 105/105/105
f 104/104/104 113/113/113 114/114/114
f 105/105/105 115/115/115 106/106/106
f 105/105/105 114/114/114 115/115/115
f 106/106/106 116/116/116 107/107/107
f 106/106/106 115/115/115 116/116/116
f 107/107/107 117/117/117 108/108/108
f 107/107/107 116/116/116 117/117/117
f 109/109/109 119/119/119 110/110/110
f 109/109/109 118/118/118 119/119/119
f 110/110/110 120/120/120 111/111/111
f 110/110/110 119/119/119 120/120/120
f 111/111/111 121/121/121 112/112/112
f 111/111/111 120/120/120 121/121/121
f 112/112/112 122/122/122 113/113/113
f 112/112/112 121/121/121 122/122/122
f 113/113/113 123/123/123 114/114/114
f 113/113/113 122/122/122 123/123/123
f 114/114/114 124/124/124 115/115/115
f 114/114/114 123/123/123 124/124/124
f 115/115/115 125/125/125 116/116/116
f 115/115/115 124/124/124 125/125/125
f 116/116/116 126/126/126 117/117/117
f 116/116/116 125/125/125 126/126/126
f 118/118/118 128/128/128 119/119/119
f 118/118/118 127/127/127 128/128/128
f 119/119/119 129/129/129 120/120/120
f 119/119/119 128/128/128 129/129/129
f 120/120/120 130/130/130 121/121/121
f 120/120/120 129/129/129 130/130/130
f 121/121/121 131/131/131 122/122/122
f 121/121/121 130/130/130 131/131/131
f 122/122/122 132/132/132 123/123/123
f 122/122/122 131/131/131 132/132/132
f 123/123/123 133/133/133 124/124/124
f 123/123/123 132/132/132 133/133/133
f 124/124/124 134/134/134 125/125/125
f 124/124/124 133/133/133 134/134/134
f 125/125/125 135/135/135 126/126/126
f 125/125/125 134/134/134 135/135/135
f 127/127/127 137/137/137 128/128/128
f 127/127/127 136/136/136 137/137/137
f 128/128/128 138/138/138 129/129/129
f 128/128/128 137/137/137 138/138/138
f 129/129/129 139/139/139 130/130/130
f 129/129/129 138/138/138 139/139/139
f 130/130/130 140/140/140 131/131/131
f 130/130/130 139/139/139 140/140/140
f 131/131/131 141/141/141 132/132/132
f 131/131/131 140/140/140 141/141/141
f 132/132/132 142/142/142 133/133/133
f 132/132/132 141/141/141 142/142/142
f 133/133/133 143/143/143 134/134/134
f 133/133/133 142/142/142 143/143/143
f 134/134/134 144/144/144 135/135/135
f 134/134/134 143/143/143 144/144/144
f 136/136/136 146/146/146 137/137/137
f 136/136/136 145/145/145 146/146/146
f 137/137/137 147/147/147 138/138/138
f 137/137/137 146/146/146 147/147/147
f 138/138/138 148/148/148 139/139/139
f 138/138/138 147/147/147 148/148/148
f 139/139/139 149/149/149 140/140/140
f 139/139/139 148/148/148 149/149/149
f 140/140/140 150/150/150 141/141/141
f 140/140/140 149/149/149 150/150/150
f 141/141/141 151/151/151 142/142/142
f 141/141/141 150/150/150 151/151/151
f 142/142/142 152/152/152 143/143/143
f 142/142/142 151/151/151 152/152/152
f 143/143/143 153/153/153 144/144/144
f 143/143/143 152/152/152 153/153/153
