# P04-RB open surface prototype; metres; no material; not a finished garment
# Anatomical Right=-X; front=+Z; UV values are metres, not a texture atlas.
o P04-RB
v -0.1400000000 1.4150000000 -0.2060000000
v -0.1231250000 1.4150000000 -0.2197812500
v -0.1062500000 1.4150000000 -0.2296250000
v -0.0893750000 1.4150000000 -0.2355312500
v -0.0725000000 1.4150000000 -0.2375000000
v -0.0556250000 1.4150000000 -0.2355312500
v -0.0387500000 1.4150000000 -0.2296250000
v -0.0218750000 1.4150000000 -0.2197812500
v -0.0050000000 1.4150000000 -0.2060000000
v -0.1387248580 1.4375000000 -0.2009880682
v -0.1220071023 1.4375000000 -0.2144936745
v -0.1052893466 1.4375000000 -0.2241405362
v -0.0885715909 1.4375000000 -0.2299286532
v -0.0718538352 1.4375000000 -0.2318580256
v -0.0551360795 1.4375000000 -0.2299286532
v -0.0384183239 1.4375000000 -0.2241405362
v -0.0217005682 1.4375000000 -0.2144936745
v -0.0049828125 1.4375000000 -0.2009880682
v -0.1375443182 1.4600000000 -0.1890727273
v -0.1209684659 1.4600000000 -0.2020985440
v -0.1043926136 1.4600000000 -0.2114026989
v -0.0878167614 1.4600000000 -0.2169851918
v -0.0712409091 1.4600000000 -0.2188460227
v -0.0546650568 1.4600000000 -0.2169851918
v -0.0380892045 1.4600000000 -0.2114026989
v -0.0215133523 1.4600000000 -0.2020985440
v -0.0049375000 1.4600000000 -0.1890727273
v -0.1361916193 1.4825000000 -0.1716210227
v -0.1197768466 1.4825000000 -0.1833963290
v -0.1033620739 1.4825000000 -0.1918072621
v -0.0869473011 1.4825000000 -0.1968538219
v -0.0705325284 1.4825000000 -0.1985360085
v -0.0541177557 1.4825000000 -0.1968538219
v -0.0377029830 1.4825000000 -0.1918072621
v -0.0212882102 1.4825000000 -0.1833963290
v -0.0048734375 1.4825000000 -0.1716210227
v -0.1344000000 1.5050000000 -0.1500000000
v -0.1182000000 1.5050000000 -0.1591875000
v -0.1020000000 1.5050000000 -0.1657500000
v -0.0858000000 1.5050000000 -0.1696875000
v -0.0696000000 1.5050000000 -0.1710000000
v -0.0534000000 1.5050000000 -0.1696875000
v -0.0372000000 1.5050000000 -0.1657500000
v -0.0210000000 1.5050000000 -0.1591875000
v -0.0048000000 1.5050000000 -0.1500000000
vt 0.0000000000 1.1022213348
vt 0.0218051477 1.1022213348
vt 0.0413660123 1.1022213348
vt 0.0592766988 1.1022213348
vt 0.0763031112 1.1022213348
vt 0.0933291676 1.1022213348
vt 0.1112388578 1.1022213348
vt 0.1307982399 1.1022213348
vt 0.1526015580 1.1022213348
vt 0.0000000000 1.1255193405
vt 0.0218051477 1.1255193405
vt 0.0413660123 1.1255193405
vt 0.0592766988 1.1255193405
vt 0.0763031112 1.1255193405
vt 0.0933291676 1.1255193405
vt 0.1112388578 1.1255193405
vt 0.1307982399 1.1255193405
vt 0.1526015580 1.1255193405
vt 0.0000000000 1.1515825734
vt 0.0218051477 1.1515825734
vt 0.0413660123 1.1515825734
vt 0.0592766988 1.1515825734
vt 0.0763031112 1.1515825734
vt 0.0933291676 1.1515825734
vt 0.1112388578 1.1515825734
vt 0.1307982399 1.1515825734
vt 0.1526015580 1.1515825734
vt 0.0000000000 1.1819412378
vt 0.0218051477 1.1819412378
vt 0.0413660123 1.1819412378
vt 0.0592766988 1.1819412378
vt 0.0763031112 1.1819412378
vt 0.0933291676 1.1819412378
vt 0.1112388578 1.1819412378
vt 0.1307982399 1.1819412378
vt 0.1526015580 1.1819412378
vt 0.0000000000 1.2175365920
vt 0.0218051477 1.2175365920
vt 0.0413660123 1.2175365920
vt 0.0592766988 1.2175365920
vt 0.0763031112 1.2175365920
vt 0.0933291676 1.2175365920
vt 0.1112388578 1.2175365920
vt 0.1307982399 1.2175365920
vt 0.1526015580 1.2175365920
vn -0.6442813701 0.0990041733 -0.7583532751
vn -0.5849155934 0.1157725048 -0.8027891851
vn -0.4388804067 0.1226716871 -0.8901323754
vn -0.2473787148 0.1258996792 -0.9607044510
vn -0.0217719624 0.1229524135 -0.9921737175
vn 0.2075559474 0.1131318870 -0.9716592535
vn 0.4077348317 0.0985628609 -0.9077652061
vn 0.5630412879 0.0825256412 -0.8222980157
vn 0.6380843415 0.0580454995 -0.7677754184
vn -0.5858867119 0.3480463136 -0.7318473369
vn -0.5367890629 0.3310204984 -0.7760688961
vn -0.3910417399 0.3592344189 -0.8473706332
vn -0.2085715635 0.3784208671 -0.9018290028
vn -0.0009940723 0.3821670259 -0.9240927313
vn 0.2076825073 0.3677995005 -0.9064168487
vn 0.3927149121 0.3387922390 -0.8549823487
vn 0.5411285923 0.3021491396 -0.7847838837
vn 0.6105395535 0.2454355911 -0.7529958992
vn -0.5203709005 0.5140730917 -0.6818672762
vn -0.4762312362 0.5169961529 -0.7112796830
vn -0.3384656811 0.5590924972 -0.7568728838
vn -0.1776434017 0.5866780269 -0.7900960160
vn -0.0019997675 0.5940158939 -0.8044508181
vn 0.1751458346 0.5785741685 -0.7966027041
vn 0.3397365517 0.5425510538 -0.7682560963
vn 0.4819360879 0.4917764563 -0.7251851655
vn 0.5598541290 0.4340568095 -0.7058031173
vn -0.4298226783 0.6331536979 -0.6437148904
vn -0.3965107540 0.6473517584 -0.6509338851
vn -0.2724689173 0.6925861181 -0.6678960684
vn -0.1405842933 0.7196678494 -0.6799369405
vn -0.0038246641 0.7270312637 -0.6865937033
vn 0.1344649197 0.7137432694 -0.6873788844
vn 0.2705537161 0.6796468973 -0.6818216641
vn 0.4004102606 0.6255650540 -0.6695819490
vn 0.4909900925 0.5648821529 -0.6632019922
vn -0.3712315927 0.6585684518 -0.6545797880
vn -0.3578867381 0.6848941581 -0.6346944736
vn -0.2457316954 0.7329874400 -0.6343069814
vn -0.1336550253 0.7619929783 -0.6336426716
vn -0.0218397442 0.7732215840 -0.6337597397
vn 0.0901842499 0.7671839641 -0.6350555616
vn 0.2029604142 0.7434278542 -0.6372770951
vn 0.3165171032 0.7006194335 -0.6394914642
vn 0.4114852069 0.6487043185 -0.6402051481
f 1/1/1 11/11/11 2/2/2
f 1/1/1 10/10/10 11/11/11
f 2/2/2 12/12/12 3/3/3
f 2/2/2 11/11/11 12/12/12
f 3/3/3 13/13/13 4/4/4
f 3/3/3 12/12/12 13/13/13
f 4/4/4 14/14/14 5/5/5
f 4/4/4 13/13/13 14/14/14
f 5/5/5 15/15/15 6/6/6
f 5/5/5 14/14/14 15/15/15
f 6/6/6 16/16/16 7/7/7
f 6/6/6 15/15/15 16/16/16
f 7/7/7 17/17/17 8/8/8
f 7/7/7 16/16/16 17/17/17
f 8/8/8 18/18/18 9/9/9
f 8/8/8 17/17/17 18/18/18
f 10/10/10 20/20/20 11/11/11
f 10/10/10 19/19/19 20/20/20
f 11/11/11 21/21/21 12/12/12
f 11/11/11 20/20/20 21/21/21
f 12/12/12 22/22/22 13/13/13
f 12/12/12 21/21/21 22/22/22
f 13/13/13 23/23/23 14/14/14
f 13/13/13 22/22/22 23/23/23
f 14/14/14 24/24/24 15/15/15
f 14/14/14 23/23/23 24/24/24
f 15/15/15 25/25/25 16/16/16
f 15/15/15 24/24/24 25/25/25
f 16/16/16 26/26/26 17/17/17
f 16/16/16 25/25/25 26/26/26
f 17/17/17 27/27/27 18/18/18
f 17/17/17 26/26/26 27/27/27
f 19/19/19 29/29/29 20/20/20
f 19/19/19 28/28/28 29/29/29
f 20/20/20 30/30/30 21/21/21
f 20/20/20 29/29/29 30/30/30
f 21/21/21 31/31/31 22/22/22
f 21/21/21 30/30/30 31/31/31
f 22/22/22 32/32/32 23/23/23
f 22/22/22 31/31/31 32/32/32
f 23/23/23 33/33/33 24/24/24
f 23/23/23 32/32/32 33/33/33
f 24/24/24 34/34/34 25/25/25
f 24/24/24 33/33/33 34/34/34
f 25/25/25 35/35/35 26/26/26
f 25/25/25 34/34/34 35/35/35
f 26/26/26 36/36/36 27/27/27
f 26/26/26 35/35/35 36/36/36
f 28/28/28 38/38/38 29/29/29
f 28/28/28 37/37/37 38/38/38
f 29/29/29 39/39/39 30/30/30
f 29/29/29 38/38/38 39/39/39
f 30/30/30 40/40/40 31/31/31
f 30/30/30 39/39/39 40/40/40
f 31/31/31 41/41/41 32/32/32
f 31/31/31 40/40/40 41/41/41
f 32/32/32 42/42/42 33/33/33
f 32/32/32 41/41/41 42/42/42
f 33/33/33 43/43/43 34/34/34
f 33/33/33 42/42/42 43/43/43
f 34/34/34 44/44/44 35/35/35
f 34/34/34 43/43/43 44/44/44
f 35/35/35 45/45/45 36/36/36
f 35/35/35 44/44/44 45/45/45
